<?xml version="1.0" encoding="UTF-8" standalone="no"?>
<svg width="42px" height="49px" viewBox="0 0 42 49" version="1.1" xmlns="http://www.w3.org/2000/svg" xmlns:xlink="http://www.w3.org/1999/xlink" xmlns:sketch="http://www.bohemiancoding.com/sketch/ns">
    <!-- Generator: Sketch 3.1.1 (8761) - http://www.bohemiancoding.com/sketch -->
    <title>airplane_F</title>
    <desc>Created with Sketch.</desc>
    <defs></defs>
    <g id="Page-1" stroke="none" stroke-width="1" fill="none" fill-rule="evenodd" sketch:type="MSPage">
        <g id="full-icons" sketch:type="MSLayerGroup" transform="translate(-400.000000, -506.000000)" fill="#8B572A">
            <g id="row-6-full-icons" transform="translate(18.000000, 506.000000)" sketch:type="MSShapeGroup">
                <path d="M402.82631,0.943407059 C400.064478,0.943407059 397.82557,3.17859247 397.82557,5.94405139 C397.82557,5.94405139 397.82557,18.3127975 397.82557,18.3127975 C397.825571,18.3127975 388.697163,23.9045773 384.327094,27.1198521 C382.915957,28.1580949 382.158924,33.5503979 382.158924,33.5503979 C382.158924,33.5503979 397.825571,27.1198518 397.82557,27.1198521 C397.82557,27.1198527 397.82557,38.6322736 397.82557,42.9434071 C397.82557,42.9434071 393.245942,48.0565929 393.245942,48.0565929 L411.868288,48.0565929 C411.868288,48.0565929 407.019881,42.9434071 407.019881,42.9434071 C407.019881,37.7019036 407.019881,27.1198521 407.019881,27.1198521 L423.044424,33.5503979 C423.044424,33.5503979 423.314501,29.2035103 421.185991,27.1198521 C419.057481,25.0361938 407.019881,18.3127975 407.019881,18.3127975 L407.019881,5.94405139 C407.019881,3.18227179 404.782457,0.943407059 402.019141,0.943407059 L402.82631,0.943407059 Z" id="airplane_F"></path>
            </g>
        </g>
    </g>
</svg>