<?xml version="1.0" encoding="UTF-8" standalone="no"?>
<svg width="44px" height="48px" viewBox="0 0 44 48" version="1.1" xmlns="http://www.w3.org/2000/svg" xmlns:xlink="http://www.w3.org/1999/xlink" xmlns:sketch="http://www.bohemiancoding.com/sketch/ns">
    <!-- Generator: Sketch 3.1.1 (8761) - http://www.bohemiancoding.com/sketch -->
    <title>binder_F</title>
    <desc>Created with Sketch.</desc>
    <defs></defs>
    <g id="Page-1" stroke="none" stroke-width="1" fill="none" fill-rule="evenodd" sketch:type="MSPage">
        <g id="full-icons" sketch:type="MSLayerGroup" transform="translate(-100.000000, -402.000000)" fill="#8B572A">
            <g id="row-5-full-icons" transform="translate(1.000000, 400.000000)" sketch:type="MSShapeGroup">
                <path d="M99,2 L99,50 L143,50 L143,2 L99,2 Z M101,4 L101,48 L113,48 L113,4 L101,4 Z M115,4 L115,48 L127,48 L127,4 L115,4 Z M129,4 L129,48 L141,48 L141,4 L129,4 Z M103,7 L103,33 L111,33 L111,7 L103,7 Z M107,45 C109.209139,45 111,43.2091391 111,41 C111,38.7908609 109.209139,37 107,37 C104.790861,37 103,38.7908609 103,41 C103,43.2091391 104.790861,45 107,45 Z M117,7 L117,33 L125,33 L125,7 L117,7 Z M121,45 C123.209139,45 125,43.2091391 125,41 C125,38.7908609 123.209139,37 121,37 C118.790861,37 117,38.7908609 117,41 C117,43.2091391 118.790861,45 121,45 Z M131,7 L131,33 L139,33 L139,7 L131,7 Z M135,45 C137.209139,45 139,43.2091391 139,41 C139,38.7908609 137.209139,37 135,37 C132.790861,37 131,38.7908609 131,41 C131,43.2091391 132.790861,45 135,45 Z" id="binder_F"></path>
            </g>
        </g>
    </g>
</svg>