<?xml version="1.0" encoding="UTF-8" standalone="no"?>
<svg width="38px" height="38px" viewBox="0 0 38 38" version="1.1" xmlns="http://www.w3.org/2000/svg" xmlns:xlink="http://www.w3.org/1999/xlink" xmlns:sketch="http://www.bohemiancoding.com/sketch/ns">
    <!-- Generator: Sketch 3.1.1 (8761) - http://www.bohemiancoding.com/sketch -->
    <title>binder_clip_F</title>
    <desc>Created with Sketch.</desc>
    <defs></defs>
    <g id="Page-1" stroke="none" stroke-width="1" fill="none" fill-rule="evenodd" sketch:type="MSPage">
        <g id="full-icons" sketch:type="MSLayerGroup" transform="translate(-399.000000, -106.000000)" fill="#8B572A">
            <g id="row-2-full-icons" transform="translate(3.000000, 101.000000)" sketch:type="MSShapeGroup">
                <path d="M420,43 L410,43 L410,43 C410,42.4477152 409.552285,42 409,42 C408.447715,42 408,42.4477152 408,43 L400.998154,43 C400.447365,43 400,42.5522847 400,42 C400,41.4673284 400.409975,41.0376536 400.928962,41.0023454 L400.928962,41.0023454 C399.546022,37.7547187 396.962891,31.6886243 396.962891,31.6886243 C396.094003,29.6481706 397.182656,28 399.391344,28 L431.018279,28 C433.224894,28 434.295914,29.6428521 433.405837,31.6694128 L429.289285,41.0421377 C429.700199,41.1658484 430,41.5478857 430,42 C430,42.5561352 429.553111,43 429.001846,43 L422,43 C422,42.4477152 421.552285,42 421,42 C420.447715,42 420,42.4477152 420,43 Z M413.738047,13 L409.994783,13 C407.791716,13 406,11.209139 406,9 C406,6.79535615 407.788525,5 409.994783,5 L420.005217,5 C422.208284,5 424,6.790861 424,9 C424,11.2046438 422.211475,13 420.005217,13 L416.394829,13 L419.027707,28 L421.045129,28 L418.01779,13 L416.394829,13 L416.046472,11.0153438 L414.10126,11.0153438 L413.738047,13 Z M410.992882,28 L409.005719,28 L411.974931,13 L413.738047,13 L413.738047,13 Z M410.005859,7 C408.898054,7 408,7.88772964 408,9 C408,10.1045695 408.89706,11 410.005859,11 L419.994141,11 C421.101946,11 422,10.1122704 422,9 C422,7.8954305 421.10294,7 419.994141,7 L410.005859,7 Z" id="binder_clip_F"></path>
            </g>
        </g>
    </g>
</svg>