<?xml version="1.0" encoding="UTF-8" standalone="no"?>
<svg width="44px" height="37px" viewBox="0 0 44 37" version="1.1" xmlns="http://www.w3.org/2000/svg" xmlns:xlink="http://www.w3.org/1999/xlink" xmlns:sketch="http://www.bohemiancoding.com/sketch/ns">
    <!-- Generator: Sketch 3.1.1 (8761) - http://www.bohemiancoding.com/sketch -->
    <title>briefcase_F</title>
    <desc>Created with Sketch.</desc>
    <defs></defs>
    <g id="Page-1" stroke="none" stroke-width="1" fill="none" fill-rule="evenodd" sketch:type="MSPage">
        <g id="full-icons" sketch:type="MSLayerGroup" transform="translate(-300.000000, -507.000000)" fill="#8B572A">
            <g id="row-6-full-icons" transform="translate(18.000000, 506.000000)" sketch:type="MSShapeGroup">
                <path d="M298,20 L284.004923,20 C282.898855,20 282,19.1019465 282,17.9941413 L282,8.00585866 C282,6.89706013 282.897635,6 284.004923,6 L296,6 C296,3.23857611 299.581722,1 304,1 C308.418278,1 312,3.23857611 312,6 L312,6 L323.995077,6 C325.101145,6 326,6.89805351 326,8.00585866 L326,17.9941413 C326,19.1029399 325.102365,20 323.995077,20 L310,20 L310,17 L298,17 L298,20 Z M310,21.9720514 C317.644393,21.9720514 324,21.9720514 324,21.9720514 L324,36.002456 C324,37.1039231 323.105782,37.9999994 322.002708,37.9999994 L285.997292,37.9999994 C284.89154,37.9999994 284,37.1056687 284,36.002456 L284,21.9720514 C284,21.9720514 290.355607,21.9720514 298,21.9720514 L298,24 L310,24 L310,21.9720514 Z M310,6 C310,4.34314567 307.313709,3 304,3 C300.686291,3 298,4.34314567 298,6 L310,6 L310,6 Z M300,19 L300,22 L308,22 L308,19 L300,19 Z" id="briefcase_F"></path>
            </g>
        </g>
    </g>
</svg>