<?xml version="1.0" encoding="UTF-8" standalone="no"?>
<svg width="44px" height="40px" viewBox="0 0 44 40" version="1.1" xmlns="http://www.w3.org/2000/svg" xmlns:xlink="http://www.w3.org/1999/xlink" xmlns:sketch="http://www.bohemiancoding.com/sketch/ns">
    <!-- Generator: Sketch 3.1.1 (8761) - http://www.bohemiancoding.com/sketch -->
    <title>calender_F</title>
    <desc>Created with Sketch.</desc>
    <defs></defs>
    <g id="Page-1" stroke="none" stroke-width="1" fill="none" fill-rule="evenodd" sketch:type="MSPage">
        <g id="full-icons" sketch:type="MSLayerGroup" transform="translate(-1.000000, -5.000000)" fill="#8B572A">
            <g id="row-1-full-icons" transform="translate(1.000000, 0.000000)" sketch:type="MSShapeGroup">
                <path d="M8.99999994,11 C3.7215541,11 8.41578169e-09,11 -3.55271368e-15,11 C-2.89373574e-08,11 -4.55242634e-09,38.9997475 -4.55242634e-09,38.9997475 C-2.03819266e-09,42.3135955 2.68616253,45 6.00277388,45 L37.9972261,45 C41.3124666,45 44,42.3178833 44,38.9997475 L44,11 C44,11 40.2784459,11 35,11 L35,11 L35,9 L33,9 L33,11 C31.117643,11 29.0906245,11 27.0000001,11 L27,9 L25,9 L25,11 L25,11 C23.0111114,11 20.9888886,11 19,11 L19,11 L19,9 L17,9 L17,11 C14.9093755,11 12.882357,11 11,11 L11,9 L9,9 L9,11 L8.99999994,11 Z M0,5 L0,9 L44,9 L44,5 L0,5 Z M12.3720703,31.8554688 C12.8050152,30.9635372 13.6497333,30.1529984 14.90625,29.4238281 L16.78125,28.3398438 C17.6210979,27.8515601 18.2102848,27.4348976 18.5488281,27.0898438 C19.0826849,26.5494765 19.3496094,25.9309931 19.3496094,25.234375 C19.3496094,24.4205688 19.1054712,23.7744165 18.6171875,23.2958984 C18.1289038,22.8173804 17.4778686,22.578125 16.6640625,22.578125 C15.4596294,22.578125 14.6263044,23.0338496 14.1640625,23.9453125 C13.9166654,24.4335962 13.779948,25.1106728 13.7539062,25.9765625 L11.9667969,25.9765625 C11.9863282,24.7591085 12.2109353,23.7662799 12.640625,22.9980469 C13.4023475,21.6438734 14.7467351,20.9667969 16.6738281,20.9667969 C18.2753986,20.9667969 19.4456343,21.3997353 20.1845703,22.265625 C20.9235063,23.1315147 21.2929687,24.0950468 21.2929687,25.15625 C21.2929687,26.2760473 20.8990925,27.2330689 20.1113281,28.0273438 C19.6555967,28.4895856 18.8385475,29.0494759 17.6601562,29.7070312 L16.3222656,30.4492188 C15.6842416,30.800783 15.1829445,31.1360661 14.8183594,31.4550781 C14.1673144,32.0214872 13.7571623,32.6497361 13.5878906,33.3398438 L21.2246094,33.3398438 L21.2246094,35 L11.625,35 C11.6901045,33.7955669 11.9391254,32.7474003 12.3720703,31.8554688 C12.3720703,31.8554688 11.9391254,32.7474003 12.3720703,31.8554688 Z M28.734375,30.0488281 L28.734375,23.7109375 L24.2519531,30.0488281 L28.734375,30.0488281 Z M28.7636719,35 L28.7636719,31.5820312 L22.6308594,31.5820312 L22.6308594,29.8632812 L29.0371094,20.9765625 L30.5214844,20.9765625 L30.5214844,30.0488281 L32.5820312,30.0488281 L32.5820312,31.5820312 L30.5214844,31.5820312 L30.5214844,35 L28.7636719,35 Z" id="calender_F"></path>
            </g>
        </g>
    </g>
</svg>