<?xml version="1.0" encoding="UTF-8" standalone="no"?>
<svg width="46px" height="42px" viewBox="0 0 46 42" version="1.1" xmlns="http://www.w3.org/2000/svg" xmlns:xlink="http://www.w3.org/1999/xlink" xmlns:sketch="http://www.bohemiancoding.com/sketch/ns">
    <!-- Generator: Sketch 3.1.1 (8761) - http://www.bohemiancoding.com/sketch -->
    <title>cigarette_F</title>
    <desc>Created with Sketch.</desc>
    <defs></defs>
    <g id="Page-1" stroke="none" stroke-width="1" fill="none" fill-rule="evenodd" sketch:type="MSPage">
        <g id="full-icons" sketch:type="MSLayerGroup" transform="translate(0.000000, -306.000000)" fill="#8B572A">
            <g id="row-4-full-icons" transform="translate(0.000000, 300.000000)" sketch:type="MSShapeGroup">
                <path d="M31.9249048,39.4533727 C31.9738486,39.6269974 32,39.8102316 32,39.999615 L32,46.000385 C32,47.1125667 31.103789,48 29.9982567,48 L2.00174332,48 C0.889261723,48 0,47.1047419 0,46.000385 L0,39.999615 C0,38.8874333 0.89621101,38 2.00174332,38 L6,38 C6,39.6568543 7.34314567,41 9,41 C10.6568543,41 12,39.6568543 12,38 L12,38 L20,38 C20,39.6568543 21.3431457,41 23,41 C24.6568543,41 26,39.6568543 26,38 L29.996214,38 L17.2149587,28.3686333 C16.3300871,27.7018347 16.1560725,26.4506747 16.8201254,25.5694468 L18.0262673,23.9688424 C18.6880547,23.0906209 19.9437355,22.9121002 20.8258488,23.5768202 L44.7850413,41.6313667 C45.6699129,42.2981653 45.8439275,43.5493253 45.1798746,44.4305532 L43.9737327,46.0311576 C43.3119453,46.9093791 42.0562645,47.0878998 41.1741512,46.4231798 L31.9249048,39.4533727 Z M19.6222824,25.1741391 L18.4186523,26.7714102 L35.9886335,40.0113407 L37.1922636,38.4140697 L19.6222824,25.1741391 Z M37.9908991,39.0158847 L36.7872691,40.6131557 L42.3777176,44.8258609 L43.5813477,43.2285898 L37.9908991,39.0158847 Z M16.5,6 C16.2238576,6 16,6.22618103 16,6.4963932 L16,21.5036068 C16,21.7777572 16.2319336,22 16.5,22 L16.5,22 C16.7761424,22 17,21.773819 17,21.5036068 L17,6.4963932 C17,6.22224281 16.7680664,6 16.5,6 L16.5,6 Z" id="cigarette_F"></path>
            </g>
        </g>
    </g>
</svg>