<?xml version="1.0" encoding="UTF-8" standalone="no"?>
<svg width="33px" height="46px" viewBox="0 0 33 46" version="1.1" xmlns="http://www.w3.org/2000/svg" xmlns:xlink="http://www.w3.org/1999/xlink" xmlns:sketch="http://www.bohemiancoding.com/sketch/ns">
    <!-- Generator: Sketch 3.1.1 (8761) - http://www.bohemiancoding.com/sketch -->
    <title>coffee_F</title>
    <desc>Created with Sketch.</desc>
    <defs></defs>
    <g id="Page-1" stroke="none" stroke-width="1" fill="none" fill-rule="evenodd" sketch:type="MSPage">
        <g id="full-icons" sketch:type="MSLayerGroup" transform="translate(-105.000000, -304.000000)" fill="#8B572A">
            <g id="row-4-full-icons" transform="translate(0.000000, 300.000000)" sketch:type="MSShapeGroup">
                <path d="M109.054504,4.49031592 L108.000811,9.41339527 L104.999864,9.41339527 C104.999864,9.41339527 104.999864,13.4181176 104.999864,13.4181176 C104.999864,13.4181176 108.000811,13.4181176 108.000811,13.4181176 C108.000811,13.4181176 110.595864,45.5267001 110.595864,45.5267001 C110.773649,47.7264414 112.712393,49.5096841 114.921806,49.5096841 L126.937758,49.5096841 C129.149124,49.5096841 131.08843,47.7206529 131.268122,45.5283808 C131.268122,45.5283808 133.898822,13.4333473 133.898822,13.4333475 C133.898822,13.4333478 137.100331,13.4333475 137.100331,13.4333475 L137.100331,9.41339523 L133.898822,9.41339523 C133.757205,8.01651594 132.966977,4.49031592 132.966977,4.49031592 L109.054504,4.49031592 Z M110.675417,6.39614268 L109.998928,9.41150375 L132.032337,9.41150375 L131.458175,6.39614268 L110.675417,6.39614268 Z M107,10.3962072 L107,12.3962072 L135,12.3962072 L135,10.3962072 L107,10.3962072 Z M109.177223,28 L110.217417,41 L131.639257,41 L132.705535,28 L109.177223,28 Z M121,29.3962072 C120.447715,29.3962072 120,29.8518716 120,30.3916047 L120,38.4008096 C120,38.9505525 120.443865,39.3962072 121,39.3962072 C121.552285,39.3962072 122,38.9405428 122,38.4008096 L122,30.3916047 C122,29.8418618 121.556135,29.3962072 121,29.3962072 Z M125.26168,29.4030595 C124.710152,29.3741551 124.239203,29.8057635 124.210955,30.3447569 L123.791786,38.3429855 C123.763014,38.891975 124.182947,39.360249 124.73832,39.3893548 C125.289848,39.4182592 125.760797,38.9866509 125.789045,38.4476574 L126.208214,30.4494289 C126.236986,29.9004394 125.817053,29.4321654 125.26168,29.4030595 Z M116.73832,29.4030595 C116.186792,29.4319638 115.763538,29.9104354 115.791786,30.4494289 L116.210955,38.4476574 C116.239726,38.9966469 116.706307,39.4184607 117.26168,39.3893548 C117.813208,39.3604505 118.236462,38.881979 118.208214,38.3429855 L117.789045,30.3447569 C117.760274,29.7957675 117.293693,29.3739536 116.73832,29.4030595 Z M129.435779,29.4152337 C128.885596,29.3670989 128.39987,29.7820084 128.352829,30.3196877 L127.654781,38.2984151 C127.606868,38.8460661 128.010202,39.3287103 128.564221,39.3771807 C129.114404,39.4253154 129.60013,39.0104059 129.647171,38.4727266 L130.345219,30.4939992 C130.393132,29.9463482 129.989798,29.4637041 129.435779,29.4152337 Z M112.651218,29.4083869 C112.100278,29.4469124 111.685439,29.9326978 111.723089,30.4711162 L112.281783,38.4608111 C112.320131,39.0092148 112.794002,39.4228214 113.348782,39.3840274 C113.899722,39.345502 114.314561,38.8597165 114.276911,38.3212981 L113.718217,30.3316033 C113.679869,29.7831995 113.205998,29.3695929 112.651218,29.4083869 Z" id="coffee_F"></path>
            </g>
        </g>
    </g>
</svg>