<?xml version="1.0" encoding="UTF-8" standalone="no"?>
<svg width="43px" height="39px" viewBox="0 0 43 39" version="1.1" xmlns="http://www.w3.org/2000/svg" xmlns:xlink="http://www.w3.org/1999/xlink" xmlns:sketch="http://www.bohemiancoding.com/sketch/ns">
    <!-- Generator: Sketch 3.1.1 (8761) - http://www.bohemiancoding.com/sketch -->
    <title>folder_F</title>
    <desc>Created with Sketch.</desc>
    <defs></defs>
    <g id="Page-1" stroke="none" stroke-width="1" fill="none" fill-rule="evenodd" sketch:type="MSPage">
        <g id="full-icons" sketch:type="MSLayerGroup" transform="translate(-401.000000, -6.000000)" fill="#8B572A">
            <g id="row-1-full-icons" transform="translate(1.000000, 0.000000)" sketch:type="MSShapeGroup">
                <path d="M401,19 C401,19 401,40.9944797 401,40.9944797 C401,43.2066675 402.791252,45 405.008111,45 L438.991889,45 C441.205507,45 443,43.2129147 443,40.9944797 L443,19 C443,19 401,19 401,19 Z M403.91564,6.82243377 C402.2634,6.82243377 400.923996,8.17124963 400.923996,9.82823198 C400.923996,9.82823198 400.923996,17.8224333 400.923996,17.8224333 C400.923996,17.8224333 442.923996,17.8224338 442.923996,17.8224338 L442.923996,16.2099765 C442.923996,14.5543167 441.576419,13.2121393 439.916895,13.2121393 L411.562203,13.2121391 L411.562203,9.83018327 C411.562203,8.16904909 410.214867,6.82243377 408.570559,6.82243377 L403.91564,6.82243377 Z" id="folder_F"></path>
            </g>
        </g>
    </g>
</svg>