<?xml version="1.0" encoding="UTF-8" standalone="no"?>
<svg width="51px" height="32px" viewBox="0 0 51 32" version="1.1" xmlns="http://www.w3.org/2000/svg" xmlns:xlink="http://www.w3.org/1999/xlink" xmlns:sketch="http://www.bohemiancoding.com/sketch/ns">
    <!-- Generator: Sketch 3.1.1 (8761) - http://www.bohemiancoding.com/sketch -->
    <title>highheel_F</title>
    <desc>Created with Sketch.</desc>
    <defs></defs>
    <g id="Page-1" stroke="none" stroke-width="1" fill="none" fill-rule="evenodd" sketch:type="MSPage">
        <g id="full-icons" sketch:type="MSLayerGroup" transform="translate(-197.000000, -511.000000)" fill="#8B572A">
            <g id="row-6-full-icons" transform="translate(18.000000, 506.000000)" sketch:type="MSShapeGroup">
                <path d="M223.70885,19.6086792 L223.70885,35.8905803 L225,35.8905803 L226.083857,17.8905803 L225.614961,17.8905803 C227.855854,15.4152729 229.320539,11.9566666 229.205932,8.87945651 C229.205932,8.87945651 229.139694,7.10991049 229.136188,6.99821038 C229.052121,4.3200876 229.136188,6.99821038 229.136188,6.99821038 C229.136188,4.31918747 226.570329,4.64321829 223.390464,7.70758039 C223.390464,7.70758039 202.912872,27.8468244 199.032352,29.0109804 C195.151832,30.1751361 191.770593,23.9157263 190.505956,25.2490149 C190.505956,25.249015 188.680483,25.8620405 188.680483,25.8620405 C184.491742,27.2686924 179.971254,31.7988193 179.702568,33.9097835 C179.702568,33.9097835 179.702568,31.5000528 179.702568,33.9097835 C179.702567,36.2018484 201.230798,36.4136733 202.363452,36.4935073 C203.496107,36.5733413 204.296508,35.8905834 204.296508,35.8905834 C213.028339,23.4759068 222.356025,20.4305224 222.356025,20.4305224 C222.820436,20.1988664 223.272653,19.9227518 223.70885,19.6086792 Z" id="highheel_F"></path>
            </g>
        </g>
    </g>
</svg>