<?xml version="1.0" encoding="UTF-8" standalone="no"?>
<svg width="50px" height="37px" viewBox="0 0 50 37" version="1.1" xmlns="http://www.w3.org/2000/svg" xmlns:xlink="http://www.w3.org/1999/xlink" xmlns:sketch="http://www.bohemiancoding.com/sketch/ns">
    <!-- Generator: Sketch 3.1.1 (8761) - http://www.bohemiancoding.com/sketch -->
    <title>ID_card_F</title>
    <desc>Created with Sketch.</desc>
    <defs></defs>
    <g id="Page-1" stroke="none" stroke-width="1" fill="none" fill-rule="evenodd" sketch:type="MSPage">
        <g id="full-icons" sketch:type="MSLayerGroup" transform="translate(-498.000000, -214.000000)" fill="#8B572A">
            <g id="row-3-full-icons" transform="translate(1.000000, 207.000000)" sketch:type="MSShapeGroup">
                <path d="M497,9 L497,44 L547,44 L547,9 L497,9 Z M544.687136,41.6930473 C544.687136,41.6930473 529.065596,41.6930473 529.065596,41.6930473 C529.065596,41.6930473 521.035114,39.1861456 519.405864,38.7025674 C519.151477,38.6219841 519.111409,38.6088658 519.111409,37.5425419 C519.111409,36.6626841 519.472023,35.7753302 519.823318,35.0257176 C520.2035,34.210514 520.6545,32.8396599 520.816636,31.6093583 C521.2695,31.0808814 521.886364,30.0370458 522.283318,28.0486984 C522.630886,26.296479 522.46875,25.6593083 522.237659,25.0605552 C522.214364,24.9977752 522.189205,24.9349951 522.170568,24.8731521 C522.082977,24.4618022 522.203182,22.3272803 522.502295,20.6706365 C522.707295,19.5340364 522.449182,17.1174728 520.893045,15.1188182 C519.909977,13.854784 518.0305,12.3040229 514.595818,12.0875723 L512.712614,12.0894463 C509.336636,12.3040229 507.454364,13.854784 506.471295,15.1188182 C504.916091,17.1174728 504.657045,19.5340364 504.862977,20.6696995 C505.163023,22.3272803 505.281364,24.4618022 505.195636,24.8647189 C505.177932,24.9349951 505.151841,24.9977752 505.126682,25.0605552 C504.897455,25.6593083 504.733455,26.296479 505.082886,28.0486984 C505.477977,30.0370458 506.094841,31.0808814 506.549568,31.6093583 C506.709841,32.8396599 507.161773,34.210514 507.543818,35.0257176 C507.822432,35.6216597 507.952886,36.4340523 507.952886,37.5809596 C507.952886,38.6472835 507.912818,38.6604017 507.674273,38.7363 C504.586227,39.6527014 501.164099,40.7440383 499.331213,41.5517459 C499.331213,41.5517459 499.331213,11.1819838 499.331213,11.1819838 C499.331213,11.1819836 533.384181,11.1819838 544.687136,11.1819838 L544.687136,41.6930473 Z M530.995398,30 C530.445655,30 530,30.4438648 530,31 C530,31.5522847 530.455664,32 530.995398,32 L539.004602,32 C539.554345,32 540,31.5561352 540,31 C540,30.4477153 539.544336,30 539.004602,30 L530.995398,30 Z M530.002473,25 C529.448823,25 529,25.4438648 529,26 C529,26.5522847 529.455761,27 530.002473,27 L539.997527,27 C540.551177,27 541,26.5561352 541,26 C541,25.4477153 540.544239,25 539.997527,25 L530.002473,25 Z M513,7 L513,9 L531,9 L531,7 L513,7 Z" id="ID_card_F"></path>
            </g>
        </g>
    </g>
</svg>