<?xml version="1.0" encoding="UTF-8" standalone="no"?>
<svg width="30px" height="42px" viewBox="0 0 30 42" version="1.1" xmlns="http://www.w3.org/2000/svg" xmlns:xlink="http://www.w3.org/1999/xlink" xmlns:sketch="http://www.bohemiancoding.com/sketch/ns">
    <!-- Generator: Sketch 3.1.1 (8761) - http://www.bohemiancoding.com/sketch -->
    <title>iPad_F</title>
    <desc>Created with Sketch.</desc>
    <defs></defs>
    <g id="Page-1" stroke="none" stroke-width="1" fill="none" fill-rule="evenodd" sketch:type="MSPage">
        <g id="full-icons" sketch:type="MSLayerGroup" transform="translate(-407.000000, -404.000000)" fill="#8B572A">
            <g id="row-5-full-icons" transform="translate(1.000000, 400.000000)" sketch:type="MSShapeGroup">
                <path d="M407.991617,4 C406.891677,4 406,4.89666034 406,5.99749218 L406,44.0025078 C406,45.1056923 406.89784,46 407.991617,46 L434.008383,46 C435.108323,46 436,45.1033397 436,44.0025078 L436,5.99749218 C436,4.89430771 435.10216,4 434.008383,4 L407.991617,4 Z M408,6 L408,41 L434,41 L434,6 L408,6 Z M421,44 C421.552285,44 422,43.5522848 422,43 C422,42.4477152 421.552285,42 421,42 C420.447715,42 420,42.4477152 420,43 C420,43.5522848 420.447715,44 421,44 Z M409,7 L409,40 L433,40 L433,7 L409,7 Z" id="iPad_F"></path>
            </g>
        </g>
    </g>
</svg>