<?xml version="1.0" encoding="UTF-8" standalone="no"?>
<svg width="50px" height="40px" viewBox="0 0 50 40" version="1.1" xmlns="http://www.w3.org/2000/svg" xmlns:xlink="http://www.w3.org/1999/xlink" xmlns:sketch="http://www.bohemiancoding.com/sketch/ns">
    <!-- Generator: Sketch 3.1.1 (8761) - http://www.bohemiancoding.com/sketch -->
    <title>line_chart_F</title>
    <desc>Created with Sketch.</desc>
    <defs></defs>
    <g id="Page-1" stroke="none" stroke-width="1" fill="none" fill-rule="evenodd" sketch:type="MSPage">
        <g id="full-icons" sketch:type="MSLayerGroup" transform="translate(-296.000000, -212.000000)" fill="#8B572A">
            <g id="row-3-full-icons" transform="translate(1.000000, 207.000000)" sketch:type="MSShapeGroup">
                <path d="M327.067743,29.4819568 L319.518043,21.9322568 C319.352817,21.9764427 319.179159,22 319,22 C318.963245,22 318.926722,21.9990085 318.890455,21.9970509 L310.90769,33.3976203 C310.96766,33.5877197 311,33.7900832 311,34 C311,35.1045696 310.10457,36 309,36 C307.89543,36 307,35.1045696 307,34 C307,33.9333718 307.003258,33.8675046 307.009624,33.802549 L307.009624,33.802549 L299.319408,21.9606548 L300.996749,20.8713767 L308.304458,32.1242618 C308.521083,32.0439043 308.755414,32 309,32 C309.142163,32 309.280861,32.0148326 309.414632,32.0430347 L317.214973,20.9029941 L317.214973,20.9029941 C317.07748,20.6317381 317,20.3249173 317,20 C317,18.8954304 317.89543,18 319,18 C320.10457,18 321,18.8954304 321,20 C321,20.1791593 320.976443,20.3528166 320.932257,20.5180432 L328.481957,28.0677432 C328.647183,28.0235573 328.820841,28 329,28 C329.314927,28 329.612854,28.0727892 329.877874,28.2024616 L338.10911,10.5505196 L339.921725,11.3957561 L330.99978,29.9700095 C330.999926,29.9799888 331,29.9899858 331,30 C331,31.1045696 330.10457,32 329,32 C327.89543,32 327,31.1045696 327,30 C327,29.8208407 327.023557,29.6471834 327.067743,29.4819568 Z M295,5 L295,45 L345,45 L345,5 L295,5 Z M329,31 C329.552285,31 330,30.5522848 330,30 C330,29.4477152 329.552285,29 329,29 C328.447715,29 328,29.4477152 328,30 C328,30.5522848 328.447715,31 329,31 Z M319,21 C319.552285,21 320,20.5522848 320,20 C320,19.4477152 319.552285,19 319,19 C318.447715,19 318,19.4477152 318,20 C318,20.5522848 318.447715,21 319,21 Z M309,35 C309.552285,35 310,34.5522848 310,34 C310,33.4477152 309.552285,33 309,33 C308.447715,33 308,33.4477152 308,34 C308,34.5522848 308.447715,35 309,35 Z" id="line_chart_F"></path>
            </g>
        </g>
    </g>
</svg>