<?xml version="1.0" encoding="UTF-8" standalone="no"?>
<svg width="48px" height="48px" viewBox="0 0 48 48" version="1.1" xmlns="http://www.w3.org/2000/svg" xmlns:xlink="http://www.w3.org/1999/xlink" xmlns:sketch="http://www.bohemiancoding.com/sketch/ns">
    <!-- Generator: Sketch 3.1.1 (8761) - http://www.bohemiancoding.com/sketch -->
    <title>memo_F</title>
    <desc>Created with Sketch.</desc>
    <defs></defs>
    <g id="Page-1" stroke="none" stroke-width="1" fill="none" fill-rule="evenodd" sketch:type="MSPage">
        <g id="full-icons" sketch:type="MSLayerGroup" transform="translate(-300.000000, -2.000000)" fill="#8B572A">
            <g id="row-1-full-icons" transform="translate(1.000000, 0.000000)" sketch:type="MSShapeGroup">
                <path d="M305,45 L305,50 L347,50 L347,8 L342,8 L342,45 L305,45 L305,45 Z M299,2 L299,44 L341,44 L341,2 L299,2 Z M307.0033,14 C306.449193,14 306,14.4438648 306,15 C306,15.5522847 306.451279,16 307.0033,16 L330.9967,16 C331.550807,16 332,15.5561352 332,15 C332,14.4477153 331.548721,14 330.9967,14 L307.0033,14 Z M306.993398,20 C306.444759,20 306,20.4438648 306,21 C306,21.5522847 306.444946,22 306.993398,22 L323.006602,22 C323.555241,22 324,21.5561352 324,21 C324,20.4477153 323.555054,20 323.006602,20 L306.993398,20 Z" id="memo_F"></path>
            </g>
        </g>
    </g>
</svg>