<?xml version="1.0" encoding="UTF-8" standalone="no"?>
<svg width="36px" height="46px" viewBox="0 0 36 46" version="1.1" xmlns="http://www.w3.org/2000/svg" xmlns:xlink="http://www.w3.org/1999/xlink" xmlns:sketch="http://www.bohemiancoding.com/sketch/ns">
    <!-- Generator: Sketch 3.1.1 (8761) - http://www.bohemiancoding.com/sketch -->
    <title>notepad_F</title>
    <desc>Created with Sketch.</desc>
    <defs></defs>
    <g id="Page-1" stroke="none" stroke-width="1" fill="none" fill-rule="evenodd" sketch:type="MSPage">
        <g id="full-icons" sketch:type="MSLayerGroup" transform="translate(-205.000000, -2.000000)" fill="#8B572A">
            <g id="row-1-full-icons" transform="translate(1.000000, 0.000000)" sketch:type="MSShapeGroup">
                <path d="M211,4 L214,4 L214,2.49100518 C214,2.22788048 214.223858,2 214.5,2 C214.768066,2 215,2.21983051 215,2.49100518 L215,4 L218,4 L218,2.49100518 C218,2.22788048 218.223858,2 218.5,2 C218.768066,2 219,2.21983051 219,2.49100518 L219,4 L222,4 L222,2.49100518 C222,2.22788048 222.223858,2 222.5,2 C222.768066,2 223,2.21983051 223,2.49100518 L223,4 L226,4 L226,2.49100518 C226,2.22788048 226.223858,2 226.5,2 C226.768066,2 227,2.21983051 227,2.49100518 L227,4 L230,4 L230,2.49100518 C230,2.22788048 230.223858,2 230.5,2 C230.768066,2 231,2.21983051 231,2.49100518 L231,4 L234,4 L234,2.49100518 C234,2.22788048 234.223858,2 234.5,2 C234.768066,2 235,2.21983051 235,2.49100518 L235,4 L235,4 L240,4 L240,48 L204,48 L204,4 L210,4 L210,2.49100518 C210,2.22788048 210.223858,2 210.5,2 C210.768066,2 211,2.21983051 211,2.49100518 L211,4 Z M210.956278,7.70663448 C210.984704,7.79940568 211,7.89791652 211,8 C211,8.55228478 210.552285,9 210,9 C209.447715,9 209,8.55228478 209,8 C209,7.44771522 209.447715,7 210,7 L210,7.50899482 C210,7.78016949 210.231934,8 210.5,8 C210.703178,8 210.87805,7.87663474 210.956278,7.70663448 Z M214.956278,7.70663448 C214.984704,7.79940568 215,7.89791652 215,8 C215,8.55228478 214.552285,9 214,9 C213.447715,9 213,8.55228478 213,8 C213,7.44771522 213.447715,7 214,7 L214,7.50899482 C214,7.78016949 214.231934,8 214.5,8 C214.703178,8 214.87805,7.87663474 214.956278,7.70663448 L214.956278,7.70663448 Z M218.956278,7.70663448 C218.984704,7.79940568 219,7.89791652 219,8 C219,8.55228478 218.552285,9 218,9 C217.447715,9 217,8.55228478 217,8 C217,7.44771522 217.447715,7 218,7 L218,7.50899482 C218,7.78016949 218.231934,8 218.5,8 C218.703178,8 218.87805,7.87663474 218.956278,7.70663448 L218.956278,7.70663448 Z M230.956278,7.70663448 C230.984704,7.79940568 231,7.89791652 231,8 C231,8.55228478 230.552285,9 230,9 C229.447715,9 229,8.55228478 229,8 C229,7.44771522 229.447715,7 230,7 L230,7.50899482 C230,7.78016949 230.231934,8 230.5,8 C230.703178,8 230.87805,7.87663474 230.956278,7.70663448 L230.956278,7.70663448 Z M234.956278,7.70663448 C234.984704,7.79940568 235,7.89791652 235,8 C235,8.55228478 234.552285,9 234,9 C233.447715,9 233,8.55228478 233,8 C233,7.44771522 233.447715,7 234,7 L234,7.50899482 C234,7.78016949 234.231934,8 234.5,8 C234.703178,8 234.87805,7.87663474 234.956278,7.70663448 L234.956278,7.70663448 Z M226.956278,7.70663448 C226.984704,7.79940568 227,7.89791652 227,8 C227,8.55228478 226.552285,9 226,9 C225.447715,9 225,8.55228478 225,8 C225,7.44771522 225.447715,7 226,7 L226,7.50899482 C226,7.78016949 226.231934,8 226.5,8 C226.703178,8 226.87805,7.87663474 226.956278,7.70663448 L226.956278,7.70663448 Z M222.956278,7.70663448 C222.984704,7.79940568 223,7.89791652 223,8 C223,8.55228478 222.552285,9 222,9 C221.447715,9 221,8.55228478 221,8 C221,7.44771522 221.447715,7 222,7 L222,7.50899482 C222,7.78016949 222.231934,8 222.5,8 C222.703178,8 222.87805,7.87663474 222.956278,7.70663448 L222.956278,7.70663448 Z M210.0033,13 C209.449193,13 209,13.4438648 209,14 L209,14 C209,14.5522847 209.451279,15 210.0033,15 L233.9967,15 C234.550807,15 235,14.5561352 235,14 L235,14 C235,13.4477153 234.548721,13 233.9967,13 L210.0033,13 Z M210.0033,27 C209.449193,27 209,27.4438648 209,28 L209,28 C209,28.5522847 209.451279,29 210.0033,29 L233.9967,29 C234.550807,29 235,28.5561352 235,28 L235,28 C235,27.4477153 234.548721,27 233.9967,27 L210.0033,27 Z M209.998502,20 C209.447045,20 209,20.4438648 209,21 L209,21 C209,21.5522847 209.447489,22 209.998502,22 L221.001498,22 C221.552955,22 222,21.5561352 222,21 L222,21 C222,20.4477153 221.552511,20 221.001498,20 L209.998502,20 Z M209.998502,34 C209.447045,34 209,34.4438648 209,35 L209,35 C209,35.5522847 209.447489,36 209.998502,36 L221.001498,36 C221.552955,36 222,35.5561352 222,35 L222,35 C222,34.4477153 221.552511,34 221.001498,34 L209.998502,34 Z" id="notepad_F"></path>
            </g>
        </g>
    </g>
</svg>