<?xml version="1.0" encoding="UTF-8" standalone="no"?>
<svg width="36px" height="50px" viewBox="0 0 36 50" version="1.1" xmlns="http://www.w3.org/2000/svg" xmlns:xlink="http://www.w3.org/1999/xlink" xmlns:sketch="http://www.bohemiancoding.com/sketch/ns">
    <!-- Generator: Sketch 3.1.1 (8761) - http://www.bohemiancoding.com/sketch -->
    <title>office_chair_F</title>
    <desc>Created with Sketch.</desc>
    <defs></defs>
    <g id="Page-1" stroke="none" stroke-width="1" fill="none" fill-rule="evenodd" sketch:type="MSPage">
        <g id="full-icons" sketch:type="MSLayerGroup" transform="translate(-204.000000, -400.000000)" fill="#8B572A">
            <g id="row-5-full-icons" transform="translate(1.000000, 400.000000)" sketch:type="MSShapeGroup">
                <path d="M210.679393,32.9999998 C209.064183,31.925966 208,30.0900711 208,28.0056958 L208,26.2373676 C207.469244,26.7120335 206.768354,26.9999998 206,26.9999998 C204.346517,26.9999998 203,25.6561084 203,23.9983344 L203,22.0016653 C203,20.33902 204.343146,18.9999998 206,18.9999998 C206.76744,18.9999998 207.468753,19.2895034 208,19.7655253 L208,19.7655253 L208,15.9943039 C208,12.6832454 210.685204,9.99999983 213.997571,9.99999983 L228.002429,9.99999983 C231.315471,9.99999983 234,12.6837412 234,15.9943039 L234,19.762632 L234,19.762632 C234.530756,19.2879662 235.231646,18.9999998 236,18.9999998 C237.653483,18.9999998 239,20.3438912 239,22.0016653 L239,23.9983344 C239,25.6609797 237.656854,26.9999998 236,26.9999998 C235.23256,26.9999998 234.531247,26.7104962 234,26.2344744 L234,28.0056958 C234,30.0903001 232.935634,31.9260509 231.320502,32.9999998 L232.00351,32.9999998 C233.649502,32.9999998 235,34.3431456 235,35.9999998 C235,37.6534827 233.658426,38.9999998 232.00351,38.9999998 L209.99649,38.9999998 C208.350498,38.9999998 207,37.6568541 207,35.9999998 C207,34.3465169 208.341574,32.9999998 209.99649,32.9999998 L210.679393,32.9999998 Z M216.996203,-1.71363354e-07 C214.789161,-1.71363354e-07 213,1.79535598 213,3.99999983 C213,6.20913883 214.78883,7.99999983 216.996203,7.99999983 L225.003797,7.99999983 C227.210839,7.99999983 229,6.20464367 229,3.99999983 C229,1.79086083 227.21117,-1.71363354e-07 225.003797,-1.71363354e-07 L216.996203,-1.71363354e-07 Z M220,44.0271439 L210,49.9999998 L213.47087,49.9999998 L219.9965,50 L219.9965,46.1516817 L213.47087,49.9999998 L213.47087,49.9999998 L222.000043,49.9999998 L222.000043,49.9999999 L228.967112,50 L222.000043,45.9521492 L222.000043,49.9999998 L232,49.9999998 L222,44.0271439 L222,38.9999998 L220,38.9999998 L220,44.0271439 Z M220,7.99999983 L220,9.99999983 L222,9.99999983 L222,7.99999983 L220,7.99999983 Z" id="office_chair_F"></path>
            </g>
        </g>
    </g>
</svg>