<?xml version="1.0" encoding="UTF-8" standalone="no"?>
<svg width="24px" height="50px" viewBox="0 0 24 50" version="1.1" xmlns="http://www.w3.org/2000/svg" xmlns:xlink="http://www.w3.org/1999/xlink" xmlns:sketch="http://www.bohemiancoding.com/sketch/ns">
    <!-- Generator: Sketch 3.1.1 (8761) - http://www.bohemiancoding.com/sketch -->
    <title>paperclip_F</title>
    <desc>Created with Sketch.</desc>
    <defs></defs>
    <g id="Page-1" stroke="none" stroke-width="1" fill="none" fill-rule="evenodd" sketch:type="MSPage">
        <g id="full-icons" sketch:type="MSLayerGroup" transform="translate(-312.000000, -101.000000)" fill="#8B572A">
            <g id="row-2-full-icons" transform="translate(3.000000, 101.000000)" sketch:type="MSShapeGroup">
                <path d="M326.980911,38.0994862 C326.980911,38.0994862 326.636446,44.0446995 320.991606,44.0446995 C315.463202,44.0446995 314.952393,38.0994862 314.952393,38.0994862 L314.952393,15.0639895 L312.983643,15.0639895 C312.983643,15.0639895 312.98142,37.8334488 312.983643,38.0994862 C312.999993,40.0570017 314.608106,45.9964492 321.141103,45.9964512 C328.660172,45.996455 328.984375,38.0994862 328.984375,38.0994862 L328.984375,10 C328.984375,10 327.941774,-2.81284338e-06 319.007256,-3.03543857e-10 C310.072737,2.8122364e-06 309,10 309,10 L309,40 C309,40 310.796186,49.9999967 321.141103,50 C331.486019,50.0000038 332.983212,40 332.983212,40 L332.983212,15.0639895 L331,15.0639895 L331,40 C331,40 329.505295,48.065258 321.141103,48.0652542 C312.653116,48.0652515 311,40 311,40 L311,10 C311,10 311.753887,1.97678163 319.007256,1.97677935 C326.260624,1.97677708 326.980911,10 326.980911,10 L326.980911,38.0994862 Z" id="paperclip_F"></path>
            </g>
        </g>
    </g>
</svg>