<?xml version="1.0" encoding="UTF-8" standalone="no"?>
<svg width="23px" height="51px" viewBox="0 0 23 51" version="1.1" xmlns="http://www.w3.org/2000/svg" xmlns:xlink="http://www.w3.org/1999/xlink" xmlns:sketch="http://www.bohemiancoding.com/sketch/ns">
    <!-- Generator: Sketch 3.1.1 (8761) - http://www.bohemiancoding.com/sketch -->
    <title>pen_F</title>
    <desc>Created with Sketch.</desc>
    <defs></defs>
    <g id="Page-1" stroke="none" stroke-width="1" fill="none" fill-rule="evenodd" sketch:type="MSPage">
        <g id="full-icons" sketch:type="MSLayerGroup" transform="translate(-107.000000, -104.000000)" fill="#8B572A">
            <g id="row-2-full-icons" transform="translate(3.000000, 101.000000)" sketch:type="MSShapeGroup">
                <path d="M107.530476,12.2782188 C106.677214,12.689833 106.088857,13.5619483 106.088857,14.5817301 C106.088857,15.888954 107.07242,16.967016 108.334847,17.1196652 L103.985921,33.5510749 L115.485921,53.8996235 L126.985921,33.5510749 L122.64132,17.1193818 L122.64132,17.1193818 C123.904541,16.9663358 124.882984,15.8968186 124.882984,14.5817301 C124.882984,13.57127 124.295305,12.6977342 123.445416,12.2826913 L125.936551,3.89962348 L105.054187,3.89962348 L107.530476,12.2782188 Z M108.697344,14.0704409 C108.410018,14.0704409 108.177094,14.3076112 108.177094,14.5817301 C108.177094,14.8641074 108.406702,15.0930194 108.697344,15.0930194 L122.274498,15.0930194 C122.561824,15.0930194 122.794748,14.8558491 122.794748,14.5817301 C122.794748,14.2993529 122.56514,14.0704409 122.274498,14.0704409 L108.697344,14.0704409 Z M114.469898,32.2188837 C114.451535,32.2942207 114.441803,32.3726917 114.441803,32.4531177 L114.441803,46.8166935 C114.441803,47.368338 114.884664,47.8155343 115.436994,47.8155343 L115.534848,47.8155343 C116.084477,47.8155343 116.530039,47.3608643 116.530039,46.8166935 L116.530039,32.4531177 C116.530039,32.372323 116.520539,32.2937688 116.502587,32.2185319 C117.14187,31.8688997 117.574157,31.1997406 117.574157,30.4316983 C117.574157,29.3021891 116.639222,28.3865411 115.485921,28.3865411 C114.33262,28.3865411 113.397685,29.3021891 113.397685,30.4316983 C113.397685,31.1999983 113.830262,31.8693487 114.469898,32.2188837 L114.469898,32.2188837 Z M115.485921,31.4542769 C116.062571,31.4542769 116.530039,30.9964529 116.530039,30.4316983 C116.530039,29.8669437 116.062571,29.4091197 115.485921,29.4091197 C114.90927,29.4091197 114.441803,29.8669437 114.441803,30.4316983 C114.441803,30.9964529 114.90927,31.4542769 115.485921,31.4542769 Z" id="pen_F"></path>
            </g>
        </g>
    </g>
</svg>