<?xml version="1.0" encoding="UTF-8" standalone="no"?>
<svg width="32px" height="51px" viewBox="0 0 32 51" version="1.1" xmlns="http://www.w3.org/2000/svg" xmlns:xlink="http://www.w3.org/1999/xlink" xmlns:sketch="http://www.bohemiancoding.com/sketch/ns">
    <!-- Generator: Sketch 3.1.1 (8761) - http://www.bohemiancoding.com/sketch -->
    <title>pencil_F</title>
    <desc>Created with Sketch.</desc>
    <defs></defs>
    <g id="Page-1" stroke="none" stroke-width="1" fill="none" fill-rule="evenodd" sketch:type="MSPage">
        <g id="full-icons" sketch:type="MSLayerGroup" transform="translate(-2.000000, -104.000000)" fill="#8B572A">
            <g id="row-2-full-icons" transform="translate(3.000000, 101.000000)" sketch:type="MSShapeGroup">
                <path d="M28.7629327,3.99980381 L30.7636052,3.99980381 L30.7636052,24.0925245 C30.7636052,24.0925245 15.2636047,53.8996239 15.2636047,53.8996235 C15.2636047,53.899623 -0.236394793,24.0925245 -0.236394793,24.0925245 L-0.236394793,3.99980381 L1.49063489,3.99980381 L1.49063489,23.7959685 L15.1267834,49.9311221 L28.7629319,24.0871971 L28.7629327,3.99980381 Z M14.9643691,45.7084459 L23.1824919,29.9547138 L7.17423671,29.9547138 L14.9643691,45.7084459 Z M10.4253343,20.9514865 C10.4253343,23.0319657 8.72911326,24.7185271 6.63671837,24.7185271 C4.54432348,24.7185271 2.84810247,23.0319657 2.84810247,20.9514865 L2.84810247,3.94351846 L10.4253343,3.94351846 L10.4253343,20.9514864 Z M18.9497201,20.9514865 C18.9497201,23.0319657 17.253499,24.7185271 15.1611042,24.7185271 C13.0687093,24.7185271 11.3724882,23.0319657 11.3724882,20.9514865 L11.3724882,3.94351846 L18.9497201,3.94351846 L18.9497201,20.9514864 Z M27.4741058,20.9514864 C27.4741058,23.0319654 25.7778848,24.7185267 23.6854899,24.7185267 C21.593095,24.7185267 19.896874,23.0319654 19.896874,20.9514863 L19.896874,3.94351846 L27.4741058,3.94351846 L27.4741058,20.9514864 Z" id="pencil_F"></path>
            </g>
        </g>
    </g>
</svg>