<?xml version="1.0" encoding="UTF-8" standalone="no"?>
<svg width="50px" height="50px" viewBox="0 0 50 50" version="1.1" xmlns="http://www.w3.org/2000/svg" xmlns:xlink="http://www.w3.org/1999/xlink" xmlns:sketch="http://www.bohemiancoding.com/sketch/ns">
    <!-- Generator: Sketch 3.1.1 (8761) - http://www.bohemiancoding.com/sketch -->
    <title>pie_chart_F</title>
    <desc>Created with Sketch.</desc>
    <defs></defs>
    <g id="Page-1" stroke="none" stroke-width="1" fill="none" fill-rule="evenodd" sketch:type="MSPage">
        <g id="full-icons" sketch:type="MSLayerGroup" transform="translate(-396.000000, -207.000000)" fill="#8B572A">
            <g id="row-3-full-icons" transform="translate(1.000000, 207.000000)" sketch:type="MSShapeGroup">
                <path d="M418.148148,46.2962963 L418.148148,23.1481481 L441.296296,23.1481481 C441.296296,10.3637783 430.932518,0 418.148148,0 C405.363778,0 395,10.3637783 395,23.1481481 C395,35.932518 405.091707,46.2962963 418.148148,46.2962963 Z M421.851852,50 C434.636222,50 445,39.6362217 445,26.8518519 C445,26.8518518 421.851852,26.8518518 421.851852,26.8518519 C421.851852,26.8518518 421.851852,50 421.851852,50 Z M443.068318,28.7085356 C436.613243,28.7085368 423.703093,28.7085357 423.703093,28.7085357 C423.703093,28.7085356 423.703092,48.0326775 423.703092,48.0326775 C433.004108,48.0326775 443.068318,38.3518952 443.068318,28.7085356 Z" id="pie_chart_F"></path>
            </g>
        </g>
    </g>
</svg>