<?xml version="1.0" encoding="UTF-8" standalone="no"?>
<svg width="48px" height="44px" viewBox="0 0 48 44" version="1.1" xmlns="http://www.w3.org/2000/svg" xmlns:xlink="http://www.w3.org/1999/xlink" xmlns:sketch="http://www.bohemiancoding.com/sketch/ns">
    <!-- Generator: Sketch 3.1.1 (8761) - http://www.bohemiancoding.com/sketch -->
    <title>printer_F</title>
    <desc>Created with Sketch.</desc>
    <defs></defs>
    <g id="Page-1" stroke="none" stroke-width="1" fill="none" fill-rule="evenodd" sketch:type="MSPage">
        <g id="full-icons" sketch:type="MSLayerGroup" transform="translate(-1.000000, -406.000000)" fill="#8B572A">
            <g id="row-5-full-icons" transform="translate(1.000000, 400.000000)" sketch:type="MSShapeGroup">
                <path d="M31.9954777,24.0011621 C31.9954777,24.0667919 31.9954777,6.00079018 31.9954777,6.00079012 C31.9954777,6.00079006 16.0012798,6.00079012 16.0012798,6.00079012 C16.0012798,6.00079012 16.0012798,24.0011621 16.0012798,24.0011621 L1.99421978,23.9108914 C0.892842609,23.9037934 0,24.7974635 0,25.8909141 L0,40.0423163 C0,41.1429507 0.888953793,42.0319293 2.00304107,42.0278416 L10.0171337,41.9984365 L6.0491271,49.9996991 L42.0100021,49.9996991 C42.0100021,49.9996991 38.0031815,42.0351911 38.0031815,41.9984365 C38.0031815,41.9903186 46.0010212,42.0264104 46.0010212,42.0264104 C47.1050267,42.0312598 48,41.1357669 48,40.0423163 L48,25.8909141 C48,24.7902798 47.1052334,23.8983444 46.0053761,23.899148 C46.0053761,23.899148 31.9954777,23.8980393 31.9954777,24.0011621 Z M18,8 L18,24 L30,24 L30,8 L18,8 Z M12.103625,42 L9.29114983,48 L38.8019607,48 L35.9430282,42 L12.103625,42 Z M10,30 C10.5522848,30 11,29.5522848 11,29 C11,28.4477152 10.5522848,28 10,28 C9.44771522,28 9,28.4477152 9,29 C9,29.5522848 9.44771522,30 10,30 Z M14,30 C14.5522848,30 15,29.5522848 15,29 C15,28.4477152 14.5522848,28 14,28 C13.4477152,28 13,28.4477152 13,29 C13,29.5522848 13.4477152,30 14,30 Z M6,30 C6.55228478,30 7,29.5522848 7,29 C7,28.4477152 6.55228478,28 6,28 C5.44771522,28 5,28.4477152 5,29 C5,29.5522848 5.44771522,30 6,30 Z M16.4963932,43 C16.2222428,43 16,43.2319336 16,43.5 L16,43.5 C16,43.7761424 16.226181,44 16.4963932,44 L31.5036068,44 C31.7777572,44 32,43.7680664 32,43.5 L32,43.5 C32,43.2238576 31.773819,43 31.5036068,43 L16.4963932,43 Z M15.5002097,45 C15.2239515,45 15,45.2319336 15,45.5 L15,45.5 C15,45.7761424 15.2275865,46 15.5002097,46 L32.4997903,46 C32.7760485,46 33,45.7680664 33,45.5 L33,45.5 C33,45.2238576 32.7724135,45 32.4997903,45 L15.5002097,45 Z" id="printer_F"></path>
            </g>
        </g>
    </g>
</svg>