<?xml version="1.0" encoding="UTF-8" standalone="no"?>
<svg width="44px" height="24px" viewBox="0 0 44 24" version="1.1" xmlns="http://www.w3.org/2000/svg" xmlns:xlink="http://www.w3.org/1999/xlink" xmlns:sketch="http://www.bohemiancoding.com/sketch/ns">
    <!-- Generator: Sketch 3.1.1 (8761) - http://www.bohemiancoding.com/sketch -->
    <title>projector_F</title>
    <desc>Created with Sketch.</desc>
    <defs></defs>
    <g id="Page-1" stroke="none" stroke-width="1" fill="none" fill-rule="evenodd" sketch:type="MSPage">
        <g id="full-icons" sketch:type="MSLayerGroup" transform="translate(-1.000000, -220.000000)" fill="#8B572A">
            <g id="row-3-full-icons" transform="translate(1.000000, 207.000000)" sketch:type="MSShapeGroup">
                <path d="M16.5653871,22.9485816 C16.3723277,23.2711191 16.2234129,23.6231169 16.1269904,23.9962274 L16.1269904,23.9962274 C16.0993157,23.9939444 16.0713237,23.9927802 16.0430598,23.9927802 C15.4867876,23.9927802 15.03584,24.4437279 15.03584,25 C15.03584,25.5562721 15.4867876,26.0072198 16.0430598,26.0072198 C16.0713237,26.0072198 16.0993157,26.0060556 16.1269904,26.0037726 C16.2234129,26.3768831 16.3723277,26.7288809 16.5653871,27.0514184 C16.5430452,27.0701923 16.5213267,27.0900895 16.5003061,27.1111101 C16.1069623,27.5044539 16.1069623,28.1421901 16.5003061,28.5355339 C16.8936499,28.9288777 17.5313862,28.9288777 17.92473,28.5355339 C17.9488329,28.511431 17.9714589,28.4864104 17.9926079,28.4605846 L17.9926079,28.4605846 C18.3141792,28.6475225 18.664189,28.7909229 19.0345651,28.8827137 L19.0345651,28.8827137 C19.0306363,28.9188628 19.0286203,28.9555861 19.0286203,28.9927802 C19.0286203,29.5490524 19.4795679,30 20.03584,30 C20.5921122,30 21.0430598,29.5490524 21.0430598,28.9927802 C21.0430598,28.9494266 21.0403207,28.9067128 21.0350062,28.8648022 C21.3984059,28.7677292 21.7414268,28.6207652 22.0562823,28.4316969 C22.0837381,28.467836 22.1139607,28.5025445 22.1469501,28.5355339 C22.5402939,28.9288777 23.1780301,28.9288777 23.5713739,28.5355339 C23.9647177,28.1421901 23.9647177,27.5044539 23.5713739,27.1111101 C23.5353137,27.0750498 23.4971994,27.0422954 23.4574078,27.0128469 L23.4574078,27.0128469 C23.6408029,26.6985136 23.7825587,26.3569095 23.8751133,25.9955964 L23.8751133,25.9955964 C23.9251648,26.0032501 23.976429,26.0072198 24.0286203,26.0072198 C24.5848924,26.0072198 25.03584,25.5562721 25.03584,25 C25.03584,24.4437279 24.5848924,23.9927802 24.0286203,23.9927802 C23.976429,23.9927802 23.9251648,23.9967499 23.8751133,24.0044036 C23.7825587,23.6430905 23.6408029,23.3014864 23.4574078,22.9871531 C23.4971994,22.9577046 23.5353137,22.9249502 23.5713739,22.8888899 C23.9647177,22.4955461 23.9647177,21.8578099 23.5713739,21.4644661 C23.1780301,21.0711223 22.5402939,21.0711223 22.1469501,21.4644661 C22.1139607,21.4974555 22.0837381,21.532164 22.0562823,21.5683031 L22.0562823,21.5683031 C21.7414268,21.3792348 21.3984059,21.2322708 21.0350062,21.1351978 L21.0350062,21.1351978 C21.0403207,21.0932872 21.0430598,21.0505734 21.0430598,21.0072198 C21.0430598,20.4509476 20.5921122,20 20.03584,20 C19.4795679,20 19.0286203,20.4509476 19.0286203,21.0072198 C19.0286203,21.0444139 19.0306363,21.0811372 19.0345651,21.1172863 C18.664189,21.2090771 18.3141792,21.3524775 17.9926079,21.5394154 C17.9714589,21.5135896 17.9488329,21.488569 17.92473,21.4644661 C17.5313862,21.0711223 16.8936499,21.0711223 16.5003061,21.4644661 C16.1069623,21.8578099 16.1069623,22.4955461 16.5003061,22.8888899 C16.5213267,22.9099105 16.5430452,22.9298077 16.5653871,22.9485816 Z M32.0761064,13 L32.076107,21.8960028 L44,14.8203217 L44,34.9297943 L32.076107,28.0006886 L32.0761064,37 L2.31678855e-07,37 L0,13 L32.0761064,13 Z M20,27 C21.1045696,27 22,26.1045696 22,25 C22,23.8954304 21.1045696,23 20,23 C18.8954304,23 18,23.8954304 18,25 C18,26.1045696 18.8954304,27 20,27 Z" id="projector_F"></path>
            </g>
        </g>
    </g>
</svg>