<?xml version="1.0" encoding="UTF-8" standalone="no"?>
<svg width="43px" height="44px" viewBox="0 0 43 44" version="1.1" xmlns="http://www.w3.org/2000/svg" xmlns:xlink="http://www.w3.org/1999/xlink" xmlns:sketch="http://www.bohemiancoding.com/sketch/ns">
    <!-- Generator: Sketch 3.1.1 (8761) - http://www.bohemiancoding.com/sketch -->
    <title>ruler_F</title>
    <desc>Created with Sketch.</desc>
    <defs></defs>
    <g id="Page-1" stroke="none" stroke-width="1" fill="none" fill-rule="evenodd" sketch:type="MSPage">
        <g id="full-icons" sketch:type="MSLayerGroup" transform="translate(-197.000000, -103.000000)" fill="#8B572A">
            <g id="row-2-full-icons" transform="translate(3.000000, 101.000000)" sketch:type="MSShapeGroup">
                <path d="M191,19 L191,29 L240,29 L240,19 L191,19 Z M230,20 L230,26 L231,26 L231,20 L230,20 Z M228,20 L228,23 L229,23 L229,20 L228,20 Z M226,20 L226,23 L227,23 L227,20 L226,20 Z M224,20 L224,23 L225,23 L225,20 L224,20 Z M222,20 L222,23 L223,23 L223,20 L222,20 Z M220,20 L220,26 L221,26 L221,20 L220,20 Z M218,20 L218,23 L219,23 L219,20 L218,20 Z M216,20 L216,23 L217,23 L217,20 L216,20 Z M214,20 L214,23 L215,23 L215,20 L214,20 Z M212,20 L212,23 L213,23 L213,20 L212,20 Z M210,20 L210,26 L211,26 L211,20 L210,20 Z M206,20 L206,23 L207,23 L207,20 L206,20 Z M204,20 L204,23 L205,23 L205,20 L204,20 Z M208,20 L208,23 L209,23 L209,20 L208,20 Z M202,20 L202,23 L203,23 L203,20 L202,20 Z M200,20 L200,26 L201,26 L201,20 L200,20 Z" id="ruler_F" transform="translate(215.500000, 24.000000) rotate(-46.000000) translate(-215.500000, -24.000000) "></path>
            </g>
        </g>
    </g>
</svg>