<?xml version="1.0" encoding="UTF-8" standalone="no"?>
<svg width="54px" height="46px" viewBox="0 0 54 46" version="1.1" xmlns="http://www.w3.org/2000/svg" xmlns:xlink="http://www.w3.org/1999/xlink" xmlns:sketch="http://www.bohemiancoding.com/sketch/ns">
    <!-- Generator: Sketch 3.1.1 (8761) - http://www.bohemiancoding.com/sketch -->
    <title>sandwich_F</title>
    <desc>Created with Sketch.</desc>
    <defs></defs>
    <g id="Page-1" stroke="none" stroke-width="1" fill="none" fill-rule="evenodd" sketch:type="MSPage">
        <g id="full-icons" sketch:type="MSLayerGroup" transform="translate(-399.000000, -304.000000)" fill="#8B572A">
            <g id="row-4-full-icons" transform="translate(0.000000, 300.000000)" sketch:type="MSShapeGroup">
                <path d="M413.992428,4.47355872 L449.027751,4.47355872 L449.027751,10.5464614 L399.002085,35.5567458 L399.002085,29.578955 L413.992428,4.47355872 Z M400.97765,31.0358385 L400.97765,32.8989355 L446.788872,9.80116385 L446.788872,8.33522624 L400.97765,31.0358385 Z M399,44.6159493 L399,49.5264413 L449,24.5463459 L449,19.5881936 L399,44.6159493 Z M427,28.5748188 C427,27.989901 426.600792,27.7169954 426.112466,27.9631891 L404.887534,38.6639138 C404.397363,38.9110379 404,39.5814633 404,40.1704591 C404,40.7553769 404.399208,41.0282825 404.887534,40.7820888 L426.112466,30.0813641 C426.602637,29.83424 427,29.1638146 427,28.5748188 Z M451,16.5748188 C451,15.989901 450.600792,15.7169954 450.112466,15.9631891 L428.887534,26.6639138 C428.397363,26.9110379 428,27.5814633 428,28.1704591 C428,28.7553769 428.399208,29.0282825 428.887534,28.7820888 L450.112466,18.0813641 C450.602637,17.83424 451,17.1638146 451,16.5748188 Z M409.331189,30.3965454 C409.331216,30.3965321 414.330917,27.8973948 414.510731,27.8075358 C414.829816,27.6480824 419.692768,25.2185651 419.692768,25.2185651 C422.012338,26.7019308 421.571981,29.0635509 418.710467,30.4934045 C415.849723,31.923266 411.651056,31.8799005 409.331216,30.3965321 C411.651056,31.8799005 411.213176,34.2415459 408.354448,35.6714279 C405.496489,37.1013178 401.299862,37.0579731 398.979751,35.574602 C398.979751,35.574602 403.974584,33.075415 404.154223,32.9855542 C404.472568,32.8263123 409.318137,30.4030713 409.331189,30.3965454 Z M407.260116,31.4321379 C407.260116,31.4321379 401.049237,34.5389798 401.049237,34.5389798 C402.441346,35.4290029 404.959705,35.4550136 406.674605,34.597081 C408.389782,33.7391511 408.652128,32.32216 407.260116,31.4321379 Z M417.61965,26.2541503 C417.61965,26.2541503 411.402719,29.3609305 411.402719,29.3609305 C412.794666,30.250952 415.314249,30.2769752 417.03082,29.4190596 C418.747668,28.5611468 419.0115,27.1441708 417.61965,26.2541503 Z M429.076574,25.315484 C431.940873,23.8856587 432.383708,21.5240639 430.064407,20.040701 C430.064407,20.0407009 425.196722,22.4701699 424.877326,22.6296202 L419.692768,25.2185651 C422.012338,26.7019308 426.213045,26.745317 429.076574,25.315484 Z M427.989272,21.0762656 C427.989272,21.0762656 421.766289,24.1829841 421.766289,24.1829841 C423.158074,25.0730039 425.67888,25.0990395 427.397122,24.241141 C429.115642,23.3832452 429.38096,21.9662844 427.989272,21.0762656 Z M439.452769,20.1376662 C442.319853,18.7078694 442.765165,16.3462998 440.446134,14.8629396 C440.446134,14.8629395 435.573716,17.2923603 435.25401,17.4518074 L430.064407,20.0407009 C432.383708,21.5240639 436.586453,21.5674709 439.452769,20.1376662 Z M438.368982,15.8984837 C438.368982,15.8984837 432.139945,19.0051405 432.139945,19.0051405 C433.531569,19.8951586 436.053599,19.9212068 437.773512,19.0633252 C439.493703,18.2054465 439.760508,16.7885008 438.368982,15.8984837 Z M449.839051,14.9599513 C452.708921,13.5301829 453.156709,11.1686385 450.837948,9.68528113 C450.837948,9.68528105 445.960797,12.1146536 445.64078,12.2740975 L440.446134,14.8629396 C442.765165,16.3462998 446.96995,16.3897276 449.839051,14.9599513 Z M448.758779,10.7208046 C448.758779,10.7208046 442.52369,13.8273997 442.52369,13.8273997 C443.915151,14.7174162 446.438405,14.7434768 448.15999,13.8856123 C449.881852,13.0277506 450.150143,11.6108201 448.758779,10.7208046 Z M401.276982,43.4721285 L398.995687,44.6127759 L403.049883,36.7008752 C403.049883,36.7008752 403.264852,36.7333234 404.128784,36.7008752 C404.549245,36.6850833 404.808165,36.6539482 404.964324,36.6359789 C405.129028,36.6170263 405.179292,36.6116428 405.179292,36.6116428 L401.276982,43.4721285 Z" id="sandwich_F"></path>
            </g>
        </g>
    </g>
</svg>