<?xml version="1.0" encoding="UTF-8" standalone="no"?>
<svg width="52px" height="19px" viewBox="0 0 52 19" version="1.1" xmlns="http://www.w3.org/2000/svg" xmlns:xlink="http://www.w3.org/1999/xlink" xmlns:sketch="http://www.bohemiancoding.com/sketch/ns">
    <!-- Generator: Sketch 3.1.1 (8761) - http://www.bohemiancoding.com/sketch -->
    <title>shoe_F</title>
    <desc>Created with Sketch.</desc>
    <defs></defs>
    <g id="Page-1" stroke="none" stroke-width="1" fill="none" fill-rule="evenodd" sketch:type="MSPage">
        <g id="full-icons" sketch:type="MSLayerGroup" transform="translate(-95.000000, -516.000000)" fill="#8B572A">
            <g id="row-6-full-icons" transform="translate(18.000000, 506.000000)" sketch:type="MSShapeGroup">
                <path d="M109,26.9430169 L109,28 L125,28 L125,26 L123.809156,26 C123.809167,25.9999994 123.809172,25.999999 123.809172,25.999999 C126.675987,25.9999996 129,22.4132832 128.999999,18.0089018 C128.999999,13.5955401 125.498091,10.0178036 125.498091,10.0178036 C125.498091,10.0178036 125.498091,10.0178037 125.498091,10.0178036 C125.498091,10.0178036 123.016703,12.2379938 118.184523,12.2379936 C113.352343,12.2379934 111.001555,10.0178036 111.001555,10.0178036 C111.001555,10.0178036 101.206601,16.0253767 101.206601,16.0253767 L85.7370884,18.5804892 C81.3777445,19.3005257 77.4606396,23.4349575 77.7864685,27.8131062 C77.7864685,27.8131062 76.8260023,26.6254124 77.8437982,27.8935856 C78.8615941,29.1617588 94.0722511,27.8935867 94.0722508,27.8935862 C94.0722507,27.8935859 101.546059,27.4176688 109,26.943017 L109,26.9430169 Z M103.896017,15.8936616 C103.661835,16.0399948 103.585956,16.3410002 103.731907,16.5745706 L105.331756,19.1348642 C105.475303,19.3645867 105.788361,19.4279075 106.015694,19.285854 C106.249876,19.1395208 106.325755,18.8385154 106.179804,18.604945 L104.579955,16.0446513 C104.436409,15.8149288 104.12335,15.751608 103.896017,15.8936616 Z M106.440161,14.3039038 C106.205979,14.450237 106.1301,14.7512424 106.276051,14.9848128 L107.8759,17.5451065 C108.019447,17.7748289 108.332505,17.8381497 108.559839,17.6960962 C108.794021,17.549763 108.8699,17.2487576 108.723949,17.0151872 L107.1241,14.4548935 C106.980553,14.2251711 106.667495,14.1618503 106.440161,14.3039038 Z M108.984306,12.714146 C108.750124,12.8604792 108.674245,13.1614846 108.820196,13.395055 L110.420045,15.9553487 C110.563591,16.1850712 110.87665,16.248392 111.103983,16.1063384 C111.338165,15.9600052 111.414044,15.6589998 111.268093,15.4254294 L109.668244,12.8651358 C109.524697,12.6354133 109.211639,12.5720925 108.984306,12.714146 Z" id="shoe_F"></path>
            </g>
        </g>
    </g>
</svg>