<?xml version="1.0" encoding="UTF-8" standalone="no"?>
<svg width="67px" height="56px" viewBox="0 0 67 56" version="1.1" xmlns="http://www.w3.org/2000/svg" xmlns:xlink="http://www.w3.org/1999/xlink" xmlns:sketch="http://www.bohemiancoding.com/sketch/ns">
    <!-- Generator: Sketch 3.1.1 (8761) - http://www.bohemiancoding.com/sketch -->
    <title>takeaway_F</title>
    <desc>Created with Sketch.</desc>
    <defs></defs>
    <g id="Page-1" stroke="none" stroke-width="1" fill="none" fill-rule="evenodd" sketch:type="MSPage">
        <g id="full-icons" sketch:type="MSLayerGroup" transform="translate(-493.000000, -299.000000)" fill="#8B572A">
            <g id="row-4-full-icons" transform="translate(0.000000, 300.000000)" sketch:type="MSShapeGroup">
                <path d="M531.693976,45.7250578 L513.866208,54.4202412 C513.370753,54.6618903 512.772255,54.4556689 512.530149,53.9592787 C512.286355,53.4594277 512.493686,52.8644608 512.989465,52.6226531 L523.607501,47.443891 L511.731165,49.9682841 C511.191968,50.082894 510.661136,49.7380083 510.54631,49.1977923 C510.430683,48.65381 510.775791,48.126674 511.315342,48.0119889 L531.037949,43.8198193 L556.133792,31.5797588 C556.629247,31.3381097 557.227745,31.5443311 557.469851,32.0407213 C557.713645,32.5405723 557.506314,33.1355392 557.010535,33.3773469 L539.124424,42.1009861 L558.268835,38.0317159 C558.808032,37.917106 559.338864,38.2619917 559.45369,38.8022077 C559.569317,39.34619 559.224209,39.873326 558.684658,39.9880111 L531.693976,45.7250578 Z M511.506184,2.00099421 L515.136784,-0.0200145096 L526.950087,-0.0200145096 L533.878943,3.92278768 L530.997088,13.0110409 L527.999157,43.0053711 L508.010557,43.0053711 L503.626226,40.2539902 L500.816625,15.3073263 L493.888655,2.83185291 L498.365394,4.10670306 L500.998792,2.00099421 L511.506184,2.00099421 Z M507.083197,14.054338 L509.459904,41.0050621 L526.575937,41.0050621 L528.889153,14.054338 L507.083197,14.054338 Z M515.604064,1.64811125 L526.250465,1.64811125 L531.545458,4.75157714 L529.218975,12.1103752 L507.497818,12.1103752 L510.120383,4.75157714 L515.604064,1.64811125 Z M496.724735,4.75666158 L501.754955,13.8863145 L504.782051,12.5451957 L501.961627,6.2450415 L496.724735,4.75666158 Z M501.770862,3.34139895 L509.811304,3.34139895 L508.792858,3.88136613 L505.88371,11.9094896 L503.188397,5.17722236 L500.423043,4.38712119 L501.770862,3.34139895 Z" id="takeaway_F"></path>
            </g>
        </g>
    </g>
</svg>