<?xml version="1.0" encoding="UTF-8" standalone="no"?>
<svg width="41px" height="40px" viewBox="0 0 41 40" version="1.1" xmlns="http://www.w3.org/2000/svg" xmlns:xlink="http://www.w3.org/1999/xlink" xmlns:sketch="http://www.bohemiancoding.com/sketch/ns">
    <!-- Generator: Sketch 3.1.1 (8761) - http://www.bohemiancoding.com/sketch -->
    <title>teabag_F</title>
    <desc>Created with Sketch.</desc>
    <defs></defs>
    <g id="Page-1" stroke="none" stroke-width="1" fill="none" fill-rule="evenodd" sketch:type="MSPage">
        <g id="full-icons" sketch:type="MSLayerGroup" transform="translate(-305.000000, -307.000000)" fill="#8B572A">
            <g id="row-4-full-icons" transform="translate(0.000000, 300.000000)" sketch:type="MSShapeGroup">
                <path d="M332.732448,36.3217244 L336.965712,7 L304.996361,7 L311.044223,47 L331.190793,47 L332.49015,37.9999971 L332.49015,37.9999971 C335.437663,37.996811 339.036677,35.3879468 340.534896,32.162163 L345.33004,21.837837 C346.8275,18.6136887 345.155656,16 341.6002,16 L335.666412,16 C335.666412,16 335.556351,16.7610291 335.37717,18 C335.522649,18 340.737273,18 340.737273,18 C342.951262,18 344.038646,19.6520852 343.18115,21.6900355 C343.18115,21.6900355 343.696181,20.5158387 343.155445,21.7487535 C341.933577,24.5346931 339.462604,30.0749388 339.462604,30.0749388 C338.564368,32.092474 336.242941,34.5349067 334.275462,35.5363402 L332.732448,36.3217244 Z M333.581141,30.4188539 C334.218466,26.0119963 334.973352,20.7922458 335.37717,18 Z M316,7 L316,19 L317,19 L317,7 L316,7 Z M312,19 L312,31 L321,31 L321,19 L312,19 Z M313,24 L313,30 L320,30 L320,24 L313,24 Z" id="teabag_F"></path>
            </g>
        </g>
    </g>
</svg>