<?xml version="1.0" encoding="UTF-8" standalone="no"?>
<svg width="40px" height="50px" viewBox="0 0 40 50" version="1.1" xmlns="http://www.w3.org/2000/svg" xmlns:xlink="http://www.w3.org/1999/xlink" xmlns:sketch="http://www.bohemiancoding.com/sketch/ns">
    <!-- Generator: Sketch 3.1.1 (8761) - http://www.bohemiancoding.com/sketch -->
    <title>todos_F</title>
    <desc>Created with Sketch.</desc>
    <defs></defs>
    <g id="Page-1" stroke="none" stroke-width="1" fill="none" fill-rule="evenodd" sketch:type="MSPage">
        <g id="full-icons" sketch:type="MSLayerGroup" transform="translate(-103.000000, 0.000000)" fill="#8B572A">
            <g id="row-1-full-icons" transform="translate(1.000000, 0.000000)" sketch:type="MSShapeGroup">
                <path d="M130.541269,9.9812628 C130.541269,9.9812628 120.712986,22.6127921 120.75691,22.6411148 C120.677517,22.5899216 107.92522,9.98126282 107.92522,9.9812628 C107.92522,9.9812628 102,9.9812628 102,9.9812628 L102,49.9812628 L142,49.9812628 L142,9.9812628 L130.541269,9.9812628 Z M114.991803,25.5946957 C114.444045,25.5946957 114,26.0385605 114,26.5946957 C114,27.1469805 114.455306,27.5946957 114.991803,27.5946957 L133.008197,27.5946957 C133.555955,27.5946957 134,27.1508309 134,26.5946957 C134,26.042411 133.544694,25.5946957 133.008197,25.5946957 L114.991803,25.5946957 Z M110,25.5946957 L110,27.5946957 L112,27.5946957 L112,25.5946957 L110,25.5946957 Z M114.991803,32.9299889 C114.444045,32.9299889 114,33.3738537 114,33.9299889 C114,34.4822737 114.455306,34.9299889 114.991803,34.9299889 L133.008197,34.9299889 C133.555955,34.9299889 134,34.4861241 134,33.9299889 C134,33.3777042 133.544694,32.9299889 133.008197,32.9299889 L114.991803,32.9299889 Z M110,32.9299889 L110,34.9299889 L112,34.9299889 L112,32.9299889 L110,32.9299889 Z M114.991803,40.2652821 C114.444045,40.2652821 114,40.7091469 114,41.2652821 C114,41.8175669 114.455306,42.2652821 114.991803,42.2652821 L133.008197,42.2652821 C133.555955,42.2652821 134,41.8214173 134,41.2652821 C134,40.7129974 133.544694,40.2652821 133.008197,40.2652821 L114.991803,40.2652821 Z M110,40.2652821 L110,42.2652821 L112,42.2652821 L112,40.2652821 L110,40.2652821 Z M120.588369,16.5644599 C120.588369,16.5644598 112.182629,8.64105598 112.182629,8.64105598 C111.778157,8.25979286 111.097028,8.2254593 110.653075,8.57075665 L110.724443,8.51524807 C110.284166,8.85768594 110.234819,9.44966801 110.626756,9.85028569 C110.626756,9.85028569 120.588369,20.0325366 120.588369,20.0325367 C120.588369,20.0325368 134.170565,1.81361623 134.170565,1.81361623 C134.502128,1.36886375 134.433397,0.708734785 134.021765,0.343362786 L133.928561,0.260632672 C133.514818,-0.106613399 132.916431,-0.0499079681 132.589009,0.391354922 C132.589009,0.391354922 120.588369,16.56446 120.588369,16.5644599 Z" id="todos_F"></path>
            </g>
        </g>
    </g>
</svg>