<?xml version="1.0" encoding="UTF-8" standalone="no"?>
<svg width="37px" height="48px" viewBox="0 0 37 48" version="1.1" xmlns="http://www.w3.org/2000/svg" xmlns:xlink="http://www.w3.org/1999/xlink" xmlns:sketch="http://www.bohemiancoding.com/sketch/ns">
    <!-- Generator: Sketch 3.1.1 (8761) - http://www.bohemiancoding.com/sketch -->
    <title>bonny_ear_F</title>
    <desc>Created with Sketch.</desc>
    <defs></defs>
    <g id="page-1" stroke="none" stroke-width="1" fill="none" fill-rule="evenodd" sketch:type="MSPage">
        <g id="full-icons" sketch:type="MSLayerGroup" transform="translate(-8.000000, -513.000000)" fill="#FFFFFF">
            <g id="row-6-full-icons" transform="translate(4.000000, 509.000000)" sketch:type="MSShapeGroup">
                <path d="M34.0387457,33.0545169 C36.5941339,35.8967699 37.9592805,39.8855776 37.9592805,44.3023256 C37.9592805,46.5102606 37.6753828,48.6088183 36.8429518,50.5130949 C34.4213208,56.05284 40.7847689,30.9043216 23.6249999,30.9043196 C6.46523081,30.9043175 12.8548089,56.054139 10.4337432,50.5130949 C9.60198287,48.609462 9.33897829,48.021813 9.33897744,44.3023256 C9.3389756,35.6712705 14.5038889,28.6744197 23.625,28.6744186 C27.9950161,28.6744181 31.467978,30.2805206 33.9003395,32.9029523 C33.6248692,32.5746353 32.9047474,31.7960071 31.6518883,30.960015 C29.9982448,29.8565924 28.696206,29.4840783 28.696206,29.4840783 C28.696206,29.4840783 28.2305096,20.0832554 29.1984111,17.1043612 C30.1663125,14.1254671 37.7812864,4.3619828 39.0950117,4.78883897 C40.408737,5.21569511 40.732636,19.328184 39.5869679,22.8541879 C38.7642754,25.386175 34.2500157,32.7123078 34.0387457,33.0545169 L34.0387457,33.0545169 Z M30.8193542,29.0766694 L32.2571064,21.9122288 C32.2571064,21.9122288 34.8641797,17.4206636 35.286836,17.6074947 C35.7103019,17.7946839 35.6298057,24.1770152 35.6298057,24.1770152 L32.2473685,30.0944366 C32.2473685,30.0944366 37.3306878,23.8326944 37.7375571,22.6510603 C38.6309751,20.0563858 38.6876686,8.77354212 37.90328,8.503455 C37.1188913,8.23336795 31.799123,15.1637715 30.9362637,17.6696969 C30.0734043,20.1756223 30.8193542,29.0766694 30.8193542,29.0766694 Z M12.8380506,33.4707865 C12.8380506,33.4707865 13.6837502,32.3690262 15.1265728,31.2832962 C16.5693955,30.1975662 18.0863755,29.6480329 18.0863755,29.6480329 C18.0863755,29.6480329 17.1481289,22.0602199 16.2605586,19.4825286 C15.0535277,15.9770564 6.30174269,4.90124889 4.99566657,5.35096605 C3.68959044,5.80068318 5.08775152,21.174147 6.1074943,24.1356953 C7.1272371,27.0972436 12.8380506,33.4707865 12.8380506,33.4707865 Z M13.9922924,30.3943495 L10.0869851,25.0993013 C10.0869851,25.0993013 8.67799095,18.4927974 9.12797698,18.3876465 C9.57882521,18.2822942 13.4153753,22.8052635 13.4153753,22.8052635 L15.529578,29.3121095 C15.529578,29.3121095 14.9779545,21.5148477 14.5917695,20.3262928 C13.7437708,17.7164211 7.22577427,9.1772188 6.49903143,9.41335165 C5.77228855,9.64948434 7.13560743,21.2047004 7.95460088,23.7253031 C8.77359435,26.2459059 13.9922924,30.3943495 13.9922924,30.3943495 Z M11.4417666,27.6246345 L9.55394445,25.1327094 C9.55394445,25.1327094 8.08453462,17.1957383 8.53452065,17.0905873 C8.98536887,16.9852351 13.9336921,22.6785411 13.9336921,22.6785411 L14.9262368,25.7332793 C14.9262368,25.7332793 14.4709026,21.6772217 14.0847177,20.4886667 C13.2367189,17.8787951 7.39242222,10.4523208 6.9487499,10.5964789 C6.50507758,10.7406369 7.75328336,21.3661443 8.57227699,23.886747 C9.06520597,25.4038262 11.4417666,27.6246345 11.4417666,27.6246345 Z M31.094866,25.2876198 L31.7214566,21.6228857 C31.7214566,21.6228857 34.8393907,16.412092 35.6081962,16.7110721 C36.3770019,17.0100521 36.1207335,24.1855717 36.1207335,24.1855717 L35.0529481,25.8940275 C35.0529481,25.8940275 36.9524952,23.3597684 37.3593644,22.1781343 C38.2527825,19.5834598 37.9845892,9.63458959 37.5729217,9.49284133 C37.1612542,9.35109302 32.4988933,15.0593747 31.6360339,17.5653002 C30.7731745,20.0712256 31.094866,25.2876198 31.094866,25.2876198 Z" id="bonny_ear_F"></path>
            </g>
        </g>
    </g>
</svg>