<?xml version="1.0" encoding="UTF-8" standalone="no"?>
<svg width="52px" height="26px" viewBox="0 0 52 26" version="1.1" xmlns="http://www.w3.org/2000/svg" xmlns:xlink="http://www.w3.org/1999/xlink" xmlns:sketch="http://www.bohemiancoding.com/sketch/ns">
    <!-- Generator: Sketch 3.1.1 (8761) - http://www.bohemiancoding.com/sketch -->
    <title>bowtie_F</title>
    <desc>Created with Sketch.</desc>
    <defs></defs>
    <g id="page-1" stroke="none" stroke-width="1" fill="none" fill-rule="evenodd" sketch:type="MSPage">
        <g id="full-icons" sketch:type="MSLayerGroup" transform="translate(0.000000, -114.000000)" fill="#FFFFFF">
            <g id="row-2-full-icons" transform="translate(0.000000, 91.500000)" sketch:type="MSShapeGroup">
                <path d="M48.7171029,34.0422483 C48.6196246,28.3779136 47.5851776,23.0000002 45.5925926,23 C41.3832374,22.9999997 28.6197847,31.0370922 28.6197847,31.0370922 L23.4198404,31.0370922 C23.4198404,31.0370922 10.6485429,23 6.40740741,23 C4.43467773,23.0000002 3.26361331,28.315707 3.0559913,34.002005 L3.0559913,34.002005 C3.03440202,34.000675 3.01260903,34 2.9906311,34 L1.0093689,34 C0.451909848,34 0,34.4438648 0,35 C0,35.5522847 0.443353176,36 1.0093689,36 L2.9906311,36 C3.00143492,36 3.01219909,35.9998333 3.0229211,35.9995023 C3.04294965,41.8944654 4.11163231,47.5691511 6.40740752,47.5691509 C11.1843887,47.5691509 23.4198404,39.0124626 23.4198404,39.0124626 L28.6197847,39.0124626 C28.6197847,39.0124626 41.4497623,47 45.5925926,47 C47.5537064,47 48.6013844,41.6219785 48.7144566,35.9575812 C48.8074092,35.9851709 48.9063576,36 49.0093689,36 L50.9906311,36 C51.5480902,36 52,35.5561352 52,35 C52,34.4477153 51.5566468,34 50.9906311,34 L49.0093689,34 C48.9077393,34 48.8096177,34.0147525 48.7171029,34.0422483 Z M24,33 L24,37 L28,37 L28,33 L24,33 Z M14.1336692,37.5886485 C14.2004741,37.8565883 14.4704949,38.0199753 14.7491568,37.9504971 L22.4927651,36.0197987 C22.7658846,35.9517023 22.9311819,35.6714552 22.8663308,35.4113515 C22.7995259,35.1434117 22.5295051,34.9800247 22.2508432,35.0495029 L14.5072349,36.9802013 C14.2341154,37.0482977 14.0688181,37.3285448 14.1336692,37.5886485 Z M29.678384,35.2477948 C29.4020749,35.1940857 29.1338272,35.3782182 29.0826777,35.6413595 C29.0299872,35.9124284 29.2056589,36.174623 29.487575,36.2294219 L37.321616,37.7522052 C37.5979251,37.8059143 37.8661728,37.6217818 37.9173223,37.3586405 C37.9700128,37.0875716 37.7943411,36.825377 37.512425,36.7705781 L29.678384,35.2477948 Z M11.8868418,30.4139048 C11.6225821,30.3331125 11.3405465,30.4894166 11.2621715,30.7457698 C11.1814352,31.009846 11.3349799,31.2908754 11.5944701,31.3702095 L22.1131582,34.5860952 C22.3774179,34.6668875 22.6594535,34.5105834 22.7378285,34.2542302 C22.8185648,33.990154 22.6650201,33.7091246 22.4055299,33.6297905 L11.8868418,30.4139048 Z M29.5583339,33.4404519 C29.2914156,33.5119725 29.1350644,33.793982 29.204445,34.0529143 C29.2759159,34.3196473 29.5550521,34.4766075 29.817153,34.4063778 L40.4416661,31.5595481 C40.7085844,31.4880275 40.8649356,31.206018 40.795555,30.9470857 C40.7240841,30.6803527 40.4449479,30.5233925 40.182847,30.5936222 L29.5583339,33.4404519 Z" id="bowtie_F"></path>
            </g>
        </g>
    </g>
</svg>