<?xml version="1.0" encoding="UTF-8" standalone="no"?>
<svg width="51px" height="43px" viewBox="0 0 51 43" version="1.1" xmlns="http://www.w3.org/2000/svg" xmlns:xlink="http://www.w3.org/1999/xlink" xmlns:sketch="http://www.bohemiancoding.com/sketch/ns">
    <!-- Generator: Sketch 3.1.1 (8761) - http://www.bohemiancoding.com/sketch -->
    <title>cheers_F</title>
    <desc>Created with Sketch.</desc>
    <defs></defs>
    <g id="page-1" stroke="none" stroke-width="1" fill="none" fill-rule="evenodd" sketch:type="MSPage">
        <g id="full-icons" sketch:type="MSLayerGroup" transform="translate(-501.000000, -204.000000)" fill="#FFFFFF">
            <g id="row-3-full-icons" transform="translate(3.000000, 199.500000)" sketch:type="MSShapeGroup">
                <path d="M538.461235,30.3832872 C540.290856,28.2731249 543.10693,22.2906809 543.257202,19.9254911 C543.434628,17.1329124 537.227359,10.9431078 537.227359,10.9431078 L525.393135,15.0179578 C525.393135,15.0179578 524.42553,23.502536 526.237867,25.7857181 C527.845461,27.8109656 534.273532,30.8606694 536.82104,31.1397345 L541.104806,42.9092864 C541.195437,43.1582925 535.201272,47.745706 537.763532,46.8131192 L547.937212,43.1102027 C549.997068,42.3604764 542.850435,42.4425146 542.796253,42.29365 C541.513289,38.7687358 539.114959,32.1793772 538.461235,30.3832872 L538.461235,30.3832872 Z M510.265062,30.9946013 C513.014912,30.5061145 518.968288,27.6290956 520.573533,25.8855669 C522.468845,23.8269833 521.540262,15.1102409 521.540262,15.1102409 L509.778956,10.8294758 C509.778956,10.8294758 503.687468,16.8142977 503.659065,19.7292041 C503.633871,22.3148088 506.710179,28.73019 508.514343,30.5502627 L504.436636,42.392784 C504.350365,42.6433339 496.805071,42.4361737 499.383217,43.3238999 L509.619972,46.8486973 C511.692598,47.5623599 506.086993,43.128594 506.138569,42.9788065 C507.35982,39.4320382 509.642785,32.8018267 510.265062,30.9946013 L510.265062,30.9946013 Z M509.592914,29.5141039 C510.268458,29.7599816 517.449232,26.8260283 518.981542,25.1350356 C520.513853,23.444043 519.84902,16.3467102 519.84902,16.3467102 L510.276944,12.8627594 C510.276944,12.8627594 505.383722,17.7924523 505.343906,20.1713421 C505.30409,22.5502318 508.917371,29.2682261 509.592914,29.5141039 Z M537.007171,29.655721 C537.686903,29.4216708 541.421016,22.6225531 541.547669,20.3440908 C541.674321,18.0656285 536.691153,12.968358 536.691153,12.968358 L527.059731,16.2847224 C527.059731,16.2847224 526.35934,23.1952173 527.825481,25.0690188 C529.291622,26.9428203 536.32744,29.8897712 537.007171,29.655721 Z M509.890366,28.8236085 C510.498355,29.0448985 516.961052,26.4043405 518.340132,24.8824471 C519.05749,24.0908009 519.239798,21.9825978 519.24959,20.1417122 C519.258622,18.4436032 517.927808,20.4007531 512.8228,20.7668124 C507.717792,21.1328719 506.102093,18.2741222 506.066259,20.4151229 C506.030425,22.5561237 509.282378,28.6023186 509.890366,28.8236085 Z M536.742399,28.8911235 C536.13441,29.1124135 529.955933,26.4836434 528.576853,24.96175 C527.859495,24.1701038 527.615841,22.1852238 527.606049,20.3443383 C527.597017,18.6462293 529.207059,20.4007531 534.312067,20.7668124 C539.417075,21.1328719 540.71921,18.3882499 540.755044,20.5292507 C540.790879,22.6702514 537.350388,28.6698335 536.742399,28.8911235 Z M528.673679,6.29263102 C528.42986,6.16299003 528.131342,6.24759101 527.99855,6.49733718 L526.118503,10.0331913 C525.989458,10.2758883 526.089633,10.5815194 526.326321,10.707369 C526.57014,10.83701 526.868658,10.752409 527.00145,10.5026628 L528.881497,6.96680874 C529.010542,6.72411166 528.910367,6.41848057 528.673679,6.29263102 Z M518.326321,6.29263102 C518.082502,6.42227201 517.98571,6.71706257 518.118503,6.96680874 L519.99855,10.5026628 C520.127594,10.7453599 520.43699,10.8332185 520.673679,10.707369 C520.917498,10.577728 521.01429,10.2829374 520.881497,10.0331913 L519.00145,6.49733718 C518.872406,6.2546401 518.56301,6.16678146 518.326321,6.29263102 Z M523.5,5 C523.223858,5 523,5.22788048 523,5.49100518 L523,10.5089948 C523,10.7801695 523.231934,11 523.5,11 C523.776142,11 524,10.7721195 524,10.5089948 L524,5.49100518 C524,5.21983051 523.768066,5 523.5,5 Z" id="cheers_F"></path>
            </g>
        </g>
    </g>
</svg>