<?xml version="1.0" encoding="UTF-8" standalone="no"?>
<svg width="48px" height="30px" viewBox="0 0 48 30" version="1.1" xmlns="http://www.w3.org/2000/svg" xmlns:xlink="http://www.w3.org/1999/xlink" xmlns:sketch="http://www.bohemiancoding.com/sketch/ns">
    <!-- Generator: Sketch 3.1.1 (8761) - http://www.bohemiancoding.com/sketch -->
    <title>clutch_F</title>
    <desc>Created with Sketch.</desc>
    <defs></defs>
    <g id="page-1" stroke="none" stroke-width="1" fill="none" fill-rule="evenodd" sketch:type="MSPage">
        <g id="full-icons" sketch:type="MSLayerGroup" transform="translate(-502.000000, -14.000000)" fill="#FFFFFF">
            <g id="row-1-full-icons" transform="translate(19.000000, -0.500000)" sketch:type="MSShapeGroup">
                <path d="M509.999223,22.9999999 C509.999482,23 509.999741,23 510,23 C510.000259,23 510.000518,23 510.000777,22.9999999 C515.062674,22.9999998 519.335011,22.9999998 521.920276,23 C527.233665,23.0000002 530.125762,28.4855752 530.125762,28.4855752 C530.125762,28.4855752 530.260284,25.5262189 528.175281,23.5757341 C526.090278,21.6252494 523.965152,21 521.920276,21 C521.456245,21 519.733681,21 517.347662,21 C517.532084,20.7026539 517.691527,20.3765036 517.819078,20.0260604 C518.574648,17.9501487 517.925014,15.8079071 516.368081,15.2412295 C515.05883,14.7647014 513.524907,15.5540612 512.6207,17.0517001 L512.6207,17.0517001 C512.10773,15.8276441 511.126355,15 510,15 C508.956515,15 508.037461,15.7103395 507.5,16.7881365 C506.962539,15.7103395 506.043485,15 505,15 C503.868593,15 502.883469,15.8350856 502.372425,17.0681956 C501.423137,15.5378445 499.821985,14.7577836 498.501574,15.2912646 C496.965365,15.9119331 496.39089,18.0755417 497.218448,20.1238198 C497.345343,20.4378942 497.497833,20.7310202 497.670625,21 C495.094045,21 493.390323,21 493.390323,21 C492.839473,21 491.956217,21.0494857 491.395696,21.129296 C491.395696,21.129296 488.156712,21.3755546 486.13897,23 C484.121227,24.6244454 483.783885,28.6924426 483.783885,28.7546077 C483.783885,28.810274 485.197356,25.9114447 487.147841,24.6244454 C489.098326,23.3374462 491.451308,23 492.392921,23 C496.629925,23 500.953108,23 504.999375,22.9999999 C504.999584,23 504.999792,23 505,23 C505.000208,23 505.000416,23 505.000625,22.9999999 C506.726613,22.9999999 508.402207,22.9999999 509.999223,22.9999999 Z M505,21 C504.447715,21 504,20.1045696 504,19 C504,17.8954304 504.447715,17 505,17 C505.552285,17 506,17.8954304 506,19 C506,20.1045696 505.552285,21 505,21 C502.28528,21 499.705693,21 497.670625,21 Z M510,21 C509.447715,21 509,20.1045696 509,19 C509,17.8954304 509.447715,17 510,17 C510.552285,17 511,17.8954304 511,19 C511,20.1045696 510.552285,21 510,21 C508.344561,21 506.647399,21 505,21 Z M493.005835,24 C488.032049,24 484,28.0232399 484,33.0053704 L484,34.9946296 C484,39.9681583 488.021782,44 493.005835,44 L520.994165,44 C525.967951,44 530,39.9767601 530,34.9946296 L530,33.0053704 C530,28.0318417 525.978218,24 520.994165,24 L493.005835,24 Z M500.749213,20.8543677 C501.261283,20.6474782 501.340963,19.6495325 500.927184,18.6253934 C500.513405,17.6012543 499.762856,16.9387428 499.250787,17.1456323 C498.738717,17.3525218 498.659037,18.3504675 499.072816,19.3746066 C499.486595,20.3987457 500.237144,21.0612572 500.749213,20.8543677 Z M514.31596,20.8793852 C514.834938,21.0682778 515.561908,20.379976 515.939693,19.3420201 C516.317478,18.3040643 516.203018,17.3095073 515.68404,17.1206148 C515.165062,16.9317222 514.438092,17.620024 514.060307,18.6579799 C513.682522,19.6959357 513.796982,20.6904927 514.31596,20.8793852 Z" id="clutch_F"></path>
            </g>
        </g>
    </g>
</svg>