<?xml version="1.0" encoding="UTF-8" standalone="no"?>
<svg width="47px" height="51px" viewBox="0 0 47 51" version="1.1" xmlns="http://www.w3.org/2000/svg" xmlns:xlink="http://www.w3.org/1999/xlink" xmlns:sketch="http://www.bohemiancoding.com/sketch/ns">
    <!-- Generator: Sketch 3.1.1 (8761) - http://www.bohemiancoding.com/sketch -->
    <title>cocktail_F</title>
    <desc>Created with Sketch.</desc>
    <defs></defs>
    <g id="page-1" stroke="none" stroke-width="1" fill="none" fill-rule="evenodd" sketch:type="MSPage">
        <g id="full-icons" sketch:type="MSLayerGroup" transform="translate(-205.000000, -299.000000)" fill="#FFFFFF">
            <g id="row-4-full-icons" transform="translate(13.000000, 295.000000)" sketch:type="MSShapeGroup">
                <path d="M222.199159,12 C220.126469,9.52526946 218.636719,7.70913667 218.690282,7.66419234 C223.767178,3.4041706 231.336245,4.06637813 235.596267,9.14327434 C239.856288,14.2201706 239.194081,21.7892372 234.117185,26.049259 C234.117185,26.049259 231.453646,22.934352 228.339965,19.268756 C225.658603,20.6122656 223,20.6122656 223,20.6122656 C223,20.6122656 220.677012,30.7017587 214.02254,31.6554577 L214.022539,50.7600861 C214.022539,50.7600861 215.711434,51.6436398 217.635935,52.1486759 C220.590294,52.9239722 224.109358,53.4972493 223,54 C221.167995,54.8302479 205.104563,54.8302479 203,54 C201.798499,53.5260091 205.622941,52.90996 208.511378,52.1486759 C210.682362,51.5764857 212.012839,50.7600861 212.012839,50.7600861 L212.012839,31.6604356 C205.331219,30.7375052 203,20.6122656 203,20.6122656 C203,20.6122656 198.793692,20.6122656 195.568611,17.8661675 C192.343531,15.1200694 193.033623,12 193.033623,12 L222.199159,12 L222.199159,12 Z M227.705687,12 C227.656448,9.4431971 227.548407,6.52224241 227.610698,6.53075363 C229.682268,6.81380572 231.870975,7.77858988 233.745065,9.76668699 C233.811835,9.83751943 232.723106,10.8366568 231.444717,12 L227.705687,12 L227.705687,12 Z M227.197139,12 C227.027489,9.41996194 226.87703,6.45766965 226.784644,6.45283533 C224.467663,6.33159364 222.378168,7.03684088 221.155868,8.06247235 C221.144069,8.0723733 222.547463,9.75301185 224.432783,12 L227.197139,12 L227.197139,12 Z M229.801403,18.3856168 C232.153445,21.179592 234.065104,23.4471008 234.065104,23.4471008 C235.26564,22.4397316 236.351565,20.5030346 236.651671,18.19031 C236.659212,18.1321965 233.906969,17.492095 231.43755,16.8775343 C231.159467,17.2084512 230.835435,17.5399481 230.45812,17.8661675 C230.243701,18.0515505 230.024243,18.2244186 229.801403,18.3856168 L229.801403,18.3856168 Z M231.90363,16.2639701 C234.269831,16.6420183 236.732585,17.0677667 236.733073,17.0121546 C236.750927,14.9766201 236.135251,12.7402715 234.487674,10.6314996 C234.461801,10.5983845 233.686514,11.1990281 232.665039,12 L233.034817,12 C233.034817,12 233.425775,14.034658 231.90363,16.2639701 L231.90363,16.2639701 Z M194.998047,14.0093384 C194.998047,14.0093384 195.243612,16.0278804 197.717648,17.4888015 C200.206604,18.958533 204.234043,19.1092587 204.234043,19.1092587 C204.234043,19.1092587 206.742103,30.0541958 213.048691,30.0541954 C219.355278,30.0541954 221.690457,19.1092587 221.690457,19.1092587 C221.690457,19.1092587 225.659555,19.1543691 228.389738,17.4888015 C230.490192,16.2074046 231.07263,14.0093384 231.07263,14.0093384 L194.998047,14.0093384 Z M213.033374,17.0346651 C203.066748,17.0425898 196.558882,15.9746937 197.042829,16.3783697 C197.223852,16.5293671 198.449341,17.341236 200.395582,17.8724445 C202.212126,18.3682536 204.764004,18.5905413 204.764004,18.5905413 C204.764004,18.5905413 207.077153,29.242309 213.033375,29.2423086 C218.989596,29.2423086 221.040861,18.5905413 221.040861,18.5905413 C221.040861,18.5905413 224.212455,18.5905414 226.127379,17.8724445 C228.042304,17.1543477 228.602288,16.6281801 228.972667,16.3020214 C229.381959,15.941595 223.000001,17.0267404 213.033374,17.0346651 Z" id="cocktail_F"></path>
            </g>
        </g>
    </g>
</svg>