<?xml version="1.0" encoding="UTF-8" standalone="no"?>
<svg width="51px" height="25px" viewBox="0 0 51 25" version="1.1" xmlns="http://www.w3.org/2000/svg" xmlns:xlink="http://www.w3.org/1999/xlink" xmlns:sketch="http://www.bohemiancoding.com/sketch/ns">
    <!-- Generator: Sketch 3.1.1 (8761) - http://www.bohemiancoding.com/sketch -->
    <title>electric_piano_F</title>
    <desc>Created with Sketch.</desc>
    <defs></defs>
    <g id="page-1" stroke="none" stroke-width="1" fill="none" fill-rule="evenodd" sketch:type="MSPage">
        <g id="full-icons" sketch:type="MSLayerGroup" transform="translate(-301.000000, -414.000000)" fill="#FFFFFF">
            <g id="row-5-line-icons-" transform="translate(9.000000, 395.000000)" sketch:type="MSShapeGroup">
                <path d="M292,29 L292,44 L343,44 L343,29 L292,29 Z M292,19 L292,28 L343,28 L343,19 L292,19 Z M295,29 L295,42 L296,42 L296,29 L295,29 Z M339,29 L339,42 L340,42 L340,29 L339,29 Z M323,29 L323,42 L324,42 L324,29 L323,29 Z M311,29 L311,42 L312,42 L312,29 L311,29 Z M335,36 L335,42 L336,42 L336,36 L335,36 Z M331,36 L331,42 L332,42 L332,36 L331,36 Z M327,36 L327,42 L328,42 L328,36 L327,36 Z M319,36 L319,42 L320,42 L320,36 L319,36 Z M315,36 L315,42 L316,42 L316,36 L315,36 Z M307,36 L307,42 L308,42 L308,36 L307,36 Z M303,36 L303,42 L304,42 L304,36 L303,36 Z M299,36 L299,42 L300,42 L300,36 L299,36 Z M334,29 L334,36 L337,36 L337,29 L334,29 Z M330,29 L330,36 L333,36 L333,29 L330,29 Z M326,29 L326,36 L329,36 L329,29 L326,29 Z M318,29 L318,36 L321,36 L321,29 L318,29 Z M314,29 L314,36 L317,36 L317,29 L314,29 Z M306,29 L306,36 L309,36 L309,29 L306,29 Z M302,29 L302,36 L305,36 L305,29 L302,29 Z M298,29 L298,36 L301,36 L301,29 L298,29 Z M331,25 C331.552285,25 332,24.5522848 332,24 C332,23.4477152 331.552285,23 331,23 C330.447715,23 330,23.4477152 330,24 C330,24.5522848 330.447715,25 331,25 Z M325,25 C325.552285,25 326,24.5522848 326,24 C326,23.4477152 325.552285,23 325,23 C324.447715,23 324,23.4477152 324,24 C324,24.5522848 324.447715,25 325,25 Z M319,25 C319.552285,25 320,24.5522848 320,24 C320,23.4477152 319.552285,23 319,23 C318.447715,23 318,23.4477152 318,24 C318,24.5522848 318.447715,25 319,25 Z M313,25 C313.552285,25 314,24.5522848 314,24 C314,23.4477152 313.552285,23 313,23 C312.447715,23 312,23.4477152 312,24 C312,24.5522848 312.447715,25 313,25 Z M298,21 L298,25 L306,25 L306,21 L298,21 Z" id="electric_piano_F"></path>
            </g>
        </g>
    </g>
</svg>