<?xml version="1.0" encoding="UTF-8" standalone="no"?>
<svg width="50px" height="46px" viewBox="0 0 50 46" version="1.1" xmlns="http://www.w3.org/2000/svg" xmlns:xlink="http://www.w3.org/1999/xlink" xmlns:sketch="http://www.bohemiancoding.com/sketch/ns">
    <!-- Generator: Sketch 3.1.1 (8761) - http://www.bohemiancoding.com/sketch -->
    <title>electric_guitar_F</title>
    <desc>Created with Sketch.</desc>
    <defs></defs>
    <g id="page-1" stroke="none" stroke-width="1" fill="none" fill-rule="evenodd" sketch:type="MSPage">
        <g id="full-icons" sketch:type="MSLayerGroup" transform="translate(-401.000000, -405.000000)" fill="#FFFFFF">
            <g id="row-5-line-icons-" transform="translate(9.000000, 395.000000)" sketch:type="MSShapeGroup">
                <path d="M419.997833,1.43731091 L421.128938,0.278245325 L422.884153,0.77350538 L419.467654,7.7554653 L419.951672,34.1877922 L419.951672,34.1877922 C420.669301,34.3867407 421.541174,34.4878657 422.608415,34.4211632 C427.400896,34.1216332 425.893998,26.0422149 428,29.2012178 C431.095144,33.8439347 425.904598,38.6192128 428,41.6575448 C429.23034,43.4415376 431.42633,49.1741124 430.036369,52.9863659 C428.63519,56.8293859 423.063221,58.7450749 418.0866,58.745073 C413.165579,58.7450704 407.695482,56.7309684 405.984314,52.9863659 C404.188057,49.0555614 407.090105,43.3470954 408,41.6575448 C410.126803,37.7083645 404.696674,32.0677648 407.205457,26.1244766 C409.334309,21.081244 408.80871,29.7738841 413.312235,31.5060088 C414.585935,31.9958932 415.348896,31.4532871 416.102822,31.4799992 L416.529702,7.7554653 C416.529702,7.7554653 416.540337,7.04398236 416.338655,6.71395726 C416.136973,6.38393217 415.385249,6.16391542 415.385249,6.16391542 L416.537916,4.98275591 L416.537918,4.98275317 C416.525402,4.98369171 416.512757,4.98416943 416.5,4.98416943 C416.223858,4.98416943 416,4.76031182 416,4.48416943 C416,4.20802704 416.223858,3.98416943 416.5,3.98416943 C416.776142,3.98416943 417,4.20802704 417,4.48416943 C417,4.49280469 416.999781,4.50138882 416.999349,4.50991594 L417.512564,3.98401466 C417.508389,3.98411764 417.5042,3.98416943 417.5,3.98416943 C417.223858,3.98416943 417,3.76031182 417,3.48416943 C417,3.20802704 417.223858,2.98416943 417.5,2.98416943 C417.776142,2.98416943 418,3.20802704 418,3.48416943 C418,3.48428951 418,3.48440958 418,3.48452964 L418,3.48452964 L418.488418,2.98403793 L418.488418,2.98403793 C418.217625,2.97788294 418,2.75644077 418,2.48416943 C418,2.20802704 418.223858,1.98416943 418.5,1.98416943 C418.768168,1.98416943 418.987027,2.19528391 418.999444,2.46037974 L419.465322,1.98298563 C419.205357,1.96517678 419,1.74865497 419,1.48416943 C419,1.20802704 419.223858,0.984169433 419.5,0.984169433 C419.760341,0.984169433 419.97421,1.18314087 419.997833,1.43731091 L419.997833,1.43731091 Z M420.002879,36.9841694 L422,36.9841694 L422,40.9841694 L414,40.9841694 L414,36.9841694 L416.003784,36.9841694 L416.003052,37.0248799 L420.003052,36.9936299 L420.002879,36.9841694 L420.002879,36.9841694 Z M415,37.9841694 L415,39.9841694 L421,39.9841694 L421,37.9841694 L415,37.9841694 Z M414,42.9841694 L414,46.9841694 L422,46.9841694 L422,42.9841694 L414,42.9841694 Z M415,43.9841694 L415,45.9841694 L421,45.9841694 L421,43.9841694 L415,43.9841694 Z M414,48.9841694 L414,49.9841694 L422,49.9841694 L422,48.9841694 L414,48.9841694 Z M425,53.9841694 C425.552285,53.9841694 426,52.8648814 426,51.4841694 C426,50.1034575 425.552285,48.9841694 425,48.9841694 C424.447715,48.9841694 424,50.1034575 424,51.4841694 C424,52.8648814 424.447715,53.9841694 425,53.9841694 Z M417.504684,28.9841694 C417.225955,28.9841694 417,29.216103 417,29.4841694 C417,29.7603118 417.214035,29.9841694 417.504684,29.9841694 L418.495316,29.9841694 C418.774045,29.9841694 419,29.7522358 419,29.4841694 C419,29.2080271 418.785965,28.9841694 418.495316,28.9841694 L417.504684,28.9841694 Z M417.504684,33.9841694 C417.225955,33.9841694 417,34.216103 417,34.4841694 C417,34.7603118 417.214035,34.9841694 417.504684,34.9841694 L418.495316,34.9841694 C418.774045,34.9841694 419,34.7522358 419,34.4841694 C419,34.2080271 418.785965,33.9841694 418.495316,33.9841694 L417.504684,33.9841694 Z M417.504684,23.9841694 C417.225955,23.9841694 417,24.216103 417,24.4841694 C417,24.7603118 417.214035,24.9841694 417.504684,24.9841694 L418.495316,24.9841694 C418.774045,24.9841694 419,24.7522358 419,24.4841694 C419,24.2080271 418.785965,23.9841694 418.495316,23.9841694 L417.504684,23.9841694 Z M417.504684,18.9841694 C417.225955,18.9841694 417,19.216103 417,19.4841694 C417,19.7603118 417.214035,19.9841694 417.504684,19.9841694 L418.495316,19.9841694 C418.774045,19.9841694 419,19.7522358 419,19.4841694 C419,19.2080271 418.785965,18.9841694 418.495316,18.9841694 L417.504684,18.9841694 Z M417.504684,14.9841694 C417.225955,14.9841694 417,15.216103 417,15.4841694 C417,15.7603118 417.214035,15.9841694 417.504684,15.9841694 L418.495316,15.9841694 C418.774045,15.9841694 419,15.7522358 419,15.4841694 C419,15.2080271 418.785965,14.9841694 418.495316,14.9841694 L417.504684,14.9841694 Z M417.504684,11.9841694 C417.225955,11.9841694 417,12.216103 417,12.4841694 C417,12.7603118 417.214035,12.9841694 417.504684,12.9841694 L418.495316,12.9841694 C418.774045,12.9841694 419,12.7522358 419,12.4841694 C419,12.2080271 418.785965,11.9841694 418.495316,11.9841694 L417.504684,11.9841694 Z M417.504684,8.98416943 C417.225955,8.98416943 417,9.21610303 417,9.48416943 C417,9.76031181 417.214035,9.98416943 417.504684,9.98416943 L418.495316,9.98416943 C418.774045,9.98416943 419,9.75223584 419,9.48416943 C419,9.20802706 418.785965,8.98416943 418.495316,8.98416943 L417.504684,8.98416943 Z M411.234781,35.0552263 C411.510923,35.0552263 411.734781,34.8313687 411.734781,34.5552263 C411.734781,34.2790839 411.510923,34.0552263 411.234781,34.0552263 C410.958638,34.0552263 410.734781,34.2790839 410.734781,34.5552263 C410.734781,34.8313687 410.958638,35.0552263 411.234781,35.0552263 Z M411.284144,37.8832226 C411.560286,37.8832226 411.784144,37.659365 411.784144,37.3832226 C411.784144,37.1070803 411.560286,36.8832226 411.284144,36.8832226 C411.008001,36.8832226 410.784144,37.1070803 410.784144,37.3832226 C410.784144,37.659365 411.008001,37.8832226 411.284144,37.8832226 Z" id="electric_guitar_F" transform="translate(417.500000, 29.484169) rotate(46.000000) translate(-417.500000, -29.484169) "></path>
            </g>
        </g>
    </g>
</svg>