<?xml version="1.0" encoding="UTF-8" standalone="no"?>
<svg width="48px" height="44px" viewBox="0 0 48 44" version="1.1" xmlns="http://www.w3.org/2000/svg" xmlns:xlink="http://www.w3.org/1999/xlink" xmlns:sketch="http://www.bohemiancoding.com/sketch/ns">
    <!-- Generator: Sketch 3.1.1 (8761) - http://www.bohemiancoding.com/sketch -->
    <title>equalizer_F</title>
    <desc>Created with Sketch.</desc>
    <defs></defs>
    <g id="page-1" stroke="none" stroke-width="1" fill="none" fill-rule="evenodd" sketch:type="MSPage">
        <g id="full-icons" sketch:type="MSLayerGroup" transform="translate(-502.000000, -404.000000)" fill="#FFFFFF">
            <g id="row-5-line-icons-" transform="translate(9.000000, 395.000000)" sketch:type="MSShapeGroup">
                <path d="M493,9 L493,53 L541,53 L541,9 L493,9 Z M495,49 L495,51 L503,51 L503,49 L495,49 Z M495,46 L495,48 L503,48 L503,46 L495,46 Z M495,43 L495,45 L503,45 L503,43 L495,43 Z M495,40 L495,42 L503,42 L503,40 L495,40 Z M495,33 L495,35 L503,35 L503,33 L495,33 Z M507,49 L507,51 L515,51 L515,49 L507,49 Z M507,46 L507,48 L515,48 L515,46 L507,46 Z M507,43 L507,45 L515,45 L515,43 L507,43 Z M507,40 L507,42 L515,42 L515,40 L507,40 Z M507,37 L507,39 L515,39 L515,37 L507,37 Z M507,34 L507,36 L515,36 L515,34 L507,34 Z M507,31 L507,33 L515,33 L515,31 L507,31 Z M507,28 L507,30 L515,30 L515,28 L507,28 Z M507,25 L507,27 L515,27 L515,25 L507,25 Z M507,22 L507,24 L515,24 L515,22 L507,22 Z M507,19 L507,21 L515,21 L515,19 L507,19 Z M507,12 L507,14 L515,14 L515,12 L507,12 Z M519,49 L519,51 L527,51 L527,49 L519,49 Z M519,24 L519,26 L527,26 L527,24 L519,24 Z M519,31 L519,33 L527,33 L527,31 L519,31 Z M519,34 L519,36 L527,36 L527,34 L519,34 Z M519,37 L519,39 L527,39 L527,37 L519,37 Z M519,40 L519,42 L527,42 L527,40 L519,40 Z M519,43 L519,45 L527,45 L527,43 L519,43 Z M519,46 L519,48 L527,48 L527,46 L519,46 Z M531,49 L531,51 L539,51 L539,49 L531,49 Z M531,46 L531,48 L539,48 L539,46 L531,46 Z M531,18 L531,20 L539,20 L539,18 L531,18 Z M531,25 L531,27 L539,27 L539,25 L531,25 Z M531,28 L531,30 L539,30 L539,28 L531,28 Z M531,31 L531,33 L539,33 L539,31 L531,31 Z M531,34 L531,36 L539,36 L539,34 L531,34 Z M531,37 L531,39 L539,39 L539,37 L531,37 Z M531,40 L531,42 L539,42 L539,40 L531,40 Z M531,43 L531,45 L539,45 L539,43 L531,43 Z" id="equalizer_F"></path>
            </g>
        </g>
    </g>
</svg>