<?xml version="1.0" encoding="UTF-8" standalone="no"?>
<svg width="45px" height="41px" viewBox="0 0 45 41" version="1.1" xmlns="http://www.w3.org/2000/svg" xmlns:xlink="http://www.w3.org/1999/xlink" xmlns:sketch="http://www.bohemiancoding.com/sketch/ns">
    <!-- Generator: Sketch 3.1.1 (8761) - http://www.bohemiancoding.com/sketch -->
    <title>handcuff_F</title>
    <desc>Created with Sketch.</desc>
    <defs></defs>
    <g id="page-1" stroke="none" stroke-width="1" fill="none" fill-rule="evenodd" sketch:type="MSPage">
        <g id="full-icons" sketch:type="MSLayerGroup" transform="translate(-305.000000, -516.000000)" fill="#FFFFFF">
            <g id="row-6-full-icons" transform="translate(4.000000, 509.000000)" sketch:type="MSShapeGroup">
                <path d="M325.990568,9.19672882 C327.20857,8.18677078 328.312502,7.30741679 328.621677,7.13283275 C329.923877,6.39751203 331.82776,9.15548073 333.196979,8.8993339 C336.840204,8.2177768 340.468082,9.23142724 342.736431,11.9347401 C346.028921,15.8585772 348.054774,19.6888451 342.012511,25.6665369 C341.873016,25.8045411 342.049686,27.0759999 340.715766,28.1952919 C339.426951,29.276736 338.204726,28.8877859 338.049254,28.9984331 C331.080238,33.9581848 327.651599,31.2947093 324.351364,27.3616428 C322.071899,24.6450827 321.711175,20.8727834 323.037869,17.3890385 C323.537488,16.0770978 321.112395,13.7816975 322.078277,12.6233975 C322.254304,12.4123036 322.964419,11.7727679 323.858644,11 L317.999615,11 C317.238967,11 316.583445,10.5811601 316.245048,9.96302991 C316.186994,10.1820692 316.054011,10.3821255 315.853955,10.5222065 L309.293198,15.1160976 C308.851075,15.4256759 308.221017,15.3202874 307.90424,14.8678822 C307.585254,14.4123229 307.695722,13.7931131 308.146045,13.4777935 L314.706802,8.88390236 C315.107968,8.60300254 315.663862,8.66374797 316.000057,9.01537734 C316.000019,9.01025612 316,9.00513031 316,9 C316,7.88772964 316.895258,7 317.999615,7 L324.000385,7 C325.112567,7 326,7.8954305 326,9 C326,9.06642416 325.996807,9.13204752 325.990568,9.19672882 Z M312.848882,23.9824738 C314.826058,23.9792202 316.84654,24.0152836 317.274078,24.094891 C318.744277,24.3686406 318.429947,27.7051596 319.643478,28.3890564 C322.872446,30.2087734 325,33.3172295 325,36.8461538 C325,41.9683594 324.089845,46.2047085 315.618817,46.899994 C315.42325,46.9160457 314.741309,48.0036011 313,48.0036011 C311.317572,48.0036011 310.631305,46.9200169 310.441084,46.9048422 C301.914441,46.2246354 301,41.9804076 301,36.8461538 C301,33.2999365 303.148456,30.1783181 306.404071,28.3623976 C307.6301,27.6785414 307.247827,24.3613434 308.732276,24.094891 C308.890622,24.0664685 309.283483,24.043219 309.819047,24.0253797 C309.701337,23.8922464 309.599446,23.7410867 309.517694,23.5734705 L306.88713,18.1800141 C306.399581,17.1803918 306.815364,15.9902412 307.808144,15.5060298 C308.807846,15.0184425 309.998188,15.4339401 310.482306,16.4265295 L313.11287,21.8199859 C313.472342,22.5570123 313.340747,23.3976134 312.848882,23.9824738 L312.848882,23.9824738 Z M313,45 C322.090909,44.9999985 323,41.4182782 323,37 C323,32.5817218 318.522848,29 313,29 C307.477152,29 303,32.5817218 303,37 C303,41.4182782 303.909091,45.0000011 313,45 Z M313,47 C313.552285,47 314,46.7761424 314,46.5 C314,46.2238576 313.552285,46 313,46 C312.447715,46 312,46.2238576 312,46.5 C312,46.7761424 312.447715,47 313,47 Z M311,27 C311.552285,27 312,26.5522848 312,26 C312,25.4477152 311.552285,25 311,25 C310.447715,25 310,25.4477152 310,26 C310,26.5522848 310.447715,27 311,27 Z M315,25 L315,27 L316,27 L316,25 L315,25 Z M338.785088,25.8944 C345.749128,20.0508751 344.143247,16.7227658 341.303232,13.3381683 C338.463218,9.95357087 332.731234,10.0876708 328.500487,13.6376889 C324.26974,17.187707 323.142329,22.8093231 325.982343,26.1939205 C328.822358,29.578518 331.821049,31.7379246 338.785088,25.8944 Z M340.070664,27.4264889 C340.493738,27.0714871 340.692815,26.6122164 340.515314,26.400679 C340.337813,26.1891417 339.850951,26.3054426 339.427876,26.6604444 C339.004801,27.0154462 338.805725,27.4747169 338.983225,27.6862543 C339.160726,27.8977916 339.647589,27.7814907 340.070664,27.4264889 Z M325.682823,13.3911752 C326.105897,13.0361734 326.161081,12.4054179 325.806079,11.9823432 C325.451078,11.5592685 324.820322,11.5040845 324.397247,11.8590863 C323.974173,12.2140882 323.918989,12.8448437 324.273991,13.2679184 C324.628992,13.6909931 325.259748,13.746177 325.682823,13.3911752 Z M327.461425,9.28793591 L328.747,10.8200248 L329.513045,10.1772372 L328.22747,8.6451483 L327.461425,9.28793591 Z" id="handcuff_F"></path>
            </g>
        </g>
    </g>
</svg>