<?xml version="1.0" encoding="UTF-8" standalone="no"?>
<svg width="49px" height="27px" viewBox="0 0 49 27" version="1.1" xmlns="http://www.w3.org/2000/svg" xmlns:xlink="http://www.w3.org/1999/xlink" xmlns:sketch="http://www.bohemiancoding.com/sketch/ns">
    <!-- Generator: Sketch 3.1.1 (8761) - http://www.bohemiancoding.com/sketch -->
    <title>hat_F</title>
    <desc>Created with Sketch.</desc>
    <defs></defs>
    <g id="page-1" stroke="none" stroke-width="1" fill="none" fill-rule="evenodd" sketch:type="MSPage">
        <g id="full-icons" sketch:type="MSLayerGroup" transform="translate(-302.000000, -113.000000)" fill="#FFFFFF">
            <g id="row-2-full-icons" transform="translate(0.000000, 91.500000)" sketch:type="MSShapeGroup">
                <path d="M318.220051,22 C313.796513,22 310.210526,25.5738336 310.210526,30.0078372 L310.210527,40.8823992 C310.210527,40.8823992 306.729234,39.2411235 304.471586,39.2828827 C302.563893,39.3181687 301.724155,40.8982417 302.612875,42.1819477 C304.553345,44.984848 312.613086,48.1488544 325.985328,48.1488533 C340.026988,48.1488514 348.47419,45.010252 350.025588,42.1819477 C350.931395,40.5306011 348.533597,39.1351067 345.913548,39.2828827 C344.046171,39.3882066 341.789474,40.8823992 341.789474,40.8823992 L341.789474,30.0078372 C341.789474,25.5852308 338.213045,22 333.779949,22 L318.220051,22 Z M326,41.3417437 C317.793571,41.3417436 311.950996,39.2965834 311.950996,39.2965834 C311.425775,39.1327849 311,39.4438648 311,40 C311,40.5522847 311.428606,41.1271229 311.957532,41.2716996 C311.957532,41.2716996 317.183609,42.9839478 326,42.983948 C334.816391,42.9839482 340.042468,41.2716996 340.042468,41.2716996 C340.571298,41.1216441 341,40.5561352 341,40 C341,39.4477153 340.568536,39.1394738 340.049004,39.2965835 C340.049004,39.2965835 334.206429,41.3417438 326,41.3417437 Z" id="hat_F"></path>
            </g>
        </g>
    </g>
</svg>