<?xml version="1.0" encoding="UTF-8" standalone="no"?>
<svg width="25px" height="56px" viewBox="0 0 25 56" version="1.1" xmlns="http://www.w3.org/2000/svg" xmlns:xlink="http://www.w3.org/1999/xlink" xmlns:sketch="http://www.bohemiancoding.com/sketch/ns">
    <!-- Generator: Sketch 3.1.1 (8761) - http://www.bohemiancoding.com/sketch -->
    <title>highheel_F</title>
    <desc>Created with Sketch.</desc>
    <defs></defs>
    <g id="page-1" stroke="none" stroke-width="1" fill="none" fill-rule="evenodd" sketch:type="MSPage">
        <g id="full-icons" sketch:type="MSLayerGroup" transform="translate(-411.000000, 1.000000)" fill="#FFFFFF">
            <g id="row-1-full-icons" transform="translate(19.000000, -0.500000)" sketch:type="MSShapeGroup">
                <path d="M398.730526,15.7981416 C398.224054,18.5389273 400.886369,27.7613277 397,34.3705709 C392.387206,42.215188 390.381643,52.0000017 395.699826,52 C399.017434,52 407,52 407,52 L407,54.9827271 L409.034119,54.9827271 C409.034119,54.9827271 409.034119,52 409.034119,52 C409.034118,52 411.84017,52 412.947667,52 C417.20612,52 412.947666,35.1586488 412.947666,26.737973 C412.947666,23.6069283 414.617273,17.9703127 415.284331,15.843261 C417.410162,14.196534 416.414719,0.128670884 407,0.128669545 C397.666069,0.128668218 396.697905,13.956134 398.730526,15.7981416 L398.730526,15.7981416 Z M409.052543,24.4083861 C409.052543,26.2052612 409.052543,50.0000004 409.052543,50.0000004 C409.052543,50.0000004 411.118863,50.0000002 411.777944,50 C414.66775,50 410.989816,37.1246567 410.989816,26.103488 C410.989816,23.8616515 411.667559,20.789841 412.339248,18.6598273 C412.497375,18.1583862 409.052543,22.6115109 409.052543,24.4083861 Z M407,24.0821002 C407,23.0169673 404.129048,19.9586291 404.164652,20.1036874 C404.565548,21.7370488 404.725954,23.85145 404.332373,26.6502523 C402.789156,37.624239 391.629433,50 396.055731,50 C398.900295,50 407,50.0000004 407,50.0000004 C407,50.0000004 407,26.9955496 407,24.0821002 Z M407.221169,15.0482171 C402.632361,15.1689751 399.47645,15.9002096 399.47645,15.9002096 C399.213314,15.9553223 399,16.2319336 399,16.5 C399,16.7761424 399.218589,16.9682954 399.496334,16.9288279 C399.496334,16.9288279 404.646244,16.1652296 407.221169,16.1652296 C410.511828,16.1652296 414.510573,16.913809 414.510573,16.913809 C414.780876,16.961411 415,16.7680664 415,16.5 C415,16.2238576 414.794995,15.9365146 414.529594,15.8611884 C414.529594,15.8611884 411.809978,14.927459 407.221169,15.0482171 Z" id="highheel_F"></path>
            </g>
        </g>
    </g>
</svg>