<?xml version="1.0" encoding="UTF-8" standalone="no"?>
<svg width="47px" height="50px" viewBox="0 0 47 50" version="1.1" xmlns="http://www.w3.org/2000/svg" xmlns:xlink="http://www.w3.org/1999/xlink" xmlns:sketch="http://www.bohemiancoding.com/sketch/ns">
    <!-- Generator: Sketch 3.1.1 (8761) - http://www.bohemiancoding.com/sketch -->
    <title>invitation_F</title>
    <desc>Created with Sketch.</desc>
    <defs></defs>
    <g id="page-1" stroke="none" stroke-width="1" fill="none" fill-rule="evenodd" sketch:type="MSPage">
        <g id="full-icons" sketch:type="MSLayerGroup" transform="translate(-2.000000, -201.000000)" fill="#FFFFFF">
            <g id="row-3-full-icons" transform="translate(3.000000, 199.500000)" sketch:type="MSShapeGroup">
                <path d="M19.9243984,5 C21.7897115,3.17533677 23,1.99142351 23,1.99142355 C23,1.99142359 24.2102884,3.17533682 26.0756014,5 L42,5 L42,20.5773661 C44.3800538,22.9055525 46,24.4901961 46,24.4901961 L42,24.4901961 L42,28.2 L46,25 L46,49 L31,37 L39.75,30 L6.25,30 L15,37 L0,49 L0,25 L4,28.2 L4,24.4901961 L0,24.4901961 C0,24.4901961 1.61994622,22.9055525 4,20.5773661 L4,5 L19.9243984,5 L19.9243984,5 Z M17.0096808,37 L-0.205162985,51 L45.794814,51 L28.6713476,37 L17.0096808,37 Z M6,7 L6,28 L40,28 L40,7 L6,7 Z M18.5082041,16 C18.2275307,16 18,16.2319336 18,16.5 C18,16.7761424 18.2266151,17 18.5082041,17 L36.4917959,17 C36.7724693,17 37,16.7680664 37,16.5 C37,16.2238576 36.7733849,16 36.4917959,16 L18.5082041,16 Z M24.493741,13 C24.2210554,13 24,13.2319336 24,13.5 C24,13.7761424 24.2256393,14 24.493741,14 L36.506259,14 C36.7789446,14 37,13.7680664 37,13.5 C37,13.2238576 36.7743607,13 36.506259,13 L24.493741,13 Z M32.4976988,23 C32.2228273,23 32,23.2319336 32,23.5 C32,23.7761424 32.2148438,24 32.4976988,24 L36.5023012,24 C36.7771727,24 37,23.7680664 37,23.5 C37,23.2238576 36.7851562,23 36.5023012,23 L32.4976988,23 Z M13,16.7022231 C13,16.7022229 17.4597485,13.2260333 15.6924321,11.5946645 C13.9251156,9.96329589 13.0000001,13.5284661 13.0000001,13.5284661 C13.0000001,13.5284662 12.1578001,9.85453781 10.3632944,11.5946645 C8.4351564,13.4643738 13,16.7022232 13,16.7022231 Z" id="invitation_F"></path>
            </g>
        </g>
    </g>
</svg>