<?xml version="1.0" encoding="UTF-8" standalone="no"?>
<svg width="16px" height="54px" viewBox="0 0 16 54" version="1.1" xmlns="http://www.w3.org/2000/svg" xmlns:xlink="http://www.w3.org/1999/xlink" xmlns:sketch="http://www.bohemiancoding.com/sketch/ns">
    <!-- Generator: Sketch 3.1.1 (8761) - http://www.bohemiancoding.com/sketch -->
    <title>lelo_gigi_F</title>
    <desc>Created with Sketch.</desc>
    <defs></defs>
    <g id="page-1" stroke="none" stroke-width="1" fill="none" fill-rule="evenodd" sketch:type="MSPage">
        <g id="full-icons" sketch:type="MSLayerGroup" transform="translate(-521.000000, -509.000000)" fill="#FFFFFF">
            <g id="row-6-full-icons" transform="translate(4.000000, 509.000000)" sketch:type="MSShapeGroup">
                <path d="M517.754768,43.0994536 C516.419471,48.8412293 518.518394,53.2184258 521.359998,53.2184258 C527.829965,53.2184258 532.344746,41.4686171 532.344746,27.1092129 C532.344746,12.7498087 529.577681,2.34813392 524.656173,0.209947467 C522.579547,-0.692259118 516.815407,7.70019521 518.509422,10.5235526 C519.799,12.6728492 521.427567,12.1202043 522.282692,13.9194965 C523,15.4288044 523.856913,20.7333682 522.282692,30.0187823 C520.708471,39.3041965 519.166447,37.0292326 517.754768,43.0994536 Z M523.099084,34.4968354 C522.388401,36.5264658 521.577761,37.8131691 520.699953,39.8529758 C520.623126,40.0315034 521.498516,41.2879399 521.128057,42.955004 C520.757598,44.6220683 519.081291,45.2941211 519.074316,45.3578301 C518.737835,48.4311714 519.528446,51.2236998 521.763518,51.2236998 C524.149589,51.2236998 528.794816,45.4000981 530.153052,34.4236224 C530.153051,34.4236224 523.113003,34.457085 523.099084,34.4968354 Z M523.676765,30.9200033 C523.676765,30.9200033 523.668422,31.0689969 523.578142,31.5814616 C523.487862,32.0939263 523.487862,32.2707613 523.487862,32.2707613 L530.508756,32.2707613 C530.508756,32.2707613 530.629693,32.1473592 530.697659,31.5814616 C530.765625,31.015564 530.697659,30.9200033 530.697659,30.9200033 L523.676765,30.9200033 Z" id="lelo_gigi_F"></path>
            </g>
        </g>
    </g>
</svg>