<?xml version="1.0" encoding="UTF-8" standalone="no"?>
<svg width="43px" height="52px" viewBox="0 0 43 52" version="1.1" xmlns="http://www.w3.org/2000/svg" xmlns:xlink="http://www.w3.org/1999/xlink" xmlns:sketch="http://www.bohemiancoding.com/sketch/ns">
    <!-- Generator: Sketch 3.1.1 (8761) - http://www.bohemiancoding.com/sketch -->
    <title>lighter_F</title>
    <desc>Created with Sketch.</desc>
    <defs></defs>
    <g id="page-1" stroke="none" stroke-width="1" fill="none" fill-rule="evenodd" sketch:type="MSPage">
        <g id="full-icons" sketch:type="MSLayerGroup" transform="translate(-502.000000, -100.000000)" fill="#FFFFFF">
            <g id="row-2-full-icons" transform="translate(0.000000, 91.500000)" sketch:type="MSShapeGroup">
                <path d="M522.349873,35.2407798 L528.037526,32.0418264 L528.037526,23.9996693 L538.036224,23.9996693 L538.036224,25.5144258 L538.036224,25.5144258 C538.616312,25.1869008 539.286329,25 540,25 C542.209139,25 544,26.7908609 544,29 C544,31.2091391 542.209139,33 540,33 C539.900053,33 539.800962,32.9963343 539.702854,32.98913 L545,36 L545,54.0056959 C545,57.3167544 542.316259,60 539.005696,60 L526.994304,60 C523.683246,60 521,57.3162587 521,54.0056959 L521,38.5263167 L518.359031,40.1765772 C515.554565,41.929002 511.848576,41.080151 510.094245,38.2726346 L503.729177,28.0863966 C501.974584,25.2784597 502.830785,21.5794208 505.640969,19.8234228 L510.729257,16.6439073 L522.349873,35.2407798 L522.349873,35.2407798 Z M536.121934,29.9839977 L536.121934,33.2294388 L541.283103,35.9995365 L524.698825,35.9995365 L530,33.2294388 L530,26 L536.121934,26 L536.121934,28.0160023 C536.042306,28.330798 536,28.6604584 536,29 C536,29.3395416 536.042306,29.669202 536.121934,29.9839977 L536.121934,29.9839977 Z M540,31 C541.10457,31 542,30.1045696 542,29 C542,27.8954304 541.10457,27 540,27 C538.89543,27 538,27.8954304 538,29 C538,30.1045696 538.89543,31 540,31 Z M534.5,34 C534.776142,34 535,33.7761424 535,33.5 C535,33.2238576 534.776142,33 534.5,33 C534.223858,33 534,33.2238576 534,33.5 C534,33.7761424 534.223858,34 534.5,34 Z M531.5,34 C531.776142,34 532,33.7761424 532,33.5 C532,33.2238576 531.776142,33 531.5,33 C531.223858,33 531,33.2238576 531,33.5 C531,33.7761424 531.223858,34 531.5,34 Z M534.5,31 C534.776142,31 535,30.7761424 535,30.5 C535,30.2238576 534.776142,30 534.5,30 C534.223858,30 534,30.2238576 534,30.5 C534,30.7761424 534.223858,31 534.5,31 Z M531.5,31 C531.776142,31 532,30.7761424 532,30.5 C532,30.2238576 531.776142,30 531.5,30 C531.223858,30 531,30.2238576 531,30.5 C531,30.7761424 531.223858,31 531.5,31 Z M534.5,28 C534.776142,28 535,27.7761424 535,27.5 C535,27.2238576 534.776142,27 534.5,27 C534.223858,27 534,27.2238576 534,27.5 C534,27.7761424 534.223858,28 534.5,28 Z M531.5,28 C531.776142,28 532,27.7761424 532,27.5 C532,27.2238576 531.776142,27 531.5,27 C531.223858,27 531,27.2238576 531,27.5 C531,27.7761424 531.223858,28 531.5,28 Z M531,23 C531,23 531.87129,19.0726868 533,19.0726862 C534.12871,19.0726852 535,23 535,23 C535,23 535,17.7239353 535,16 C535,12.1340066 534.10457,9 533,9 C531.89543,9 531,12.1340066 531,16 L531,23 Z" id="lighter_F"></path>
            </g>
        </g>
    </g>
</svg>