<?xml version="1.0" encoding="UTF-8" standalone="no"?>
<svg width="40px" height="50px" viewBox="0 0 40 50" version="1.1" xmlns="http://www.w3.org/2000/svg" xmlns:xlink="http://www.w3.org/1999/xlink" xmlns:sketch="http://www.bohemiancoding.com/sketch/ns">
    <!-- Generator: Sketch 3.1.1 (8761) - http://www.bohemiancoding.com/sketch -->
    <title>light_ball_F</title>
    <desc>Created with Sketch.</desc>
    <defs></defs>
    <g id="page-1" stroke="none" stroke-width="1" fill="none" fill-rule="evenodd" sketch:type="MSPage">
        <g id="full-icons" sketch:type="MSLayerGroup" transform="translate(-9.000000, -401.000000)" fill="#FFFFFF">
            <g id="row-5-line-icons-" transform="translate(9.000000, 395.000000)" sketch:type="MSShapeGroup">
                <path d="M32.9969853,18.9969853 C32.9695019,21.2484119 32.757479,23 32.5,23 C32.242521,23 32.0304981,21.2484119 32.0030147,18.9969853 C29.7515881,18.9695019 28,18.757479 28,18.5 C28,18.242521 29.7515881,18.0304981 32.0030147,18.0030147 C32.0304981,15.7515881 32.242521,14 32.5,14 C32.757479,14 32.9695019,15.7515881 32.9969853,18.0030147 C35.2484119,18.0304981 37,18.242521 37,18.5 C37,18.757479 35.2484119,18.9695019 32.9969853,18.9969853 Z M37.9903846,26.9903846 C37.9448035,28.136292 37.7425748,29 37.5,29 C37.2574252,29 37.0551965,28.136292 37.0096154,26.9903846 C35.863708,26.9448035 35,26.7425748 35,26.5 C35,26.2574252 35.863708,26.0551965 37.0096154,26.0096154 C37.0551965,24.863708 37.2574252,24 37.5,24 C37.7425748,24 37.9448035,24.863708 37.9903846,26.0096154 C39.136292,26.0551965 40,26.2574252 40,26.5 C40,26.7425748 39.136292,26.9448035 37.9903846,26.9903846 L37.9903846,26.9903846 Z M18.6822163,22.0821816 C27.2813877,22.9268687 34,30.1788259 34,39 C34,48.3888412 26.3888412,56 17,56 C7.61115879,56 0,48.3888412 0,39 C0,30.1788259 6.71861232,22.9268687 15.3177837,22.0821816 C15.1166898,21.7702326 15,21.3987435 15,21 C15,20.2597176 15.4021986,19.6133738 16,19.2675644 L16,6 L18,6 L18,19.2675644 C18.5978014,19.6133738 19,20.2597176 19,21 C19,21.3987435 18.8833102,21.7702326 18.6822163,22.0821816 L18.6822163,22.0821816 Z M6.51585919,28.274898 C4.4250196,30.2952607 3.39134556,32.6680111 3.39134556,32.6680111 C3.39134556,32.6680111 4.47200441,31.4229042 5.59964854,30.577171 C6.72729261,29.7314378 7.4085775,29.4025418 7.4085775,29.4025418 C7.4085775,29.4025418 7.90192181,28.4628386 8.67717701,27.47615 C9.4524322,26.4894613 10.6505542,25.3853102 10.6505542,25.3853102 C10.6505542,25.3853102 8.60669905,26.2545356 6.51585919,28.274898 Z M6.27489799,49.4841408 C8.29526065,51.5749804 10.6680111,52.6086544 10.6680111,52.6086544 C10.6680111,52.6086544 9.42290419,51.5279956 8.57717103,50.4003515 C7.7314378,49.2727074 7.40254182,48.5914225 7.40254182,48.5914225 C7.40254182,48.5914225 6.46283859,48.0980782 5.47614998,47.322823 C4.48946135,46.5475678 3.38531017,45.3494458 3.38531017,45.3494458 C3.38531017,45.3494458 4.25453562,47.393301 6.27489799,49.4841408 Z M27.4841408,49.725102 C29.5749804,47.7047393 30.6086544,45.3319889 30.6086544,45.3319889 C30.6086544,45.3319889 29.5279956,46.5770958 28.4003515,47.422829 C27.2727074,48.2685622 26.5914225,48.5974582 26.5914225,48.5974582 C26.5914225,48.5974582 26.0980782,49.5371614 25.322823,50.52385 C24.5475678,51.5105387 23.3494458,52.6146898 23.3494458,52.6146898 C23.3494458,52.6146898 25.393301,51.7454644 27.4841408,49.725102 Z M27.725102,28.5158592 C25.7047393,26.4250196 23.3319889,25.3913456 23.3319889,25.3913456 C23.3319889,25.3913456 24.5770958,26.4720044 25.422829,27.5996485 C26.2685622,28.7272926 26.5974582,29.4085775 26.5974582,29.4085775 C26.5974582,29.4085775 27.5371614,29.9019218 28.52385,30.677177 C29.5105387,31.4524322 30.6146898,32.6505542 30.6146898,32.6505542 C30.6146898,32.6505542 29.7454644,30.606699 27.725102,28.5158592 Z M26.9832153,45.2766724 C27.4675903,43.8391724 27.6550903,42.7297974 27.6550903,42.7297974 C27.6550903,42.7297974 26.2957153,43.1047974 24.7644653,43.3704224 C23.2332153,43.6360474 21.7644653,43.7766724 21.7644653,43.7766724 L20.7332153,49.6672974 C20.7332153,49.6672974 22.1082153,49.4016724 23.3269653,49 C24.5457153,48.5983277 25.8582153,47.8860474 25.8582153,47.8860474 C25.8582153,47.8860474 26.4988404,46.7141724 26.9832153,45.2766724 Z M10.7233276,48.9832153 C12.1608276,49.4675903 13.2702026,49.6550903 13.2702026,49.6550903 C13.2702026,49.6550903 12.8952026,48.2957153 12.6295776,46.7644653 C12.3639526,45.2332153 12.2233276,43.7644653 12.2233276,43.7644653 L6.33270264,42.7332153 C6.33270264,42.7332153 6.59832764,44.1082153 7,45.3269653 C7.40167234,46.5457153 8.11395264,47.8582153 8.11395264,47.8582153 C8.11395264,47.8582153 9.28582763,48.4988404 10.7233276,48.9832153 Z M7.01678467,32.7233276 C6.53240967,34.1608276 6.34490967,35.2702026 6.34490967,35.2702026 C6.34490967,35.2702026 7.70428466,34.8952026 9.23553467,34.6295776 C10.7667847,34.3639526 12.2355347,34.2233276 12.2355347,34.2233276 L13.2667847,28.3327026 C13.2667847,28.3327026 11.8917847,28.5983276 10.6730347,29 C9.45428466,29.4016723 8.14178467,30.1139526 8.14178467,30.1139526 C8.14178467,30.1139526 7.50115965,31.2858276 7.01678467,32.7233276 Z M23.2766724,29.0167847 C21.8391724,28.5324097 20.7297974,28.3449097 20.7297974,28.3449097 C20.7297974,28.3449097 21.1047974,29.7042847 21.3704224,31.2355347 C21.6360474,32.7667847 21.7766724,34.2355347 21.7766724,34.2355347 L27.6672974,35.2667847 C27.6672974,35.2667847 27.4016724,33.8917847 27,32.6730347 C26.5983277,31.4542847 25.8860474,30.1417847 25.8860474,30.1417847 C25.8860474,30.1417847 24.7141724,29.5011596 23.2766724,29.0167847 Z M14.7004395,27.125 C14.7004395,27.125 15.8750273,27.002132 17.0191885,27.002132 C18.1633498,27.002132 19.3098146,27.125 19.3098146,27.125 C19.3098146,27.125 18.1580585,24 17,23.9999999 C15.8419415,23.9999998 14.7004395,27.125 14.7004395,27.125 Z M19.2944946,50.8691406 C19.2944946,50.8691406 18.0818078,51.0342363 17.015564,51.015625 C15.9493201,50.9970137 14.7007446,50.9003906 14.7007446,50.9003906 C14.7007446,50.9003906 15.8438651,53.9798207 16.999939,54 C18.1560129,54.0201793 19.2944946,50.8691406 19.2944946,50.8691406 Z M5.11395264,41.302002 C5.11395264,41.302002 4.98895267,40.0598145 4.98895264,38.9934082 C4.98895258,37.927002 5.11395264,36.708252 5.11395264,36.708252 C5.11395264,36.708252 2.00390625,37.8371582 2.00390625,38.9934082 C2.00390628,40.1496582 5.11395264,41.302002 5.11395264,41.302002 Z M28.8860474,36.697998 C28.8860474,36.697998 29.0110473,37.9401855 29.0110474,39.0065918 C29.0110474,40.072998 28.8860474,41.291748 28.8860474,41.291748 C28.8860474,41.291748 31.9960938,40.1628418 31.9960938,39.0065918 C31.9960937,37.8503418 28.8860474,36.697998 28.8860474,36.697998 Z M16.9960327,35.0044556 C14.8475952,35.0044552 13.1600952,35.151062 13.1600952,35.151062 C13.1600952,35.151062 13.0038451,36.322937 13.0038452,39.0699463 C13.0038454,41.8169556 13.1600952,42.838562 13.1600952,42.838562 C13.1600952,42.838562 14.4257202,43.0044552 16.9960327,43.0044556 C19.5663452,43.004456 20.8475952,42.838562 20.8475952,42.838562 C20.8475952,42.838562 21.0038452,41.5357056 21.0038452,39.0044556 C21.0038451,36.4732056 20.8475952,35.151062 20.8475952,35.151062 C20.8475952,35.151062 19.1444702,35.0044559 16.9960327,35.0044556 Z" id="light_ball_F"></path>
            </g>
        </g>
    </g>
</svg>