<?xml version="1.0" encoding="UTF-8" standalone="no"?>
<svg width="36px" height="49px" viewBox="0 0 36 49" version="1.1" xmlns="http://www.w3.org/2000/svg" xmlns:xlink="http://www.w3.org/1999/xlink" xmlns:sketch="http://www.bohemiancoding.com/sketch/ns">
    <!-- Generator: Sketch 3.1.1 (8761) - http://www.bohemiancoding.com/sketch -->
    <title>lingerie_F</title>
    <desc>Created with Sketch.</desc>
    <defs></defs>
    <g id="page-1" stroke="none" stroke-width="1" fill="none" fill-rule="evenodd" sketch:type="MSPage">
        <g id="full-icons" sketch:type="MSLayerGroup" transform="translate(-109.000000, -512.000000)" fill="#FFFFFF">
            <g id="row-6-full-icons" transform="translate(4.000000, 509.000000)" sketch:type="MSShapeGroup">
                <path d="M108.190702,38.9827519 C107.347486,43.5585807 106.444665,48.3779852 106.444665,48.3779852 C106.444665,48.3779852 107.138421,48.614864 110.091457,44.6206852 C110.267043,44.3831924 110.697418,42.5245303 111.193427,40.2412829 L111.193427,40.2412829 C110.615789,40.2010117 110.25,40.2010117 110.25,40.2010117 L110.25,38.7368421 L111.517315,38.7368421 C112.336683,34.905693 113.220163,30.6452624 113.407677,30.7638268 C113.597875,30.8840883 112.892104,35.1422117 112.258414,38.7368421 L118.561131,38.7368421 C120.152381,32.497485 121.822673,23.9333496 121.822673,23.9333496 C121.822673,23.9333496 114.232856,25.6501595 112.513478,25.6501595 C110.7941,25.6501595 110.347678,25.0263296 110.347678,25.0263296 C110.347678,25.0263296 110.118179,28.162828 109.429679,32.1408262 C109.189312,33.5296126 108.752956,35.9277284 108.286754,38.461157 C108.644708,38.2200476 109.242905,38 109.514782,38 C109.916304,38.0000001 110.25,38.7988703 110.25,38.7988703 L110.25,40.4028867 C110.25,40.4028867 110.07511,41.7253759 109.863636,41.6832239 C109.652163,41.6410718 108.375,40.9001727 108.375,40.5320126 C108.375,40.1638524 110.25,39.6058943 110.25,39.6058943 C110.25,39.6058943 108.733844,39.2769902 108.190702,38.9827519 Z M137.622468,38.3411548 C137.276841,36.260763 136.945757,34.2149781 136.708329,32.6336157 C136.34211,30.1944595 135.800601,24.9179242 135.800601,24.9179242 C135.800601,24.9179242 134.672271,25.6093111 133.012578,25.4366262 C130.933295,25.2202843 124.194644,23.6860071 124.194644,23.6860071 C124.194644,23.6860071 126.524038,32.7254442 128.025932,38.7368421 L128.025932,38.7368421 L134.008329,38.7368421 C133.525788,35.6202807 132.915908,33.2986447 133.22948,32.7927128 C133.357901,32.5855111 133.921777,35.6991065 134.539422,38.7368421 L135.741806,38.7368421 L135.741806,38.7270379 C135.741806,38.7270379 136.08593,38.0000001 136.5,38 C136.746427,38 137.25282,38.1547048 137.622468,38.3411548 L137.622468,38.3411548 Z M137.724633,38.9546199 C138.483995,43.5036456 139.27566,48.0164257 139.27566,48.0164257 C139.27566,48.0164257 136.757948,45.4680682 135.931732,44.1461222 C135.640812,43.6806503 135.248417,42.0890716 134.851978,40.2384219 C135.361312,40.2038701 135.695844,40.2012301 135.743993,40.2010283 C135.765092,40.3360792 135.936146,41.3879398 136.140244,41.3520379 C136.358325,41.3136761 137.6754,40.6393967 137.6754,40.3043406 C137.6754,39.9820401 135.886229,39.4999094 135.75,39.4636668 L135.75,39.4599156 C135.86274,39.4380786 137.11047,39.1936582 137.724633,38.9546199 L137.724633,38.9546199 Z M118.245226,43.1931555 C118.120647,43.5823839 117.99331,43.9608971 117.863121,44.3264999 C116.566534,47.9676363 114.419612,50.1724586 113,50.1724586 C110.539327,50.172459 111.026856,44.9831688 110.33545,45.8474274 C106.772212,50.3014824 105.130146,50.1724586 105.130146,50.1724586 C105.130146,50.1724586 110.114679,26.1753803 109.261175,24.4581299 C107.26837,20.448601 110.638403,12.4344849 112.984754,11.1697608 C112.857797,11.065312 111.972577,9.26335207 111.640625,9.31176758 C111.282648,9.36397881 110.640625,11.3898927 110.96875,11.6086426 C111.296875,11.8273926 113,11.0671718 113,11.1613159 L113.000596,11.1613159 C113.000397,11.1614208 113.000198,11.1615258 112.999999,11.1616308 C113,11.1615265 113,11.1614215 113,11.1613159 C113,8.99927138 113,3.50268864 113,3.50268864 C113,3.23133224 113.223858,3 113.5,3 C113.768066,3 114,3.22384285 114,3.49996701 C114,3.49996701 114,8.7349214 114,11.0992286 L114,11.0992289 C114.006037,11.1017432 114.012093,11.1043033 114.018169,11.106909 C114.116459,10.7900082 114.586713,9.20073789 114.764893,9.09375 C115.167442,8.85203872 116.078125,11.0930176 115.921875,11.3273926 C115.800503,11.5094516 114.708041,11.3084593 114.226381,11.2096593 C116.99459,12.7404113 123.028014,22.1357632 123.028014,22.1357632 C123.028014,22.1357632 128.9766,12.4646781 131.840037,11.1478207 L131.840037,11.1478207 C131.26372,11.1426708 129.321541,11.0988188 129.206909,10.7421875 C129.066284,10.3046875 130.097534,8.38163853 130.535034,8.3671875 C130.939873,8.35381532 131.675307,10.7421297 131.944396,11.1030079 C131.963075,11.0955768 131.981611,11.0885312 132,11.0818766 L132,3.50972126 C132,3.21795102 132.223858,3 132.5,3 C132.768066,3 133,3.22405275 133,3.50043583 L133,11 C133,11 133.918819,8.83754686 134.285034,8.8203125 C134.749537,8.79845275 135.405542,10.5336804 135.405542,10.5336804 C135.516215,10.796974 135.373305,11.0128137 135.096704,11.0286202 L133.025402,11.1469859 C135.507456,12.2879155 138.602183,19.7977318 136.845476,24.0380573 C136.397912,25.1183842 139.788243,47.4478035 140.589058,49.6910286 C141.389874,51.9342537 136.234063,45.8474274 135.805782,45.8474274 C134.60456,45.8474275 135.642695,49.6910286 133,49.6910286 C131.316832,49.6910286 129.370147,47.9203601 128.433893,44.3264999 C128.304736,43.8307205 128.172506,43.3113126 128.037927,42.7737273 C126.214104,45.1773605 123.773392,52 123.773392,52 L122.282999,52 C122.282999,52 119.998453,45.8712962 118.245226,43.1931555 L118.245226,43.1931555 Z M119.472996,38.7368421 C121.123323,31.9347098 122.189247,24.4282321 123.028014,24.4581299 C123.733628,24.4832815 125.436562,31.9575101 127.055693,38.7368421 L119.472996,38.7368421 L119.472996,38.7368421 Z M111.978146,40.3114851 C111.632588,42.2356756 111.362308,43.6813602 111.362308,43.6813602 C111.362308,43.6813602 111.536631,48.4062061 112.63316,49.0410381 C113.719386,49.6699061 115.786798,48.0226859 117.564669,42.3255167 C116.204976,40.9939837 113.676344,40.4969886 111.978146,40.3114851 L111.978146,40.3114851 Z M128.827794,41.9883783 C128.988497,42.6540984 129.112391,43.1824616 129.187151,43.5263566 C129.835528,46.5088928 131.505306,49.018064 133.110404,48.6418865 C133.882719,48.4608834 134.496277,47.0740537 134.513907,44.8417028 C134.526378,43.2625857 134.403141,41.7191338 134.226009,40.2908223 C132.682508,40.4443943 130.316437,40.8605676 128.827794,41.9883783 L128.827794,41.9883783 Z" id="lingerie_F"></path>
            </g>
        </g>
    </g>
</svg>