<?xml version="1.0" encoding="UTF-8" standalone="no"?>
<svg width="36px" height="50px" viewBox="0 0 36 50" version="1.1" xmlns="http://www.w3.org/2000/svg" xmlns:xlink="http://www.w3.org/1999/xlink" xmlns:sketch="http://www.bohemiancoding.com/sketch/ns">
    <!-- Generator: Sketch 3.1.1 (8761) - http://www.bohemiancoding.com/sketch -->
    <title>martini_F</title>
    <desc>Created with Sketch.</desc>
    <defs></defs>
    <g id="page-1" stroke="none" stroke-width="1" fill="none" fill-rule="evenodd" sketch:type="MSPage">
        <g id="full-icons" sketch:type="MSLayerGroup" transform="translate(-108.000000, -301.000000)" fill="#FFFFFF">
            <g id="row-4-full-icons" transform="translate(13.000000, 295.000000)" sketch:type="MSShapeGroup">
                <path d="M118.681732,18.5320767 C118.885212,18.7160502 119.069684,18.9206553 119.231848,19.1425929 C121.81492,18.8699836 123.181338,18.5131197 123.181338,18.5131197 L119.96289,22.0471434 C119.737572,23.6943911 118.509363,25.0222545 116.913867,25.3951291 L116.913867,25.3951293 L113.013071,29.6784058 L102.889977,18.5542287 C102.889977,18.5542287 106.287067,19.4003992 112.567239,19.4454913 C113.26628,18.2800126 114.542049,17.5 116,17.5 C116.72228,17.5 117.399848,17.6914377 117.984731,18.0263411 C117.99374,17.9237836 118.033998,17.8233722 118.107535,17.7417013 L120.125972,15.5 L98.8375662,15.5 L113,30.6695557 L127.196941,15.5 L121.471604,15.5 L118.850679,18.4108319 C118.802508,18.4643312 118.744621,18.5048757 118.681732,18.5320767 L118.681732,18.5320767 Z M123.272412,13.5 L131,13.5 L113.9,32.5 L113.9,32.5 L114.022539,32.5 L114.022539,51.2600861 C114.022539,51.2600861 115.711434,52.1436398 117.635935,52.6486759 C120.590294,53.4239722 124.109358,53.9972493 123,54.5 C121.167995,55.3302479 105.104563,55.3302479 103,54.5 C101.798499,54.0260091 105.622941,53.40996 108.511378,52.6486759 C110.682362,52.0764857 112.012839,51.2600861 112.012839,51.2600861 L112.012839,32.5 L112.1,32.5 L95,13.5 L121.92678,13.5 L128.149321,6.58916813 C128.330128,6.38836136 128.647831,6.37006608 128.853045,6.5548414 C129.052257,6.73421283 129.075908,7.05456529 128.892465,7.25829874 L123.272412,13.5 L123.272412,13.5 Z M116,24.5 C117.656854,24.5 119,23.1568543 119,21.5 C119,19.8431457 117.656854,18.5 116,18.5 C114.343146,18.5 113,19.8431457 113,21.5 C113,23.1568543 114.343146,24.5 116,24.5 Z" id="martini_F"></path>
            </g>
        </g>
    </g>
</svg>