<?xml version="1.0" encoding="UTF-8" standalone="no"?>
<svg width="43px" height="49px" viewBox="0 0 43 49" version="1.1" xmlns="http://www.w3.org/2000/svg" xmlns:xlink="http://www.w3.org/1999/xlink" xmlns:sketch="http://www.bohemiancoding.com/sketch/ns">
    <!-- Generator: Sketch 3.1.1 (8761) - http://www.bohemiancoding.com/sketch -->
    <title>mask_F</title>
    <desc>Created with Sketch.</desc>
    <defs></defs>
    <g id="page-1" stroke="none" stroke-width="1" fill="none" fill-rule="evenodd" sketch:type="MSPage">
        <g id="full-icons" sketch:type="MSLayerGroup" transform="translate(-302.000000, -4.000000)" fill="#FFFFFF">
            <g id="row-1-full-icons" transform="translate(19.000000, -0.500000)" sketch:type="MSShapeGroup">
                <path d="M290.693755,16.8450493 C291.089067,16.9874648 291.534714,17.0729242 292.035007,17.0729241 C295.368341,17.0729241 298.961895,14.0000006 307,14 C315.020176,14 317.028145,17.0729245 322.042217,17.0729241 C323.361478,17.0729241 326,14 326,14 C326,14 326,25.6421862 322.571785,29.0867605 C319.143571,32.5313351 313.333333,34 307,34 C300.666667,34 293.902332,32.8502769 290.951166,29.0867605 C290.057449,27.9470354 289.434381,26.1140141 289,24.1121288 L289,51.9911502 C289,52.5586968 288.552285,53 288,53 C287.443865,53 287,52.5483226 287,51.9911502 L287,17.0088498 C287,16.8598985 287.030838,16.7196426 287.086311,16.5937777 L287.086311,16.5937777 C286.32073,15.8657875 285.205479,14.6648769 284.570965,13.3330337 C283.538379,11.1656377 283.778937,8.65149016 283.778937,8.65149016 C283.778937,8.65149016 286.055611,10.4800489 287.088198,12.647445 C287.645322,13.8168473 287.840285,15.0848872 287.901707,16.0047062 C287.934045,16.0015915 287.966834,16 288,16 C288.017947,16 288.035776,16.0004704 288.053478,16.0013994 L288.053478,16.0013994 C288,14.7811922 288,14 288,14 C288,14 288.061614,14.1829302 288.198349,14.4595254 C288.311941,13.3185404 288.561805,11.8959322 289.099113,10.5660784 C290.253623,7.70863252 292.73523,5.2794219 292.73523,5.2794219 C292.73523,5.2794219 292.877527,8.55532896 291.723017,11.4127748 C291.023531,13.1440232 289.848011,14.721662 289.030057,15.6963174 L289.030057,15.6963174 C289.122997,15.7998318 289.222958,15.9023678 289.330231,16.0020185 L289.330231,16.0020185 C290.033455,14.7239765 291.481145,12.3758575 293.589945,10.3380812 C296.669704,7.36204725 301.159518,5.04793187 301.159518,5.04793187 C301.159518,5.04793187 299.88609,7.75870609 297.548951,10.4167622 C298.484333,9.64242595 300.074249,8.48348406 301.887533,7.82351911 C304.783547,6.76948276 308.249322,6.9882168 308.249322,6.9882168 C308.249322,6.9882168 305.910064,9.28597387 303.014049,10.3400103 C300.47559,11.2639107 297.509367,11.2322422 296.815616,11.2103388 C296.672958,11.3570233 296.527031,11.5026757 296.377873,11.6468109 C294.194455,13.7566924 291.31849,15.5414733 289.829381,16.4016485 C289.953381,16.48627 290.084567,16.5656969 290.223201,16.6382159 C291.158061,15.8787987 293.254559,14.2741346 295.580421,13.1397359 C298.7262,11.6054369 302.291558,10.931402 302.291558,10.931402 C302.291558,10.931402 299.555782,13.3063305 296.410002,14.8406295 C294.283668,15.8777119 291.970011,16.5307236 290.693755,16.8450493 Z M316.539909,25.7356177 C319.792735,25.1033323 321.897772,21.8543749 321.897772,21.8543749 C321.897772,21.8543749 318.712918,19.5481543 315.460091,20.1804398 C312.207265,20.8127252 310.118245,24.1440828 310.118245,24.1440828 C310.118245,24.1440828 313.287082,26.3679031 316.539909,25.7356177 Z M297.460091,25.7356177 C300.712918,26.3679031 303.881755,24.1440828 303.881755,24.1440828 C303.881755,24.1440828 301.792735,20.8127252 298.539909,20.1804398 C295.287082,19.5481543 292.102228,21.8543749 292.102228,21.8543749 C292.102228,21.8543749 294.207265,25.1033323 297.460091,25.7356177 Z" id="mask_F"></path>
            </g>
        </g>
    </g>
</svg>