<?xml version="1.0" encoding="UTF-8" standalone="no"?>
<svg width="22px" height="50px" viewBox="0 0 22 50" version="1.1" xmlns="http://www.w3.org/2000/svg" xmlns:xlink="http://www.w3.org/1999/xlink" xmlns:sketch="http://www.bohemiancoding.com/sketch/ns">
    <!-- Generator: Sketch 3.1.1 (8761) - http://www.bohemiancoding.com/sketch -->
    <title>microphone_F</title>
    <desc>Created with Sketch.</desc>
    <defs></defs>
    <g id="page-1" stroke="none" stroke-width="1" fill="none" fill-rule="evenodd" sketch:type="MSPage">
        <g id="full-icons" sketch:type="MSLayerGroup" transform="translate(-214.000000, -404.000000)" fill="#FFFFFF">
            <g id="row-5-line-icons-" transform="translate(9.000000, 395.000000)" sketch:type="MSShapeGroup">
                <path d="M220.519879,42.8553518 C224.211588,42.1452284 227,38.9045839 227,35.0070286 L227,16.9929714 C227,13.0993679 224.212046,9.85600505 220.520533,9.14491971 C220.80897,9.3203091 221,9.63756037 221,9.99980749 L221,13.0001925 C221,13.5562834 220.552285,14 220,14 C219.443865,14 219,13.5523709 219,13.0001925 L219,9.99980749 C219,9.53453965 219.313413,9.14793674 219.739259,9.03406454 L219.739259,9.03406454 C219.49429,9.01152187 219.246124,9 218.995261,9 L213.004739,9 C212.75393,9 212.505815,9.01150431 212.260896,9.03401442 L212.260896,9.03401442 C212.688718,9.14829914 213,9.53739308 213,9.99980749 L213,13.0001925 C213,13.5562834 212.552285,14 212,14 C211.443865,14 211,13.5523709 211,13.0001925 L211,9.99980749 C211,9.63543882 211.192217,9.31931569 211.480121,9.14464819 C207.788412,9.85477162 205,13.0954161 205,16.9929714 L205,35.0070286 C205,38.9006321 207.787954,42.1439949 211.479467,42.8550803 L211.479467,42.8550803 C211.19103,42.6796909 211,42.3624396 211,42.0001925 L211,38.9998075 C211,38.4437166 211.447715,38 212,38 C212.556135,38 213,38.4476291 213,38.9998075 L213,42.0001925 C213,42.4654604 212.686587,42.8520633 212.260741,42.9659355 C212.50571,42.9884781 212.753876,43 213.004739,43 L218.995261,43 C219.24607,43 219.494185,42.9884957 219.739104,42.9659856 C219.311282,42.8517009 219,42.4626069 219,42.0001925 L219,38.9998075 C219,38.4437166 219.447715,38 220,38 C220.556135,38 221,38.4476291 221,38.9998075 L221,42.0001925 C221,42.3645612 220.807783,42.6806843 220.519879,42.8553518 L220.519879,42.8553518 Z M218.997545,17 C218.446616,17 218,17.4438648 218,18 C218,18.5522847 218.446311,19 218.997545,19 L227,19 L227,17 L218.997545,17 Z M218.997545,21 C218.446616,21 218,21.4438648 218,22 C218,22.5522847 218.446311,23 218.997545,23 L227,23 L227,21 L218.997545,21 Z M218.997545,25 C218.446616,25 218,25.4438648 218,26 C218,26.5522847 218.446311,27 218.997545,27 L227,27 L227,25 L218.997545,25 Z M218.997545,29 C218.446616,29 218,29.4438648 218,30 C218,30.5522847 218.446311,31 218.997545,31 L227,31 L227,29 L218.997545,29 Z M218.997545,33 C218.446616,33 218,33.4438648 218,34 C218,34.5522847 218.446311,35 218.997545,35 L227,35 L227,33 L218.997545,33 Z M205,17 L205,19 L213.002455,19 C213.553384,19 214,18.5561352 214,18 C214,17.4477153 213.553689,17 213.002455,17 L205,17 Z M205,21 L205,23 L213.002455,23 C213.553384,23 214,22.5561352 214,22 C214,21.4477153 213.553689,21 213.002455,21 L205,21 Z M205,25 L205,27 L213.002455,27 C213.553384,27 214,26.5561352 214,26 C214,25.4477153 213.553689,25 213.002455,25 L205,25 Z M205,29 L205,31 L213.002455,31 C213.553384,31 214,30.5561352 214,30 C214,29.4477153 213.553689,29 213.002455,29 L205,29 Z M205,33 L205,35 L213.002455,35 C213.553384,35 214,34.5561352 214,34 C214,33.4477153 213.553689,33 213.002455,33 L205,33 Z M216,9 C215.447715,9 215,9.44371665 215,9.99980749 L215,13.0001925 C215,13.5523709 215.443865,14 216,14 C216.552285,14 217,13.5562834 217,13.0001925 L217,9.99980749 C217,9.44762906 216.556135,9 216,9 Z M216,38 C215.447715,38 215,38.4437166 215,38.9998075 L215,42.0001925 C215,42.5523709 215.443865,43 216,43 C216.552285,43 217,42.5562834 217,42.0001925 L217,38.9998075 C217,38.4476291 216.556135,38 216,38 Z M213,50 L213,59 L219,59 L219,50 L213,50 Z M213,43 L213,46 L219,46 L219,43 L213,43 Z M215,46 L215,50 L217,50 L217,46 L215,46 Z" id="microphone_F"></path>
            </g>
        </g>
    </g>
</svg>