<?xml version="1.0" encoding="UTF-8" standalone="no"?>
<svg width="34px" height="47px" viewBox="0 0 34 47" version="1.1" xmlns="http://www.w3.org/2000/svg" xmlns:xlink="http://www.w3.org/1999/xlink" xmlns:sketch="http://www.bohemiancoding.com/sketch/ns">
    <!-- Generator: Sketch 3.1.1 (8761) - http://www.bohemiancoding.com/sketch -->
    <title>music_F</title>
    <desc>Created with Sketch.</desc>
    <defs></defs>
    <g id="page-1" stroke="none" stroke-width="1" fill="none" fill-rule="evenodd" sketch:type="MSPage">
        <g id="full-icons" sketch:type="MSLayerGroup" transform="translate(-105.000000, -203.000000)" fill="#FFFFFF">
            <g id="row-3-full-icons" transform="translate(3.000000, 199.500000)" sketch:type="MSShapeGroup">
                <path d="M135.987377,34.4458669 L136,34.4458669 L136,8.97293344 L136,3.5 L110,13.4458669 L110,18.4458669 L110,41.7781449 L110,41.7781449 C109.164339,41.6964077 108.125606,41.8746488 107,42.3440554 C104.238576,43.4956401 102,45.9635435 102,47.8562722 C102,49.749001 104.238576,50.3498168 107,49.1982321 C109.761424,48.0466474 112,45.578744 112,43.6860153 C112,43.6034975 111.995745,43.5234353 111.987377,43.4458669 L112,43.4458669 L112,22.6808002 L112,22.6808002 L134,14.2650667 L134,14.2650667 L134,32.7781449 C133.164339,32.6964077 132.125606,32.8746488 131,33.3440554 C128.238576,34.4956401 126,36.9635435 126,38.8562722 C126,40.749001 128.238576,41.3498168 131,40.1982321 C133.761424,39.0466474 136,36.578744 136,34.6860153 C136,34.6034975 135.995745,34.5234353 135.987377,34.4458669 Z M134,10.0545917 L112.055412,18.5620991 L112.055412,21.0402987 L134,12.6260619 L134,10.0545917 L134,10.0545917 Z" id="music_F"></path>
            </g>
        </g>
    </g>
</svg>