<?xml version="1.0" encoding="UTF-8" standalone="no"?>
<svg width="55px" height="16px" viewBox="0 0 55 16" version="1.1" xmlns="http://www.w3.org/2000/svg" xmlns:xlink="http://www.w3.org/1999/xlink" xmlns:sketch="http://www.bohemiancoding.com/sketch/ns">
    <!-- Generator: Sketch 3.1.1 (8761) - http://www.bohemiancoding.com/sketch -->
    <title>mustache_F</title>
    <desc>Created with Sketch.</desc>
    <defs></defs>
    <g id="page-1" stroke="none" stroke-width="1" fill="none" fill-rule="evenodd" sketch:type="MSPage">
        <g id="full-icons" sketch:type="MSLayerGroup" transform="translate(-199.000000, -119.000000)" fill="#FFFFFF">
            <g id="row-2-full-icons" transform="translate(0.000000, 91.500000)" sketch:type="MSShapeGroup">
                <path d="M238,43.3725061 C253.203127,43.3725052 253.203127,28 253.203127,28 C253.203127,28 248.217383,34 244.292955,34 C240.368527,34 237.111959,27.9999996 232.111959,28 C227.111959,28.0000004 226,30.6862913 226,34 C226,37.3137087 227,43.3725071 238,43.3725061 Z M214.089605,43 C199,42.9999991 199,28 199,28 C199,28 203.948515,33.8546082 207.843639,33.8546082 C211.738763,33.8546082 214.971014,27.9999996 219.933679,28 C224.896344,28.0000004 226,30.6211972 226,33.8546082 C226,37.0880191 225.007467,43.0000009 214.089605,43 Z" id="mustache_F"></path>
            </g>
        </g>
    </g>
</svg>