<?xml version="1.0" encoding="UTF-8" standalone="no"?>
<svg width="39px" height="46px" viewBox="0 0 39 46" version="1.1" xmlns="http://www.w3.org/2000/svg" xmlns:xlink="http://www.w3.org/1999/xlink" xmlns:sketch="http://www.bohemiancoding.com/sketch/ns">
    <!-- Generator: Sketch 3.1.1 (8761) - http://www.bohemiancoding.com/sketch -->
    <title>party_hat_F</title>
    <desc>Created with Sketch.</desc>
    <defs></defs>
    <g id="page-1" stroke="none" stroke-width="1" fill="none" fill-rule="evenodd" sketch:type="MSPage">
        <g id="full-icons" sketch:type="MSLayerGroup" transform="translate(-305.000000, -204.000000)" fill="#FFFFFF">
            <g id="row-3-full-icons" transform="translate(3.000000, 199.500000)" sketch:type="MSShapeGroup">
                <path d="M320.401693,24.9585337 L315,10 L302,46 C302,46 305,50.0230736 315,50.0230713 C325,50.0230675 328,46 328,46 L326.492956,41.8266484 C326.693521,42.3613293 326.809382,42.6692613 326.809382,42.6692615 C333.392203,44.9365263 336.662272,43.2495764 336.662272,43.2495764 L340.759311,5.19416578 C340.759311,5.19416578 327.189916,18.3644069 320.405219,24.9495271 C320.403516,24.9511804 320.402343,24.9541902 320.401692,24.9585321 L320.401693,24.9585337 Z M315,20.4189472 C313.965197,20.8867393 312.478331,20.9830829 312.544875,20.7988078 C313.36325,18.5325386 315,14 315,14 L316.807965,19.006673 C316.807965,19.0066729 316.034803,19.9511552 315,20.4189472 Z M315,31.5929259 C311.911227,32.072687 308.714089,31.4071391 308.793025,31.1885449 C309.3175,29.7361529 309.989194,27.9032627 310.513669,26.4508707 C310.595204,26.2250814 312.510165,26.9225908 315.182769,26.2653931 C317.855373,25.6081953 318.76428,24.6917114 318.868958,24.6917114 C319.392875,26.1425585 319.898997,27.6081877 320.445649,29.0863006 C320.505181,29.2472728 317.856824,31.149192 315,31.5929259 Z M315,48.2581787 C306.310609,48.2995262 303.784176,45.0592045 303.814393,44.9755267 C304.447895,43.2212144 305.783406,39.5229476 305.85053,39.3374628 C305.889821,39.2288903 310.049106,41.0854794 315,40.6507705 C319.950894,40.2160617 323.574456,37.8624509 323.574456,37.8624509 C324.447935,40.2813117 325.327121,42.5981808 326.200598,45.0170416 C326.275202,45.2236349 323.689391,48.2168312 315,48.2581787 Z M335.5,18.25 L333.442752,19.3315596 L333.835651,17.0407798 L332.171302,15.4184406 L334.471376,15.08422 L335.5,13 L336.528625,15.0842205 L338.828698,15.4184423 L337.164349,17.0407802 L337.557248,19.3315596 L335.5,18.25 Z M329.946272,26.2236001 L328.813904,28.9890382 L327.307682,26.4081083 L324.327673,26.1857298 L326.316835,23.9556752 L325.607456,21.0528 L328.343049,22.2554808 L330.884639,20.6837848 L330.586164,23.6571358 L332.866331,25.5886489 L329.946272,26.2236001 Z M332.5,38.5980763 L330.37283,41.9671314 L328.992608,38.2294346 L325.131114,37.2474703 L328.259364,34.7797894 L328,30.8038475 L331.313586,33.0164344 L335.014786,31.5411331 L333.934443,35.3762658 L336.481273,38.4404203 L332.5,38.5980763 Z" id="party_hat_F"></path>
            </g>
        </g>
    </g>
</svg>