<?xml version="1.0" encoding="UTF-8" standalone="no"?>
<svg width="55px" height="50px" viewBox="0 0 55 50" version="1.1" xmlns="http://www.w3.org/2000/svg" xmlns:xlink="http://www.w3.org/1999/xlink" xmlns:sketch="http://www.bohemiancoding.com/sketch/ns">
    <!-- Generator: Sketch 3.1.1 (8761) - http://www.bohemiancoding.com/sketch -->
    <title>scarf_F</title>
    <desc>Created with Sketch.</desc>
    <defs></defs>
    <g id="page-1" stroke="none" stroke-width="1" fill="none" fill-rule="evenodd" sketch:type="MSPage">
        <g id="full-icons" sketch:type="MSLayerGroup" transform="translate(-398.000000, -101.000000)" fill="#FFFFFF">
            <g id="row-2-full-icons" transform="translate(0.000000, 91.500000)" sketch:type="MSShapeGroup">
                <path d="M429.437272,8.99591616 L428.029697,8.99591616 L428.029697,28.0307539 L421.011185,28.0307539 L410,40.0253887 L410,59 L422,59 L422,40.0253892 L428.029697,40.0253885 L440.050369,28.0307539 L440.050369,8.99591616 L439.565453,8.99591616 L439.565453,8.99591616 C439.810666,8.9650406 440,8.76243211 440,8.50230122 L440,4.49769878 C440,4.22282734 439.768066,4 439.5,4 C439.223858,4 439,4.21484375 439,4.49769878 L439,8.50230122 C439,8.75546843 439.196752,8.96448599 439.437272,8.99591616 L437.565453,8.99591616 C437.810666,8.9650406 438,8.76243211 438,8.50230122 L438,4.49769878 C438,4.22282734 437.768066,4 437.5,4 C437.223858,4 437,4.21484375 437,4.49769878 L437,8.50230122 C437,8.75546843 437.196752,8.96448599 437.437272,8.99591616 L437.437272,8.99591616 L435.565453,8.99591616 L435.565453,8.99591616 C435.810666,8.9650406 436,8.76243211 436,8.50230122 L436,4.49769878 C436,4.22282734 435.768066,4 435.5,4 C435.223858,4 435,4.21484375 435,4.49769878 L435,8.50230122 C435,8.75546843 435.196752,8.96448599 435.437272,8.99591616 L433.565453,8.99591616 C433.810666,8.9650406 434,8.76243211 434,8.50230122 L434,4.49769878 C434,4.22282734 433.768066,4 433.5,4 C433.223858,4 433,4.21484375 433,4.49769878 L433,8.50230122 C433,8.75546843 433.196752,8.96448599 433.437272,8.99591616 L433.437272,8.99591616 L431.565453,8.99591616 L431.565453,8.99591616 C431.810666,8.9650406 432,8.76243211 432,8.50230122 L432,4.49769878 C432,4.22282734 431.768066,4 431.5,4 C431.223858,4 431,4.21484375 431,4.49769878 L431,8.50230122 C431,8.75546843 431.196752,8.96448599 431.437272,8.99591616 L429.565453,8.99591616 C429.810666,8.9650406 430,8.76243211 430,8.50230122 L430,4.49769878 C430,4.22282734 429.768066,4 429.5,4 C429.223858,4 429,4.21484375 429,4.49769878 L429,8.50230122 C429,8.75546843 429.196752,8.96448599 429.437272,8.99591616 Z M422,30 L422,38 L427.275049,38 L435.213746,30 L422,30 Z M421.5,59 C421.223858,59 421,59.2148438 421,59.4976988 L421,63.5023012 C421,63.7771727 421.231934,64 421.5,64 C421.776142,64 422,63.7851562 422,63.5023012 L422,59.4976988 C422,59.2228273 421.768066,59 421.5,59 Z M419.5,59 C419.223858,59 419,59.2148438 419,59.4976988 L419,63.5023012 C419,63.7771727 419.231934,64 419.5,64 C419.776142,64 420,63.7851562 420,63.5023012 L420,59.4976988 C420,59.2228273 419.768066,59 419.5,59 Z M417.5,59 C417.223858,59 417,59.2148438 417,59.4976988 L417,63.5023012 C417,63.7771727 417.231934,64 417.5,64 C417.776142,64 418,63.7851562 418,63.5023012 L418,59.4976988 C418,59.2228273 417.768066,59 417.5,59 Z M415.5,59 C415.223858,59 415,59.2148438 415,59.4976988 L415,63.5023012 C415,63.7771727 415.231934,64 415.5,64 C415.776142,64 416,63.7851562 416,63.5023012 L416,59.4976988 C416,59.2228273 415.768066,59 415.5,59 Z M413.5,59 C413.223858,59 413,59.2148438 413,59.4976988 L413,63.5023012 C413,63.7771727 413.231934,64 413.5,64 C413.776142,64 414,63.7851562 414,63.5023012 L414,59.4976988 C414,59.2228273 413.768066,59 413.5,59 Z M411.5,59 C411.223858,59 411,59.2148437 411,59.4976988 L411,63.5023012 C411,63.7771727 411.231934,64 411.5,64 C411.776142,64 412,63.7851562 412,63.5023012 L412,59.4976988 C412,59.2228273 411.768066,59 411.5,59 Z" id="scarf_F" transform="translate(425.000000, 34.000000) rotate(28.000000) translate(-425.000000, -34.000000) "></path>
            </g>
        </g>
    </g>
</svg>