<?xml version="1.0" encoding="UTF-8" standalone="no"?>
<svg width="40px" height="41px" viewBox="0 0 40 41" version="1.1" xmlns="http://www.w3.org/2000/svg" xmlns:xlink="http://www.w3.org/1999/xlink" xmlns:sketch="http://www.bohemiancoding.com/sketch/ns">
    <!-- Generator: Sketch 3.1.1 (8761) - http://www.bohemiancoding.com/sketch -->
    <title>shot_F</title>
    <desc>Created with Sketch.</desc>
    <defs></defs>
    <g id="page-1" stroke="none" stroke-width="1" fill="none" fill-rule="evenodd" sketch:type="MSPage">
        <g id="full-icons" sketch:type="MSLayerGroup" transform="translate(-510.000000, -307.000000)" fill="#FFFFFF">
            <g id="row-4-full-icons" transform="translate(13.000000, 295.000000)" sketch:type="MSShapeGroup">
                <path d="M497,12 L500.6095,48 L517.417812,48 L521,12 L497,12 Z M498.900083,13.9153616 L502.416905,46.0000001 L515.634308,46.0000001 L518.825887,13.9153616 L498.900083,13.9153616 Z M536.196152,51.3923048 C536.389713,51.2805524 524.196152,30.6076952 524.196152,30.6076952 C518.456641,33.9214038 516.490139,41.2604882 519.803848,47 C523.117556,52.7395118 530.456641,54.7060135 536.196152,51.3923048 Z M521.73518,46.7075162 C523.235569,48.990842 525.223491,50.3210338 527.214439,50.9595102 C527.320373,50.9934823 528.493879,41.9015848 528.816383,41.8756476 C529.138888,41.8497105 527.853993,51.1426653 528.014412,51.1796874 C530.27514,51.7014268 532.455355,51.3697307 533.837185,50.5719311 C533.877585,50.5486061 523.795582,33.1793643 523.795582,33.1793643 C522.438357,33.9629585 521.032625,35.6816639 520.335478,37.9071401 C520.303686,38.0086286 528.890755,41.5763015 528.816383,41.8756476 C528.742012,42.1749937 520.070217,38.9481406 520.050729,39.0532614 C519.679679,41.0547712 519.897663,43.3640556 521.154026,45.7268894 C521.212436,45.8367413 528.704373,41.616661 528.816383,41.8756477 C528.96008,42.2078982 521.606899,46.5122949 521.73518,46.7075162 Z M508.925253,19.2704217 C504.273008,19.2698681 500.394518,18.2741314 500.394518,18.2741314 L503.14836,45.0000001 L514.897163,45.0000001 L517.455988,18.2741314 C517.455988,18.2741314 513.577499,19.2709761 508.925253,19.2704217 Z" id="shot_F"></path>
            </g>
        </g>
    </g>
</svg>