<?xml version="1.0" encoding="UTF-8" standalone="no"?>
<svg width="37px" height="53px" viewBox="0 0 37 53" version="1.1" xmlns="http://www.w3.org/2000/svg" xmlns:xlink="http://www.w3.org/1999/xlink" xmlns:sketch="http://www.bohemiancoding.com/sketch/ns">
    <!-- Generator: Sketch 3.1.1 (8761) - http://www.bohemiancoding.com/sketch -->
    <title>soft_drink_F</title>
    <desc>Created with Sketch.</desc>
    <defs></defs>
    <g id="page-1" stroke="none" stroke-width="1" fill="none" fill-rule="evenodd" sketch:type="MSPage">
        <g id="full-icons" sketch:type="MSLayerGroup" transform="translate(-307.000000, -299.000000)" fill="#FFFFFF">
            <g id="row-4-full-icons" transform="translate(13.000000, 295.000000)" sketch:type="MSShapeGroup">
                <path d="M306.317034,12.5 L315,12.5 C315,8.08172178 318.581722,4.5 323,4.5 C327.418278,4.5 331,8.08172178 331,12.5 C331,16.7233891 327.727287,20.1823947 323.579549,20.4793291 L323.579549,20.4793291 L324.672812,35.5315873 C325.113018,41.5924193 320.547735,46.5 314.476478,46.5 L311.523597,46.5 C305.457727,46.5 300.887274,41.5892744 301.327238,35.5315873 L303,12.5 L304.214832,12.5 L302.041083,6.5 L294,6.5 L294,4.5 L303.421978,4.5 L306.317034,12.5 Z M307.034105,14.4815063 L321.158081,14.4815063 L322.761207,35.5341232 C323.138035,40.4827206 319.416555,44.5 314.448517,44.5 L311.549871,44.5 C306.582149,44.5 302.862266,40.4858402 303.241984,35.5341232 L304.856384,14.4815063 L304.932714,14.4815063 L307.431595,21.3789402 L305.470115,21.3789402 L304.311367,35.5294201 C303.950896,39.9314506 307.245587,43.5000015 311.651176,43.5000015 L314.384385,43.5000015 C318.798521,43.5000015 322.093602,39.9212851 321.745951,35.5294201 L320.625827,21.3789402 L309.530162,21.3789402 L307.034105,14.4815063 Z M323.434662,18.4844968 C326.545465,18.261796 329,15.6675418 329,12.5 C329,9.18629134 326.313709,6.5 323,6.5 C319.686291,6.5 317,9.18629134 317,12.5 L323,12.5 L323.434662,18.4844968 L323.434662,18.4844968 Z M312.012839,46.5079212 L312.012839,52.2600861 C312.012839,52.2600861 310.682362,53.0764857 308.511378,53.6486759 C305.622941,54.40996 301.798499,55.0260091 303,55.5 C305.104563,56.3302479 321.167995,56.3302479 323,55.5 C324.109358,54.9972493 320.590294,54.4239722 317.635935,53.6486759 C315.711434,53.1436398 314.022539,52.2600861 314.022539,52.2600861 L314.02254,46.5079212 L312.012839,46.5079212 Z" id="soft_drink_F"></path>
            </g>
        </g>
    </g>
</svg>