<?xml version="1.0" encoding="UTF-8" standalone="no"?>
<svg width="52px" height="53px" viewBox="0 0 52 53" version="1.1" xmlns="http://www.w3.org/2000/svg" xmlns:xlink="http://www.w3.org/1999/xlink" xmlns:sketch="http://www.bohemiancoding.com/sketch/ns">
    <!-- Generator: Sketch 3.1.1 (8761) - http://www.bohemiancoding.com/sketch -->
    <title>stero_F</title>
    <desc>Created with Sketch.</desc>
    <defs></defs>
    <g id="page-1" stroke="none" stroke-width="1" fill="none" fill-rule="evenodd" sketch:type="MSPage">
        <g id="full-icons" sketch:type="MSLayerGroup" transform="translate(-200.000000, -199.000000)" fill="#FFFFFF">
            <g id="row-3-full-icons" transform="translate(3.000000, 199.500000)" sketch:type="MSShapeGroup">
                <path d="M209,0 L209,52 L237,52 L237,0 L209,0 Z M223,45 C227.418278,45 231,41.4182782 231,37 C231,32.5817218 227.418278,29 223,29 C218.581722,29 215,32.5817218 215,37 C215,41.4182782 218.581722,45 223,45 Z M223,23 C227.418278,23 231,19.4182782 231,15 C231,10.5817218 227.418278,7 223,7 C218.581722,7 215,10.5817218 215,15 C215,19.4182782 218.581722,23 223,23 Z M223,43 C226.313709,43 229,40.3137087 229,37 C229,33.6862913 226.313709,31 223,31 C219.686291,31 217,33.6862913 217,37 C217,40.3137087 219.686291,43 223,43 Z M223,21 C226.313709,21 229,18.3137087 229,15 C229,11.6862913 226.313709,9 223,9 C219.686291,9 217,11.6862913 217,15 C217,18.3137087 219.686291,21 223,21 Z M223,39 C224.10457,39 225,38.1045696 225,37 C225,35.8954304 224.10457,35 223,35 C221.89543,35 221,35.8954304 221,37 C221,38.1045696 221.89543,39 223,39 Z M223,17 C224.10457,17 225,16.1045696 225,15 C225,13.8954304 224.10457,13 223,13 C221.89543,13 221,13.8954304 221,15 C221,16.1045696 221.89543,17 223,17 Z M233,49 C233.552285,49 234,48.5522848 234,48 C234,47.4477152 233.552285,47 233,47 C232.447715,47 232,47.4477152 232,48 C232,48.5522848 232.447715,49 233,49 Z M213,49 C213.552285,49 214,48.5522848 214,48 C214,47.4477152 213.552285,47 213,47 C212.447715,47 212,47.4477152 212,48 C212,48.5522848 212.447715,49 213,49 Z M233,5 C233.552285,5 234,4.55228478 234,4 C234,3.44771522 233.552285,3 233,3 C232.447715,3 232,3.44771522 232,4 C232,4.55228478 232.447715,5 233,5 Z M213,5 C213.552285,5 214,4.55228478 214,4 C214,3.44771522 213.552285,3 213,3 C212.447715,3 212,3.44771522 212,4 C212,4.55228478 212.447715,5 213,5 Z M240.547371,35.3049994 C238.964594,38.0825903 241.317888,32.0356556 241.317206,25.9992772 C241.316522,19.9515663 238.964832,13.9143818 240.550229,16.6985719 C242.108303,19.4347808 243,22.6112842 243,25.9992772 C243,29.389341 242.107213,32.5676568 240.547371,35.3049994 Z M205.677038,35.0931004 C207.404635,37.8072274 204.83602,31.8984562 204.836765,26 C204.837512,20.0904703 207.404375,14.1912264 205.673919,16.9118019 C203.973285,19.5854925 203,22.6894176 203,26 C203,29.3126059 203.974475,32.418302 205.677038,35.0931004 Z M246.495416,36.6471443 C245.267976,38.5666256 247.246537,32.3258637 247.246537,25.8915993 C247.246537,19.457335 245.042974,13.0961988 246.495416,15.531618 C247.947858,17.9670364 249,22.0438756 249,25.8915996 C249,29.7405181 247.722856,34.727663 246.495416,36.6471443 Z M199.827454,36.7689817 C201.213125,38.690861 198.979505,32.4423024 198.979505,25.9999997 C198.979505,19.557697 201.467132,13.1886137 199.827454,15.6270756 C198.187776,18.0655366 197,22.147469 197,26 C197,29.853727 198.441782,34.8471023 199.827454,36.7689817 Z" id="stero_F"></path>
            </g>
        </g>
    </g>
</svg>