<?xml version="1.0" encoding="UTF-8" standalone="no"?>
<svg width="38px" height="45px" viewBox="0 0 38 45" version="1.1" xmlns="http://www.w3.org/2000/svg" xmlns:xlink="http://www.w3.org/1999/xlink" xmlns:sketch="http://www.bohemiancoding.com/sketch/ns">
    <!-- Generator: Sketch 3.1.1 (8761) - http://www.bohemiancoding.com/sketch -->
    <title>vibrating_bullet_F</title>
    <desc>Created with Sketch.</desc>
    <defs></defs>
    <g id="page-1" stroke="none" stroke-width="1" fill="none" fill-rule="evenodd" sketch:type="MSPage">
        <g id="full-icons" sketch:type="MSLayerGroup" transform="translate(-409.000000, -514.000000)" fill="#FFFFFF">
            <g id="row-6-full-icons" transform="translate(4.000000, 509.000000)" sketch:type="MSShapeGroup">
                <path d="M428.410763,33.03125 C430.42693,33.3397458 432,35.8943151 432,39 C432,42.3137087 430.209139,45 428,45 C425.790861,45 424,42.3137087 424,39 C424,35.8943151 425.57307,33.3397458 427.589237,33.03125 L427.490477,33.03125 C427.490477,33.03125 428.452663,30.2924633 431.504566,26.9963837 C433.269751,25.0899696 436.399372,22.3366554 436.294377,22.3779742 C435.274116,22.7794782 434.162811,23 433,23 C428.029437,23 424,18.970563 424,14 C424,12.2138978 424.52029,10.549316 425.417579,9.14954706 C425.608837,8.85118367 423.273546,9.51417039 419.406412,12.4204844 C415.539279,15.3267984 413,19.9992672 413,19.9992672 L411,19.9992672 C411,19.9992672 413,14.0000002 419.406412,9.7032415 C425.812824,5.40648263 432.595477,5 433,5 C436.473934,5 442.036133,7.37825561 442.036133,14 C442.036133,14.7735972 441.972288,16.1950939 441.004883,18.1008911 C440.313806,19.4623199 439.950294,20.0073029 438.50238,21.7404728 C437.054467,23.4736427 436.035358,24.1997414 435.114832,25.2390461 C433.416759,27.1562262 433.868925,26.7306155 435.606842,28.5606613 C437.344759,30.390707 438.50238,33.03125 438.50238,33.03125 L438.410763,33.03125 C440.42693,33.3397458 442,35.8943151 442,39 C442,42.3137087 440.209139,45 438,45 C435.790861,45 434,42.3137087 434,39 C434,35.8943151 435.57307,33.3397458 437.589237,33.03125 L437.521276,33.03125 C437.521276,33.03125 435.264564,27.9830243 433,27.9830246 C430.735436,27.9830249 428.452663,33.03125 428.452663,33.03125 L428.410763,33.03125 L428.410763,33.03125 Z M412,20 C408.134007,20 405,23.1256271 405,26.9958054 L405,43.0041946 C405,46.8678712 408.141873,50 412,50 C415.865993,50 419,46.8743729 419,43.0041946 L419,26.9958054 C419,23.1321288 415.858127,20 412,20 Z M412,39 C413.656854,39 415,37.6568543 415,36 C415,34.3431457 413.656854,33 412,33 C410.343146,33 409,34.3431457 409,36 C409,37.6568543 410.343146,39 412,39 Z M412,38 C413.10457,38 414,37.1045696 414,36 C414,34.8954304 413.10457,34 412,34 C410.89543,34 410,34.8954304 410,36 C410,37.1045696 410.89543,38 412,38 Z M412,30 C413.656854,30 415,28.6568543 415,27 C415,25.3431457 413.656854,24 412,24 C410.343146,24 409,25.3431457 409,27 C409,28.6568543 410.343146,30 412,30 Z M412,29 C413.10457,29 414,28.1045696 414,27 C414,25.8954304 413.10457,25 412,25 C410.89543,25 410,25.8954304 410,27 C410,28.1045696 410.89543,29 412,29 Z M433,21 C436.865993,21 440,17.8659934 440,14 C440,10.1340066 436.865993,7 433,7 C429.134007,7 426,10.1340066 426,14 C426,17.8659934 429.134007,21 433,21 Z" id="vibrating_bullet_F"></path>
            </g>
        </g>
    </g>
</svg>