<?xml version="1.0" encoding="UTF-8" standalone="no"?>
<svg width="26px" height="51px" viewBox="0 0 26 51" version="1.1" xmlns="http://www.w3.org/2000/svg" xmlns:xlink="http://www.w3.org/1999/xlink" xmlns:sketch="http://www.bohemiancoding.com/sketch/ns">
    <!-- Generator: Sketch 3.1.1 (8761) - http://www.bohemiancoding.com/sketch -->
    <title>wine_F</title>
    <desc>Created with Sketch.</desc>
    <defs></defs>
    <g id="page-1" stroke="none" stroke-width="1" fill="none" fill-rule="evenodd" sketch:type="MSPage">
        <g id="full-icons" sketch:type="MSLayerGroup" transform="translate(-13.000000, -300.000000)" fill="#FFFFFF">
            <g id="row-4-full-icons" transform="translate(13.000000, 295.000000)" sketch:type="MSShapeGroup">
                <path d="M14.0225392,32.6305525 C17.2649234,31.34698 24.0316565,24.7077131 25.5559283,20.4544039 C27.2492993,15.7292433 20.6946433,5.81832298 20.6946433,5.81832298 L5.3053567,5.81832298 C5.3053567,5.81832298 -0.878578094,15.539864 0.549805605,20.4544043 C1.81929168,24.822237 8.66969684,31.2168838 12.0128389,32.5855496 L12.0128388,51.2600861 C12.0128388,51.2600861 3.21440376,53.6697518 5.31896701,54.5 C7.42353033,55.3302479 19.4229424,55.3302479 21.2549478,54.5 C23.0869532,53.6697521 14.0225392,51.2600861 14.0225392,51.2600861 L14.0225392,32.6305525 Z M13.0723686,30.7976643 C14.70996,30.7976646 22.1913949,24.2640735 23.624247,20.2389366 C25.0570994,16.2137998 19.6097202,7.77116402 19.6097202,7.77116402 L6.41036654,7.77116351 C6.41036654,7.77116351 1.25658777,16.0524767 2.46522013,20.238937 C3.6738524,24.4253973 11.4347773,30.797664 13.0723686,30.7976643 Z M13.0657897,29.7717804 C14.5545091,29.7717807 21.3558135,23.806328 22.6584064,20.131203 C23.3146809,18.2795957 20.7116146,20.6881108 13,20.6881099 C5.28838539,20.6881093 2.87774805,18.234601 3.42292739,20.1312033 C4.521684,23.9536236 11.5770703,29.7717802 13.0657897,29.7717804 Z M20.8291511,16.1814656 C20.8291511,16.1814656 20.8291512,14.1203585 20.0410807,12.422976 C19.2530102,10.7255937 18,9.5 18,9.5 L19.4145756,12.8407328 L20.8291511,16.1814656 Z" id="wine_F"></path>
            </g>
        </g>
    </g>
</svg>