<?xml version="1.0" encoding="UTF-8" standalone="no"?>
<svg width="24px" height="54px" viewBox="0 0 24 54" version="1.1" xmlns="http://www.w3.org/2000/svg" xmlns:xlink="http://www.w3.org/1999/xlink" xmlns:sketch="http://www.bohemiancoding.com/sketch/ns">
    <!-- Generator: Sketch 3.1.1 (8761) - http://www.bohemiancoding.com/sketch -->
    <title> popsicle_F</title>
    <desc>Created with Sketch.</desc>
    <defs>
        <radialGradient cx="50%" cy="50%" fx="50%" fy="50%" r="50%" id="radialGradient-1">
            <stop stop-color="#FF1B70" offset="0%"></stop>
            <stop stop-color="#FF1C70" offset="100%"></stop>
        </radialGradient>
    </defs>
    <g id="Page-2" stroke="none" stroke-width="1" fill="none" fill-rule="evenodd" sketch:type="MSPage">
        <g id="Artboard-1" sketch:type="MSArtboardGroup" transform="translate(-1588.000000, -420.000000)" fill="#FF4D74">
            <g id="full-icons" sketch:type="MSLayerGroup" transform="translate(1172.000000, 219.000000)">
                <g id="row-3-full-icons" transform="translate(3.000000, 201.000000)" sketch:type="MSShapeGroup">
                    <path d="M422,43.1798686 C418.005911,43.0701635 414.572134,42.6919895 414,42 C412.565045,40.2644384 413.668279,10.9922833 413.668279,10.9922833 C413.840301,4.91488107 418.924868,0 425,0 C431.076468,0 436.116245,4.91593375 436.259639,10.9800454 C436.259639,10.9800454 437.129103,40.5029143 436,42 C435.54152,42.6079024 432.064563,43.0082821 428,43.1532401 C428,45.5821933 428,51.002848 428,51.002848 C428,52.6583772 426.656854,54 425,54 C423.346517,54 422,52.6581293 422,51.002848 C422,51.002848 422,45.6215631 422,43.1798686 L422,43.1798686 Z M424,43 C424,43 424,51.0024554 424,51.0024554 C424,51.553384 424.443865,52 425,52 C425.552285,52 426,51.5536886 426,51.0024554 L426,43 C426,43 424,43 424,43 Z M429.5,7 C427.567003,7 426,8.56508869 426,10.5007737 L426,35.4992263 C426,37.4326502 427.570937,39 429.5,39 C431.432997,39 433,37.4349113 433,35.4992263 L433,10.5007737 C433,8.56734977 431.429063,7 429.5,7 Z M420.5,7 C418.567003,7 417,8.56508869 417,10.5007737 L417,35.4992263 C417,37.4326502 418.570937,39 420.5,39 C422.432997,39 424,37.4349113 424,35.4992263 L424,10.5007737 C424,8.56734977 422.429063,7 420.5,7 Z M429.5,8 C428.119288,8 427,9.12128278 427,10.5061832 L427,35.4938168 C427,36.8779435 428.109662,38 429.5,38 C430.880712,38 432,36.8787172 432,35.4938168 L432,10.5061832 C432,9.12205645 430.890338,8 429.5,8 Z M420.5,8 C419.119288,8 418,9.12128278 418,10.5061832 L418,35.4938168 C418,36.8779435 419.109662,38 420.5,38 C421.880712,38 423,36.8787172 423,35.4938168 L423,10.5061832 C423,9.12205645 421.890338,8 420.5,8 Z" id="-popsicle_F"></path>
                </g>
            </g>
        </g>
    </g>
</svg>