<?xml version="1.0" encoding="UTF-8" standalone="no"?>
<svg width="39px" height="54px" viewBox="0 0 39 54" version="1.1" xmlns="http://www.w3.org/2000/svg" xmlns:xlink="http://www.w3.org/1999/xlink" xmlns:sketch="http://www.bohemiancoding.com/sketch/ns">
    <!-- Generator: Sketch 3.1.1 (8761) - http://www.bohemiancoding.com/sketch -->
    <title>american_coffee_machine_F</title>
    <desc>Created with Sketch.</desc>
    <defs>
        <radialGradient cx="50%" cy="50%" fx="50%" fy="50%" r="50%" id="radialGradient-1">
            <stop stop-color="#FF1B70" offset="0%"></stop>
            <stop stop-color="#FF1C70" offset="100%"></stop>
        </radialGradient>
    </defs>
    <g id="Page-2" stroke="none" stroke-width="1" fill="none" fill-rule="evenodd" sketch:type="MSPage">
        <g id="Artboard-1" sketch:type="MSArtboardGroup" transform="translate(-1582.000000, -721.000000)" fill="#FF4D74">
            <g id="full-icons" sketch:type="MSLayerGroup" transform="translate(1172.000000, 219.000000)">
                <g id="row-6-full-icons-" transform="translate(7.000000, 501.000000)" sketch:type="MSShapeGroup">
                    <path d="M431.418581,29.9960982 C432.15602,29.9430211 434.800883,29.861086 437,31.1622543 L437,5.448733 L431,20.141131 C431,20.141131 428.047743,20.141131 428.047744,20.141131 C428.047744,20.141131 426.045437,22.957796 426.045437,22.957796 L416.097472,22.957796 C416.097472,22.957796 414.095165,20.141131 414.095166,20.141131 L411,20.141131 L405,5.448733 L405,5.448733 L405,53 L437,53 L437,34.9701445 L437,34.9701445 C436.865651,34.6951782 436.730494,34.4721125 436.595422,34.3121581 C435.240123,32.7072001 433.089162,32.7071345 432.312634,32.7474316 L435.078603,48.0790324 C435.570513,50.8056624 433.730422,53 430.972213,53 L412.935421,53 C410.187283,53 408.357875,50.8010426 408.871819,48.0884912 C408.871819,48.0884912 411.910342,32.0514305 411.910342,32.0514307 C411.910342,32.0514309 408.941576,27 408.941576,27 L426.277425,27 C428.339685,27 430.338411,28.2348969 431.418581,29.9960982 L431.418581,29.9960982 Z M439,42.3758914 L439,55 L403,55 L403,1 L439,1 L439,33.2036976 C440.824265,36.5178339 441.223634,43.0263053 441.223634,43.0263053 C441.560313,45.7751832 440.963843,48.0000003 439.960535,48.0000008 C439.960535,48.0000008 439.579591,45.3604631 439,42.3758914 L439,42.3758914 Z M406,3 L412.250246,18 L429.735887,18 L436,3 L406,3 Z M415.301147,20 L416.629272,22 L425.488647,22 L426.848022,20 L415.301147,20 Z M427,15 C427.552285,15 428,14.5522848 428,14 C428,13.4477152 427.552285,13 427,13 C426.447715,13 426,13.4477152 426,14 C426,14.5522848 426.447715,15 427,15 Z M421,15 C421.552285,15 422,14.5522848 422,14 C422,13.4477152 421.552285,13 421,13 C420.447715,13 420,13.4477152 420,14 C420,14.5522848 420.447715,15 421,15 Z M415,15 C415.552285,15 416,14.5522848 416,14 C416,13.4477152 415.552285,13 415,13 C414.447715,13 414,13.4477152 414,14 C414,14.5522848 414.447715,15 415,15 Z M412,6 L412,10 L430,10 L430,6 L412,6 Z M413,7 L413,9 L429,9 L429,7 L413,7 Z M410.560649,28 C410.560649,28 412.987812,31.8323042 412.987812,31.8323042 L412.370991,35.0375781 C412.370991,35.0375781 426.446299,35.0375781 431.488304,35.0375781 C431.030067,32.6917187 430.788048,31.4527444 430.788048,31.4527444 C430.415559,29.5458463 428.546548,28 426.595338,28 L410.560649,28 Z" id="american_coffee_machine_F"></path>
                </g>
            </g>
        </g>
    </g>
</svg>