<?xml version="1.0" encoding="UTF-8" standalone="no"?>
<svg width="52px" height="55px" viewBox="0 0 52 55" version="1.1" xmlns="http://www.w3.org/2000/svg" xmlns:xlink="http://www.w3.org/1999/xlink" xmlns:sketch="http://www.bohemiancoding.com/sketch/ns">
    <!-- Generator: Sketch 3.1.1 (8761) - http://www.bohemiancoding.com/sketch -->
    <title>birthday_cake_F</title>
    <desc>Created with Sketch.</desc>
    <defs>
        <radialGradient cx="50%" cy="50%" fx="50%" fy="50%" r="50%" id="radialGradient-1">
            <stop stop-color="#FF1B70" offset="0%"></stop>
            <stop stop-color="#FF1C70" offset="100%"></stop>
        </radialGradient>
    </defs>
    <g id="Page-2" stroke="none" stroke-width="1" fill="none" fill-rule="evenodd" sketch:type="MSPage">
        <g id="Artboard-1" sketch:type="MSArtboardGroup" transform="translate(-1274.000000, -219.000000)" fill="#FF4D74">
            <g id="full-icons" sketch:type="MSLayerGroup" transform="translate(1172.000000, 219.000000)">
                <g id="row-1-full-icons-" sketch:type="MSShapeGroup">
                    <path d="M129,8.87359614 C130.690043,8.92112033 132.365002,9.08737581 134,9.35271655 L134,9.35271655 L134,6.00247329 C134,5.45576096 134.447715,5 135,5 C135.556135,5 136,5.44882258 136,6.00247329 L136,9.73002637 C137.736639,10.1035861 139.413953,10.5846284 141,11.147929 L141,8.00247329 C141,7.45576096 141.447715,7 142,7 C142.556135,7 143,7.44882258 143,8.00247329 L143,11.9212142 L143,11.9212142 C144.84511,12.694997 146.531543,13.5765817 148,14.519144 L148,12.0024733 C148,11.455761 148.447715,11 149,11 C149.556135,11 150,11.4488226 150,12.0024733 L150,15.9474006 C152.503885,17.9490391 154,20.105509 154,22.0311893 C154,27.6385873 154,36.910394 154,42.9774221 C154,49.0444501 142.548981,54.9999974 128,55 C113.640596,55.0000019 102,47.996034 102,42.9774221 C102,41.8407439 102,26.18973 102,22.0311893 C102,20.2193779 103.516478,18.1468253 106,16.1903765 L106,12.0024733 C106,11.455761 106.447715,11 107,11 C107.556135,11 108,11.4488226 108,12.0024733 L108,14.7733496 L108,14.7733496 C109.47801,13.8254624 111.168281,12.9308507 113,12.1380842 L113,12.1380842 L113,8.00247329 C113,7.45576096 113.447715,7 114,7 C114.556135,7 115,7.44882258 115,8.00247329 L115,11.3348709 C116.599765,10.7406251 118.280018,10.2287752 120,9.82727717 L120,6.00247329 C120,5.45576096 120.447715,5 121,5 C121.556135,5 122,5.44882258 122,6.00247329 L122,9.4145569 L122,9.4145569 C123.656612,9.11782953 125.334913,8.93030992 127,8.87593748 L127,5.00247329 C127,4.45576096 127.447715,4 128,4 C128.556135,4 129,4.44882258 129,5.00247329 L129,8.87359591 Z M129,10.83926 C130.724884,10.887515 132.397034,11.0588884 134,11.3278623 L134,11.3278623 L134,15.9975267 C134,16.5511774 134.443865,17 135,17 C135.552285,17 136,16.544239 136,15.9975267 L136,11.7205991 C137.776189,12.1206239 139.451247,12.6358899 141,13.2273483 L141,17.9975267 C141,18.5511774 141.443865,19 142,19 C142.552285,19 143,18.544239 143,17.9975267 L143,14.0631702 L143,14.0631702 C144.940715,14.9473016 146.628323,15.9394881 148,16.9422725 L148,16.9422725 L148,21.9975267 C148,22.5511774 148.443865,23 149,23 C149.552285,23 150,22.544239 150,21.9975267 L150,18.6454081 C151.234816,19.914355 152.001539,21.2384859 152.001539,22.0266333 C152.001538,25.8007803 141.819925,33.0253696 127.999999,33.0253696 C114.745165,33.0253706 103.981084,25.3107405 103.981084,22.0266333 C103.981084,21.1768216 104.701839,20.0167771 106,18.7639572 L106,21.9975267 C106,22.5511774 106.443865,23 107,23 C107.552285,23 108,22.544239 108,21.9975267 L108,17.1016097 L108,17.1016097 C109.377516,16.0966045 111.066653,15.0924497 113,14.1914034 L113,14.1914034 L113,17.9975267 C113,18.5511774 113.443865,19 114,19 C114.552285,19 115,18.544239 115,17.9975267 L115,13.3333328 C116.553132,12.7222246 118.229049,12.1869292 120,11.7695442 L120,15.9975267 C120,16.5511774 120.443865,17 121,17 C121.552285,17 122,16.544239 122,15.9975267 L122,11.3574019 L122,11.3574019 C123.607935,11.0733952 125.280802,10.8915991 127,10.8402281 L127,14.9975267 C127,15.5511774 127.443865,16 128,16 C128.552285,16 129,15.544239 129,14.9975267 L129,10.8392596 Z M128,53.1313528 C141.429828,53.1313504 152,47.5642083 152,41.892856 C152,41.8928559 148.716694,36.7536287 147.043259,37.4460852 C145.119411,38.2421605 147.326149,43.3544188 142.170395,44.8984526 C138,46.147393 137.240366,41.0201631 135.005419,41.5460327 C132.770472,42.0719023 132.599499,48.6557062 128,48.0433023 C121.642006,47.1967623 124.181629,41.8928558 120.880119,41.2709772 C119.219859,40.9582474 118.679113,46.1512358 114.7427,45.2920458 C108.694894,43.9720081 111.864461,37.2075821 108.393645,36.1494063 C107.909738,36.0018738 106.964864,36.3416553 106.277293,37.4460853 C105.233677,39.1224218 104,41.6837796 104,41.892856 C104.000007,46.5841671 114.745165,53.1313546 128,53.1313528 Z M152,28.7904612 C150.89543,29.2270087 150,30.4763307 150,31.5809003 C150,32.6854698 150.89543,33.2270087 152,32.7904612 C153.10457,32.3539137 154,31.1045917 154,30.0000221 C154,28.8954526 153.10457,28.3539137 152,28.7904612 Z M143,36.2385125 C143,35.133943 142.10457,34.4089773 141,34.6192563 C139.89543,34.8295352 139,35.8954304 139,37 C139,38.1045696 139.89543,38.8295352 141,38.6192563 C142.10457,38.4089773 143,37.3430821 143,36.2385125 Z M104,28.9998006 C102.89543,28.4474057 102,28.8950317 102,29.9996012 C102,31.1041708 102.89543,32.4474057 104,32.9998006 C105.10457,33.5521955 106,33.1045696 106,32 C106,30.8954304 105.10457,29.5521955 104,28.9998006 Z M117,37 C117,35.8954304 116.10457,34.8564765 115,34.6794312 C113.89543,34.5023859 113,35.2542928 113,36.3588624 C113,37.4634319 113.89543,38.5023859 115,38.6794312 C116.10457,38.8564765 117,38.1045696 117,37 Z M128,41 C129.10457,41 130,40.1045696 130,39 C130,37.8954304 129.10457,37 128,37 C126.89543,37 126,37.8954304 126,39 C126,40.1045696 126.89543,41 128,41 Z M149,9 C149.552285,9 150,8.55228478 150,8 C150,7.44771522 149.552285,7 149,7 C148.447715,7 148,7.44771522 148,8 C148,8.55228478 148.447715,9 149,9 Z M142,5 C142.552285,5 143,4.55228478 143,4 C143,3.44771522 142.552285,3 142,3 C141.447715,3 141,3.44771522 141,4 C141,4.55228478 141.447715,5 142,5 Z M135,3 C135.552285,3 136,2.55228478 136,2 C136,1.44771522 135.552285,1 135,1 C134.447715,1 134,1.44771522 134,2 C134,2.55228478 134.447715,3 135,3 Z M128,2 C128.552285,2 129,1.55228478 129,1 C129,0.447715223 128.552285,0 128,0 C127.447715,0 127,0.447715223 127,1 C127,1.55228478 127.447715,2 128,2 Z M121,3 C121.552285,3 122,2.55228478 122,2 C122,1.44771522 121.552285,1 121,1 C120.447715,1 120,1.44771522 120,2 C120,2.55228478 120.447715,3 121,3 Z M114,5 C114.552285,5 115,4.55228478 115,4 C115,3.44771522 114.552285,3 114,3 C113.447715,3 113,3.44771522 113,4 C113,4.55228478 113.447715,5 114,5 Z M107,9 C107.552285,9 108,8.55228478 108,8 C108,7.44771522 107.552285,7 107,7 C106.447715,7 106,7.44771522 106,8 C106,8.55228478 106.447715,9 107,9 Z" id="birthday_cake_F"></path>
                </g>
            </g>
        </g>
    </g>
</svg>