<?xml version="1.0" encoding="UTF-8" standalone="no"?>
<svg width="46px" height="52px" viewBox="0 0 46 52" version="1.1" xmlns="http://www.w3.org/2000/svg" xmlns:xlink="http://www.w3.org/1999/xlink" xmlns:sketch="http://www.bohemiancoding.com/sketch/ns">
    <!-- Generator: Sketch 3.1.1 (8761) - http://www.bohemiancoding.com/sketch -->
    <title>british_tea_pot_F </title>
    <desc>Created with Sketch.</desc>
    <defs>
        <radialGradient cx="50%" cy="50%" fx="50%" fy="50%" r="50%" id="radialGradient-1">
            <stop stop-color="#FF1B70" offset="0%"></stop>
            <stop stop-color="#FF1C70" offset="100%"></stop>
        </radialGradient>
    </defs>
    <g id="Page-2" stroke="none" stroke-width="1" fill="none" fill-rule="evenodd" sketch:type="MSPage">
        <g id="Artboard-1" sketch:type="MSArtboardGroup" transform="translate(-1575.000000, -522.000000)" fill="#FF4D74">
            <g id="full-icons" sketch:type="MSLayerGroup" transform="translate(1172.000000, 219.000000)">
                <g id="row-4-full-icons" transform="translate(8.000000, 302.000000)" sketch:type="MSShapeGroup">
                    <path d="M414.443518,9.36014204 C414.714127,10.0767025 414.900937,11 414.066634,11 C412.044423,11.0000005 413.994717,11 413.994717,11 C410.683926,11 408.23832,13.6844108 408.529345,16.976054 C408.529345,16.976054 408.736982,19.2808112 409.003541,22.409665 C409.025598,22.6685765 407.429315,23.0072078 406.303093,21.7510751 C404.475946,19.7131626 403.090854,15.2891722 400.626989,13.739693 C398.406813,12.343466 395.548889,14.3829581 395.583657,14.8081792 C395.602555,15.0393098 398.318213,16.4682867 400,19.2426837 C401.685628,22.0234161 401.241739,24.9331191 403.6644,27.7672599 C405.826478,30.2965587 409.531646,28.8652561 409.565918,29.3108806 C409.743355,31.6180062 409.901876,33.8557507 410,35.621984 C410.210704,39.4146562 410.092175,41.0067268 410.092175,41.0067268 C410.041268,44.3167202 412.676536,47 416.00066,47 L423.999341,47 C427.313414,47 429.975261,44.3061028 429.956096,41.0073337 C429.956096,41.0073337 429.947851,40.5402516 429.942566,39.8549198 L429.942566,39.8549198 C430.521186,40.6729709 431.426837,41.2154693 432.528638,41.1357921 C434.151627,41.0184249 435.251148,39.4537641 435.251148,38.5913984 C435.251148,37.7290326 434.25828,35.6907159 434.029543,37.7682325 C433.800805,39.845749 431.819308,39.2475961 432.076074,37.7682325 C433.06831,32.051451 439.057493,26.757599 440.693433,21.0415816 C441.308954,18.8909353 440.693433,16.3124811 439.057493,15.0825187 C437.421552,13.8525562 434.94975,13.4331224 433.06831,14.420487 C432.413898,14.7639171 431.860089,15.3030451 431.465767,15.9876382 C431.25319,13.1580842 428.977588,11 426.008482,11 L425.991245,11 C425.991245,11 425.275872,10.6239256 425.661342,9.3322517 C427.698041,8.78224597 429,7.94180447 429,7 C429,6.99999998 422.992218,4.92825752 420.789341,4.22805799 C420.92136,3.88912026 421,3.46292741 421,3 C421,1.89543045 420.552285,1 420,1 C419.447715,1 419,1.89543045 419,3 C419,3.46506492 419.079368,3.89305525 419.212491,4.23274741 C417.019049,4.88477976 411,6.70124709 411,7 C411,7.95786908 412.346753,8.81088775 414.443518,9.36014204 L414.443518,9.36014204 Z M422.161843,49.0580727 C426.088257,49.2732062 429,50.0610393 429,51 C429,52.1045696 424.970563,53 420,53 C415.029437,53 411,52.1045696 411,51 C411,50.0609437 413.912336,49.2730459 417.839355,49.058007 C417.859276,48.9262608 417.870513,48.7926472 417.870513,48.6588522 C417.870513,47.4812508 417,47 417,47 L423,47 C423,47 422.131571,47.4605911 422.131571,48.6588522 C422.131571,48.7931312 422.142476,48.9267148 422.161843,49.0580727 L422.161843,49.0580727 Z M430.064482,34.5056329 C430.360909,29.5532223 430.823459,24.0171206 431.133208,20.5142166 C431.187338,20.6883925 431.248833,20.8642608 431.317975,21.0415818 C431.691665,21.9999485 435.224628,21.5605263 434.029542,20.6296108 C433.06623,19.8792356 432.880387,19.1973944 433.06831,18.3657537 C433.217827,17.7040715 433.84712,15.9280818 436.299077,16.0268178 C438.751033,16.1255542 439.057493,18.898596 439.057493,19.0984807 C439.057493,24.7804794 432.509392,28.8660526 430.064482,34.5056329 L430.064482,34.5056329 Z M419.991083,8.15254711 C424.648477,8.15254735 424.648477,7.34839283 424.648477,7.34839283 C424.648477,7.34839283 419.991083,6.00936379 419.991083,6.04164191 C419.991083,6.07392004 415.099143,7.34839283 415.099143,7.34839283 C415.099143,7.34839283 415.333688,8.15254696 419.991083,8.15254711 Z" id="british_tea_pot_F-"></path>
                </g>
            </g>
        </g>
    </g>
</svg>