<?xml version="1.0" encoding="UTF-8" standalone="no"?>
<svg width="38px" height="52px" viewBox="0 0 38 52" version="1.1" xmlns="http://www.w3.org/2000/svg" xmlns:xlink="http://www.w3.org/1999/xlink" xmlns:sketch="http://www.bohemiancoding.com/sketch/ns">
    <!-- Generator: Sketch 3.1.1 (8761) - http://www.bohemiancoding.com/sketch -->
    <title>classic_coffee_grinder_F</title>
    <desc>Created with Sketch.</desc>
    <defs>
        <radialGradient cx="50%" cy="50%" fx="50%" fy="50%" r="50%" id="radialGradient-1">
            <stop stop-color="#FF1B70" offset="0%"></stop>
            <stop stop-color="#FF1C70" offset="100%"></stop>
        </radialGradient>
    </defs>
    <g id="Page-2" stroke="none" stroke-width="1" fill="none" fill-rule="evenodd" sketch:type="MSPage">
        <g id="Artboard-1" sketch:type="MSArtboardGroup" transform="translate(-1481.000000, -623.000000)" fill="#FF4D74">
            <g id="full-icons" sketch:type="MSLayerGroup" transform="translate(1172.000000, 219.000000)">
                <g id="row-5-full-icons" transform="translate(11.000000, 404.000000)" sketch:type="MSShapeGroup">
                    <path d="M316,7 L316,9.63636356 C307.345385,9.63636355 299,9.63636356 299,9.63636356 C299,18.6737509 307.058874,26 317,26 C326.941126,26 335,18.6737509 335,9.63636364 C335,9.63636359 326.654615,9.63636357 318,9.63636356 L318,9.63636356 L318,7 L335.499164,7 C335.775768,7 336,6.76806641 336,6.5 C336,6.22385763 335.782258,6 335.499164,6 L318,6 L318,3.73243564 C318.597801,3.38662623 319,2.7402824 319,2 C319,0.895430446 318.10457,0 317,0 C315.89543,0 315,0.895430446 315,2 C315,2.7402824 315.402199,3.38662623 316,3.73243564 L316,6 L314.500836,6 C314.224232,6 314,6.23193359 314,6.5 C314,6.77614237 314.217742,7 314.500836,7 L316,7 L316,7 Z M301,28 L301,50 L333,50 L333,28 L301,28 Z M306,37 L306,47 L328,47 L328,37 L306,37 Z M307,38 L307,46 L327,46 L327,38 L307,38 Z M298.996875,50 C298.446316,50 298,50.4438648 298,51 C298,51.5522847 298.45323,52 298.996875,52 L335.003125,52 C335.553684,52 336,51.5561352 336,51 C336,50.4477153 335.54677,50 335.003125,50 L298.996875,50 Z M298.996875,26 C298.446316,26 298,26.4438648 298,27 C298,27.5522847 298.45323,28 298.996875,28 L335.003125,28 C335.553684,28 336,27.5561352 336,27 C336,26.4477153 335.54677,26 335.003125,26 L298.996875,26 Z M317,44 C318.10457,44 319,43.1045696 319,42 C319,40.8954304 318.10457,40 317,40 C315.89543,40 315,40.8954304 315,42 C315,43.1045696 315.89543,44 317,44 Z M317,24 C331.406809,23.9999999 333.092033,11.5999862 333.092032,11.5999862 C333.092032,11.5999862 300.901943,11.5999862 300.901943,11.5999862 C300.901943,11.5999862 302.593191,24.0000001 317,24 Z M334,6 C335.10457,6 336,4.65685433 336,3 C336,1.34314567 335.10457,0 334,0 C332.89543,0 332,1.34314567 332,3 C332,4.65685433 332.89543,6 334,6 Z" id="classic_coffee_grinder_F"></path>
                </g>
            </g>
        </g>
    </g>
</svg>