<?xml version="1.0" encoding="UTF-8" standalone="no"?>
<svg width="38px" height="54px" viewBox="0 0 38 54" version="1.1" xmlns="http://www.w3.org/2000/svg" xmlns:xlink="http://www.w3.org/1999/xlink" xmlns:sketch="http://www.bohemiancoding.com/sketch/ns">
    <!-- Generator: Sketch 3.1.1 (8761) - http://www.bohemiancoding.com/sketch -->
    <title>coffee_grinder_F</title>
    <desc>Created with Sketch.</desc>
    <defs>
        <radialGradient cx="50%" cy="50%" fx="50%" fy="50%" r="50%" id="radialGradient-1">
            <stop stop-color="#FF1B70" offset="0%"></stop>
            <stop stop-color="#FF1C70" offset="100%"></stop>
        </radialGradient>
    </defs>
    <g id="Page-2" stroke="none" stroke-width="1" fill="none" fill-rule="evenodd" sketch:type="MSPage">
        <g id="Artboard-1" sketch:type="MSArtboardGroup" transform="translate(-1385.000000, -623.000000)" fill="#FF4D74">
            <g id="full-icons" sketch:type="MSLayerGroup" transform="translate(1172.000000, 219.000000)">
                <g id="row-5-full-icons" transform="translate(11.000000, 404.000000)" sketch:type="MSShapeGroup">
                    <path d="M216,6 L216,7.99707067 C216,7.99804744 216.000001,7.99902388 216.000004,8 L204.020874,8 C204.020874,8 203.949731,13.2629266 205.02655,18.0103655 C205.888814,21.8118808 207.930703,25.2828645 208.036298,25.4564304 C208.294159,25.8802766 205.968697,25.1685791 205.968697,28.1260471 C205.968697,31.0835152 207.499492,30.347675 207.317176,31.009935 C205.453604,37.7793175 202.859248,46.3417333 202.859248,46.3417333 C201.594931,50.5712772 204.150242,54 208.576049,54 L225.724281,54 C230.145899,54 232.675642,50.5854966 231.374626,46.3576349 C231.374626,46.3576349 228.256095,36.3246085 226.766278,31.0835147 C226.573124,30.4040094 228.006878,31.0835152 228.006878,28.1260471 C228.006878,25.1685791 225.863414,25.6647422 225.991409,25.4564304 C226.127792,25.2344698 228.158532,21.7919026 229.048868,18.0103655 C230.086475,13.6033284 229.993164,8.73767429 229.993164,8 L217.999996,8 L217.999996,8 C217.999999,7.99902394 218,7.99804749 218,7.99707067 L218,6 L239.503832,6 C239.777858,6 240,5.76806641 240,5.5 C240,5.22385763 239.775229,5 239.503832,5 L218,5 L218,3.00292933 C218,2.44902676 217.556135,2 217,2 C216.447715,2 216,2.43788135 216,3.00292933 L216,5 L214.496168,5 C214.222142,5 214,5.23193359 214,5.5 C214,5.77614237 214.224771,6 214.496168,6 L216,6 Z M208.993398,27 C208.444759,27 208,27.4438648 208,28 C208,28.5522847 208.444946,29 208.993398,29 L225.006602,29 C225.555241,29 226,28.5561352 226,28 C226,27.4477153 225.555054,27 225.006602,27 L208.993398,27 Z M206.017663,10 C206.017663,10 205.839975,14.4643312 206.75113,18.1567837 C207.480738,21.113518 209.985043,25.062881 209.985043,25.062881 L223.98413,25.062881 C223.98413,25.062881 226.524573,21.0979794 227.277935,18.1567837 C228.15591,14.7290881 227.994216,10.5737467 227.994216,10 L206.017663,10 Z M238,0 C237.447715,0 237,0.443716645 237,0.999807492 L237,4.00019251 C237,4.55237094 237.443865,5 238,5 C238.552285,5 239,4.55628335 239,4.00019251 L239,0.999807492 C239,0.447629061 238.556135,0 238,0 Z" id="coffee_grinder_F"></path>
                </g>
            </g>
        </g>
    </g>
</svg>