<?xml version="1.0" encoding="UTF-8" standalone="no"?>
<svg width="40px" height="48px" viewBox="0 0 40 48" version="1.1" xmlns="http://www.w3.org/2000/svg" xmlns:xlink="http://www.w3.org/1999/xlink" xmlns:sketch="http://www.bohemiancoding.com/sketch/ns">
    <!-- Generator: Sketch 3.1.1 (8761) - http://www.bohemiancoding.com/sketch -->
    <title>cup_cake_1_F</title>
    <desc>Created with Sketch.</desc>
    <defs>
        <radialGradient cx="50%" cy="50%" fx="50%" fy="50%" r="50%" id="radialGradient-1">
            <stop stop-color="#FF1B70" offset="0%"></stop>
            <stop stop-color="#FF1C70" offset="100%"></stop>
        </radialGradient>
    </defs>
    <g id="Page-2" stroke="none" stroke-width="1" fill="none" fill-rule="evenodd" sketch:type="MSPage">
        <g id="Artboard-1" sketch:type="MSArtboardGroup" transform="translate(-1580.000000, -223.000000)" fill="#FF4D74">
            <g id="full-icons" sketch:type="MSLayerGroup" transform="translate(1172.000000, 219.000000)">
                <g id="row-1-full-icons-" sketch:type="MSShapeGroup">
                    <path d="M430.755472,8.18826309 C440.497259,9.53068602 448,17.889163 448,28 C448,30.2736552 439.087538,51.9667664 439.087538,51.9667664 L416.937815,51.9667664 C416.937815,51.9667664 408,28.7631427 408,28 C408,17.889163 415.502741,9.53068602 425.244528,8.18826309 C425.087184,7.82388795 425,7.42212545 425,7 C425,5.34314567 426.343146,4 428,4 C429.656854,4 431,5.34314567 431,7 C431,7.42212545 430.912816,7.82388795 430.755472,8.18826309 L430.755472,8.18826309 Z M427.998616,49.9999991 L418,49.9999991 L410.724377,29.9610407 L445.577804,29.9610407 L438.000001,49.9999991 L428.001357,49.9999991 C428.553018,49.999254 429,49.5442549 429,49.0081969 L429,30.9918031 C429,30.4440454 428.556135,30 428,30 C427.447715,30 427,30.4553056 427,30.9918031 L427,49.0081969 C427,49.5555003 427.443129,49.9992633 427.998616,49.9999991 L427.998616,49.9999991 Z M446,28 C446,24.7750897 445.151917,21.74826 443.666612,19.1303724 C443.530343,18.8901949 442.685994,19.2697175 441.721285,18.4153886 C440.151493,17.0252098 438.281265,14.4255516 436.38147,15.0309988 C434.350554,15.678233 436.691604,22.7090338 434.971546,22.8035299 C433.530642,22.88269 431.326967,16.7216807 428.860603,16.5351722 C426.394239,16.3486637 425.609616,24.1828229 423.756555,23.5193811 C421.903493,22.8559392 424.220741,15.6787422 422.568995,15.0309989 C420.91725,14.3832555 417.355917,20.337823 415.643582,20.3378231 C413.931248,20.3378232 416.164716,17.1308759 416.300757,15.6782331 C416.369555,14.9436224 415.981192,14.5043296 414.878412,15.6782331 C411.853171,18.8985878 410,23.2328781 410,28 L446,28 Z M434.218693,30.0745385 C433.670525,30.0072319 433.170659,30.4045809 433.105277,30.9370795 L430.909631,48.8191818 C430.842876,49.3628566 431.229317,49.8576857 431.781307,49.9254615 C432.329475,49.9927681 432.829341,49.5954191 432.894723,49.0629205 L435.090369,31.1808182 C435.157124,30.6371434 434.770683,30.1423143 434.218693,30.0745385 Z M440.419219,30.2970427 C439.883339,30.163433 439.338775,30.4969019 439.208984,31.0174632 L434.850424,48.498693 C434.71791,49.03018 435.041165,49.568416 435.580781,49.7029573 C436.116661,49.836567 436.661225,49.5030981 436.791016,48.9825368 L441.149576,31.501307 C441.28209,30.96982 440.958835,30.431584 440.419219,30.2970427 Z M415.961729,30.2562994 C415.423599,30.3805364 415.08978,30.9248865 415.210466,31.4476337 L419.263273,49.0022684 C419.386492,49.5359872 419.918869,49.8688038 420.46075,49.7437006 C420.99888,49.6194636 421.332699,49.0751135 421.212013,48.5523663 L417.159206,30.9977316 C417.035988,30.4640128 416.503611,30.1311962 415.961729,30.2562994 Z M422.165955,30.054781 C421.616696,30.1125105 421.219025,30.6121209 421.275105,31.1456794 L423.158331,49.0633775 C423.215587,49.6081346 423.703436,50.0033509 424.256524,49.945219 C424.805783,49.8874895 425.203454,49.3878791 425.147374,48.8543206 L423.264149,30.9366225 C423.206892,30.3918654 422.719044,29.9966491 422.165955,30.054781 Z M428,8 C428.552285,8 429,7.55228478 429,7 C429,6.44771522 428.552285,6 428,6 C427.447715,6 427,6.44771522 427,7 C427,7.55228478 427.447715,8 428,8 Z" id="cup_cake_1_F"></path>
                </g>
            </g>
        </g>
    </g>
</svg>