<?xml version="1.0" encoding="UTF-8" standalone="no"?>
<svg width="43px" height="48px" viewBox="0 0 43 48" version="1.1" xmlns="http://www.w3.org/2000/svg" xmlns:xlink="http://www.w3.org/1999/xlink" xmlns:sketch="http://www.bohemiancoding.com/sketch/ns">
    <!-- Generator: Sketch 3.1.1 (8761) - http://www.bohemiancoding.com/sketch -->
    <title>cupcake_2_F</title>
    <desc>Created with Sketch.</desc>
    <defs>
        <radialGradient cx="50%" cy="50%" fx="50%" fy="50%" r="50%" id="radialGradient-1">
            <stop stop-color="#FF1B70" offset="0%"></stop>
            <stop stop-color="#FF1C70" offset="100%"></stop>
        </radialGradient>
    </defs>
    <g id="Page-2" stroke="none" stroke-width="1" fill="none" fill-rule="evenodd" sketch:type="MSPage">
        <g id="Artboard-1" sketch:type="MSArtboardGroup" transform="translate(-1678.000000, -224.000000)" fill="#FF4D74">
            <g id="full-icons" sketch:type="MSLayerGroup" transform="translate(1172.000000, 219.000000)">
                <g id="row-1-full-icons-" sketch:type="MSShapeGroup">
                    <path d="M522.959209,29 L548,29 L538.847355,53 L516.97333,53 L508,29 L508.563014,29 C508.176076,28.9611647 507.965932,28.9353024 507.965932,28.9353024 C507.965932,28.9353024 506.706822,27.375928 506.706822,25.3185605 C506.706822,23.261193 507.300462,23.1235423 507.965932,22.4119873 C508.631403,21.7004323 511.444252,21.0276302 514.923303,21.4166577 C518.402354,21.8056851 525.151288,23.4030815 531.948443,20.9200522 C538.7456,18.437023 539.128612,14.8188952 539.128612,14.8188952 C539.128612,14.8188952 541.719394,14.4641768 543.347885,15.3864447 C544.976376,16.3087126 544.236156,20.9200521 534.465204,25.9570532 C531.127089,27.6778772 526.97694,28.5705162 522.959209,29 L522.959209,29 Z M527.998129,50.9999983 L518,50.9999983 L510.817632,30.9610407 L545.191101,30.9610407 L537.50563,50.9999983 L528.001835,50.9999983 C528.553276,50.998991 529,50.5441 529,50.0081969 L529,31.9918031 C529,31.4440454 528.556135,31 528,31 C527.447715,31 527,31.4553056 527,31.9918031 L527,50.0081969 C527,50.5553401 527.442869,50.9990035 527.998129,50.9999983 L527.998129,50.9999983 Z M534.218693,31.0745385 C533.670525,31.0072319 533.170659,31.4045809 533.105277,31.9370795 L530.909631,49.8191818 C530.842876,50.3628566 531.229317,50.8576857 531.781307,50.9254615 C532.329475,50.9927681 532.829341,50.5954191 532.894723,50.0629205 L535.090369,32.1808182 C535.157124,31.6371434 534.770683,31.1423143 534.218693,31.0745385 Z M540.419219,31.2970427 C539.883339,31.163433 539.338775,31.4969019 539.208984,32.0174632 L534.850424,49.498693 C534.71791,50.03018 535.041165,50.568416 535.580781,50.7029573 C536.116661,50.836567 536.661225,50.5030981 536.791016,49.9825368 L541.149576,32.501307 C541.28209,31.96982 540.958835,31.431584 540.419219,31.2970427 Z M515.961729,31.2562994 C515.423599,31.3805364 515.08978,31.9248865 515.210466,32.4476337 L519.263273,50.0022684 C519.386492,50.5359872 519.918869,50.8688038 520.46075,50.7437006 C520.99888,50.6194636 521.332699,50.0751135 521.212013,49.5523663 L517.159206,31.9977316 C517.035988,31.4640128 516.503611,31.1311962 515.961729,31.2562994 Z M522.165955,31.054781 C521.616696,31.1125105 521.219025,31.6121209 521.275105,32.1456794 L523.158331,50.0633775 C523.215587,50.6081346 523.703436,51.0033509 524.256524,50.945219 C524.805783,50.8874895 525.203454,50.3878791 525.147374,49.8543206 L523.264149,31.9366225 C523.206892,31.3918654 522.719044,30.9966491 522.165955,31.054781 Z M544.774202,20.3679922 C544.774202,20.3679922 543.88326,22.866398 538.745599,25.8391845 C533.607937,28.8119711 531.87206,28.9674336 531.87206,28.9674336 L547.875995,28.9674335 C547.875995,28.9674335 549.459888,24.4792928 548.799933,22.4552679 C548.139977,20.431243 544.774202,20.3679922 544.774202,20.3679922 Z M531.951613,14.4853884 C528.916698,16.5427553 521.240122,15.2161899 519.394463,14.8313396 C517.397373,14.4149134 517.230949,14.4853885 517.230949,14.4853885 C517.230949,14.4853885 513.569617,14.2009995 513.569617,16.1073588 C513.569617,18.0137181 515.945846,19.1507413 515.945846,19.1507413 C515.945846,19.1507413 526.397202,21.1696216 531.951613,18.6117645 C537.506023,16.0539076 537.973278,11.9524446 537.201849,10.6045254 C536.43042,9.25660623 534.039791,9.24875495 534.039791,9.24875495 C534.039791,9.24875495 534.986528,12.4280216 531.951613,14.4853884 Z M528.818431,9.50927903 C526.327954,10.587232 522.150378,9.08676987 520.784632,9.88393968 C519.418886,10.6811095 520.143372,12.9173105 520.143372,12.9173105 C520.143372,12.9173105 525.604911,14.0689621 528.818431,13.3759923 C532.031951,12.6830227 532.0427,10.999419 532.0427,9.50927903 C532.0427,8.69930729 531.747364,7.80556017 530.877731,6.9359699 C530.147463,6.20573746 528.818431,5.42069698 528.818431,5.42069698 C528.818431,5.42069698 531.308909,8.43132601 528.818431,9.50927903 Z" id="cupcake_2_F"></path>
                </g>
            </g>
        </g>
    </g>
</svg>