<?xml version="1.0" encoding="UTF-8" standalone="no"?>
<svg width="52px" height="53px" viewBox="0 0 52 53" version="1.1" xmlns="http://www.w3.org/2000/svg" xmlns:xlink="http://www.w3.org/1999/xlink" xmlns:sketch="http://www.bohemiancoding.com/sketch/ns">
    <!-- Generator: Sketch 3.1.1 (8761) - http://www.bohemiancoding.com/sketch -->
    <title>dessert_stand_1_F</title>
    <desc>Created with Sketch.</desc>
    <defs>
        <radialGradient cx="50%" cy="50%" fx="50%" fy="50%" r="50%" id="radialGradient-1">
            <stop stop-color="#FF1B70" offset="0%"></stop>
            <stop stop-color="#FF1C70" offset="100%"></stop>
        </radialGradient>
    </defs>
    <g id="Page-2" stroke="none" stroke-width="1" fill="none" fill-rule="evenodd" sketch:type="MSPage">
        <g id="Artboard-1" sketch:type="MSArtboardGroup" transform="translate(-1374.000000, -421.000000)" fill="#FF4D74">
            <g id="full-icons" sketch:type="MSLayerGroup" transform="translate(1172.000000, 219.000000)">
                <g id="row-3-full-icons" transform="translate(3.000000, 201.000000)" sketch:type="MSShapeGroup">
                    <path d="M224,21.098309 L224,32 L204,32 C204,32 206.423077,35.8549602 216.923077,37.1049602 C217.087527,37.1245376 220.410516,37.1263981 224,37.1225666 L224,47 L226,47 L226,37.1199337 C229.679392,37.1142696 233.076923,37.1049602 233.076923,37.1049602 C241.467216,35.7920111 246,32 246,32 L226,32 L226,21.0955544 C228.710089,21.090999 231.153846,21.0839682 231.153846,21.0839682 C237.54645,20.0336089 241,17 241,17 L226,17 L226,6.82929431 L226,6.82929431 C227.165192,6.41745793 228,5.3062189 228,4 C228,2.34314567 226.656854,1 225,1 C223.343146,1 222,2.34314567 222,4 C222,5.3062189 222.834808,6.41745793 224,6.82929431 L224,17 L209,17 C209,17 210.846154,20.0839682 218.846154,21.0839682 C218.967805,21.0991745 221.35799,21.1010199 224,21.098309 L224,21.098309 Z M199,47 C199,47 202,51.6259523 215,53.1259522 C215.449972,53.1778721 235,53.1259522 235,53.1259522 C245.387981,51.5504133 251,47 251,47 L199,47 Z M225,5 C225.552285,5 226,4.55228478 226,4 C226,3.44771522 225.552285,3 225,3 C224.447715,3 224,3.44771522 224,4 C224,4.55228478 224.447715,5 225,5 Z" id="dessert_stand_1_F"></path>
                </g>
            </g>
        </g>
    </g>
</svg>