<?xml version="1.0" encoding="UTF-8" standalone="no"?>
<svg width="50px" height="50px" viewBox="0 0 50 50" version="1.1" xmlns="http://www.w3.org/2000/svg" xmlns:xlink="http://www.w3.org/1999/xlink" xmlns:sketch="http://www.bohemiancoding.com/sketch/ns">
    <!-- Generator: Sketch 3.1.1 (8761) - http://www.bohemiancoding.com/sketch -->
    <title>donut_F</title>
    <desc>Created with Sketch.</desc>
    <defs>
        <radialGradient cx="50%" cy="50%" fx="50%" fy="50%" r="50%" id="radialGradient-1">
            <stop stop-color="#FF1B70" offset="0%"></stop>
            <stop stop-color="#FF1C70" offset="100%"></stop>
        </radialGradient>
    </defs>
    <g id="Page-2" stroke="none" stroke-width="1" fill="none" fill-rule="evenodd" sketch:type="MSPage">
        <g id="Artboard-1" sketch:type="MSArtboardGroup" transform="translate(-1175.000000, -423.000000)" fill="#FF4D74">
            <g id="full-icons" sketch:type="MSLayerGroup" transform="translate(1172.000000, 219.000000)">
                <g id="row-3-full-icons" transform="translate(3.000000, 201.000000)" sketch:type="MSShapeGroup">
                    <path d="M34.2615122,44.5 L31.7273795,44.5 C31.4519584,44.5 31.236901,44.2761424 31.236901,44 C31.236901,43.7319336 31.4564957,43.5 31.7273795,43.5 L34.7464225,43.5 C34.8439062,43.5 34.9338278,43.5280441 35.0093279,43.5765246 L35.0613997,43.5122213 C35.2347278,43.2981789 35.5440379,43.271926 35.7586408,43.4457081 C35.9669675,43.6144077 36.0090183,43.9310254 35.8385456,44.1415417 L33.9386003,46.4877787 C33.7652722,46.7018211 33.4559621,46.728074 33.2413592,46.5542919 C33.0330325,46.3855923 32.9909817,46.0689746 33.1614544,45.8584583 L34.2615122,44.5 L34.2615122,44.5 Z M25.5472456,9.99783976 L24.3820018,10.5915612 C24.1365997,10.7165998 23.843353,10.6147752 23.717987,10.3687305 C23.5962873,10.1298816 23.686652,9.82353333 23.9280113,9.70055465 L26.6179982,8.32993783 C26.8634003,8.20489925 27.156647,8.30672385 27.282013,8.5527685 C27.4037127,8.79161742 27.313348,9.09796568 27.0719887,9.22094435 L26.2471811,9.64120483 C26.2767458,9.65492199 26.3052657,9.67189459 26.3322511,9.69222954 L28.743366,11.509135 C28.9633271,11.6748875 29.0003587,11.9830929 28.8341721,12.20363 C28.6728457,12.4177174 28.3578884,12.4707924 28.141551,12.3077705 L25.7304361,10.490865 C25.5722537,10.3716661 25.508675,10.1787963 25.5472456,9.99783976 L25.5472456,9.99783976 Z M10.2208215,31.107618 C10.2270872,31.1516424 10.2276926,31.1973222 10.2219933,31.2437387 C10.1893243,31.509807 9.94310078,31.7132499 9.6742361,31.6802375 L6.67769662,31.3123087 C6.40432843,31.2787433 6.21815544,31.0303454 6.25180873,30.7562613 C6.28447781,30.490193 6.53070129,30.2867501 6.79956597,30.3197625 L9.79610545,30.6876913 C9.91161611,30.7018742 10.0115585,30.7544145 10.0859264,30.8310422 L9.12577335,28.8624367 C9.00503666,28.6148898 9.11196362,28.3234648 9.36015874,28.2024119 C9.60109523,28.0848993 9.90581975,28.1805968 10.0245674,28.4240655 L11.3480287,31.1375633 C11.4687654,31.3851102 11.3618385,31.6765352 11.1136433,31.7975881 C10.8727068,31.9151007 10.5679823,31.8194032 10.4492347,31.5759345 L10.2208215,31.107618 L10.2208215,31.107618 Z M25,53 C38.8071194,53 50,41.8071194 50,28 C50,14.1928806 38.8071194,3 25,3 C11.1928806,3 0,14.1928806 0,28 C0,41.8071194 11.1928806,53 25,53 Z M25,38 C30.5228478,38 35,33.5228478 35,28 C35,22.4771522 30.5228478,18 25,18 C19.4771522,18 15,22.4771522 15,28 C15,33.5228478 19.4771522,38 25,38 Z M35.7679492,36 C35.629878,36.2391463 35.7041943,36.5405414 35.942716,36.678252 L38.557284,38.1877734 C38.7918762,38.3232153 39.0980176,38.2321523 39.2320508,38 C39.370122,37.7608537 39.2958057,37.4594586 39.057284,37.321748 L36.442716,35.8122266 C36.2081238,35.6767847 35.9019824,35.7678477 35.7679492,36 Z M41.7679492,24 C41.629878,24.2391463 41.7041943,24.5405414 41.942716,24.678252 L44.557284,26.1877734 C44.7918762,26.3232153 45.0980176,26.2321523 45.2320508,26 C45.370122,25.7608537 45.2958057,25.4594586 45.057284,25.321748 L42.442716,23.8122266 C42.2081238,23.6767847 41.9019824,23.7678477 41.7679492,24 Z M18.4876878,12.1456323 C18.2316531,12.249077 18.1046578,12.5323333 18.2078324,12.7876993 L19.3387858,15.5869072 C19.4402607,15.8380663 19.7375674,15.9547872 19.9861142,15.8543677 C20.242149,15.750923 20.3691442,15.4676667 20.2659697,15.2123007 L19.1350163,12.4130928 C19.0335414,12.1619337 18.7362347,12.0452128 18.4876878,12.1456323 Z M37.4876878,33.1456323 C37.2316531,33.249077 37.1046578,33.5323333 37.2078324,33.7876993 L38.3387858,36.5869072 C38.4402607,36.8380663 38.7375674,36.9547872 38.9861142,36.8543677 C39.242149,36.750923 39.3691442,36.4676667 39.2659697,36.2123007 L38.1350163,33.4130928 C38.0335414,33.1619337 37.7362347,33.0452128 37.4876878,33.1456323 Z M20.1136433,46.7975881 C20.3618385,46.6765352 20.4687654,46.3851102 20.3480287,46.1375633 L19.0245674,43.4240655 C18.9058197,43.1805968 18.6010952,43.0848993 18.3601587,43.2024119 C18.1119636,43.3234648 18.0050367,43.6148898 18.1257733,43.8624367 L19.4492347,46.5759345 C19.5679823,46.8194032 19.8727068,46.9151007 20.1136433,46.7975881 Z M31.0503743,38.1729091 C30.7981057,38.0605919 30.5061299,38.1660054 30.394106,38.4176152 L29.1661506,41.1756482 C29.0559722,41.4231128 29.1785369,41.7180585 29.4234277,41.8270909 C29.6756964,41.9394081 29.9676722,41.8339946 30.0796961,41.5823848 L31.3076515,38.8243518 C31.4178298,38.5768872 31.2952652,38.2819415 31.0503743,38.1729091 Z M21.8341721,44.20363 C22.0003587,43.9830929 21.9633271,43.6748875 21.743366,43.509135 L19.3322511,41.6922295 C19.1159137,41.5292076 18.8009564,41.5822826 18.63963,41.79637 C18.4734434,42.0169071 18.510475,42.3251125 18.7304361,42.490865 L21.141551,44.3077705 C21.3578884,44.4707924 21.6728457,44.4177174 21.8341721,44.20363 Z M13.9861404,36.0303808 C13.852264,35.7888612 13.5556422,35.6973328 13.3147535,35.8308596 L10.674239,37.2945207 C10.4373187,37.4258478 10.3577004,37.7351631 10.4876616,37.9696192 C10.6215381,38.2111388 10.9181598,38.3026672 11.1590486,38.1691404 L13.7995631,36.7054793 C14.0364834,36.5741522 14.1161016,36.2648369 13.9861404,36.0303808 Z M5.23690103,24 C5.23690103,24.2761424 5.45195841,24.5 5.72737955,24.5 L8.74642252,24.5 C9.01730632,24.5 9.23690103,24.2680664 9.23690103,24 C9.23690103,23.7238576 9.02184366,23.5 8.74642252,23.5 L5.72737955,23.5 C5.45649575,23.5 5.23690103,23.7319336 5.23690103,24 Z M12.3067,13.4619678 C12.0307259,13.4523306 11.7994992,13.6594445 11.7898872,13.9346978 L11.6845241,16.9519017 C11.6750704,17.2226205 11.8991989,17.4501758 12.167102,17.4595312 C12.4430762,17.4691684 12.6743028,17.2620545 12.6839149,16.9868012 L12.789278,13.9695973 C12.7987317,13.6988785 12.5746031,13.4713232 12.3067,13.4619678 Z M40.5246233,23.3128689 C40.5678215,23.5856115 40.8152502,23.7730707 41.0872805,23.7299854 L44.069154,23.257703 C44.3367028,23.2153274 44.5173115,22.9518971 44.4753767,22.6871311 C44.4321785,22.4143885 44.1847498,22.2269293 43.9127195,22.2700146 L40.930846,22.742297 C40.6632972,22.7846726 40.4826885,23.0481029 40.5246233,23.3128689 Z M37.2413592,28.5542919 C37.4559621,28.728074 37.7652722,28.7018211 37.9386003,28.4877787 L39.8385456,26.1415417 C40.0090183,25.9310254 39.9669675,25.6144077 39.7586408,25.4457081 C39.5440379,25.271926 39.2347278,25.2981789 39.0613997,25.5122213 L37.1614544,27.8584583 C36.9909817,28.0689746 37.0330325,28.3855923 37.2413592,28.5542919 Z M8.24135922,19.5542919 C8.45596215,19.728074 8.76527219,19.7018211 8.93860033,19.4877787 L10.8385456,17.1415417 C11.0090183,16.9310254 10.9669675,16.6144077 10.7586408,16.4457081 C10.5440379,16.271926 10.2347278,16.2981789 10.0613997,16.5122213 L8.16145437,18.8584583 C7.99098167,19.0689746 8.03303249,19.3855923 8.24135922,19.5542919 Z M34.268677,18.4239785 C34.0510739,18.5939887 34.0070742,18.9012768 34.1766404,19.1183116 L36.0353488,21.4973499 C36.2021216,21.7108093 36.5200837,21.7410597 36.731323,21.5760215 C36.9489261,21.4060113 36.9929258,21.0987232 36.8233596,20.8816884 L34.9646512,18.5026501 C34.7978784,18.2891907 34.4799163,18.2589403 34.268677,18.4239785 Z M32.5246233,12.3128689 C32.5678215,12.5856115 32.8152502,12.7730707 33.0872805,12.7299854 L36.069154,12.257703 C36.3367028,12.2153274 36.5173115,11.9518971 36.4753767,11.6871311 C36.4321785,11.4143885 36.1847498,11.2269293 35.9127195,11.2700146 L32.930846,11.742297 C32.6632972,11.7846726 32.4826885,12.0481029 32.5246233,12.3128689 Z M10.5246233,40.3128689 C10.5678215,40.5856115 10.8152502,40.7730707 11.0872805,40.7299854 L14.069154,40.257703 C14.3367028,40.2153274 14.5173115,39.9518971 14.4753767,39.6871311 C14.4321785,39.4143885 14.1847498,39.2269293 13.9127195,39.2700146 L10.930846,39.742297 C10.6632972,39.7846726 10.4826885,40.0481029 10.5246233,40.3128689 Z" id="donut_F"></path>
                </g>
            </g>
        </g>
    </g>
</svg>