<?xml version="1.0" encoding="UTF-8" standalone="no"?>
<svg width="48px" height="53px" viewBox="0 0 48 53" version="1.1" xmlns="http://www.w3.org/2000/svg" xmlns:xlink="http://www.w3.org/1999/xlink" xmlns:sketch="http://www.bohemiancoding.com/sketch/ns">
    <!-- Generator: Sketch 3.0.4 (8053) - http://www.bohemiancoding.com/sketch -->
    <title>espresso machine F</title>
    <desc>Created with Sketch.</desc>
    <defs>
        <radialGradient cx="50%" cy="50%" fx="50%" fy="50%" r="50%" id="radialGradient-1">
            <stop stop-color="#FF1B70" offset="0%"></stop>
            <stop stop-color="#FF1C70" offset="100%"></stop>
        </radialGradient>
    </defs>
    <g id="Page-2" stroke="none" stroke-width="1" fill="none" fill-rule="evenodd" sketch:type="MSPage">
        <g id="full-icons" sketch:type="MSLayerGroup" transform="translate(-506.000000, -502.000000)" fill="#FF4D74">
            <g id="row-6-full-icons-" transform="translate(7.000000, 501.000000)" sketch:type="MSShapeGroup">
                <path d="M500,29.0853281 C499.417404,29.2912182 499,29.8469429 499,30.5016756 L499,34.4983244 C499,35.3276769 499.665797,36 500.5,36 C501.328427,36 502,35.3288106 502,34.4983244 L502,30.5016756 C502,29.8469863 501.585109,29.2901498 501,29.0846457 L501,25 L500,25 L500,29.0853281 L500,29.0853281 Z M504,25 L504,19 L538,19 L538,26 L540.266375,26 L540.266375,26 C540.612717,25.4002619 541.26203,25 542.005919,25 L544.994081,25 C546.113445,25 547,25.8954305 547,27 C547,28.1122704 546.101919,29 544.994081,29 L542.005919,29 C541.255721,29 540.610094,28.5978014 540.265836,28 L538,28 L538,28 L538,50 L504,50 L504,26 L501,26 L501,25 L504,25 Z M506,26 L506,50 L536,50 L536,28 L536,28 L528,28 L528,26 L536,26 L536,19 L506,19 L506,25 L510,25 L510,26 L506,26 L506,26 Z M521,30 L516,30 L516,26 L528,26 L528,30 L523,30 L523,31.0010434 C523,31.5573397 522.552285,32 522,32 C521.443865,32 521,31.5527519 521,31.0010434 L521,30 L521,30 Z M527.665061,43.8837927 C527.449833,45.1548744 527.296387,46.0610862 527.296387,46.0610862 C526.927587,48.2391214 524.842661,50 522.638579,50 L521.399245,50 C519.208197,50 517.105171,48.2373284 516.731118,46.0629629 L515,36 C515,36 529,36 529,36 C528.936497,36.3750325 528.696307,37.7935277 528.415463,39.4521222 C528.875275,39.165557 529.418303,39 530,39 C531.656854,39 533,40.3431457 533,42 C533,43.6568543 531.656854,45 530,45 C529.056661,45 528.215015,44.564598 527.665061,43.8837927 L527.665061,43.8837927 Z M501,3 L501,19 L541,19 L541,3 L501,3 Z M501,50 L501,54 L541,54 L541,50 L501,50 Z M537,1 L537,3 L538,3 L538,1 L537,1 Z M504,1 L504,3 L505,3 L505,1 L504,1 Z M516.223044,37 C516.223044,37 516.677865,40.0451 516.677865,40.0451 L527.423148,40.0451 C527.423148,40.0451 527.929435,37 527.929435,37 C527.929435,37 516.223044,37 516.223044,37 Z M530,44 C531.10457,44 532,43.1045696 532,42 C532,40.8954304 531.10457,40 530,40 C528.89543,40 528,40.8954304 528,42 C528,43.1045696 528.89543,44 530,44 Z M514,19 L514,26 L530,26 L530,19 L514,19 Z M516,19 L516,24 L528,24 L528,19 L516,19 Z M518,26 L518,28 L526,28 L526,26 L518,26 Z M509,19 L509,25 L510,25 L510,19 L509,19 Z M522,14 C523.656854,14 525,12.6568543 525,11 C525,9.34314567 523.656854,8 522,8 C520.343146,8 519,9.34314567 519,11 C519,12.6568543 520.343146,14 522,14 Z M532,9 L532,13 L534,13 L534,9 L532,9 Z M512,9 L512,13 L514,13 L514,9 L512,9 Z M508,9 L508,13 L510,13 L510,9 L508,9 Z" id="espresso-machine-F"></path>
            </g>
        </g>
    </g>
</svg>