<?xml version="1.0" encoding="UTF-8" standalone="no"?>
<svg width="39px" height="53px" viewBox="0 0 39 53" version="1.1" xmlns="http://www.w3.org/2000/svg" xmlns:xlink="http://www.w3.org/1999/xlink" xmlns:sketch="http://www.bohemiancoding.com/sketch/ns">
    <!-- Generator: Sketch 3.1.1 (8761) - http://www.bohemiancoding.com/sketch -->
    <title>icecream_corn_2_F</title>
    <desc>Created with Sketch.</desc>
    <defs>
        <radialGradient cx="50%" cy="50%" fx="50%" fy="50%" r="50%" id="radialGradient-1">
            <stop stop-color="#FF1B70" offset="0%"></stop>
            <stop stop-color="#FF1C70" offset="100%"></stop>
        </radialGradient>
    </defs>
    <g id="Page-2" stroke="none" stroke-width="1" fill="none" fill-rule="evenodd" sketch:type="MSPage">
        <g id="Artboard-1" sketch:type="MSArtboardGroup" transform="translate(-1180.000000, -521.000000)" fill="#FF4D74">
            <g id="full-icons" sketch:type="MSLayerGroup" transform="translate(1172.000000, 219.000000)">
                <g id="row-4-full-icons" transform="translate(8.000000, 302.000000)" sketch:type="MSShapeGroup">
                    <path d="M16.0374125,32.8303057 L13.4466256,30.2395188 L14.9412674,28.6917719 C15.1344051,28.4917719 15.1241351,28.1685253 14.9313043,27.9823107 C14.7326641,27.7904861 14.4098467,27.8025176 14.2219276,27.9971135 L12.7394111,29.5323043 L11.0926212,27.8855144 C10.8935843,27.6864775 10.5682312,27.6891281 10.3786797,27.8786797 C10.1834175,28.0739418 10.1824385,28.3895453 10.3855144,28.5926212 L12.0446469,30.2517537 L12.0446469,30.2517537 L10.0587326,32.3082281 C9.95046545,32.420342 9.9061168,32.5711848 9.92201445,32.7149077 L8.08415923,30.8770525 C7.88979577,30.682689 7.56823123,30.6891281 7.37867966,30.8786797 C7.18341751,31.0739418 7.17704374,31.3841505 7.37705245,31.5841592 L10.208734,34.4158408 C10.4030975,34.6102042 10.724662,34.6037651 10.9142136,34.4142136 C11.1094757,34.2189514 11.1158495,33.9087427 10.9158408,33.708734 L10.3595987,33.152492 C10.5106244,33.1685503 10.6676411,33.1172415 10.7780724,33.0028865 L12.7518614,30.9589682 L15.3426483,33.5497551 L15.0210705,33.8827586 C14.8255439,34.0852324 14.8338773,34.4104844 15.0267081,34.596699 C15.2253483,34.7885236 15.544519,34.7802685 15.7404103,34.577417 L16.0504719,34.2563389 C16.2507776,34.4344158 16.5598515,34.4254299 16.7426407,34.2426407 C16.9350656,34.0502157 16.9388123,33.7409212 16.7445289,33.5376219 L18.9974976,31.2046044 L21.3426483,33.5497551 L21.0210705,33.8827586 C20.8255439,34.0852324 20.8338773,34.4104844 21.0267081,34.596699 C21.2253483,34.7885236 21.544519,34.7802685 21.7404103,34.577417 L22.0504719,34.2563389 C22.2507776,34.4344158 22.5598515,34.4254299 22.7426407,34.2426407 C22.9350656,34.0502157 22.9388123,33.7409212 22.7445289,33.5376219 L25.0673249,31.1322961 L25.0673249,31.1322961 L27.4124756,33.4774468 L27.0210705,33.8827586 C26.8255439,34.0852324 26.8338773,34.4104844 27.0267081,34.596699 C27.2253483,34.7885236 27.544519,34.7802685 27.7404103,34.577417 L28.1196901,34.1846613 L28.1708347,34.2358059 C28.3698716,34.4348428 28.6952247,34.4321923 28.8847763,34.2426407 C29.0800385,34.0473785 29.0810174,33.731775 28.8779415,33.5286991 L28.8144543,33.4652119 L30.9974976,31.2046044 L31.9205739,32.1276806 C32.1123233,32.3194301 32.4317688,32.3108719 32.6213203,32.1213203 C32.8165825,31.9260582 32.8137379,31.6066311 32.6276806,31.4205739 L31.6922618,30.485155 L33.9789295,28.1172414 C34.1744561,27.9147676 34.1661227,27.5895156 33.9732919,27.403301 C33.7746517,27.2114764 33.455481,27.2197315 33.2595897,27.422583 L30.9850473,29.7779405 L29.0794261,27.8723194 C28.8876767,27.6805699 28.5682312,27.6891281 28.3786797,27.8786797 C28.1834175,28.0739418 28.1862621,28.3933689 28.3723194,28.5794261 L30.2902831,30.4973899 L30.2902831,30.4973899 L28.1072398,32.7579974 L25.7620891,30.4128467 L27.9789295,28.1172414 C28.1744561,27.9147676 28.1661227,27.5895156 27.9732919,27.403301 C27.7746517,27.2114764 27.455481,27.2197315 27.2595897,27.422583 L25.0548746,29.7056322 L23.2347568,27.8855144 C23.03572,27.6864775 22.7103669,27.6891281 22.5208153,27.8786797 C22.3255531,28.0739418 22.3245742,28.3895453 22.5276501,28.5926212 L24.3601104,30.4250816 L22.0374125,32.8303057 L19.6922618,30.485155 L21.9789295,28.1172414 C22.1744561,27.9147676 22.1661227,27.5895156 21.9732919,27.403301 C21.7746517,27.2114764 21.455481,27.2197315 21.2595897,27.422583 L18.9850473,29.7779405 L17.0926212,27.8855144 C16.8935843,27.6864775 16.5682312,27.6891281 16.3786797,27.8786797 C16.1834175,28.0739418 16.1824385,28.3895453 16.3855144,28.5926212 L18.2902831,30.4973899 L16.0374125,32.8303057 Z M6.02859756,29.8201858 C5.38645513,28.3205864 4.85079443,27 4.85079443,27 L34.8376034,27 C34.8376034,27 32.7199593,33.0143451 31.9368521,33.9347911 C31.1537448,34.8552371 28.2524801,34.9786963 28.2524801,34.9786963 L11.7342144,34.9786963 C11.7342144,34.9786963 8.70860757,34.9096908 7.98843658,33.9347911 C7.66305394,33.4943186 6.99119284,32.0362347 6.35236227,30.5699955 C6.5134157,30.6063427 6.6872018,30.5614554 6.81106817,30.4331881 L8.90827163,28.2614703 C9.09644334,28.0666128 9.08214758,27.747535 8.88931674,27.5613204 C8.69067654,27.3694958 8.38025544,27.3686905 8.18893183,27.5668119 L6.09172837,29.7385297 C6.06728618,29.7638403 6.04626006,29.7912468 6.02859756,29.8201858 L6.02859756,29.8201858 Z M14.9694482,25 L37.9967579,25 C38.5620117,25 39,25.4477153 39,26 C39,26.5561352 38.5508332,27 37.9967579,27 L1.00324215,27 C0.437988281,27 0,26.5522847 0,26 C0,25.4438648 0.44916681,25 1.00324215,25 L2.43209429,25 C2.01431997,24.9522045 1.78528383,24.9191839 1.78528383,24.9191839 C1.78528383,24.9191839 0.66887067,23.2994602 0.668870311,21.1624706 C0.668870096,19.025481 1.19523218,18.8825031 1.78528383,18.1434102 C2.37533539,17.4043174 4.86939929,16.7054772 7.95416337,17.1095605 C11.0389275,17.5136436 17.0229933,19.1728608 23.0498156,16.5937358 C29.0766385,14.014611 29.4162435,10.2564582 29.4162435,10.2564582 C29.4162435,10.2564582 31.7134075,9.88801186 33.1573388,10.8459724 C34.6012701,11.8039329 33.9449409,16.5937357 25.2813476,21.8256736 C22.2910996,23.6314819 18.5659584,24.5592646 14.9694482,25 L14.9694482,25 Z M2.85079443,27 C2.85079443,27 5.93148294,34.510107 6.74771893,35.6121676 C7.56395496,36.7142282 10.0000001,36.6526713 10.0000001,36.6526713 L13.1999708,53 L27.0145079,53 L30.0000006,36.6526713 C30.0000006,36.6526713 32.2729346,36.6526718 33.1605021,35.6121676 C34.0480696,34.5716634 36.8376034,27 36.8376034,27 L2.85079443,27 Z M12.0860098,36.9981661 C12.0860098,36.9981661 14.6685208,50.9443054 14.6685208,50.9443054 L25.5374173,50.9443054 L27.9395922,36.9981661 L12.0860098,36.9981661 Z M34.4220086,16.0203105 C34.4220086,16.0203105 33.6320391,18.6154071 29.0766375,21.7032433 C24.5212364,24.7910796 22.9820887,24.9525586 22.9820887,24.9525586 L37.1722707,24.9525585 C37.1722707,24.9525585 38.5766586,20.2907225 37.9914969,18.1883659 C37.4063353,16.0860093 34.4220086,16.0203105 34.4220086,16.0203105 Z M23.052626,9.91004435 C20.3616631,12.0470334 13.5550867,10.6691285 11.9185992,10.2693841 C10.1478429,9.83684194 10.0002799,9.91004444 10.0002799,9.91004444 C10.0002799,9.91004444 6.75389282,9.61464928 6.75389298,11.5947865 C6.75389325,13.5749238 8.86081985,14.7559509 8.86081985,14.7559509 C8.86081985,14.7559509 18.1277064,16.8529638 23.0526256,14.1961152 C27.9775449,11.5392667 28.3918451,7.27907322 27.7078438,5.87898824 C27.0238425,4.47890326 24.9041469,4.47074813 24.9041469,4.47074813 C24.9041469,4.47074813 25.7435891,7.77305543 23.052626,9.91004435 Z M20.2745332,4.74135475 C18.0663056,5.86102556 14.3621814,4.30249408 13.1512179,5.13051512 C11.9402544,5.95853615 12.5826329,8.28128034 12.5826329,8.28128034 C12.5826329,8.28128034 17.425207,9.47750195 20.274533,8.75771354 C23.1238592,8.03792533 23.1333901,6.28916453 23.1333897,4.74135475 C23.1333895,3.90003632 22.8715249,2.97170033 22.1004488,2.06845608 C21.4529431,1.30996294 20.2745332,0.494540639 20.2745332,0.494540639 C20.2745332,0.494540639 22.4827609,3.62168391 20.2745332,4.74135475 Z" id="icecream_corn_2_F"></path>
                </g>
            </g>
        </g>
    </g>
</svg>