<?xml version="1.0" encoding="UTF-8" standalone="no"?>
<svg width="42px" height="51px" viewBox="0 0 42 51" version="1.1" xmlns="http://www.w3.org/2000/svg" xmlns:xlink="http://www.w3.org/1999/xlink" xmlns:sketch="http://www.bohemiancoding.com/sketch/ns">
    <!-- Generator: Sketch 3.1.1 (8761) - http://www.bohemiancoding.com/sketch -->
    <title>icecream_1_F</title>
    <desc>Created with Sketch.</desc>
    <defs>
        <radialGradient cx="50%" cy="50%" fx="50%" fy="50%" r="50%" id="radialGradient-1">
            <stop stop-color="#FF1B70" offset="0%"></stop>
            <stop stop-color="#FF1C70" offset="100%"></stop>
        </radialGradient>
    </defs>
    <g id="Page-2" stroke="none" stroke-width="1" fill="none" fill-rule="evenodd" sketch:type="MSPage">
        <g id="Artboard-1" sketch:type="MSArtboardGroup" transform="translate(-1279.000000, -523.000000)" fill="#FF4D74">
            <g id="full-icons" sketch:type="MSLayerGroup" transform="translate(1172.000000, 219.000000)">
                <g id="row-4-full-icons" transform="translate(8.000000, 302.000000)" sketch:type="MSShapeGroup">
                    <path d="M103.042967,27.441587 C100.545254,27.4415869 99,27.4415869 99,27.4415869 C99,35.7001267 107.685022,42.4558 118.657387,42.9687148 C119.078186,42.9883854 119.060375,50.2438088 119.860413,51 L119.860413,51 L114.006845,51 C113.45078,51 113,51.4438648 113,52 C113,52.5522847 113.449949,53 114.006845,53 L125.993155,53 C126.54922,53 127,52.5561352 127,52 C127,51.4477153 126.550051,51 125.993155,51 L120.140571,51 C120.952742,50.2436327 121.052617,42.9848412 121.532244,42.9592174 C132.414877,42.3778187 141,35.6524927 141,27.4415871 C141,27.4415871 139.068519,27.4415871 136.033958,27.441587 C137.241729,26.3440092 138,24.7605565 138,23 C138,19.6862913 135.313709,17 132,17 C128.686291,17 126,19.6862913 126,23 C126,24.7605565 126.758271,26.3440092 127.966042,27.441587 L127.966042,27.441587 C126.065341,27.441587 124.062426,27.441587 122.033958,27.441587 L122.033958,27.441587 C123.241729,26.3440092 124,24.7605565 124,23 C124,19.6862913 121.313709,17 118,17 C117.87348,17 117.747875,17.003916 117.623299,17.0116334 L116.804226,12.2360691 L120.608453,8.52786803 L115.351142,7.76393265 L113,3 L110.64886,7.76393148 L105.391548,8.52786422 L109.195774,12.2360681 L108.361922,17.0977985 C107.996339,17.0335577 107.619623,17 107.234763,17 C103.791398,17 101,19.6862913 101,23 C101,24.7605564 101.78794,26.3440091 103.042967,27.441587 Z M111.426559,27.441587 C112.253809,27.441587 113.102487,27.441587 113.966042,27.441587 C112.758271,26.3440092 112,24.7605565 112,23 C112,20.03703 114.147726,17.5756887 116.971312,17.0878431 L113,15 L108.822435,17.1962764 C110.069876,17.5114573 111.164658,18.1892343 111.97779,19.1054751 C111.97779,19.1054751 110.883023,20.871756 110.883023,23 C110.883023,25.128244 111.97779,26.8693596 112,26.8693595 C111.822105,27.0720485 111.630499,27.2632327 111.426559,27.441587 Z M120,41 C129.983193,41 138.168077,35.7319387 138.940417,29.0371342 C138.940417,29.0677074 101.063163,29.0677074 101.063163,29.0677074 C101.856854,35.7479701 110.032008,41 120,41 Z M140,2.07179677 C139.521707,1.79565439 138.911659,1.95685839 138.633539,2.43857705 L131.63441,14.5614229 C131.358027,15.0401325 131.518373,15.6501356 132,15.9282032 C132.478293,16.2043456 133.088341,16.0431416 133.366461,15.5614229 L140.36559,3.43857705 C140.641973,2.95986752 140.481627,2.34986436 140,2.07179677 Z M122.360569,17.5040035 C123.87333,18.7024355 124.649902,20.9914021 124.649902,20.9914021 C124.649902,20.9914021 124.906429,21 125,21 C125.108692,21 125.329312,20.9914021 125.32398,20.9914021 C125.318648,20.9914022 125.567622,19.126009 127.403076,17.5040039 C129.238531,15.8819988 131,15.979466 131,15.979466 L131,15 C131,11.6862913 128.313709,9 125,9 C121.686291,9 119,11.6862913 119,15 C119,15 119,15.979466 119,15.979466 C119,15.979466 120.713713,16.1993397 122.360569,17.5040035 Z" id="icecream_1_F"></path>
                </g>
            </g>
        </g>
    </g>
</svg>