<?xml version="1.0" encoding="UTF-8" standalone="no"?>
<svg width="42px" height="53px" viewBox="0 0 42 53" version="1.1" xmlns="http://www.w3.org/2000/svg" xmlns:xlink="http://www.w3.org/1999/xlink" xmlns:sketch="http://www.bohemiancoding.com/sketch/ns">
    <!-- Generator: Sketch 3.1.1 (8761) - http://www.bohemiancoding.com/sketch -->
    <title>icecream_2_F</title>
    <desc>Created with Sketch.</desc>
    <defs>
        <radialGradient cx="50%" cy="50%" fx="50%" fy="50%" r="50%" id="radialGradient-1">
            <stop stop-color="#FF1B70" offset="0%"></stop>
            <stop stop-color="#FF1C70" offset="100%"></stop>
        </radialGradient>
    </defs>
    <g id="Page-2" stroke="none" stroke-width="1" fill="none" fill-rule="evenodd" sketch:type="MSPage">
        <g id="Artboard-1" sketch:type="MSArtboardGroup" transform="translate(-1379.000000, -521.000000)" fill="#FF4D74">
            <g id="full-icons" sketch:type="MSLayerGroup" transform="translate(1172.000000, 219.000000)">
                <g id="row-4-full-icons" transform="translate(8.000000, 302.000000)" sketch:type="MSShapeGroup">
                    <path d="M230.985771,12.6189228 C233.36915,14.371392 235.406516,16.6768769 237.038067,19.3478842 C237.345364,19.8509582 234.943757,17.5430508 233.141674,16.0819039 C231.339592,14.6207572 230.776021,14.8329262 230.268086,15.010396 C228.428412,15.6531687 229.004384,20.8111111 228.562058,21.3166275 C227.999632,21.9594002 223.351937,16.8839226 221.732602,16.8839226 C220.081081,16.8839226 220.688096,22.682519 220.081081,22.682519 C219.322204,22.682519 217.502177,16.10993 216.293787,15.5865355 C214.963622,15.010396 214.409387,15.2798853 213.356339,16.0819039 C212.303291,16.8839226 210,20.5192327 209.421266,20.5192327 C208.368218,20.5192328 210.363466,15.8412595 208.589912,15.010396 C206.816357,14.1795326 203.688984,18.0148433 204.266874,17.3046656 C208.86703,11.6514626 213.285927,9 220.081081,9 C223.877451,9 227.291643,10.1343288 230.222022,12.0843315 C230.088136,12.1740454 230,12.3267301 230,12.5 C230,12.7761424 230.223858,13 230.5,13 C230.735163,13 230.932408,12.837653 230.985771,12.6189228 L230.985771,12.6189228 Z M222.757571,7.18338973 C226.377047,7.66887881 229.687366,9.09637687 232.418533,11.2032822 L238.130552,1.30977593 C238.409,0.827489228 239.021707,0.661679799 239.5,0.937822174 C239.981627,1.21588976 240.140635,1.82820917 239.862603,2.30977593 L233.964038,12.5263897 C236.149906,14.6001671 237.849365,17.1567156 238.88028,20.018886 C239.136004,20.7288626 238.784018,21.2156021 238.034141,21.2811308 C237.430239,21.3339033 238.874897,21.2813269 238.880266,27.4415871 C240.222961,27.4415871 241,27.4415871 241,27.4415871 C241,35.6524927 232.414877,42.3778187 221.532244,42.9592174 C221.052617,42.9848412 220.952742,50.2436327 220.140571,51 L225.993155,51 C226.550051,51 227,51.4477153 227,52 C227,52.5561352 226.54922,53 225.993155,53 L214.006845,53 C213.449949,53 213,52.5522847 213,52 C213,51.4438648 213.45078,51 214.006845,51 L219.860413,51 L219.860413,51 C219.060375,50.2438088 219.078186,42.9883854 218.657387,42.9687148 C207.685022,42.4558 199,35.7001267 199,27.4415869 C199,27.4415869 199.729053,27.4415869 200.995051,27.4415869 L200.995054,27.4415869 C201.003133,22.2669848 202.828622,19.4585211 202.828622,19.403704 C202.828622,19.3487654 201.446743,19.1350406 201.768287,18.4436755 C204.544785,12.4738087 210.329778,8.11060032 217.242429,7.18338974 C217.086409,6.82030692 217,6.4202444 217,6 C217,4.34314567 218.343146,3 220,3 C221.656854,3 223,4.34314567 223,6 C223,6.4202444 222.913591,6.82030691 222.757571,7.18338973 L222.757571,7.18338973 Z M220,41 C229.983193,41 238.168077,35.7319387 238.940417,29.0371342 C238.940417,29.0677074 201.063163,29.0677074 201.063163,29.0677074 C201.856854,35.7479701 210.032008,41 220,41 Z M219.5,11 C219.776142,11 220,10.7761424 220,10.5 C220,10.2238576 219.776142,10 219.5,10 C219.223858,10 219,10.2238576 219,10.5 C219,10.7761424 219.223858,11 219.5,11 Z M213.5,14 C213.776142,14 214,13.7761424 214,13.5 C214,13.2238576 213.776142,13 213.5,13 C213.223858,13 213,13.2238576 213,13.5 C213,13.7761424 213.223858,14 213.5,14 Z M209.5,14 C209.776142,14 210,13.7761424 210,13.5 C210,13.2238576 209.776142,13 209.5,13 C209.223858,13 209,13.2238576 209,13.5 C209,13.7761424 209.223858,14 209.5,14 Z M210.5,17 C210.776142,17 211,16.7761424 211,16.5 C211,16.2238576 210.776142,16 210.5,16 C210.223858,16 210,16.2238576 210,16.5 C210,16.7761424 210.223858,17 210.5,17 Z M225.5,12 C225.776142,12 226,11.7761424 226,11.5 C226,11.2238576 225.776142,11 225.5,11 C225.223858,11 225,11.2238576 225,11.5 C225,11.7761424 225.223858,12 225.5,12 Z M219.5,20 C219.776142,20 220,19.7761424 220,19.5 C220,19.2238576 219.776142,19 219.5,19 C219.223858,19 219,19.2238576 219,19.5 C219,19.7761424 219.223858,20 219.5,20 Z M227.5,20 C227.776142,20 228,19.7761424 228,19.5 C228,19.2238576 227.776142,19 227.5,19 C227.223858,19 227,19.2238576 227,19.5 C227,19.7761424 227.223858,20 227.5,20 Z M224.5,17 C224.776142,17 225,16.7761424 225,16.5 C225,16.2238576 224.776142,16 224.5,16 C224.223858,16 224,16.2238576 224,16.5 C224,16.7761424 224.223858,17 224.5,17 Z M219.5,16 C219.776142,16 220,15.7761424 220,15.5 C220,15.2238576 219.776142,15 219.5,15 C219.223858,15 219,15.2238576 219,15.5 C219,15.7761424 219.223858,16 219.5,16 Z M227.5,15 C227.776142,15 228,14.7761424 228,14.5 C228,14.2238576 227.776142,14 227.5,14 C227.223858,14 227,14.2238576 227,14.5 C227,14.7761424 227.223858,15 227.5,15 Z M222.5,13 C222.776142,13 223,12.7761424 223,12.5 C223,12.2238576 222.776142,12 222.5,12 C222.223858,12 222,12.2238576 222,12.5 C222,12.7761424 222.223858,13 222.5,13 Z M216.5,12 C216.776142,12 217,11.7761424 217,11.5 C217,11.2238576 216.776142,11 216.5,11 C216.223858,11 216,11.2238576 216,11.5 C216,11.7761424 216.223858,12 216.5,12 Z" id="icecream_2_F"></path>
                </g>
            </g>
        </g>
    </g>
</svg>