<?xml version="1.0" encoding="UTF-8" standalone="no"?>
<svg width="48px" height="51px" viewBox="0 0 48 51" version="1.1" xmlns="http://www.w3.org/2000/svg" xmlns:xlink="http://www.w3.org/1999/xlink" xmlns:sketch="http://www.bohemiancoding.com/sketch/ns">
    <!-- Generator: Sketch 3.1.1 (8761) - http://www.bohemiancoding.com/sketch -->
    <title>kettle_F</title>
    <desc>Created with Sketch.</desc>
    <defs>
        <radialGradient cx="50%" cy="50%" fx="50%" fy="50%" r="50%" id="radialGradient-1">
            <stop stop-color="#FF1B70" offset="0%"></stop>
            <stop stop-color="#FF1C70" offset="100%"></stop>
        </radialGradient>
    </defs>
    <g id="Page-2" stroke="none" stroke-width="1" fill="none" fill-rule="evenodd" sketch:type="MSPage">
        <g id="Artboard-1" sketch:type="MSArtboardGroup" transform="translate(-1574.000000, -625.000000)" fill="#FF4D74">
            <g id="full-icons" sketch:type="MSLayerGroup" transform="translate(1172.000000, 219.000000)">
                <g id="row-5-full-icons" transform="translate(11.000000, 404.000000)" sketch:type="MSShapeGroup">
                    <path d="M412.081484,21.6320021 C410.930706,22.0908997 409.878962,22.777375 409,23.6169123 L409,23.6169123 L409,10.9911656 C409,7.12869969 412.136832,4 416.006311,4 L416.085334,4 L416.085334,4 C416.291169,4.58259619 416.846343,5 417.497101,5 L424.502899,5 C425.155594,5 425.710734,4.58510886 425.915612,4 L425.993689,4 C429.862419,4 433,7.13005145 433,10.9911656 L433,23.1917785 C432.152617,22.4712098 431.18003,21.8982752 430.134052,21.5191547 C430.690568,21.2078958 431,20.8629819 431,20.5 C431,19.1192881 426.522848,18 421,18 C415.477152,18 411,19.1192881 411,20.5 C411,20.9074485 411.389889,21.2921312 412.081484,21.6320021 L412.081484,21.6320021 Z M416.084388,3 L415.995275,3 C411.579607,3 408,6.58112395 408,10.9958621 L408,24.7362057 L408,24.7362057 C407.141192,25.8694379 406.569524,27.1750832 406.408699,28.5281533 C406.408699,28.5281533 406.410513,28.5128945 406.408699,28.5281533 C406.249367,29.8686722 394.291274,23.8864796 394.291274,23.886482 C394.291274,23.8864844 391.623146,27.6095783 391.623146,27.6095783 C391.623146,27.6095783 405.454188,36.5587715 405.288902,37.9493744 C404.692601,42.9662496 404.444606,45.0527195 404.444606,45.0527195 C403.922914,49.4418813 407.087425,53 411.499244,53 L431.04621,53 C435.464071,53 438.621591,49.4531746 438.095242,45.0487722 L436.171502,28.9512278 C435.957409,27.1597299 435.164294,25.5066132 434,24.1771329 L434,10.9958621 C434,6.57986941 430.412109,3 426.004725,3 L425.914666,3 C425.708831,2.41740381 425.153657,2 424.502899,2 L417.497101,2 C416.844406,2 416.289266,2.41489114 416.084388,3 L416.084388,3 Z M421,18 C422.10457,18 423,17.1045696 423,16 C423,14.8954304 422.10457,14 421,14 C419.89543,14 419,14.8954304 419,16 C419,17.1045696 419.89543,18 421,18 Z" id="kettle_F"></path>
                </g>
            </g>
        </g>
    </g>
</svg>