<?xml version="1.0" encoding="UTF-8" standalone="no"?>
<svg width="44px" height="44px" viewBox="0 0 44 44" version="1.1" xmlns="http://www.w3.org/2000/svg" xmlns:xlink="http://www.w3.org/1999/xlink" xmlns:sketch="http://www.bohemiancoding.com/sketch/ns">
    <!-- Generator: Sketch 3.1.1 (8761) - http://www.bohemiancoding.com/sketch -->
    <title>lolipop_1_F</title>
    <desc>Created with Sketch.</desc>
    <defs>
        <radialGradient cx="50%" cy="50%" fx="50%" fy="50%" r="50%" id="radialGradient-1">
            <stop stop-color="#FF1B70" offset="0%"></stop>
            <stop stop-color="#FF1C70" offset="100%"></stop>
        </radialGradient>
    </defs>
    <g id="Page-2" stroke="none" stroke-width="1" fill="none" fill-rule="evenodd" sketch:type="MSPage">
        <g id="Artboard-1" sketch:type="MSArtboardGroup" transform="translate(-1278.000000, -328.000000)" fill="#FF4D74">
            <g id="full-icons" sketch:type="MSLayerGroup" transform="translate(1172.000000, 219.000000)">
                <g id="row-2-full-icons" transform="translate(3.000000, 103.000000)" sketch:type="MSShapeGroup">
                    <path d="M124.379953,33.4260476 L119.115148,24.3071377 C119.060849,24.2130888 118.99366,24.1311588 118.917085,24.0623478 C121.393078,22.242115 123,19.308716 123,16 C123,10.4771522 118.522848,6 113,6 C107.477152,6 103,10.4771522 103,16 C103,21.5228478 107.477152,26 113,26 C114.530577,26 115.980841,25.6561364 117.277752,25.0414481 L117.277752,25.0414481 C117.2993,25.1329148 117.334194,25.222435 117.383097,25.3071377 L123.202212,35.386139 L115.931349,47.4868867 C115.647426,47.9594131 115.797728,48.5710787 116.274429,48.8575095 C116.747829,49.1419572 117.362006,48.9890808 117.645683,48.5169629 L124.345566,37.3664863 L130.884852,48.6928623 C131.16051,49.1703158 131.768373,49.3354359 132.25,49.0573684 C132.728293,48.781226 132.888265,48.1628758 132.616903,47.6928623 L125.523307,35.4063949 L131.984487,24.6531859 C133.458854,25.5095967 135.172157,26 137,26 C142.522848,26 147,21.5228478 147,16 C147,10.4771522 142.522848,6 137,6 C131.477152,6 127,10.4771522 127,16 C127,18.973792 128.298066,21.6444043 130.3585,23.4761373 C130.357098,23.4784296 130.355703,23.4807296 130.354317,23.4830371 L124.379953,33.4260476 L124.379953,33.4260476 Z M111,12 C111.552285,12 112,11.5522848 112,11 C112,10.4477152 111.552285,10 111,10 C110.447715,10 110,10.4477152 110,11 C110,11.5522848 110.447715,12 111,12 Z M108,16 C108.552285,16 109,15.5522848 109,15 C109,14.4477152 108.552285,14 108,14 C107.447715,14 107,14.4477152 107,15 C107,15.5522848 107.447715,16 108,16 Z M109,20 C109.552285,20 110,19.5522848 110,19 C110,18.4477152 109.552285,18 109,18 C108.447715,18 108,18.4477152 108,19 C108,19.5522848 108.447715,20 109,20 Z M117,14 C117.552285,14 118,13.5522848 118,13 C118,12.4477152 117.552285,12 117,12 C116.447715,12 116,12.4477152 116,13 C116,13.5522848 116.447715,14 117,14 Z M113,16 C113.552285,16 114,15.5522848 114,15 C114,14.4477152 113.552285,14 113,14 C112.447715,14 112,14.4477152 112,15 C112,15.5522848 112.447715,16 113,16 Z M137,12 C137.552285,12 138,11.5522848 138,11 C138,10.4477152 137.552285,10 137,10 C136.447715,10 136,10.4477152 136,11 C136,11.5522848 136.447715,12 137,12 Z M137,17 C137.552285,17 138,16.5522848 138,16 C138,15.4477152 137.552285,15 137,15 C136.447715,15 136,15.4477152 136,16 C136,16.5522848 136.447715,17 137,17 Z M133,14 C133.552285,14 134,13.5522848 134,13 C134,12.4477152 133.552285,12 133,12 C132.447715,12 132,12.4477152 132,13 C132,13.5522848 132.447715,14 133,14 Z M142,18 C142.552285,18 143,17.5522848 143,17 C143,16.4477152 142.552285,16 142,16 C141.447715,16 141,16.4477152 141,17 C141,17.5522848 141.447715,18 142,18 Z M141,14 C141.552285,14 142,13.5522848 142,13 C142,12.4477152 141.552285,12 141,12 C140.447715,12 140,12.4477152 140,13 C140,13.5522848 140.447715,14 141,14 Z" id="lolipop_1_F"></path>
                </g>
            </g>
        </g>
    </g>
</svg>