<?xml version="1.0" encoding="UTF-8" standalone="no"?>
<svg width="50px" height="42px" viewBox="0 0 50 42" version="1.1" xmlns="http://www.w3.org/2000/svg" xmlns:xlink="http://www.w3.org/1999/xlink" xmlns:sketch="http://www.bohemiancoding.com/sketch/ns">
    <!-- Generator: Sketch 3.1.1 (8761) - http://www.bohemiancoding.com/sketch -->
    <title>macaron_F</title>
    <desc>Created with Sketch.</desc>
    <defs>
        <radialGradient cx="50%" cy="50%" fx="50%" fy="50%" r="50%" id="radialGradient-1">
            <stop stop-color="#FF1B70" offset="0%"></stop>
            <stop stop-color="#FF1C70" offset="100%"></stop>
        </radialGradient>
    </defs>
    <g id="Page-2" stroke="none" stroke-width="1" fill="none" fill-rule="evenodd" sketch:type="MSPage">
        <g id="Artboard-1" sketch:type="MSArtboardGroup" transform="translate(-1175.000000, -328.000000)" fill="#FF4D74">
            <g id="full-icons" sketch:type="MSLayerGroup" transform="translate(1172.000000, 219.000000)">
                <g id="row-2-full-icons" transform="translate(3.000000, 103.000000)" sketch:type="MSShapeGroup">
                    <path d="M4.83724142,21.6392024 C4.9640006,21.6973774 5.09429857,21.7490853 5.22771334,21.793906 L5.22771334,21.793906 C5.62319573,22.6533407 6.4919192,23.25 7.5,23.25 C8.425353,23.25 9.23328279,22.7472517 9.66554454,22 L10.3344555,22 C10.7667172,22.7472517 11.574647,23.25 12.5,23.25 C13.425353,23.25 14.2332828,22.7472517 14.6655445,22 L14.6655445,22 L15.3344534,22 L15.3344559,22.0000007 C15.7667177,22.747252 16.5746473,23.25 17.5,23.25 C18.425353,23.25 19.2332828,22.7472517 19.6655445,22 L20.3344534,22 C20.7667177,22.747252 21.5746473,23.25 22.5,23.25 C23.425353,23.25 24.2332828,22.7472517 24.6655445,22 L24.6655445,22 L25.3344534,22 L25.3344559,22.0000007 C25.7667177,22.747252 26.5746473,23.25 27.5,23.25 C28.425353,23.25 29.2332828,22.7472517 29.6655445,22 L30.3344534,22 C30.7667177,22.747252 31.5746473,23.25 32.5,23.25 C33.425353,23.25 34.2332828,22.7472517 34.6655445,22 L34.6655445,22 L35.3344534,22 L35.3344559,22.0000007 C35.7667177,22.747252 36.5746473,23.25 37.5,23.25 C38.4253527,23.25 39.2332823,22.747252 39.6655466,22 L40.3344555,22 C40.7667172,22.7472517 41.574647,23.25 42.5,23.25 C43.507517,23.25 44.3758324,22.654008 44.7716226,21.7953478 L44.7716226,21.7953478 C44.9055077,21.7506239 45.0362369,21.6989876 45.1633885,21.6408553 L45.1633885,21.6408553 C45.5222973,22.5816844 46.4331019,23.25 47.5,23.25 C48.8807119,23.25 50,22.1307119 50,20.75 C50,19.3692881 48.8807119,18.25 47.5,18.25 C47.4972674,18.25 47.4945357,18.2500044 47.4918052,18.2500131 C47.4972407,18.1641459 47.5,18.0775264 47.5,17.990237 L47.5,16.009763 C47.5,13.795232 45.8726074,11.2549517 43.8265002,10.4348421 C43.8265002,10.4348421 37.5,6.87617409 25,6.87617493 C12.5,6.87617629 6.17349982,10.4348427 6.17349982,10.4348427 C4.14468189,11.2992552 2.5,13.7877996 2.5,16.009763 L2.5,17.990237 C2.5,18.0775084 2.50278276,18.1641286 2.50826369,18.2500134 C2.50551017,18.2500045 2.50275561,18.25 2.5,18.25 C1.11928806,18.25 0,19.3692881 0,20.75 C0,22.1307119 1.11928806,23.25 2.5,23.25 C3.56752283,23.25 4.47876924,22.5809015 4.83724142,21.6392024 Z M2.50819484,35.7499869 C2.50275931,35.8358541 2.5,35.9224736 2.5,36.009763 L2.5,37.990237 C2.5,40.204768 4.1273926,42.7450483 6.17349982,43.5651579 C6.17349982,43.5651579 12.5,47.1238259 25,47.1238251 C37.5,47.1238237 43.8265002,43.5651573 43.8265002,43.5651573 C45.8553181,42.7007448 47.5,40.2122004 47.5,37.990237 L47.5,36.009763 C47.5,35.9224916 47.4972172,35.8358714 47.4917363,35.7499866 L47.4917363,35.7499866 C47.4944898,35.7499955 47.4972444,35.75 47.5,35.75 C48.8807119,35.75 50,34.6307119 50,33.25 C50,31.8692881 48.8807119,30.75 47.5,30.75 C46.4324772,30.75 45.5212308,31.4190985 45.1627586,32.3607976 C45.0359994,32.3026226 44.9057014,32.2509147 44.7722867,32.206094 C44.3768043,31.3466593 43.5080808,30.75 42.5,30.75 C41.574647,30.75 40.7667172,31.2527483 40.3344555,32 L40.3344555,32 L39.6655466,32 L39.6655441,31.9999993 C39.2332823,31.252748 38.4253527,30.75 37.5,30.75 C36.5746473,30.75 35.7667177,31.252748 35.3344534,32 L34.6655445,32 C34.2332828,31.2527483 33.425353,30.75 32.5,30.75 C31.5746473,30.75 30.7667177,31.252748 30.3344559,31.9999993 L30.3344534,32 L29.6655445,32 L29.6655445,32 C29.2332828,31.2527483 28.425353,30.75 27.5,30.75 C26.5746473,30.75 25.7667177,31.252748 25.3344534,32 L24.6655445,32 C24.2332828,31.2527483 23.425353,30.75 22.5,30.75 C21.5746473,30.75 20.7667177,31.252748 20.3344559,31.9999993 L20.3344534,32 L19.6655445,32 L19.6655445,32 C19.2332828,31.2527483 18.425353,30.75 17.5,30.75 C16.5746473,30.75 15.7667177,31.252748 15.3344534,32 L14.6655445,32 C14.2332828,31.2527483 13.425353,30.75 12.5,30.75 C11.574647,30.75 10.7667172,31.2527483 10.3344555,32 L10.3344555,32 L9.66554454,32 L9.66554454,32 C9.23328279,31.2527483 8.425353,30.75 7.5,30.75 C6.49248305,30.75 5.62416757,31.345992 5.2283774,32.2046522 C5.09449235,32.2493761 4.96376315,32.3010124 4.83661154,32.3591447 C4.94217977,32.635877 5,32.9361862 5,33.25 C5,34.6279793 3.88513804,35.7455685 2.50819484,35.7499869 L2.50819484,35.7499869 Z M3.7505243,25.75 C3.0598788,25.75 2.5,26.304831 2.5,27 C2.5,27.6903559 3.06896627,28.25 3.7505243,28.25 L46.2494757,28.25 C46.9401212,28.25 47.5,27.695169 47.5,27 C47.5,26.3096441 46.9310337,25.75 46.2494757,25.75 L3.7505243,25.75 Z" id="macaron_F"></path>
                </g>
            </g>
        </g>
    </g>
</svg>