<?xml version="1.0" encoding="UTF-8" standalone="no"?>
<svg width="37px" height="51px" viewBox="0 0 37 51" version="1.1" xmlns="http://www.w3.org/2000/svg" xmlns:xlink="http://www.w3.org/1999/xlink" xmlns:sketch="http://www.bohemiancoding.com/sketch/ns">
    <!-- Generator: Sketch 3.1.1 (8761) - http://www.bohemiancoding.com/sketch -->
    <title>milk_pot_F</title>
    <desc>Created with Sketch.</desc>
    <defs>
        <radialGradient cx="50%" cy="50%" fx="50%" fy="50%" r="50%" id="radialGradient-1">
            <stop stop-color="#FF1B70" offset="0%"></stop>
            <stop stop-color="#FF1C70" offset="100%"></stop>
        </radialGradient>
    </defs>
    <g id="Page-2" stroke="none" stroke-width="1" fill="none" fill-rule="evenodd" sketch:type="MSPage">
        <g id="Artboard-1" sketch:type="MSArtboardGroup" transform="translate(-1683.000000, -625.000000)" fill="#FF4D74">
            <g id="full-icons" sketch:type="MSLayerGroup" transform="translate(1172.000000, 219.000000)">
                <g id="row-5-full-icons" transform="translate(11.000000, 404.000000)" sketch:type="MSShapeGroup">
                    <path d="M521.6,17 C524.770282,17 527,17 527,17 C527,17 527.720331,23.4829712 527.720331,23.4829717 C527.720331,23.4829721 536.999999,23.4829717 536.999999,23.4829717 C536.999999,23.4829717 535.736554,34.3479571 533.728488,37.999794 C531.502852,42.0473008 529.449931,39.0493795 529.769773,41.9279592 C529.92204,43.2983636 530.225939,46.0334506 530.225939,46.0334506 C530.65398,49.8858159 527.868968,53 524.006645,53 L509.993355,53 C506.130453,53 503.346104,49.8850605 503.773046,46.0425879 C503.773046,46.0425879 504.542618,39.1164383 505.313927,32.1746575 C505.405496,31.3505326 503,27.674778 503,23.4776173 C503,19.2804565 500.319087,17 500.319087,17 C500.319087,17 512.498886,17 520.4,17 L520.4,19.0010581 C520.4,19.0010581 518.323037,19.0010581 518.323037,19.0010581 C518.323037,19.0010581 519.33481,25.6407184 519.33481,25.6407184 L522.403115,25.6407184 L523.521972,19.0010581 L521.6,19.0010581 L521.6,17 Z M521.494437,13.9799194 C524.576851,13.7284938 527,11.1472255 527,8 C527,4.68629134 524.313709,2 521,2 C517.686291,2 515,4.68629134 515,8 C515,11.1472255 517.423149,13.7284938 520.505563,13.9799194 L521.494437,13.9799194 Z M503.741219,19 C503.741219,19 504.626466,20.2021809 504.626466,22.6614428 C504.626466,25.1207046 505.717463,28.6530981 505.833565,28.6530981 C505.949667,28.6530981 507,19 507,19 C507,19 503.741219,19 503.741219,19 Z M529.322313,38.4931238 C529.322313,38.493124 530.454514,39.7788113 532.094939,37.873802 C533.735364,35.9687927 535.164121,25.3558739 535.164121,25.3558739 C535.164121,25.3558739 527.720331,25.3558742 527.720331,25.3558739 C527.720331,25.3558735 529.322313,37.8137987 529.322313,38.4931238 Z M521,13 C523.761424,13 526,10.7614239 526,8 C526,5.23857611 523.761424,3 521,3 C518.238576,3 516,5.23857611 516,8 C516,10.7614239 518.238576,13 521,13 Z M521,9 C521.552285,9 524.207628,4.50264938 524.207628,4.50264938 C524.207628,4.50264938 520,7.44771522 520,8 C520,8.55228478 520.447715,9 521,9 Z" id="milk_pot_F"></path>
                </g>
            </g>
        </g>
    </g>
</svg>