<?xml version="1.0" encoding="UTF-8" standalone="no"?>
<svg width="38px" height="54px" viewBox="0 0 38 54" version="1.1" xmlns="http://www.w3.org/2000/svg" xmlns:xlink="http://www.w3.org/1999/xlink" xmlns:sketch="http://www.bohemiancoding.com/sketch/ns">
    <!-- Generator: Sketch 3.1.1 (8761) - http://www.bohemiancoding.com/sketch -->
    <title>mocha_pot_F</title>
    <desc>Created with Sketch.</desc>
    <defs>
        <radialGradient cx="50%" cy="50%" fx="50%" fy="50%" r="50%" id="radialGradient-1">
            <stop stop-color="#FF1B70" offset="0%"></stop>
            <stop stop-color="#FF1C70" offset="100%"></stop>
        </radialGradient>
    </defs>
    <g id="Page-2" stroke="none" stroke-width="1" fill="none" fill-rule="evenodd" sketch:type="MSPage">
        <g id="Artboard-1" sketch:type="MSArtboardGroup" transform="translate(-1383.000000, -720.000000)" fill="#FF4D74">
            <g id="full-icons" sketch:type="MSLayerGroup" transform="translate(1172.000000, 219.000000)">
                <g id="row-6-full-icons-" transform="translate(7.000000, 501.000000)" sketch:type="MSShapeGroup">
                    <path d="M231.602059,29 L230.497253,29 C230.497253,29 230.578568,28.4916878 230.7143,27.6459034 L230.484253,29.0152588 L229.011902,29.4313838 C229.011902,30.123384 229.011902,31.4048462 229.011902,31.4048462 L231.008606,30.7313843 L235.014771,50.0621331 L227,54 L215,54 L206.99115,50.0621338 C206.99115,50.0621338 211.006775,31.0152588 211.006775,31.0152588 C211.681078,31.1815439 213.029683,31.5141142 213.029684,31.5141141 C213.029684,31.5141141 213.029684,30.1616105 213.029684,29.4406678 L213.029684,29.4406678 C212.247826,29.2187146 211.531128,29.0152588 211.531128,29.0152588 C210.859221,25.0285725 210.187314,21.0418863 209.515406,17.0552 C209.39478,16.3394781 204.874037,8 204.874037,8 C204.874037,8 207.989264,8 207.989264,8 L221.002004,5.04650879 L234.014744,8 L233.510754,11 L233.510754,11 L240.2465,11 C241.186154,11 241.819712,11.8932319 241.656469,12.9950893 L239.580883,27.0049107 C239.41755,28.1073772 238.521707,29 237.57976,29 L237.053924,29 C237.092362,28.9941959 237.113188,28.9876502 237.114223,28.9802964 C237.72376,24.6518942 239.013851,15.7941051 239.013851,15.7941051 C239.36727,13.8784398 239.375853,13.0296309 238.482689,13.0296309 L233.133198,13.0296309 C233.133198,13.0296309 230.522415,28.9802964 230.522415,28.9802964 C230.522415,28.9802964 230.956579,28.9891361 231.602059,29 Z M216,11 L216,28 L226,28 L226,11 L216,11 Z M227,10.821652 L231.717257,9.93441888 L228.737617,27.4398008 L227,28.026795 L227,10.821652 Z M215.016861,11.0082235 L212.221146,11.0082235 C212.221146,11.0082235 211.407222,17.0104008 211.407222,17.0104008 C211.407222,17.0104008 212.445721,24.0588706 213.008431,27.4615593 L215.016861,28.0557232 C215.016861,28.0557232 215.016861,11.0082235 215.016861,11.0082235 Z M208.351909,10.333615 L211.226111,11 L210.667102,14.8654821 L208.351909,10.333615 Z M221,7 L230.903991,9.06958008 L225.950866,9.99145508 L211.360935,9.99145508 C211.360935,9.99145508 208.202907,9.32825589 208.202907,9.32825589 C208.202907,9.32825589 210.374826,9.06958008 210.374826,9.06958008 L221,7 Z M221,0 C221,0 219,1.58708281 219,1.58708284 C219,1.58708286 221,5 221,5 C221,5 223,1.58708286 223,1.58708284 C223,1.58708281 221,0 221,0 Z M214,30 L214,31.6618186 C214,31.6618186 215.062867,32 215.062867,32 L216.04656,32 L227.064562,32 L228,31.6618186 L228,30 L214,30 Z M215,33 L215,53 L216,53 L216,33 L215,33 Z M226,33 L226,53 L227,53 L227,33 L226,33 Z" id="mocha_pot_F"></path>
                </g>
            </g>
        </g>
    </g>
</svg>