<?xml version="1.0" encoding="UTF-8" standalone="no"?>
<svg width="40px" height="44px" viewBox="0 0 40 44" version="1.1" xmlns="http://www.w3.org/2000/svg" xmlns:xlink="http://www.w3.org/1999/xlink" xmlns:sketch="http://www.bohemiancoding.com/sketch/ns">
    <!-- Generator: Sketch 3.1.1 (8761) - http://www.bohemiancoding.com/sketch -->
    <title>muffin_F</title>
    <desc>Created with Sketch.</desc>
    <defs>
        <radialGradient cx="50%" cy="50%" fx="50%" fy="50%" r="50%" id="radialGradient-1">
            <stop stop-color="#FF1B70" offset="0%"></stop>
            <stop stop-color="#FF1C70" offset="100%"></stop>
        </radialGradient>
    </defs>
    <g id="Page-2" stroke="none" stroke-width="1" fill="none" fill-rule="evenodd" sketch:type="MSPage">
        <g id="Artboard-1" sketch:type="MSArtboardGroup" transform="translate(-1480.000000, -227.000000)" fill="#FF4D74">
            <g id="full-icons" sketch:type="MSLayerGroup" transform="translate(1172.000000, 219.000000)">
                <g id="row-1-full-icons-" sketch:type="MSShapeGroup">
                    <path d="M327.998616,49.9999991 L318,49.9999991 L310.724377,29.9610407 L345.577804,29.9610407 L338.000001,49.9999991 L328.001357,49.9999991 C328.553018,49.999254 329,49.5442549 329,49.0081969 L329,30.9918031 C329,30.4440454 328.556135,30 328,30 C327.447715,30 327,30.4553056 327,30.9918031 L327,49.0081969 C327,49.5555003 327.443129,49.9992633 327.998616,49.9999991 Z M316.937815,51.9667664 L339.087538,51.9667664 C339.087538,51.9667664 348,30.2736552 348,28 C348,16.9543045 339.045696,8 328,8 C316.954304,8 308,16.9543045 308,28 C308,28.7631427 316.937815,51.9667664 316.937815,51.9667664 Z M342,26 C342.552285,26 343,25.5522848 343,25 C343,24.4477152 342.552285,24 342,24 C341.447715,24 341,24.4477152 341,25 C341,25.5522848 341.447715,26 342,26 Z M328,14 C328.552285,14 329,13.5522848 329,13 C329,12.4477152 328.552285,12 328,12 C327.447715,12 327,12.4477152 327,13 C327,13.5522848 327.447715,14 328,14 Z M334,17 C334.552285,17 335,16.5522848 335,16 C335,15.4477152 334.552285,15 334,15 C333.447715,15 333,15.4477152 333,16 C333,16.5522848 333.447715,17 334,17 Z M316,22 C316.552285,22 317,21.5522848 317,21 C317,20.4477152 316.552285,20 316,20 C315.447715,20 315,20.4477152 315,21 C315,21.5522848 315.447715,22 316,22 Z M326,25 C326.552285,25 327,24.5522848 327,24 C327,23.4477152 326.552285,23 326,23 C325.447715,23 325,23.4477152 325,24 C325,24.5522848 325.447715,25 326,25 Z M334,23 C334.552285,23 335,22.5522848 335,22 C335,21.4477152 334.552285,21 334,21 C333.447715,21 333,21.4477152 333,22 C333,22.5522848 333.447715,23 334,23 Z M322,17 C322.552285,17 323,16.5522848 323,16 C323,15.4477152 322.552285,15 322,15 C321.447715,15 321,15.4477152 321,16 C321,16.5522848 321.447715,17 322,17 Z M334.218693,30.0745385 C333.670525,30.0072319 333.170659,30.4045809 333.105277,30.9370795 L330.909631,48.8191818 C330.842876,49.3628566 331.229317,49.8576857 331.781307,49.9254615 C332.329475,49.9927681 332.829341,49.5954191 332.894723,49.0629205 L335.090369,31.1808182 C335.157124,30.6371434 334.770683,30.1423143 334.218693,30.0745385 Z M340.419219,30.2970427 C339.883339,30.163433 339.338775,30.4969019 339.208984,31.0174632 L334.850424,48.498693 C334.71791,49.03018 335.041165,49.568416 335.580781,49.7029573 C336.116661,49.836567 336.661225,49.5030981 336.791016,48.9825368 L341.149576,31.501307 C341.28209,30.96982 340.958835,30.431584 340.419219,30.2970427 Z M315.961729,30.2562994 C315.423599,30.3805364 315.08978,30.9248865 315.210466,31.4476337 L319.263273,49.0022684 C319.386492,49.5359872 319.918869,49.8688038 320.46075,49.7437006 C320.99888,49.6194636 321.332699,49.0751135 321.212013,48.5523663 L317.159206,30.9977316 C317.035988,30.4640128 316.503611,30.1311962 315.961729,30.2562994 Z M322.165955,30.054781 C321.616696,30.1125105 321.219025,30.6121209 321.275105,31.1456794 L323.158331,49.0633775 C323.215587,49.6081346 323.703436,50.0033509 324.256524,49.945219 C324.805783,49.8874895 325.203454,49.3878791 325.147374,48.8543206 L323.264149,30.9366225 C323.206892,30.3918654 322.719044,29.9966491 322.165955,30.054781 Z" id="muffin_F"></path>
                </g>
            </g>
        </g>
    </g>
</svg>