<?xml version="1.0" encoding="UTF-8" standalone="no"?>
<svg width="53px" height="27px" viewBox="0 0 53 27" version="1.1" xmlns="http://www.w3.org/2000/svg" xmlns:xlink="http://www.w3.org/1999/xlink" xmlns:sketch="http://www.bohemiancoding.com/sketch/ns">
    <!-- Generator: Sketch 3.1.1 (8761) - http://www.bohemiancoding.com/sketch -->
    <title>pie_F</title>
    <desc>Created with Sketch.</desc>
    <defs>
        <radialGradient cx="50%" cy="50%" fx="50%" fy="50%" r="50%" id="radialGradient-1">
            <stop stop-color="#FF1B70" offset="0%"></stop>
            <stop stop-color="#FF1C70" offset="100%"></stop>
        </radialGradient>
    </defs>
    <g id="Page-2" stroke="none" stroke-width="1" fill="none" fill-rule="evenodd" sketch:type="MSPage">
        <g id="Artboard-1" sketch:type="MSArtboardGroup" transform="translate(-1273.000000, -435.000000)" fill="#FF4D74">
            <g id="full-icons" sketch:type="MSLayerGroup" transform="translate(1172.000000, 219.000000)">
                <g id="row-3-full-icons" transform="translate(3.000000, 201.000000)" sketch:type="MSShapeGroup">
                    <path d="M126.715997,18.0278939 C140.261306,18.4698798 150.818198,24.1092039 151,31 C151.01382,31.5238259 150.395787,32.8799591 149.544115,33.1192703 C147.767912,33.6183658 145,32.616291 145,32.616291 C145,32.616291 141.56092,41.0221349 141.560919,41.0221352 C141.560917,41.0221348 109.978812,41.0221348 109.978812,41.0221348 C109.978812,41.0221348 105,32.6162911 105,32.616291 C103.105545,31 101.174255,33.755689 100.017602,33.5939245 C98.6596592,33.4040085 99,31.0548858 99,31 C99,24.1085885 109.724541,18.4696031 123.283985,18.0278635 C123.103674,17.7274818 123,17.3758481 123,17 C123,15.8954304 123.89543,15 125,15 C126.10457,15 127,15.8954304 127,17 C127,17.3758607 126.896319,17.7275055 126.715997,18.0278939 L126.715997,18.0278939 Z M141.796695,31.1271889 C141.200923,31.3825206 141.422134,34.6188337 140.222152,34.7443876 C138.8525,34.887694 135.626182,31.6649587 134.221856,31.6649587 C132.817531,31.6649587 132.486482,35.3530556 130.832395,35.4658327 C128.677095,35.6127829 126.491757,31.3464383 125.000001,31.6649587 C123.508245,31.9834791 121.83752,35.7139549 119.48174,35.7139549 C117.12596,35.713955 115.530901,31.7876555 114.573866,31.6649587 C113.140974,31.4812544 109.960465,34.2906714 109.052508,34.2906714 C108.144551,34.2906714 107.580146,33.3581753 107.580146,33.3581753 L111.177632,39 L140.431159,38.9999999 L143.584018,31.6649587 C143.584018,31.6649587 142.392466,30.8718573 141.796695,31.1271889 Z M127.94966,27.234354 C128.336922,28.1041571 129.12182,28.1596756 128.91458,27.0800398 C128.70734,26.000404 126.939931,23.012768 126.939931,23.012768 C126.939931,23.012768 127.562399,26.3645509 127.94966,27.234354 Z M114.279642,26.8862593 C113.90762,27.7626886 114.412425,28.3709738 115.060683,27.483098 C115.708941,26.5952222 116.93708,23.3941034 116.93708,23.3941034 C116.93708,23.3941034 114.651664,26.00983 114.279642,26.8862593 Z M120.756343,27.1987493 C120.623833,28.1416014 121.350241,28.3633261 121.746611,27.3379224 C122.142981,26.3125186 122.343067,23.0939164 122.343067,23.0939164 C122.343067,23.0939164 120.888852,26.2558972 120.756343,27.1987493 Z M134.271143,27.174101 C134.857326,27.9243803 135.612322,27.7972633 135.15005,26.7998333 C134.687778,25.8024032 131.979971,23.4332174 131.979971,23.4332174 C131.979971,23.4332174 133.684961,26.4238218 134.271143,27.174101 Z" id="pie_F"></path>
                </g>
            </g>
        </g>
    </g>
</svg>