<?xml version="1.0" encoding="UTF-8" standalone="no"?>
<svg width="34px" height="50px" viewBox="0 0 34 50" version="1.1" xmlns="http://www.w3.org/2000/svg" xmlns:xlink="http://www.w3.org/1999/xlink" xmlns:sketch="http://www.bohemiancoding.com/sketch/ns">
    <!-- Generator: Sketch 3.1.1 (8761) - http://www.bohemiancoding.com/sketch -->
    <title>pour_over_F</title>
    <desc>Created with Sketch.</desc>
    <defs>
        <radialGradient cx="50%" cy="50%" fx="50%" fy="50%" r="50%" id="radialGradient-1">
            <stop stop-color="#FF1B70" offset="0%"></stop>
            <stop stop-color="#FF1C70" offset="100%"></stop>
        </radialGradient>
    </defs>
    <g id="Page-2" stroke="none" stroke-width="1" fill="none" fill-rule="evenodd" sketch:type="MSPage">
        <g id="Artboard-1" sketch:type="MSArtboardGroup" transform="translate(-1284.000000, -725.000000)" fill="#FF4D74">
            <g id="full-icons" sketch:type="MSLayerGroup" transform="translate(1172.000000, 219.000000)">
                <g id="row-6-full-icons-" transform="translate(7.000000, 501.000000)" sketch:type="MSShapeGroup">
                    <path d="M126.901226,30 C126.933071,30.0004508 126.949559,30.0006885 126.949559,30.0006885 C126.991221,30.2706974 127.540239,31.757974 128.310299,33.7623533 C128.703284,34.7852496 135.930433,31.5040289 138.092633,36.6006971 C140.254834,41.6973654 132.400898,44.1648448 133.186816,46.1307036 C133.543153,47.0220292 133.764048,47.5752678 133.764048,47.5752678 C135.404143,51.680414 133.145899,55 128.724281,55 L111.576049,55 C107.150242,55 104.852379,51.6574303 106.434273,47.5341616 C106.434273,47.5341616 112.83839,30.9265258 112.993923,30.0006885 C112.993961,30.0004585 112.994018,30.000229 112.994093,30 L110.002462,30 C109.439458,30 109,29.5522847 109,29 C109,28.4438648 109.448817,28 110.002462,28 L129.997538,28 C130.560542,28 131,28.4477153 131,29 C131,29.5561352 130.551183,30 129.997538,30 L126.901226,30 L126.901226,30 Z M132.345531,43.7770975 C132.345531,42.9217844 137.89755,40.3160911 136.296659,37.1090784 C134.832444,34.1758648 129.221935,35.942034 129.211506,35.942034 C129.201077,35.942034 132.345531,43.7770978 132.345531,43.7770975 Z M106.809445,9 L115.89019,28 L124.128923,28 L125.682206,24.7621208 C126.852153,22.3233201 135.821706,21.9886808 137.333148,16.7430835 C138.84459,11.4974861 131.707004,12.2031913 131.98406,11.6256562 C132.403922,10.7504374 133.243646,9 133.243646,9 L106.809445,9 Z M110,11 C110,11 112.005003,15.3743993 113.736184,19.0628558 C114.243152,20.1430016 125.473448,20.5998838 126.245159,18.9642314 C127.782645,15.7055061 130.000001,11 130.000001,11 L110,11 Z M126.716698,22.0208191 C127.602436,20.1772127 134.708116,19.9055461 135.634278,16.4473319 C136.56044,12.9891176 130.945931,13.5904937 131.155684,13.1539073 C131.473551,12.4922875 126.324713,22.8367084 126.716698,22.0208191 Z M106.882734,5.02059507 L109,9 L131,9 L133.165079,5.02059507 L106.882734,5.02059507 Z M108.428937,5.97137767 L110,9 L130,9 L131.709741,5.97137767 L108.428937,5.97137767 Z M114.899144,29.9011765 C115.091489,29.5607257 112.62619,35.9171527 110.219105,42.0877706 C110.219105,42.117814 129.954697,42.117814 129.954697,42.117814 C128.280256,38.0456017 126.605814,33.9733891 124.931373,29.9011765 C124.931373,29.9011765 114.899144,29.9011765 114.899144,29.9011765 Z M121,39 C121.552285,39 122,38.5522848 122,38 C122,37.4477152 121.257117,32.9063524 121,32.9063525 C120.742883,32.9063526 120,37.4477152 120,38 C120,38.5522848 120.447715,39 121,39 Z" id="pour_over_F"></path>
                </g>
            </g>
        </g>
    </g>
</svg>