<?xml version="1.0" encoding="UTF-8" standalone="no"?>
<svg width="52px" height="48px" viewBox="0 0 52 48" version="1.1" xmlns="http://www.w3.org/2000/svg" xmlns:xlink="http://www.w3.org/1999/xlink" xmlns:sketch="http://www.bohemiancoding.com/sketch/ns">
    <!-- Generator: Sketch 3.1.1 (8761) - http://www.bohemiancoding.com/sketch -->
    <title>pudding_F</title>
    <desc>Created with Sketch.</desc>
    <defs>
        <radialGradient cx="50%" cy="50%" fx="50%" fy="50%" r="50%" id="radialGradient-1">
            <stop stop-color="#FF1B70" offset="0%"></stop>
            <stop stop-color="#FF1C70" offset="100%"></stop>
        </radialGradient>
    </defs>
    <g id="Page-2" stroke="none" stroke-width="1" fill="none" fill-rule="evenodd" sketch:type="MSPage">
        <g id="Artboard-1" sketch:type="MSArtboardGroup" transform="translate(-1674.000000, -324.000000)" fill="#FF4D74">
            <g id="full-icons" sketch:type="MSLayerGroup" transform="translate(1172.000000, 219.000000)">
                <g id="row-2-full-icons" transform="translate(3.000000, 103.000000)" sketch:type="MSShapeGroup">
                    <path d="M523.087465,7.31142668 C520.711505,8.11023904 519,10.3559346 519,12.9968185 C519,12.9968185 519,42 519,42 C519,42 531,42 531,42 L531,12.9968185 C531,10.3540065 529.285228,8.11048647 526.912069,7.31181239 C527.576631,6.76154306 528,5.93021316 528,5 C528,3.34314567 526.656854,2 525,2 C523.343146,2 522,3.34314567 522,5 C522,5.92999584 522.423172,6.76115461 523.087465,7.31142668 L523.087465,7.31142668 Z M536.070302,9.25985826 C534.374621,8.33385262 533,9.15142883 533,11.0886284 L533,42 L540,42 L540,14.9153908 C540,12.9771266 538.617025,10.6506153 536.929698,9.72917159 L536.070302,9.25985826 Z M504.366272,19.2302726 C503.611701,20.390619 503,22.4425065 503,23.8243978 L503,42 C503.700929,41.9999997 508,42 508,42 C508,42 508,16.1341723 508,16.1341723 C508,14.7580516 507.386902,14.5852808 506.633728,15.7434784 L504.366272,19.2302726 Z M513.15188,9.55575334 C511.411145,10.4075346 510,12.6729567 510,14.597797 L510,42 L517,42 L517,11.1742165 C517,9.2404268 515.60027,8.35770049 513.84812,9.21506693 L513.15188,9.55575334 Z M499.992336,42 C499.444284,42 499,42.4438648 499,43 C499,43.5522847 499.449543,44 499.992336,44 L550.007664,44 C550.555716,44 551,43.5561352 551,43 C551,42.4477153 550.550457,42 550.007664,42 L499.992336,42 Z M520.002473,48 C519.448823,48 519,48.4438648 519,49 C519,49.5522847 519.455761,50 520.002473,50 L529.997527,50 C530.551177,50 531,49.5561352 531,49 C531,48.4477153 530.544239,48 529.997527,48 L520.002473,48 Z M524,44 L524,48 L526,48 L526,44 L524,44 Z M543.406085,15.6784996 C542.629526,14.5388174 542,14.7276511 542,16.109031 L542,41.9999987 C542,41.9999987 547,42.0000004 547,41.9999999 L547,23.4499718 C547,22.0709038 546.366747,20.0235822 545.593915,18.8893711 L543.406085,15.6784996 Z" id="pudding_F"></path>
                </g>
            </g>
        </g>
    </g>
</svg>