<?xml version="1.0" encoding="UTF-8" standalone="no"?>
<svg width="28px" height="53px" viewBox="0 0 28 53" version="1.1" xmlns="http://www.w3.org/2000/svg" xmlns:xlink="http://www.w3.org/1999/xlink" xmlns:sketch="http://www.bohemiancoding.com/sketch/ns">
    <!-- Generator: Sketch 3.1.1 (8761) - http://www.bohemiancoding.com/sketch -->
    <title>siphon_pot_F</title>
    <desc>Created with Sketch.</desc>
    <defs>
        <radialGradient cx="50%" cy="50%" fx="50%" fy="50%" r="50%" id="radialGradient-1">
            <stop stop-color="#FF1B70" offset="0%"></stop>
            <stop stop-color="#FF1C70" offset="100%"></stop>
        </radialGradient>
    </defs>
    <g id="Page-2" stroke="none" stroke-width="1" fill="none" fill-rule="evenodd" sketch:type="MSPage">
        <g id="Artboard-1" sketch:type="MSArtboardGroup" transform="translate(-1490.000000, -722.000000)" fill="#FF4D74">
            <g id="full-icons" sketch:type="MSLayerGroup" transform="translate(1172.000000, 219.000000)">
                <g id="row-6-full-icons-" transform="translate(7.000000, 501.000000)" sketch:type="MSShapeGroup">
                    <path d="M322,24 L322,25 L331.895562,25 C335.205998,25 337.892624,27.6857744 337.892624,30.998845 L337.892624,32.051501 C338.533697,32.2238199 339,32.8087012 339,33.5037099 L339,48.4962901 C339,49.2281861 338.492258,49.8241778 337.815146,49.9672562 C337.352963,52.8189752 334.878612,55 331.895562,55 L315.892624,55 L315.892624,54 L331.889281,54 C334.358221,54 336.41898,52.2013388 336.821455,49.8390007 C336.332271,49.5911798 336,49.0829714 336,48.4962901 L336,33.5037099 C336,32.8816394 336.366795,32.3577468 336.892624,32.1266766 L336.892624,32.1266766 L336.892624,31.0058389 C336.892624,28.2440262 334.652551,26 331.889281,26 L322,26 L322,27.0444377 C327.053323,27.4959897 331,31.3331865 331,36 C331,40.970563 326.522848,45 321,45 C315.477152,45 311,40.970563 311,36 C311,31.3331865 314.946677,27.4959897 320,27.0444377 L320,26 L315.892624,26 C315.892624,26 315.892624,25 315.892624,25 L320,25 L320,24 L319.003331,24 C315.67804,24 313,21.3150239 313,18.0029381 C313,18.0029381 313,1.99999999 313,1.99999999 C313,1.99999999 329,2.00000001 329,1.99999999 L329,18.0029381 C329,21.3133742 326.312217,24 322.996669,24 L322,24 L322,24 Z M322,29.054157 C325.155231,29.3984272 327.739841,31.3504471 328.649275,33.943732 C328.877289,34.5939217 329,35.2844218 329,36 L313,36 C313,35.2714499 313.1272,34.5688954 313.363229,33.9084123 C314.283666,31.3327365 316.85911,29.3968625 320,29.054157 L320,32.0046024 C320,32.5543453 320.443865,33 321,33 C321.552285,33 322,32.5443356 322,32.0046024 L322,29.054157 L322,29.054157 Z M322.047112,6 C322.047112,5.99999999 322.047112,9.05243063 322.047112,9.05243063 L320.017048,9.05243063 C320.017048,8.03495376 320.017048,7.01747688 320.017048,6 C320.017048,6 315,6 315,6 C315,6 315,16.0259837 315,16.0259837 L315,15.9447784 L327,15.9447784 C327,12.6298521 327,9.31492604 327,6 C327,6 322.047112,6.00000001 322.047112,6 Z M314,46 C314,46 315.380661,52.0429798 315.380661,52.0429798 C315.627603,53.1238122 316.715754,54 317.835879,54 L324.234563,54 C325.343601,54 326.434066,53.1286308 326.672549,52.0429798 C326.672549,52.0429798 328,46 328,46 C328,46 314,46 314,46 Z M316.106976,47.854622 L316.901122,51.0385476 C317.033565,51.5695431 317.582165,52 318.143595,52 L323.929859,52 C324.483615,52 325.03527,51.556372 325.160053,51.0176033 C325.160053,51.0176033 325.892624,47.854622 325.892624,47.854622 C325.892624,47.854622 316.106976,47.854622 316.106976,47.854622 Z" id="siphon_pot_F"></path>
                </g>
            </g>
        </g>
    </g>
</svg>