<?xml version="1.0" encoding="UTF-8" standalone="no"?>
<svg width="53px" height="47px" viewBox="0 0 53 47" version="1.1" xmlns="http://www.w3.org/2000/svg" xmlns:xlink="http://www.w3.org/1999/xlink" xmlns:sketch="http://www.bohemiancoding.com/sketch/ns">
    <!-- Generator: Sketch 3.1.1 (8761) - http://www.bohemiancoding.com/sketch -->
    <title>slice_cake_f</title>
    <desc>Created with Sketch.</desc>
    <defs>
        <radialGradient cx="50%" cy="50%" fx="50%" fy="50%" r="50%" id="radialGradient-1">
            <stop stop-color="#FF1B70" offset="0%"></stop>
            <stop stop-color="#FF1C70" offset="100%"></stop>
        </radialGradient>
    </defs>
    <g id="Page-2" stroke="none" stroke-width="1" fill="none" fill-rule="evenodd" sketch:type="MSPage">
        <g id="Artboard-1" sketch:type="MSArtboardGroup" transform="translate(-1575.000000, -325.000000)" fill="#FF4D74">
            <g id="full-icons" sketch:type="MSLayerGroup" transform="translate(1172.000000, 219.000000)">
                <g id="row-2-full-icons" transform="translate(3.000000, 103.000000)" sketch:type="MSShapeGroup">
                    <path d="M427.676999,7.89847636 L400.45497,32.7535226 C400.45497,32.7535226 400.45497,49.5805375 400.45497,49.5805375 C400.45497,49.5805375 448.999998,39.1638124 448.999998,39.1638124 L449,23.8292943 L449,23.8292943 C449.312779,23.9398458 449.649365,24 450,24 C451.656854,24 453,22.6568543 453,21 C453,19.3431457 451.656854,18 450,18 C449.647543,18 449.309282,18.0607808 448.995127,18.1724327 C448.998361,18.1153671 449,18.057875 449,18 C449,16.3431457 447.656854,15 446,15 C445.647543,15 445.309282,15.0607808 444.995127,15.1724327 C444.998361,15.1153671 445,15.057875 445,15 C445,13.3431457 443.656854,12 442,12 C441.647543,12 441.309282,12.0607808 440.995127,12.1724327 C440.998361,12.1153671 441,12.057875 441,12 C441,10.3431457 439.656854,9 438,9 C437.647543,9 437.309282,9.06078083 436.995127,9.17243268 C436.998361,9.11536714 437,9.05787496 437,9 C437,7.34314567 435.656854,6 434,6 C433.647543,6 433.309282,6.06078083 432.995127,6.17243268 C432.998361,6.11536714 433,6.05787496 433,6 C433,4.34314567 431.656854,3 430,3 C428.343146,3 427,4.34314567 427,6 C427,6.72031461 427.253863,7.38133637 427.676999,7.89847636 Z M447.12829,29.7264414 C447.12829,27.8567732 447.12829,24.651628 447.12829,24.651628 L402.612036,34.1780319 L402.612036,39.8760686 C402.612036,39.8760686 405.041857,35.5694387 406.796879,35.3354459 C408.5519,35.101453 408.094709,39.5217751 410.625247,38.8076863 C413.155784,38.0935975 414.771816,33.9194232 416.67941,33.3767457 C418.587004,32.8340682 418.910664,36.4875552 420.952938,35.869637 C421.89681,35.5840554 424.790374,31.5807497 425.760656,31.3290143 C426.986091,31.0110807 429.10579,34.5243655 430.301279,34.1780324 C432.088149,33.6603762 434.003862,29.3341931 435.643186,28.9251551 C437.066655,28.5699765 438.465474,32.6137637 439.649618,32.2638483 C441.467791,31.7265769 442.978507,28.000802 444.190241,27.589678 C445.401974,27.1785541 447.12829,32.1303002 447.12829,29.7264414 Z M428.609674,10.3175057 L445.525718,22.603896 L405,31.1509503 L428.609674,10.3175057 Z" id="slice_cake_f"></path>
                </g>
            </g>
        </g>
    </g>
</svg>