<?xml version="1.0" encoding="UTF-8" standalone="no"?>
<svg width="42px" height="31px" viewBox="0 0 42 31" version="1.1" xmlns="http://www.w3.org/2000/svg" xmlns:xlink="http://www.w3.org/1999/xlink" xmlns:sketch="http://www.bohemiancoding.com/sketch/ns">
    <!-- Generator: Sketch 3.1.1 (8761) - http://www.bohemiancoding.com/sketch -->
    <title>tea_cup_F</title>
    <desc>Created with Sketch.</desc>
    <defs>
        <radialGradient cx="50%" cy="50%" fx="50%" fy="50%" r="50%" id="radialGradient-1">
            <stop stop-color="#FF1B70" offset="0%"></stop>
            <stop stop-color="#FF1C70" offset="100%"></stop>
        </radialGradient>
    </defs>
    <g id="Page-2" stroke="none" stroke-width="1" fill="none" fill-rule="evenodd" sketch:type="MSPage">
        <g id="Artboard-1" sketch:type="MSArtboardGroup" transform="translate(-1679.000000, -536.000000)" fill="#FF4D74">
            <g id="full-icons" sketch:type="MSLayerGroup" transform="translate(1172.000000, 219.000000)">
                <g id="row-4-full-icons" transform="translate(8.000000, 302.000000)" sketch:type="MSShapeGroup">
                    <path d="M532.46075,16.739389 C532.764684,15.7056531 533,15 533,15 C533,15 507,15 507,15 C507,15 508.942406,19.6395626 508.942406,23.3771925 C508.942406,27.1148224 507.974048,34.0656602 507.974048,34.0656602 C507.766603,35.755457 508.107836,37.321876 508.858164,38.6087925 C502.936897,39.3161098 499,40.5704823 499,42 C499,44.2091391 508.40202,46 520,46 C531.59798,46 541,44.2091391 541,42 C541,40.5713336 537.06779,39.3176038 531.152412,38.6100567 L531.152412,38.6100567 C531.909839,37.3206593 532.259841,35.7506143 532.064911,34.0571397 C532.064911,34.0571397 532.059327,34.0150138 532.04902,33.9356142 C532.596114,34.2003087 533.280989,34.3169461 534.043574,34.1975103 C535.555567,33.9607021 536.477432,32.8254163 536.417936,32.2593568 C536.358441,31.6932973 535.287896,30.4530784 535.21699,31.8392837 C535.146084,33.2254891 533.248946,33.0279195 533.387371,32.0315844 C533.922294,28.181395 539.166536,24.1169152 540.304406,20.2038606 C540.732528,18.7315774 539.978141,17.0996643 538.361063,16.4533562 C536.743986,15.807048 534.399959,15.7750561 532.705921,16.6083755 C532.62196,16.6496769 532.540187,16.6933855 532.46075,16.739389 Z M531.408276,20.954721 C531.237513,21.8515606 531.124327,22.7010356 531.124327,23.3771925 C531.124327,25.0420872 531.32733,27.4650776 531.544718,29.5824541 C533.671009,25.8585095 539.013266,22.6586478 538.638128,19.0894462 C538.624338,18.9582412 538.145993,17.1681761 535.842679,17.3447373 C533.539365,17.5212988 533.072496,18.7490119 532.978108,19.1980608 C532.859475,19.7624515 533.080576,20.1917197 534.034583,20.5894393 C535.218125,21.0828501 531.939469,21.7190752 531.523352,21.1267867 C531.483011,21.0693674 531.444665,21.0120034 531.408276,20.954721 Z M529.724738,40.3167179 C534.702758,40.6725059 538,41.2934689 538,42 C538,43.1045696 529.941126,44 520,44 C510.058874,44 502,43.1045696 502,42 C502,41.2932264 505.299506,40.6720796 510.280389,40.3163516 C511.508909,41.3711954 513.140965,42 514.995275,42 L525.004725,42 C526.860982,42 528.493446,41.3713044 529.724738,40.3167179 L529.724738,40.3167179 Z" id="tea_cup_F"></path>
                </g>
            </g>
        </g>
    </g>
</svg>