<?xml version="1.0" encoding="UTF-8" standalone="no"?>
<svg width="50px" height="53px" viewBox="0 0 50 53" version="1.1" xmlns="http://www.w3.org/2000/svg" xmlns:xlink="http://www.w3.org/1999/xlink" xmlns:sketch="http://www.bohemiancoding.com/sketch/ns">
    <!-- Generator: Sketch 3.1.1 (8761) - http://www.bohemiancoding.com/sketch -->
    <title>wedding_cake_F</title>
    <desc>Created with Sketch.</desc>
    <defs>
        <radialGradient cx="50%" cy="50%" fx="50%" fy="50%" r="50%" id="radialGradient-1">
            <stop stop-color="#FF1B70" offset="0%"></stop>
            <stop stop-color="#FF1C70" offset="100%"></stop>
        </radialGradient>
    </defs>
    <g id="Page-2" stroke="none" stroke-width="1" fill="none" fill-rule="evenodd" sketch:type="MSPage">
        <g id="Artboard-1" sketch:type="MSArtboardGroup" transform="translate(-1375.000000, -221.000000)" fill="#FF4D74">
            <g id="full-icons" sketch:type="MSLayerGroup" transform="translate(1172.000000, 219.000000)">
                <g id="row-1-full-icons-" sketch:type="MSShapeGroup">
                    <path d="M222.006845,53 C221.45078,53 221,53.4438648 221,54 C221,54.5522847 221.449949,55 222.006845,55 L233.993155,55 C234.54922,55 235,54.5561352 235,54 C235,53.4477153 234.550051,53 233.993155,53 L222.006845,53 Z M203.998769,43 C203.447164,43 203,43.4438648 203,44 C203,44.5522847 203.447526,45 203.998769,45 L252.001231,45 C252.552836,45 253,44.5561352 253,44 C253,43.4477153 252.552474,43 252.001231,43 L203.998769,43 Z M227,45 L227,53 L229,53 L229,45 L227,45 Z M210.003681,28 C208.344794,28 207,29.3414923 207,30.9929765 L207,38.7143088 C207,40.1428726 207,43 207,43 L249,43 C249,43 249,30.9994225 249,30.9994225 C249,29.3428872 247.650154,28 245.996319,28 L210.003681,28 Z M216.000019,15 C214.343154,15 213,16.3422643 213,17.9987856 C213,17.9987856 213,28 213,28 L243,28 L243,17.9987856 C243,16.3426021 241.652681,15 239.999981,15 L216.000019,15 Z M221.99254,6 C220.339806,6 219,7.34739093 219,8.99686968 L219,15 L237,15 L237,8.99686968 C237,7.34174426 235.647074,6 234.00746,6 L221.99254,6 Z M228,6 C229.10457,6 230,5.10456955 230,4 C230,2.89543045 229.10457,2 228,2 C226.89543,2 226,2.89543045 226,4 C226,5.10456955 226.89543,6 228,6 Z M232,11 C232.552285,11 233,10.5522848 233,10 C233,9.44771522 232.552285,9 232,9 C231.447715,9 231,9.44771522 231,10 C231,10.5522848 231.447715,11 232,11 Z M228,11 C228.552285,11 229,10.5522848 229,10 C229,9.44771522 228.552285,9 228,9 C227.447715,9 227,9.44771522 227,10 C227,10.5522848 227.447715,11 228,11 Z M224,11 C224.552285,11 225,10.5522848 225,10 C225,9.44771522 224.552285,9 224,9 C223.447715,9 223,9.44771522 223,10 C223,10.5522848 223.447715,11 224,11 Z M238,20 C238.552285,20 239,19.5522848 239,19 C239,18.4477152 238.552285,18 238,18 C237.447715,18 237,18.4477152 237,19 C237,19.5522848 237.447715,20 238,20 Z M234,20 C234.552285,20 235,19.5522848 235,19 C235,18.4477152 234.552285,18 234,18 C233.447715,18 233,18.4477152 233,19 C233,19.5522848 233.447715,20 234,20 Z M230,20 C230.552285,20 231,19.5522848 231,19 C231,18.4477152 230.552285,18 230,18 C229.447715,18 229,18.4477152 229,19 C229,19.5522848 229.447715,20 230,20 Z M226,20 C226.552285,20 227,19.5522848 227,19 C227,18.4477152 226.552285,18 226,18 C225.447715,18 225,18.4477152 225,19 C225,19.5522848 225.447715,20 226,20 Z M222,20 C222.552285,20 223,19.5522848 223,19 C223,18.4477152 222.552285,18 222,18 C221.447715,18 221,18.4477152 221,19 C221,19.5522848 221.447715,20 222,20 Z M218,20 C218.552285,20 219,19.5522848 219,19 C219,18.4477152 218.552285,18 218,18 C217.447715,18 217,18.4477152 217,19 C217,19.5522848 217.447715,20 218,20 Z M244,33 C244.552285,33 245,32.5522848 245,32 C245,31.4477152 244.552285,31 244,31 C243.447715,31 243,31.4477152 243,32 C243,32.5522848 243.447715,33 244,33 Z M240,33 C240.552285,33 241,32.5522848 241,32 C241,31.4477152 240.552285,31 240,31 C239.447715,31 239,31.4477152 239,32 C239,32.5522848 239.447715,33 240,33 Z M236,33 C236.552285,33 237,32.5522848 237,32 C237,31.4477152 236.552285,31 236,31 C235.447715,31 235,31.4477152 235,32 C235,32.5522848 235.447715,33 236,33 Z M232,33 C232.552285,33 233,32.5522848 233,32 C233,31.4477152 232.552285,31 232,31 C231.447715,31 231,31.4477152 231,32 C231,32.5522848 231.447715,33 232,33 Z M228,33 C228.552285,33 229,32.5522848 229,32 C229,31.4477152 228.552285,31 228,31 C227.447715,31 227,31.4477152 227,32 C227,32.5522848 227.447715,33 228,33 Z M224,33 C224.552285,33 225,32.5522848 225,32 C225,31.4477152 224.552285,31 224,31 C223.447715,31 223,31.4477152 223,32 C223,32.5522848 223.447715,33 224,33 Z M220,33 C220.552285,33 221,32.5522848 221,32 C221,31.4477152 220.552285,31 220,31 C219.447715,31 219,31.4477152 219,32 C219,32.5522848 219.447715,33 220,33 Z M216,33 C216.552285,33 217,32.5522848 217,32 C217,31.4477152 216.552285,31 216,31 C215.447715,31 215,31.4477152 215,32 C215,32.5522848 215.447715,33 216,33 Z M212,33 C212.552285,33 213,32.5522848 213,32 C213,31.4477152 212.552285,31 212,31 C211.447715,31 211,31.4477152 211,32 C211,32.5522848 211.447715,33 212,33 Z" id="wedding_cake_F"></path>
                </g>
            </g>
        </g>
    </g>
</svg>