<?xml version="1.0" encoding="UTF-8" standalone="no"?>
<svg width="40px" height="48px" viewBox="0 0 40 48" version="1.1" xmlns="http://www.w3.org/2000/svg" xmlns:xlink="http://www.w3.org/1999/xlink" xmlns:sketch="http://www.bohemiancoding.com/sketch/ns">
    <!-- Generator: Sketch 3.1.1 (8761) - http://www.bohemiancoding.com/sketch -->
    <title>airplane_L</title>
    <desc>Created with Sketch.</desc>
    <defs></defs>
    <g id="Page-1" stroke="none" stroke-width="1" fill="none" fill-rule="evenodd" sketch:type="MSPage">
        <g id="line-icons" sketch:type="MSLayerGroup" transform="translate(-404.000000, -497.000000)" fill="#8B572A">
            <g id="row-6-line-icons" transform="translate(18.000000, 496.000000)" sketch:type="MSShapeGroup">
                <path d="M406,1 C403.238576,1 401,3.23518541 401,6.00064433 C401,6.00064433 401,18.3693905 401,18.3693905 C401.000001,18.3693905 392.908722,23.9611702 388.155708,27.176445 C386.620914,28.2146878 386.423288,33.6069908 386.423288,33.6069908 C386.423288,33.6069908 401,27.1764448 401,27.176445 C401,27.1764456 401,38.6888665 401,43 C401,43 396.019063,48.1131859 396.019063,48.1131859 L416.273269,48.1131859 C416.273269,48.1131859 411,43 411,43 C411,37.7584965 411,27.176445 411,27.176445 L425.532511,33.6069908 C425.532511,33.6069908 426.032175,29.2601033 423.717146,27.176445 C421.402117,25.0927868 411,18.3693905 411,18.3693905 L411,6.00064433 C411,3.23886473 408.755805,1 406,1 Z M405.987718,2.92071215 C404.284509,2.92071215 402.903786,4.29792288 402.903786,5.99531853 L402.903786,19.3242502 C402.903786,19.7249682 389.896496,28.097552 389.418866,28.6254584 C388.941236,29.1533648 388.749307,30.4354235 388.749307,30.4354235 C388.749307,30.4354235 402.903786,24.2513761 402.903786,24.2513769 C402.903786,24.2513777 402.903786,37.1678737 402.903786,43.6261222 C402.903786,43.6261222 400.337368,46.2723853 400.337368,46.2723853 L411.770702,46.2723853 L409.035721,43.6261222 C409.035721,37.2338819 409.03572,24.2513796 409.03572,24.2513777 C409.03572,24.2513767 423.437395,30.4354235 423.437395,30.4354235 C423.437395,30.4354235 423.209299,29.6937662 422.367601,28.6254584 C421.525903,27.5571505 409.03572,19.3242507 409.03572,19.3242499 C409.035721,19.3242491 409.035721,6.006092 409.035721,6.006092 C409.035721,4.30208377 407.659595,2.92071215 405.951789,2.92071215 L405.987718,2.92071215 Z" id="airplane_L"></path>
            </g>
        </g>
    </g>
</svg>