<?xml version="1.0" encoding="UTF-8" standalone="no"?>
<svg width="38px" height="38px" viewBox="0 0 38 38" version="1.1" xmlns="http://www.w3.org/2000/svg" xmlns:xlink="http://www.w3.org/1999/xlink" xmlns:sketch="http://www.bohemiancoding.com/sketch/ns">
    <!-- Generator: Sketch 3.1.1 (8761) - http://www.bohemiancoding.com/sketch -->
    <title>binder_clip_L</title>
    <desc>Created with Sketch.</desc>
    <defs></defs>
    <g id="Page-1" stroke="none" stroke-width="1" fill="none" fill-rule="evenodd" sketch:type="MSPage">
        <g id="line-icons" sketch:type="MSLayerGroup" transform="translate(-404.000000, -104.000000)" fill="#8B572A">
            <g id="row-2-line-icons" transform="translate(8.000000, 98.000000)" sketch:type="MSShapeGroup">
                <path d="M420,44 L410,44 L410,44 C410,43.4477152 409.552285,43 409,43 C408.447715,43 408,43.4477152 408,44 L400.998154,44 C400.447365,44 400,43.5522847 400,43 C400,42.4673284 400.409975,42.0376536 400.928962,42.0023454 L400.928962,42.0023454 C399.546022,38.7547187 396.962891,32.6886243 396.962891,32.6886243 C396.094003,30.6481706 397.182656,29 399.391344,29 L431.018279,29 C433.224894,29 434.295914,30.6428521 433.405837,32.6694128 L429.289285,42.0421377 C429.700199,42.1658484 430,42.5478857 430,43 C430,43.5561352 429.553111,44 429.001846,44 L422,44 C422,43.4477152 421.552285,43 421,43 C420.447715,43 420,43.4477152 420,44 Z M399.281457,30.8908866 C398.730376,30.8908866 398.452325,31.3012926 398.666819,31.8231419 C398.666819,31.8231419 402.870484,42.0503486 402.870484,42.0503486 C402.870485,42.0503486 406.483045,42.0503477 406.483045,42.0503486 C406.483045,42.0503496 408.690156,30.8908866 408.690156,30.8908866 L399.281457,30.8908866 Z M431.099209,30.8996669 C431.651754,30.8996669 431.928512,31.3101097 431.714843,31.8224695 C431.714843,31.8224695 427.44543,42.0601299 427.44543,42.0601299 C427.44543,42.0601299 423.705759,42.0601301 423.705759,42.0601301 L421.465152,30.8996669 L431.099209,30.8996669 Z M410.5964,31 L408.389234,42 L421.699245,42 L419.458637,31 L410.5964,31 Z M413.738047,14 L409.994783,14 C407.791716,14 406,12.209139 406,10 C406,7.79535615 407.788525,6 409.994783,6 L420.005217,6 C422.208284,6 424,7.790861 424,10 C424,12.2046438 422.211475,14 420.005217,14 L416.394829,14 L419.027707,29 L421.045129,29 L418.01779,14 L416.394829,14 L416.046472,12.0153438 L414.10126,12.0153438 L413.738047,14 Z M410.992882,29 L409.005719,29 L411.974931,14 L413.738047,14 L413.738047,14 Z M410.005859,8 C408.898054,8 408,8.88772964 408,10 C408,11.1045695 408.89706,12 410.005859,12 L419.994141,12 C421.101946,12 422,11.1122704 422,10 C422,8.8954305 421.10294,8 419.994141,8 L410.005859,8 Z" id="binder_clip_L"></path>
            </g>
        </g>
    </g>
</svg>