<?xml version="1.0" encoding="UTF-8" standalone="no"?>
<svg width="44px" height="48px" viewBox="0 0 44 48" version="1.1" xmlns="http://www.w3.org/2000/svg" xmlns:xlink="http://www.w3.org/1999/xlink" xmlns:sketch="http://www.bohemiancoding.com/sketch/ns">
    <!-- Generator: Sketch 3.1.1 (8761) - http://www.bohemiancoding.com/sketch -->
    <title>binder_L</title>
    <desc>Created with Sketch.</desc>
    <defs></defs>
    <g id="Page-1" stroke="none" stroke-width="1" fill="none" fill-rule="evenodd" sketch:type="MSPage">
        <g id="line-icons" sketch:type="MSLayerGroup" transform="translate(-102.000000, -398.000000)" fill="#8B572A">
            <g id="row-5-line-icons" transform="translate(0.000000, 396.000000)" sketch:type="MSShapeGroup">
                <path d="M102,2 L102,50 L146,50 L146,2 L102,2 Z M104,4 L104,48 L116,48 L116,4 L104,4 Z M118,4 L118,48 L130,48 L130,4 L118,4 Z M132,4 L132,48 L144,48 L144,4 L132,4 Z M106,7 L106,33 L114,33 L114,7 L106,7 Z M108,9 L108,31 L112,31 L112,9 L108,9 Z M110,45 C112.209139,45 114,43.2091391 114,41 C114,38.7908609 112.209139,37 110,37 C107.790861,37 106,38.7908609 106,41 C106,43.2091391 107.790861,45 110,45 Z M110,43 C111.10457,43 112,42.1045696 112,41 C112,39.8954304 111.10457,39 110,39 C108.89543,39 108,39.8954304 108,41 C108,42.1045696 108.89543,43 110,43 Z M120,7 L120,33 L128,33 L128,7 L120,7 Z M122,9 L122,31 L126,31 L126,9 L122,9 Z M124,45 C126.209139,45 128,43.2091391 128,41 C128,38.7908609 126.209139,37 124,37 C121.790861,37 120,38.7908609 120,41 C120,43.2091391 121.790861,45 124,45 Z M124,43 C125.10457,43 126,42.1045696 126,41 C126,39.8954304 125.10457,39 124,39 C122.89543,39 122,39.8954304 122,41 C122,42.1045696 122.89543,43 124,43 Z M134,7 L134,33 L142,33 L142,7 L134,7 Z M136,9 L136,31 L140,31 L140,9 L136,9 Z M138,45 C140.209139,45 142,43.2091391 142,41 C142,38.7908609 140.209139,37 138,37 C135.790861,37 134,38.7908609 134,41 C134,43.2091391 135.790861,45 138,45 Z M138,43 C139.10457,43 140,42.1045696 140,41 C140,39.8954304 139.10457,39 138,39 C136.89543,39 136,39.8954304 136,41 C136,42.1045696 136.89543,43 138,43 Z" id="binder_L"></path>
            </g>
        </g>
    </g>
</svg>