<?xml version="1.0" encoding="UTF-8" standalone="no"?>
<svg width="44px" height="37px" viewBox="0 0 44 37" version="1.1" xmlns="http://www.w3.org/2000/svg" xmlns:xlink="http://www.w3.org/1999/xlink" xmlns:sketch="http://www.bohemiancoding.com/sketch/ns">
    <!-- Generator: Sketch 3.1.1 (8761) - http://www.bohemiancoding.com/sketch -->
    <title>briefcase_L</title>
    <desc>Created with Sketch.</desc>
    <defs></defs>
    <g id="Page-1" stroke="none" stroke-width="1" fill="none" fill-rule="evenodd" sketch:type="MSPage">
        <g id="line-icons" sketch:type="MSLayerGroup" transform="translate(-302.000000, -505.000000)" fill="#8B572A">
            <g id="row-6-line-icons" transform="translate(18.000000, 496.000000)" sketch:type="MSShapeGroup">
                <path d="M324,27.9813177 C325.267211,27.9813177 326,27.9813177 326,27.9813177 L326,42.0010702 C326,44.2064245 324.209128,45.9999997 321.999974,45.9999997 L290.000026,45.9999997 C287.796425,45.9999997 286,44.209618 286,42.0010702 L286,27.9813177 C286,27.9813177 286.732789,27.9813177 288,27.9813177 L288,42.002456 C288,43.1056687 288.889893,43.9999994 289.999707,43.9999994 L322.000293,43.9999994 C323.104701,43.9999994 324,43.1039231 324,42.002456 L324,27.9813177 Z M300,28 L286.004923,28 C284.898855,28 284,27.1019465 284,25.9941413 L284,16.0058587 C284,14.8970601 284.897635,14 286.004923,14 L298,14 C298,11.2385761 301.581722,9 306,9 C310.418278,9 314,11.2385761 314,14 L314,14 L325.995077,14 C327.101145,14 328,14.8980535 328,16.0058587 L328,25.9941413 C328,27.1029399 327.102365,28 325.995077,28 L312,28 L312,31 L300,31 L300,28 Z M300,26 L287.008775,26 C286.449219,26 286,25.5543453 286,25.0046024 L286,16.9953976 C286,16.4556644 286.451644,16 287.008775,16 L324.991225,16 C325.550781,16 326,16.4456547 326,16.9953976 L326,25.0046024 C326,25.5443356 325.548356,26 324.991225,26 L312,26 L312,24 L300,24 L300,26 L300,26 Z M312,14 C312,12.3431457 309.313709,11 306,11 C302.686291,11 300,12.3431457 300,14 L312,14 L312,14 Z M302,26 L302,29 L310,29 L310,26 L302,26 Z" id="briefcase_L"></path>
            </g>
        </g>
    </g>
</svg>