<?xml version="1.0" encoding="UTF-8" standalone="no"?>
<svg width="46px" height="42px" viewBox="0 0 46 42" version="1.1" xmlns="http://www.w3.org/2000/svg" xmlns:xlink="http://www.w3.org/1999/xlink" xmlns:sketch="http://www.bohemiancoding.com/sketch/ns">
    <!-- Generator: Sketch 3.1.1 (8761) - http://www.bohemiancoding.com/sketch -->
    <title>cigarette_L</title>
    <desc>Created with Sketch.</desc>
    <defs></defs>
    <g id="Page-1" stroke="none" stroke-width="1" fill="none" fill-rule="evenodd" sketch:type="MSPage">
        <g id="line-icons" sketch:type="MSLayerGroup" transform="translate(-3.000000, -300.000000)" fill="#8B572A">
            <g id="row-4-line-icons" transform="translate(3.000000, 297.000000)" sketch:type="MSShapeGroup">
                <path d="M31.9249048,36.4533727 C31.9738486,36.6269974 32,36.8102316 32,36.999615 L32,43.000385 C32,44.1125667 31.103789,45 29.9982567,45 L2.00174332,45 C0.889261723,45 0,44.1047419 0,43.000385 L0,36.999615 C0,35.8874333 0.89621101,35 2.00174332,35 L6,35 C6,36.6568543 7.34314567,38 9,38 C10.6568543,38 12,36.6568543 12,35 L12,35 L20,35 C20,36.6568543 21.3431457,38 23,38 C24.6568543,38 26,36.6568543 26,35 L29.996214,35 L17.2149587,25.3686333 C16.3300871,24.7018347 16.1560725,23.4506747 16.8201254,22.5694468 L18.0262673,20.9688424 C18.6880547,20.0906209 19.9437355,19.9121002 20.8258488,20.5768202 L44.7850413,38.6313667 C45.6699129,39.2981653 45.8439275,40.5493253 45.1798746,41.4305532 L43.9737327,43.0311576 C43.3119453,43.9093791 42.0562645,44.0878998 41.1741512,43.4231798 L31.9249048,36.4533727 Z M27.5344079,36.6514356 C27.5344084,36.6514356 26.5492966,39.8221123 23.0426152,39.8221123 C19.9235865,39.8221124 18.435894,37 18.435894,37 C15.7278978,37.0000001 13.5705429,37 13.5989919,37 C13.6454887,37 12.338028,39.8221123 8.94271207,39.8221123 C5.90884984,39.8221123 4.50447208,36.6514356 4.37885952,36.6514356 C3.56009341,36.6514356 2.68676629,36.6514356 2.68676629,36.6514356 C2.13548785,36.6514356 1.68858838,37.1087656 1.68858838,37.6475493 L1.68858838,42.3089388 C1.68858838,42.8590772 2.13757682,43.3050525 2.6891524,43.3050525 L29.2721556,43.3050525 C29.8247519,43.3050525 30.2727196,42.8477225 30.2727196,42.3089389 L30.2727196,37.6475493 C30.2727196,37.0974109 29.820543,36.6514356 29.2686222,36.6514356 C29.2686222,36.6514356 27.5344073,36.6514356 27.5344079,36.6514356 Z M19.6222824,22.1741391 L18.4186523,23.7714102 L35.9886335,37.0113407 L37.1922636,35.4140697 L19.6222824,22.1741391 Z M37.9908991,36.0158847 L36.7872691,37.6131557 L42.3777176,41.8258609 L43.5813477,40.2285898 L37.9908991,36.0158847 Z M16.5,3 C16.2238576,3 16,3.22618103 16,3.4963932 L16,18.5036068 C16,18.7777572 16.2319336,19 16.5,19 L16.5,19 C16.7761424,19 17,18.773819 17,18.5036068 L17,3.4963932 C17,3.22224281 16.7680664,3 16.5,3 L16.5,3 Z" id="cigarette_L"></path>
            </g>
        </g>
    </g>
</svg>