<?xml version="1.0" encoding="UTF-8" standalone="no"?>
<svg width="33px" height="46px" viewBox="0 0 33 46" version="1.1" xmlns="http://www.w3.org/2000/svg" xmlns:xlink="http://www.w3.org/1999/xlink" xmlns:sketch="http://www.bohemiancoding.com/sketch/ns">
    <!-- Generator: Sketch 3.1.1 (8761) - http://www.bohemiancoding.com/sketch -->
    <title>coffee_L</title>
    <desc>Created with Sketch.</desc>
    <defs></defs>
    <g id="Page-1" stroke="none" stroke-width="1" fill="none" fill-rule="evenodd" sketch:type="MSPage">
        <g id="line-icons" sketch:type="MSLayerGroup" transform="translate(-108.000000, -302.000000)" fill="#8B572A">
            <g id="row-4-line-icons" transform="translate(3.000000, 297.000000)" sketch:type="MSShapeGroup">
                <path d="M109.054504,5.09410875 L108.000811,10.0171881 L104.999864,10.0171881 C104.999864,10.0171881 104.999864,14.0219104 104.999864,14.0219104 C104.999864,14.0219104 108.000811,14.0219104 108.000811,14.0219104 C108.000811,14.0219104 110.595864,46.1304929 110.595864,46.1304929 C110.773649,48.3302342 112.712393,50.1134769 114.921806,50.1134769 L126.937758,50.1134769 C129.149124,50.1134769 131.08843,48.3244458 131.268122,46.1321736 C131.268122,46.1321736 133.898822,14.0371401 133.898822,14.0371404 C133.898822,14.0371406 137.100331,14.0371404 137.100331,14.0371404 L137.100331,10.0171881 L133.898822,10.0171881 C133.757205,8.62030877 132.966977,5.09410875 132.966977,5.09410875 L109.054504,5.09410875 Z M110.675417,6.99993551 L109.998928,10.0152966 L132.032337,10.0152966 L131.458175,6.99993551 L110.675417,6.99993551 Z M107,11 L107,13 L135,13 L135,11 L107,11 Z M110,14 L110.997443,29.0084324 L130.989189,29.0084324 L132,14 L110,14 Z M121,30 C120.447715,30 120,30.4556644 120,30.9953976 L120,39.0046024 C120,39.5543453 120.443865,40 121,40 C121.552285,40 122,39.5443356 122,39.0046024 L122,30.9953976 C122,30.4456547 121.556135,30 121,30 Z M125.26168,30.0068523 C124.710152,29.977948 124.239203,30.4095563 124.210955,30.9485498 L123.791786,38.9467783 C123.763014,39.4957678 124.182947,39.9640418 124.73832,39.9931477 C125.289848,40.022052 125.760797,39.5904437 125.789045,39.0514502 L126.208214,31.0532217 C126.236986,30.5042322 125.817053,30.0359582 125.26168,30.0068523 Z M116.73832,30.0068523 C116.186792,30.0357567 115.763538,30.5142282 115.791786,31.0532217 L116.210955,39.0514502 C116.239726,39.6004397 116.706307,40.0222535 117.26168,39.9931477 C117.813208,39.9642433 118.236462,39.4857718 118.208214,38.9467783 L117.789045,30.9485498 C117.760274,30.3995603 117.293693,29.9777465 116.73832,30.0068523 Z M129.435779,30.0190265 C128.885596,29.9708917 128.39987,30.3858012 128.352829,30.9234805 L127.654781,38.902208 C127.606868,39.4498589 128.010202,39.9325031 128.564221,39.9809735 C129.114404,40.0291083 129.60013,39.6141988 129.647171,39.0765195 L130.345219,31.097792 C130.393132,30.5501411 129.989798,30.0674969 129.435779,30.0190265 Z M112.651218,30.0121797 C112.100278,30.0507052 111.685439,30.5364906 111.723089,31.0749091 L112.281783,39.0646039 C112.320131,39.6130076 112.794002,40.0266143 113.348782,39.9878203 C113.899722,39.9492948 114.314561,39.4635094 114.276911,38.9250909 L113.718217,30.9353961 C113.679869,30.3869924 113.205998,29.9733857 112.651218,30.0121797 Z" id="coffee_L"></path>
            </g>
        </g>
    </g>
</svg>