<?xml version="1.0" encoding="UTF-8" standalone="no"?>
<svg width="45px" height="40px" viewBox="0 0 45 40" version="1.1" xmlns="http://www.w3.org/2000/svg" xmlns:xlink="http://www.w3.org/1999/xlink" xmlns:sketch="http://www.bohemiancoding.com/sketch/ns">
    <!-- Generator: Sketch 3.1.1 (8761) - http://www.bohemiancoding.com/sketch -->
    <title>folder_L</title>
    <desc>Created with Sketch.</desc>
    <defs></defs>
    <g id="Page-1" stroke="none" stroke-width="1" fill="none" fill-rule="evenodd" sketch:type="MSPage">
        <g id="line-icons" sketch:type="MSLayerGroup" transform="translate(-403.000000, -5.000000)" fill="#8B572A">
            <g id="row-1-line-icons" transform="translate(3.000000, 0.000000)" sketch:type="MSShapeGroup">
                <path d="M400.015987,19 L400.015987,38.9932975 C400.015987,42.3107077 402.70215,45 406.018761,45 L438.013212,45 C441.328453,45 444.015986,42.3152423 444.015986,38.9932975 L444.015987,17 C444.015987,17 444.010619,17 444,17 C444,15.8772227 444,14.6995547 444,14.6995547 C444,12.4857814 442.213079,10.6911635 440.003612,10.6911635 L414.36737,10.6911635 C414.36737,10.6911635 414.36737,8.99903562 414.36737,8.99903562 C414.36737,6.79042923 412.576782,4.99999999 410.365256,4.99999999 L404.002113,4.99999999 C401.791807,4.99999999 400,6.78732986 400,8.99310225 C400,8.99310225 400,19 400,19 L400.015987,19 Z M402,19 C402,19 402,39.009947 402,39.009947 C402,41.2135924 403.796425,43 406.000026,43 L437.999974,43 C440.209128,43 442,41.2157067 442,39.009947 L442,19 C442,19 402,19 402,19 Z M404.915291,6.82243377 C403.263244,6.82243377 401.923996,8.15954301 401.923996,9.82201044 C401.923996,9.82201044 401.923996,17.0502567 401.923996,17.0502567 C401.923996,17.0502567 442.008034,17.0502572 442.008034,17.0502572 L442.008034,15.7641173 C442.008034,14.1069749 440.663808,12.7635955 439.001081,12.7635955 L412.076908,12.7635954 L412.076908,9.82782538 C412.076908,8.16799342 410.72868,6.82243377 409.085613,6.82243377 L404.915291,6.82243377 Z" id="folder_L"></path>
            </g>
        </g>
    </g>
</svg>