<?xml version="1.0" encoding="UTF-8" standalone="no"?>
<svg width="51px" height="32px" viewBox="0 0 51 32" version="1.1" xmlns="http://www.w3.org/2000/svg" xmlns:xlink="http://www.w3.org/1999/xlink" xmlns:sketch="http://www.bohemiancoding.com/sketch/ns">
    <!-- Generator: Sketch 3.1.1 (8761) - http://www.bohemiancoding.com/sketch -->
    <title>highheel_L</title>
    <desc>Created with Sketch.</desc>
    <defs></defs>
    <g id="Page-1" stroke="none" stroke-width="1" fill="none" fill-rule="evenodd" sketch:type="MSPage">
        <g id="line-icons" sketch:type="MSLayerGroup" transform="translate(-198.000000, -506.000000)" fill="#8B572A">
            <g id="row-6-line-icons" transform="translate(18.000000, 496.000000)" sketch:type="MSShapeGroup">
                <path d="M224.70885,24.7180989 L224.70885,41 L226,41 L227.083857,23 L226.614961,23 C228.855854,20.5246926 230.320539,17.0660863 230.205932,13.9888762 C230.205932,13.9888762 230.139694,12.2193302 230.136188,12.10763 C230.052121,9.42950726 230.136188,12.10763 230.136188,12.10763 C230.136188,9.42860713 227.570329,9.75263795 224.390464,12.817 C224.390464,12.817 203.912872,32.9562441 200.032352,34.1204 C196.151832,35.2845558 192.770593,29.0251459 191.505956,30.3584346 C191.505956,30.3584346 189.680483,30.9714601 189.680483,30.9714601 C185.491742,32.3781121 180.971254,36.9082389 180.702568,39.0192032 C180.702568,39.0192032 180.702568,36.6094724 180.702568,39.0192032 C180.702567,41.3112681 202.230798,41.523093 203.363452,41.602927 C204.496107,41.682761 205.296508,41.0000031 205.296508,41.0000031 C214.028339,28.5853264 223.356025,25.5399421 223.356025,25.5399421 C223.820436,25.3082861 224.272653,25.0321714 224.70885,24.7180989 L224.70885,24.7180989 Z M225.052089,13.9751273 C222.034854,16.8335601 219.242343,19.5100579 218.779418,20.1188367 C218.779418,20.1188367 202.828948,35.1264069 199.575095,35.9896748 C196.321243,36.8529427 192.370507,30.7707685 191.208043,32.0053628 C191.208043,32.0053628 190.642738,32.1739569 190.642738,32.1739569 C186.412663,33.4355148 182.544594,37.9674449 182.57537,38.1146405 C182.57537,38.1146405 182.16723,36.3217026 182.57537,38.1146405 C182.98351,39.9075784 201.702512,39.921247 202.743656,39.9951715 C203.784801,40.0690959 204.705366,39.4080628 204.705366,39.4080629 C212.731732,27.9123613 223.313526,23.8033019 223.313526,23.8033019 C227.230874,21.7684279 229.754958,16.5876023 228.955915,12.2570209 L228.838023,11.6180827 C228.838023,11.6180827 228.069324,11.1166944 225.052089,13.9751273 Z" id="highheel_L"></path>
            </g>
        </g>
    </g>
</svg>