<?xml version="1.0" encoding="UTF-8" standalone="no"?>
<svg width="50px" height="37px" viewBox="0 0 50 37" version="1.1" xmlns="http://www.w3.org/2000/svg" xmlns:xlink="http://www.w3.org/1999/xlink" xmlns:sketch="http://www.bohemiancoding.com/sketch/ns">
    <!-- Generator: Sketch 3.1.1 (8761) - http://www.bohemiancoding.com/sketch -->
    <title>ID_card_L</title>
    <desc>Created with Sketch.</desc>
    <defs></defs>
    <g id="Page-1" stroke="none" stroke-width="1" fill="none" fill-rule="evenodd" sketch:type="MSPage">
        <g id="line-icons" sketch:type="MSLayerGroup" transform="translate(-499.000000, -204.000000)" fill="#8B572A">
            <g id="row-3-line-icons" transform="translate(4.000000, 197.000000)" sketch:type="MSShapeGroup">
                <path d="M495,9 L495,44 L545,44 L545,9 L495,9 Z M506.218455,40.5288111 C507.816523,40.0218856 507.816523,38.6678978 507.816523,37.5809596 C507.816523,36.6795504 507.755023,35.3508621 507.230409,34.2273802 C506.870727,33.4580903 506.458864,32.1387721 506.368477,31.1052438 C506.347977,30.8634937 506.235227,30.640484 506.053523,30.4811913 C505.788886,30.2488114 505.252159,29.3980011 504.910182,27.6813883 C504.639023,26.3227154 504.753636,26.0247444 504.864523,25.7380176 C504.912045,25.6152686 504.957705,25.4943935 504.994045,25.3575892 C505.217682,24.5348894 504.968886,21.833473 504.697727,20.3342478 C504.579386,19.6830219 504.728477,17.8314788 505.940773,16.2722846 C507.027273,14.8751941 508.671932,14.096534 510.770386,13.9616038 L512.538045,13.9597297 C514.692409,14.096534 516.338,14.8751941 517.426364,16.2722846 C518.638659,17.8314788 518.785886,19.6830219 518.667545,20.3351849 C518.39825,21.833473 518.146659,24.5348894 518.370295,25.3566522 C518.4085,25.4943935 518.452295,25.6152686 518.499818,25.7380176 C518.610705,26.0247444 518.725318,26.3227154 518.456023,27.6813883 C518.114045,29.3980011 517.575455,30.2488114 517.31175,30.4811913 C517.130977,30.640484 517.018227,30.8634937 516.996795,31.1052438 C516.907341,32.1387721 516.496409,33.4580903 516.135795,34.2273802 C515.723,35.1100491 515.247773,36.2860038 515.247773,37.5425419 C515.247773,38.6294802 515.247773,39.9834679 516.861682,40.4950785 C519.492205,41.2765497 522.447415,41.9712082 522.447416,41.9712082 L500.881642,41.9712082 C500.881642,41.9712082 503.470523,41.3449518 506.218455,40.5288111 Z M542.687136,41.6930473 C542.687136,41.6930473 527.065596,41.6930473 527.065596,41.6930473 C527.065596,41.6930473 519.035114,39.1861456 517.405864,38.7025674 C517.151477,38.6219841 517.111409,38.6088658 517.111409,37.5425419 C517.111409,36.6626841 517.472023,35.7753302 517.823318,35.0257176 C518.2035,34.210514 518.6545,32.8396599 518.816636,31.6093583 C519.2695,31.0808814 519.886364,30.0370458 520.283318,28.0486984 C520.630886,26.296479 520.46875,25.6593083 520.237659,25.0605552 C520.214364,24.9977752 520.189205,24.9349951 520.170568,24.8731521 C520.082977,24.4618022 520.203182,22.3272803 520.502295,20.6706365 C520.707295,19.5340364 520.449182,17.1174728 518.893045,15.1188182 C517.909977,13.854784 516.0305,12.3040229 512.595818,12.0875723 L510.712614,12.0894463 C507.336636,12.3040229 505.454364,13.854784 504.471295,15.1188182 C502.916091,17.1174728 502.657045,19.5340364 502.862977,20.6696995 C503.163023,22.3272803 503.281364,24.4618022 503.195636,24.8647189 C503.177932,24.9349951 503.151841,24.9977752 503.126682,25.0605552 C502.897455,25.6593083 502.733455,26.296479 503.082886,28.0486984 C503.477977,30.0370458 504.094841,31.0808814 504.549568,31.6093583 C504.709841,32.8396599 505.161773,34.210514 505.543818,35.0257176 C505.822432,35.6216597 505.952886,36.4340523 505.952886,37.5809596 C505.952886,38.6472835 505.912818,38.6604017 505.674273,38.7363 C502.586227,39.6527014 499.164099,40.7440383 497.331213,41.5517459 C497.331213,41.5517459 497.331213,11.1819838 497.331213,11.1819838 C497.331213,11.1819836 531.384181,11.1819838 542.687136,11.1819838 L542.687136,41.6930473 Z M528.995398,30 C528.445655,30 528,30.4438648 528,31 C528,31.5522847 528.455664,32 528.995398,32 L537.004602,32 C537.554345,32 538,31.5561352 538,31 C538,30.4477153 537.544336,30 537.004602,30 L528.995398,30 Z M528.002473,25 C527.448823,25 527,25.4438648 527,26 C527,26.5522847 527.455761,27 528.002473,27 L537.997527,27 C538.551177,27 539,26.5561352 539,26 C539,25.4477153 538.544239,25 537.997527,25 L528.002473,25 Z M511,7 L511,9 L529,9 L529,7 L511,7 Z" id="ID_card_L"></path>
            </g>
        </g>
    </g>
</svg>