<?xml version="1.0" encoding="UTF-8" standalone="no"?>
<svg width="40px" height="36px" viewBox="0 0 40 36" version="1.1" xmlns="http://www.w3.org/2000/svg" xmlns:xlink="http://www.w3.org/1999/xlink" xmlns:sketch="http://www.bohemiancoding.com/sketch/ns">
    <!-- Generator: Sketch 3.1.1 (8761) - http://www.bohemiancoding.com/sketch -->
    <title>iMac_L</title>
    <desc>Created with Sketch.</desc>
    <defs></defs>
    <g id="Page-1" stroke="none" stroke-width="1" fill="none" fill-rule="evenodd" sketch:type="MSPage">
        <g id="line-icons" sketch:type="MSLayerGroup" transform="translate(-304.000000, -406.000000)" fill="#8B572A">
            <g id="row-5-line-icons" transform="translate(0.000000, 396.000000)" sketch:type="MSShapeGroup">
                <path d="M305.997292,10 C304.894218,10 304,10.8998975 304,11.9912443 L304,36.0087557 C304,37.1084896 304.894514,38 305.994062,38 L320.000011,38 L320.000011,44.0000877 L327.99975,44.0000877 L327.99975,38 L342.005909,38 C343.107215,38 344,37.1001025 344,36.0087557 L344,11.9912443 C344,10.8915104 343.10846,10 342.002708,10 L305.997292,10 Z M317.000872,44 C316.448106,44 316,44.4438648 316,45 C316,45.5522847 316.444631,46 317.000872,46 L330.999128,46 C331.551894,46 332,45.5561352 332,45 C332,44.4477153 331.555369,44 330.999128,44 L317.000872,44 Z M306,12 L306,32 L342,32 L342,12 L306,12 Z M322,38 L322,44 L326,44 L326,38 L322,38 Z M324,36 C324.552285,36 325,35.5522848 325,35 C325,34.4477152 324.552285,34 324,34 C323.447715,34 323,34.4477152 323,35 C323,35.5522848 323.447715,36 324,36 Z" id="iMac_L"></path>
            </g>
        </g>
    </g>
</svg>