<?xml version="1.0" encoding="UTF-8" standalone="no"?>
<svg width="50px" height="40px" viewBox="0 0 50 40" version="1.1" xmlns="http://www.w3.org/2000/svg" xmlns:xlink="http://www.w3.org/1999/xlink" xmlns:sketch="http://www.bohemiancoding.com/sketch/ns">
    <!-- Generator: Sketch 3.1.1 (8761) - http://www.bohemiancoding.com/sketch -->
    <title>line_chart_L</title>
    <desc>Created with Sketch.</desc>
    <defs></defs>
    <g id="Page-1" stroke="none" stroke-width="1" fill="none" fill-rule="evenodd" sketch:type="MSPage">
        <g id="line-icons" sketch:type="MSLayerGroup" transform="translate(-299.000000, -202.000000)" fill="#8B572A">
            <g id="row-3-line-icons" transform="translate(4.000000, 197.000000)" sketch:type="MSShapeGroup">
                <path d="M328.067743,30.4819568 L320.518043,22.9322568 C320.352817,22.9764427 320.179159,23 320,23 C319.963245,23 319.926722,22.9990085 319.890455,22.9970509 L311.90769,34.3976203 C311.96766,34.5877197 312,34.7900832 312,35 C312,36.1045696 311.10457,37 310,37 C308.89543,37 308,36.1045696 308,35 C308,34.9333718 308.003258,34.8675046 308.009624,34.802549 L308.009624,34.802549 L300.319408,22.9606548 L301.996749,21.8713767 L309.304458,33.1242618 C309.521083,33.0439043 309.755414,33 310,33 C310.142163,33 310.280861,33.0148326 310.414632,33.0430347 L318.214973,21.9029941 L318.214973,21.9029941 C318.07748,21.6317381 318,21.3249173 318,21 C318,19.8954304 318.89543,19 320,19 C321.10457,19 322,19.8954304 322,21 C322,21.1791593 321.976443,21.3528166 321.932257,21.5180432 L329.481957,29.0677432 C329.647183,29.0235573 329.820841,29 330,29 C330.314927,29 330.612854,29.0727892 330.877874,29.2024616 L339.10911,11.5505196 L340.921725,12.3957561 L331.99978,30.9700095 C331.999926,30.9799888 332,30.9899858 332,31 C332,32.1045696 331.10457,33 330,33 C328.89543,33 328,32.1045696 328,31 C328,30.8208407 328.023557,30.6471834 328.067743,30.4819568 L328.067743,30.4819568 Z M295,5 L295,45 L345,45 L345,5 L295,5 Z M297,7 L297,43 L343,43 L343,7 L297,7 Z M330,32 C330.552285,32 331,31.5522848 331,31 C331,30.4477152 330.552285,30 330,30 C329.447715,30 329,30.4477152 329,31 C329,31.5522848 329.447715,32 330,32 Z M320,22 C320.552285,22 321,21.5522848 321,21 C321,20.4477152 320.552285,20 320,20 C319.447715,20 319,20.4477152 319,21 C319,21.5522848 319.447715,22 320,22 Z M310,36 C310.552285,36 311,35.5522848 311,35 C311,34.4477152 310.552285,34 310,34 C309.447715,34 309,34.4477152 309,35 C309,35.5522848 309.447715,36 310,36 Z" id="line_chart_L"></path>
            </g>
        </g>
    </g>
</svg>