<?xml version="1.0" encoding="UTF-8" standalone="no"?>
<svg width="48px" height="48px" viewBox="0 0 48 48" version="1.1" xmlns="http://www.w3.org/2000/svg" xmlns:xlink="http://www.w3.org/1999/xlink" xmlns:sketch="http://www.bohemiancoding.com/sketch/ns">
    <!-- Generator: Sketch 3.1.1 (8761) - http://www.bohemiancoding.com/sketch -->
    <title>memo_L</title>
    <desc>Created with Sketch.</desc>
    <defs></defs>
    <g id="Page-1" stroke="none" stroke-width="1" fill="none" fill-rule="evenodd" sketch:type="MSPage">
        <g id="line-icons" sketch:type="MSLayerGroup" transform="translate(-302.000000, -5.000000)" fill="#8B572A">
            <g id="row-1-line-icons" transform="translate(3.000000, 0.000000)" sketch:type="MSShapeGroup">
                <path d="M305,47 L305,53 L347,53 L347,11 L341,11 L341,5 L299,5 L299,47 L305,47 Z M307,47 L307,51 L345,51 L345,13 L341,13 L341,47 L307,47 L307,47 Z M301,7 L301,45 L339,45 L339,7 L301,7 Z M307.0033,17 C306.449193,17 306,17.4438648 306,18 C306,18.5522847 306.451279,19 307.0033,19 L330.9967,19 C331.550807,19 332,18.5561352 332,18 C332,17.4477153 331.548721,17 330.9967,17 L307.0033,17 Z M306.993398,23 C306.444759,23 306,23.4438648 306,24 C306,24.5522847 306.444946,25 306.993398,25 L323.006602,25 C323.555241,25 324,24.5561352 324,24 C324,23.4477153 323.555054,23 323.006602,23 L306.993398,23 Z" id="memo_L"></path>
            </g>
        </g>
    </g>
</svg>