<?xml version="1.0" encoding="UTF-8" standalone="no"?>
<svg width="36px" height="46px" viewBox="0 0 36 46" version="1.1" xmlns="http://www.w3.org/2000/svg" xmlns:xlink="http://www.w3.org/1999/xlink" xmlns:sketch="http://www.bohemiancoding.com/sketch/ns">
    <!-- Generator: Sketch 3.1.1 (8761) - http://www.bohemiancoding.com/sketch -->
    <title>notepad_L</title>
    <desc>Created with Sketch.</desc>
    <defs></defs>
    <g id="Page-1" stroke="none" stroke-width="1" fill="none" fill-rule="evenodd" sketch:type="MSPage">
        <g id="line-icons" sketch:type="MSLayerGroup" transform="translate(-207.000000, -3.000000)" fill="#8B572A">
            <g id="row-1-line-icons" transform="translate(3.000000, 0.000000)" sketch:type="MSShapeGroup">
                <path d="M210,7 L206,7 L206,47 L238,47 L238,7 L235,7 L235,8.50899482 C235,8.5785199 234.984371,8.64558434 234.956278,8.70663448 C234.984704,8.79940568 235,8.89791652 235,9 C235,9.55228478 234.552285,10 234,10 C233.447715,10 233,9.55228478 233,9 C233,8.44771522 233.447715,8 234,8 L234,7 L231,7 L231,8.50899482 C231,8.5785199 230.984371,8.64558434 230.956278,8.70663448 C230.984704,8.79940568 231,8.89791652 231,9 C231,9.55228478 230.552285,10 230,10 C229.447715,10 229,9.55228478 229,9 C229,8.44771522 229.447715,8 230,8 L230,7 L227,7 L227,8.50899482 C227,8.5785199 226.984371,8.64558434 226.956278,8.70663448 C226.984704,8.79940568 227,8.89791652 227,9 C227,9.55228478 226.552285,10 226,10 C225.447715,10 225,9.55228478 225,9 C225,8.44771522 225.447715,8 226,8 L226,7 L223,7 L223,8.50899482 C223,8.5785199 222.984371,8.64558434 222.956278,8.70663448 C222.984704,8.79940568 223,8.89791652 223,9 C223,9.55228478 222.552285,10 222,10 C221.447715,10 221,9.55228478 221,9 C221,8.44771522 221.447715,8 222,8 L222,7 L219,7 L219,8.50899482 C219,8.5785199 218.984371,8.64558434 218.956278,8.70663448 C218.984704,8.79940568 219,8.89791652 219,9 C219,9.55228478 218.552285,10 218,10 C217.447715,10 217,9.55228478 217,9 C217,8.44771522 217.447715,8 218,8 L218,7 L215,7 L215,8.50899482 C215,8.5785199 214.984371,8.64558434 214.956278,8.70663448 C214.984704,8.79940568 215,8.89791652 215,9 C215,9.55228478 214.552285,10 214,10 C213.447715,10 213,9.55228478 213,9 C213,8.44771522 213.447715,8 214,8 L214,7 L211,7 L211,8.50899482 C211,8.5785199 210.984371,8.64558434 210.956278,8.70663448 C210.984704,8.79940568 211,8.89791652 211,9 C211,9.55228478 210.552285,10 210,10 C209.447715,10 209,9.55228478 209,9 C209,8.44771522 209.447715,8 210,8 L210,7 Z M211,5 L214,5 L214,3.49100518 C214,3.22788048 214.223858,3 214.5,3 C214.768066,3 215,3.21983051 215,3.49100518 L215,5 L218,5 L218,3.49100518 C218,3.22788048 218.223858,3 218.5,3 C218.768066,3 219,3.21983051 219,3.49100518 L219,5 L222,5 L222,3.49100518 C222,3.22788048 222.223858,3 222.5,3 C222.768066,3 223,3.21983051 223,3.49100518 L223,5 L226,5 L226,3.49100518 C226,3.22788048 226.223858,3 226.5,3 C226.768066,3 227,3.21983051 227,3.49100518 L227,5 L230,5 L230,3.49100518 C230,3.22788048 230.223858,3 230.5,3 C230.768066,3 231,3.21983051 231,3.49100518 L231,5 L234,5 L234,3.49100518 C234,3.22788048 234.223858,3 234.5,3 C234.768066,3 235,3.21983051 235,3.49100518 L235,5 L235,5 L240,5 L240,49 L204,49 L204,5 L210,5 L210,3.49100518 C210,3.22788048 210.223858,3 210.5,3 C210.768066,3 211,3.21983051 211,3.49100518 L211,5 Z M210.0033,14 C209.449193,14 209,14.4438648 209,15 L209,15 C209,15.5522847 209.451279,16 210.0033,16 L233.9967,16 C234.550807,16 235,15.5561352 235,15 L235,15 C235,14.4477153 234.548721,14 233.9967,14 L210.0033,14 Z M210.0033,28 C209.449193,28 209,28.4438648 209,29 L209,29 C209,29.5522847 209.451279,30 210.0033,30 L233.9967,30 C234.550807,30 235,29.5561352 235,29 L235,29 C235,28.4477153 234.548721,28 233.9967,28 L210.0033,28 Z M209.998502,21 C209.447045,21 209,21.4438648 209,22 L209,22 C209,22.5522847 209.447489,23 209.998502,23 L221.001498,23 C221.552955,23 222,22.5561352 222,22 L222,22 C222,21.4477153 221.552511,21 221.001498,21 L209.998502,21 Z M209.998502,35 C209.447045,35 209,35.4438648 209,36 L209,36 C209,36.5522847 209.447489,37 209.998502,37 L221.001498,37 C221.552955,37 222,36.5561352 222,36 L222,36 C222,35.4477153 221.552511,35 221.001498,35 L209.998502,35 Z" id="notepad_L"></path>
            </g>
        </g>
    </g>
</svg>