<?xml version="1.0" encoding="UTF-8" standalone="no"?>
<svg width="36px" height="48px" viewBox="0 0 36 48" version="1.1" xmlns="http://www.w3.org/2000/svg" xmlns:xlink="http://www.w3.org/1999/xlink" xmlns:sketch="http://www.bohemiancoding.com/sketch/ns">
    <!-- Generator: Sketch 3.1.1 (8761) - http://www.bohemiancoding.com/sketch -->
    <title>notebook_L</title>
    <desc>Created with Sketch.</desc>
    <defs></defs>
    <g id="Page-1" stroke="none" stroke-width="1" fill="none" fill-rule="evenodd" sketch:type="MSPage">
        <g id="line-icons" sketch:type="MSLayerGroup" transform="translate(-507.000000, -1.000000)" fill="#8B572A">
            <g id="row-1-line-icons" transform="translate(3.000000, 0.000000)" sketch:type="MSShapeGroup">
                <path d="M536,48 L536,49 L504,49 L504,1 L536,1 L536,2 C536.870911,2 537.995118,2 537.995118,2 C539.1061,2 540,2.89525812 540,3.99961498 L540,10.000385 C540,10.6007008 539.738484,11.1355372 539.323639,11.5006819 C539.73894,11.8670642 540,12.4028064 540,12.999615 L540,19.000385 C540,19.6007008 539.738484,20.1355372 539.323639,20.5006819 C539.73894,20.8670642 540,21.4028064 540,21.999615 L540,28.000385 C540,28.6007008 539.738484,29.1355372 539.323639,29.5006819 C539.73894,29.8670642 540,30.4028064 540,30.999615 L540,37.000385 C540,37.6007008 539.738484,38.1355372 539.323639,38.5006819 C539.73894,38.8670642 540,39.4028064 540,39.999615 L540,46.000385 C540,47.1125667 539.102384,48 537.995118,48 L536,48 L536,48 Z M535.974467,38 C535.974467,36.5710768 535.974467,30 535.974467,30 C535.974467,30 538.009327,30 538.009327,30 C538.553572,30 539,30.4467346 539,30.9978096 L539,37.2742993 C539,37.6105794 538.836023,37.9068133 538.584486,38.0873768 C538.398289,38.0305687 538.20041,38 537.995118,38 C537.995118,38 536.848767,38 535.974467,38 L535.974467,38 Z M535.974467,29 C535.974467,27.5710768 535.974467,21 535.974467,21 C535.974467,21 538.009327,21 538.009327,21 C538.553572,21 539,21.4467346 539,21.9978096 L539,28.2742993 C539,28.6105794 538.836023,28.9068133 538.584486,29.0873768 C538.398289,29.0305687 538.20041,29 537.995118,29 C537.995118,29 536.848767,29 535.974467,29 L535.974467,29 Z M535.974467,20 C535.974467,18.5710768 535.974467,12 535.974467,12 C535.974467,12 538.009327,12 538.009327,12 C538.553572,12 539,12.4467346 539,12.9978096 L539,19.2742993 C539,19.6105794 538.836023,19.9068133 538.584486,20.0873768 C538.398289,20.0305687 538.20041,20 537.995118,20 C537.995118,20 536.848767,20 535.974467,20 L535.974467,20 Z M535.974467,11 C535.974467,9.57107681 535.974467,3 535.974467,3 C535.974467,3 538.009327,3 538.009327,3 C538.553572,3 539,3.44673458 539,3.99780961 L539,10.2742993 C539,10.6105794 538.836023,10.9068133 538.584486,11.0873768 C538.398289,11.0305687 538.20041,11 537.995118,11 C537.995118,11 536.848767,11 535.974467,11 L535.974467,11 Z M506,3 L506,47 L534,47 L534,3 L506,3 Z M535.974467,39 C535.974467,39 535.974467,47.272109 535.974467,47.272109 L538.009327,47.2721089 C538.556461,47.2721089 539,46.8273644 539,46.2742993 L539,39.9978096 C539,39.4467346 538.553572,39 538.009327,39 C538.009327,39 535.974467,39 535.974467,39 Z M516.99703,39 C516.446386,39 516,39.4438648 516,40 L516,40 C516,40.5522847 516.453036,41 516.99703,41 L523.00297,41 C523.553614,41 524,40.5561352 524,40 L524,40 C524,39.4477153 523.546964,39 523.00297,39 L516.99703,39 Z M511.993398,9 C511.444759,9 511,9.44386482 511,10 L511,10 C511,10.5522847 511.444946,11 511.993398,11 L528.006602,11 C528.555241,11 529,10.5561352 529,10 L529,10 C529,9.44771525 528.555054,9 528.006602,9 L511.993398,9 Z M519.009369,36 C518.45191,36 518,36.4438648 518,37 L518,37 C518,37.5522847 518.443353,38 519.009369,38 L520.990631,38 C521.54809,38 522,37.5561352 522,37 L522,37 C522,36.4477153 521.556647,36 520.990631,36 L519.009369,36 Z" id="notebook_L"></path>
            </g>
        </g>
    </g>
</svg>