<?xml version="1.0" encoding="UTF-8" standalone="no"?>
<svg width="36px" height="50px" viewBox="0 0 36 50" version="1.1" xmlns="http://www.w3.org/2000/svg" xmlns:xlink="http://www.w3.org/1999/xlink" xmlns:sketch="http://www.bohemiancoding.com/sketch/ns">
    <!-- Generator: Sketch 3.1.1 (8761) - http://www.bohemiancoding.com/sketch -->
    <title>office_chair_L</title>
    <desc>Created with Sketch.</desc>
    <defs></defs>
    <g id="Page-1" stroke="none" stroke-width="1" fill="none" fill-rule="evenodd" sketch:type="MSPage">
        <g id="line-icons" sketch:type="MSLayerGroup" transform="translate(-206.000000, -396.000000)" fill="#8B572A">
            <g id="row-5-line-icons" transform="translate(0.000000, 396.000000)" sketch:type="MSShapeGroup">
                <path d="M213.679393,33 C212.064183,31.9259662 211,30.0900712 211,28.0056959 L211,26.2373678 C210.469244,26.7120337 209.768354,27 209,27 C207.346517,27 206,25.6561086 206,23.9983345 L206,22.0016655 C206,20.3390201 207.343146,19 209,19 C209.76744,19 210.468753,19.2895036 211,19.7655254 L211,19.7655254 L211,15.9943041 C211,12.6832456 213.685204,10 216.997571,10 L231.002429,10 C234.315471,10 237,12.6837413 237,15.9943041 L237,19.7626322 L237,19.7626322 C237.530756,19.2879663 238.231646,19 239,19 C240.653483,19 242,20.3438914 242,22.0016655 L242,23.9983345 C242,25.6609799 240.656854,27 239,27 C238.23256,27 237.531247,26.7104964 237,26.2344746 L237,28.0056959 C237,30.0903003 235.935634,31.926051 234.320502,33 L235.00351,33 C236.649502,33 238,34.3431458 238,36 C238,37.6534829 236.658426,39 235.00351,39 L212.99649,39 C211.350498,39 210,37.6568542 210,36 C210,34.3465171 211.341574,33 212.99649,33 L213.679393,33 L213.679393,33 Z M219.996203,0 C217.789161,0 216,1.79535615 216,4 C216,6.209139 217.78883,8 219.996203,8 L228.003797,8 C230.210839,8 232,6.20464385 232,4 C232,1.790861 230.21117,0 228.003797,0 L219.996203,0 Z M220.00853,2 C218.89925,2 218,2.88772964 218,4 C218,5.1045695 218.90195,6 220.00853,6 L227.99147,6 C229.10075,6 230,5.11227036 230,4 C230,2.8954305 229.09805,2 227.99147,2 L220.00853,2 Z M217.009558,12 C214.79514,12 213,13.7949491 213,15.9937378 L213,28.8474849 C213,31.0531654 214.79152,32.8412228 217.008521,32.8412228 L230.436677,32.8412228 C232.650522,32.8412228 234.49298,31.0462737 234.551513,28.8474849 L234.893685,15.9937378 C234.952401,13.7880573 233.199648,12 230.990442,12 L217.009558,12 Z M209,21 C208.447715,21 208,21.4433532 208,22.0093689 L208,23.9906311 C208,24.5480902 208.443865,25 209,25 C209.552285,25 210,24.5566468 210,23.9906311 L210,22.0093689 C210,21.4519098 209.556135,21 209,21 Z M239,21 C238.447715,21 238,21.4433532 238,22.0093689 L238,23.9906311 C238,24.5480902 238.443865,25 239,25 C239.552285,25 240,24.5566468 240,23.9906311 L240,22.0093689 C240,21.4519098 239.556135,21 239,21 Z M213.000695,35 C212.448026,35 212,35.4438648 212,36 C212,36.5522847 212.447469,37 213.000695,37 L234.999305,37 C235.551974,37 236,36.5561352 236,36 C236,35.4477153 235.552531,35 234.999305,35 L213.000695,35 Z M223,44.027144 L213,50 L216.47087,50 L222.9965,50.0000002 L222.9965,46.1516818 L216.47087,50 L216.47087,50 L225.000043,50 L225.000043,50.0000001 L231.967112,50.0000002 L225.000043,45.9521493 L225.000043,50 L235,50 L225,44.027144 L225,39 L223,39 L223,44.027144 Z M223,8 L223,10 L225,10 L225,8 L223,8 Z" id="office_chair_L"></path>
            </g>
        </g>
    </g>
</svg>