<?xml version="1.0" encoding="UTF-8" standalone="no"?>
<svg width="23px" height="50px" viewBox="0 0 23 50" version="1.1" xmlns="http://www.w3.org/2000/svg" xmlns:xlink="http://www.w3.org/1999/xlink" xmlns:sketch="http://www.bohemiancoding.com/sketch/ns">
    <!-- Generator: Sketch 3.1.1 (8761) - http://www.bohemiancoding.com/sketch -->
    <title>pen_L</title>
    <desc>Created with Sketch.</desc>
    <defs></defs>
    <g id="Page-1" stroke="none" stroke-width="1" fill="none" fill-rule="evenodd" sketch:type="MSPage">
        <g id="line-icons" sketch:type="MSLayerGroup" transform="translate(-112.000000, -103.000000)" fill="#8B572A">
            <g id="row-2-line-icons" transform="translate(8.000000, 98.000000)" sketch:type="MSShapeGroup">
                <path d="M107.530476,13.4323501 C106.677214,13.8439643 106.088857,14.7160796 106.088857,15.7358615 C106.088857,17.0430853 107.07242,18.1211474 108.334847,18.2737965 L103.985921,34.7052062 L115.485921,55.0537548 L126.985921,34.7052062 L122.64132,18.2735132 L122.64132,18.2735132 C123.904541,18.1204671 124.882984,17.05095 124.882984,15.7358615 C124.882984,14.7254013 124.295305,13.8518655 123.445416,13.4368226 L125.936551,5.05375481 L105.054187,5.05375481 L107.530476,13.4323501 L107.530476,13.4323501 Z M110.330506,18.2988161 L120.747509,18.2988161 L124.897684,34.0470594 L115.485921,51.1533397 L106.074157,34.0470594 L110.330506,18.2988161 Z M108.697344,15.2245722 C108.410018,15.2245722 108.177094,15.4617425 108.177094,15.7358615 C108.177094,16.0182388 108.406702,16.2471508 108.697344,16.2471508 L122.274498,16.2471508 C122.561824,16.2471508 122.794748,16.0099804 122.794748,15.7358615 C122.794748,15.4534842 122.56514,15.2245722 122.274498,15.2245722 L108.697344,15.2245722 Z M107.747495,7.15703999 L109.598127,13.2552016 L121.230668,13.2552016 L123.051925,7.15703999 L107.747495,7.15703999 Z M114.469898,33.373015 C114.451535,33.4483521 114.441803,33.526823 114.441803,33.607249 L114.441803,47.9708248 C114.441803,48.5224693 114.884664,48.9696656 115.436994,48.9696656 L115.534848,48.9696656 C116.084477,48.9696656 116.530039,48.5149956 116.530039,47.9708248 L116.530039,33.607249 C116.530039,33.5264543 116.520539,33.4479001 116.502587,33.3726633 C117.14187,33.0230311 117.574157,32.353872 117.574157,31.5858296 C117.574157,30.4563204 116.639222,29.5406724 115.485921,29.5406724 C114.33262,29.5406724 113.397685,30.4563204 113.397685,31.5858296 C113.397685,32.3541296 113.830262,33.02348 114.469898,33.373015 L114.469898,33.373015 Z M115.485921,32.6084082 C116.062571,32.6084082 116.530039,32.1505842 116.530039,31.5858296 C116.530039,31.021075 116.062571,30.563251 115.485921,30.563251 C114.90927,30.563251 114.441803,31.021075 114.441803,31.5858296 C114.441803,32.1505842 114.90927,32.6084082 115.485921,32.6084082 Z" id="pen_L"></path>
            </g>
        </g>
    </g>
</svg>