<?xml version="1.0" encoding="UTF-8" standalone="no"?>
<svg width="30px" height="50px" viewBox="0 0 30 50" version="1.1" xmlns="http://www.w3.org/2000/svg" xmlns:xlink="http://www.w3.org/1999/xlink" xmlns:sketch="http://www.bohemiancoding.com/sketch/ns">
    <!-- Generator: Sketch 3.1.1 (8761) - http://www.bohemiancoding.com/sketch -->
    <title>pencil_L</title>
    <desc>Created with Sketch.</desc>
    <defs></defs>
    <g id="Page-1" stroke="none" stroke-width="1" fill="none" fill-rule="evenodd" sketch:type="MSPage">
        <g id="line-icons" sketch:type="MSLayerGroup" transform="translate(-8.000000, -103.000000)" fill="#8B572A">
            <g id="row-2-line-icons" transform="translate(8.000000, 98.000000)" sketch:type="MSShapeGroup">
                <path d="M18.8739825,23 C18.4299398,24.7252273 16.8638395,26 15,26 C13.1361605,26 11.5700602,24.7252273 11.1260175,23 L11,23 L11,5 L19,5 L19,23 L18.8739825,23 Z M28,22 C28,24.2091391 26.2091391,26 24,26 C21.7908609,26 20,24.2091391 20,22 L20,5 L28,5 L28,22 Z M10,22 C10,24.2091391 8.20913911,26 6,26 C3.79086089,26 2,24.2091391 2,22 L2,5 L10,5 L10,22 Z M0,5 L0,24.9503357 L14.9910631,55.011097 L29.9821262,24.9503365 L29.9821262,5 L0,5 Z M14.9995394,50.1138458 L23,34 L7.02163523,34 L14.9995394,50.1138458 Z" id="pencil_L"></path>
            </g>
        </g>
    </g>
</svg>