<?xml version="1.0" encoding="UTF-8" standalone="no"?>
<svg width="51px" height="48px" viewBox="0 0 51 48" version="1.1" xmlns="http://www.w3.org/2000/svg" xmlns:xlink="http://www.w3.org/1999/xlink" xmlns:sketch="http://www.bohemiancoding.com/sketch/ns">
    <!-- Generator: Sketch 3.1.1 (8761) - http://www.bohemiancoding.com/sketch -->
    <title>presentation_L</title>
    <desc>Created with Sketch.</desc>
    <defs></defs>
    <g id="Page-1" stroke="none" stroke-width="1" fill="none" fill-rule="evenodd" sketch:type="MSPage">
        <g id="line-icons" sketch:type="MSLayerGroup" transform="translate(-99.000000, -198.000000)" fill="#8B572A">
            <g id="row-3-line-icons" transform="translate(4.000000, 197.000000)" sketch:type="MSShapeGroup">
                <path d="M110.009584,1 L130.003906,1 L130.003906,4.99136718 L143.023109,4.99136717 L143.023108,29.1789444 C143.023107,29.1789444 145.091096,29.0273285 145.091096,29.0273285 L145.091096,31 L95.0511371,31 C95.0511371,31 95.0511372,29.0273285 95.0511371,29.0273285 C95.0511371,29.0273285 97.0231095,29.027329 97.0231095,29.027329 L97.0231095,4.99136717 L110.009584,4.99136718 L110.009584,1 Z M112,3 L112,5 L128,5 L128,3 L112,3 Z M99,7 L99,29 L141,29 L141,7 L99,7 Z M114,47 L114,49 L126,49 L126,47 L114,47 Z M119,31 L119,47 L121,47 L121,31 L119,31 Z M114.489705,25.8997203 C114.489705,25.8997203 123.259238,16.0256002 123.259238,16.0256005 C123.259238,16.0256005 128.884857,21.1072125 128.884857,21.1072125 C128.884857,21.1072125 135,11.936527 135,11.936527 L135,9.89972025 L128.716951,19.1908617 C128.716951,19.1908617 123.259238,14.1758639 123.259238,14.1758639 C123.259238,14.1758642 114.140816,24.4495571 114.140816,24.4495571 L105.411712,21.1072123 L105,22.1464941 C105,22.1464941 114.489705,25.8997203 114.489705,25.8997203 Z" id="presentation_L"></path>
            </g>
        </g>
    </g>
</svg>