<?xml version="1.0" encoding="UTF-8" standalone="no"?>
<svg width="43px" height="42px" viewBox="0 0 43 42" version="1.1" xmlns="http://www.w3.org/2000/svg" xmlns:xlink="http://www.w3.org/1999/xlink" xmlns:sketch="http://www.bohemiancoding.com/sketch/ns">
    <!-- Generator: Sketch 3.1.1 (8761) - http://www.bohemiancoding.com/sketch -->
    <title>ruler_L</title>
    <desc>Created with Sketch.</desc>
    <defs></defs>
    <g id="Page-1" stroke="none" stroke-width="1" fill="none" fill-rule="evenodd" sketch:type="MSPage">
        <g id="line-icons" sketch:type="MSLayerGroup" transform="translate(-201.000000, -102.000000)" fill="#8B572A">
            <g id="row-2-line-icons" transform="translate(8.000000, 98.000000)" sketch:type="MSShapeGroup">
                <path d="M190,20 L190,30 L239,30 L239,20 L190,20 Z M191.958333,22 L191.958333,28 L236.958333,28 L236.958333,22 L191.958333,22 Z M228,22 L228,26 L229,26 L229,22 L228,22 Z M226,22 L226,24 L227,24 L227,22 L226,22 Z M224,22 L224,24 L225,24 L225,22 L224,22 Z M222,22 L222,24 L223,24 L223,22 L222,22 Z M220,22 L220,24 L221,24 L221,22 L220,22 Z M218,22 L218,26 L219,26 L219,22 L218,22 Z M216,22 L216,24 L217,24 L217,22 L216,22 Z M214,22 L214,24 L215,24 L215,22 L214,22 Z M212,22 L212,24 L213,24 L213,22 L212,22 Z M210,22 L210,24 L211,24 L211,22 L210,22 Z M208,22 L208,26 L209,26 L209,22 L208,22 Z M204,22 L204,24 L205,24 L205,22 L204,22 Z M202,22 L202,24 L203,24 L203,22 L202,22 Z M206,22 L206,24 L207,24 L207,22 L206,22 Z M200,22 L200,24 L201,24 L201,22 L200,22 Z M198,22 L198,26 L199,26 L199,22 L198,22 Z" id="ruler_L" transform="translate(214.500000, 25.000000) rotate(-45.000000) translate(-214.500000, -25.000000) "></path>
            </g>
        </g>
    </g>
</svg>