<?xml version="1.0" encoding="UTF-8" standalone="no"?>
<svg width="54px" height="46px" viewBox="0 0 54 46" version="1.1" xmlns="http://www.w3.org/2000/svg" xmlns:xlink="http://www.w3.org/1999/xlink" xmlns:sketch="http://www.bohemiancoding.com/sketch/ns">
    <!-- Generator: Sketch 3.1.1 (8761) - http://www.bohemiancoding.com/sketch -->
    <title>sandwich_L</title>
    <desc>Created with Sketch.</desc>
    <defs></defs>
    <g id="Page-1" stroke="none" stroke-width="1" fill="none" fill-rule="evenodd" sketch:type="MSPage">
        <g id="line-icons" sketch:type="MSLayerGroup" transform="translate(-402.000000, -300.000000)" fill="#8B572A">
            <g id="row-4-line-icons" transform="translate(3.000000, 297.000000)" sketch:type="MSShapeGroup">
                <path d="M413.992428,3.98920644 L449.027751,3.98920644 L449.027751,10.0621091 L399.002085,35.0723935 L399.002085,29.0946027 L413.992428,3.98920644 Z M415.111184,6.01172942 L445.122285,6.01172942 L402.319257,27.4397003 L415.111184,6.01172942 Z M400.97765,30.5514863 L400.97765,32.4145832 L446.788872,9.31681156 L446.788872,7.85087395 L400.97765,30.5514863 Z M399,44.131597 L399,49.042089 L449,24.0619936 L449,19.1038413 L399,44.131597 Z M400.97765,44.9214172 L400.97765,46.4145832 L446.788872,23.3168116 L446.788872,21.8508739 L400.97765,44.9214172 Z M427,28.0904665 C427,27.5055487 426.600792,27.2326431 426.112466,27.4788368 L404.887534,38.1795615 C404.397363,38.4266856 404,39.097111 404,39.6861068 C404,40.2710246 404.399208,40.5439302 404.887534,40.2977365 L426.112466,29.5970118 C426.602637,29.3498877 427,28.6794623 427,28.0904665 Z M451,16.0904665 C451,15.5055487 450.600792,15.2326431 450.112466,15.4788368 L428.887534,26.1795615 C428.397363,26.4266856 428,27.097111 428,27.6861068 C428,28.2710246 428.399208,28.5439302 428.887534,28.2977365 L450.112466,17.5970118 C450.602637,17.3498877 451,16.6794623 451,16.0904665 Z M409.331189,29.9121931 C409.331216,29.9121798 414.330917,27.4130425 414.510731,27.3231835 C414.829816,27.1637301 419.692768,24.7342128 419.692768,24.7342128 C422.012338,26.2175785 421.571981,28.5791986 418.710467,30.0090522 C415.849723,31.4389137 411.651056,31.3955483 409.331216,29.9121799 C411.651056,31.3955482 411.213176,33.7571936 408.354448,35.1870757 C405.496489,36.6169655 401.299862,36.5736208 398.979751,35.0902497 C398.979751,35.0902497 403.974584,32.5910627 404.154223,32.5012019 C404.472568,32.3419601 409.318137,29.918719 409.331189,29.9121931 Z M407.260116,30.9477856 C407.260116,30.9477856 401.049237,34.0546275 401.049237,34.0546275 C402.441346,34.9446506 404.959705,34.9706613 406.674605,34.1127287 C408.389782,33.2547989 408.652128,31.8378077 407.260116,30.9477856 Z M417.61965,25.769798 C417.61965,25.769798 411.402719,28.8765782 411.402719,28.8765782 C412.794666,29.7665997 415.314249,29.7926229 417.03082,28.9347073 C418.747668,28.0767945 419.0115,26.6598185 417.61965,25.769798 Z M429.076574,24.8311317 C431.940873,23.4013064 432.383708,21.0397116 430.064407,19.5563487 C430.064407,19.5563486 425.196722,21.9858176 424.877326,22.1452679 L419.692768,24.7342128 C422.012338,26.2175785 426.213045,26.2609647 429.076574,24.8311317 Z M427.989272,20.5919133 C427.989272,20.5919133 421.766289,23.6986318 421.766289,23.6986318 C423.158074,24.5886516 425.67888,24.6146873 427.397122,23.7567887 C429.115642,22.8988929 429.38096,21.4819321 427.989272,20.5919133 Z M439.452769,19.6533139 C442.319853,18.2235171 442.765165,15.8619475 440.446134,14.3785873 C440.446134,14.3785873 435.573716,16.8080081 435.25401,16.9674551 L430.064407,19.5563486 C432.383708,21.0397116 436.586453,21.0831186 439.452769,19.6533139 Z M438.368982,15.4141314 C438.368982,15.4141314 432.139945,18.5207882 432.139945,18.5207882 C433.531569,19.4108064 436.053599,19.4368545 437.773512,18.5789729 C439.493703,17.7210942 439.760508,16.3041486 438.368982,15.4141314 Z M449.839051,14.475599 C452.708921,13.0458306 453.156709,10.6842862 450.837948,9.20092884 C450.837948,9.20092876 445.960797,11.6303013 445.64078,11.7897452 L440.446134,14.3785873 C442.765165,15.8619475 446.96995,15.9053753 449.839051,14.475599 Z M448.758779,10.2364523 C448.758779,10.2364523 442.52369,13.3430474 442.52369,13.3430474 C443.915151,14.2330639 446.438405,14.2591245 448.15999,13.40126 C449.881852,12.5433984 450.150143,11.1264678 448.758779,10.2364523 Z M401.276982,42.9877762 L398.995687,44.1284236 L403.049883,36.2165229 C403.049883,36.2165229 403.264852,36.2489711 404.128784,36.2165229 C404.549245,36.200731 404.808165,36.1695959 404.964324,36.1516266 C405.129028,36.132674 405.179292,36.1272905 405.179292,36.1272905 L401.276982,42.9877762 Z" id="sandwich_L"></path>
            </g>
        </g>
    </g>
</svg>