<?xml version="1.0" encoding="UTF-8" standalone="no"?>
<svg width="52px" height="19px" viewBox="0 0 52 19" version="1.1" xmlns="http://www.w3.org/2000/svg" xmlns:xlink="http://www.w3.org/1999/xlink" xmlns:sketch="http://www.bohemiancoding.com/sketch/ns">
    <!-- Generator: Sketch 3.1.1 (8761) - http://www.bohemiancoding.com/sketch -->
    <title>shoe_L</title>
    <desc>Created with Sketch.</desc>
    <defs></defs>
    <g id="Page-1" stroke="none" stroke-width="1" fill="none" fill-rule="evenodd" sketch:type="MSPage">
        <g id="line-icons" sketch:type="MSLayerGroup" transform="translate(-97.000000, -514.000000)" fill="#8B572A">
            <g id="row-6-line-icons" transform="translate(18.000000, 496.000000)" sketch:type="MSShapeGroup">
                <path d="M111.66492,20.8598936 C112.414208,20.3928485 112.904635,20.0871567 112.904635,20.0871567 C112.904635,20.0871567 114.938094,21.9811254 119.770274,21.9811256 C124.602454,21.9811258 127.256472,20.4857422 127.256472,20.4857422 C127.256472,20.4857423 128.414517,22.1933928 128.414517,22.1933928 C130.549021,25.3409287 129.87599,29.8169026 126.914568,32.1956364 L126.609896,32.4403611 C126.609896,32.4403618 97.1246405,33.8504821 97.1246404,33.8504821 C96.9195474,33.8504821 94.6720544,32.5308972 93.9143481,31.602707 C93.1566418,30.6745168 92.9819716,30.334705 92.6451902,29.5000726 C92.3084088,28.6654401 92.2290023,27.4732686 92.2290023,27.4732686 C92.2290024,27.4732686 104.105571,25.571775 104.105571,25.571775 C104.105571,25.571775 104.765838,25.1602186 105.724636,24.562582 C105.727,24.5665945 105.729421,24.5705923 105.731907,24.5745706 L107.331756,27.1348642 C107.475303,27.3645867 107.788361,27.4279075 108.015694,27.285854 C108.249876,27.1395208 108.325755,26.8385154 108.179804,26.604945 L106.579955,24.0446513 C106.577669,24.0409923 106.575339,24.0373755 106.572968,24.0338011 L106.572968,24.0338011 C107.105534,23.7018428 107.685237,23.3405034 108.270492,22.9757034 L108.270492,22.9757034 C108.272308,22.9787509 108.274161,22.9817875 108.276051,22.9848128 L109.8759,25.5451065 C110.019447,25.7748289 110.332505,25.8381497 110.559839,25.6960962 C110.794021,25.549763 110.8699,25.2487576 110.723949,25.0151872 L109.1241,22.4548935 C109.122408,22.4521863 109.120693,22.4495021 109.118954,22.4468411 C109.715072,22.07527 110.295854,21.7132579 110.81636,21.3888168 C110.817621,21.3909014 110.8189,21.3929809 110.820196,21.395055 L112.420045,23.9553487 C112.563591,24.1850712 112.87665,24.248392 113.103983,24.1063384 C113.338165,23.9600052 113.414044,23.6589998 113.268093,23.4254294 L111.668244,20.8651358 C111.667146,20.8633786 111.666038,20.8616312 111.66492,20.8598936 Z M111,34.9430169 L111,36 L127,36 L127,34 L125.809156,34 C125.809167,33.9999994 125.809172,33.999999 125.809172,33.999999 C128.675987,33.9999996 131,30.4132832 130.999999,26.0089018 C130.999999,21.5955401 127.498091,18.0178036 127.498091,18.0178036 C127.498091,18.0178036 127.498091,18.0178037 127.498091,18.0178036 C127.498091,18.0178036 125.016703,20.2379938 120.184523,20.2379936 C115.352343,20.2379934 113.001555,18.0178036 113.001555,18.0178036 C113.001555,18.0178036 103.206601,24.0253767 103.206601,24.0253767 L87.7370884,26.5804892 C83.3777445,27.3005257 79.8437981,31.4672358 79.8437982,35.8877805 L79.8437982,35.8935856 C80.8615941,37.1617588 96.0722511,35.8935867 96.0722508,35.8935862 C96.0722507,35.8935859 103.546059,35.4176688 111,34.943017 L111,34.9430169 Z M91.404581,30.9543823 C90.3559931,29.15021 90.4418315,27.7051021 90.4418315,27.7051021 C90.4418315,27.7051021 86.3216901,27.8238829 84.1637048,29.8791069 C82.0057195,31.9343309 81.7134334,34.4197112 81.7134334,34.4197112 C81.7134334,35.1904203 94.3650358,33.997119 94.3650359,33.9971191 C94.365036,33.9971191 92.4531688,32.7585546 91.404581,30.9543823 Z" id="shoe_L"></path>
            </g>
        </g>
    </g>
</svg>