<?xml version="1.0" encoding="UTF-8" standalone="no"?>
<svg width="46px" height="32px" viewBox="0 0 46 32" version="1.1" xmlns="http://www.w3.org/2000/svg" xmlns:xlink="http://www.w3.org/1999/xlink" xmlns:sketch="http://www.bohemiancoding.com/sketch/ns">
    <!-- Generator: Sketch 3.1.1 (8761) - http://www.bohemiancoding.com/sketch -->
    <title>tea_L</title>
    <desc>Created with Sketch.</desc>
    <defs></defs>
    <g id="Page-1" stroke="none" stroke-width="1" fill="none" fill-rule="evenodd" sketch:type="MSPage">
        <g id="line-icons" sketch:type="MSLayerGroup" transform="translate(-203.000000, -310.000000)" fill="#8B572A">
            <g id="row-4-line-icons" transform="translate(3.000000, 297.000000)" sketch:type="MSShapeGroup">
                <path d="M200,43 C200,43 200,44 200,44 C200,44.5522848 200.443262,45 200.996782,45 L241.003218,45 C241.553725,45 242,44.5561352 242,44 C242,44 242,43 242,43 C242,43 200,43 200,43 Z M235,29.3177953 L235,32.9950655 C235,37.4253403 231.416069,41 226.995066,41 L215.004934,41 C210.57466,41 207,37.4160688 207,32.9950655 C207,32.9950655 207,13 207,13 C207,13 235,13 235,13 L235,22.6822048 C236.074921,21.0655093 237.913029,20 240,20 C243.313709,20 246,22.6862914 246,26 C246,29.3137087 243.313709,32 240,32 C237.913029,32 236.074922,30.9344908 235,29.3177953 L235,29.3177953 Z M209.004287,21 C209.004287,21 209.004287,33.0062607 209.004287,33.0062607 C209.004287,36.3165115 211.698176,39 215.00686,39 L227.096915,39 C230.412045,39 233.099489,36.3052182 233.099489,33.0062607 L233.09949,21 C233.09949,21 209.004287,21 209.004287,21 Z M209,15 L209,19 L233,19 L233,15 L209,15 Z M240,30 C242.209139,30 244,28.2091391 244,26 C244,23.7908609 242.209139,22 240,22 C237.790861,22 236,23.7908609 236,26 C236,28.2091391 237.790861,30 240,30 Z" id="tea_L"></path>
            </g>
        </g>
    </g>
</svg>