<?xml version="1.0" encoding="UTF-8" standalone="no"?>
<svg width="41px" height="40px" viewBox="0 0 41 40" version="1.1" xmlns="http://www.w3.org/2000/svg" xmlns:xlink="http://www.w3.org/1999/xlink" xmlns:sketch="http://www.bohemiancoding.com/sketch/ns">
    <!-- Generator: Sketch 3.1.1 (8761) - http://www.bohemiancoding.com/sketch -->
    <title>teabag_L</title>
    <desc>Created with Sketch.</desc>
    <defs></defs>
    <g id="Page-1" stroke="none" stroke-width="1" fill="none" fill-rule="evenodd" sketch:type="MSPage">
        <g id="line-icons" sketch:type="MSLayerGroup" transform="translate(-308.000000, -306.000000)" fill="#8B572A">
            <g id="row-4-line-icons" transform="translate(3.000000, 297.000000)" sketch:type="MSShapeGroup">
                <path d="M304.996361,9 L311.044223,49 L331.190793,49 L336.965712,9 L304.996361,9 Z M307.415817,10.9759197 L312.674202,47.0240803 L329.668529,47.0240803 L334.712445,10.9759197 L307.415817,10.9759197 Z M317,11 L317,21 L318,21 L318,11 L317,11 Z M313,21 L313,33 L322,33 L322,21 L313,21 Z M314,22 L314,25 L321,25 L321,22 L314,22 Z M314,26 L314,32 L321,32 L321,26 L314,26 Z M335.37717,20 C335.556351,18.7610291 335.666412,18 335.666412,18 L341.6002,18 C345.155656,18 346.8275,20.6136887 345.33004,23.837837 L340.534896,34.162163 C339.035762,37.3899186 335.433262,40 332.484746,40 C332.484746,40 332.484746,40 332.484746,40 C332.484746,40 332.980784,36.5700885 333.581141,32.4188539 C333.10894,35.6895897 332.728656,38.3236542 332.728656,38.3236542 L334.275462,37.5363402 C336.242941,36.5349067 338.564368,34.092474 339.462604,32.0749388 C339.462604,32.0749388 341.933577,26.5346931 343.155445,23.7487535 C343.696181,22.5158387 343.18115,23.6900355 343.18115,23.6900355 C344.038646,21.6520852 342.951262,20 340.737273,20 C340.737273,20 335.522649,20 335.37717,20 Z" id="teabag_L"></path>
            </g>
        </g>
    </g>
</svg>