<?xml version="1.0" encoding="UTF-8" standalone="no"?>
<svg width="50px" height="50px" viewBox="0 0 50 50" version="1.1" xmlns="http://www.w3.org/2000/svg" xmlns:xlink="http://www.w3.org/1999/xlink" xmlns:sketch="http://www.bohemiancoding.com/sketch/ns">
    <!-- Generator: Sketch 3.1.1 (8761) - http://www.bohemiancoding.com/sketch -->
    <title>alarm_F</title>
    <desc>Created with Sketch.</desc>
    <defs></defs>
    <g id="Page-1" stroke="none" stroke-width="1" fill="none" fill-rule="evenodd" sketch:type="MSPage">
        <g id="full-icons" sketch:type="MSLayerGroup" transform="translate(-200.000000, -199.000000)" fill-opacity="0.9" fill="#FFFFFF">
            <g id="row-3-F" transform="translate(0.000000, 199.000000)" sketch:type="MSShapeGroup">
                <path d="M215.941,0 L210,0 C204.476,0 200,4.47 200,10 L200,16.01 L202.844,16.01 L215.941,2.84 L215.941,0 Z M239.946,0 L234,0 L234,2.84 L247.1,16.01 L249.946,16.01 L249.946,10 C249.946,4.47 245.467,0 239.946,0 Z M226.015,30 L212.989,30 L212.989,28 L224.015,28 L224.015,12 L226.015,12 L226.015,30 Z M225,6 C212.848,6 203,15.85 203,28 C203,33.51 205.034,38.55 208.387,42.41 L203.24,48.72 L204.789,49.98 L209.776,43.87 C213.729,47.66 219.09,49.99 225,49.99 C230.924,49.99 236.297,47.65 240.253,43.84 L245.237,49.99 L246.792,48.73 L241.642,42.38 C244.978,38.52 247,33.49 247,28 C247,15.85 237.149,6 225,6 L225,6 Z" id="alarm_F"></path>
            </g>
        </g>
    </g>
</svg>