<?xml version="1.0" encoding="UTF-8" standalone="no"?>
<svg width="60px" height="38px" viewBox="0 0 60 38" version="1.1" xmlns="http://www.w3.org/2000/svg" xmlns:xlink="http://www.w3.org/1999/xlink" xmlns:sketch="http://www.bohemiancoding.com/sketch/ns">
    <!-- Generator: Sketch 3.1.1 (8761) - http://www.bohemiancoding.com/sketch -->
    <title>backup_cloud_F</title>
    <desc>Created with Sketch.</desc>
    <defs></defs>
    <g id="Page-1" stroke="none" stroke-width="1" fill="none" fill-rule="evenodd" sketch:type="MSPage">
        <g id="full-icons" sketch:type="MSLayerGroup" transform="translate(-395.000000, -307.000000)" fill-opacity="0.9" fill="#FFFFFF">
            <g id="row-4-F" transform="translate(1.000000, 301.000000)" sketch:type="MSShapeGroup">
                <path d="M443.023,21.9895 C443.027,21.8285 443.047,21.6745 443.047,21.5145 C443.047,12.9535 436.107,6.0145 427.547,6.0145 C421.379,6.0145 416.068,9.6255 413.573,14.8405 C412.494,14.2975 411.279,13.9855 409.989,13.9855 C406.03,13.9855 402.751,16.8665 402.11,20.6435 C397.395,22.2605 394,26.7215 394,31.9875 C394,38.6105 399.368,43.9795 405.989,43.9855 L443.047,43.9855 L443.047,43.9835 C449.095,43.9525 453.989,39.0415 453.989,32.9875 C453.989,26.9225 449.084,22.0065 443.023,21.9895 L443.023,21.9895 Z M425.5,20.5 C421.64,20.5 418.5,23.641 418.5,27.5 L422.193,27.5 L417.847,35.026 L413.5,27.5 L416.5,27.5 C416.5,22.529 420.529,18.5 425.5,18.5 C430.47,18.5 434.5,22.529 434.5,27.5 C434.5,32.47 430.47,36.5 425.5,36.5 L425.5,34.5 C429.361,34.5 432.5,31.359 432.5,27.5 C432.5,23.641 429.361,20.5 425.5,20.5 Z" id="backup_cloud_F"></path>
            </g>
        </g>
    </g>
</svg>