<?xml version="1.0" encoding="UTF-8" standalone="no"?>
<svg width="50px" height="50px" viewBox="0 0 50 50" version="1.1" xmlns="http://www.w3.org/2000/svg" xmlns:xlink="http://www.w3.org/1999/xlink" xmlns:sketch="http://www.bohemiancoding.com/sketch/ns">
    <!-- Generator: Sketch 3.1.1 (8761) - http://www.bohemiancoding.com/sketch -->
    <title>blue_tooth_F</title>
    <desc>Created with Sketch.</desc>
    <defs></defs>
    <g id="Page-1" stroke="none" stroke-width="1" fill="none" fill-rule="evenodd" sketch:type="MSPage">
        <g id="full-icons" sketch:type="MSLayerGroup" transform="translate(-200.000000, -399.000000)" fill-opacity="0.9" fill="#FFFFFF">
            <g id="row-5-F" transform="translate(0.000000, 396.000000)" sketch:type="MSShapeGroup">
                <path d="M227.486635,27.5076459 L235.07373,33.8739749 L234.093542,35.0421178 L225.365047,27.7180406 L216.843825,35.1254254 L215.818733,33.9461917 L223.225433,27.5076459 L209.375,27.5076459 L217.291667,19.40625 L225.275998,25.9839127 L232.986112,19.40625 L240.625,27.5076459 L227.486635,27.5076459 Z M225,53 C238.807119,53 250,41.8071194 250,28 C250,14.1928806 238.807119,3 225,3 C211.192881,3 200,14.1928806 200,28 C200,41.8071194 211.192881,53 225,53 Z M232.939246,21.3292274 L227.446598,26.027553 L237.470626,26.027553 L232.939246,21.3292274 Z M217.31791,21.3769261 L223.113306,26.0752518 L212.667283,26.0752518 L217.31791,21.3769261 Z" id="blue_tooth_F" transform="translate(225.000000, 28.000000) rotate(-270.000000) translate(-225.000000, -28.000000) "></path>
            </g>
        </g>
    </g>
</svg>