<?xml version="1.0" encoding="UTF-8" standalone="no"?>
<svg width="50px" height="48px" viewBox="0 0 50 48" version="1.1" xmlns="http://www.w3.org/2000/svg" xmlns:xlink="http://www.w3.org/1999/xlink" xmlns:sketch="http://www.bohemiancoding.com/sketch/ns">
    <!-- Generator: Sketch 3.1.1 (8761) - http://www.bohemiancoding.com/sketch -->
    <title>bookmarks_F</title>
    <desc>Created with Sketch.</desc>
    <defs></defs>
    <g id="Page-1" stroke="none" stroke-width="1" fill="none" fill-rule="evenodd" sketch:type="MSPage">
        <g id="full-icons" sketch:type="MSLayerGroup" transform="translate(-401.000000, -13.000000)" fill-opacity="0.9" fill="#FFFFFF">
            <g id="row-1-F" transform="translate(9.000000, 0.000000)" sketch:type="MSShapeGroup">
                <path d="M398.00391,13 C394.688042,13 392,15.6876476 392,19.0048912 L392,48.4441048 C392,51.7605147 394.687546,54.448996 398.00391,54.448996 L410.034551,54.448996 C413.350419,54.448996 416.038461,57.1418605 416.038461,60.4399482 C416.038461,60.4399482 416.038461,71.0024485 416.038461,52.7162562 C416.038462,34.4300638 416.038461,19.0036336 416.038461,19.0036336 C416.038461,15.6879183 413.350916,13 410.034551,13 L398.00391,13 Z M435.99609,13 C439.311958,13 442,15.6876476 442,19.0048912 L442,48.4441048 C442,51.7605147 439.312454,54.448996 435.99609,54.448996 L423.965449,54.448996 C420.649581,54.448996 417.961539,57.1418605 417.961539,60.4399482 C417.961539,60.4399482 417.961539,71.0024485 417.961539,52.7162562 C417.961538,34.4300638 417.961539,19.0036336 417.961539,19.0036336 C417.961539,15.6879183 420.649084,13 423.965449,13 L435.99609,13 Z" id="bookmarks_F"></path>
            </g>
        </g>
    </g>
</svg>