<?xml version="1.0" encoding="UTF-8" standalone="no"?>
<svg width="48px" height="48px" viewBox="0 0 48 48" version="1.1" xmlns="http://www.w3.org/2000/svg" xmlns:xlink="http://www.w3.org/1999/xlink" xmlns:sketch="http://www.bohemiancoding.com/sketch/ns">
    <!-- Generator: Sketch 3.1.1 (8761) - http://www.bohemiancoding.com/sketch -->
    <title>brightness_F</title>
    <desc>Created with Sketch.</desc>
    <defs></defs>
    <g id="Page-1" stroke="none" stroke-width="1" fill="none" fill-rule="evenodd" sketch:type="MSPage">
        <g id="full-icons" sketch:type="MSLayerGroup" transform="translate(-101.000000, -500.000000)" fill-opacity="0.9" fill="#FFFFFF">
            <g id="row-6-F" transform="translate(3.000000, 500.000000)" sketch:type="MSShapeGroup">
                <path d="M122,33 C126.970563,33 131,28.970563 131,24 C131,19.029437 126.970563,15 122,15 C117.029437,15 113,19.029437 113,24 C113,28.970563 117.029437,33 122,33 Z M120.989899,0 L120.989899,10 L123.010101,10 L123.010101,0 L120.989899,0 Z M138.213459,6.29743687 L131.142391,13.3685047 L132.570889,14.7970032 L139.641957,7.72593542 L138.213459,6.29743687 Z M145.939394,22.9292929 L135.939394,22.9292929 L135.939394,24.9494949 L145.939394,24.9494949 L145.939394,22.9292929 Z M139.641957,40.1528525 L132.570889,33.0817846 L131.142391,34.5102832 L138.213459,41.581351 L139.641957,40.1528525 Z M123.010101,47.8787879 L123.010101,37.8787879 L120.989899,37.8787879 L120.989899,47.8787879 L123.010101,47.8787879 Z M105.786541,41.581351 L112.857609,34.5102832 L111.429111,33.0817846 L104.358043,40.1528525 L105.786541,41.581351 Z M98.0606061,24.9494949 L108.060606,24.9494949 L108.060606,22.9292929 L98.0606061,22.9292929 L98.0606061,24.9494949 Z M104.358043,7.72593542 L111.429111,14.7970032 L112.857609,13.3685047 L105.786541,6.29743687 L104.358043,7.72593542 Z" id="brightness_F"></path>
            </g>
        </g>
    </g>
</svg>