<?xml version="1.0" encoding="UTF-8" standalone="no"?>
<svg width="34px" height="50px" viewBox="0 0 34 50" version="1.1" xmlns="http://www.w3.org/2000/svg" xmlns:xlink="http://www.w3.org/1999/xlink" xmlns:sketch="http://www.bohemiancoding.com/sketch/ns">
    <!-- Generator: Sketch 3.1.1 (8761) - http://www.bohemiancoding.com/sketch -->
    <title>calculator_F</title>
    <desc>Created with Sketch.</desc>
    <defs></defs>
    <g id="Page-1" stroke="none" stroke-width="1" fill="none" fill-rule="evenodd" sketch:type="MSPage">
        <g id="full-icons" sketch:type="MSLayerGroup" transform="translate(-507.000000, -104.000000)" fill-opacity="0.9" fill="#FFFFFF">
            <g id="row-2-F" transform="translate(0.000000, 99.000000)" sketch:type="MSShapeGroup">
                <path d="M510.002358,5 C508.344202,5 507,6.34675347 507,7.99243739 C507,7.99243739 507,18.0434783 507,18.0434783 C507,18.0434783 512.080306,18.0434783 512.080305,18.0434783 C512.080305,18.0434783 541,18.0434783 541,18.0434783 C540.999998,18.0434783 541,7.99243739 541,7.99243739 C541,6.33975986 539.656688,5 537.997642,5 L510.002358,5 Z M510.991617,7 C509.891677,7 509,7.89585781 509,8.9973917 L509,16 L539,16 L539,8.9973917 C539,7.89426273 538.10216,7 537.008383,7 L510.991617,7 Z M507,20.2173913 L507,31.0869565 L517.625,31.0869565 L517.625,20.2173913 L507,20.2173913 Z M507,32.173913 L507,43.0434783 L517.625,43.0434783 L517.625,32.173913 L507,32.173913 Z M518.6875,32.173913 L518.6875,43.0434783 L529.3125,43.0434783 L529.3125,32.173913 L518.6875,32.173913 Z M518.6875,44.1304348 L518.6875,55 L529.3125,55 L529.3125,44.1304348 L518.6875,44.1304348 Z M518.6875,20.2173913 L518.6875,31.0869565 L529.3125,31.0869565 L529.3125,20.2173913 L518.6875,20.2173913 Z M530.375,20.2173913 L530.375,31.0869565 L541,31.0869565 L541,20.2173913 L530.375,20.2173913 Z M507,44.1304348 C507,44.1304348 507,52.0010702 507,52.0010702 C507,53.6573334 508.345664,55 510.002095,55 L517.625,55 L517.625,44.1304348 C517.625,44.1304348 507,44.1304348 507,44.1304348 Z M530.375,32.173913 C530.375,32.173913 530.375,55 530.375,55 L537.997905,55 C539.655916,55 541,53.6573424 541,51.9924154 L541,32.173913 C541,32.173913 530.375,32.173913 530.375,32.173913 Z" id="calculator_F"></path>
            </g>
        </g>
    </g>
</svg>