<?xml version="1.0" encoding="UTF-8" standalone="no"?>
<svg width="50px" height="38px" viewBox="0 0 50 38" version="1.1" xmlns="http://www.w3.org/2000/svg" xmlns:xlink="http://www.w3.org/1999/xlink" xmlns:sketch="http://www.bohemiancoding.com/sketch/ns">
    <!-- Generator: Sketch 3.1.1 (8761) - http://www.bohemiancoding.com/sketch -->
    <title>camera_F</title>
    <desc>Created with Sketch.</desc>
    <defs></defs>
    <g id="Page-1" stroke="none" stroke-width="1" fill="none" fill-rule="evenodd" sketch:type="MSPage">
        <g id="full-icons" sketch:type="MSLayerGroup" transform="translate(-300.000000, -118.000000)" fill-opacity="0.9" fill="#FFFFFF">
            <g id="row-2-F" transform="translate(0.000000, 99.000000)" sketch:type="MSShapeGroup">
                <path d="M313.358024,25.396533 C313.38968,25.3471992 313.424684,25.2972081 313.463085,25.2466643 L317.004961,20.5848171 C317.670519,19.7088042 319.105633,19 320.211638,19 L329.298144,19 C330.400898,19 331.873106,19.6927268 332.579152,20.5472487 L336.493068,25.2842327 C336.524265,25.3219904 336.553448,25.3594394 336.580637,25.396533 L345.99281,25.396533 C348.205732,25.396533 350,27.1885585 350,29.3991339 L350,52.9973991 C350,55.2103102 348.20592,57 345.99281,57 L304.00719,57 C301.794268,57 300,55.2079745 300,52.9973991 L300,29.3991339 C300,27.1862228 301.79408,25.396533 304.00719,25.396533 L313.358024,25.396533 L313.358024,25.396533 Z M324.915816,52.2371136 C330.990948,52.2371136 335.915816,47.3122461 335.915816,41.2371136 C335.915816,35.161981 330.990948,30.2371136 324.915816,30.2371136 C318.840683,30.2371136 313.915816,35.161981 313.915816,41.2371136 C313.915816,47.3122461 318.840683,52.2371136 324.915816,52.2371136 Z M324.915816,49.2371136 C329.334094,49.2371136 332.915816,45.6553918 332.915816,41.2371136 C332.915816,36.8188354 329.334094,33.2371136 324.915816,33.2371136 C320.497538,33.2371136 316.915816,36.8188354 316.915816,41.2371136 C316.915816,45.6553918 320.497538,49.2371136 324.915816,49.2371136 Z M303.915816,22.2371136 L303.915816,24.2371136 L310.915816,24.2371136 L310.915816,22.2371136 L303.915816,22.2371136 Z M338,30 L338,32 L340,32 L340,30 L338,30 Z" id="camera_F"></path>
            </g>
        </g>
    </g>
</svg>