<?xml version="1.0" encoding="UTF-8" standalone="no"?>
<svg width="48px" height="37px" viewBox="0 0 48 37" version="1.1" xmlns="http://www.w3.org/2000/svg" xmlns:xlink="http://www.w3.org/1999/xlink" xmlns:sketch="http://www.bohemiancoding.com/sketch/ns">
    <!-- Generator: Sketch 3.1.1 (8761) - http://www.bohemiancoding.com/sketch -->
    <title>comment_F</title>
    <desc>Created with Sketch.</desc>
    <defs></defs>
    <g id="Page-1" stroke="none" stroke-width="1" fill="none" fill-rule="evenodd" sketch:type="MSPage">
        <g id="full-icons" sketch:type="MSLayerGroup" transform="translate(-501.000000, -507.000000)" fill-opacity="0.9" fill="#FFFFFF">
            <g id="row-6-F" transform="translate(3.000000, 500.000000)" sketch:type="MSShapeGroup">
                <path d="M506.007097,7 C501.584899,7 498,10.5889027 498,15.0000405 L498,28.9999595 C498,33.4182599 501.57284,37 506.00481,37 L524.08884,37 L540.225086,43.7749405 L533.845638,37 L539.083572,37 C542.90341,37 546,33.4110973 546,28.9999595 L546,15.0000405 C546,10.5817401 542.411829,7 537.992903,7 L506.007097,7 Z M532.5,24 C533.880712,24 535,22.8807119 535,21.5 C535,20.1192881 533.880712,19 532.5,19 C531.119288,19 530,20.1192881 530,21.5 C530,22.8807119 531.119288,24 532.5,24 Z M522.5,24 C523.880712,24 525,22.8807119 525,21.5 C525,20.1192881 523.880712,19 522.5,19 C521.119288,19 520,20.1192881 520,21.5 C520,22.8807119 521.119288,24 522.5,24 Z M512.5,24 C513.880712,24 515,22.8807119 515,21.5 C515,20.1192881 513.880712,19 512.5,19 C511.119288,19 510,20.1192881 510,21.5 C510,22.8807119 511.119288,24 512.5,24 Z" id="comment_F"></path>
            </g>
        </g>
    </g>
</svg>