<?xml version="1.0" encoding="UTF-8" standalone="no"?>
<svg width="60px" height="57px" viewBox="0 0 60 57" version="1.1" xmlns="http://www.w3.org/2000/svg" xmlns:xlink="http://www.w3.org/1999/xlink" xmlns:sketch="http://www.bohemiancoding.com/sketch/ns">
    <!-- Generator: Sketch 3.1.1 (8761) - http://www.bohemiancoding.com/sketch -->
    <title>download_cloud_F</title>
    <desc>Created with Sketch.</desc>
    <defs></defs>
    <g id="Page-1" stroke="none" stroke-width="1" fill="none" fill-rule="evenodd" sketch:type="MSPage">
        <g id="full-icons" sketch:type="MSLayerGroup" transform="translate(-495.000000, -301.000000)" fill-opacity="0.9" fill="#FFFFFF">
            <g id="row-4-F" transform="translate(1.000000, 301.000000)" sketch:type="MSShapeGroup">
                <path d="M543.055994,15.5 C543.055994,6.939 536.114721,0 527.553151,0 C521.38402,0 516.072047,3.611 513.576589,8.826 C512.497391,8.283 511.282168,7.971 509.991932,7.971 C506.032206,7.971 502.752605,10.852 502.111487,14.629 C497.395623,16.246 494,20.707 494,25.973 C494,32.596 499.368984,37.965 505.991198,37.971 L521.104227,37.9710007 L521.104227,18.0017262 L527.018051,18.0017262 L527.018051,37.9710007 L543.055994,37.971 C549.105103,37.938 554,33.027 554,26.973 C554,20.908 549.094101,15.992 543.031989,15.975 C543.03599,15.814 543.055994,15.66 543.055994,15.5 Z M523.01632,49.1979701 L523.01632,19.9855 L525.016686,19.9855 L525.016686,49.1981901 L531.157108,49.1988655 L524.08604,56.2699333 L517.013416,49.1973099 L523.01632,49.1979701 Z" id="download_cloud_F"></path>
            </g>
        </g>
    </g>
</svg>