<?xml version="1.0" encoding="UTF-8" standalone="no"?>
<svg width="50px" height="35px" viewBox="0 0 50 35" version="1.1" xmlns="http://www.w3.org/2000/svg" xmlns:xlink="http://www.w3.org/1999/xlink" xmlns:sketch="http://www.bohemiancoding.com/sketch/ns">
    <!-- Generator: Sketch 3.1.1 (8761) - http://www.bohemiancoding.com/sketch -->
    <title>drawer_F</title>
    <desc>Created with Sketch.</desc>
    <defs></defs>
    <g id="Page-1" stroke="none" stroke-width="1" fill="none" fill-rule="evenodd" sketch:type="MSPage">
        <g id="full-icons" sketch:type="MSLayerGroup" transform="translate(0.000000, -119.000000)" fill-opacity="0.9" fill="#FFFFFF">
            <g id="row-2-F" transform="translate(0.000000, 99.000000)" sketch:type="MSShapeGroup">
                <path d="M20,40 L2.89426886,40 L16.1127585,22 L34.0825909,22 L47.3735207,40 L30,40 C30,42.7614239 27.7614239,45 25,45 C22.2385761,45 20,42.7614239 20,40 Z M15.0695829,20 L35.043251,20 L50,40.0721684 L50,55 L0,55 L0,40.0721684 L15.0695829,20 Z M10.9981537,35 C10.4468886,35 10,35.4438648 10,36 L10,36 C10,36.5522847 10.4473652,37 10.9981537,37 L39.0018463,37 C39.5531114,37 40,36.5561352 40,36 L40,36 C40,35.4477153 39.5526348,35 39.0018463,35 L10.9981537,35 Z M15.0024617,30 C14.4488174,30 14,30.4438648 14,31 L14,31 C14,31.5522847 14.4394583,32 15.0024617,32 L34.9975383,32 C35.5511826,32 36,31.5561352 36,31 L36,31 C36,30.4477153 35.5605417,30 34.9975383,30 L15.0024617,30 Z M19.0068455,25 C18.4507801,25 18,25.4438648 18,26 L18,26 C18,26.5522847 18.4499488,27 19.0068455,27 L30.9931545,27 C31.5492199,27 32,26.5561352 32,26 L32,26 C32,25.4477153 31.5500512,25 30.9931545,25 L19.0068455,25 Z" id="drawer_F"></path>
            </g>
        </g>
    </g>
</svg>