<?xml version="1.0" encoding="UTF-8" standalone="no"?>
<svg width="50px" height="50px" viewBox="0 0 50 50" version="1.1" xmlns="http://www.w3.org/2000/svg" xmlns:xlink="http://www.w3.org/1999/xlink" xmlns:sketch="http://www.bohemiancoding.com/sketch/ns">
    <!-- Generator: Sketch 3.1.1 (8761) - http://www.bohemiancoding.com/sketch -->
    <title>global_F</title>
    <desc>Created with Sketch.</desc>
    <defs></defs>
    <g id="Page-1" stroke="none" stroke-width="1" fill="none" fill-rule="evenodd" sketch:type="MSPage">
        <g id="full-icons" sketch:type="MSLayerGroup" transform="translate(-100.000000, -199.000000)" fill-opacity="0.9" fill="#FFFFFF">
            <g id="row-3-F" transform="translate(0.000000, 199.000000)" sketch:type="MSShapeGroup">
                <path d="M125,48 L124.981,48 L124.972,48 C124.963,48 124.954,47.99 124.945,47.99 C112.267,47.96 102,37.68 102,25 C102,12.31 112.267,2.03 124.945,2 L124.972,2 L124.981,2 L125,2 C137.701,2 148,12.29 148,25 C148,37.7 137.701,48 125,48 L125,48 L125,48 L125,48 Z M125,0 L124.979,0 L124.969,0 L124.94,0 C111.16,0.03 100,11.21 100,25 C100,38.78 111.16,49.96 124.94,49.99 C124.95,49.99 124.959,50 124.969,50 L124.979,50 L125,50 C138.805,50 150,38.8 150,25 C150,11.19 138.805,0 125,0 Z M132.964,15 C130.722,15.55 128.392,15.86 126,15.93 L126,24.12 L134.136,24.12 C134.064,20.75 133.643,17.67 132.964,15 Z M126,5 L126,14.84 C128.221,14.77 130.382,14.47 132.466,13.97 C130.893,8.99 128.437,5.73 126,5 Z M118,13.99 C120.1,14.5 122.28,14.8 124.518,14.87 L124.518,5 C122.066,5.7 119.585,8.98 118,13.99 Z M140.087,10.72 C137.368,7.95 133.893,5.94 130,5 C131.774,6.85 133.275,9.65 134.343,13.09 C136.348,12.48 138.268,11.68 140.087,10.72 Z M136.242,24.34 L146.26,24.34 C146.039,19.67 144.295,15.39 141.507,12 C139.456,13.13 137.28,14.05 135,14.74 C135.731,17.63 136.169,20.88 136.242,24.34 Z M116,24.13 L124.192,24.13 L124.192,15.94 C121.78,15.87 119.434,15.55 117.173,15 C116.494,17.67 116.072,20.75 116,24.13 Z M134.136,26 L126,26 L126,34.17 C128.393,34.24 130.722,34.56 132.967,35.1 C133.643,32.43 134.064,29.36 134.136,26 Z M117.172,35.11 C119.433,34.56 121.78,34.24 124.192,34.17 L124.192,26 L116,26 C116.072,29.37 116.493,32.44 117.172,35.11 Z M124.521,45.88 L124.521,36 C122.282,36.07 120.101,36.37 118,36.88 C119.585,41.9 122.067,45.18 124.521,45.88 Z M130,46.1 C133.895,45.16 137.373,43.15 140.092,40.38 C138.272,39.41 136.351,38.61 134.346,38 C133.276,41.45 131.776,44.25 130,46.1 Z M120.014,5 C116.151,5.94 112.702,7.95 110,10.7 C111.803,11.66 113.706,12.45 115.691,13.05 C116.756,9.63 118.249,6.84 120.014,5 Z M135,35.58 C137.282,36.27 139.459,37.19 141.511,38.32 C144.297,34.93 146.038,30.66 146.259,26 L136.241,26 C136.168,29.44 135.731,32.69 135,35.58 Z M126,36 L126,45.86 C128.438,45.12 130.896,41.85 132.468,36.87 C130.383,36.37 128.221,36.07 126,36 Z M115.204,14.72 C112.942,14.04 110.782,13.12 108.747,12 C105.962,15.39 104.219,19.66 104,24.33 L113.96,24.33 C114.032,20.87 114.472,17.61 115.204,14.72 Z M113.96,26 L104,26 C104.219,30.66 105.962,34.94 108.747,38.32 C110.782,37.2 112.943,36.29 115.204,35.6 C114.472,32.71 114.032,29.45 113.96,26 Z M110,40.36 C112.703,43.11 116.154,45.12 120.02,46.06 C118.254,44.22 116.76,41.42 115.695,38 C113.708,38.6 111.804,39.4 110,40.36 Z" id="global_F"></path>
            </g>
        </g>
    </g>
</svg>