<?xml version="1.0" encoding="UTF-8" standalone="no"?>
<svg width="44px" height="44px" viewBox="0 0 44 44" version="1.1" xmlns="http://www.w3.org/2000/svg" xmlns:xlink="http://www.w3.org/1999/xlink" xmlns:sketch="http://www.bohemiancoding.com/sketch/ns">
    <!-- Generator: Sketch 3.1.1 (8761) - http://www.bohemiancoding.com/sketch -->
    <title>keypad_F</title>
    <desc>Created with Sketch.</desc>
    <defs></defs>
    <g id="Page-1" stroke="none" stroke-width="1" fill="none" fill-rule="evenodd" sketch:type="MSPage">
        <g id="full-icons" sketch:type="MSLayerGroup" transform="translate(-3.000000, -502.000000)" fill-opacity="0.9" fill="#FFFFFF">
            <g id="row-6-F" transform="translate(3.000000, 500.000000)" sketch:type="MSShapeGroup">
                <path d="M6,14 C9.31370866,14 12,11.3137087 12,8 C12,4.68629134 9.31370866,2 6,2 C2.68629134,2 0,4.68629134 0,8 C0,11.3137087 2.68629134,14 6,14 Z M6,30 C9.31370866,30 12,27.3137087 12,24 C12,20.6862913 9.31370866,18 6,18 C2.68629134,18 0,20.6862913 0,24 C0,27.3137087 2.68629134,30 6,30 Z M6,46 C9.31370866,46 12,43.3137087 12,40 C12,36.6862913 9.31370866,34 6,34 C2.68629134,34 0,36.6862913 0,40 C0,43.3137087 2.68629134,46 6,46 Z M38,46 C41.3137087,46 44,43.3137087 44,40 C44,36.6862913 41.3137087,34 38,34 C34.6862913,34 32,36.6862913 32,40 C32,43.3137087 34.6862913,46 38,46 Z M22,46 C25.3137087,46 28,43.3137087 28,40 C28,36.6862913 25.3137087,34 22,34 C18.6862913,34 16,36.6862913 16,40 C16,43.3137087 18.6862913,46 22,46 Z M22,30 C25.3137087,30 28,27.3137087 28,24 C28,20.6862913 25.3137087,18 22,18 C18.6862913,18 16,20.6862913 16,24 C16,27.3137087 18.6862913,30 22,30 Z M38,30 C41.3137087,30 44,27.3137087 44,24 C44,20.6862913 41.3137087,18 38,18 C34.6862913,18 32,20.6862913 32,24 C32,27.3137087 34.6862913,30 38,30 Z M38,14 C41.3137087,14 44,11.3137087 44,8 C44,4.68629134 41.3137087,2 38,2 C34.6862913,2 32,4.68629134 32,8 C32,11.3137087 34.6862913,14 38,14 Z M22,14 C25.3137087,14 28,11.3137087 28,8 C28,4.68629134 25.3137087,2 22,2 C18.6862913,2 16,4.68629134 16,8 C16,11.3137087 18.6862913,14 22,14 Z" id="keypad_F"></path>
            </g>
        </g>
    </g>
</svg>