<?xml version="1.0" encoding="UTF-8" standalone="no"?>
<svg width="50px" height="50px" viewBox="0 0 50 50" version="1.1" xmlns="http://www.w3.org/2000/svg" xmlns:xlink="http://www.w3.org/1999/xlink" xmlns:sketch="http://www.bohemiancoding.com/sketch/ns">
    <!-- Generator: Sketch 3.1.1 (8761) - http://www.bohemiancoding.com/sketch -->
    <title>lock_F</title>
    <desc>Created with Sketch.</desc>
    <defs></defs>
    <g id="Page-1" stroke="none" stroke-width="1" fill="none" fill-rule="evenodd" sketch:type="MSPage">
        <g id="full-icons" sketch:type="MSLayerGroup" transform="translate(-400.000000, -396.000000)" fill-opacity="0.9" fill="#FFFFFF">
            <g id="row-5-F" transform="translate(0.000000, 396.000000)" sketch:type="MSShapeGroup">
                <path d="M425,50 C438.807119,50 450,38.8071194 450,25 C450,11.1928806 438.807119,0 425,0 C411.192881,0 400,11.1928806 400,25 C400,38.8071194 411.192881,50 425,50 Z M435.583298,37 C432.762765,39.4894537 429.057786,41 425,41 C416.163444,41 409,33.8365564 409,25 C409,16.1634436 416.163444,9 425,9 C433.836556,9 441,16.1634436 441,25 L439,25 C439,17.2680131 432.731987,11 425,11 C417.268013,11 411,17.2680131 411,25 C411,32.7319869 417.268013,39 425,39 C427.639336,39 430.108088,38.2696397 432.215174,37 L435.583298,37 L435.583298,37 Z M440,31 L443.464102,25 L436.535898,25 L440,31 Z M417.64,22.16 L417.64,33.2 L432.36,33.2 L432.36,22.16 L417.64,22.16 Z M424.075747,14.8 C422.045688,14.8 420.4,16.4505944 420.4,18.4774752 L420.4,22.1549504 C421.010225,22.155146 422.052309,22.1545656 422.933206,22.1549504 C425.447351,22.1560487 428.373985,22.1581265 429.636215,22.1549504 L429.618107,18.4774752 C429.608107,16.4464617 427.955224,14.8 425.924253,14.8 L424.075747,14.8 Z M425,16.64 C423.475694,16.64 422.24,17.8657607 422.24,19.4015631 L422.24,22.1631261 L427.76,22.1631261 C427.76,21.2274626 427.76,19.4083749 427.76,19.4083749 C427.76,17.8794436 426.521204,16.64 425,16.64 L425,16.64 Z" id="lock_F"></path>
            </g>
        </g>
    </g>
</svg>