<?xml version="1.0" encoding="UTF-8" standalone="no"?>
<svg width="51px" height="34px" viewBox="0 0 51 34" version="1.1" xmlns="http://www.w3.org/2000/svg" xmlns:xlink="http://www.w3.org/1999/xlink" xmlns:sketch="http://www.bohemiancoding.com/sketch/ns">
    <!-- Generator: Sketch 3.1.1 (8761) - http://www.bohemiancoding.com/sketch -->
    <title>mail_F</title>
    <desc>Created with Sketch.</desc>
    <defs></defs>
    <g id="Page-1" stroke="none" stroke-width="1" fill="none" fill-rule="evenodd" sketch:type="MSPage">
        <g id="full-icons" sketch:type="MSLayerGroup" transform="translate(-100.000000, -122.000000)" fill-opacity="0.9" fill="#FFFFFF">
            <g id="row-2-F" transform="translate(0.000000, 99.000000)" sketch:type="MSShapeGroup">
                <path d="M101.969669,23 L123.248375,44.2787063 C124.367102,45.397433 126.175687,45.4026625 127.304433,44.2739161 L148.578349,23 L101.969669,23 Z M151,24.1097486 L151,56.6366605 L134.736544,40.3732046 L151,24.1097486 Z M100,56.6366605 L100,24.1097486 L116.263456,40.3732046 L100,56.6366605 Z M121.775359,45.5079405 C122.353089,46.0458278 123.840466,47.2051855 125.056882,47.2017716 C126.273298,47.1983576 127.672198,46.4044199 128.389382,45.8266887 C129.106566,45.2489576 133.058531,41.6981349 133.058531,41.6981349 L147.927035,56.6366609 L102.914839,56.6366605 L117.836058,41.6981349 C117.836058,41.6981349 121.197629,44.9700531 121.775359,45.5079405 Z" id="mail_F"></path>
            </g>
        </g>
    </g>
</svg>