<?xml version="1.0" encoding="UTF-8" standalone="no"?>
<svg width="24px" height="49px" viewBox="0 0 24 49" version="1.1" xmlns="http://www.w3.org/2000/svg" xmlns:xlink="http://www.w3.org/1999/xlink" xmlns:sketch="http://www.bohemiancoding.com/sketch/ns">
    <!-- Generator: Sketch 3.1.1 (8761) - http://www.bohemiancoding.com/sketch -->
    <title>micro_F</title>
    <desc>Created with Sketch.</desc>
    <defs></defs>
    <g id="Page-1" stroke="none" stroke-width="1" fill="none" fill-rule="evenodd" sketch:type="MSPage">
        <g id="full-icons" sketch:type="MSLayerGroup" transform="translate(-313.000000, -500.000000)" fill-opacity="0.9" fill="#FFFFFF">
            <g id="row-6-F" transform="translate(3.000000, 500.000000)" sketch:type="MSShapeGroup">
                <path d="M321,39.9500003 L321,46.9500002 L321,46.9500002 L316,46.9500002 L316,48.9500002 L328,48.9500002 L328,46.9500002 L323,46.9500002 L323,39.9500003 L323.000918,39.9500003 C329.075543,39.9500003 334,35.0264683 334,28.9500004 C334,28.9500004 334,17.9500006 334,17.9500003 C334,17.9500002 310,17.9500003 310,17.9500003 C310,17.9500003 310,28.9500003 310,28.9500003 C310,35.0251325 314.929186,39.9500003 320.999082,39.9500003 L321,39.9500003 L321,39.9500003 Z M312,17.9500003 C312,17.9500003 312,27.9500003 312,27.9500003 C312,33.4728478 316.475938,37.9500003 322,37.9500003 C327.522847,37.9500003 332,33.4740622 332,27.9500003 L332,17.9500003 C332,17.9500003 312,17.9500003 312,17.9500003 Z M314,19.0347285 L314,27.9505621 C314,32.3685298 317.590712,35.95 322,35.9499998 L322,35.9499998 C326.418278,35.9499996 330,32.3627054 330,27.9505616 C330,27.9505616 330,19.0347282 330,19.0347285 C330,19.0347287 314,19.0347285 314,19.0347285 Z M314,16.9499998 L314,8.0545777 C314,3.63377117 317.590712,0.0499995738 322,0.0499997972 L322,0.0499997972 C326.418278,0.050000021 330,3.63405551 330,8.05457825 C330,8.05457825 330,16.9500002 330,16.9499998 C330,16.9499996 314,16.9499998 314,16.9499998 Z" id="micro_F"></path>
            </g>
        </g>
    </g>
</svg>