<?xml version="1.0" encoding="UTF-8" standalone="no"?>
<svg width="22px" height="45px" viewBox="0 0 22 45" version="1.1" xmlns="http://www.w3.org/2000/svg" xmlns:xlink="http://www.w3.org/1999/xlink" xmlns:sketch="http://www.bohemiancoding.com/sketch/ns">
    <!-- Generator: Sketch 3.1.1 (8761) - http://www.bohemiancoding.com/sketch -->
    <title>pin_F</title>
    <desc>Created with Sketch.</desc>
    <defs></defs>
    <g id="Page-1" stroke="none" stroke-width="1" fill="none" fill-rule="evenodd" sketch:type="MSPage">
        <g id="full-icons" sketch:type="MSLayerGroup" transform="translate(-414.000000, -502.000000)" fill-opacity="0.9" fill="#FFFFFF">
            <g id="row-6-F" transform="translate(3.000000, 500.000000)" sketch:type="MSShapeGroup">
                <path d="M421,23.955157 L421,47 L423,47 L423,23.955157 C428.6065,23.4499283 433,18.7380429 433,13 C433,6.92486745 428.075133,2 422,2 C415.924867,2 411,6.92486745 411,13 C411,18.7380429 415.3935,23.4499283 421,23.955157 Z M418,9 C418.552285,9 419,8.55228478 419,8 C419,7.44771522 418.552285,7 418,7 C417.447715,7 417,7.44771522 417,8 C417,8.55228478 417.447715,9 418,9 Z" id="pin_F"></path>
            </g>
        </g>
    </g>
</svg>