<?xml version="1.0" encoding="UTF-8" standalone="no"?>
<svg width="48px" height="48px" viewBox="0 0 48 48" version="1.1" xmlns="http://www.w3.org/2000/svg" xmlns:xlink="http://www.w3.org/1999/xlink" xmlns:sketch="http://www.bohemiancoding.com/sketch/ns">
    <!-- Generator: Sketch 3.1.1 (8761) - http://www.bohemiancoding.com/sketch -->
    <title>search_F</title>
    <desc>Created with Sketch.</desc>
    <defs></defs>
    <g id="Page-1" stroke="none" stroke-width="1" fill="none" fill-rule="evenodd" sketch:type="MSPage">
        <g id="full-icons" sketch:type="MSLayerGroup" transform="translate(-1.000000, -301.000000)" fill-opacity="0.9" fill="#FFFFFF">
            <g id="row-4-F" transform="translate(1.000000, 301.000000)" sketch:type="MSShapeGroup">
                <path d="M19,36 C9.625,36 2,28.38 2,19 C2,9.63 9.625,2 19,2 C28.373,2 36,9.63 36,19 C36,28.38 28.373,36 19,36 L19,36 L19,36 L19,36 Z M33.614,31.14 C36.352,27.85 38,23.62 38,19 C38,8.51 29.494,0 19,0 C8.508,0 0,8.51 0,19 C0,29.5 8.508,38 19,38 C23.617,38 27.846,36.35 31.139,33.62 L44.762,47.24 L47.237,44.77 L33.614,31.14 L33.614,31.14 Z M19,4 C10.715,4 4,10.72 4,19 C4,27.28 10.715,34 19,34 C27.283,34 34,27.28 34,19 C34,10.72 27.283,4 19,4" id="search_F"></path>
            </g>
        </g>
    </g>
</svg>