<?xml version="1.0" encoding="UTF-8" standalone="no"?>
<svg width="51px" height="50px" viewBox="0 0 51 50" version="1.1" xmlns="http://www.w3.org/2000/svg" xmlns:xlink="http://www.w3.org/1999/xlink" xmlns:sketch="http://www.bohemiancoding.com/sketch/ns">
    <!-- Generator: Sketch 3.1.1 (8761) - http://www.bohemiancoding.com/sketch -->
    <title>timer_F</title>
    <desc>Created with Sketch.</desc>
    <defs></defs>
    <g id="Page-1" stroke="none" stroke-width="1" fill="none" fill-rule="evenodd" sketch:type="MSPage">
        <g id="full-icons" sketch:type="MSLayerGroup" transform="translate(-398.000000, -200.000000)" fill-opacity="0.9" fill="#FFFFFF">
            <g id="row-3-F" transform="translate(0.000000, 199.000000)" sketch:type="MSShapeGroup">
                <path d="M423.946,48.97 C411.244,48.97 400.946,38.67 400.946,25.97 C400.946,19.61 403.521,13.86 407.683,9.7 L409.105,11.12 C405.302,14.93 402.946,20.18 402.946,25.97 C402.946,37.54 412.367,46.97 423.946,46.97 C435.526,46.97 444.946,37.54 444.946,25.97 C444.946,14.72 436.06,5.54 424.946,5.02 L424.946,12.95 L422.946,12.95 L422.946,2.99 C423.278,2.98 423.61,2.97 423.946,2.97 C436.649,2.97 446.946,13.26 446.946,25.97 C446.946,38.67 436.649,48.97 423.946,48.97 L423.946,48.97 L423.946,48.97 L423.946,48.97 Z M412.339,14.29 C412.708,14.01 413.216,14.02 413.569,14.29 L425.692,23.52 C425.808,23.6 425.88,23.69 425.958,23.78 C426.56,24.33 426.946,25.11 426.946,26 C426.946,27.65 425.603,29 423.946,29 C423.001,29 422.169,28.55 421.618,27.87 C421.575,27.82 421.521,27.78 421.482,27.73 L412.155,15.71 C411.816,15.27 411.898,14.63 412.339,14.29 C412.339,14.29 411.898,14.63 412.339,14.29 L412.339,14.29 L412.339,14.29 Z M423.946,1 C410.14,1 398.946,12.19 398.946,26 C398.946,39.8 410.14,51 423.946,51 C437.753,51 448.946,39.8 448.946,26 C448.946,12.19 437.753,1 423.946,1 L423.946,1 Z" id="timer_F"></path>
            </g>
        </g>
    </g>
</svg>