<?xml version="1.0" encoding="UTF-8" standalone="no"?>
<svg width="50px" height="50px" viewBox="0 0 50 50" version="1.1" xmlns="http://www.w3.org/2000/svg" xmlns:xlink="http://www.w3.org/1999/xlink" xmlns:sketch="http://www.bohemiancoding.com/sketch/ns">
    <!-- Generator: Sketch 3.1.1 (8761) - http://www.bohemiancoding.com/sketch -->
    <title>unlock_F</title>
    <desc>Created with Sketch.</desc>
    <defs></defs>
    <g id="Page-1" stroke="none" stroke-width="1" fill="none" fill-rule="evenodd" sketch:type="MSPage">
        <g id="full-icons" sketch:type="MSLayerGroup" transform="translate(-500.000000, -396.000000)" fill-opacity="0.9" fill="#FFFFFF">
            <g id="row-5-F" transform="translate(0.000000, 396.000000)" sketch:type="MSShapeGroup">
                <path d="M525,50 C538.807119,50 550,38.8071194 550,25 C550,11.1928806 538.807119,0 525,0 C511.192881,0 500,11.1928806 500,25 C500,38.8071194 511.192881,50 525,50 Z M535.583298,37 C532.762765,39.4894537 529.057786,41 525,41 C516.163444,41 509,33.8365564 509,25 C509,16.1634436 516.163444,9 525,9 C533.836556,9 541,16.1634436 541,25 L539,25 C539,17.2680131 532.731987,11 525,11 C517.268013,11 511,17.2680131 511,25 C511,32.7319869 517.268013,39 525,39 C527.639336,39 530.108088,38.2696397 532.215174,37 L535.583298,37 L535.583298,37 Z M540,31 L543.464102,25 L536.535898,25 L540,31 Z M517.64,22.16 L517.64,33.2 L532.36,33.2 L532.36,22.16 L517.64,22.16 Z M524.075747,14.8 C522.045688,14.8 520.4,16.4505944 520.4,18.4774752 L520.4,22.1549504 C521.010225,22.155146 522.052309,22.1545656 522.933206,22.1549504 C525.447351,22.1560487 528.373985,22.1581265 529.636215,22.1549504 L529.618107,18.4774752 C529.608107,16.4464617 527.955224,14.8 525.924253,14.8 L524.075747,14.8 Z M525,16.64 C523.475694,16.64 522.24,17.8657607 522.24,19.4015631 L522.24,22.1631261 L527.76,22.1631261 C527.76,21.2274626 527.76,19.4083749 527.76,19.4083749 C527.76,17.8794436 526.521204,16.64 525,16.64 L525,16.64 Z M527.76028,19.4015631 L527.76028,22.1609094 L529.636215,22.1609094 L529.636215,19.4015631 L527.76028,19.4015631 Z" id="unlock_F"></path>
            </g>
        </g>
    </g>
</svg>