<?xml version="1.0" encoding="UTF-8" standalone="no"?>
<svg width="48px" height="48px" viewBox="0 0 48 48" version="1.1" xmlns="http://www.w3.org/2000/svg" xmlns:xlink="http://www.w3.org/1999/xlink" xmlns:sketch="http://www.bohemiancoding.com/sketch/ns">
    <!-- Generator: Sketch 3.1.1 (8761) - http://www.bohemiancoding.com/sketch -->
    <title>user_F</title>
    <desc>Created with Sketch.</desc>
    <defs></defs>
    <g id="Page-1" stroke="none" stroke-width="1" fill="none" fill-rule="evenodd" sketch:type="MSPage">
        <g id="full-icons" sketch:type="MSLayerGroup" transform="translate(0.000000, -201.000000)" fill-opacity="0.9" fill="#FFFFFF">
            <g id="row-3-F" transform="translate(0.000000, 199.000000)" sketch:type="MSShapeGroup">
                <path d="M40.915,40.04 C38.722,39.13 33.543,37.33 30.339,36.39 C30.064,36.3 30.022,36.29 30.022,35.15 C30.022,34.21 30.408,33.26 30.785,32.46 C31.194,31.59 31.679,30.13 31.851,28.82 C32.339,28.25 33.001,27.14 33.426,25.02 C33.8,23.15 33.625,22.47 33.378,21.83 C33.351,21.76 33.324,21.69 33.306,21.63 C33.212,21.19 33.34,18.91 33.66,17.14 C33.882,15.93 33.604,13.35 31.934,11.22 C30.88,9.87 28.861,8.21 25.176,7.98 L23.154,7.98 C19.531,8.21 17.513,9.87 16.458,11.22 C14.788,13.35 14.511,15.93 14.731,17.14 C15.053,18.91 15.181,21.19 15.089,21.62 C15.068,21.69 15.041,21.76 15.015,21.83 C14.767,22.47 14.593,23.15 14.967,25.02 C15.392,27.14 16.054,28.25 16.541,28.82 C16.714,30.13 17.198,31.59 17.607,32.46 C17.907,33.1 18.047,33.96 18.047,35.19 C18.047,36.33 18.005,36.34 17.748,36.42 C14.434,37.4 9.158,39.31 7.191,40.17 C3.956,36.34 2,31.39 2,26 C2,13.86 11.869,4 24,4 C36.131,4 46,13.86 46,26 C46,31.33 44.088,36.23 40.915,40.04 C40.915,40.04 44.088,36.23 40.915,40.04 L40.915,40.04 L40.915,40.04 Z M24,2 C10.745,2 0,12.74 0,26 C0,39.25 10.745,50 24,50 C37.256,50 48,39.25 48,26 C48,12.74 37.256,2 24,2 L24,2 Z" id="user_F"></path>
            </g>
        </g>
    </g>
</svg>