<?xml version="1.0" encoding="UTF-8" standalone="no"?>
<svg width="50px" height="50px" viewBox="0 0 50 50" version="1.1" xmlns="http://www.w3.org/2000/svg" xmlns:xlink="http://www.w3.org/1999/xlink" xmlns:sketch="http://www.bohemiancoding.com/sketch/ns">
    <!-- Generator: Sketch 3.1.1 (8761) - http://www.bohemiancoding.com/sketch -->
    <title>wifi_F</title>
    <desc>Created with Sketch.</desc>
    <defs></defs>
    <g id="Page-1" stroke="none" stroke-width="1" fill="none" fill-rule="evenodd" sketch:type="MSPage">
        <g id="full-icons" sketch:type="MSLayerGroup" transform="translate(-101.000000, -399.000000)" fill-opacity="0.9" fill="#FFFFFF">
            <g id="row-5-F" transform="translate(0.000000, 396.000000)" sketch:type="MSShapeGroup">
                <path d="M142.250566,24.2654021 C133.668512,15.6833479 119.685826,15.7517762 111.019362,24.4182409 L126.558545,39.9574237 M139.635229,26.880739 C132.483518,19.7290272 120.83128,19.7860508 113.609226,27.0081047 L126.558545,39.9574237 M137.019892,29.496076 C131.298523,23.7747065 121.976733,23.8203254 116.199089,29.5979685 L126.558545,39.9574237 M134.404556,32.1114129 C130.113528,27.8203858 123.122186,27.8546 118.788953,32.1878323 C118.788953,32.1878323 126.558545,39.9574234 126.558545,39.9574237 M131.789219,34.7267499 C128.928534,31.8660651 124.267639,31.8888746 121.378817,34.7776961 C118.489995,37.6665177 121.399652,34.7568607 121.399652,34.7568607 C121.399652,34.7568607 126.617196,39.9744038 126.617196,39.9744041 M126,53 C139.807119,53 151,41.8071194 151,28 C151,14.1928806 139.807119,3 126,3 C112.192881,3 101,14.1928806 101,28 C101,41.8071194 112.192881,53 126,53 Z" id="wifi_F"></path>
            </g>
        </g>
    </g>
</svg>