<?xml version="1.0" encoding="UTF-8" standalone="no"?>
<svg width="40px" height="49px" viewBox="0 0 40 49" version="1.1" xmlns="http://www.w3.org/2000/svg" xmlns:xlink="http://www.w3.org/1999/xlink" xmlns:sketch="http://www.bohemiancoding.com/sketch/ns">
    <!-- Generator: Sketch 3.1.1 (8761) - http://www.bohemiancoding.com/sketch -->
    <title>alien_L</title>
    <desc>Created with Sketch.</desc>
    <defs></defs>
    <g id="Page-1" stroke="none" stroke-width="1" fill="none" fill-rule="evenodd" sketch:type="MSPage">
        <g id="line-icons" sketch:type="MSLayerGroup" transform="translate(-504.000000, -505.000000)" fill="#900C21">
            <g id="row-6-line-icons" transform="translate(1.000000, 503.000000)" sketch:type="MSShapeGroup">
                <path d="M523,50.2805824 C527.271873,50.2805824 543,35.3199052 543,22.6173553 C543,9.91480547 534.045696,2 523,2 C511.954304,2 503,9.91480547 503,22.6173553 C503,35.3199052 518.728127,50.2805832 523,50.2805824 Z M523,48.2572006 C526.111179,48.257199 541.006763,34.2613594 541.006763,22.6173554 C541.006763,10.9733513 532.941126,4 523,4 C513.058874,4 504.928497,10.9733513 504.928497,22.6173553 C504.928497,34.2613594 519.920806,48.2572021 523,48.2572006 Z M519.735764,35.1915204 C520.722701,34.5004599 522.082688,28.0825934 518.914912,23.5585414 C515.747137,19.0344893 509.251173,18.1174193 508.264236,18.8084796 C507.277299,19.4995399 505.917312,25.9174066 509.085088,30.4414586 C512.252863,34.9655107 518.748828,35.8825812 519.735764,35.1915204 Z M518.588611,33.5532164 C518.588611,33.5532164 519.810828,28.3249359 517.276608,24.7056943 C514.742388,21.0864526 509.411388,20.4467836 509.411389,20.4467836 C509.411389,20.4467837 508.189172,25.6750641 510.723392,29.2943057 C513.257612,32.9135474 518.588611,33.5532164 518.588611,33.5532164 Z M526.55361,35.3867057 C527.564063,36.0429017 534.024065,34.8996841 537.032023,30.2678342 C540.039982,25.6359843 538.456843,19.2694906 537.44639,18.6132943 C536.435937,17.9570981 529.975935,19.1003159 526.967977,23.7321658 C523.960018,28.3640157 525.543156,34.73051 526.55361,35.3867057 Z M527.642888,33.7093645 C527.642888,33.7093645 532.948315,32.884036 535.354682,29.1785561 C537.761049,25.4730762 536.357112,20.2906355 536.357112,20.2906355 C536.357112,20.2906354 531.051685,21.115964 528.645318,24.8214439 C526.238951,28.5269238 527.642888,33.7093645 527.642888,33.7093645 Z" id="alien_L"></path>
            </g>
        </g>
    </g>
</svg>