<?xml version="1.0" encoding="UTF-8" standalone="no"?>
<svg width="48px" height="48px" viewBox="0 0 48 48" version="1.1" xmlns="http://www.w3.org/2000/svg" xmlns:xlink="http://www.w3.org/1999/xlink" xmlns:sketch="http://www.bohemiancoding.com/sketch/ns">
    <!-- Generator: Sketch 3.1.1 (8761) - http://www.bohemiancoding.com/sketch -->
    <title>baseball_L</title>
    <desc>Created with Sketch.</desc>
    <defs></defs>
    <g id="Page-1" stroke="none" stroke-width="1" fill="none" fill-rule="evenodd" sketch:type="MSPage">
        <g id="line-icons" sketch:type="MSLayerGroup" transform="translate(-304.000000, -405.000000)" fill="#900C21">
            <g id="row-5-line-icons" transform="translate(0.000000, 396.000000)" sketch:type="MSShapeGroup">
                <path d="M345.288324,25.5667545 C344.401564,26.1641574 343.328256,26.9645058 342.211982,27.9737506 L343.80603,30.1115266 C343.975925,30.3393725 343.967706,30.6912516 343.793924,30.9058545 C343.625224,31.1141813 343.343155,31.1135678 343.175257,30.890466 L341.490066,28.6511961 C340.808679,29.3150224 340.12284,30.0555266 339.464187,30.8740202 L341.279345,32.256283 C341.505461,32.4284731 341.594551,32.7689865 341.486654,33.0231769 C341.381912,33.2699334 341.110601,33.3470924 340.887712,33.1789122 L338.864454,31.6522707 L338.864454,31.6522707 C338.138725,32.6366768 337.460644,33.7222284 336.876581,34.9108473 C336.820416,35.0251485 336.765541,35.1403329 336.711928,35.2563445 L339.447675,36.6677451 C339.700257,36.7980545 339.847123,37.1179244 339.785005,37.3869892 C339.724703,37.6481851 339.470912,37.7712846 339.222205,37.6443637 L336.323588,36.1651341 C335.83583,37.4013499 335.475095,38.7102163 335.212136,40.0302866 L338.509687,41.1201888 C338.779544,41.2093815 338.974641,41.5023382 338.955378,41.7778079 C338.936679,42.0452213 338.705269,42.2065068 338.43977,42.120055 L335.034469,41.0112237 L335.034469,41.0112237 C334.807185,42.3997639 334.679806,43.7838915 334.618428,45.0923826 L337.477237,45.5089121 C337.758483,45.5498896 338.001487,45.8045175 338.030352,46.0791471 C338.058372,46.345745 337.858486,46.544764 337.582007,46.5057291 L334.583671,46.0824061 C334.54968,47.5267468 334.5904,48.8486941 334.655372,49.9422441 L337.255144,49.6822796 C337.537948,49.6540006 337.835334,49.8422768 337.929781,50.1017657 C338.021465,50.3536658 337.875663,50.59513 337.597953,50.6241408 L334.724022,50.9243652 C334.828842,52.2254142 334.949136,53.0185548 334.949136,53.0185548 C334.984989,53.2996221 334.809585,53.617438 334.555377,53.7375616 L334.460283,53.7824977 C334.19583,53.9074631 333.962832,53.7842177 333.916982,53.5180357 C333.916982,53.5180357 333.752206,52.6685468 333.600813,51.2696227 L331.00221,53.0247949 C330.766949,53.1836973 330.506686,53.0974158 330.41224,52.8379269 C330.320555,52.5860269 330.428451,52.240416 330.659401,52.0829337 L333.494783,50.1495152 L333.494783,50.1495152 C333.403873,49.0320297 333.339091,47.6960743 333.35582,46.2349238 L333.35582,46.2349238 L330.601415,47.2394189 C330.3347,47.3366863 330.103041,47.1900044 330.074177,46.9153748 C330.046156,46.6487769 330.234458,46.3395345 330.496646,46.2426019 L333.382203,45.1757925 C333.431033,43.9108336 333.54582,42.5740377 333.758783,41.2196698 L331.437825,41.6304313 C331.158271,41.6799064 330.955603,41.4952258 330.974866,41.2197561 C330.993565,40.9523427 331.232705,40.6804966 331.507742,40.6305651 L333.93983,40.1890321 C334.213749,38.7819502 334.601524,37.370756 335.138854,36.0155763 L335.138854,36.0155763 L332.38306,36.0654226 C332.099208,36.0705569 331.927926,35.8564457 331.990044,35.5873808 C332.050346,35.3261849 332.329068,35.0950955 332.60853,35.088804 L335.565066,35.0222433 C335.725364,34.6762981 335.896478,34.3351925 336.079044,33.9999996 C336.677333,32.9015338 337.318163,31.9026629 337.978796,30.9966553 L334.426649,30.4363536 C334.146218,30.3921196 334.014718,30.1515183 334.122615,29.8973279 C334.227357,29.6505715 334.541973,29.4713924 334.818281,29.5137245 L338.398085,30.062171 L338.58149,30.2018358 C339.274164,29.3231311 339.98065,28.5413629 340.675879,27.8491096 L340.675879,27.8491096 L337.720436,26.4732392 C337.463062,26.3534216 337.402974,26.0858943 337.576756,25.8712914 C337.745456,25.6629647 338.097272,25.5774466 338.351209,25.6942998 L341.44217,27.1166573 C342.571903,26.0802681 343.64552,25.2809526 344.549802,24.6851922 L342.035379,22.9269438 C341.802721,22.764254 341.790002,22.4903569 341.998409,22.3091912 C342.200721,22.1333238 342.562043,22.1101973 342.791831,22.2693708 L345.459196,24.1170525 C346.487067,23.5100973 347.137261,23.2469586 347.137261,23.2469586 C347.388624,23.1288126 347.678577,23.2420005 347.776701,23.4956226 L347.794171,23.5407767 C347.892777,23.7956451 347.776255,24.1021793 347.534989,24.2282238 C347.534989,24.2282238 346.987384,24.492052 346.119904,25.0291472 L347.396737,27.5667098 C347.524486,27.820596 347.455289,28.1657021 347.246881,28.3468678 C347.044569,28.5227352 346.766892,28.4731503 346.640286,28.2242828 L345.288324,25.5667545 Z M318.765888,17.0358958 C318.694881,18.1621939 318.584238,19.4794733 318.41183,20.8529574 L315.490479,20.1226196 C315.219595,20.0548987 315,20.2319336 315,20.5 C315,20.7761424 315.215057,21.0538136 315.490479,21.1227319 L318.280904,21.8209769 C318.071142,23.2639321 317.789507,24.7335066 317.411372,26.0796925 L317,26 L314.19009,23.7216355 C313.973206,23.545779 313.699368,23.6134224 313.586078,23.8563731 C313.469375,24.106643 313.546934,24.4491858 313.767425,24.628045 L316.576995,26.9071375 L317.126143,27.0133979 L317.126143,27.0133979 C316.96799,27.4892148 316.795681,27.943049 316.60795,28.3671827 C316.22853,29.2243889 315.730436,30.1320174 315.163395,31.0498417 L315,31 L312.443637,28.440401 C312.246323,28.2428374 311.966914,28.2814863 311.82885,28.5112641 C311.686626,28.7479643 311.727955,29.0967377 311.928541,29.2976646 L314.48449,31.8579521 L314.621275,31.8996445 C313.748614,33.2275317 312.764296,34.5508514 311.817707,35.7487608 L309.87552,33.0720107 C309.711541,32.8460127 309.429526,32.8404766 309.257216,33.0458273 C309.079715,33.2573647 309.065975,33.6083094 309.23266,33.8381412 L311.188176,36.5344826 L311.188176,36.5344826 C310.260382,37.6770082 309.404697,38.6651481 308.773267,39.3758275 L308.773267,39.3758275 L307.764882,36.59985 C307.669549,36.337408 307.399984,36.2543524 307.177747,36.4042533 C306.948815,36.5586701 306.838873,36.8922325 306.935751,37.1591056 L308.036944,40.1926081 C307.822634,40.4265402 307.702011,40.5544011 307.702011,40.5544011 C307.513746,40.7576968 307.505054,41.1024099 307.668689,41.3069526 L307.732231,41.3863801 C307.902093,41.5987071 308.188528,41.6037446 308.370959,41.3972589 C308.370959,41.3972589 308.487431,41.2674715 308.695116,41.0315332 L310.86075,42.978156 C311.068421,43.1648251 311.429053,43.1864547 311.65129,43.0365538 C311.880223,42.882137 311.900978,42.6087314 311.689881,42.4189003 L309.333223,40.2996539 C310.006406,39.5208132 310.969862,38.3860046 312.017294,37.0882827 L314.609559,38.349895 C314.860638,38.472091 315.213262,38.393479 315.385572,38.1881282 C315.563072,37.9765909 315.507663,37.7080557 315.252419,37.5837646 L312.638802,36.3110645 C313.672084,35.0064284 314.74594,33.5855272 315.675813,32.2210714 L315.675813,32.2210714 L317.945035,32.912739 C318.212139,32.9941531 318.548124,32.8613464 318.686188,32.6315686 C318.828412,32.3948684 318.731676,32.1383073 318.460131,32.0554754 L316.236564,31.3772005 C316.791886,30.518035 317.27147,29.6972406 317.625949,28.9610157 C317.869719,28.4547232 318.088479,27.8726009 318.284778,27.2375944 L320.128838,27.5944207 C320.402988,27.647469 320.723251,27.4802698 320.83654,27.2373192 C320.953243,26.9870492 320.830219,26.7420051 320.551504,26.6880112 L318.549376,26.3001511 C318.899745,24.9429398 319.165475,23.4184602 319.366843,21.9091209 L319.366843,21.9091209 L322.509521,21.1227319 C322.780405,21.0549489 323,20.7680664 323,20.5 C323,20.2238576 322.784943,20.0537643 322.509521,20.1226196 L319.495372,20.8761569 C319.657385,19.4776316 319.766988,18.1290773 319.840855,16.9804732 L320.292639,16.9571803 L323.392055,15.0912843 C323.631285,14.9472644 323.757408,14.608714 323.679033,14.3523608 C323.598297,14.0882845 323.342906,13.9885002 323.099651,14.1348722 L320,16 L319.898109,16.0052753 C319.975708,14.5446223 319.98968,13.5909572 319.98968,13.5909572 C319.996086,13.3182633 319.778104,13.0972013 319.501491,13.0972013 L319.398235,13.0972013 C319.12221,13.0972013 318.896994,13.3113373 318.893081,13.5962347 C318.893081,13.5962347 318.893625,14.5685444 318.820492,16.0610672 L316.387307,16.1870418 C316.10846,16.2014786 315.95022,16.4349813 316.028595,16.6913344 C316.109331,16.9554107 316.396175,17.1580723 316.679711,17.1434539 L318.765888,17.0358958 L318.765888,17.0358958 Z M328,57 C341.254835,57 352,46.2548347 352,33 C352,19.7451653 341.254835,9 328,9 C314.745165,9 304,19.7451653 304,33 C304,46.2548347 314.745165,57 328,57 Z M328,55 C340.150265,55 350,45.1502651 350,33 C350,20.8497349 340.150265,11 328,11 C315.849735,11 306,20.8497349 306,33 C306,45.1502651 315.849735,55 328,55 Z" id="baseball_L"></path>
            </g>
        </g>
    </g>
</svg>