<?xml version="1.0" encoding="UTF-8" standalone="no"?>
<svg width="48px" height="48px" viewBox="0 0 48 48" version="1.1" xmlns="http://www.w3.org/2000/svg" xmlns:xlink="http://www.w3.org/1999/xlink" xmlns:sketch="http://www.bohemiancoding.com/sketch/ns">
    <!-- Generator: Sketch 3.1.1 (8761) - http://www.bohemiancoding.com/sketch -->
    <title>basketball_L</title>
    <desc>Created with Sketch.</desc>
    <defs></defs>
    <g id="Page-1" stroke="none" stroke-width="1" fill="none" fill-rule="evenodd" sketch:type="MSPage">
        <g id="line-icons" sketch:type="MSLayerGroup" transform="translate(0.000000, -405.000000)" fill="#900C21">
            <g id="row-5-line-icons" transform="translate(0.000000, 396.000000)" sketch:type="MSShapeGroup">
                <path d="M24,57 C37.2548347,57 48,46.2548347 48,33 C48,19.7451653 37.2548347,9 24,9 C10.7451653,9 0,19.7451653 0,33 C0,46.2548347 10.7451653,57 24,57 Z M35.6650105,29.7864324 C36.5412579,29.7864327 38.7007073,33.4292694 40.142664,36.8444288 C41.5846205,40.2595884 42.4194374,44.6613491 42.4194374,44.6613491 C42.4194374,44.6613491 39.5248516,49.489395 34.9999996,52.0693121 C30.4751474,54.6492287 26.5579186,54.9827192 26.5579186,54.9827192 C26.5579186,54.9827192 29.8439517,51.828336 31.1862677,42.3713415 C32.401636,33.8087314 34.7887631,29.7864322 35.6650105,29.7864324 Z M37.5994249,27.5276574 C37.5994248,27.2188301 39.7845,26.6129753 41.6138653,26.6129748 C43.4432305,26.6129748 45.0653995,27.288171 45.3742269,28.1374458 C45.6830543,28.9867207 46.3397244,31.3896508 45.9840154,34.9753217 C45.6283064,38.5609927 43.9372857,42.384576 43.9372857,42.384576 C43.9372857,42.384576 42.9350737,38.0750798 41.6138652,34.9753217 C40.2926566,31.8755637 37.5994249,27.8364847 37.5994249,27.5276574 Z M36.4827624,20.1272975 C34.7649108,21.4012098 33.3602377,22.5401577 33.3602377,22.5401577 L36.1043768,25.8202053 C36.1043768,25.8202053 38.6678198,24.5462935 40.9298019,24.5462933 C43.191784,24.5462931 44.6743323,25.2411543 44.6743323,25.2411543 C44.6743323,25.2411543 43.4636887,22.5673645 42.3761006,20.9216162 C41.2885122,19.275868 39.7472201,17.7854039 39.7472201,17.7854039 C39.7472201,17.7854039 38.200614,18.8533853 36.4827624,20.1272975 Z M28.8083085,18.5840939 L31.6876826,21.2265103 L38.3069761,16.2017069 C38.3069761,16.2017069 36.8959843,15.2195312 34.4488512,13.6549709 C33.0587853,12.7662405 30.5868581,11.8764213 30.5868581,11.8764213 C30.5868581,11.8764213 31.2694835,13.4099377 31.095015,15.0269948 C30.9205465,16.6440519 28.8083085,18.5840939 28.8083085,18.5840939 Z M22.1320558,11.0633701 C25.1107862,10.8601073 27.9695131,11.4028856 28.4525986,11.5207114 C28.884025,11.6259374 29.4874961,13.1907571 29.2148342,14.4172065 C28.932169,15.6886524 27.8428099,17.0596231 27.233022,17.0596231 C26.9135913,17.0596231 24.6840251,15.4043742 22.1320555,14.2139436 C19.4063781,12.9424825 16.3584616,12.1304998 16.3584616,12.1304998 C16.3584616,12.1304998 19.1533253,11.2666329 22.1320558,11.0633701 Z M6.39872359,19.7282709 C8.67268443,16.8259768 11.8101509,13.9090494 14.2242021,13.9090494 C18.0689454,13.9090495 24.4512843,17.3148268 24.5800016,18.6663555 C24.7021393,19.9487976 17.1144142,21.5624888 11.2577906,22.7531206 C5.40116691,23.9437525 3.11643981,25.8423292 3.11643981,25.8423292 C3.11643981,25.8423292 4.0614066,22.7114276 6.39872359,19.7282709 Z M26.7756795,19.8036708 L29.9262532,22.8017971 C29.9262532,22.8017971 22.7620926,28.3253791 16.2632777,35.0116605 C9.76446264,41.6979417 6.30384722,46.2031869 6.30384722,46.2031869 C6.30384722,46.2031869 4.17808198,43.0544299 2.79066933,38.7579268 C1.40325659,34.4614238 2.28251233,29.1537598 2.28251233,29.1537598 C2.28251233,29.1537598 4.06199266,25.4473739 13.7668609,24.0721897 C23.4717292,22.6970061 26.7756795,19.8036708 26.7756795,19.8036708 Z M31.5151101,24.0304535 C31.5151101,24.0304535 24.8462785,29.2480138 19.2379093,34.9592898 C13.6295398,40.6705656 7.81230745,47.6622889 7.81230745,47.6622889 C7.81230745,47.6622889 10.1871284,50.789602 14.464063,53 C18.7409976,55.2103977 23.5222209,55.2103977 23.5222209,55.2103977 C23.5222209,55.2103977 27.5483676,52.2923126 28.8346913,42.6122532 C30.1210149,32.9321937 34.2230548,26.9784124 34.2230548,26.9784124 L31.5151101,24.0304535 Z" id="basketball_L"></path>
            </g>
        </g>
    </g>
</svg>