<?xml version="1.0" encoding="UTF-8" standalone="no"?>
<svg width="50px" height="37px" viewBox="0 0 50 37" version="1.1" xmlns="http://www.w3.org/2000/svg" xmlns:xlink="http://www.w3.org/1999/xlink" xmlns:sketch="http://www.bohemiancoding.com/sketch/ns">
    <!-- Generator: Sketch 3.1.1 (8761) - http://www.bohemiancoding.com/sketch -->
    <title>bed_L</title>
    <desc>Created with Sketch.</desc>
    <defs></defs>
    <g id="Page-1" stroke="none" stroke-width="1" fill="none" fill-rule="evenodd" sketch:type="MSPage">
        <g id="line-icons" sketch:type="MSLayerGroup" transform="translate(-199.000000, -211.000000)" fill="#900C21">
            <g id="row-3-line-icons" transform="translate(4.000000, 202.000000)" sketch:type="MSShapeGroup">
                <path d="M197,43 L243,43 L243,44.9993054 C243,45.5519738 243.443865,46 244,46 C244.552285,46 245,45.5525308 245,44.9993054 L245,23.0006946 C245,22.4480262 244.556135,22 244,22 C243.447715,22 243,22.4474692 243,23.0006946 L243,26.3547256 C242.265385,25.5240458 241.189539,25 239.990107,25 L200.009893,25 C198.810901,25 197.734817,25.525182 197,26.3564903 L197,23.0006946 C197,22.4480262 196.556135,22 196,22 C195.447715,22 195,22.4474692 195,23.0006946 L195,44.9993054 C195,45.5519738 195.443865,46 196,46 C196.552285,46 197,45.5525308 197,44.9993054 L197,43 L197,43 Z M200.000444,27 C198.343345,27 197,28.3423789 197,30.0033512 L197,41 L243,41 L243,30.0033512 C243,28.3446462 241.648219,27 239.999556,27 L200.000444,27 Z M239,9 C238.447715,9 238,9.44463086 238,10.0008717 L238,25 L240,25 L240,10.0008717 C240,9.4481055 239.556135,9 239,9 Z M201,9 C200.447715,9 200,9.44463086 200,10.0008717 L200,25 L202,25 L202,10.0008717 C202,9.4481055 201.556135,9 201,9 Z M202,12 L202,14 L238,14 L238,12 L202,12 Z M235.606569,19.5661811 C234.029657,18.2033685 232.096106,18.035542 229,18.035542 C225.539803,18.035542 223.710562,18.4945373 222.363212,19.5661811 C220.173675,21.307677 221,24 221,24 L237,24 C237,24 237.458238,21.1664458 235.606569,19.5661811 Z M217.606569,19.5661811 C216.029657,18.2033685 214.096106,18.035542 211,18.035542 C207.539803,18.035542 205.710562,18.4945373 204.363212,19.5661811 C202.173675,21.307677 203,24 203,24 L219,24 C219,24 219.458238,21.1664458 217.606569,19.5661811 Z M215.37363,20.5319186 C214.015163,20 212.258734,20 211.006092,20 C209.622794,20 207.652515,20.1591614 206.679448,20.5319186 C205.165519,21.1118658 205,22 205,22 L216.867942,22 C216.867942,22 216.732096,21.0638373 215.37363,20.5319186 Z M233.37363,20.5319186 C232.015163,20 230.258734,20 229.006092,20 C227.622794,20 225.652515,20.1591614 224.679448,20.5319186 C223.165519,21.1118658 223,22 223,22 L234.867942,22 C234.867942,22 234.732096,21.0638373 233.37363,20.5319186 Z" id="bed_L"></path>
            </g>
        </g>
    </g>
</svg>