<?xml version="1.0" encoding="UTF-8" standalone="no"?>
<svg width="48px" height="48px" viewBox="0 0 48 48" version="1.1" xmlns="http://www.w3.org/2000/svg" xmlns:xlink="http://www.w3.org/1999/xlink" xmlns:sketch="http://www.bohemiancoding.com/sketch/ns">
    <!-- Generator: Sketch 3.1.1 (8761) - http://www.bohemiancoding.com/sketch -->
    <title>billiards_ball_L </title>
    <desc>Created with Sketch.</desc>
    <defs></defs>
    <g id="Page-1" stroke="none" stroke-width="1" fill="none" fill-rule="evenodd" sketch:type="MSPage">
        <g id="line-icons" sketch:type="MSLayerGroup" transform="translate(-500.000000, -406.000000)" fill="#900C21">
            <g id="row-5-line-icons" transform="translate(0.000000, 396.000000)" sketch:type="MSShapeGroup">
                <path d="M524,58 C537.254835,58 548,47.2548347 548,34 C548,20.7451653 537.254835,10 524,10 C510.745165,10 500,20.7451653 500,34 C500,47.2548347 510.745165,58 524,58 Z M524,56 C536.150265,56 546,46.1502651 546,34 C546,21.8497349 536.150265,12 524,12 C511.849735,12 502,21.8497349 502,34 C502,46.1502651 511.849735,56 524,56 Z M530.5,43 C537.40356,43 543,37.4035597 543,30.5 C543,23.5964403 537.40356,18 530.5,18 C523.59644,18 518,23.5964403 518,30.5 C518,37.4035597 523.59644,43 530.5,43 Z M533.134967,27.4038666 C533.528121,26.7798999 533.643855,26.1177606 533.482171,25.4174286 C533.341575,24.8084442 532.968816,24.3051855 532.36388,23.9076372 C531.758944,23.5100889 530.957882,23.4264282 529.96067,23.6566527 C528.971071,23.8851198 528.314398,24.3053249 527.990633,24.9172808 C527.666868,25.5292366 527.584071,26.1777585 527.74224,26.8628659 C527.919742,27.6317086 528.344034,28.1671686 529.015131,28.4692621 C529.686228,28.7713555 530.409993,28.8327719 531.186448,28.6535131 C532.092312,28.4443779 532.741812,28.0278332 533.134967,27.4038666 Z M535.372456,35.4024185 C535.881844,34.7435992 536.018787,33.9041778 535.78329,32.8841291 C535.539006,31.8260188 535.030081,31.0976228 534.2565,30.6989192 C533.482918,30.3002156 532.589923,30.2177347 531.577486,30.4514741 C530.595499,30.6781837 529.858901,31.1428994 529.36767,31.845635 C528.876439,32.5483706 528.745059,33.3945255 528.973526,34.3841251 C529.170359,35.2367031 529.623943,35.9077189 530.334291,36.3971925 C531.044639,36.8866661 531.993558,36.994321 533.181078,36.7201606 C534.132616,36.5004807 534.863068,36.0612377 535.372456,35.4024185 Z M527.037171,29.5392873 C526.295204,29.0691406 525.811751,28.3468906 525.586799,27.3725157 C525.305609,26.154547 525.505472,25.005941 526.186393,23.9266631 C526.867315,22.8473852 528.018469,22.1205899 529.63989,21.7462554 C531.208025,21.384223 532.532733,21.5133622 533.614055,22.1336768 C534.695377,22.7539915 535.363442,23.616028 535.61827,24.7198121 C535.853767,25.7398608 535.785632,26.6255355 535.413863,27.3768626 C535.207195,27.8014235 534.838916,28.2552716 534.309017,28.7384204 C535.058567,28.8941128 535.674019,29.1288669 536.15539,29.4426896 C537.054303,30.0369633 537.644346,30.9430709 537.925536,32.1610396 C538.257692,33.5997651 538.055943,34.9312143 537.320284,36.155427 C536.584625,37.3796397 535.333786,38.1955968 533.567732,38.6033226 C531.97676,38.9706273 530.531572,38.8492582 529.232125,38.2392116 C527.932678,37.629165 527.093163,36.5020298 526.713557,34.8577721 C526.490362,33.8910094 526.533464,33.0010918 526.842863,32.1879924 C527.152263,31.3748931 527.728248,30.6746487 528.570834,30.0872382 C527.943674,29.9754524 527.432457,29.7928039 527.037171,29.5392873 Z" id="billiards_ball_L-"></path>
            </g>
        </g>
    </g>
</svg>