<?xml version="1.0" encoding="UTF-8" standalone="no"?>
<svg width="32px" height="50px" viewBox="0 0 32 50" version="1.1" xmlns="http://www.w3.org/2000/svg" xmlns:xlink="http://www.w3.org/1999/xlink" xmlns:sketch="http://www.bohemiancoding.com/sketch/ns">
    <!-- Generator: Sketch 3.1.1 (8761) - http://www.bohemiancoding.com/sketch -->
    <title>bookshelf_L</title>
    <desc>Created with Sketch.</desc>
    <defs></defs>
    <g id="Page-1" stroke="none" stroke-width="1" fill="none" fill-rule="evenodd" sketch:type="MSPage">
        <g id="line-icons" sketch:type="MSLayerGroup" transform="translate(-108.000000, -203.000000)" fill="#900C21">
            <g id="row-3-line-icons" transform="translate(4.000000, 202.000000)" sketch:type="MSShapeGroup">
                <path d="M106,18 L106,19 L134,19 L134,18 L106,18 Z M108.5,9 C107.671573,9 107,9.67646277 107,10.5063976 L107,18 L110,18 L110,10.5063976 C110,9.6744372 109.334203,9 108.5,9 Z M112.5,9 C111.671573,9 111,9.67646277 111,10.5063976 L111,18 L114,18 L114,10.5063976 C114,9.6744372 113.334203,9 112.5,9 Z M127.5,23 C126.671573,23 126,23.6764628 126,24.5063976 L126,32 L129,32 L129,24.5063976 C129,23.6744372 128.334203,23 127.5,23 Z M131.5,23 C130.671573,23 130,23.6764628 130,24.5063976 L130,32 L133,32 L133,24.5063976 C133,23.6744372 132.334203,23 131.5,23 Z M123.5,23 C122.671573,23 122,23.6764628 122,24.5063976 L122,32 L125,32 L125,24.5063976 C125,23.6744372 124.334203,23 123.5,23 Z M112.5,37 C111.671573,37 111,37.6764628 111,38.5063976 L111,46 L114,46 L114,38.5063976 C114,37.6744372 113.334203,37 112.5,37 Z M116.5,37 C115.671573,37 115,37.6764628 115,38.5063976 L115,46 L118,46 L118,38.5063976 C118,37.6744372 117.334203,37 116.5,37 Z M118.791832,37.9061402 C118.130221,38.4047001 118.000985,39.3491099 118.500452,40.0119254 L123.010214,45.9965823 L125.406121,44.1911373 L120.896358,38.2064803 C120.395672,37.5420472 119.458056,37.4041044 118.791832,37.9061402 Z M108.5,37 C107.671573,37 107,37.6764628 107,38.5063976 L107,46 L110,46 L110,38.5063976 C110,37.6744372 109.334203,37 108.5,37 Z M132,16.5 C132,15.6715729 131.323537,15 130.493602,15 L123,15 L123,18 L130.493602,18 C131.325563,18 132,17.3342028 132,16.5 Z M106,5 L106,6 L134,6 L134,5 L106,5 Z M106,32 L106,33 L134,33 L134,32 L106,32 Z M106,46 L106,47 L134,47 L134,46 L106,46 Z M105,1 C104.447715,1 104,1.44752574 104,1.99876896 L104,50.001231 C104,50.5528359 104.443865,51 105,51 L105,51 C105.552285,51 106,50.5524743 106,50.001231 L106,1.99876896 C106,1.44716409 105.556135,1 105,1 L105,1 Z M135,1 C134.447715,1 134,1.44752574 134,1.99876896 L134,50.001231 C134,50.5528359 134.443865,51 135,51 L135,51 C135.552285,51 136,50.5524743 136,50.001231 L136,1.99876896 C136,1.44716409 135.556135,1 135,1 L135,1 Z" id="bookshelf_L"></path>
            </g>
        </g>
    </g>
</svg>