<?xml version="1.0" encoding="UTF-8" standalone="no"?>
<svg width="48px" height="48px" viewBox="0 0 48 48" version="1.1" xmlns="http://www.w3.org/2000/svg" xmlns:xlink="http://www.w3.org/1999/xlink" xmlns:sketch="http://www.bohemiancoding.com/sketch/ns">
    <!-- Generator: Sketch 3.1.1 (8761) - http://www.bohemiancoding.com/sketch -->
    <title>bowling_ball_L</title>
    <desc>Created with Sketch.</desc>
    <defs></defs>
    <g id="Page-1" stroke="none" stroke-width="1" fill="none" fill-rule="evenodd" sketch:type="MSPage">
        <g id="line-icons" sketch:type="MSLayerGroup" transform="translate(-400.000000, -406.000000)" fill="#900C21">
            <g id="row-5-line-icons" transform="translate(0.000000, 396.000000)" sketch:type="MSShapeGroup">
                <path d="M424,58 C437.254835,58 448,47.2548347 448,34 C448,20.7451653 437.254835,10 424,10 C410.745165,10 400,20.7451653 400,34 C400,47.2548347 410.745165,58 424,58 Z M424,56 C436.150265,56 446,46.1502651 446,34 C446,21.8497349 436.150265,12 424,12 C411.849735,12 402,21.8497349 402,34 C402,46.1502651 411.849735,56 424,56 Z M425,24 C426.656854,24 428,22.6568543 428,21 C428,19.3431457 426.656854,18 425,18 C423.343146,18 422,19.3431457 422,21 C422,22.6568543 423.343146,24 425,24 Z M418,37 C419.656854,37 421,35.6568543 421,34 C421,32.3431457 419.656854,31 418,31 C416.343146,31 415,32.3431457 415,34 C415,35.6568543 416.343146,37 418,37 Z M416,24 C417.656854,24 419,22.6568543 419,21 C419,19.3431457 417.656854,18 416,18 C414.343146,18 413,19.3431457 413,21 C413,22.6568543 414.343146,24 416,24 Z" id="bowling_ball_L"></path>
            </g>
        </g>
    </g>
</svg>