<?xml version="1.0" encoding="UTF-8" standalone="no"?>
<svg width="52px" height="50px" viewBox="0 0 52 50" version="1.1" xmlns="http://www.w3.org/2000/svg" xmlns:xlink="http://www.w3.org/1999/xlink" xmlns:sketch="http://www.bohemiancoding.com/sketch/ns">
    <!-- Generator: Sketch 3.1.1 (8761) - http://www.bohemiancoding.com/sketch -->
    <title>building_L</title>
    <desc>Created with Sketch.</desc>
    <defs></defs>
    <g id="Page-1" stroke="none" stroke-width="1" fill="none" fill-rule="evenodd" sketch:type="MSPage">
        <g id="line-icons" sketch:type="MSLayerGroup" transform="translate(-298.000000, -303.000000)" fill="#900C21">
            <g id="row-4-line-icons" transform="translate(0.000000, 302.000000)" sketch:type="MSShapeGroup">
                <path d="M315.105532,9.11497688 L315.105532,21.989996 L301.041135,21.989996 L301.041135,49.02948 L298.971695,49.02948 L298.971695,51 L318,51 L333,51 L347.024536,51 L349.029968,51 L349.029968,49.02948 L347.024536,49.02948 L347.024536,21.0115967 L343.998308,21.0115967 L343.998308,16.0480089 L338.0401,16.0480089 L338.0401,9.11497688 L335.011551,9.11497688 L335.011551,16.0480089 L333,16.0480089 L333,1 L315.105532,9.11497688 Z M317,10.4200387 L317,49 L331,49 L331,4.08146737 L317,10.4200387 Z M337.015625,17 L337.015625,9.99597168 L336.015625,9.99597168 L336.015625,17 L332.933235,17 L332.933235,49.002697 L345.993286,49.002697 L345.993286,22.0115967 L343,22.0115967 L343,17 L337.015625,17 Z M302,23 L302,49 L315,49 L315,23 L302,23 Z M304,27 L304,29 L305,29 L305,27 L304,27 Z M308,27 L308,29 L309,29 L309,27 L308,27 Z M312,27 L312,29 L313,29 L313,27 L312,27 Z M304,31 L304,33 L305,33 L305,31 L304,31 Z M308,31 L308,33 L309,33 L309,31 L308,31 Z M312,31 L312,33 L313,33 L313,31 L312,31 Z M319,16 L319,17 L329,17 L329,16 L319,16 Z M319,13 L319,14 L329,14 L329,13 L319,13 Z M319,19 L319,20 L329,20 L329,19 L319,19 Z M319,22 L319,23 L329,23 L329,22 L319,22 Z M319,25 L319,26 L329,26 L329,25 L319,25 Z M319,33 L319,34 L329,34 L329,33 L319,33 Z M319,36 L319,37 L329,37 L329,36 L319,36 Z M319,39 L319,40 L329,40 L329,39 L319,39 Z M319,42 L319,43 L329,43 L329,42 L319,42 Z M319,45 L319,46 L329,46 L329,45 L319,45 Z M334,21 C334.552285,21 335,20.5522848 335,20 C335,19.4477152 334.552285,19 334,19 C333.447715,19 333,19.4477152 333,20 C333,20.5522848 333.447715,21 334,21 Z M337,21 C337.552285,21 338,20.5522848 338,20 C338,19.4477152 337.552285,19 337,19 C336.447715,19 336,19.4477152 336,20 C336,20.5522848 336.447715,21 337,21 Z M340,21 C340.552285,21 341,20.5522848 341,20 C341,19.4477152 340.552285,19 340,19 C339.447715,19 339,19.4477152 339,20 C339,20.5522848 339.447715,21 340,21 Z" id="building_L"></path>
            </g>
        </g>
    </g>
</svg>