<?xml version="1.0" encoding="UTF-8" standalone="no"?>
<svg width="30px" height="49px" viewBox="0 0 30 49" version="1.1" xmlns="http://www.w3.org/2000/svg" xmlns:xlink="http://www.w3.org/1999/xlink" xmlns:sketch="http://www.bohemiancoding.com/sketch/ns">
    <!-- Generator: Sketch 3.1.1 (8761) - http://www.bohemiancoding.com/sketch -->
    <title>bulb_L</title>
    <desc>Created with Sketch.</desc>
    <defs></defs>
    <g id="Page-1" stroke="none" stroke-width="1" fill="none" fill-rule="evenodd" sketch:type="MSPage">
        <g id="line-icons" sketch:type="MSLayerGroup" transform="translate(-509.000000, -104.000000)" fill="#900C21">
            <g id="row-2-line-icons" transform="translate(0.000000, 104.000000)" sketch:type="MSShapeGroup">
                <path d="M516.539443,29.6519279 C518.406996,32.1092339 517.083554,37.0430567 517.954726,37.0430565 L530.008209,37.0430565 C531.011572,37.0430565 529.460777,32.4611949 531.283283,29.6519279 C534,25.4642982 539,21.1477797 539,15 C539,6.71572834 532.284272,0 524,0 C515.715728,0 509,6.71572834 509,15 C509,21.1334204 513.463802,25.6050351 516.539443,29.6519279 Z M518.350603,28.8265133 C519.969149,31.0181645 519.46328,35.0384026 519.46328,35.0384026 L528.448202,35.0384026 C528.448202,35.0384026 527.89904,31.3320757 529.478546,28.8265133 C531.833034,25.0916003 537.051729,20.4770161 537.051729,14.9938612 C537.051729,7.60518648 531.179702,2 524,2 C516.820298,2 510.931974,7.60518648 510.931974,14.9938612 C510.931974,20.4642092 515.685048,25.2171223 518.350603,28.8265133 Z M519.995398,44 C519.445655,44 519,44.4438648 519,45 C519,45.5522847 519.455664,46 519.995398,46 L528.004602,46 C528.554345,46 529,45.5561352 529,45 C529,44.4477153 528.544336,44 528.004602,44 L519.995398,44 Z M518.006845,41 C517.45078,41 517,41.4438648 517,42 C517,42.5522847 517.449949,43 518.006845,43 L529.993155,43 C530.54922,43 531,42.5561352 531,42 C531,41.4477153 530.550051,41 529.993155,41 L518.006845,41 Z M518.006845,38 C517.45078,38 517,38.4438648 517,39 C517,39.5522847 517.449949,40 518.006845,40 L529.993155,40 C530.54922,40 531,39.5561352 531,39 C531,38.4477153 530.550051,38 529.993155,38 L518.006845,38 Z M522,46 L522,47.5 C522,48.3284271 522.678545,49 523.500833,49 L524.499167,49 C525.328054,49 526,48.3342028 526,47.5 L526,46 L522,46 Z" id="bulb_L"></path>
            </g>
        </g>
    </g>
</svg>