<?xml version="1.0" encoding="UTF-8" standalone="no"?>
<svg width="45px" height="50px" viewBox="0 0 45 50" version="1.1" xmlns="http://www.w3.org/2000/svg" xmlns:xlink="http://www.w3.org/1999/xlink" xmlns:sketch="http://www.bohemiancoding.com/sketch/ns">
    <!-- Generator: Sketch 3.1.1 (8761) - http://www.bohemiancoding.com/sketch -->
    <title>chair_L</title>
    <desc>Created with Sketch.</desc>
    <defs></defs>
    <g id="Page-1" stroke="none" stroke-width="1" fill="none" fill-rule="evenodd" sketch:type="MSPage">
        <g id="line-icons" sketch:type="MSLayerGroup" transform="translate(-400.000000, -203.000000)" fill="#900C21">
            <g id="row-3-line-icons" transform="translate(4.000000, 202.000000)" sketch:type="MSShapeGroup">
                <path d="M406.036896,47.000074 C409.333626,47.0133085 412,48.7990658 412,51 L400,51 C400,49.0142918 402.17039,47.3665316 405.015945,47.053537 L396.875932,16.6745963 L397.841858,16.4157773 L406.036896,47.000074 L406.036896,47.000074 Z M426.5,25.0633242 C420.307095,25.0633233 416.899952,20.6324139 415,22 C413.100048,23.3675859 416.682812,28.593606 416.682812,32.1883806 C416.682812,32.7906705 415.402982,31.0671562 413.742078,31.8484453 C412.081174,32.6297345 413.799903,40.2220996 416.899952,42.6110497 C420,45 422.95146,45 426.5,45 C430.413754,45 433.459936,44.9999988 436.553405,42.611049 C439.646874,40.2220992 440.811036,32.5501058 439.486089,31.8484453 C438.161142,31.1467847 436.553406,33.0683937 436.553406,32.5501054 C436.553406,29.2282955 439.446595,23.5304216 438,22 C436.553405,20.4695784 432.692905,25.0633251 426.5,25.0633242 Z M426.5,27.09285 C421.343887,27.0928494 416.885932,23.8303601 416.589342,24.1862681 C416.504024,24.2886499 417.385253,26.716385 418.015805,29.1569829 C418.644006,31.5884757 418.642373,33.6995969 418.642373,33.6995969 C418.642373,33.6995969 419.851832,34.1705919 420.622966,35.9999996 C421.394099,37.8294072 421.394099,39.0000001 421.394099,39.0000001 L432.071339,39.0000001 C432.071339,39.0000001 432.249293,37.3548637 432.842473,35.9999996 C433.435652,34.6451354 434.619843,33.6995969 434.619843,33.6995969 C434.619843,33.6995969 434.565772,31.345954 435.037554,29.1569829 C435.609802,26.5018729 436.426874,24.2497487 436.342234,24.1862681 C435.867691,23.83036 431.656113,27.0928505 426.5,27.09285 Z M435.24641,35.7359412 C433.59385,37.6748987 433.732243,40.9732614 433.732243,40.9732614 L420.472309,40.9732614 C420.472309,40.9732614 419.425582,36.8846481 418.276875,35.7359412 C417.128168,34.5872343 415.60193,33.5800006 415.144609,33.8804036 C414.687287,34.1808067 415.498937,37.2583898 416.887906,39.3123573 C418.276875,41.3663248 419.567603,43.0000004 426.585349,43 C433.210066,43 435.56715,41.9816675 436.812828,39.3123574 C438.058506,36.6430473 438.418366,34.7779272 438.062456,34.3296456 C437.85794,34.072049 436.670042,34.0655868 435.24641,35.7359412 Z M431.736381,45 C431.184097,45 430.87385,45.4158887 431.048881,45.9454209 L432.423881,50.1052726 C432.59647,50.6274141 433.182812,51.0274773 433.739594,50.9985223 L433.838237,50.9933925 C434.392296,50.9645792 434.690058,50.5139434 434.507895,49.9998172 L433.069936,45.9414042 C432.885719,45.421481 432.292517,45 431.736381,45 Z M421.811899,45 C421.259614,45 420.661942,45.4315052 420.486099,45.9375 L419.052582,50.0625 C418.872648,50.580267 419.168982,51 419.720487,51 L419.818195,51 C420.367002,51 420.955734,50.5684948 421.128805,50.0492822 L422.494993,45.9507178 C422.670015,45.4256509 422.368034,45 421.811899,45 Z M397.5,16 C398.328427,16 399,15.3284272 399,14.5 C399,13.6715728 398.328427,13 397.5,13 C396.671573,13 396,13.6715728 396,14.5 C396,15.3284272 396.671573,16 397.5,16 Z M399.089746,13.0669873 L399.589746,13.9330127 L416.910254,3.9330127 L416.410254,3.0669873 L399.089746,13.0669873 Z M427,11 C427,7.13400656 423.865993,4 420,4 C416.134007,4 413,7.13400656 413,11 L427,11 Z M419.5,1 C419.223858,1 419,1.2157526 419,1.49538898 L419,3.50461102 C419,3.7782068 419.231934,4 419.5,4 C419.776142,4 420,3.7842474 420,3.50461102 L420,1.49538898 C420,1.2217932 419.768066,1 419.5,1 Z" id="chair_L"></path>
            </g>
        </g>
    </g>
</svg>