<?xml version="1.0" encoding="UTF-8" standalone="no"?>
<svg width="48px" height="48px" viewBox="0 0 48 48" version="1.1" xmlns="http://www.w3.org/2000/svg" xmlns:xlink="http://www.w3.org/1999/xlink" xmlns:sketch="http://www.bohemiancoding.com/sketch/ns">
    <!-- Generator: Sketch 3.1.1 (8761) - http://www.bohemiancoding.com/sketch -->
    <title>clover_L</title>
    <desc>Created with Sketch.</desc>
    <defs></defs>
    <g id="Page-1" stroke="none" stroke-width="1" fill="none" fill-rule="evenodd" sketch:type="MSPage">
        <g id="line-icons" sketch:type="MSLayerGroup" transform="translate(-300.000000, -4.000000)" fill="#900C21">
            <g id="row-1-line-icons" transform="translate(1.000000, 0.000000)" sketch:type="MSShapeGroup">
                <path d="M323,26 C323,26 339.396841,13.3525065 335.133333,7.81818182 C331.640655,3.28444598 323,10.6730822 323,10.6730822 C323,10.6730822 314.799067,2.6808095 310.54176,7.81818182 C306.284452,12.9555543 323,26 323,26 Z M323,23.4789407 C323,23.4789407 336.243099,12.7459908 333.578367,8.99999978 C331.279663,5.76855768 323,13.1901131 323,13.1901131 C323,13.1901131 315.791551,5.42199105 312.345573,8.62431492 C308.899595,11.8266388 323,23.4789407 323,23.4789407 Z M323.003329,29.9037016 C323.003329,29.9037016 339.404368,42.6120918 335.139769,48.1730638 C331.646196,52.7286292 323.003329,45.3044173 323.003329,45.3044173 C323.003329,45.3044173 314.800296,53.3351721 310.541898,48.1730638 C306.283501,43.0109553 323.003329,29.9037016 323.003329,29.9037016 Z M322.935651,32.1533725 C322.935651,32.1533725 336.10128,43.1412729 333.452136,46.9762462 C331.166879,50.284448 322.935651,42.686601 322.935651,42.686601 C322.935651,42.686601 315.769371,50.639247 312.343552,47.3608551 C308.917732,44.0824633 322.935651,32.1533725 322.935651,32.1533725 Z M324.904163,28.0066555 C324.904163,28.0066555 337.551657,44.4034965 343.085981,40.1399888 C347.619717,36.6473108 340.231081,28.0066554 340.231081,28.0066554 C340.231081,28.0066554 348.223354,19.8057227 343.085981,15.5484152 C337.948609,11.2911079 324.904163,28.0066555 324.904163,28.0066555 Z M327.149814,27.8705453 C327.149814,27.8705453 337.882764,41.1136445 341.628755,38.4489126 C344.860197,36.1502081 337.438641,27.8705453 337.438641,27.8705453 C337.438641,27.8705453 345.206764,20.6620966 342.00444,17.2161186 C338.802116,13.7701406 327.149814,27.8705453 327.149814,27.8705453 Z M321.095837,27.9933445 C321.095837,27.9933445 308.448343,11.5965035 302.914019,15.8600112 C298.380283,19.3526892 305.768919,27.9933446 305.768919,27.9933446 C305.768919,27.9933446 297.776646,36.1942773 302.914019,40.4515848 C308.051391,44.7088921 321.095837,27.9933445 321.095837,27.9933445 Z M318.850186,28.1294547 C318.850186,28.1294547 308.117236,14.8863555 304.371245,17.5510874 C301.139803,19.8497919 308.561359,28.1294547 308.561359,28.1294547 C308.561359,28.1294547 300.793236,35.3379034 303.99556,38.7838814 C307.197884,42.2298594 318.850186,28.1294547 318.850186,28.1294547 Z" id="clover_L" transform="translate(323.000000, 28.000000) rotate(19.000000) translate(-323.000000, -28.000000) "></path>
            </g>
        </g>
    </g>
</svg>