<?xml version="1.0" encoding="UTF-8" standalone="no"?>
<svg width="47px" height="48px" viewBox="0 0 47 48" version="1.1" xmlns="http://www.w3.org/2000/svg" xmlns:xlink="http://www.w3.org/1999/xlink" xmlns:sketch="http://www.bohemiancoding.com/sketch/ns">
    <!-- Generator: Sketch 3.1.1 (8761) - http://www.bohemiancoding.com/sketch -->
    <title>comfirm_user_L</title>
    <desc>Created with Sketch.</desc>
    <defs></defs>
    <g id="Page-1" stroke="none" stroke-width="1" fill="none" fill-rule="evenodd" sketch:type="MSPage">
        <g id="line-icons" sketch:type="MSLayerGroup" transform="translate(-201.000000, -503.000000)" fill="#900C21">
            <g id="row-6-line-icons" transform="translate(1.000000, 503.000000)" sketch:type="MSShapeGroup">
                <path d="M223,24 C228.522848,24 233,18.6274173 233,12 C233,5.37258267 228.522848,0 223,0 C217.477152,0 213,5.37258267 213,12 C213,18.6274173 217.477152,24 223,24 Z M223,22 C227.418278,22 231,17.5228478 231,12 C231,6.47715223 227.418278,2 223,2 C218.581722,2 215,6.47715223 215,12 C215,17.5228478 218.581722,22 223,22 Z M236.019465,45.104455 L228.26163,39.1768761 L227.155263,40.8882399 L236.542228,48.0341582 L247.037841,31.2752697 L245.351354,30.3758106 L236.019465,45.104455 Z M233.046668,27.4528129 C230.011207,26.5220976 226.602316,26 223,26 C210.29745,26 200,32.4918707 200,40.5 L201.774196,40.5258208 C201.774196,40.5258208 201.774196,38.352891 203.552048,35.6531894 C205.3299,32.9534879 209.478221,30.1879406 214,29.0685524 C218.521779,27.9491644 219.138338,27.7516253 223,27.7516251 C226.861662,27.7516248 231.602601,28.805167 231.602601,28.805167 L233.046669,29.0685525 L233.046668,27.4528129 Z" id="comfirm_user_L"></path>
            </g>
        </g>
    </g>
</svg>