<?xml version="1.0" encoding="UTF-8" standalone="no"?>
<svg width="45px" height="47px" viewBox="0 0 45 47" version="1.1" xmlns="http://www.w3.org/2000/svg" xmlns:xlink="http://www.w3.org/1999/xlink" xmlns:sketch="http://www.bohemiancoding.com/sketch/ns">
    <!-- Generator: Sketch 3.1.1 (8761) - http://www.bohemiancoding.com/sketch -->
    <title>delete_user_L</title>
    <desc>Created with Sketch.</desc>
    <defs></defs>
    <g id="Page-1" stroke="none" stroke-width="1" fill="none" fill-rule="evenodd" sketch:type="MSPage">
        <g id="line-icons" sketch:type="MSLayerGroup" transform="translate(-301.000000, -503.000000)" fill="#900C21">
            <g id="row-6-line-icons" transform="translate(1.000000, 503.000000)" sketch:type="MSShapeGroup">
                <path d="M323,24 C328.522848,24 333,18.6274173 333,12 C333,5.37258267 328.522848,0 323,0 C317.477152,0 313,5.37258267 313,12 C313,18.6274173 317.477152,24 323,24 Z M323,22 C327.418278,22 331,17.5228478 331,12 C331,6.47715223 327.418278,2 323,2 C318.581722,2 315,6.47715223 315,12 C315,17.5228478 318.581722,22 323,22 Z M330.583538,31.116377 L329.110147,32.589768 L335.42178,38.9014008 L329.166788,45.1563936 L330.633329,46.6229353 L336.888322,40.3679425 L343.252283,46.7319036 L344.725674,45.2585126 L338.361713,38.8945516 L344.775465,32.4807997 L343.308923,31.0142579 L336.895171,37.4280099 L330.583538,31.116377 Z M333.046668,27.4528129 C330.011207,26.5220976 326.602316,26 323,26 C310.29745,26 300,32.4918707 300,40.5 L301.774196,40.5258208 C301.774196,40.5258208 301.774196,38.352891 303.552048,35.6531894 C305.3299,32.9534879 309.478221,30.1879406 314,29.0685524 C318.521779,27.9491644 319.138338,27.7516253 323,27.7516251 C326.861662,27.7516248 331.602601,28.805167 331.602601,28.805167 L333.046669,29.0685525 L333.046668,27.4528129 Z" id="delete_user_L"></path>
            </g>
        </g>
    </g>
</svg>