<?xml version="1.0" encoding="UTF-8" standalone="no"?>
<svg width="45px" height="40px" viewBox="0 0 45 40" version="1.1" xmlns="http://www.w3.org/2000/svg" xmlns:xlink="http://www.w3.org/1999/xlink" xmlns:sketch="http://www.bohemiancoding.com/sketch/ns">
    <!-- Generator: Sketch 3.1.1 (8761) - http://www.bohemiancoding.com/sketch -->
    <title>diamond_L</title>
    <desc>Created with Sketch.</desc>
    <defs></defs>
    <g id="Page-1" stroke="none" stroke-width="1" fill="none" fill-rule="evenodd" sketch:type="MSPage">
        <g id="line-icons" sketch:type="MSLayerGroup" transform="translate(-302.000000, -111.000000)" fill="#900C21">
            <g id="row-2-line-icons" transform="translate(0.000000, 104.000000)" sketch:type="MSShapeGroup">
                <path d="M324.172297,47 L346.136805,21.8915176 L338.389102,7 L310.046213,7 L302.207789,21.8915176 L324.172297,47 Z M324.104816,41.9849894 L331.104816,23 L317.104816,23 L324.104816,41.9849894 Z M332.972594,23.015625 L342.513798,23.015625 L326.20291,41.6987534 L332.972594,23.015625 Z M314.995441,22.9913516 L321.966621,41.6415057 L305.790099,22.9913516 L314.995441,22.9913516 Z M324.104816,10 L330.104816,21 L318.104816,21 L324.104816,10 Z M337.881331,10.2700612 L343.491553,20.9999997 L333.530547,20.9999997 L337.881331,10.2700612 Z M331.797064,19.9787864 L336.31277,9 L325.823531,9 L331.797064,19.9787864 Z M315.978552,20.7186114 L322.514705,9 L313.073595,9 L315.978552,20.7186114 Z M311.102374,9.04690874 L314.104816,21 L304.92934,21 L311.102374,9.04690874 Z" id="diamond_L"></path>
            </g>
        </g>
    </g>
</svg>