<?xml version="1.0" encoding="UTF-8" standalone="no"?>
<svg width="46px" height="46px" viewBox="0 0 46 46" version="1.1" xmlns="http://www.w3.org/2000/svg" xmlns:xlink="http://www.w3.org/1999/xlink" xmlns:sketch="http://www.bohemiancoding.com/sketch/ns">
    <!-- Generator: Sketch 3.1.1 (8761) - http://www.bohemiancoding.com/sketch -->
    <title>football_L</title>
    <desc>Created with Sketch.</desc>
    <defs></defs>
    <g id="Page-1" stroke="none" stroke-width="1" fill="none" fill-rule="evenodd" sketch:type="MSPage">
        <g id="line-icons" sketch:type="MSLayerGroup" transform="translate(-201.000000, -406.000000)" fill="#900C21">
            <g id="row-5-line-icons" transform="translate(0.000000, 396.000000)" sketch:type="MSShapeGroup">
                <path d="M224,62 C228.492601,62 241,49.0162585 241,33 C241,16.9837415 228.053591,3.99999898 224,4 C219.946409,4.00000104 207,16.9837415 207,33 C207,49.0162585 219.507399,62.0000012 224,62 Z M224,10.2245283 C227.264593,10.2245283 230.351121,10.854503 230.288676,10.78162 C227.663712,7.71790045 225.201235,5.99999967 224,6 C222.809203,6.00000032 220.336953,7.76637689 217.73695,10.7816198 C217.619402,10.9179411 220.735407,10.2245285 224,10.2245283 Z M213.199906,48.8505162 C213.39173,49.1995049 218.605103,49.6867926 224,49.6250599 C229.394897,49.5633273 234.643177,49.1117759 234.784294,48.8505159 C237.188569,44.3993023 239,38.9223253 239,33 C239,26.5685304 236.789144,20.662274 234.024597,16.0245795 C233.873853,15.7716964 229.106067,15.2695044 224,15.3473262 C218.893933,15.4251485 213.976931,16.018689 213.793519,16.332922 C211.114519,20.9227568 209,26.7102146 209,33 C209,39.0315704 210.729428,44.3559362 213.199906,48.8505162 Z M223.854618,54.6734555 C220.252627,54.7049933 216.813277,54.3141573 216.944823,54.4771033 C219.742121,57.9421117 222.549278,60.0000004 224,60 C225.468002,60 228.324948,57.8927935 231.155132,54.3526825 C231.336461,54.1258691 227.456608,54.6419177 223.854618,54.6734555 Z M225,21 L225,22 L227.226263,22 C227.226263,22 227.678603,24.4894908 227.891562,27.9989448 C227.894041,28.0397903 225.765608,27.9800386 225.765608,27.9800386 L225.765608,28.9662499 C225.930561,28.9741402 227.943435,28.9857701 227.944266,29.0046178 C227.979138,29.7963473 228,30.6288067 228,31.4874411 C228,32.6288811 227.963133,33.816831 227.905493,34.9765979 C227.903858,35.0094972 225.765608,34.9923916 225.765608,34.9923916 L225.765608,36.0103474 C225.962206,36.015761 227.850158,35.9823871 227.848412,36.0112791 C227.700966,38.4511054 227.438359,40.7622234 227.303284,41.9955692 L225,41.9955692 L225,43.0130615 L231,43.0130615 L231,41.9955692 C230.821572,41.992873 229.161857,42.0111381 229.163873,41.9955701 C229.31852,40.8015595 229.580409,38.5716515 229.749165,36.0103477 L231.828125,36.0103474 L231.828125,34.9923916 C231.646323,34.9867527 229.808526,35.0203457 229.810022,34.9923917 C229.871154,33.8499417 229.909879,32.6625026 229.909879,31.4874411 C229.909879,30.6020229 229.887892,29.7586367 229.850899,28.9662498 C229.849943,28.9457829 231.828125,28.9662499 231.828125,28.9662499 L231.828125,27.9800386 C231.667639,27.973438 229.797573,28.0063791 229.795862,27.9800386 C229.559377,24.3391477 229.037354,22 229.037354,22 L231,22 L231,21 L225,21 Z" id="football_L" transform="translate(224.000000, 33.000000) rotate(-45.000000) translate(-224.000000, -33.000000) "></path>
            </g>
        </g>
    </g>
</svg>