<?xml version="1.0" encoding="UTF-8" standalone="no"?>
<svg width="46px" height="47px" viewBox="0 0 46 47" version="1.1" xmlns="http://www.w3.org/2000/svg" xmlns:xlink="http://www.w3.org/1999/xlink" xmlns:sketch="http://www.bohemiancoding.com/sketch/ns">
    <!-- Generator: Sketch 3.1.1 (8761) - http://www.bohemiancoding.com/sketch -->
    <title>gift_L</title>
    <desc>Created with Sketch.</desc>
    <defs></defs>
    <g id="Page-1" stroke="none" stroke-width="1" fill="none" fill-rule="evenodd" sketch:type="MSPage">
        <g id="line-icons" sketch:type="MSLayerGroup" transform="translate(-1.000000, -5.000000)" fill="#900C21">
            <g id="row-1-line-icons" transform="translate(1.000000, 0.000000)" sketch:type="MSShapeGroup">
                <path d="M1.38777878e-17,15.5772426 L1.38777878e-17,28 L2.87855482,28.0000005 L2.87855482,52.0000005 L43.0713692,52.0000005 L43.0713692,28.0000005 L46,28.0000005 L46,15.5772426 L1.38777878e-17,15.5772426 Z M26,28 L26,33 L41,33 L41,28 L26,28 Z M26,39 L26,50 L41,50 L41,39 L26,39 Z M5,39 L5,50 L20,50 L20,39 L5,39 Z M5,28 L5,33 L20,33 L20,28 L5,28 Z M2,18 L2,26 L20,26 L20,18 L2,18 Z M26,18 L26,26 L44,26 L44,18 L26,18 Z M23,15 L26,5 L20,5 L23,15 Z M26.496988,8.39375502 L30.8684497,12.5983668 L24.4235639,14.6940718 L26.496988,8.39375502 Z M18.8886429,7.02558766 L21.5896856,14.6872311 L14.5391685,10.2585277 L18.8886429,7.02558766 Z" id="gift_L"></path>
            </g>
        </g>
    </g>
</svg>