<?xml version="1.0" encoding="UTF-8" standalone="no"?>
<svg width="49px" height="40px" viewBox="0 0 49 40" version="1.1" xmlns="http://www.w3.org/2000/svg" xmlns:xlink="http://www.w3.org/1999/xlink" xmlns:sketch="http://www.bohemiancoding.com/sketch/ns">
    <!-- Generator: Sketch 3.1.1 (8761) - http://www.bohemiancoding.com/sketch -->
    <title>glasses_L</title>
    <desc>Created with Sketch.</desc>
    <defs></defs>
    <g id="Page-1" stroke="none" stroke-width="1" fill="none" fill-rule="evenodd" sketch:type="MSPage">
        <g id="line-icons" sketch:type="MSLayerGroup" transform="translate(0.000000, -108.000000)" fill="#900C21">
            <g id="row-2-line-icons" transform="translate(0.000000, 104.000000)" sketch:type="MSShapeGroup">
                <path d="M36,44 C40.6220294,44 44.4302883,40.5158357 44.9416295,36.0306541 C44.9524213,35.9359955 48.0057373,36.0306549 48.0057373,36.0306549 L48.0057373,34.8263187 C48.0057371,26.5544225 48.0057373,9.44065857 48.0057373,9.44065857 L44.4203949,4 L42.1271801,4 L46.0213623,10.0106303 L46.0213623,34.0059624 C46.0213623,34.0059624 44.9476943,34.0238554 44.9457284,34.0059629 C44.4509969,29.5031417 40.6345999,26 36,26 C31.029437,26 27,30.029437 27,35 C27,39.970563 31.029437,44 36,44 Z M36,42 C39.8659934,42 43,38.8659934 43,35 C43,31.1340066 39.8659934,28 36,28 C32.1340066,28 29,31.1340066 29,35 C29,38.8659934 32.1340066,42 36,42 Z M3.05570321,36.0069808 C3.55631924,40.5035699 7.36984189,44 12,44 C16.970563,44 21,39.970563 21,35 C21,30.029437 16.970563,26 12,26 C7.36748281,26 3.55243347,29.4999939 3.0549406,33.999893 C3.05105393,34.0350486 1.99864435,33.9998931 1.99864435,33.9998931 L1.99864435,10.0245745 L5.7147218,4.00000018 L3.64872181,4.00000018 L0.0170813799,9.47058123 L0.0170813799,36.0069809 C0.0170813799,36.0069809 3.04853399,35.9425861 3.05570321,36.0069808 Z M12,42 C15.8659934,42 19,38.8659934 19,35 C19,31.1340066 15.8659934,28 12,28 C8.13400656,28 5,31.1340066 5,35 C5,38.8659934 8.13400656,42 12,42 Z M24,33.434021 C22.875061,33.4340211 21.9656166,33.7435062 21.9656166,33.7435062 C21.4323213,33.8851638 21,34.4438648 21,35 C21,35.5522847 21.4357781,35.8733431 21.9541191,35.7363082 C21.9541191,35.7363082 22.921814,35.402771 24,35.402771 C25.078186,35.402771 26.0458809,35.7363082 26.0458809,35.7363082 C26.5728263,35.8819412 27,35.5561352 27,35 C27,34.4477153 26.5729137,33.8799704 26.0343834,33.7435062 C26.0343834,33.7435062 25.124939,33.4340209 24,33.434021 Z" id="glasses_L"></path>
            </g>
        </g>
    </g>
</svg>