<?xml version="1.0" encoding="UTF-8" standalone="no"?>
<svg width="30px" height="51px" viewBox="0 0 30 51" version="1.1" xmlns="http://www.w3.org/2000/svg" xmlns:xlink="http://www.w3.org/1999/xlink" xmlns:sketch="http://www.bohemiancoding.com/sketch/ns">
    <!-- Generator: Sketch 3.1.1 (8761) - http://www.bohemiancoding.com/sketch -->
    <title>key_L</title>
    <desc>Created with Sketch.</desc>
    <defs></defs>
    <g id="Page-1" stroke="none" stroke-width="1" fill="none" fill-rule="evenodd" sketch:type="MSPage">
        <g id="line-icons" sketch:type="MSLayerGroup" transform="translate(-209.000000, -3.000000)" fill="#900C21">
            <g id="row-1-line-icons" transform="translate(1.000000, 0.000000)" sketch:type="MSShapeGroup">
                <path d="M220,23.8989829 L220,51.004493 C220,52.6588658 221.346517,54 223,54 C224.656854,54 226,52.6600918 226,51.0048815 L226,49 L230.078915,49 L230.078915,46.9628949 L229.012646,46.9628944 L229.012646,41.075079 L230.078915,41.075079 L230.078915,39 L226,39 L226,23.8989829 L226,23.8989829 C227.270517,25.1955329 229.041312,26 231,26 C234.865993,26 238,22.8659934 238,19 C238,15.1340066 234.865993,12 231,12 C230.545706,12 230.101519,12.0432765 229.671338,12.1259319 C229.884804,11.4554783 230,10.741192 230,10 C230,6.13400656 226.865993,3 223,3 C219.134007,3 216,6.13400656 216,10 C216,10.741192 216.115196,11.4554783 216.328662,12.1259319 C215.898481,12.0432765 215.454294,12 215,12 C211.134007,12 208,15.1340066 208,19 C208,22.8659934 211.134007,26 215,26 C216.958688,26 218.729483,25.1955329 220,23.8989829 Z M223,15 C225.761424,15 228,12.7614239 228,10 C228,7.23857611 225.761424,5 223,5 C220.238576,5 218,7.23857611 218,10 C218,12.7614239 220.238576,15 223,15 Z M231,24 C233.761424,24 236,21.7614239 236,19 C236,16.2385761 233.761424,14 231,14 C228.238576,14 226,16.2385761 226,19 C226,21.7614239 228.238576,24 231,24 Z M215,24 C217.761424,24 220,21.7614239 220,19 C220,16.2385761 217.761424,14 215,14 C212.238576,14 210,16.2385761 210,19 C210,21.7614239 212.238576,24 215,24 Z M223,17 C222.447715,17 222,17.4425293 222,18.0097361 L222,50.9902639 C222,51.5479258 222.443865,52 223,52 L223,52 C223.552285,52 224,51.5574707 224,50.9902639 L224,18.0097361 C224,17.4520742 223.556135,17 223,17 L223,17 Z" id="key_L"></path>
            </g>
        </g>
    </g>
</svg>