<?xml version="1.0" encoding="UTF-8" standalone="no"?>
<svg width="48px" height="42px" viewBox="0 0 48 42" version="1.1" xmlns="http://www.w3.org/2000/svg" xmlns:xlink="http://www.w3.org/1999/xlink" xmlns:sketch="http://www.bohemiancoding.com/sketch/ns">
    <!-- Generator: Sketch 3.1.1 (8761) - http://www.bohemiancoding.com/sketch -->
    <title>map_L</title>
    <desc>Created with Sketch.</desc>
    <defs></defs>
    <g id="Page-1" stroke="none" stroke-width="1" fill="none" fill-rule="evenodd" sketch:type="MSPage">
        <g id="line-icons" sketch:type="MSLayerGroup" transform="translate(-200.000000, -308.000000)" fill="#900C21">
            <g id="row-4-line-icons" transform="translate(0.000000, 302.000000)" sketch:type="MSShapeGroup">
                <path d="M215.472039,22.6782955 L215.472039,40.9126441 L202,45.270137 L202,12.4505104 L215.472039,8.25563115 L215.472039,21.6141178 L212.919451,22.5431839 L213.261471,23.4828765 L215.472039,22.6782955 L215.472039,22.6782955 Z M241.037176,17.927238 L241.331734,23 L241.5,23 L242.035174,17.9017148 C242.599323,17.6861954 243,17.1398892 243,16.5 C243,15.6715728 242.328427,15 241.5,15 C240.671573,15 240,15.6715728 240,16.5 C240,17.1669193 240.435242,17.7321822 241.037176,17.927238 L241.037176,17.927238 Z M231.985786,11.0399866 L216.098598,6 L200,11.0399866 L200,48 L216.098598,42.8544617 L231.985786,48 L248,42.8544617 L248,6 L231.985786,11.0399866 Z M216.58908,7.99279807 L216.58908,40.9783518 L231.504858,45.9064715 L231.504858,12.9866268 L216.58908,7.99279807 Z M232.621899,12.9209188 L232.621899,45.9064735 L246,41.4104408 L246,8.70721659 L232.621899,12.9209188 Z M241.980379,24.9445924 L241.351059,24.1674464 L239.019621,26.0554076 L239.648941,26.8325536 L241.980379,24.9445924 Z M238.664524,28.4304752 L237.789905,27.9456656 L236.335476,30.5695248 L237.210095,31.0543344 L238.664524,28.4304752 Z M235.80204,32.6029542 L235.003405,32.0011392 L233.19796,34.3970458 L233.996595,34.9988608 L235.80204,32.6029542 Z M228.648941,33.1674464 L228.019621,33.9445924 L230.351059,35.8325536 L230.980379,35.0554076 L228.648941,33.1674464 Z M226.129145,28.9629682 L225.281097,29.4928875 L226.870855,32.0370318 L227.718903,31.5071125 L226.129145,28.9629682 Z M222.817682,25.0736611 L222.098343,25.7683195 L224.182318,27.9263389 L224.901657,27.2316805 L222.817682,25.0736611 Z M218.430475,22.3354757 L217.945666,23.2100954 L220.569525,24.6645243 L221.054334,23.7899046 L218.430475,22.3354757 Z M207.932623,24.7081597 L208.370995,25.6069537 L211.067377,24.2918403 L210.629005,23.3930463 L207.932623,24.7081597 Z M204.098343,28.2316805 L204.817682,28.9263389 L206.901657,26.7683195 L206.182318,26.0736611 L204.098343,28.2316805 Z" id="map_L"></path>
            </g>
        </g>
    </g>
</svg>