<?xml version="1.0" encoding="UTF-8" standalone="no"?>
<svg width="46px" height="43px" viewBox="0 0 46 43" version="1.1" xmlns="http://www.w3.org/2000/svg" xmlns:xlink="http://www.w3.org/1999/xlink" xmlns:sketch="http://www.bohemiancoding.com/sketch/ns">
    <!-- Generator: Sketch 3.1.1 (8761) - http://www.bohemiancoding.com/sketch -->
    <title>mistletoe_L</title>
    <desc>Created with Sketch.</desc>
    <defs></defs>
    <g id="Page-1" stroke="none" stroke-width="1" fill="none" fill-rule="evenodd" sketch:type="MSPage">
        <g id="line-icons" sketch:type="MSLayerGroup" transform="translate(-501.000000, -2.000000)" fill="#900C21">
            <g id="row-1-line-icons" transform="translate(1.000000, 0.000000)" sketch:type="MSShapeGroup">
                <path d="M523.55321,26.2637223 L522.89051,26.1940696 C522.961861,26.4505216 523,26.7208069 523,27 C523,28.4196569 522.013899,29.6089976 520.689283,29.9204366 L520.892713,30.2109647 L520.892713,30.2109647 C521.235305,30.0748344 521.608913,30 522,30 C523.240249,30 524.304716,30.752614 524.761609,31.8260511 L525.344673,30.928211 C524.002988,30.6292624 523,29.4317615 523,28 C523,27.3529606 523.204841,26.7537644 523.55321,26.2637223 Z M526.162169,25.0043085 L530.020082,16.3337979 C530.020082,16.3337979 528.541423,16.9497036 528.461842,15.7282059 C528.382261,14.5067083 530.562975,11.1685222 530.562975,11.1685222 C530.562975,11.1685222 528.600857,11.9182692 528.261497,10.7090389 C527.922138,9.49980856 528.991842,6.75819768 528.991842,6.75819768 C528.991842,6.75819768 527.673524,7.51804706 526.760384,6.52366198 C525.847244,5.52927703 525.273587,2.45586119 525.273587,2.45586119 C525.273587,2.45586119 523.689446,6.01117937 523.039536,6.37521144 C522.389626,6.73924352 520.573113,5.87335359 520.573113,5.87335359 C520.573113,5.87335359 521.245513,8.93401311 520.438289,9.88678649 C519.631065,10.8395599 518.299448,10.0830417 518.299448,10.0830417 C518.299448,10.0830417 519.566608,14.7925322 519.241547,15.5108833 C518.916487,16.2292344 517.693101,15.8520504 517.693101,15.8520504 L520.338217,24.0188535 L520.338217,24.0188535 C520.227198,24.0063973 520.114346,24 520,24 C518.343146,24 517,25.3431457 517,27 C517,27.0379539 517.000705,27.0757433 517.002102,27.1133556 L507.81181,29.925477 C507.81181,29.925477 509.246728,30.6373646 508.377062,31.4987999 C507.507396,32.3602353 503.557358,32.9044767 503.557358,32.9044767 C503.557358,32.9044767 505.410464,33.8934277 504.720486,34.942872 C504.030509,35.9923163 501.259599,36.9836586 501.259599,36.9836586 C501.259599,36.9836586 502.69796,37.4801002 502.546561,38.8216307 C502.395163,40.1631612 500.45198,42.6124485 500.45198,42.6124485 C500.45198,42.6124485 504.174503,41.4755164 504.87562,41.7271829 C505.576738,41.9788495 506.114982,43.9178641 506.114982,43.9178641 C506.114982,43.9178641 507.983758,41.4024245 509.232411,41.3865686 C510.481065,41.3707127 510.783733,42.8720169 510.783733,42.8720169 C510.783733,42.8720169 513.506698,38.8259756 514.262104,38.6000211 C515.017509,38.3740667 515.535458,39.5448227 515.535458,39.5448227 L519.074491,33.6673375 C519.377892,35.002993 520.572514,36 522,36 C523.453331,36 524.665291,34.9665634 524.941108,33.5944599 L531.187511,41.3044105 C531.187511,41.3044105 531.310032,39.7073004 532.434523,40.1909413 C533.559015,40.6745822 535.543337,44.1331173 535.543337,44.1331173 C535.543337,44.1331173 535.766091,42.0444793 536.997589,42.2910869 C538.229087,42.5376945 540.186244,44.7354735 540.186244,44.7354735 C540.186244,44.7354735 540.107717,43.2158787 541.408278,42.8537067 C542.708838,42.4915346 545.707707,43.3757034 545.707707,43.3757034 C545.707707,43.3757034 543.25908,40.3501426 543.229778,39.6058017 C543.200476,38.8614608 544.796669,37.6360417 544.796669,37.6360417 C544.796669,37.6360417 541.764338,36.8456436 541.281883,35.6938517 C540.799428,34.5420598 542.078032,33.699033 542.078032,33.699033 C542.078032,33.699033 537.306567,32.6900167 536.814085,32.074261 C536.321604,31.4585054 537.213083,30.5396985 537.213083,30.5396985 L528.753945,29.1917939 C528.912252,28.826484 529,28.4234894 529,28 C529,26.3975525 527.743617,25.0885491 526.162169,25.0043085 Z M524.712498,25.2895491 L527.568729,17.3944133 C527.568729,17.3944133 526.859861,17.1471608 526.83503,16.3089902 C526.810199,15.4708195 528.068873,12.6358567 528.068873,12.6358567 C528.068873,12.6358567 526.830564,12.2496322 526.772361,11.1872941 C526.714158,10.1249561 527.055448,8.49389993 527.055448,8.49389993 C527.055448,8.49389993 526.052057,8.39361531 525.569832,7.72414013 C525.087608,7.05466504 524.842711,6.22665537 524.842711,6.22665537 C524.842711,6.22665537 524.140002,7.47659241 523.697291,7.76791928 C523.25458,8.05924613 522.233887,7.81757682 522.233887,7.81757682 C522.233887,7.81757682 522.214033,10.4944809 521.586543,11.0728434 C520.959053,11.6512059 520.372127,11.6573395 520.372127,11.6573395 C520.372127,11.6573395 521.210411,15.9408088 521.022499,16.4393636 C520.834588,16.9379184 519.972186,16.9535149 519.972186,16.9535149 L521.633017,24.4829839 L521.633017,24.4829839 C522.145341,24.8160572 522.549625,25.3013081 522.781795,25.8746631 C523.009785,23.5393567 524.631202,6.9811094 524.76814,6.99550214 C524.875287,7.00676371 523.512507,26.2267341 523.512507,26.2267341 L523.575114,26.2333143 C523.868374,25.831485 524.25909,25.505308 524.712498,25.2895491 Z M527.617307,30.5271602 L535.196988,32.0703242 C535.196988,32.0703242 534.819363,32.84581 535.178268,33.2395795 C535.537174,33.6333489 539.734346,34.831087 539.734346,34.831087 C539.734346,34.831087 539.473352,35.3568267 539.703802,36.1784956 C539.934252,37.0001644 542.310378,38.2331431 542.310378,38.2331431 C542.310378,38.2331431 541.631664,39.0328716 541.690252,39.5595897 C541.748839,40.0863077 542.543518,41.2798857 542.543518,41.2798857 C542.543518,41.2798857 541.694575,41.1221816 540.879143,41.2479114 C540.063711,41.3736413 539.518827,42.2221415 539.518827,42.2221415 C539.518827,42.2221415 538.220487,41.1775659 537.247514,40.7471337 C536.27454,40.3167014 535.368231,41.2447005 535.368231,41.2447005 C535.368231,41.2447005 533.413687,38.8361674 532.655598,38.4777704 C531.89751,38.1193733 531.355387,38.6387291 531.355387,38.6387291 L524.766468,31.8274803 L525.203124,31.1550897 C525.203124,31.1550897 541.833647,40.9547489 541.892325,40.8643931 C541.963669,40.7545335 529.130874,32.8289956 526.159346,30.9958406 C526.694494,30.9678345 527.192501,30.7995874 527.617307,30.5271602 Z M519.85359,29.9964899 L514.871529,37.1021493 C514.871529,37.1021493 514.293972,36.4615191 513.794427,36.6467819 C513.294882,36.8320447 510.612071,40.2749141 510.612071,40.2749141 C510.612071,40.2749141 510.222383,39.8359794 509.374217,39.7418465 C508.526051,39.6477136 506.49274,41.388937 506.49274,41.388937 C506.49274,41.388937 506.005496,40.460061 505.495184,40.3170703 C504.984872,40.1740796 503.580514,40.4637708 503.580514,40.4637708 C503.580514,40.4637708 504.044754,39.7357218 504.233646,38.9325672 C504.422537,38.1294125 503.839939,37.3063505 503.839939,37.3063505 C503.839939,37.3063505 505.294819,36.4938562 506.058391,35.7529735 C506.821964,35.0120908 506.301047,33.824141 506.301047,33.824141 C506.301047,33.824141 509.266385,32.9141716 509.88267,32.3455421 C510.498955,31.7769126 510.2205,31.0797108 510.2205,31.0797108 L517.437533,28.5608843 C517.6126,28.8476748 517.83446,29.1027803 518.092501,29.3155889 C514.291931,32.2119163 504.159482,39.9439323 504.209693,40.0156416 C504.280559,40.1168485 515.223925,32.3534609 518.854642,29.773603 C519.164848,29.9018434 519.501249,29.9795583 519.85359,29.9964899 L519.85359,29.9964899 Z" id="mistletoe_L"></path>
            </g>
        </g>
    </g>
</svg>