<?xml version="1.0" encoding="UTF-8" standalone="no"?>
<svg width="50px" height="45px" viewBox="0 0 50 45" version="1.1" xmlns="http://www.w3.org/2000/svg" xmlns:xlink="http://www.w3.org/1999/xlink" xmlns:sketch="http://www.bohemiancoding.com/sketch/ns">
    <!-- Generator: Sketch 3.1.1 (8761) - http://www.bohemiancoding.com/sketch -->
    <title>pet_footprint_L</title>
    <desc>Created with Sketch.</desc>
    <defs></defs>
    <g id="Page-1" stroke="none" stroke-width="1" fill="none" fill-rule="evenodd" sketch:type="MSPage">
        <g id="line-icons" sketch:type="MSLayerGroup" transform="translate(-99.000000, -6.000000)" fill="#900C21">
            <g id="row-1-line-icons" transform="translate(1.000000, 0.000000)" sketch:type="MSShapeGroup">
                <path d="M113.24454,33.3500594 C116.667245,28.8717718 117.136143,24.3591174 123.000001,24.3591164 C130.018687,24.3591153 130.421269,29.8610363 132.970938,33.3500594 C135.520607,36.8390826 144.779936,39.5229462 140.351565,46.903571 C135.923193,54.2841956 128.408371,45.8300247 123.000001,45.8300247 C117.591631,45.8300252 109.338148,54.8209703 105.461335,46.903571 C101.584524,38.9861716 109.122223,38.7437208 113.24454,33.3500594 Z M114.835562,34.4202882 C118.806874,29.3953629 118.062015,26.3155708 123.000001,26.31557 C128.910474,26.3155691 128.127297,29.8816468 131.369185,34.4202882 C134.611073,38.9589297 142.229506,40.174636 138.663432,45.9289867 C135.097358,51.6833374 129.667195,43.9028083 123.000001,43.9028083 C116.332807,43.902809 110.215872,52.1696197 107.136079,45.9289867 C104.056287,39.6883536 110.864249,39.4452135 114.835562,34.4202882 Z M128.886615,21.9221445 C131.621165,22.3064605 134.336435,19.0711453 134.95134,14.6958655 C135.566246,10.3205857 133.847935,6.46217138 131.113385,6.07785545 C128.378835,5.69353952 125.663565,8.92885466 125.04866,13.3041345 C124.433754,17.6794143 126.152065,21.5378286 128.886615,21.9221445 Z M129.164961,19.9416084 C130.805691,20.172198 132.509625,17.6989792 132.970804,14.4175193 C133.431983,11.1360594 132.475769,8.28898114 130.835039,8.05839159 C129.194309,7.82780203 127.490375,10.3010208 127.029196,13.5824807 C126.568017,16.8639406 127.524231,19.7110189 129.164961,19.9416084 Z M106.205099,32.6900936 C108.85955,31.928942 110.024151,27.8689348 108.806308,23.6218132 C107.588466,19.3746916 104.449352,16.5487549 101.794901,17.3099064 C99.1404501,18.071058 97.975849,22.1310652 99.1936915,26.3781868 C100.411534,30.6253084 103.550648,33.4512451 106.205099,32.6900936 Z M105.653824,30.7675702 C107.246495,30.3108792 107.797167,27.3584291 106.883785,24.1730879 C105.970403,20.9877467 103.938846,18.7757389 102.346176,19.2324298 C100.753505,19.6891208 100.202833,22.6415709 101.116215,25.8269121 C102.029597,29.0122533 104.061154,31.2242611 105.653824,30.7675702 Z M117.246469,21.8844364 C119.973895,21.4524545 121.624606,17.5646392 120.933435,13.2007574 C120.242264,8.83687547 117.470943,5.64944109 114.743517,6.08142295 C112.016091,6.51340482 110.36538,10.4012201 111.056551,14.765102 C111.747722,19.1289839 114.519042,22.3164183 117.246469,21.8844364 Z M116.9336,19.9090597 C118.570055,19.6498706 119.476436,16.7865377 118.958058,13.5136263 C118.43968,10.2407149 116.692842,7.79761051 115.056386,8.05679963 C113.41993,8.31598876 112.51355,11.1793217 113.031928,14.4522331 C113.550306,17.7251445 115.297144,20.1682488 116.9336,19.9090597 Z M139.929448,32.7274066 C142.596778,33.4421157 145.686095,30.5618243 146.829629,26.2940952 C147.973164,22.0263662 146.737883,17.9873025 144.070552,17.2725934 C141.403222,16.5578843 138.313905,19.4381757 137.170371,23.7059048 C136.026836,27.9736338 137.262117,32.0126975 139.929448,32.7274066 Z M140.447086,30.795555 C142.047484,31.2243804 144.040127,28.9772539 144.897777,25.7764571 C145.755428,22.5756604 145.153313,19.6332705 143.552914,19.204445 C141.952516,18.7756196 139.959873,21.0227461 139.102223,24.2235429 C138.244572,27.4243396 138.846687,30.3667295 140.447086,30.795555 Z" id="pet_footprint_L"></path>
            </g>
        </g>
    </g>
</svg>