<?xml version="1.0" encoding="UTF-8" standalone="no"?>
<svg width="48px" height="48px" viewBox="0 0 48 48" version="1.1" xmlns="http://www.w3.org/2000/svg" xmlns:xlink="http://www.w3.org/1999/xlink" xmlns:sketch="http://www.bohemiancoding.com/sketch/ns">
    <!-- Generator: Sketch 3.1.1 (8761) - http://www.bohemiancoding.com/sketch -->
    <title>soccer_L</title>
    <desc>Created with Sketch.</desc>
    <defs></defs>
    <g id="Page-1" stroke="none" stroke-width="1" fill="none" fill-rule="evenodd" sketch:type="MSPage">
        <g id="line-icons" sketch:type="MSLayerGroup" transform="translate(-100.000000, -405.000000)" fill="#900C21">
            <g id="row-5-line-icons" transform="translate(0.000000, 396.000000)" sketch:type="MSShapeGroup">
                <path d="M124,57 C137.254835,57 148,46.2548347 148,33 C148,19.7451653 137.254835,9 124,9 C110.745165,9 100,19.7451653 100,33 C100,46.2548347 110.745165,57 124,57 Z M102.020775,33.9647875 C102.218842,38.5548721 103.823372,42.7803438 106.41424,46.2210776 C106.53275,46.3784612 106.594027,45.4891853 106.594027,45.4891853 L114.07244,48.0341949 L118.605497,54.3337784 C120.331594,54.7688808 122.138807,55 124,55 C125.81156,55 127.571979,54.7810433 129.256238,54.3681507 C129.453506,54.3197907 134.099194,47.6703606 134.099194,47.6703606 L141.544086,44.8508034 C141.544086,44.8508034 141.649978,46.13667 141.75974,45.9868235 C144.175281,42.6891252 145.694518,38.6936506 145.958702,34.3591467 C145.986101,33.909611 145.515892,35.1680737 145.515892,35.1680737 L140.550499,28.2215405 L140.349876,20.0211182 C140.349876,20.0211182 142.209403,20.648801 142.096732,20.4861702 C139.487737,16.7203267 135.733522,13.8081659 131.33783,12.2534317 C131.122487,12.177266 132.049145,14.22816 132.049145,14.22816 L124,16.359768 L116.400633,13.8018384 C116.400633,13.8018384 118.098338,11.7958601 117.672223,11.9236118 C116.815619,12.1804263 115.980974,12.4880361 115.171785,12.8429435 C111.404624,14.4952072 108.189192,17.1725732 105.878427,20.522102 C105.789417,20.6511253 107.824046,20.3722068 107.824046,20.3722068 L107.598346,28.9237157 L103.134508,35.2934628 C103.134508,35.2934628 102.006972,33.644915 102.020775,33.9647875 Z M124,25 L131.608452,30.527864 L128.702282,39.472136 L119.297718,39.472136 L116.391548,30.527864 L124,25 Z" id="soccer_L"></path>
            </g>
        </g>
    </g>
</svg>