<?xml version="1.0" encoding="UTF-8" standalone="no"?>
<svg width="48px" height="50px" viewBox="0 0 48 50" version="1.1" xmlns="http://www.w3.org/2000/svg" xmlns:xlink="http://www.w3.org/1999/xlink" xmlns:sketch="http://www.bohemiancoding.com/sketch/ns">
    <!-- Generator: Sketch 3.1.1 (8761) - http://www.bohemiancoding.com/sketch -->
    <title>tub_L</title>
    <desc>Created with Sketch.</desc>
    <defs></defs>
    <g id="Page-1" stroke="none" stroke-width="1" fill="none" fill-rule="evenodd" sketch:type="MSPage">
        <g id="line-icons" sketch:type="MSLayerGroup" transform="translate(-300.000000, -203.000000)" fill="#900C21">
            <g id="row-3-line-icons" transform="translate(4.000000, 202.000000)" sketch:type="MSShapeGroup">
                <path d="M333.999992,30 L344,30 L338.449809,42.349332 C337.544841,44.3629108 335.017242,46 332.806899,46 L307.494826,46 C305.283882,46 302.731441,44.3745037 301.792448,42.3693523 L296,30 L324.000008,30 C324.003155,28.8939019 324.897204,28 325.999615,28 L332.000385,28 C333.110605,28 333.996869,28.894889 333.999992,30 L333.999992,30 Z M334,32 L341,32 L336.373402,42.1774583 C335.915551,43.1846255 334.650553,44 333.547335,44 L306.736118,44 C305.627316,44 304.353924,43.19567 303.879444,42.2034788 L299,32 L324,32 L324,39.9941413 C324,41.1019465 324.887433,42 325.999615,42 L332.000385,42 C333.104742,42 334,41.1029399 334,39.9941413 L334,32 L334,32 Z M305.61942,7.64614991 C306.65576,7.5707796 310.722168,4.16845707 310.824417,3.41731349 C310.926666,2.6661699 307.458512,4.53023342 307.458512,4.53023342 L304,1.74951173 C304,1.74951173 303.21875,1.17138673 302.59375,1.64013672 C301.96875,2.10888681 302,2.94501603 302,2.94501603 L302,30 L304,30 L304,4.07456398 L307.047058,4.94738773 C307.047058,4.94738773 304.650738,7.71659992 305.61942,7.64614991 Z M310,46 C309.447715,46 308.792448,46.398159 308.537245,46.8877296 L307.377639,49.1122704 C307.122066,49.6025499 307.357083,50 307.908588,50 L308.006296,50 C308.555104,50 309.19908,49.601841 309.443865,49.1122704 L310.556135,46.8877296 C310.801275,46.3974501 310.556135,46 310,46 Z M330,46 C329.447715,46 329.19908,46.4074816 329.438908,46.8983704 L330.561092,49.1952867 C330.803494,49.691443 331.446431,50.07795 332.003212,50.0583603 L332.101855,50.0548896 C332.655914,50.0353957 332.89553,49.6194834 332.637885,49.1275148 L331.467183,46.8920779 C331.209165,46.3993969 330.556135,46 330,46 Z M325.99703,29 C325.446386,29 325,29.455761 325,30.0024733 L325,39.9975267 C325,40.5511774 325.453036,41 325.99703,41 L332.00297,41 C332.553614,41 333,40.544239 333,39.9975267 L333,30.0024733 C333,29.4488226 332.546964,29 332.00297,29 L325.99703,29 Z" id="tub_L"></path>
            </g>
        </g>
    </g>
</svg>