<?xml version="1.0" encoding="UTF-8" standalone="no"?>
<svg width="39px" height="40px" viewBox="0 0 39 40" version="1.1" xmlns="http://www.w3.org/2000/svg" xmlns:xlink="http://www.w3.org/1999/xlink" xmlns:sketch="http://www.bohemiancoding.com/sketch/ns">
    <!-- Generator: Sketch 3.1.1 (8761) - http://www.bohemiancoding.com/sketch -->
    <title>wrench_L</title>
    <desc>Created with Sketch.</desc>
    <defs></defs>
    <g id="Page-1" stroke="none" stroke-width="1" fill="none" fill-rule="evenodd" sketch:type="MSPage">
        <g id="line-icons" sketch:type="MSLayerGroup" transform="translate(-105.000000, -108.000000)" fill="#900C21">
            <g id="row-2-line-icons" transform="translate(0.000000, 104.000000)" sketch:type="MSShapeGroup">
                <path d="M133.473893,9.15267934 C135.436911,6.14624394 127.094086,-0.951036612 127.094086,-0.951036612 L127.094086,6.97114073 L124.077112,8.345517 L120.957301,6.9711407 L120.957301,1.02728947 C120.957301,1.02728947 113.07154,5.93592052 115,9.15267934 C116.92846,12.3694381 120.044089,14 120.044089,14 L118.35023,43.0031815 C118.156803,46.3151329 120.693034,49 124,49 C127.313708,49 129.844121,46.3117245 129.652277,43.0031815 L127.970539,14 C127.970539,14 131.510874,12.1591147 133.473893,9.15267934 Z M131.752644,8.31299348 C132.207972,6.91448548 128.955629,3.59709489 128.955629,3.59709489 L128.955629,8.31299327 L123.979543,10.4920639 L119.003457,8.31299341 L119.003456,4.80046213 C119.003456,4.80046213 117.062672,6.81873754 116.726816,7.53243101 C115.946253,9.19112636 122.093183,13.0614154 122.093183,13.0614154 L120.133433,43.0070134 C119.989113,45.212279 121.654743,47 123.864731,47 L123.911795,47 C126.116854,47 127.800393,45.2112051 127.672223,43.0070134 L125.930949,13.0614154 C125.930949,13.0614154 131.297316,9.71150148 131.752644,8.31299348 Z M124,46 C125.656854,46 127,44.6568543 127,43 C127,41.3431457 125.656854,40 124,40 C122.343146,40 121,41.3431457 121,43 C121,44.6568543 122.343146,46 124,46 Z M124,45 C125.10457,45 126,44.1045696 126,43 C126,41.8954304 125.10457,41 124,41 C122.89543,41 122,41.8954304 122,43 C122,44.1045696 122.89543,45 124,45 Z" id="wrench_L" transform="translate(124.500000, 24.000000) rotate(-45.000000) translate(-124.500000, -24.000000) "></path>
            </g>
        </g>
    </g>
</svg>