<?xml version="1.0" encoding="UTF-8" standalone="no"?>
<svg width="35px" height="52px" viewBox="0 0 35 52" version="1.1" xmlns="http://www.w3.org/2000/svg" xmlns:xlink="http://www.w3.org/1999/xlink" xmlns:sketch="http://www.bohemiancoding.com/sketch/ns">
    <!-- Generator: Sketch 3.1.1 (8761) - http://www.bohemiancoding.com/sketch -->
    <title>ballon_L</title>
    <desc>Created with Sketch.</desc>
    <defs></defs>
    <g id="page-1" stroke="none" stroke-width="1" fill="none" fill-rule="evenodd" sketch:type="MSPage">
        <g id="line-icons" sketch:type="MSLayerGroup" transform="translate(-409.000000, -201.000000)" fill="#FFFFFF">
            <g id="row-3-line-icons" transform="translate(3.000000, 200.500000)" sketch:type="MSShapeGroup">
                <path d="M418,37 C411.372583,37 406,29.8365564 406,21 C406,12.1634436 411.372583,5 418,5 C419.807943,5 421.522504,5.53309276 423.060086,6.48781805 L423.060086,6.48781805 C424.88786,3.15125144 427.764483,1 431,1 C436.522848,1 441,7.26801312 441,15 C441,22.2594877 437.053323,28.2284605 432,28.9308747 L432,28.9308747 L432,43.5036068 C432,43.773819 431.776142,44 431.5,44 C431.231934,44 431,43.7777572 431,43.5036068 L431,29 C430.161617,29 429.347332,28.8555597 428.569147,28.5834844 C426.691747,33.225347 423.144465,36.4893532 419,36.945235 L419,51.5036068 C419,51.773819 418.776142,52 418.5,52 C418.231934,52 418,51.7777572 418,51.5036068 L418,37 Z M424.657253,7.68591578 C426.119914,4.83622597 428.416999,3 431,3 C435.418278,3 439,8.37258267 439,15 C439,21.6274173 435.418278,27 431,27 C430.386774,27 429.789663,26.8965053 429.216007,26.7005253 C429.722562,24.9297009 430,23.0080499 430,21 C430,15.4471822 427.878496,10.5550365 424.657253,7.68591578 L424.657253,7.68591578 Z M418,35 C423.522848,35 428,28.7319869 428,21 C428,13.2680131 423.522848,7 418,7 C412.477152,7 408,13.2680131 408,21 C408,28.7319869 412.477152,35 418,35 Z M435.49931,14 C435.49931,14 436.496178,12.0032081 435.676705,9.38017157 C434.857233,6.75713506 433,6 433,6 C433,6 434.47051,7.68237715 435.036728,9.5310866 C435.602946,11.3797961 435.49931,14 435.49931,14 Z M424.165516,22 C424.165516,22 425.826963,19.0048122 424.461175,15.0702574 C423.095388,11.1357026 420,10 420,10 C420,10 422.450851,12.5235657 423.394547,15.2966299 C424.338244,18.0696941 424.165516,22 424.165516,22 Z" id="ballon_L"></path>
            </g>
        </g>
    </g>
</svg>