<?xml version="1.0" encoding="UTF-8" standalone="no"?>
<svg width="37px" height="48px" viewBox="0 0 37 48" version="1.1" xmlns="http://www.w3.org/2000/svg" xmlns:xlink="http://www.w3.org/1999/xlink" xmlns:sketch="http://www.bohemiancoding.com/sketch/ns">
    <!-- Generator: Sketch 3.1.1 (8761) - http://www.bohemiancoding.com/sketch -->
    <title>bonny_ear_L</title>
    <desc>Created with Sketch.</desc>
    <defs></defs>
    <g id="page-1" stroke="none" stroke-width="1" fill="none" fill-rule="evenodd" sketch:type="MSPage">
        <g id="line-icons" sketch:type="MSLayerGroup" transform="translate(-7.000000, -502.000000)" fill="#FFFFFF">
            <g id="row-6-line-icons" transform="translate(3.000000, 500.000000)" sketch:type="MSShapeGroup">
                <path d="M34.0387457,31.0545169 C36.5941339,33.8967699 37.9592805,37.8855776 37.9592805,42.3023256 C37.9592805,44.5102606 37.6753828,46.6088183 36.8429518,48.5130949 C34.4213208,54.05284 40.7847689,28.9043216 23.6249999,28.9043196 C6.46523081,28.9043175 12.8548089,54.054139 10.4337432,48.5130949 C9.60198287,46.609462 9.33897829,46.021813 9.33897744,42.3023256 C9.3389756,33.6712705 14.5038889,26.6744197 23.625,26.6744186 C27.9950161,26.6744181 31.467978,28.2805206 33.9003395,30.9029523 C33.6248692,30.5746353 32.9047474,29.7960071 31.6518883,28.960015 C29.9982448,27.8565924 28.696206,27.4840783 28.696206,27.4840783 C28.696206,27.4840783 28.2305096,18.0832554 29.1984111,15.1043612 C30.1663125,12.1254671 37.7812864,2.3619828 39.0950117,2.78883897 C40.408737,3.21569511 40.732636,17.328184 39.5869679,20.8541879 C38.7642754,23.386175 34.2500157,30.7123078 34.0387457,31.0545169 L34.0387457,31.0545169 Z M30.8193542,27.0766694 L32.2571064,19.9122288 C32.2571064,19.9122288 34.8641797,15.4206636 35.286836,15.6074947 C35.7103019,15.7946839 35.6298057,22.1770152 35.6298057,22.1770152 L32.2473685,28.0944366 C32.2473685,28.0944366 37.3306878,21.8326944 37.7375571,20.6510603 C38.6309751,18.0563858 38.6876686,6.77354212 37.90328,6.503455 C37.1188913,6.23336795 31.799123,13.1637715 30.9362637,15.6696969 C30.0734043,18.1756223 30.8193542,27.0766694 30.8193542,27.0766694 Z M12.8380506,31.4707865 C12.8380506,31.4707865 13.6837502,30.3690262 15.1265728,29.2832962 C16.5693955,28.1975662 18.0863755,27.6480329 18.0863755,27.6480329 C18.0863755,27.6480329 17.1481289,20.0602199 16.2605586,17.4825286 C15.0535277,13.9770564 6.30174269,2.90124889 4.99566657,3.35096605 C3.68959044,3.80068318 5.08775152,19.174147 6.1074943,22.1356953 C7.1272371,25.0972436 12.8380506,31.4707865 12.8380506,31.4707865 Z M13.9922924,28.3943495 L10.0869851,23.0993013 C10.0869851,23.0993013 8.67799095,16.4927974 9.12797698,16.3876465 C9.57882521,16.2822942 13.4153753,20.8052635 13.4153753,20.8052635 L15.529578,27.3121095 C15.529578,27.3121095 14.9779545,19.5148477 14.5917695,18.3262928 C13.7437708,15.7164211 7.22577427,7.1772188 6.49903143,7.41335165 C5.77228855,7.64948434 7.13560743,19.2047004 7.95460088,21.7253031 C8.77359435,24.2459059 13.9922924,28.3943495 13.9922924,28.3943495 Z" id="bonny_ear_L"></path>
            </g>
        </g>
    </g>
</svg>