<?xml version="1.0" encoding="UTF-8" standalone="no"?>
<svg width="52px" height="26px" viewBox="0 0 52 26" version="1.1" xmlns="http://www.w3.org/2000/svg" xmlns:xlink="http://www.w3.org/1999/xlink" xmlns:sketch="http://www.bohemiancoding.com/sketch/ns">
    <!-- Generator: Sketch 3.1.1 (8761) - http://www.bohemiancoding.com/sketch -->
    <title>bowtie_L</title>
    <desc>Created with Sketch.</desc>
    <defs></defs>
    <g id="page-1" stroke="none" stroke-width="1" fill="none" fill-rule="evenodd" sketch:type="MSPage">
        <g id="line-icons" sketch:type="MSLayerGroup" transform="translate(0.000000, -114.000000)" fill="#FFFFFF">
            <g id="row-2-line-icons" transform="translate(0.000000, 92.500000)" sketch:type="MSShapeGroup">
                <path d="M48.7171029,33.0422483 C48.6196246,27.3779136 47.5851776,22.0000002 45.5925926,22 C41.3832374,21.9999997 28.6197847,30.0370922 28.6197847,30.0370922 L23.4198404,30.0370922 C23.4198404,30.0370922 10.6485429,22 6.40740741,22 C4.43467773,22.0000002 3.26361331,27.315707 3.0559913,33.002005 L3.0559913,33.002005 C3.03440202,33.000675 3.01260903,33 2.9906311,33 L1.0093689,33 C0.451909848,33 0,33.4438648 0,34 C0,34.5522847 0.443353176,35 1.0093689,35 L2.9906311,35 C3.00143492,35 3.01219909,34.9998333 3.0229211,34.9995023 C3.04294965,40.8944654 4.11163231,46.5691511 6.40740752,46.5691509 C11.1843887,46.5691509 23.4198404,38.0124626 23.4198404,38.0124626 L28.6197847,38.0124626 C28.6197847,38.0124626 41.4497623,46 45.5925926,46 C47.5537064,46 48.6013844,40.6219785 48.7144566,34.9575812 C48.8074092,34.9851709 48.9063576,35 49.0093689,35 L50.9906311,35 C51.5480902,35 52,34.5561352 52,34 C52,33.4477153 51.5566468,33 50.9906311,33 L49.0093689,33 C48.9077393,33 48.8096177,33.0147525 48.7171029,33.0422483 Z M30,33.3573841 L30,34.3103106 L30,34.3103106 L37.512425,35.7705781 C37.7943411,35.825377 37.9700128,36.0875716 37.9173223,36.3586405 C37.8661728,36.6217818 37.5979251,36.8059143 37.321616,36.7522052 L30,35.3290273 L30,37 C30,37 42.4276123,44.3214083 45.1717205,44.3214078 C47.9158287,44.3214078 47.6991882,23.6683876 45.1717205,23.6683872 C42.6442528,23.6683867 30,31 30,31 L30,32.3221079 L40.182847,29.5936222 C40.4449479,29.5233925 40.7240841,29.6803527 40.795555,29.9470857 C40.8649356,30.206018 40.7085844,30.4880275 40.4416661,30.5595481 L30,33.3573841 L30,33.3573841 Z M22,33.5514993 L22,34.1120452 L22,34.1120452 L14.5072349,35.9802013 C14.2341154,36.0482977 14.0688181,36.3285448 14.1336692,36.5886485 C14.2004741,36.8565883 14.4704949,37.0199753 14.7491568,36.9504971 L22,35.1426588 L22,37.0689983 C22,37.0689983 9.68064974,45.0000005 6.96044659,45 C4.24024345,45 4.45499644,23.8229156 6.96044636,23.8229151 C9.46589627,23.8229147 22,31.1619835 22,31.1619835 L22,32.5058075 L11.8868418,29.4139048 C11.6225821,29.3331125 11.3405465,29.4894166 11.2621715,29.7457698 C11.1814352,30.009846 11.3349799,30.2908754 11.5944701,30.3702095 L22,33.5514993 L22,33.5514993 Z M24,32 L24,36 L28,36 L28,32 L24,32 Z" id="bowtie_L"></path>
            </g>
        </g>
    </g>
</svg>