<?xml version="1.0" encoding="UTF-8" standalone="no"?>
<svg width="51px" height="43px" viewBox="0 0 51 43" version="1.1" xmlns="http://www.w3.org/2000/svg" xmlns:xlink="http://www.w3.org/1999/xlink" xmlns:sketch="http://www.bohemiancoding.com/sketch/ns">
    <!-- Generator: Sketch 3.1.1 (8761) - http://www.bohemiancoding.com/sketch -->
    <title>cheers_L</title>
    <desc>Created with Sketch.</desc>
    <defs></defs>
    <g id="page-1" stroke="none" stroke-width="1" fill="none" fill-rule="evenodd" sketch:type="MSPage">
        <g id="line-icons" sketch:type="MSLayerGroup" transform="translate(-501.000000, -204.000000)" fill="#FFFFFF">
            <g id="row-3-line-icons" transform="translate(3.000000, 200.500000)" sketch:type="MSShapeGroup">
                <path d="M538.461235,29.3832872 C540.290856,27.2731249 543.10693,21.2906809 543.257202,18.9254911 C543.434628,16.1329124 537.227359,9.94310775 537.227359,9.94310775 L525.393135,14.0179578 C525.393135,14.0179578 524.42553,22.502536 526.237867,24.7857181 C527.845461,26.8109656 534.273532,29.8606694 536.82104,30.1397345 L541.104806,41.9092864 C541.195437,42.1582925 535.201272,46.745706 537.763532,45.8131192 L547.937212,42.1102027 C549.997068,41.3604764 542.850435,41.4425146 542.796253,41.29365 C541.513289,37.7687358 539.114959,31.1793772 538.461235,29.3832872 L538.461235,29.3832872 Z M510.265062,29.9946013 C513.014912,29.5061145 518.968288,26.6290956 520.573533,24.8855669 C522.468845,22.8269833 521.540262,14.1102409 521.540262,14.1102409 L509.778956,9.8294758 C509.778956,9.8294758 503.687468,15.8142977 503.659065,18.7292041 C503.633871,21.3148088 506.710179,27.73019 508.514343,29.5502627 L504.436636,41.392784 C504.350365,41.6433339 496.805071,41.4361737 499.383217,42.3238999 L509.619972,45.8486973 C511.692598,46.5623599 506.086993,42.128594 506.138569,41.9788065 C507.35982,38.4320382 509.642785,31.8018267 510.265062,29.9946013 L510.265062,29.9946013 Z M509.592914,28.5141039 C510.268458,28.7599816 517.449232,25.8260283 518.981542,24.1350356 C520.513853,22.444043 519.84902,15.3467102 519.84902,15.3467102 L510.276944,11.8627594 C510.276944,11.8627594 505.383722,16.7924523 505.343906,19.1713421 C505.30409,21.5502318 508.917371,28.2682261 509.592914,28.5141039 Z M537.007171,28.655721 C537.686903,28.4216708 541.421016,21.6225531 541.547669,19.3440908 C541.674321,17.0656285 536.691153,11.968358 536.691153,11.968358 L527.059731,15.2847224 C527.059731,15.2847224 526.35934,22.1952173 527.825481,24.0690188 C529.291622,25.9428203 536.32744,28.8897712 537.007171,28.655721 Z M528.673679,5.29263102 C528.42986,5.16299003 528.131342,5.24759101 527.99855,5.49733718 L526.118503,9.03319126 C525.989458,9.27588834 526.089633,9.58151943 526.326321,9.70736898 C526.57014,9.83700997 526.868658,9.75240899 527.00145,9.50266282 L528.881497,5.96680874 C529.010542,5.72411166 528.910367,5.41848057 528.673679,5.29263102 Z M518.326321,5.29263102 C518.082502,5.42227201 517.98571,5.71706257 518.118503,5.96680874 L519.99855,9.50266282 C520.127594,9.7453599 520.43699,9.83321854 520.673679,9.70736898 C520.917498,9.57772799 521.01429,9.28293743 520.881497,9.03319126 L519.00145,5.49733718 C518.872406,5.2546401 518.56301,5.16678146 518.326321,5.29263102 Z M523.5,4 C523.223858,4 523,4.22788048 523,4.49100518 L523,9.50899482 C523,9.78016949 523.231934,10 523.5,10 C523.776142,10 524,9.77211952 524,9.50899482 L524,4.49100518 C524,4.21983051 523.768066,4 523.5,4 Z" id="cheers_L"></path>
            </g>
        </g>
    </g>
</svg>