<?xml version="1.0" encoding="UTF-8" standalone="no"?>
<svg width="47px" height="51px" viewBox="0 0 47 51" version="1.1" xmlns="http://www.w3.org/2000/svg" xmlns:xlink="http://www.w3.org/1999/xlink" xmlns:sketch="http://www.bohemiancoding.com/sketch/ns">
    <!-- Generator: Sketch 3.1.1 (8761) - http://www.bohemiancoding.com/sketch -->
    <title>cocktail_L</title>
    <desc>Created with Sketch.</desc>
    <defs></defs>
    <g id="page-1" stroke="none" stroke-width="1" fill="none" fill-rule="evenodd" sketch:type="MSPage">
        <g id="line-icons" sketch:type="MSLayerGroup" transform="translate(-205.000000, -301.000000)" fill="#FFFFFF">
            <g id="row-4-line-icons" transform="translate(13.000000, 296.000000)" sketch:type="MSShapeGroup">
                <path d="M222.199159,13 C220.126469,10.5252695 218.636719,8.70913667 218.690282,8.66419234 C223.767178,4.4041706 231.336245,5.06637813 235.596267,10.1432743 C239.856288,15.2201706 239.194081,22.7892372 234.117185,27.049259 C234.117185,27.049259 231.453646,23.934352 228.339965,20.268756 C225.658603,21.6122656 223,21.6122656 223,21.6122656 C223,21.6122656 220.677012,31.7017587 214.02254,32.6554577 L214.022539,51.7600861 C214.022539,51.7600861 215.711434,52.6436398 217.635935,53.1486759 C220.590294,53.9239722 224.109358,54.4972493 223,55 C221.167995,55.8302479 205.104563,55.8302479 203,55 C201.798499,54.5260091 205.622941,53.90996 208.511378,53.1486759 C210.682362,52.5764857 212.012839,51.7600861 212.012839,51.7600861 L212.012839,32.6604356 C205.331219,31.7375052 203,21.6122656 203,21.6122656 C203,21.6122656 198.793692,21.6122656 195.568611,18.8661675 C192.343531,16.1200694 193.033623,13 193.033623,13 L222.199159,13 L222.199159,13 Z M227.705687,13 C227.656448,10.4431971 227.548407,7.52224241 227.610698,7.53075363 C229.682268,7.81380572 231.870975,8.77858988 233.745065,10.766687 C233.811835,10.8375194 232.723106,11.8366568 231.444717,13 L227.705687,13 L227.705687,13 Z M227.197139,13 C227.027489,10.4199619 226.87703,7.45766965 226.784644,7.45283533 C224.467663,7.33159364 222.378168,8.03684088 221.155868,9.06247235 C221.144069,9.0723733 222.547463,10.7530118 224.432783,13 L227.197139,13 L227.197139,13 Z M229.801403,19.3856168 C232.153445,22.179592 234.065104,24.4471008 234.065104,24.4471008 C235.26564,23.4397316 236.351565,21.5030346 236.651671,19.19031 C236.659212,19.1321965 233.906969,18.492095 231.43755,17.8775343 C231.159467,18.2084512 230.835435,18.5399481 230.45812,18.8661675 C230.243701,19.0515505 230.024243,19.2244186 229.801403,19.3856168 L229.801403,19.3856168 Z M231.90363,17.2639701 C234.269831,17.6420183 236.732585,18.0677667 236.733073,18.0121546 C236.750927,15.9766201 236.135251,13.7402715 234.487674,11.6314996 C234.461801,11.5983845 233.686514,12.1990281 232.665039,13 L233.034817,13 C233.034817,13 233.425775,15.034658 231.90363,17.2639701 L231.90363,17.2639701 Z M213.048691,18.0680247 C199.50801,18.0640496 195.582619,16.3039573 195.942648,16.7958255 C196.341817,17.3411658 196.911349,17.9409317 197.717648,18.4888015 C199.983345,20.0283141 204.234043,20.1092587 204.234043,20.1092587 C204.234043,20.1092587 206.742103,31.0541958 213.048691,31.0541954 C219.355278,31.0541954 221.690457,20.1092587 221.690457,20.1092587 C221.690457,20.1092587 225.90976,20.2300639 228.389738,18.4888015 C229.216684,17.9081796 229.788694,17.3268599 230.183837,16.8098659 C230.580107,16.2913983 226.589371,18.0719999 213.048691,18.0680247 Z M195.055785,15 C195.055785,15 195.055785,15.4052344 195.418253,15.658572 C195.780722,15.9119097 203,17.0640934 213.056322,17.0640862 C223,17.064079 230.268256,16.0123035 230.807089,15.658572 C231.345923,15.3048405 231.056859,15 231.056859,15 L195.055785,15 Z" id="cocktail_L"></path>
            </g>
        </g>
    </g>
</svg>