<?xml version="1.0" encoding="UTF-8" standalone="no"?>
<svg width="34px" height="40px" viewBox="0 0 34 40" version="1.1" xmlns="http://www.w3.org/2000/svg" xmlns:xlink="http://www.w3.org/1999/xlink" xmlns:sketch="http://www.bohemiancoding.com/sketch/ns">
    <!-- Generator: Sketch 3.1.1 (8761) - http://www.bohemiancoding.com/sketch -->
    <title>condom_L</title>
    <desc>Created with Sketch.</desc>
    <defs></defs>
    <g id="page-1" stroke="none" stroke-width="1" fill="none" fill-rule="evenodd" sketch:type="MSPage">
        <g id="line-icons" sketch:type="MSLayerGroup" transform="translate(-209.000000, -507.000000)" fill="#FFFFFF">
            <g id="row-6-line-icons" transform="translate(3.000000, 500.000000)" sketch:type="MSShapeGroup">
                <path d="M238.021606,7.03344727 L236.005981,10 L234.037231,7.03344727 L232.038635,10 L230.007385,7.03344727 L228.007385,10 L226.02301,6.96334815 L224.02301,10 L222.007385,7.03344727 L220.019104,10 L218.034729,7.03344727 L216.034729,10 L214.019104,7.03344727 L212.019104,10 L210.019104,7.03344727 L207.987854,10 L206,6.96334815 L206,44 L207.987854,47.0120237 L210.026031,43.9999999 L212.019104,47.0120237 L214.019104,43.9999998 L216.034729,47.0120237 L218.027611,43.9999999 L220.019104,47.0120237 L222.028401,43.9999999 L224.02301,47.0120237 L226.029191,43.9999999 L228.007385,47.0120237 L230.011629,43.9999998 L232.038635,47.0120237 L234.012419,43.9999998 L236.005981,47.0120237 L238.021606,43.9999998 L240,47.0120237 L240,10 L238.021606,7.03344727 Z M211.999275,12 C209.790536,12 208,13.7867947 208,15.9992748 L208,38.0007252 C208,40.2094637 209.786795,42 211.999275,42 L234.000725,42 C236.209464,42 238,40.2132053 238,38.0007252 L238,15.9992748 C238,13.7905363 236.213205,12 234.000725,12 L211.999275,12 Z M223,39 C229.627417,39 235,33.6274173 235,27 C235,20.3725827 229.627417,15 223,15 C216.372583,15 211,20.3725827 211,27 C211,33.6274173 216.372583,39 223,39 Z M223,38 C229.075133,38 234,33.0751325 234,27 C234,20.9248675 229.075133,16 223,16 C216.924867,16 212,20.9248675 212,27 C212,33.0751325 216.924867,38 223,38 Z M223,36 C227.970563,36 232,31.970563 232,27 C232,22.029437 227.970563,18 223,18 C218.029437,18 214,22.029437 214,27 C214,31.970563 218.029437,36 223,36 Z M223,35 C227.418278,35 231,31.4182782 231,27 C231,22.5817218 227.418278,19 223,19 C218.581722,19 215,22.5817218 215,27 C215,31.4182782 218.581722,35 223,35 Z" id="condom_L"></path>
            </g>
        </g>
    </g>
</svg>