<?xml version="1.0" encoding="UTF-8" standalone="no"?>
<svg width="51px" height="26px" viewBox="0 0 51 26" version="1.1" xmlns="http://www.w3.org/2000/svg" xmlns:xlink="http://www.w3.org/1999/xlink" xmlns:sketch="http://www.bohemiancoding.com/sketch/ns">
    <!-- Generator: Sketch 3.1.1 (8761) - http://www.bohemiancoding.com/sketch -->
    <title>electric_piano_L</title>
    <desc>Created with Sketch.</desc>
    <defs></defs>
    <g id="page-1" stroke="none" stroke-width="1" fill="none" fill-rule="evenodd" sketch:type="MSPage">
        <g id="line-icons" sketch:type="MSLayerGroup" transform="translate(-301.000000, -415.000000)" fill="#FFFFFF">
            <g id="row-5-full-icons" transform="translate(9.000000, 402.000000)" sketch:type="MSShapeGroup">
                <path d="M292,13 L292,39 L343,39 L343,13 L292,13 Z M294,24 L294,37 L341,37 L341,24 L294,24 Z M294,15 L294,23 L341,23 L341,15 L294,15 Z M337,24 L337,37 L338,37 L338,24 L337,24 Z M321,24 L321,37 L322,37 L322,24 L321,24 Z M309,24 L309,37 L310,37 L310,24 L309,24 Z M333,31 L333,37 L334,37 L334,31 L333,31 Z M329,31 L329,37 L330,37 L330,31 L329,31 Z M325,31 L325,37 L326,37 L326,31 L325,31 Z M317,31 L317,37 L318,37 L318,31 L317,31 Z M313,31 L313,37 L314,37 L314,31 L313,31 Z M305,31 L305,37 L306,37 L306,31 L305,31 Z M301,31 L301,37 L302,37 L302,31 L301,31 Z M297,31 L297,37 L298,37 L298,31 L297,31 Z M332,24 L332,31 L335,31 L335,24 L332,24 Z M328,24 L328,31 L331,31 L331,24 L328,24 Z M324,24 L324,31 L327,31 L327,24 L324,24 Z M316,24 L316,31 L319,31 L319,24 L316,24 Z M312,24 L312,31 L315,31 L315,24 L312,24 Z M304,24 L304,31 L307,31 L307,24 L304,24 Z M300,24 L300,31 L303,31 L303,24 L300,24 Z M296,24 L296,31 L299,31 L299,24 L296,24 Z M332,20 C332.552285,20 333,19.5522848 333,19 C333,18.4477152 332.552285,18 332,18 C331.447715,18 331,18.4477152 331,19 C331,19.5522848 331.447715,20 332,20 Z M326,20 C326.552285,20 327,19.5522848 327,19 C327,18.4477152 326.552285,18 326,18 C325.447715,18 325,18.4477152 325,19 C325,19.5522848 325.447715,20 326,20 Z M320,20 C320.552285,20 321,19.5522848 321,19 C321,18.4477152 320.552285,18 320,18 C319.447715,18 319,18.4477152 319,19 C319,19.5522848 319.447715,20 320,20 Z M314,20 C314.552285,20 315,19.5522848 315,19 C315,18.4477152 314.552285,18 314,18 C313.447715,18 313,18.4477152 313,19 C313,19.5522848 313.447715,20 314,20 Z M298,17 L298,21 L306,21 L306,17 L298,17 Z" id="electric_piano_L"></path>
            </g>
        </g>
    </g>
</svg>