<?xml version="1.0" encoding="UTF-8" standalone="no"?>
<svg width="50px" height="46px" viewBox="0 0 50 46" version="1.1" xmlns="http://www.w3.org/2000/svg" xmlns:xlink="http://www.w3.org/1999/xlink" xmlns:sketch="http://www.bohemiancoding.com/sketch/ns">
    <!-- Generator: Sketch 3.1.1 (8761) - http://www.bohemiancoding.com/sketch -->
    <title>electric_guitar_L</title>
    <desc>Created with Sketch.</desc>
    <defs></defs>
    <g id="page-1" stroke="none" stroke-width="1" fill="none" fill-rule="evenodd" sketch:type="MSPage">
        <g id="line-icons" sketch:type="MSLayerGroup" transform="translate(-401.000000, -406.000000)" fill="#FFFFFF">
            <g id="row-5-full-icons" transform="translate(9.000000, 402.000000)" sketch:type="MSShapeGroup">
                <path d="M439.410362,5.81380578 L441.029856,5.82230019 L441.89287,7.42893254 L434.497169,9.82138579 L415.819572,28.5309964 L415.819572,28.5309964 C416.174967,29.1854168 416.707878,29.8828371 417.497227,30.6042106 C421.041828,33.8435615 425.806896,27.1471545 424.997451,30.856513 C423.807828,36.3080756 416.767124,35.8914963 416.03712,39.509405 C415.608489,41.6337032 413.010282,47.1955474 409.302428,48.8439068 C405.564651,50.505569 400.316004,47.8281791 396.858954,44.2482963 C393.440527,40.7084079 391.089503,35.3744371 392.594467,31.5423062 C394.174266,27.519621 400.296525,25.6417454 402.143952,25.122609 C406.462156,23.9091721 406.747579,16.0847741 412.76557,13.7608868 C417.872193,11.7889311 411.25412,17.4492623 413.136544,21.8920616 C413.668937,23.1485868 414.589253,23.3204896 415.093759,23.8813741 L432.456296,7.708 C432.456296,7.708 432.975482,7.22141261 433.072782,6.84708001 C433.170082,6.47274742 432.806158,5.77916606 432.806158,5.77916606 L434.456522,5.78782239 L434.456526,5.78782241 C434.447156,5.77947071 434.438028,5.77070648 434.429167,5.76153012 C434.237342,5.56288991 434.242867,5.24635566 434.441507,5.05453104 C434.640148,4.86270642 434.956682,4.86823154 435.148507,5.06687175 C435.340331,5.26551196 435.334806,5.58204622 435.136166,5.77387084 C435.129954,5.77986939 435.123627,5.78567496 435.117193,5.79128768 L435.852004,5.79514184 C435.849029,5.79220977 435.846083,5.789233 435.843165,5.78621155 C435.65134,5.58757134 435.656865,5.27103709 435.855506,5.07921247 C436.054146,4.88738785 436.37068,4.89291297 436.562505,5.09155318 C436.754329,5.29019339 436.748804,5.60672765 436.550164,5.79855227 C436.550078,5.79863568 436.549991,5.79871906 436.549905,5.7988024 L436.549905,5.7988024 L437.249212,5.80247033 L437.249212,5.80247033 C437.065531,5.60340271 437.073648,5.29302946 437.269504,5.1038939 C437.468144,4.91206928 437.784678,4.9175944 437.976503,5.11623461 C438.162788,5.30913817 438.162957,5.61322464 437.980889,5.80630805 L438.647923,5.80980671 C438.480147,5.6104326 438.493247,5.31230242 438.683502,5.12857533 C438.882142,4.93675071 439.198676,4.94227583 439.390501,5.14091604 C439.571349,5.32818966 439.576787,5.62025109 439.410362,5.81380578 L439.410362,5.81380578 Z M414.598811,29.7538497 C415.043294,30.5479288 415.693222,31.325851 416.647592,31.9927087 C420.312473,34.553512 422.469827,31.7325269 421.765734,32.8034518 C421.061642,33.8743767 415.472329,35.4275026 414.70483,38.0597948 C414.074804,40.2205988 411.891156,45.6600669 408.74107,47.0789598 C405.565561,48.5093037 401.111065,45.8229918 398.207143,42.8158903 C395.335664,39.8423839 392.965992,35.7431134 394.265021,32.4904607 C395.628645,29.0760683 402.005614,26.9838974 403.573181,26.5326343 C407.237236,25.4778453 407.666647,19.9653511 410.713623,17.3333996 C413.760599,14.701448 409.864603,17.8214841 411.101642,21.7604608 C411.689367,23.6318936 413.13409,24.1682702 413.515239,24.7712951 C413.563277,24.8472967 413.581099,25.0244168 413.593661,25.2787298 L411.065593,27.6336503 L409.673647,26.1922485 L406.796288,28.970882 L412.353555,34.7256004 L415.230914,31.9469669 L413.843597,30.5103579 L414.598811,29.7538497 L414.598811,29.7538497 Z M409.648966,27.6062466 L408.210286,28.9955634 L412.378236,33.3116022 L413.816916,31.9222855 L409.648966,27.6062466 Z M405.357608,30.3601987 L402.480249,33.1388322 L408.037516,38.8935506 L410.914875,36.1149171 L405.357608,30.3601987 Z M405.332927,31.7741969 L403.894247,33.1635136 L408.062198,37.4795524 L409.500877,36.0902357 L405.332927,31.7741969 Z M401.04157,34.5281489 L400.32223,35.2228073 L405.879497,40.9775257 L406.598837,40.2828673 L401.04157,34.5281489 Z M405.086113,45.9141786 C405.469762,46.311459 406.585919,45.8559956 407.579121,44.8968725 C408.572322,43.9377493 409.066461,42.8381671 408.682812,42.4408867 C408.299162,42.0436063 407.183005,42.4990697 406.189804,43.4581929 C405.196603,44.417316 404.702463,45.5168982 405.086113,45.9141786 Z M417.862924,23.1560405 C417.669302,22.9555393 417.345502,22.9541155 417.152671,23.1403301 C416.954031,23.3321547 416.941682,23.6416232 417.143584,23.8506989 L417.831734,24.5632993 C418.025356,24.7638005 418.349157,24.7652243 418.541988,24.5790097 C418.740628,24.3871851 418.752976,24.0777166 418.551074,23.8686409 L417.862924,23.1560405 Z M414.266225,26.6293324 C414.072603,26.4288311 413.748803,26.4274074 413.555972,26.613622 C413.357332,26.8054466 413.344983,27.1149151 413.546885,27.3239907 L414.235035,28.0365911 C414.428657,28.2370924 414.752458,28.2385161 414.945289,28.0523016 C415.143929,27.8604769 415.156277,27.5510084 414.954375,27.3419328 L414.266225,26.6293324 Z M421.459623,19.6827487 C421.266001,19.4822474 420.942201,19.4808237 420.74937,19.6670382 C420.55073,19.8588629 420.538381,20.1683314 420.740283,20.377407 L421.428433,21.0900074 C421.622055,21.2905087 421.945856,21.2919324 422.138687,21.1057178 C422.337327,20.9138932 422.349675,20.6044247 422.147773,20.3953491 L421.459623,19.6827487 Z M425.056322,16.2094568 C424.8627,16.0089556 424.5389,16.0075318 424.346069,16.1937464 C424.147429,16.385571 424.13508,16.6950395 424.336982,16.9041152 L425.025132,17.6167156 C425.218754,17.8172168 425.542555,17.8186406 425.735386,17.632426 C425.934026,17.4406014 425.946374,17.1311329 425.744472,16.9220572 L425.056322,16.2094568 Z M427.933681,13.4308233 C427.740059,13.2303221 427.416259,13.2288983 427.223428,13.4151129 C427.024788,13.6069375 427.012439,13.916406 427.214341,14.1254817 L427.902492,14.8380821 C428.096113,15.0385833 428.419914,15.0400071 428.612745,14.8537925 C428.811385,14.6619679 428.823733,14.3524994 428.621831,14.1434237 L427.933681,13.4308233 Z M430.091701,11.3468482 C429.898079,11.146347 429.574278,11.1449232 429.381447,11.3311378 C429.182807,11.5229624 429.170459,11.8324309 429.372361,12.0415066 L430.060511,12.754107 C430.254133,12.9546082 430.577933,12.956032 430.770764,12.7698174 C430.969404,12.5779928 430.981753,12.2685243 430.779851,12.0594486 L430.091701,11.3468482 Z M432.24972,9.26287312 C432.056098,9.06237188 431.732298,9.06094812 431.539467,9.24716269 C431.340827,9.4389873 431.328478,9.74845579 431.53038,9.95753149 L432.21853,10.6701319 C432.412152,10.8706331 432.735953,10.8720569 432.928784,10.6858423 C433.127424,10.4940177 433.139772,10.1845492 432.93787,9.9754735 L432.24972,9.26287312 Z M407.5,26 C407.776142,26 408,25.7761424 408,25.5 C408,25.2238576 407.776142,25 407.5,25 C407.223858,25 407,25.2238576 407,25.5 C407,25.7761424 407.223858,26 407.5,26 Z M409.5,24 C409.776142,24 410,23.7761424 410,23.5 C410,23.2238576 409.776142,23 409.5,23 C409.223858,23 409,23.2238576 409,23.5 C409,23.7761424 409.223858,24 409.5,24 Z" id="electric_guitar_L"></path>
            </g>
        </g>
    </g>
</svg>