<?xml version="1.0" encoding="UTF-8" standalone="no"?>
<svg width="44px" height="39px" viewBox="0 0 44 39" version="1.1" xmlns="http://www.w3.org/2000/svg" xmlns:xlink="http://www.w3.org/1999/xlink" xmlns:sketch="http://www.bohemiancoding.com/sketch/ns">
    <!-- Generator: Sketch 3.1.1 (8761) - http://www.bohemiancoding.com/sketch -->
    <title>equalizer_L</title>
    <desc>Created with Sketch.</desc>
    <defs></defs>
    <g id="page-1" stroke="none" stroke-width="1" fill="none" fill-rule="evenodd" sketch:type="MSPage">
        <g id="line-icons" sketch:type="MSLayerGroup" transform="translate(-504.000000, -408.000000)" fill="#FFFFFF">
            <g id="row-5-full-icons" transform="translate(9.000000, 402.000000)" sketch:type="MSShapeGroup">
                <path d="M495,43 L495,45 L503,45 L503,43 L495,43 Z M495,40 L495,42 L503,42 L503,40 L495,40 Z M495,37 L495,39 L503,39 L503,37 L495,37 Z M495,34 L495,36 L503,36 L503,34 L495,34 Z M495,27 L495,29 L503,29 L503,27 L495,27 Z M507,43 L507,45 L515,45 L515,43 L507,43 Z M507,40 L507,42 L515,42 L515,40 L507,40 Z M507,37 L507,39 L515,39 L515,37 L507,37 Z M507,34 L507,36 L515,36 L515,34 L507,34 Z M507,31 L507,33 L515,33 L515,31 L507,31 Z M507,28 L507,30 L515,30 L515,28 L507,28 Z M507,25 L507,27 L515,27 L515,25 L507,25 Z M507,22 L507,24 L515,24 L515,22 L507,22 Z M507,19 L507,21 L515,21 L515,19 L507,19 Z M507,16 L507,18 L515,18 L515,16 L507,16 Z M507,13 L507,15 L515,15 L515,13 L507,13 Z M507,6 L507,8 L515,8 L515,6 L507,6 Z M519,43 L519,45 L527,45 L527,43 L519,43 Z M519,18 L519,20 L527,20 L527,18 L519,18 Z M519,25 L519,27 L527,27 L527,25 L519,25 Z M519,28 L519,30 L527,30 L527,28 L519,28 Z M519,31 L519,33 L527,33 L527,31 L519,31 Z M519,34 L519,36 L527,36 L527,34 L519,34 Z M519,37 L519,39 L527,39 L527,37 L519,37 Z M519,40 L519,42 L527,42 L527,40 L519,40 Z M531,43 L531,45 L539,45 L539,43 L531,43 Z M531,40 L531,42 L539,42 L539,40 L531,40 Z M531,12 L531,14 L539,14 L539,12 L531,12 Z M531,19 L531,21 L539,21 L539,19 L531,19 Z M531,22 L531,24 L539,24 L539,22 L531,22 Z M531,25 L531,27 L539,27 L539,25 L531,25 Z M531,28 L531,30 L539,30 L539,28 L531,28 Z M531,31 L531,33 L539,33 L539,31 L531,31 Z M531,34 L531,36 L539,36 L539,34 L531,34 Z M531,37 L531,39 L539,39 L539,37 L531,37 Z" id="equalizer_L"></path>
            </g>
        </g>
    </g>
</svg>