<?xml version="1.0" encoding="UTF-8" standalone="no"?>
<svg width="45px" height="41px" viewBox="0 0 45 41" version="1.1" xmlns="http://www.w3.org/2000/svg" xmlns:xlink="http://www.w3.org/1999/xlink" xmlns:sketch="http://www.bohemiancoding.com/sketch/ns">
    <!-- Generator: Sketch 3.1.1 (8761) - http://www.bohemiancoding.com/sketch -->
    <title>handcuff_L</title>
    <desc>Created with Sketch.</desc>
    <defs></defs>
    <g id="page-1" stroke="none" stroke-width="1" fill="none" fill-rule="evenodd" sketch:type="MSPage">
        <g id="line-icons" sketch:type="MSLayerGroup" transform="translate(-304.000000, -508.000000)" fill="#FFFFFF">
            <g id="row-6-line-icons" transform="translate(3.000000, 500.000000)" sketch:type="MSShapeGroup">
                <path d="M325.990568,10.1967288 C327.20857,9.18677078 328.312502,8.30741679 328.621677,8.13283275 C329.923877,7.39751203 331.82776,10.1554807 333.196979,9.8993339 C336.840204,9.2177768 340.468082,10.2314272 342.736431,12.9347401 C346.028921,16.8585772 348.054774,20.6888451 342.012511,26.6665369 C341.873016,26.8045411 342.049686,28.0759999 340.715766,29.1952919 C339.426951,30.276736 338.204726,29.8877859 338.049254,29.9984331 C331.080238,34.9581848 327.651599,32.2947093 324.351364,28.3616428 C322.071899,25.6450827 321.711175,21.8727834 323.037869,18.3890385 C323.537488,17.0770978 321.112395,14.7816975 322.078277,13.6233975 C322.254304,13.4123036 322.964419,12.7727679 323.858644,12 L317.999615,12 C317.238967,12 316.583445,11.5811601 316.245048,10.9630299 C316.186994,11.1820692 316.054011,11.3821255 315.853955,11.5222065 L309.293198,16.1160976 C308.851075,16.4256759 308.221017,16.3202874 307.90424,15.8678822 C307.585254,15.4123229 307.695722,14.7931131 308.146045,14.4777935 L314.706802,9.88390236 C315.107968,9.60300254 315.663862,9.66374797 316.000057,10.0153773 C316.000019,10.0102561 316,10.0051303 316,10 C316,8.88772964 316.895258,8 317.999615,8 L324.000385,8 C325.112567,8 326,8.8954305 326,10 C326,10.0664242 325.996807,10.1320475 325.990568,10.1967288 L325.990568,10.1967288 Z M312.848882,24.9824738 C314.826058,24.9792202 316.84654,25.0152836 317.274078,25.094891 C318.744277,25.3686406 318.429947,28.7051596 319.643478,29.3890564 C322.872446,31.2087734 325,34.3172295 325,37.8461538 C325,42.9683594 324.089845,47.2047085 315.618817,47.899994 C315.42325,47.9160457 314.741309,49.0036011 313,49.0036011 C311.317572,49.0036011 310.631305,47.9200169 310.441084,47.9048422 C301.914441,47.2246354 301,42.9804076 301,37.8461538 C301,34.2999365 303.148456,31.1783181 306.404071,29.3623976 C307.6301,28.6785414 307.247827,25.3613434 308.732276,25.094891 C308.890622,25.0664685 309.283483,25.043219 309.819047,25.0253797 C309.701337,24.8922464 309.599446,24.7410867 309.517694,24.5734705 L306.88713,19.1800141 C306.399581,18.1803918 306.815364,16.9902412 307.808144,16.5060298 C308.807846,16.0184425 309.998188,16.4339401 310.482306,17.4265295 L313.11287,22.8199859 C313.472342,23.5570123 313.340747,24.3976134 312.848882,24.9824738 L312.848882,24.9824738 Z M313,46 C322.090909,45.9999985 323,42.4182782 323,38 C323,33.5817218 318.522848,30 313,30 C307.477152,30 303,33.5817218 303,38 C303,42.4182782 303.909091,46.0000011 313,46 Z M313,48 C313.552285,48 314,47.7761424 314,47.5 C314,47.2238576 313.552285,47 313,47 C312.447715,47 312,47.2238576 312,47.5 C312,47.7761424 312.447715,48 313,48 Z M311,28 C311.552285,28 312,27.5522848 312,27 C312,26.4477152 311.552285,26 311,26 C310.447715,26 310,26.4477152 310,27 C310,27.5522848 310.447715,28 311,28 Z M315,26 L315,28 L316,28 L316,26 L315,26 Z M338.785088,26.8944 C345.749128,21.0508751 344.143247,17.7227658 341.303232,14.3381683 C338.463218,10.9535709 332.731234,11.0876708 328.500487,14.6376889 C324.26974,18.187707 323.142329,23.8093231 325.982343,27.1939205 C328.822358,30.578518 331.821049,32.7379246 338.785088,26.8944 Z M340.070664,28.4264889 C340.493738,28.0714871 340.692815,27.6122164 340.515314,27.400679 C340.337813,27.1891417 339.850951,27.3054426 339.427876,27.6604444 C339.004801,28.0154462 338.805725,28.4747169 338.983225,28.6862543 C339.160726,28.8977916 339.647589,28.7814907 340.070664,28.4264889 Z M325.682823,14.3911752 C326.105897,14.0361734 326.161081,13.4054179 325.806079,12.9823432 C325.451078,12.5592685 324.820322,12.5040845 324.397247,12.8590863 C323.974173,13.2140882 323.918989,13.8448437 324.273991,14.2679184 C324.628992,14.6909931 325.259748,14.746177 325.682823,14.3911752 Z M327.461425,10.2879359 L328.747,11.8200248 L329.513045,11.1772372 L328.22747,9.6451483 L327.461425,10.2879359 Z M308.246515,17.4048238 C307.750125,17.6469295 307.546319,18.2503813 307.784791,18.7393197 L310.417621,24.1374226 C310.659008,24.6323386 311.253634,24.8389698 311.753485,24.5951762 C312.249875,24.3530705 312.453681,23.7496187 312.215209,23.2606803 L309.582379,17.8625774 C309.340992,17.3676614 308.746366,17.1610302 308.246515,17.4048238 Z M317.99703,9 C317.446386,9 317,9.44386482 317,10 C317,10.5522847 317.453036,11 317.99703,11 L324.00297,11 C324.553614,11 325,10.5561352 325,10 C325,9.44771525 324.546964,9 324.00297,9 L317.99703,9 Z" id="handcuff_L"></path>
            </g>
        </g>
    </g>
</svg>