<?xml version="1.0" encoding="UTF-8" standalone="no"?>
<svg width="49px" height="27px" viewBox="0 0 49 27" version="1.1" xmlns="http://www.w3.org/2000/svg" xmlns:xlink="http://www.w3.org/1999/xlink" xmlns:sketch="http://www.bohemiancoding.com/sketch/ns">
    <!-- Generator: Sketch 3.1.1 (8761) - http://www.bohemiancoding.com/sketch -->
    <title>hat_L</title>
    <desc>Created with Sketch.</desc>
    <defs></defs>
    <g id="page-1" stroke="none" stroke-width="1" fill="none" fill-rule="evenodd" sketch:type="MSPage">
        <g id="line-icons" sketch:type="MSLayerGroup" transform="translate(-302.000000, -110.000000)" fill="#FFFFFF">
            <g id="row-2-line-icons" transform="translate(0.000000, 92.500000)" sketch:type="MSShapeGroup">
                <path d="M318.220051,18 C313.796513,18 310.210526,21.5738336 310.210526,26.0078372 L310.210527,36.8823992 C310.210527,36.8823992 306.729234,35.2411235 304.471586,35.2828827 C302.563893,35.3181687 301.724155,36.8982417 302.612875,38.1819477 C304.553345,40.984848 312.613086,44.1488544 325.985328,44.1488533 C340.026988,44.1488514 348.47419,41.010252 350.025588,38.1819477 C350.931395,36.5306011 348.533597,35.1351067 345.913548,35.2828827 C344.046171,35.3882066 341.789474,36.8823992 341.789474,36.8823992 L341.789474,26.0078372 C341.789474,21.5852308 338.213045,18 333.779949,18 L318.220051,18 Z M318.204468,19.8025478 C314.885816,19.8025478 312.195518,22.4936559 312.195518,25.7981752 C312.195518,25.7981752 312.195518,33.3600505 312.195518,36.0740321 C312.195518,36.7065884 317.986033,37.7419933 326.120986,37.7198528 C334.255938,37.6977123 340.046453,36.7868849 340.046453,36.0740321 C340.046454,29.8860227 340.046454,25.8116881 340.046454,25.8116881 C340.046454,22.4929315 337.350683,19.8025478 334.037504,19.8025478 L318.204468,19.8025478 Z M326.120985,40.0230747 C315.877376,40.0230744 307.784401,37.4654449 306.223686,36.9777828 C304.662971,36.4901207 304.673614,36.8746744 304.542487,36.9777828 C302.449802,38.6233139 315.151768,42.3429935 326.120985,42.3429936 C337.090203,42.3429938 347.84938,39.2912809 348.142967,37.7575188 C348.344591,36.7041948 345.989906,36.4049511 344.923256,36.9777828 C343.856605,37.5506146 336.364593,40.023075 326.120985,40.0230747 Z" id="hat_L"></path>
            </g>
        </g>
    </g>
</svg>