<?xml version="1.0" encoding="UTF-8" standalone="no"?>
<svg width="25px" height="56px" viewBox="0 0 25 56" version="1.1" xmlns="http://www.w3.org/2000/svg" xmlns:xlink="http://www.w3.org/1999/xlink" xmlns:sketch="http://www.bohemiancoding.com/sketch/ns">
    <!-- Generator: Sketch 3.1.1 (8761) - http://www.bohemiancoding.com/sketch -->
    <title>highheel_L</title>
    <desc>Created with Sketch.</desc>
    <defs></defs>
    <g id="page-1" stroke="none" stroke-width="1" fill="none" fill-rule="evenodd" sketch:type="MSPage">
        <g id="line-icons" sketch:type="MSLayerGroup" transform="translate(-411.000000, 0.000000)" fill="#FFFFFF">
            <g id="row-1-line-icons" transform="translate(19.000000, -0.500000)" sketch:type="MSShapeGroup">
                <path d="M398.730526,16.7981416 C398.224054,19.5389273 400.886369,28.7613277 397,35.3705709 C392.387206,43.215188 390.381643,53.0000017 395.699826,53 C399.017434,53 407,53 407,53 L407,55.9827271 L409.034119,55.9827271 C409.034119,55.9827271 409.034119,53 409.034119,53 C409.034118,53 411.84017,53 412.947667,53 C417.20612,53 412.947666,36.1586488 412.947666,27.737973 C412.947666,24.6069283 414.617273,18.9703127 415.284331,16.843261 C417.410162,15.196534 416.414719,1.12867088 407,1.12866955 C397.666069,1.12866822 396.697905,14.956134 398.730526,16.7981416 L398.730526,16.7981416 Z M409.052543,25.4083861 C409.052543,27.2052612 409.052543,51.0000004 409.052543,51.0000004 C409.052543,51.0000004 411.118863,51.0000002 411.777944,51 C414.66775,51 410.989816,38.1246567 410.989816,27.103488 C410.989816,24.8616515 411.667559,21.789841 412.339248,19.6598273 C412.497375,19.1583862 409.052543,23.6115109 409.052543,25.4083861 Z M402.881256,26.1921832 C403.324784,19.0237858 399.9825,17.354511 399.9825,17.354511 C399.9825,17.354511 401.043021,22.5157115 400.760215,27.5355088 C400.701275,28.5816984 400.760215,32.3577954 397.861459,37.1508958 C395.524853,41.0144796 394.631894,46.0601457 394.631894,46.0601461 C394.631894,46.0601471 402.427997,33.5178543 402.881256,26.1921832 Z M407,25.0821002 C407,24.0169673 404.129048,20.9586291 404.164652,21.1036874 C404.565548,22.7370488 404.725954,24.85145 404.332373,27.6502523 C402.789156,38.624239 391.629433,51 396.055731,51 C398.900295,51 407,51.0000004 407,51.0000004 C407,51.0000004 407,27.9955496 407,25.0821002 Z M399.940344,14.9999999 C401.001015,14.9999999 404.407407,15 407,15 C409.592593,15 413.326744,15 414.204542,14.9999999 C415.082339,14.9999999 414.777777,3.09650323 407,3.09650216 C399.222223,3.09650109 398.879673,14.9999999 399.940344,14.9999999 Z" id="highheel_L"></path>
            </g>
        </g>
    </g>
</svg>