<?xml version="1.0" encoding="UTF-8" standalone="no"?>
<svg width="16px" height="54px" viewBox="0 0 16 54" version="1.1" xmlns="http://www.w3.org/2000/svg" xmlns:xlink="http://www.w3.org/1999/xlink" xmlns:sketch="http://www.bohemiancoding.com/sketch/ns">
    <!-- Generator: Sketch 3.1.1 (8761) - http://www.bohemiancoding.com/sketch -->
    <title>lelo_gigi_L</title>
    <desc>Created with Sketch.</desc>
    <defs></defs>
    <g id="page-1" stroke="none" stroke-width="1" fill="none" fill-rule="evenodd" sketch:type="MSPage">
        <g id="line-icons" sketch:type="MSLayerGroup" transform="translate(-520.000000, -500.000000)" fill="#FFFFFF">
            <g id="row-6-line-icons" transform="translate(3.000000, 500.000000)" sketch:type="MSShapeGroup">
                <path d="M517.754768,43.0994536 C516.419471,48.8412293 518.518394,53.2184258 521.359998,53.2184258 C527.829965,53.2184258 532.344746,41.4686171 532.344746,27.1092129 C532.344746,12.7498087 529.577681,2.34813392 524.656173,0.209947467 C522.579547,-0.692259118 516.815407,7.70019521 518.509422,10.5235526 C519.799,12.6728492 521.427567,12.1202043 522.282692,13.9194965 C523,15.4288044 523.856913,20.7333682 522.282692,30.0187823 C520.708471,39.3041965 519.166447,37.0292326 517.754768,43.0994536 Z M524.181867,30.771718 C524.144772,30.9669591 530.599785,30.7606864 530.599785,30.7606864 L530.55855,30.7606856 C530.55855,30.7606856 530.637468,28.0537591 530.599786,26.6099936 C530.244521,12.998439 528.285125,5.2687905 524.614527,2.26012015 C523.106912,1.02437678 519.283679,8.28391923 519.911804,9.46539294 C520.342361,10.2752496 520.693054,10.2778935 520.693054,10.2778935 C520.693054,10.2778935 522.088888,9.09036364 523.166718,7.03504884 C524.244548,4.97973382 524.852555,3.26436889 524.852555,3.26436889 C524.852555,3.26436889 524.865228,4.28870141 523.638173,6.7428087 C522.411119,9.19691596 520.952501,10.4341434 520.952501,10.4341434 C520.952501,10.4341434 522.896179,11.2153934 523.638173,12.7208975 C524.197538,13.8558466 525.768955,19.4786062 524.614527,28.0632344 C524.478093,29.0777921 524.333697,29.9725863 524.181867,30.771718 Z M523.099084,34.4968354 C522.388401,36.5264658 521.577761,37.8131691 520.699953,39.8529758 C520.623126,40.0315034 521.498516,41.2879399 521.128057,42.955004 C520.757598,44.6220683 519.081291,45.2941211 519.074316,45.3578301 C518.737835,48.4311714 519.528446,51.2236998 521.763518,51.2236998 C524.149589,51.2236998 528.794816,45.4000981 530.153052,34.4236224 C530.153051,34.4236224 523.113003,34.457085 523.099084,34.4968354 Z" id="lelo_gigi_L"></path>
            </g>
        </g>
    </g>
</svg>