<?xml version="1.0" encoding="UTF-8" standalone="no"?>
<svg width="40px" height="50px" viewBox="0 0 40 50" version="1.1" xmlns="http://www.w3.org/2000/svg" xmlns:xlink="http://www.w3.org/1999/xlink" xmlns:sketch="http://www.bohemiancoding.com/sketch/ns">
    <!-- Generator: Sketch 3.1.1 (8761) - http://www.bohemiancoding.com/sketch -->
    <title>light_ball_L</title>
    <desc>Created with Sketch.</desc>
    <defs></defs>
    <g id="page-1" stroke="none" stroke-width="1" fill="none" fill-rule="evenodd" sketch:type="MSPage">
        <g id="line-icons" sketch:type="MSLayerGroup" transform="translate(-9.000000, -402.000000)" fill="#FFFFFF">
            <g id="row-5-full-icons" transform="translate(9.000000, 402.000000)" sketch:type="MSShapeGroup">
                <path d="M32.9969853,12.9969853 C32.9695019,15.2484119 32.757479,17 32.5,17 C32.242521,17 32.0304981,15.2484119 32.0030147,12.9969853 C29.7515881,12.9695019 28,12.757479 28,12.5 C28,12.242521 29.7515881,12.0304981 32.0030147,12.0030147 C32.0304981,9.75158808 32.242521,8 32.5,8 C32.757479,8 32.9695019,9.75158808 32.9969853,12.0030147 C35.2484119,12.0304981 37,12.242521 37,12.5 C37,12.757479 35.2484119,12.9695019 32.9969853,12.9969853 Z M37.9903846,20.9903846 C37.9448035,22.136292 37.7425748,23 37.5,23 C37.2574252,23 37.0551965,22.136292 37.0096154,20.9903846 C35.863708,20.9448035 35,20.7425748 35,20.5 C35,20.2574252 35.863708,20.0551965 37.0096154,20.0096154 C37.0551965,18.863708 37.2574252,18 37.5,18 C37.7425748,18 37.9448035,18.863708 37.9903846,20.0096154 C39.136292,20.0551965 40,20.2574252 40,20.5 C40,20.7425748 39.136292,20.9448035 37.9903846,20.9903846 L37.9903846,20.9903846 Z M18.6822163,16.0821816 C27.2813877,16.9268687 34,24.1788259 34,33 C34,42.3888412 26.3888412,50 17,50 C7.61115879,50 0,42.3888412 0,33 C0,24.1788259 6.71861232,16.9268687 15.3177837,16.0821816 C15.1166898,15.7702326 15,15.3987435 15,15 C15,14.2597176 15.4021986,13.6133738 16,13.2675644 L16,0 L18,0 L18,13.2675644 C18.5978014,13.6133738 19,14.2597176 19,15 C19,15.3987435 18.8833102,15.7702326 18.6822163,16.0821816 L18.6822163,16.0821816 Z M6.51585919,22.274898 C4.4250196,24.2952607 3.39134556,26.6680111 3.39134556,26.6680111 C3.39134556,26.6680111 4.47200441,25.4229042 5.59964854,24.577171 C6.72729261,23.7314378 7.4085775,23.4025418 7.4085775,23.4025418 C7.4085775,23.4025418 7.90192181,22.4628386 8.67717701,21.47615 C9.4524322,20.4894613 10.6505542,19.3853102 10.6505542,19.3853102 C10.6505542,19.3853102 8.60669905,20.2545356 6.51585919,22.274898 Z M6.27489799,43.4841408 C8.29526065,45.5749804 10.6680111,46.6086544 10.6680111,46.6086544 C10.6680111,46.6086544 9.42290419,45.5279956 8.57717103,44.4003515 C7.7314378,43.2727074 7.40254182,42.5914225 7.40254182,42.5914225 C7.40254182,42.5914225 6.46283859,42.0980782 5.47614998,41.322823 C4.48946135,40.5475678 3.38531017,39.3494458 3.38531017,39.3494458 C3.38531017,39.3494458 4.25453562,41.393301 6.27489799,43.4841408 Z M27.4841408,43.725102 C29.5749804,41.7047393 30.6086544,39.3319889 30.6086544,39.3319889 C30.6086544,39.3319889 29.5279956,40.5770958 28.4003515,41.422829 C27.2727074,42.2685622 26.5914225,42.5974582 26.5914225,42.5974582 C26.5914225,42.5974582 26.0980782,43.5371614 25.322823,44.52385 C24.5475678,45.5105387 23.3494458,46.6146898 23.3494458,46.6146898 C23.3494458,46.6146898 25.393301,45.7454644 27.4841408,43.725102 Z M27.725102,22.5158592 C25.7047393,20.4250196 23.3319889,19.3913456 23.3319889,19.3913456 C23.3319889,19.3913456 24.5770958,20.4720044 25.422829,21.5996485 C26.2685622,22.7272926 26.5974582,23.4085775 26.5974582,23.4085775 C26.5974582,23.4085775 27.5371614,23.9019218 28.52385,24.677177 C29.5105387,25.4524322 30.6146898,26.6505542 30.6146898,26.6505542 C30.6146898,26.6505542 29.7454644,24.606699 27.725102,22.5158592 Z M30.1540527,38.28125 C31.4353027,36.59375 31.7946777,34.859375 31.7946777,34.859375 C31.7946777,34.859375 31.4821777,35.21875 30.3571777,35.75 C29.2321777,36.28125 28.7321777,36.375 28.7321777,36.375 C28.7321777,36.375 28.5759277,37.484375 28.1384277,38.921875 C27.7009277,40.359375 27.4353027,40.890625 27.4353027,40.890625 C27.4353027,40.890625 28.8728028,39.96875 30.1540527,38.28125 Z M30.3105469,27.9375 C29.0449218,26.1562502 27.4355469,25.125 27.4355469,25.125 C27.4355469,25.125 27.8261719,25.953125 28.2011719,27.234375 C28.5761719,28.515625 28.7324219,29.609375 28.7324219,29.609375 C28.7324219,29.609375 29.1699219,29.7187499 30.2167969,30.1875 C31.2636719,30.65625 31.7792969,31.078125 31.7792969,31.078125 C31.7792969,31.078125 31.5761719,29.71875 30.3105469,27.9375 Z M11.9344482,19.6875 C10.2938232,20.859375 9.07507324,22.578125 9.07507324,22.578125 C9.07507324,22.578125 9.90319829,22.1718751 11.3719482,21.765625 C12.8406982,21.359375 13.5594482,21.296875 13.5594482,21.296875 C13.5594482,21.296875 13.7469482,20.734375 14.2313232,19.6875 C14.7156982,18.640625 15.0906982,18.21875 15.0906982,18.21875 C15.0906982,18.21875 13.5750732,18.515625 11.9344482,19.6875 Z M22.2650757,19.8389282 C20.5775757,18.5576782 18.9295654,18.2140503 18.9295654,18.2140503 C18.9295654,18.2140503 19.4487915,18.9854736 19.8081665,19.7667236 C20.1675415,20.5479736 20.3862915,21.2823486 20.3862915,21.2823486 C20.3862915,21.2823486 21.4994507,21.4483032 22.5775757,21.7451782 C23.6557007,22.0420532 24.8744507,22.5420532 24.8744507,22.5420532 C24.8744507,22.5420532 23.9525757,21.1201782 22.2650757,19.8389282 Z M26.9832153,39.2766724 C27.4675903,37.8391724 27.6550903,36.7297974 27.6550903,36.7297974 C27.6550903,36.7297974 26.2957153,37.1047974 24.7644653,37.3704224 C23.2332153,37.6360474 21.7644653,37.7766724 21.7644653,37.7766724 L20.7332153,43.6672974 C20.7332153,43.6672974 22.1082153,43.4016724 23.3269653,43 C24.5457153,42.5983277 25.8582153,41.8860474 25.8582153,41.8860474 C25.8582153,41.8860474 26.4988404,40.7141724 26.9832153,39.2766724 Z M10.7233276,42.9832153 C12.1608276,43.4675903 13.2702026,43.6550903 13.2702026,43.6550903 C13.2702026,43.6550903 12.8952026,42.2957153 12.6295776,40.7644653 C12.3639526,39.2332153 12.2233276,37.7644653 12.2233276,37.7644653 L6.33270264,36.7332153 C6.33270264,36.7332153 6.59832764,38.1082153 7,39.3269653 C7.40167234,40.5457153 8.11395264,41.8582153 8.11395264,41.8582153 C8.11395264,41.8582153 9.28582763,42.4988404 10.7233276,42.9832153 Z M7.01678467,26.7233276 C6.53240967,28.1608276 6.34490967,29.2702026 6.34490967,29.2702026 C6.34490967,29.2702026 7.70428466,28.8952026 9.23553467,28.6295776 C10.7667847,28.3639526 12.2355347,28.2233276 12.2355347,28.2233276 L13.2667847,22.3327026 C13.2667847,22.3327026 11.8917847,22.5983276 10.6730347,23 C9.45428466,23.4016723 8.14178467,24.1139526 8.14178467,24.1139526 C8.14178467,24.1139526 7.50115965,25.2858276 7.01678467,26.7233276 Z M23.2766724,23.0167847 C21.8391724,22.5324097 20.7297974,22.3449097 20.7297974,22.3449097 C20.7297974,22.3449097 21.1047974,23.7042847 21.3704224,25.2355347 C21.6360474,26.7667847 21.7766724,28.2355347 21.7766724,28.2355347 L27.6672974,29.2667847 C27.6672974,29.2667847 27.4016724,27.8917847 27,26.6730347 C26.5983277,25.4542847 25.8860474,24.1417847 25.8860474,24.1417847 C25.8860474,24.1417847 24.7141724,23.5011596 23.2766724,23.0167847 Z M14.7004395,21.125 C14.7004395,21.125 15.8750273,21.002132 17.0191885,21.002132 C18.1633498,21.002132 19.3098146,21.125 19.3098146,21.125 C19.3098146,21.125 18.1580585,18 17,17.9999999 C15.8419415,17.9999998 14.7004395,21.125 14.7004395,21.125 Z M16.9992861,21.984375 C15.6793283,21.9843752 14.3593749,22.171875 14.3593749,22.171875 C14.3593749,22.171875 14.059082,23.0614014 13.71875,24.84375 C13.378418,26.6260986 13.234375,28.140625 13.234375,28.140625 C13.234375,28.140625 15.0766973,28.0000002 16.9992861,28 C18.9218749,28 20.75,28.140625 20.75,28.140625 C20.75,28.140625 20.668457,26.7489014 20.293457,24.84375 C19.9276336,22.9852189 19.6406249,22.171875 19.6406249,22.171875 C19.6406249,22.171875 18.319244,21.984375 16.9992861,21.984375 Z M19.2944946,44.8691406 C19.2944946,44.8691406 18.0818078,45.0342363 17.015564,45.015625 C15.9493201,44.9970137 14.7007446,44.9003906 14.7007446,44.9003906 C14.7007446,44.9003906 15.8438651,47.9798207 16.999939,48 C18.1560129,48.0201793 19.2944946,44.8691406 19.2944946,44.8691406 Z M5.11395264,35.302002 C5.11395264,35.302002 4.98895267,34.0598145 4.98895264,32.9934082 C4.98895258,31.927002 5.11395264,30.708252 5.11395264,30.708252 C5.11395264,30.708252 2.00390625,31.8371582 2.00390625,32.9934082 C2.00390628,34.1496582 5.11395264,35.302002 5.11395264,35.302002 Z M28.8860474,30.697998 C28.8860474,30.697998 29.0110473,31.9401855 29.0110474,33.0065918 C29.0110474,34.072998 28.8860474,35.291748 28.8860474,35.291748 C28.8860474,35.291748 31.9960938,34.1628418 31.9960938,33.0065918 C31.9960937,31.8503418 28.8860474,30.697998 28.8860474,30.697998 Z M22.0655518,46.3125 C23.7061768,45.140625 24.9249268,43.421875 24.9249268,43.421875 C24.9249268,43.421875 24.0968017,43.8281249 22.6280518,44.234375 C21.1593018,44.640625 20.4405518,44.703125 20.4405518,44.703125 C20.4405518,44.703125 20.2530518,45.265625 19.7686768,46.3125 C19.2843018,47.359375 18.9093018,47.78125 18.9093018,47.78125 C18.9093018,47.78125 20.4249268,47.484375 22.0655518,46.3125 Z M25.0819702,29.7015991 C23.5975952,29.4203491 21.8632202,29.2328491 21.8632202,29.2328491 C21.8632202,29.2328491 22.0038452,31.2094116 22.0038452,32.9984741 C22.0038452,34.7875366 21.8632202,36.7640991 21.8632202,36.7640991 C21.8632202,36.7640991 23.6288452,36.560974 25.0819702,36.3109741 C26.5350952,36.0609741 27.8319702,35.6390991 27.8319702,35.6390991 C27.8319702,35.6390991 28.0020752,34.7015991 28.0020752,32.9984741 C28.0020751,31.2953491 27.8319702,30.3422241 27.8319702,30.3422241 C27.8319702,30.3422241 26.5663452,29.9828491 25.0819702,29.7015991 Z M16.9960327,29.0044556 C14.8475952,29.0044552 13.1600952,29.151062 13.1600952,29.151062 C13.1600952,29.151062 13.0038451,30.322937 13.0038452,33.0699463 C13.0038454,35.8169556 13.1600952,36.838562 13.1600952,36.838562 C13.1600952,36.838562 14.4257202,37.0044552 16.9960327,37.0044556 C19.5663452,37.004456 20.8475952,36.838562 20.8475952,36.838562 C20.8475952,36.838562 21.0038452,35.5357056 21.0038452,33.0044556 C21.0038451,30.4732056 20.8475952,29.151062 20.8475952,29.151062 C20.8475952,29.151062 19.1444702,29.0044559 16.9960327,29.0044556 Z" id="light_ball_L"></path>
            </g>
        </g>
    </g>
</svg>