<?xml version="1.0" encoding="UTF-8" standalone="no"?>
<svg width="44px" height="23px" viewBox="0 0 44 23" version="1.1" xmlns="http://www.w3.org/2000/svg" xmlns:xlink="http://www.w3.org/1999/xlink" xmlns:sketch="http://www.bohemiancoding.com/sketch/ns">
    <!-- Generator: Sketch 3.1.1 (8761) - http://www.bohemiancoding.com/sketch -->
    <title>lips_L</title>
    <desc>Created with Sketch.</desc>
    <defs></defs>
    <g id="page-1" stroke="none" stroke-width="1" fill="none" fill-rule="evenodd" sketch:type="MSPage">
        <g id="line-icons" sketch:type="MSLayerGroup" transform="translate(-204.000000, -15.000000)" fill="#FFFFFF">
            <g id="row-1-line-icons" transform="translate(19.000000, -0.500000)" sketch:type="MSShapeGroup">
                <path d="M185.283931,28.9191061 C187.334685,28.8623399 201.689148,28.4703575 207.035855,28.4703577 C212.786597,28.4703578 226.556985,28.8562567 228.713723,28.9177188 C226.866732,28.3950398 216.411923,25.559471 207,25.5661915 C197.636019,25.5728777 187.129157,28.4013059 185.283931,28.9191061 L185.283931,28.9191061 Z M185.077971,28.9774752 C185.645616,29.7104074 192.398767,38.0128477 207.035854,38.0128473 C221.615026,38.0128473 228.342641,29.7759781 228.953957,28.9865297 C228.984442,28.9953976 229,29 229,29 C229,28.975671 228.999768,28.9512937 228.999307,28.9268691 C228.99977,28.9262415 229.000001,28.9259259 229.000001,28.9259259 C229.000001,28.9259259 228.999792,28.9259199 228.999377,28.9259078 C228.896049,23.5312177 217.583103,15.8303322 213.905248,16.2974668 C210.21052,16.7667443 207,20.1906429 207,20.1906429 C207,20.1906429 204.078455,17.2963913 199.998968,16.2974668 C195.919481,15.2985423 185.465954,24.2804925 185,29 C185,29 185.026459,28.9922461 185.077971,28.9774752 L185.077971,28.9774752 Z M207.029336,30.5555555 C202.313272,30.5555554 189.85246,30.5555555 189.85246,30.5555555 C189.85246,30.5555555 194.500521,35.7399139 207.029336,35.7399136 C219.55815,35.7399136 224.118039,30.5555555 224.118039,30.5555555 C224.118039,30.5555555 212.141603,30.5555557 207.029336,30.5555555 Z M208.059077,22.2867837 C207.222433,22.6901253 206.869941,22.8246223 205.992648,22.2867837 C204.213909,21.196299 201.638266,18.7354105 198.931204,18.7354105 C194.819708,18.7354105 188.850156,25.6810932 188.850156,25.6810932 C188.850156,25.6810932 191.978638,24.6554248 196.672327,23.8867917 C200.089654,23.327174 205.865033,23.0143725 206.687215,23.0185812 C210.816257,23.0397174 212.938329,23.2501042 216.526933,23.8867915 C220.966225,24.6744071 225.556321,25.681093 225.556321,25.681093 C225.556321,25.681093 218.494876,18.7354106 214.211705,18.7354105 C212.108431,18.7354104 208.895722,21.8834421 208.059077,22.2867837 Z" id="lips_L"></path>
            </g>
        </g>
    </g>
</svg>