<?xml version="1.0" encoding="UTF-8" standalone="no"?>
<svg width="16px" height="53px" viewBox="0 0 16 53" version="1.1" xmlns="http://www.w3.org/2000/svg" xmlns:xlink="http://www.w3.org/1999/xlink" xmlns:sketch="http://www.bohemiancoding.com/sketch/ns">
    <!-- Generator: Sketch 3.1.1 (8761) - http://www.bohemiancoding.com/sketch -->
    <title>lipstick_L</title>
    <desc>Created with Sketch.</desc>
    <defs></defs>
    <g id="page-1" stroke="none" stroke-width="1" fill="none" fill-rule="evenodd" sketch:type="MSPage">
        <g id="line-icons" sketch:type="MSLayerGroup" transform="translate(-18.000000, 0.000000)" fill="#FFFFFF">
            <g id="row-1-line-icons" transform="translate(19.000000, -0.500000)" sketch:type="MSShapeGroup">
                <path d="M1.0010113,29.9147961 C0.157359628,30.6463092 -0.341727039,31.7517673 -0.267437345,32.990053 L0.69365993,49.009947 C0.825865401,51.2135924 2.72807727,53 4.93327675,53 L9.09814383,53 C11.3074141,53 13.2040634,51.2157067 13.3347083,49.009947 L14.2835504,32.990053 C14.3569646,31.7505563 13.8585303,30.6430648 13.0124838,29.9112295 C13.5884809,29.7034707 14,29.1533926 14,28.5 C14,27.6715729 13.3247509,27 12.5017548,27 L1.49824524,27 C0.670787242,27 0,27.6657972 0,28.5 C0,29.153267 0.419891248,29.708997 1.0010113,29.9147961 L1.0010113,29.9147961 Z M3.50245932,31 C2.3999245,31 1.56359611,31.8851811 1.63535599,32.9907951 L2.67503092,49.0092049 C2.74639305,50.1086907 3.70335017,51 4.79527953,51 L9.21469824,51 C10.3143171,51 11.2643398,50.1148189 11.3375396,49.0092049 L12.3980767,32.9907951 C12.4708708,31.8913093 11.6277632,31 10.5335661,31 L3.50245932,31 Z M1.50034732,28 C1.22401312,28 1,28.2319336 1,28.5 C1,28.7761424 1.22900057,29 1.50034732,29 L12.4996527,29 C12.7759869,29 13,28.7680664 13,28.5 C13,28.2238576 12.7709994,28 12.4996527,28 L1.50034732,28 Z M3.0085302,14 C1.8992496,14 1,14.8935426 1,16.0027601 L1,27 L13,27 L13,16.0027601 C13,14.8966663 12.0980496,14 10.9914698,14 L3.0085302,14 Z M3.99703014,16 C3.4463856,16 3,16.444837 3,16.9955775 L3,27 L11,27 L11,16.9955775 C11,16.4457352 10.5469637,16 10.0029699,16 L3.99703014,16 Z M3,6.95833333 C3,8.67155147 3,14 3,14 L11,14 L11,1.92304874 C11,0.814954517 10.2617187,0.419696558 9.36177599,1.05003992 C9.36177599,1.05003992 2.99999995,5.24511519 3,6.95833333 Z M4,7.21102937 C3.99999997,8.3731266 4,14 4,14 L10,14 L10,1.9897823 C9.99999999,1.42435559 4,6.04893213 4,7.21102937 Z" id="lipstick_L"></path>
            </g>
        </g>
    </g>
</svg>