<?xml version="1.0" encoding="UTF-8" standalone="no"?>
<svg width="36px" height="49px" viewBox="0 0 36 49" version="1.1" xmlns="http://www.w3.org/2000/svg" xmlns:xlink="http://www.w3.org/1999/xlink" xmlns:sketch="http://www.bohemiancoding.com/sketch/ns">
    <!-- Generator: Sketch 3.1.1 (8761) - http://www.bohemiancoding.com/sketch -->
    <title>martini_L</title>
    <desc>Created with Sketch.</desc>
    <defs></defs>
    <g id="page-1" stroke="none" stroke-width="1" fill="none" fill-rule="evenodd" sketch:type="MSPage">
        <g id="line-icons" sketch:type="MSLayerGroup" transform="translate(-108.000000, -303.000000)" fill="#FFFFFF">
            <g id="row-4-line-icons" transform="translate(13.000000, 296.000000)" sketch:type="MSShapeGroup">
                <path d="M112.412879,19.7280856 C107.254606,19.6786596 102.241604,19.1451869 101.299573,18.1364203 L98.8375662,15.5 L120.627992,15.5 L118.221267,18.1729383 C117.585858,17.7478723 116.821876,17.5 116,17.5 C114.427128,17.5 113.06629,18.4078262 112.412879,19.7280856 L112.412879,19.7280856 Z M119.446979,19.4693831 C122.089469,19.2219554 124.113685,18.7991585 124.674467,18.1991082 C125.515292,17.2994055 127.196941,15.5 127.196941,15.5 L121.973624,15.5 L118.976886,18.8282148 C119.153854,19.02526 119.311541,19.2399724 119.446979,19.4693831 L119.446979,19.4693831 Z M112.141641,20.4411702 C106.133732,20.3622056 102.889977,19.5542287 102.889977,19.5542287 L109.998722,27.3659649 L109.998722,27.3659649 C110.020252,27.3029555 110.054456,27.2431007 110.101785,27.1905368 L112.923565,24.0566326 C112.346853,23.3634297 112,22.4722208 112,21.5 C112,21.1334512 112.049304,20.778418 112.141641,20.4411702 L112.141641,20.4411702 Z M118.616149,24.5259343 L113.013071,30.6784058 L110.589695,28.0153797 L110.589695,28.0153797 C110.684216,27.9910581 110.773499,27.9389999 110.84493,27.8596675 L113.653851,24.7400443 C114.312917,25.2181091 115.123539,25.5 116,25.5 C117.000278,25.5 117.9148,25.1328387 118.616149,24.5259343 L118.616149,24.5259343 Z M119.25815,23.8209846 L123.181338,19.5131197 C123.181338,19.5131197 121.994773,19.8230119 119.742834,20.085838 C119.909041,20.5255065 120,21.0021309 120,21.5 C120,22.3653386 119.725218,23.1664985 119.25815,23.8209846 L119.25815,23.8209846 Z M123.774433,13.5 L131,13.5 L113.9,32.5 L113.9,32.5 L114.022539,32.5 L114.022539,51.2600861 C114.022539,51.2600861 115.711434,52.1436398 117.635935,52.6486759 C120.590294,53.4239722 124.109358,53.9972493 123,54.5 C121.167995,55.3302479 105.104563,55.3302479 103,54.5 C101.798499,54.0260091 105.622941,53.40996 108.511378,52.6486759 C110.682362,52.0764857 112.012839,51.2600861 112.012839,51.2600861 L112.012839,32.5 L112.1,32.5 L95,13.5 L122.4288,13.5 L128.15507,7.14033255 C128.345444,6.9289004 128.662615,6.91119713 128.867828,7.09597244 C129.067041,7.27534388 129.086647,7.60018843 128.898215,7.80946315 L123.774433,13.5 L123.774433,13.5 Z M116,24.5 C117.656854,24.5 119,23.1568543 119,21.5 C119,19.8431457 117.656854,18.5 116,18.5 C114.343146,18.5 113,19.8431457 113,21.5 C113,23.1568543 114.343146,24.5 116,24.5 Z" id="martini_L"></path>
            </g>
        </g>
    </g>
</svg>