<?xml version="1.0" encoding="UTF-8" standalone="no"?>
<svg width="43px" height="49px" viewBox="0 0 43 49" version="1.1" xmlns="http://www.w3.org/2000/svg" xmlns:xlink="http://www.w3.org/1999/xlink" xmlns:sketch="http://www.bohemiancoding.com/sketch/ns">
    <!-- Generator: Sketch 3.1.1 (8761) - http://www.bohemiancoding.com/sketch -->
    <title>mask_L</title>
    <desc>Created with Sketch.</desc>
    <defs></defs>
    <g id="page-1" stroke="none" stroke-width="1" fill="none" fill-rule="evenodd" sketch:type="MSPage">
        <g id="line-icons" sketch:type="MSLayerGroup" transform="translate(-302.000000, -2.000000)" fill="#FFFFFF">
            <g id="row-1-line-icons" transform="translate(19.000000, -0.500000)" sketch:type="MSShapeGroup">
                <path d="M290.693755,14.8450493 C291.089067,14.9874648 291.534714,15.0729242 292.035007,15.0729241 C295.368341,15.0729241 298.961895,12.0000006 307,12 C315.020176,12 317.028145,15.0729245 322.042217,15.0729241 C323.361478,15.0729241 326,12 326,12 C326,12 326,23.6421862 322.571785,27.0867605 C319.143571,30.5313351 313.333333,32 307,32 C300.666667,32 293.902332,30.8502769 290.951166,27.0867605 C290.057449,25.9470354 289.434381,24.1140141 289,22.1121288 L289,49.9911502 C289,50.5586968 288.552285,51 288,51 C287.443865,51 287,50.5483226 287,49.9911502 L287,15.0088498 C287,14.8598985 287.030838,14.7196426 287.086311,14.5937777 L287.086311,14.5937777 C286.32073,13.8657875 285.205479,12.6648769 284.570965,11.3330337 C283.538379,9.16563768 283.778937,6.65149016 283.778937,6.65149016 C283.778937,6.65149016 286.055611,8.48004895 287.088198,10.647445 C287.645322,11.8168473 287.840285,13.0848872 287.901707,14.0047062 C287.934045,14.0015915 287.966834,14 288,14 C288.017947,14 288.035776,14.0004704 288.053478,14.0013994 L288.053478,14.0013994 C288,12.7811922 288,12 288,12 C288,12 288.061614,12.1829302 288.198349,12.4595254 C288.311941,11.3185404 288.561805,9.89593224 289.099113,8.56607838 C290.253623,5.70863252 292.73523,3.2794219 292.73523,3.2794219 C292.73523,3.2794219 292.877527,6.55532896 291.723017,9.41277485 C291.023531,11.1440232 289.848011,12.721662 289.030057,13.6963174 L289.030057,13.6963174 C289.122997,13.7998318 289.222958,13.9023678 289.330231,14.0020185 L289.330231,14.0020185 C290.033455,12.7239765 291.481145,10.3758575 293.589945,8.33808123 C296.669704,5.36204725 301.159518,3.04793187 301.159518,3.04793187 C301.159518,3.04793187 299.88609,5.75870609 297.548951,8.41676215 C298.484333,7.64242595 300.074249,6.48348406 301.887533,5.82351911 C304.783547,4.76948276 308.249322,4.9882168 308.249322,4.9882168 C308.249322,4.9882168 305.910064,7.28597387 303.014049,8.34001031 C300.47559,9.26391067 297.509367,9.23224217 296.815616,9.21033884 C296.672958,9.35702335 296.527031,9.5026757 296.377873,9.64681087 C294.194455,11.7566924 291.31849,13.5414733 289.829381,14.4016485 C289.953381,14.48627 290.084567,14.5656969 290.223201,14.6382159 C291.158061,13.8787987 293.254559,12.2741346 295.580421,11.1397359 C298.7262,9.60543689 302.291558,8.93140197 302.291558,8.93140197 C302.291558,8.93140197 299.555782,11.3063305 296.410002,12.8406295 C294.283668,13.8777119 291.970011,14.5307236 290.693755,14.8450493 Z M320.93265,16.7816923 C317.795288,16.781692 314.175947,13.6443295 307,13.6443295 C299.808011,13.6443301 295.353204,16.7816923 292.370748,16.7816923 C289.686537,16.7816925 289.803814,16.1399591 289.803814,16.1399591 C289.803814,16.1399591 290.231637,23.7694545 292.370748,26.4076915 C294.509858,29.0459285 301.333333,30.3293958 307,30.3293958 C312.666667,30.3293958 317.8653,29.1633512 320.93265,26.4076915 C324,23.652032 324.172198,15.7121367 324.172198,15.7121367 C324.172198,15.7121367 324.070011,16.7816925 320.93265,16.7816923 Z M315.539909,23.7356177 C318.792735,23.1033323 320.897772,19.8543749 320.897772,19.8543749 C320.897772,19.8543749 317.712918,17.5481543 314.460091,18.1804398 C311.207265,18.8127252 309.118245,22.1440828 309.118245,22.1440828 C309.118245,22.1440828 312.287082,24.3679031 315.539909,23.7356177 Z M315.290682,22.440012 C317.459233,22.0184884 318.937083,20.2357458 318.937083,20.2357458 C318.937083,20.2357458 316.877869,19.0276291 314.709318,19.4491527 C312.540767,19.8706763 311.084065,21.7622178 311.084065,21.7622178 C311.084065,21.7622178 313.122131,22.8615356 315.290682,22.440012 Z M298.460091,23.7356177 C301.712918,24.3679031 304.881755,22.1440828 304.881755,22.1440828 C304.881755,22.1440828 302.792735,18.8127252 299.539909,18.1804398 C296.287082,17.5481543 293.102228,19.8543749 293.102228,19.8543749 C293.102228,19.8543749 295.207265,23.1033323 298.460091,23.7356177 Z M298.709318,22.440012 C300.877869,22.8615356 302.915935,21.7622178 302.915935,21.7622178 C302.915935,21.7622178 301.459233,19.8706763 299.290682,19.4491527 C297.122131,19.0276291 295.062917,20.2357458 295.062917,20.2357458 C295.062917,20.2357458 296.540767,22.0184884 298.709318,22.440012 Z" id="mask_L"></path>
            </g>
        </g>
    </g>
</svg>