<?xml version="1.0" encoding="UTF-8" standalone="no"?>
<svg width="22px" height="50px" viewBox="0 0 22 50" version="1.1" xmlns="http://www.w3.org/2000/svg" xmlns:xlink="http://www.w3.org/1999/xlink" xmlns:sketch="http://www.bohemiancoding.com/sketch/ns">
    <!-- Generator: Sketch 3.1.1 (8761) - http://www.bohemiancoding.com/sketch -->
    <title>microphone_L</title>
    <desc>Created with Sketch.</desc>
    <defs></defs>
    <g id="page-1" stroke="none" stroke-width="1" fill="none" fill-rule="evenodd" sketch:type="MSPage">
        <g id="line-icons" sketch:type="MSLayerGroup" transform="translate(-215.000000, -402.000000)" fill="#FFFFFF">
            <g id="row-5-full-icons" transform="translate(9.000000, 402.000000)" sketch:type="MSShapeGroup">
                <path d="M213.99687,34 L220.00313,34 L220,34 L220,31.0093689 C220,30.4519098 220.443865,30 221,30 C221.552285,30 222,30.4433532 222,31.0093689 L222,33.6599895 C224.330133,32.8373351 226,30.6134201 226,27.9998243 L226,8.00017566 C226,5.38776735 224.325243,3.1652984 222,2.34152152 L222,2.34152152 L222,4.9906311 C222,5.55664682 221.552285,6 221,6 C220.443865,6 220,5.54809015 220,4.9906311 L220,2 L220.00313,2 L213.99687,2 L214,2 L214,4.9906311 C214,5.55664682 213.552285,6 213,6 C212.443865,6 212,5.54809015 212,4.9906311 L212,2.3400105 L212,2.3400105 C209.669867,3.1626649 208,5.38657993 208,8.00017566 L208,27.9998243 C208,30.6122326 209.674757,32.8347016 212,33.6584785 L212,31.0093689 C212,30.4519098 212.443865,30 213,30 C213.552285,30 214,30.4433532 214,31.0093689 L214,34 L213.99687,34 Z M214.004739,0 C209.583844,0 206,3.58343124 206,8.00074125 L206,27.9992587 C206,32.4179461 209.583644,36 214.004739,36 L219.995261,36 C224.416156,36 228,32.4165688 228,27.9992587 L228,8.00074125 C228,3.58205387 224.416356,0 219.995261,0 L214.004739,0 Z M220.002929,9 C219.449027,9 219,9.44386482 219,10 C219,10.5522847 219.437881,11 220.002929,11 L226,11 L226,9 L220.002929,9 Z M220.002929,13 C219.449027,13 219,13.4438648 219,14 C219,14.5522847 219.437881,15 220.002929,15 L226,15 L226,13 L220.002929,13 Z M220.002929,17 C219.449027,17 219,17.4438648 219,18 C219,18.5522847 219.437881,19 220.002929,19 L226,19 L226,17 L220.002929,17 Z M220.002929,21 C219.449027,21 219,21.4438648 219,22 C219,22.5522847 219.437881,23 220.002929,23 L226,23 L226,21 L220.002929,21 Z M220.002929,25 C219.449027,25 219,25.4438648 219,26 C219,26.5522847 219.437881,27 220.002929,27 L226,27 L226,25 L220.002929,25 Z M208,9 L208,11 L213.997071,11 C214.550973,11 215,10.5561352 215,10 C215,9.44771525 214.562119,9 213.997071,9 L208,9 Z M208,13 L208,15 L213.997071,15 C214.550973,15 215,14.5561352 215,14 C215,13.4477153 214.562119,13 213.997071,13 L208,13 Z M208,17 L208,19 L213.997071,19 C214.550973,19 215,18.5561352 215,18 C215,17.4477153 214.562119,17 213.997071,17 L208,17 Z M208,21 L208,23 L213.997071,23 C214.550973,23 215,22.5561352 215,22 C215,21.4477153 214.562119,21 213.997071,21 L208,21 Z M208,25 L208,27 L213.997071,27 C214.550973,27 215,26.5561352 215,26 C215,25.4477153 214.562119,25 213.997071,25 L208,25 Z M214,41 L214,50 L220,50 L220,41 L214,41 Z M214,36 L214,38 L220,38 L220,36 L214,36 Z M216,38 L216,41 L218,41 L218,38 L216,38 Z M216,2 L216,4.9906311 C216,5.54809015 216.443865,6 217,6 C217.552285,6 218,5.55664682 218,4.9906311 L218,2 L216,2 Z M216,34 L216,31.0093689 C216,30.4519098 216.443865,30 217,30 C217.552285,30 218,30.4433532 218,31.0093689 L218,34 L216,34 Z" id="microphone_L"></path>
            </g>
        </g>
    </g>
</svg>