<?xml version="1.0" encoding="UTF-8" standalone="no"?>
<svg width="52px" height="34px" viewBox="0 0 52 34" version="1.1" xmlns="http://www.w3.org/2000/svg" xmlns:xlink="http://www.w3.org/1999/xlink" xmlns:sketch="http://www.bohemiancoding.com/sketch/ns">
    <!-- Generator: Sketch 3.1.1 (8761) - http://www.bohemiancoding.com/sketch -->
    <title>mixtrack_L</title>
    <desc>Created with Sketch.</desc>
    <defs></defs>
    <g id="page-1" stroke="none" stroke-width="1" fill="none" fill-rule="evenodd" sketch:type="MSPage">
        <g id="line-icons" sketch:type="MSLayerGroup" transform="translate(-100.000000, -410.000000)" fill="#FFFFFF">
            <g id="row-5-full-icons" transform="translate(9.000000, 402.000000)" sketch:type="MSShapeGroup">
                <path d="M115,32 L115,27.5096495 C115,27.2276528 115.223858,27 115.5,27 C115.768066,27 116,27.2281779 116,27.5096495 L116,32 L116.504611,32 C116.784247,32 117,32.2238576 117,32.5 C117,32.7680664 116.778207,33 116.504611,33 L116,33 L116,36.4903505 C116,36.7723472 115.776142,37 115.5,37 C115.231934,37 115,36.7718221 115,36.4903505 L115,33 L114.495389,33 C114.215753,33 114,32.7761424 114,32.5 C114,32.2319336 114.221793,32 114.495389,32 L115,32 Z M118,29 L118,27.5096495 C118,27.2276528 118.223858,27 118.5,27 C118.768066,27 119,27.2281779 119,27.5096495 L119,29 L119.504611,29 C119.784247,29 120,29.2238576 120,29.5 C120,29.7680664 119.778207,30 119.504611,30 L119,30 L119,36.4903505 C119,36.7723472 118.776142,37 118.5,37 C118.231934,37 118,36.7718221 118,36.4903505 L118,30 L117.495389,30 C117.215753,30 117,29.7761424 117,29.5 C117,29.2319336 117.221793,29 117.495389,29 L118,29 L118,29 Z M91,8 L91,42 L143,42 L143,8 L91,8 Z M93,9.88888889 L93,40.1111111 L141,40.1111111 L141,9.88888889 L93,9.88888889 Z M134,13 L134,14 L136,14 L136,13 L134,13 Z M129,13 L129,14 L131,14 L131,13 L129,13 Z M124,13 L124,14 L126,14 L126,13 L124,13 Z M108,13 L108,14 L110,14 L110,13 L108,13 Z M103,13 L103,14 L105,14 L105,13 L103,13 Z M98,13 L98,14 L100,14 L100,13 L98,13 Z M108,17 L108,18 L110,18 L110,17 L108,17 Z M103,17 L103,18 L105,18 L105,17 L103,17 Z M98,17 L98,18 L100,18 L100,17 L98,17 Z M134,17 L134,18 L136,18 L136,17 L134,17 Z M129,17 L129,18 L131,18 L131,17 L129,17 Z M124,17 L124,18 L126,18 L126,17 L124,17 Z M115.5,20 C115.776142,20 116,19.7761424 116,19.5 C116,19.2238576 115.776142,19 115.5,19 C115.223858,19 115,19.2238576 115,19.5 C115,19.7761424 115.223858,20 115.5,20 Z M118.5,20 C118.776142,20 119,19.7761424 119,19.5 C119,19.2238576 118.776142,19 118.5,19 C118.223858,19 118,19.2238576 118,19.5 C118,19.7761424 118.223858,20 118.5,20 Z M115.5,22 C115.776142,22 116,21.7761424 116,21.5 C116,21.2238576 115.776142,21 115.5,21 C115.223858,21 115,21.2238576 115,21.5 C115,21.7761424 115.223858,22 115.5,22 Z M118.5,22 C118.776142,22 119,21.7761424 119,21.5 C119,21.2238576 118.776142,21 118.5,21 C118.223858,21 118,21.2238576 118,21.5 C118,21.7761424 118.223858,22 118.5,22 Z M115.5,24 C115.776142,24 116,23.7761424 116,23.5 C116,23.2238576 115.776142,23 115.5,23 C115.223858,23 115,23.2238576 115,23.5 C115,23.7761424 115.223858,24 115.5,24 Z M118.5,24 C118.776142,24 119,23.7761424 119,23.5 C119,23.2238576 118.776142,23 118.5,23 C118.223858,23 118,23.2238576 118,23.5 C118,23.7761424 118.223858,24 118.5,24 Z M104,37 C108.418278,37 112,33.4182782 112,29 C112,24.5817218 108.418278,21 104,21 C99.5817218,21 96,24.5817218 96,29 C96,33.4182782 99.5817218,37 104,37 Z M104,36 C107.865993,36 111,32.8659934 111,29 C111,25.1340066 107.865993,22 104,22 C100.134007,22 97,25.1340066 97,29 C97,32.8659934 100.134007,36 104,36 Z M130,37 C134.418278,37 138,33.4182782 138,29 C138,24.5817218 134.418278,21 130,21 C125.581722,21 122,24.5817218 122,29 C122,33.4182782 125.581722,37 130,37 Z M130,36 C133.865993,36 137,32.8659934 137,29 C137,25.1340066 133.865993,22 130,22 C126.134007,22 123,25.1340066 123,29 C123,32.8659934 126.134007,36 130,36 Z M130,32 C131.656854,32 133,30.6568543 133,29 C133,27.3431457 131.656854,26 130,26 C128.343146,26 127,27.3431457 127,29 C127,30.6568543 128.343146,32 130,32 Z M104,32 C105.656854,32 107,30.6568543 107,29 C107,27.3431457 105.656854,26 104,26 C102.343146,26 101,27.3431457 101,29 C101,30.6568543 102.343146,32 104,32 Z" id="mixtrack_L"></path>
            </g>
        </g>
    </g>
</svg>