<?xml version="1.0" encoding="UTF-8" standalone="no"?>
<svg width="34px" height="47px" viewBox="0 0 34 47" version="1.1" xmlns="http://www.w3.org/2000/svg" xmlns:xlink="http://www.w3.org/1999/xlink" xmlns:sketch="http://www.bohemiancoding.com/sketch/ns">
    <!-- Generator: Sketch 3.1.1 (8761) - http://www.bohemiancoding.com/sketch -->
    <title>music_L</title>
    <desc>Created with Sketch.</desc>
    <defs></defs>
    <g id="page-1" stroke="none" stroke-width="1" fill="none" fill-rule="evenodd" sketch:type="MSPage">
        <g id="line-icons" sketch:type="MSLayerGroup" transform="translate(-105.000000, -203.000000)" fill="#FFFFFF">
            <g id="row-3-line-icons" transform="translate(3.000000, 200.500000)" sketch:type="MSShapeGroup">
                <path d="M135.987377,34 L136,34 L136,8.52706656 L136,3.05413312 L110,13 L110,18 L110,41.332278 L110,41.332278 C109.164339,41.2505408 108.125606,41.4287819 107,41.8981885 C104.238576,43.0497732 102,45.5176766 102,47.4104054 C102,49.3031341 104.238576,49.90395 107,48.7523652 C109.761424,47.6007805 112,45.1328771 112,43.2401484 C112,43.1576306 111.995745,43.0775685 111.987377,43 L112,43 L112,22.2349333 L112,22.2349333 L134,13.8191998 L134,13.8191998 L134,32.332278 C133.164339,32.2505408 132.125606,32.4287819 131,32.8981885 C128.238576,34.0497732 126,36.5176766 126,38.4104054 C126,40.3031341 128.238576,40.90395 131,39.7523652 C133.761424,38.6007805 136,36.1328771 136,34.2401484 C136,34.1576306 135.995745,34.0775685 135.987377,34 L135.987377,34 Z M134,9.60872478 L112.055412,18.1162323 L112.055412,20.5944319 L134,12.180195 L134,9.60872478 L134,9.60872478 Z M134,34.9605937 C134,34.0170959 133.102477,33.8895012 131.721765,34.4635495 C130.341053,35.0375977 127.814107,37.0825118 128.063532,37.9970705 C128.312957,38.9116291 129.570512,38.6051147 130.433069,38.2464957 C131.813781,37.6724475 134,35.9040915 134,34.9605937 Z M110,43.9605937 C110,43.0170959 109.102477,42.8895012 107.721765,43.4635495 C106.341053,44.0375977 103.814107,46.0825118 104.063532,46.9970705 C104.312957,47.9116291 105.570512,47.6051147 106.433069,47.2464957 C107.813781,46.6724475 110,44.9040915 110,43.9605937 Z" id="music_L"></path>
            </g>
        </g>
    </g>
</svg>