<?xml version="1.0" encoding="UTF-8" standalone="no"?>
<svg width="55px" height="16px" viewBox="0 0 55 16" version="1.1" xmlns="http://www.w3.org/2000/svg" xmlns:xlink="http://www.w3.org/1999/xlink" xmlns:sketch="http://www.bohemiancoding.com/sketch/ns">
    <!-- Generator: Sketch 3.1.1 (8761) - http://www.bohemiancoding.com/sketch -->
    <title>mustache_L</title>
    <desc>Created with Sketch.</desc>
    <defs></defs>
    <g id="page-1" stroke="none" stroke-width="1" fill="none" fill-rule="evenodd" sketch:type="MSPage">
        <g id="line-icons" sketch:type="MSLayerGroup" transform="translate(-199.000000, -117.000000)" fill="#FFFFFF">
            <g id="row-2-line-icons" transform="translate(0.000000, 92.500000)" sketch:type="MSShapeGroup">
                <path d="M238,40.3725061 C253.203127,40.3725052 253.203127,25 253.203127,25 C253.203127,25 248.217383,31 244.292955,31 C240.368527,31 237.111959,24.9999996 232.111959,25 C227.111959,25.0000004 226,27.6862913 226,31 C226,34.3137087 227,40.3725071 238,40.3725061 Z M237.706111,38.7414016 C248.996626,38.7414004 250.972466,29.4267277 250.972466,29.4267277 C250.972466,29.4267277 247.797009,32.7433156 243.774763,32.7433161 C239.752518,32.7433164 236.461245,26.7452303 232.201986,26.7452306 C227.942727,26.7452309 227.756346,28.9019491 227.756346,31.3320021 C227.756346,33.7620551 228.744266,38.7414026 237.706111,38.7414016 Z M214.089605,40 C199,39.9999991 199,25 199,25 C199,25 203.948515,30.8546082 207.843639,30.8546082 C211.738763,30.8546082 214.971014,24.9999996 219.933679,25 C224.896344,25.0000004 226,27.6211972 226,30.8546082 C226,34.0880191 225.007467,40.0000009 214.089605,40 Z M214.024702,38.0907087 C203.888478,38.0907097 201.354422,29.5593872 201.354422,29.5593872 C201.354422,29.5593872 203.043792,32.574923 208.111905,32.574923 C213.180017,32.574923 215.88301,26.9408625 219.937499,26.9408628 C223.991988,26.9408631 223.991988,28.9031732 223.991988,31.3332262 C223.991988,33.7632792 222.986547,38.0907081 214.024702,38.0907087 Z" id="mustache_L"></path>
            </g>
        </g>
    </g>
</svg>