<?xml version="1.0" encoding="UTF-8" standalone="no"?>
<svg width="39px" height="46px" viewBox="0 0 39 46" version="1.1" xmlns="http://www.w3.org/2000/svg" xmlns:xlink="http://www.w3.org/1999/xlink" xmlns:sketch="http://www.bohemiancoding.com/sketch/ns">
    <!-- Generator: Sketch 3.1.1 (8761) - http://www.bohemiancoding.com/sketch -->
    <title>party_hat_L</title>
    <desc>Created with Sketch.</desc>
    <defs></defs>
    <g id="page-1" stroke="none" stroke-width="1" fill="none" fill-rule="evenodd" sketch:type="MSPage">
        <g id="line-icons" sketch:type="MSLayerGroup" transform="translate(-305.000000, -204.000000)" fill="#FFFFFF">
            <g id="row-3-line-icons" transform="translate(3.000000, 200.500000)" sketch:type="MSShapeGroup">
                <path d="M335.950266,36.3123051 C336.650959,29.9739539 337.535435,22.190218 338.203272,16.3497196 L336.902113,17.6180346 L337.351141,20.2360682 L335,19 L332.648859,20.2360681 L333.097887,17.6180341 L331.195774,15.7639321 L333.82443,15.3819657 L335,13 L336.175571,15.3819663 L338.279004,15.6876144 L338.279004,15.6876144 C338.813119,11.0194925 339.190922,7.74823272 339.190922,7.74823272 C339.190922,7.74823272 332.156538,14.4996853 326.818029,19.6234734 L326.818029,19.6234734 L328.825609,20.5060898 L331.649599,18.7597609 L331.31796,22.0634842 L333.851479,24.2096099 L330.606969,24.9151112 L329.348783,27.9878202 L327.675202,25.1201203 L324.364081,24.8730331 L326.574261,22.3951947 L326.071925,20.339568 C323.161925,23.1325244 320.923217,25.2811888 320.923218,25.2811889 C320.923218,25.2811892 322.753194,30.4059356 324.247866,34.5916841 L326.802591,32.576421 L326.5,27.9378221 L330.365851,30.5191735 L334.683917,28.7979887 L333.423517,33.2723101 L335.950266,36.3123051 L335.950266,36.3123051 Z M335.888987,36.8671876 C335.718539,38.4122416 335.560038,39.8628951 335.419535,41.1679667 C335.419533,41.1679678 333.944043,41.6521125 331.408045,41.3985125 C328.872047,41.1449125 326.151611,39.9230192 326.151612,39.9230195 C326.151612,39.9230196 325.520308,38.1550878 324.696437,35.8478809 L327.658043,36.601007 L329.268301,40.9616533 L331.75,37.031089 L335.888987,36.8671876 L335.888987,36.8671876 Z M320.401693,23.9585337 L315,9 L302,45 C302,45 305,49.0230736 315,49.0230713 C325,49.0230675 328,45 328,45 L326.492956,40.8266484 C326.693521,41.3613293 326.809382,41.6692613 326.809382,41.6692615 C333.392203,43.9365263 336.662272,42.2495764 336.662272,42.2495764 L340.759311,4.19416578 C340.759311,4.19416578 327.189916,17.3644069 320.405219,23.9495271 C320.403516,23.9511804 320.402343,23.9541902 320.401692,23.9585321 L320.401693,23.9585337 Z M315,19.4189472 C313.965197,19.8867393 312.478331,19.9830829 312.544875,19.7988078 C313.36325,17.5325386 315,13 315,13 L316.807965,18.006673 C316.807965,18.0066729 316.034803,18.9511552 315,19.4189472 Z M315,24.066885 C313.067708,24.5981592 310.917937,24.3041748 311.003625,24.0668851 C311.398596,22.9731192 311.68037,22.2270722 312.075341,21.1333063 C312.078718,21.1239564 313.755184,21.1926903 315,20.7658539 C316.244816,20.3390175 317.265605,19.2041817 317.265605,19.2041817 C317.630453,20.2145311 317.913893,21.0849854 318.342246,22.2708989 C318.342246,22.2708989 316.77476,23.5789232 315,24.066885 Z M315,30.5929259 C311.911227,31.072687 308.714089,30.4071391 308.793025,30.1885449 C309.3175,28.7361529 309.989194,26.9032627 310.513669,25.4508707 C310.595204,25.2250814 312.510165,25.9225908 315.182769,25.2653931 C317.855373,24.6081953 318.76428,23.6917114 318.868958,23.6917114 C319.392875,25.1425585 319.898997,26.6081877 320.445649,28.0863006 C320.505181,28.2472728 317.856824,30.149192 315,30.5929259 Z M315.513891,38.0348966 C310.995339,38.6887654 306.38804,36.8832116 306.462441,36.6771786 C306.999627,35.1895865 307.77284,33.013673 308.310026,31.5260808 C308.310027,31.5260809 311.17021,32.3983826 315,31.9679922 C318.82979,31.5376019 321.03125,29.7854614 321.03125,29.7854614 C321.447274,30.9375293 322.287524,33.507601 322.8621,35.0491829 C322.961805,35.3166902 320.032443,37.3810277 315.513891,38.0348966 Z M315,47.2581787 C306.310609,47.2995262 303.784176,44.0592045 303.814393,43.9755267 C304.447895,42.2212144 305.783406,38.5229476 305.85053,38.3374628 C305.889821,38.2288903 310.049106,40.0854794 315,39.6507705 C319.950894,39.2160617 323.574456,36.8624509 323.574456,36.8624509 C324.447935,39.2813117 325.327121,41.5981808 326.200598,44.0170416 C326.275202,44.2236349 323.689391,47.2168312 315,47.2581787 Z M335,18.5 L333.236644,19.4270511 L333.573415,17.4635255 L332.14683,16.0729491 L334.118322,15.7864743 L335,14 L335.881678,15.7864747 L337.85317,16.0729505 L336.426585,17.4635259 L336.763356,19.4270511 L335,18.5 Z M330.285575,24.5320889 L329.279026,26.9902562 L327.940162,24.6960962 L325.291265,24.4984265 L327.059409,22.5161558 L326.42885,19.9358222 L328.860488,21.0048719 L331.119679,19.6078087 L330.854368,22.2507874 L332.881183,23.9676879 L330.285575,24.5320889 Z M331.5,36.5980763 L329.37283,39.9671314 L327.992608,36.2294346 L324.131114,35.2474703 L327.259364,32.7797894 L327,28.8038475 L330.313586,31.0164344 L334.014786,29.5411331 L332.934443,33.3762658 L335.481273,36.4404203 L331.5,36.5980763 Z" id="party_hat_L"></path>
            </g>
        </g>
    </g>
</svg>