<?xml version="1.0" encoding="UTF-8" standalone="no"?>
<svg width="33px" height="54px" viewBox="0 0 33 54" version="1.1" xmlns="http://www.w3.org/2000/svg" xmlns:xlink="http://www.w3.org/1999/xlink" xmlns:sketch="http://www.bohemiancoding.com/sketch/ns">
    <!-- Generator: Sketch 3.1.1 (8761) - http://www.bohemiancoding.com/sketch -->
    <title>perfume_L</title>
    <desc>Created with Sketch.</desc>
    <defs></defs>
    <g id="page-1" stroke="none" stroke-width="1" fill="none" fill-rule="evenodd" sketch:type="MSPage">
        <g id="line-icons" sketch:type="MSLayerGroup" transform="translate(-114.000000, 1.000000)" fill="#FFFFFF">
            <g id="row-1-line-icons" transform="translate(19.000000, -0.500000)" sketch:type="MSShapeGroup">
                <path d="M114.003895,7.2357381 L107.888792,8.76040442 C107.621527,7.89619968 106.898195,7.23233304 106,7.05000905 L106,5.50966585 C106,5.22818517 105.768066,5 105.5,5 C105.223858,5 105,5.22247314 105,5.50966585 L105,7.05000905 C103.85888,7.2816442 103,8.29052098 103,9.5 C103,10.709479 103.85888,11.7183558 105,11.9499909 L105,13 L105,13 L104.500165,13 C103.671647,13 103,13.6657972 103,14.5 C103,14.6753177 103.0302,14.8436105 103.085646,15 L102.878879,15 C101.77806,15 100.615499,15.8596537 100.283847,16.9149341 L99.6018221,19.0850659 C99.5139894,19.3645404 99.4929486,19.6300317 99.5300016,19.8694139 L99.5300016,19.8694139 C96.5597128,21.4842571 94.8122511,24.7628998 95.2979476,28.5842072 C95.2979476,28.5842072 97.7504481,47.8210783 98.3739511,53 L112.822381,53 L115.777617,28.9484914 C116.251611,25.0908381 114.452866,21.7117546 111.421513,20.0111442 C111.485491,19.7413254 111.468871,19.431516 111.35714,19.1015625 L110.611106,16.8984375 C110.256064,15.8499594 109.064168,15 107.975036,15 L107.915439,15 L107.915439,15 C107.97021,14.8439 108,14.6756847 108,14.5 C108,13.6715729 107.325678,13 106.499835,13 L106,13 L106,11.9499909 C107.056088,11.7356165 107.870431,10.8555194 107.985931,9.76679856 L107.985931,9.76679856 L114.109494,8.24002278 C114.694849,11.5145244 117.557167,14 121,14 C124.865993,14 128,10.8659934 128,7 C128,3.13400656 124.865993,0 121,0 C117.134007,0 114,3.13400656 114,7 C114,7.07889098 114.001305,7.15747715 114.003895,7.2357381 L114.003895,7.2357381 Z M112.442948,25.8292524 C111.407781,24.9418112 110.995579,25.1176067 110.995579,25.1176067 C110.445736,25.0526543 110,25.4512787 110,26.0032996 L110,51.0000003 C110,51.0000004 111.30465,51.0000003 111.30465,51.0000003 L113.403629,30.3946021 C113.459814,29.8430458 113.484038,28.9509303 113.430354,28.402724 C113.430354,28.402724 113.478116,26.7166936 112.442948,25.8292524 Z M98.6935906,25.8292521 C99.7287582,24.9418109 100.14096,25.1176064 100.14096,25.1176064 C100.690803,25.052654 101.136539,25.4512784 101.136539,26.0032993 L101.136539,50.9999999 C101.136539,51.0000001 99.8318891,50.9999999 99.8318891,50.9999999 L97.7329099,30.3946018 C97.6767254,29.8430455 97.6525006,28.95093 97.7061848,28.4027237 C97.7061848,28.4027237 97.6584229,26.7166933 98.6935906,25.8292521 Z M105.5,23 C104.119288,23 103,24.1149119 103,25.5094547 L103,51 L108,51 L108,25.5094547 C108,24.1235211 106.890338,23 105.5,23 Z M102.964076,17 C102.410967,17 101.823364,17.4171371 101.645781,17.9492188 L101.278132,19.0507812 C101.103166,19.5750203 101.411311,20 101.956994,20 L108.794922,20 C109.344813,20 109.655826,19.5701731 109.492984,19.0507812 L109.147617,17.9492188 C108.983255,17.4249797 108.39811,17 107.848522,17 L102.964076,17 Z M121,12 C123.761424,12 126,9.76142389 126,7 C126,4.23857611 123.761424,2 121,2 C118.238576,2 116,4.23857611 116,7 C116,9.76142389 118.238576,12 121,12 Z" id="perfume_L"></path>
            </g>
        </g>
    </g>
</svg>