<?xml version="1.0" encoding="UTF-8" standalone="no"?>
<svg width="40px" height="41px" viewBox="0 0 40 41" version="1.1" xmlns="http://www.w3.org/2000/svg" xmlns:xlink="http://www.w3.org/1999/xlink" xmlns:sketch="http://www.bohemiancoding.com/sketch/ns">
    <!-- Generator: Sketch 3.1.1 (8761) - http://www.bohemiancoding.com/sketch -->
    <title>shot_L</title>
    <desc>Created with Sketch.</desc>
    <defs></defs>
    <g id="page-1" stroke="none" stroke-width="1" fill="none" fill-rule="evenodd" sketch:type="MSPage">
        <g id="line-icons" sketch:type="MSLayerGroup" transform="translate(-510.000000, -310.000000)" fill="#FFFFFF">
            <g id="row-4-line-icons" transform="translate(13.000000, 296.000000)" sketch:type="MSShapeGroup">
                <path d="M497,14 L500.6095,50 L517.417812,50 L521,14 L497,14 Z M509.025433,22.0348447 C503.791656,22.0342911 499.578777,20.9314311 499.578777,20.9314311 L502.416905,48.0000001 L515.634308,48.0000001 L518.472088,20.934755 C518.472088,20.934755 514.259209,22.0353991 509.025433,22.0348447 Z M499.171188,16 L499.570081,19.8467064 C499.570081,19.8467064 503.853547,20.9306494 509.025569,20.9329662 C514.197592,20.9352832 518.482504,19.8327571 518.482504,19.8327571 L518.879951,16 L499.171188,16 Z M536.196152,53.3923048 C536.389713,53.2805524 524.196152,32.6076952 524.196152,32.6076952 C518.456641,35.9214038 516.490139,43.2604882 519.803848,49 C523.117556,54.7395118 530.456641,56.7060135 536.196152,53.3923048 Z M521.73518,48.7075162 C523.235569,50.990842 525.223491,52.3210338 527.214439,52.9595102 C527.320373,52.9934823 528.493879,43.9015848 528.816383,43.8756476 C529.138888,43.8497105 527.853993,53.1426653 528.014412,53.1796874 C530.27514,53.7014268 532.455355,53.3697307 533.837185,52.5719311 C533.877585,52.5486061 523.795582,35.1793643 523.795582,35.1793643 C522.438357,35.9629585 521.032625,37.6816639 520.335478,39.9071401 C520.303686,40.0086286 528.890755,43.5763015 528.816383,43.8756476 C528.742012,44.1749937 520.070217,40.9481406 520.050729,41.0532614 C519.679679,43.0547712 519.897663,45.3640556 521.154026,47.7268894 C521.212436,47.8367413 528.704373,43.616661 528.816383,43.8756477 C528.96008,44.2078982 521.606899,48.5122949 521.73518,48.7075162 Z" id="shot_L"></path>
            </g>
        </g>
    </g>
</svg>