<?xml version="1.0" encoding="UTF-8" standalone="no"?>
<svg width="37px" height="53px" viewBox="0 0 37 53" version="1.1" xmlns="http://www.w3.org/2000/svg" xmlns:xlink="http://www.w3.org/1999/xlink" xmlns:sketch="http://www.bohemiancoding.com/sketch/ns">
    <!-- Generator: Sketch 3.1.1 (8761) - http://www.bohemiancoding.com/sketch -->
    <title>soft_drink_L</title>
    <desc>Created with Sketch.</desc>
    <defs></defs>
    <g id="page-1" stroke="none" stroke-width="1" fill="none" fill-rule="evenodd" sketch:type="MSPage">
        <g id="line-icons" sketch:type="MSLayerGroup" transform="translate(-307.000000, -300.000000)" fill="#FFFFFF">
            <g id="row-4-line-icons" transform="translate(13.000000, 296.000000)" sketch:type="MSShapeGroup">
                <path d="M306.317034,12.5 L315,12.5 C315,8.08172178 318.581722,4.5 323,4.5 C327.418278,4.5 331,8.08172178 331,12.5 C331,16.7233891 327.727287,20.1823947 323.579549,20.4793291 L323.579549,20.4793291 L324.672812,35.5315873 C325.113018,41.5924193 320.547735,46.5 314.476478,46.5 L311.523597,46.5 C305.457727,46.5 300.887274,41.5892744 301.327238,35.5315873 L303,12.5 L304.214832,12.5 L302.041083,6.5 L294,6.5 L294,4.5 L303.421978,4.5 L306.317034,12.5 Z M307.734112,22.213949 C305.343498,21.903379 304.371887,21.4650393 304.371887,21.4650393 L304.859375,14.5 L304.939414,14.5 L307.734112,22.213949 Z M308.242303,22.2754314 C308.532277,22.308012 308.840477,22.3385013 309.167535,22.366101 L308.242303,22.2754314 Z M309.907326,22.4211704 C310.815855,22.4800875 311.851113,22.5162545 313.023703,22.5162544 C319.345425,22.5162544 321.637512,21.4650393 321.637512,21.4650393 L321.14923,14.5 L307.040798,14.5 L309.907326,22.4211704 Z M323.434662,18.4844968 C326.545465,18.261796 329,15.6675418 329,12.5 C329,9.18629134 326.313709,6.5 323,6.5 C319.686291,6.5 317,9.18629134 317,12.5 L323,12.5 L323.434662,18.4844968 L323.434662,18.4844968 Z M313.004177,23.3742283 C307.278178,23.3742273 304.266907,22.4604378 304.266907,22.4604378 L303.250968,35.5356664 C302.866288,40.4865311 306.582149,44.5 311.549871,44.5 L314.448517,44.5 C319.416555,44.5 323.136701,40.4832318 322.758259,35.5356664 L321.758128,22.4604378 C321.758128,22.4604378 318.730177,23.3742292 313.004177,23.3742283 Z M312.012839,46.5079212 L312.012839,52.2600861 C312.012839,52.2600861 310.682362,53.0764857 308.511378,53.6486759 C305.622941,54.40996 301.798499,55.0260091 303,55.5 C305.104563,56.3302479 321.167995,56.3302479 323,55.5 C324.109358,54.9972493 320.590294,54.4239722 317.635935,53.6486759 C315.711434,53.1436398 314.022539,52.2600861 314.022539,52.2600861 L314.02254,46.5079212 L312.012839,46.5079212 Z" id="soft_drink_L"></path>
            </g>
        </g>
    </g>
</svg>