<?xml version="1.0" encoding="UTF-8" standalone="no"?>
<svg width="38px" height="43px" viewBox="0 0 38 43" version="1.1" xmlns="http://www.w3.org/2000/svg" xmlns:xlink="http://www.w3.org/1999/xlink" xmlns:sketch="http://www.bohemiancoding.com/sketch/ns">
    <!-- Generator: Sketch 3.1.1 (8761) - http://www.bohemiancoding.com/sketch -->
    <title>watch_L</title>
    <desc>Created with Sketch.</desc>
    <defs></defs>
    <g id="page-1" stroke="none" stroke-width="1" fill="none" fill-rule="evenodd" sketch:type="MSPage">
        <g id="line-icons" sketch:type="MSLayerGroup" transform="translate(-109.000000, -105.000000)" fill="#FFFFFF">
            <g id="row-2-line-icons" transform="translate(0.000000, 92.500000)" sketch:type="MSShapeGroup">
                <path d="M125,33 L125,26.0024733 C125,25.455761 125.447715,25 126,25 C126.556135,25 127,25.4488226 127,26.0024733 L127,33 L133.997527,33 C134.544239,33 135,33.4477153 135,34 C135,34.5561352 134.551177,35 133.997527,35 L127,35 L127,35.9975267 C127,36.544239 126.552285,37 126,37 C125.443865,37 125,36.5511774 125,35.9975267 L125,35 L124.002473,35 C123.455761,35 123,34.5522847 123,34 C123,33.4438648 123.448823,33 124.002473,33 L125,33 Z M115.044843,35 C115.520391,40.2771382 119.722862,44.4796087 125,44.955157 L125,44.955157 L125,44 L127,44 L127,44.955157 C132.277138,44.4796087 136.479609,40.2771382 136.955157,35 L136,35 L136,33 L136.955157,33 L136.955157,33 C136.479609,27.7228618 132.277138,23.5203913 127,23.044843 L127,23.044843 L127,24 L125,24 L125,23.044843 C119.722862,23.5203913 115.520391,27.7228618 115.044843,33 L116,33 L116,35 L115.044843,35 L115.044843,35 Z M115.002555,46.9641056 C115.178335,47.1133672 115.010365,47.5496962 115.010365,50.9999984 C115.010364,54.4503005 119.013106,55.2175172 119.013106,54.9640868 C119.013106,54.9640868 118.785143,49.3999591 119.035495,49.5125312 C121.160993,50.4682712 123.518401,51 126,51 C128.502537,51 130.878777,50.4592609 133.018254,49.4882497 C133.132512,49.4363934 133.021315,54.9640868 133.021315,54.9640868 C133.021315,54.8430639 137.024536,54.4503005 137.024536,50.9999984 C137.024536,47.5496962 136.6222,47.2833913 137.010337,46.9531479 C140.436254,44.0382282 142.691163,39.7882712 142.970627,35.0077152 C142.973794,34.9535394 144.018269,35.0077148 144.018269,35.0077148 L144.018269,36.0696254 L147.002766,36.0696254 L147.002766,31.9806361 L144.018269,31.9806361 L144.018269,33.0089317 C144.018269,33.0089317 142.975718,33.0807065 142.971592,33.0089315 C142.696775,28.2282054 140.446456,23.9769098 137.024537,21.0589479 C136.821063,20.8854403 137.024536,20.5304376 137.024536,17 C137.024536,14.7460834 133.021315,13.3896506 133.021315,13.3896506 C133.021315,13.3896506 133.206333,18.5971554 133.021315,18.5131395 C130.881043,17.5412548 128.50373,17 126,17 C123.509684,17 121.144434,17.5354708 119.013106,18.4975557 C118.898305,18.5493769 119.013106,13.3896506 119.013106,13.3896506 C119.013106,13.3896506 115.010365,14.4554192 115.010365,17 C115.010364,19.5445808 115.416256,20.6850279 115.010365,21.0292672 C111.333566,24.147589 109,28.8012774 109,34 C109,39.195041 111.330262,43.8458198 115.002555,46.9641056 Z M126,49 C134.284272,49 141,42.2842717 141,34 C141,25.7157283 134.284272,19 126,19 C117.715728,19 111,25.7157283 111,34 C111,42.2842717 117.715728,49 126,49 Z M126,47 C133.179702,47 139,41.1797021 139,34 C139,26.8202979 133.179702,21 126,21 C118.820298,21 113,26.8202979 113,34 C113,41.1797021 118.820298,47 126,47 Z" id="watch_L"></path>
            </g>
        </g>
    </g>
</svg>