<?xml version="1.0" encoding="UTF-8" standalone="no"?>
<svg width="26px" height="51px" viewBox="0 0 26 51" version="1.1" xmlns="http://www.w3.org/2000/svg" xmlns:xlink="http://www.w3.org/1999/xlink" xmlns:sketch="http://www.bohemiancoding.com/sketch/ns">
    <!-- Generator: Sketch 3.1.1 (8761) - http://www.bohemiancoding.com/sketch -->
    <title>wine_L</title>
    <desc>Created with Sketch.</desc>
    <defs></defs>
    <g id="page-1" stroke="none" stroke-width="1" fill="none" fill-rule="evenodd" sketch:type="MSPage">
        <g id="line-icons" sketch:type="MSLayerGroup" transform="translate(-13.000000, -301.000000)" fill="#FFFFFF">
            <g id="row-4-line-icons" transform="translate(13.000000, 296.000000)" sketch:type="MSShapeGroup">
                <path d="M14,32.639411 C17.2334566,31.3778391 24.0281156,24.7175936 25.5559283,20.4544039 C27.2492993,15.7292433 20.6946433,5.81832298 20.6946433,5.81832298 L5.3053567,5.81832298 C5.3053567,5.81832298 -0.878578094,15.539864 0.549805605,20.4544043 C1.81766876,24.8166531 8.65219074,31.2005372 12,32.5802759 L12.0000001,51.2600853 C12.0000001,51.2600853 3.00120072,53.6697518 5.10576397,54.5 C7.21032729,55.3302479 19.2097394,55.3302479 21.0417448,54.5 C22.8737502,53.6697521 13.9999996,51.2600853 13.9999996,51.2600853 L14,32.639411 L14,32.639411 Z M13.0723686,30.7976643 C14.70996,30.7976646 22.1913949,24.2640735 23.624247,20.2389366 C24.3305292,18.2548647 18.4788297,20.7230825 13,20.723083 C7.46801758,20.7230836 1.86552208,18.1617031 2.46522013,20.238937 C3.6738524,24.4253973 11.4347773,30.797664 13.0723686,30.7976643 Z M13,20.0235557 C16.2948446,20.023556 23.8673968,18.6097755 23.8584008,18.3913651 C23.6808576,14.0808272 19.6097202,7.77116402 19.6097202,7.77116402 L6.41036654,7.77116351 C6.41036654,7.77116351 2.65211691,13.8100805 2.30692927,18.1810823 C2.28726153,18.4301286 9.70515537,20.0235554 13,20.0235557 Z M20.8291511,16.1814656 C20.8291511,16.1814656 20.8291512,14.1203585 20.0410807,12.422976 C19.2530102,10.7255937 18,9.5 18,9.5 L19.4145756,12.8407328 L20.8291511,16.1814656 Z" id="wine_L"></path>
            </g>
        </g>
    </g>
</svg>