<?xml version="1.0" encoding="UTF-8" standalone="no"?>
<svg width="50px" height="51px" viewBox="0 0 50 51" version="1.1" xmlns="http://www.w3.org/2000/svg" xmlns:xlink="http://www.w3.org/1999/xlink" xmlns:sketch="http://www.bohemiancoding.com/sketch/ns">
    <!-- Generator: Sketch 3.1.1 (8761) - http://www.bohemiancoding.com/sketch -->
    <title>alarm_L</title>
    <desc>Created with Sketch.</desc>
    <defs></defs>
    <g id="Page-1" stroke="none" stroke-width="1" fill="none" fill-rule="evenodd" sketch:type="MSPage">
        <g id="line-icons" sketch:type="MSLayerGroup" transform="translate(-201.000000, -198.000000)" fill="#FFFFFF">
            <g id="row-3-L" transform="translate(0.000000, 198.000000)" sketch:type="MSShapeGroup">
                <path d="M226,48.994 C214.971,48.994 206,40.024 206,28.996 C206,17.967 214.971,8.996 226,8.996 C237.028,8.996 246,17.967 246,28.996 C246,40.024 237.028,48.994 226,48.994 L226,48.994 L226,48.994 L226,48.994 Z M226,6.996 C213.847,6.996 204,16.846 204,28.996 C204,34.51 206.034,39.547 209.386,43.408 L204.24,49.717 L205.789,50.981 L210.776,44.869 C214.728,48.66 220.09,50.994 226,50.994 C231.924,50.994 237.297,48.649 241.253,44.84 L246.237,50.988 L247.792,49.729 L242.641,43.375 C245.977,39.518 248,34.494 248,28.996 C248,16.846 238.148,6.996 226,6.996 Z M214.942,3.018 L203.012,15.014 L203,15.014 L203,10.996 C203,6.586 206.589,2.996 211,2.996 L214.942,2.996 L214.942,3.018 Z M216.942,0.996 L211,0.996 C205.477,0.996 201,5.473 201,10.996 L201,17.014 L203.844,17.014 L216.942,3.842 L216.942,0.996 L216.942,0.996 Z M248.945,15.014 L248.932,15.014 L237,3.018 L237,2.996 L240.945,2.996 C245.357,2.996 248.945,6.586 248.945,10.996 L248.945,15.014 L248.945,15.014 L248.945,15.014 L248.945,15.014 Z M240.945,0.996 L235,0.996 L235,3.842 L248.1,17.014 L250.945,17.014 L250.945,10.996 C250.945,5.473 246.467,0.996 240.945,0.996 L240.945,0.996 Z M225.025,28.996 L214,28.996 L214,30.996 L227.025,30.996 L227.025,12.996 L225.025,12.996 L225.025,28.996" id="alarm_L"></path>
            </g>
        </g>
    </g>
</svg>