<?xml version="1.0" encoding="UTF-8" standalone="no"?>
<svg width="60px" height="38px" viewBox="0 0 60 38" version="1.1" xmlns="http://www.w3.org/2000/svg" xmlns:xlink="http://www.w3.org/1999/xlink" xmlns:sketch="http://www.bohemiancoding.com/sketch/ns">
    <!-- Generator: Sketch 3.1.1 (8761) - http://www.bohemiancoding.com/sketch -->
    <title>backup_cloud_L</title>
    <desc>Created with Sketch.</desc>
    <defs></defs>
    <g id="Page-1" stroke="none" stroke-width="1" fill="none" fill-rule="evenodd" sketch:type="MSPage">
        <g id="line-icons" sketch:type="MSLayerGroup" transform="translate(-395.000000, -307.000000)" fill="#FFFFFF">
            <g id="row-4-L" transform="translate(0.000000, 301.000000)" sketch:type="MSShapeGroup">
                <path d="M444.036,41.9835 L443.599,41.9855 L406.991,41.9855 C401.482,41.9795 397,37.4945 397,31.9875 C397,27.7195 399.717,23.9205 403.759,22.5345 L404.884,22.1495 L405.082,20.9775 C405.572,18.0845 408.056,15.9855 410.989,15.9855 C411.924,15.9855 412.827,16.2025 413.674,16.6275 L415.497,17.5435 L416.377,15.7035 C418.612,11.0325 423.389,8.0145 428.547,8.0145 C435.991,8.0145 442.047,14.0695 442.047,21.5145 C442.047,21.5555 442.042,21.5985 442.039,21.6395 C442.033,21.7395 442.026,21.8385 442.024,21.9405 L441.973,23.9815 L444.017,23.9895 C448.965,24.0025 452.989,28.0395 452.989,32.9875 C452.989,37.9205 448.972,41.9575 444.036,41.9835 C444.036,41.9835 448.972,41.9575 444.036,41.9835 L444.036,41.9835 L444.036,41.9835 Z M444.023,21.9895 C444.027,21.8285 444.047,21.6745 444.047,21.5145 C444.047,12.9535 437.107,6.0145 428.547,6.0145 C422.379,6.0145 417.068,9.6255 414.573,14.8405 C413.494,14.2975 412.279,13.9855 410.989,13.9855 C407.03,13.9855 403.751,16.8665 403.11,20.6435 C398.395,22.2605 395,26.7215 395,31.9875 C395,38.6105 400.368,43.9795 406.989,43.9855 L444.047,43.9855 L444.047,43.9835 C450.095,43.9525 454.989,39.0415 454.989,32.9875 C454.989,26.9225 450.084,22.0065 444.023,21.9895 L444.023,21.9895 Z M426.5,20.5 C422.64,20.5 419.5,23.641 419.5,27.5 L423.193,27.5 L418.847,35.026 L414.5,27.5 L417.5,27.5 C417.5,22.529 421.529,18.5 426.5,18.5 C431.47,18.5 435.5,22.529 435.5,27.5 C435.5,32.47 431.47,36.5 426.5,36.5 L426.5,34.5 C430.361,34.5 433.5,31.359 433.5,27.5 C433.5,23.641 430.361,20.5 426.5,20.5 Z" id="backup_cloud_L"></path>
            </g>
        </g>
    </g>
</svg>