<?xml version="1.0" encoding="UTF-8" standalone="no"?>
<svg width="50px" height="50px" viewBox="0 0 50 50" version="1.1" xmlns="http://www.w3.org/2000/svg" xmlns:xlink="http://www.w3.org/1999/xlink" xmlns:sketch="http://www.bohemiancoding.com/sketch/ns">
    <!-- Generator: Sketch 3.1.1 (8761) - http://www.bohemiancoding.com/sketch -->
    <title>blue_tooth_L</title>
    <desc>Created with Sketch.</desc>
    <defs></defs>
    <g id="Page-1" stroke="none" stroke-width="1" fill="none" fill-rule="evenodd" sketch:type="MSPage">
        <g id="line-icons" sketch:type="MSLayerGroup" transform="translate(-200.000000, -399.000000)" fill="#FFFFFF">
            <g id="row-5-L" transform="translate(0.000000, 399.000000)" sketch:type="MSShapeGroup">
                <path d="M200,25 C200,38.8071194 211.192881,50 225,50 C238.807119,50 250,38.8071194 250,25 C250,11.1928806 238.807119,1.49661487e-15 225,-1.03971182e-15 C211.192881,-3.57603851e-15 200,11.1928806 200,25 Z M225,48 C237.70255,48 248,37.7025499 248,25 C248,12.2974501 237.70255,2 225,2 C212.29745,2 202,12.2974501 202,25 C202,37.7025499 212.29745,48 225,48 Z M225.492354,27.486635 L219.126025,35.0737304 L217.957882,34.0935421 L225.281959,25.3650468 L217.874575,16.8438253 L219.053808,15.8187331 L225.492354,23.2254328 L225.492354,9.375 L233.59375,17.2916666 L227.016087,25.2759981 L233.59375,32.9861123 L225.492354,40.625 L225.492354,27.486635 Z M231.660287,32.9738643 L227.058536,27.4000558 L226.883593,37.4225573 L231.660287,32.9738643 Z M231.623074,17.3179097 L226.924748,23.1133063 L226.924748,12.6672827 L231.623074,17.3179097 Z" id="blue_tooth_L"></path>
            </g>
        </g>
    </g>
</svg>