<?xml version="1.0" encoding="UTF-8" standalone="no"?>
<svg width="52px" height="47px" viewBox="0 0 52 47" version="1.1" xmlns="http://www.w3.org/2000/svg" xmlns:xlink="http://www.w3.org/1999/xlink" xmlns:sketch="http://www.bohemiancoding.com/sketch/ns">
    <!-- Generator: Sketch 3.1.1 (8761) - http://www.bohemiancoding.com/sketch -->
    <title>bookmarks_L</title>
    <desc>Created with Sketch.</desc>
    <defs></defs>
    <g id="Page-1" stroke="none" stroke-width="1" fill="none" fill-rule="evenodd" sketch:type="MSPage">
        <g id="line-icons" sketch:type="MSLayerGroup" transform="translate(-392.000000, -3.000000)" fill="#FFFFFF">
            <g id="row-1-L" sketch:type="MSShapeGroup">
                <path d="M423,3 C420.238,3 418,4.238 418,7 C418,4.238 415.762,3 413,3 L397,3 C394.238,3 392,5.238 392,8 L392,40 C392,42.762 394.238,45 397,45 L413,45 C413.342,45 414,45.101 414,45.101 C416.282,45.565 418,47.581 418,50 C418,47.581 419.718,45.564 422,45.101 C422,45.101 422.657,45 423,45 L439,45 C441.762,45 444,42.762 444,40 L444,8 C444,5.238 441.761,3 439,3 L423,3 Z M414.398,43.141 L414.302,43.123 C414.112,43.095 413.458,43 413,43 L397,43 C395.346,43 394,41.654 394,40 L394,8 C394,6.346 395.346,5 397,5 L414,5 C415.654,5 417,6.346 417,8 L417,44.277 C416.233,43.738 415.359,43.336 414.398,43.141 L414.398,43.141 Z M442,40 C442,41.654 440.654,43 439,43 L423,43 C422.541,43 421.887,43.095 421.697,43.123 L421.601,43.141 C420.64,43.336 419.766,43.739 418.999,44.278 L418.999,8 C418.999,6.346 420.345,5 421.999,5 L438.999,5 C440.653,5 441.999,6.346 441.999,8 L441.999,40 L442,40 Z" id="bookmarks_L"></path>
            </g>
        </g>
    </g>
</svg>