<?xml version="1.0" encoding="UTF-8" standalone="no"?>
<svg width="34px" height="50px" viewBox="0 0 34 50" version="1.1" xmlns="http://www.w3.org/2000/svg" xmlns:xlink="http://www.w3.org/1999/xlink" xmlns:sketch="http://www.bohemiancoding.com/sketch/ns">
    <!-- Generator: Sketch 3.1.1 (8761) - http://www.bohemiancoding.com/sketch -->
    <title>calculator_L</title>
    <desc>Created with Sketch.</desc>
    <defs></defs>
    <g id="Page-1" stroke="none" stroke-width="1" fill="none" fill-rule="evenodd" sketch:type="MSPage">
        <g id="line-icons" sketch:type="MSLayerGroup" transform="translate(-507.000000, -104.000000)" fill="#FFFFFF">
            <g id="row-2-L" transform="translate(0.000000, 99.000000)" sketch:type="MSShapeGroup">
                <path d="M511.000212,5 C508.790956,5 507,6.79426827 507,9.00718972 L507,50.9928103 C507,53.2059201 508.792032,55 511.000212,55 L536.999788,55 C539.209044,55 541,53.2057317 541,50.9928103 L541,9.00718972 C541,6.79407995 539.207968,5 536.999788,5 L511.000212,5 Z M511.897202,7 C510.235756,7 508.888889,8.34162278 508.888889,9.99715203 C508.888889,9.99715203 508.888889,19 508.888889,19 C508.888889,19 513.404716,19 513.404716,19 C513.404716,19 539.111111,19 539.111111,19 C539.11111,19 539.111111,9.99715203 539.111111,9.99715203 C539.111111,8.34187067 537.773504,7 536.102798,7 L511.897202,7 Z M508.888889,21 L508.888889,31 L518.333333,31 L518.333333,21 L508.888889,21 Z M508.888889,32 L508.888889,42 L518.333333,42 L518.333333,32 L508.888889,32 Z M519.277778,32 L519.277778,42 L528.722222,42 L528.722222,32 L519.277778,32 Z M519.277778,43 L519.277778,53 L528.722222,53 L528.722222,43 L519.277778,43 Z M519.277778,21 L519.277778,31 L528.722222,31 L528.722222,21 L519.277778,21 Z M529.666667,21 L529.666667,31 L539.111111,31 L539.111111,21 L529.666667,21 Z M508.888889,43 C508.888889,43 508.888889,49.9996703 508.888889,49.9996703 C508.888889,51.6567066 510.232018,53 511.890147,53 L518.333333,53 L518.333333,43 C518.333333,43 508.888889,43 508.888889,43 Z M529.666667,32 C529.666667,32 529.666667,53 529.666667,53 L536.109853,53 C537.767402,53 539.111111,51.6544098 539.111111,49.991212 L539.111111,32 C539.111111,32 529.666667,32 529.666667,32 Z" id="calculator_L"></path>
            </g>
        </g>
    </g>
</svg>