<?xml version="1.0" encoding="UTF-8" standalone="no"?>
<svg width="50px" height="38px" viewBox="0 0 50 38" version="1.1" xmlns="http://www.w3.org/2000/svg" xmlns:xlink="http://www.w3.org/1999/xlink" xmlns:sketch="http://www.bohemiancoding.com/sketch/ns">
    <!-- Generator: Sketch 3.1.1 (8761) - http://www.bohemiancoding.com/sketch -->
    <title>camera_L</title>
    <desc>Created with Sketch.</desc>
    <defs></defs>
    <g id="Page-1" stroke="none" stroke-width="1" fill="none" fill-rule="evenodd" sketch:type="MSPage">
        <g id="line-icons" sketch:type="MSLayerGroup" transform="translate(-300.000000, -116.000000)" fill="#FFFFFF">
            <g id="row-2-L" transform="translate(0.000000, 99.000000)" sketch:type="MSShapeGroup">
                <path d="M335.567937,25.396533 L343.998272,25.396533 C346.210864,25.396533 348,27.1869601 348,29.3955638 L348,49.0009683 C348,51.2101272 346.208365,52.999999 343.998272,52.999999 L306.001728,52.999999 C303.789136,52.999999 302,51.209572 302,49.0009683 L302,29.3955638 C302,27.1864048 303.791635,25.396533 306.001728,25.396533 L314.728823,25.396533 L319.301031,19.7871126 C319.650305,19.3586049 320.378533,19.0143795 320.93074,19.0143795 L328.97584,19.0143795 C329.517992,19.0143795 330.272728,19.3533645 330.639132,19.7715237 L335.567937,25.396533 Z M336.580637,23.396533 L345.99281,23.396533 C348.205732,23.396533 350,25.1885585 350,27.3991339 L350,50.9973991 C350,53.2103102 348.20592,55 345.99281,55 L304.00719,55 C301.794268,55 300,53.2079745 300,50.9973991 L300,27.3991339 C300,25.1862228 301.79408,23.396533 304.00719,23.396533 L313.358024,23.396533 C313.38968,23.3471992 313.424684,23.2972081 313.463085,23.2466643 L317.004961,18.5848171 C317.670519,17.7088042 319.105633,17 320.211638,17 L329.298144,17 C330.400898,17 331.873106,17.6927268 332.579152,18.5472487 L336.493068,23.2842327 C336.524265,23.3219904 336.553448,23.3594394 336.580637,23.396533 L336.580637,23.396533 Z M303.915816,20.2371136 L303.915816,22.2371136 L310.915816,22.2371136 L310.915816,20.2371136 L303.915816,20.2371136 Z M324.915816,50.2371136 C330.990948,50.2371136 335.915816,45.3122461 335.915816,39.2371136 C335.915816,33.161981 330.990948,28.2371136 324.915816,28.2371136 C318.840683,28.2371136 313.915816,33.161981 313.915816,39.2371136 C313.915816,45.3122461 318.840683,50.2371136 324.915816,50.2371136 Z M324.915816,47.2371136 C329.334094,47.2371136 332.915816,43.6553918 332.915816,39.2371136 C332.915816,34.8188354 329.334094,31.2371136 324.915816,31.2371136 C320.497538,31.2371136 316.915816,34.8188354 316.915816,39.2371136 C316.915816,43.6553918 320.497538,47.2371136 324.915816,47.2371136 Z M338,28 L338,30 L340,30 L340,28 L338,28 Z" id="camera_L"></path>
            </g>
        </g>
    </g>
</svg>