<?xml version="1.0" encoding="UTF-8" standalone="no"?>
<svg width="48px" height="48px" viewBox="0 0 48 48" version="1.1" xmlns="http://www.w3.org/2000/svg" xmlns:xlink="http://www.w3.org/1999/xlink" xmlns:sketch="http://www.bohemiancoding.com/sketch/ns">
    <!-- Generator: Sketch 3.1.1 (8761) - http://www.bohemiancoding.com/sketch -->
    <title>clock_L</title>
    <desc>Created with Sketch.</desc>
    <defs></defs>
    <g id="Page-1" stroke="none" stroke-width="1" fill="none" fill-rule="evenodd" sketch:type="MSPage">
        <g id="line-icons" sketch:type="MSLayerGroup" transform="translate(-501.000000, -201.000000)" fill="#FFFFFF">
            <g id="row-3-L" transform="translate(0.000000, 198.000000)" sketch:type="MSShapeGroup">
                <path d="M525,49 C512.87,49 503,39.131 503,27 C503,14.869 512.87,5 525,5 C537.131,5 547,14.869 547,27 C547,39.131 537.131,49 525,49 L525,49 L525,49 L525,49 Z M525,3 C511.746,3 501,13.746 501,27 C501,40.254 511.746,51 525,51 C538.254,51 549,40.254 549,27 C549,13.746 538.254,3 525,3 L525,3 Z M525,28.918 L513,28.918 L513,30.918 L527,30.918 L527,11 L525,11 L525,28.918" id="clock_L"></path>
            </g>
        </g>
    </g>
</svg>