<?xml version="1.0" encoding="UTF-8" standalone="no"?>
<svg width="48px" height="37px" viewBox="0 0 48 37" version="1.1" xmlns="http://www.w3.org/2000/svg" xmlns:xlink="http://www.w3.org/1999/xlink" xmlns:sketch="http://www.bohemiancoding.com/sketch/ns">
    <!-- Generator: Sketch 3.1.1 (8761) - http://www.bohemiancoding.com/sketch -->
    <title>comment_L</title>
    <desc>Created with Sketch.</desc>
    <defs></defs>
    <g id="Page-1" stroke="none" stroke-width="1" fill="none" fill-rule="evenodd" sketch:type="MSPage">
        <g id="line-icons" sketch:type="MSLayerGroup" transform="translate(-501.000000, -507.000000)" fill="#FFFFFF">
            <g id="row-6-L" transform="translate(3.000000, 500.000000)" sketch:type="MSShapeGroup">
                <path d="M506.007097,7 C501.584899,7 498,10.5889027 498,15.0000405 L498,28.9999595 C498,33.4182599 501.57284,37 506.00481,37 L524.08884,37 L540.225086,43.7749405 L533.845638,37 L539.083572,37 C542.90341,37 546,33.4110973 546,28.9999595 L546,15.0000405 C546,10.5817401 542.411829,7 537.992903,7 L506.007097,7 Z M506.002774,9 C502.687533,9 500,11.6845286 500,14.9975713 L500,29.0024287 C500,32.3147959 502.677873,35 505.998357,35 L524.177475,35 C525.233381,35 534.391972,39.8267555 534.391972,39.8267555 C534.391972,39.8267555 529.084051,35 529.084051,35 L539.075123,35 C541.795057,35 544,32.3154714 544,29.0024287 L544,14.9975713 C544,11.6852041 541.313837,9 537.997226,9 L506.002774,9 Z M532,24 C533.10457,24 534,23.1045696 534,22 C534,20.8954304 533.10457,20 532,20 C530.89543,20 530,20.8954304 530,22 C530,23.1045696 530.89543,24 532,24 Z M522,24 C523.10457,24 524,23.1045696 524,22 C524,20.8954304 523.10457,20 522,20 C520.89543,20 520,20.8954304 520,22 C520,23.1045696 520.89543,24 522,24 Z M512,24 C513.10457,24 514,23.1045696 514,22 C514,20.8954304 513.10457,20 512,20 C510.89543,20 510,20.8954304 510,22 C510,23.1045696 510.89543,24 512,24 Z" id="comment_L"></path>
            </g>
        </g>
    </g>
</svg>