<?xml version="1.0" encoding="UTF-8" standalone="no"?>
<svg width="44px" height="52px" viewBox="0 0 44 52" version="1.1" xmlns="http://www.w3.org/2000/svg" xmlns:xlink="http://www.w3.org/1999/xlink" xmlns:sketch="http://www.bohemiancoding.com/sketch/ns">
    <!-- Generator: Sketch 3.1.1 (8761) - http://www.bohemiancoding.com/sketch -->
    <title>copy_file_L</title>
    <desc>Created with Sketch.</desc>
    <defs></defs>
    <g id="Page-1" stroke="none" stroke-width="1" fill="none" fill-rule="evenodd" sketch:type="MSPage">
        <g id="line-icons" sketch:type="MSLayerGroup" transform="translate(-96.000000, 0.000000)" fill="#FFFFFF">
            <g id="row-1-L" sketch:type="MSShapeGroup">
                <path d="M108.04435,7.89696384 L108.04435,0 L130.135416,0 L139.986891,9.91042805 L139.986891,43.9097366 L128.013109,43.9097366 L128.013109,52 L96.0131092,52 L96.0131092,7.89696384 L108.04435,7.89696384 Z M116.017839,10 L116.017839,20.1328612 L126.013109,20.1328612 L126.013109,50.1214855 L98.0131092,50.1214854 L98.0131092,10 L116.017839,10 Z M130.401792,3.12148552 L137.401792,10 L130.401792,9.99999986 L130.401792,3.12148552 Z M128.031935,2 L128.031935,11.9145628 L138.026209,11.9145632 L138.026209,42 L128.031935,42 L128.031935,18.2645893 L117.859046,7.92223501 L109.985296,7.92223497 L109.985296,2 L128.031935,2 Z M118,11.5607428 L125,18.4392572 L118,18.4392571 L118,11.5607428 Z" id="copy_file_L"></path>
            </g>
        </g>
    </g>
</svg>