<?xml version="1.0" encoding="UTF-8" standalone="no"?>
<svg width="60px" height="57px" viewBox="0 0 60 57" version="1.1" xmlns="http://www.w3.org/2000/svg" xmlns:xlink="http://www.w3.org/1999/xlink" xmlns:sketch="http://www.bohemiancoding.com/sketch/ns">
    <!-- Generator: Sketch 3.1.1 (8761) - http://www.bohemiancoding.com/sketch -->
    <title>download_cloud_L</title>
    <desc>Created with Sketch.</desc>
    <defs></defs>
    <g id="Page-1" stroke="none" stroke-width="1" fill="none" fill-rule="evenodd" sketch:type="MSPage">
        <g id="line-icons" sketch:type="MSLayerGroup" transform="translate(-496.000000, -301.000000)" fill="#FFFFFF">
            <g id="row-4-L" transform="translate(0.000000, 301.000000)" sketch:type="MSShapeGroup">
                <path d="M519.015219,37.971 L507.991198,37.971 C501.368984,37.965 496,32.596 496,25.973 C496,20.707 499.395623,16.246 504.111487,14.629 C504.752605,10.852 508.032206,7.971 511.991932,7.971 C513.282168,7.971 514.497391,8.283 515.576589,8.826 C518.072047,3.611 523.38402,0 529.553151,0 C538.114721,0 545.055994,6.939 545.055994,15.5 C545.055994,15.66 545.03599,15.814 545.031989,15.975 C551.094101,15.992 556,20.908 556,26.973 C556,33.027 551.105103,37.938 545.055994,37.971 L533.017787,37.971 L533.017787,35.971 L544.607911,35.971 L545.044992,35.969 C549.981897,35.943 545.044992,35.969 545.044992,35.969 C549.981897,35.943 553.999633,31.906 553.999633,26.973 C553.999633,22.025 549.974895,17.988 545.025988,17.975 L542.981613,17.967 L543.032623,15.926 C543.034623,15.824 543.041624,15.725 543.047625,15.625 C543.050626,15.584 543.055627,15.541 543.055627,15.5 C543.055627,8.055 536.998516,2 529.553151,2 C524.394206,2 519.61633,5.018 517.38092,9.689 L516.500758,11.529 L514.677424,10.613 C513.830269,10.188 512.927103,9.971 511.991932,9.971 C509.058394,9.971 506.573939,12.07 506.083849,14.963 L505.885812,16.135 L504.760606,16.52 C500.717865,17.906 498.000367,21.705 498.000367,25.973 C498.000367,31.48 502.483189,35.965 507.993199,35.971 L519.015219,35.971 L519.015219,37.971 Z M525.01632,49.1979701 L525.01632,19.9855 L527.016686,19.9855 L527.016686,49.1981901 L533.157108,49.1988655 L526.08604,56.2699333 L519.013416,49.1973099 L525.01632,49.1979701 Z" id="download_cloud_L"></path>
            </g>
        </g>
    </g>
</svg>