<?xml version="1.0" encoding="UTF-8" standalone="no"?>
<svg width="50px" height="35px" viewBox="0 0 50 35" version="1.1" xmlns="http://www.w3.org/2000/svg" xmlns:xlink="http://www.w3.org/1999/xlink" xmlns:sketch="http://www.bohemiancoding.com/sketch/ns">
    <!-- Generator: Sketch 3.1.1 (8761) - http://www.bohemiancoding.com/sketch -->
    <title>drawer_L</title>
    <desc>Created with Sketch.</desc>
    <defs></defs>
    <g id="Page-1" stroke="none" stroke-width="1" fill="none" fill-rule="evenodd" sketch:type="MSPage">
        <g id="line-icons" sketch:type="MSLayerGroup" transform="translate(0.000000, -117.000000)" fill="#FFFFFF">
            <g id="row-2-L" transform="translate(0.000000, 99.000000)" sketch:type="MSShapeGroup">
                <path d="M20,38 L2.89426886,38 L16.1127585,20 L34.0825909,20 L47.3735207,38 L30,38 C30,40.7614239 27.7614239,43 25,43 C22.2385761,43 20,40.7614239 20,38 Z M31.7101214,40 L48,40 L48,51 L2,51 L2,40 L18.2898786,40 C19.1504278,42.891489 21.8289792,45 25,45 C28.1710208,45 30.8495722,42.891489 31.7101214,40 L31.7101214,40 Z M15.0695829,18 L35.043251,18 L50,38.0721684 L50,53 L0,53 L0,38.0721684 L15.0695829,18 Z M10.9981537,33 C10.4468886,33 10,33.4438648 10,34 L10,34 C10,34.5522847 10.4473652,35 10.9981537,35 L39.0018463,35 C39.5531114,35 40,34.5561352 40,34 L40,34 C40,33.4477153 39.5526348,33 39.0018463,33 L10.9981537,33 Z M15.0024617,28 C14.4488174,28 14,28.4438648 14,29 L14,29 C14,29.5522847 14.4394583,30 15.0024617,30 L34.9975383,30 C35.5511826,30 36,29.5561352 36,29 L36,29 C36,28.4477153 35.5605417,28 34.9975383,28 L15.0024617,28 Z M19.0068455,23 C18.4507801,23 18,23.4438648 18,24 L18,24 C18,24.5522847 18.4499488,25 19.0068455,25 L30.9931545,25 C31.5492199,25 32,24.5561352 32,24 L32,24 C32,23.4477153 31.5500512,23 30.9931545,23 L19.0068455,23 Z" id="drawer_L"></path>
            </g>
        </g>
    </g>
</svg>