<?xml version="1.0" encoding="UTF-8" standalone="no"?>
<svg width="50px" height="50px" viewBox="0 0 50 50" version="1.1" xmlns="http://www.w3.org/2000/svg" xmlns:xlink="http://www.w3.org/1999/xlink" xmlns:sketch="http://www.bohemiancoding.com/sketch/ns">
    <!-- Generator: Sketch 3.1.1 (8761) - http://www.bohemiancoding.com/sketch -->
    <title>global_L</title>
    <desc>Created with Sketch.</desc>
    <defs></defs>
    <g id="Page-1" stroke="none" stroke-width="1" fill="none" fill-rule="evenodd" sketch:type="MSPage">
        <g id="line-icons" sketch:type="MSLayerGroup" transform="translate(-100.000000, -199.000000)" fill="#FFFFFF">
            <g id="row-3-L" transform="translate(0.000000, 198.000000)" sketch:type="MSShapeGroup">
                <path d="M130.354,48.364 C132.298,46.348 133.939,43.276 135.109,39.508 C137.304,40.174 139.405,41.047 141.395,42.11 C138.421,45.137 134.616,47.344 130.354,48.364 C130.354,48.364 134.616,47.344 130.354,48.364 L130.354,48.364 L130.354,48.364 Z M108.603,42.108 C110.577,41.055 112.66,40.188 114.834,39.526 C115.999,43.272 117.633,46.332 119.565,48.346 C115.336,47.317 111.56,45.118 108.603,42.108 C108.603,42.108 111.56,45.118 108.603,42.108 L108.603,42.108 L108.603,42.108 Z M119.565,3.655 C117.635,5.666 116.001,8.723 114.836,12.465 C112.664,11.803 110.582,10.936 108.61,9.885 C111.565,6.879 115.339,4.682 119.565,3.655 C119.565,3.655 115.339,4.682 119.565,3.655 L119.565,3.655 L119.565,3.655 Z M141.39,9.885 C139.4,10.944 137.3,11.819 135.106,12.483 C133.937,8.721 132.296,5.651 130.355,3.635 C134.613,4.657 138.415,6.86 141.39,9.885 C141.39,9.885 138.415,6.86 141.39,9.885 L141.39,9.885 L141.39,9.885 Z M137.012,25 C136.938,21.188 136.455,17.598 135.648,14.411 C138.142,13.657 140.524,12.647 142.767,11.412 C145.837,15.143 147.753,19.856 147.975,25 L137.012,25 L137.012,25 L137.012,25 L137.012,25 Z M137.012,27 L147.975,27 C147.754,32.141 145.84,36.85 142.773,40.58 C140.528,39.346 138.146,38.334 135.65,37.58 C136.456,34.395 136.938,30.807 137.012,27 C137.012,27 136.938,30.807 137.012,27 L137.012,27 L137.012,27 Z M126,36.03 L126,27 L134.999,27 C134.926,30.719 134.462,34.112 133.716,37.057 C131.23,36.452 128.651,36.1 126,36.03 C126,36.03 128.651,36.1 126,36.03 L126,36.03 L126,36.03 Z M126,48.842 L126,38.028 C128.463,38.098 130.859,38.424 133.17,38.981 C131.43,44.496 128.697,48.096 126,48.842 C126,48.842 128.697,48.096 126,48.842 L126,48.842 L126,48.842 Z M124,38.028 L124,48.866 C121.284,48.157 118.525,44.545 116.771,38.994 C119.1,38.428 121.517,38.098 124,38.028 C124,38.028 121.517,38.098 124,38.028 L124,38.028 L124,38.028 Z M114.938,27 L124,27 L124,36.03 C121.328,36.1 118.728,36.457 116.225,37.071 C115.476,34.123 115.012,30.725 114.938,27 C114.938,27 115.012,30.725 114.938,27 L114.938,27 L114.938,27 Z M112.926,27 C112.999,30.815 113.483,34.411 114.291,37.6 C111.817,38.352 109.454,39.356 107.227,40.582 C104.161,36.852 102.246,32.141 102.025,27 L112.926,27 L112.926,27 L112.926,27 L112.926,27 Z M112.926,25 L102.025,25 C102.246,19.86 104.161,15.149 107.227,11.418 C109.454,12.645 111.816,13.649 114.291,14.399 C113.483,17.588 112.999,21.184 112.926,25 C112.926,25 112.999,21.184 112.926,25 L112.926,25 L112.926,25 Z M124,15.959 L124,25 L114.938,25 C115.012,21.272 115.477,17.871 116.226,14.922 C118.729,15.534 121.328,15.889 124,15.959 C124,15.959 121.328,15.889 124,15.959 L124,15.959 L124,15.959 Z M124,3.135 L124,13.961 C121.517,13.891 119.101,13.561 116.774,12.994 C118.529,7.45 121.286,3.842 124,3.135 C124,3.135 121.286,3.842 124,3.135 L124,3.135 L124,3.135 Z M126,13.961 L126,3.159 C128.696,3.905 131.427,7.498 133.168,13.01 C130.858,13.567 128.462,13.891 126,13.961 C126,13.961 128.462,13.891 126,13.961 L126,13.961 L126,13.961 Z M126,15.961 C128.65,15.889 131.229,15.539 133.713,14.934 C134.462,17.881 134.926,21.278 134.999,25 L126,25 L126,15.961 L126,15.961 L126,15.961 L126,15.961 Z M125,1 L124.978,1 L124.969,1 C124.959,1 124.949,1.002 124.939,1.002 C111.159,1.034 100,12.213 100,26 C100,39.784 111.159,50.965 124.939,50.998 C124.949,50.998 124.959,51 124.969,51 L124.978,51 L125,51 C138.805,51 150,39.805 150,26 C150,12.194 138.805,1 125,1 L125,1 Z" id="global_L"></path>
            </g>
        </g>
    </g>
</svg>