<?xml version="1.0" encoding="UTF-8" standalone="no"?>
<svg width="50px" height="50px" viewBox="0 0 50 50" version="1.1" xmlns="http://www.w3.org/2000/svg" xmlns:xlink="http://www.w3.org/1999/xlink" xmlns:sketch="http://www.bohemiancoding.com/sketch/ns">
    <!-- Generator: Sketch 3.1.1 (8761) - http://www.bohemiancoding.com/sketch -->
    <title>lock_L</title>
    <desc>Created with Sketch.</desc>
    <defs></defs>
    <g id="Page-1" stroke="none" stroke-width="1" fill="none" fill-rule="evenodd" sketch:type="MSPage">
        <g id="line-icons" sketch:type="MSLayerGroup" transform="translate(-400.000000, -399.000000)" fill="#FFFFFF">
            <g id="row-5-L" transform="translate(0.000000, 399.000000)" sketch:type="MSShapeGroup">
                <path d="M425,50 C438.807119,50 450,38.8071194 450,25 C450,11.1928806 438.807119,0 425,0 C411.192881,0 400,11.1928806 400,25 C400,38.8071194 411.192881,50 425,50 Z M425,47.7146776 C437.70255,47.7146776 448,37.4172275 448,24.7146776 C448,12.0121278 437.70255,1.71467764 425,1.71467764 C412.29745,1.71467764 402,12.0121278 402,24.7146776 C402,37.4172275 412.29745,47.7146776 425,47.7146776 Z M434.073472,35.2880658 C431.65532,37.4223711 428.478898,38.7174211 425,38.7174211 C417.424077,38.7174211 411.282579,32.5759229 411.282579,25 C411.282579,17.4240771 417.424077,11.2825789 425,11.2825789 C432.575923,11.2825789 438.717421,17.4240771 438.717421,25 L437.002743,25 C437.002743,18.3710675 431.628933,12.9972565 425,12.9972565 C418.371067,12.9972565 412.997257,18.3710675 412.997257,25 C412.997257,31.6289325 418.371067,37.0027435 425,37.0027435 C427.262806,37.0027435 429.379362,36.3765772 431.185848,35.2880658 L434.073472,35.2880658 L434.073472,35.2880658 Z M437.860082,30.1440329 L440.829991,25 L434.890174,25 L437.860082,30.1440329 Z M418.689986,22.5651578 L418.689986,32.0301783 L431.310014,32.0301783 L431.310014,22.5651578 L418.689986,22.5651578 Z M424.207602,16.255144 C422.467153,16.255144 421.056241,17.66943 421.056241,19.4061309 L421.056241,22.5571179 L428.943758,22.5571179 C428.943758,22.5571179 428.943758,22.1860966 428.943758,21.8651548 C428.943758,21.8651547 428.943758,19.4045223 428.943758,19.4045223 C428.943758,17.6651687 427.533628,16.255144 425.792398,16.255144 L424.207602,16.255144 Z M425,17.8326475 C423.693153,17.8326475 422.633745,18.8806852 422.633745,20.1938118 L422.633745,22.5549761 L427.366255,22.5549761 L427.366255,20.1938118 C427.366255,18.8897767 426.315958,17.8326475 425,17.8326475 L425,17.8326475 Z" id="lock_L"></path>
            </g>
        </g>
    </g>
</svg>