<?xml version="1.0" encoding="UTF-8" standalone="no"?>
<svg width="24px" height="49px" viewBox="0 0 24 49" version="1.1" xmlns="http://www.w3.org/2000/svg" xmlns:xlink="http://www.w3.org/1999/xlink" xmlns:sketch="http://www.bohemiancoding.com/sketch/ns">
    <!-- Generator: Sketch 3.1.1 (8761) - http://www.bohemiancoding.com/sketch -->
    <title>micro_L</title>
    <desc>Created with Sketch.</desc>
    <defs></defs>
    <g id="Page-1" stroke="none" stroke-width="1" fill="none" fill-rule="evenodd" sketch:type="MSPage">
        <g id="line-icons" sketch:type="MSLayerGroup" transform="translate(-313.000000, -500.000000)" fill="#FFFFFF">
            <g id="row-6-L" transform="translate(3.000000, 500.000000)" sketch:type="MSShapeGroup">
                <path d="M321,40.0000001 L321,47 L321,47 L316,47 L316,49 L328,49 L328,47 L323,47 L323,40.0000001 L323.000918,40.0000001 C329.075543,40.0000001 334,35.0764681 334,29.0000002 C334,29.0000002 334,18.0000004 334,18.0000001 C334,18 310,18.0000001 310,18.0000001 C310,18.0000001 310,29.0000001 310,29.0000001 C310,35.0751323 314.929186,40.0000001 320.999082,40.0000001 L321,40.0000001 L321,40.0000001 Z M312,18.0000001 C312,18.0000001 312,28.0000001 312,28.0000001 C312,33.5228476 316.475938,38.0000001 322,38.0000001 C327.522847,38.0000001 332,33.524062 332,28.0000001 L332,18.0000001 C332,18.0000001 312,18.0000001 312,18.0000001 Z M322,0 C317.581722,0 314,3.58343124 314,8.00074125 L314,27.9992587 C314,32.4179461 317.590712,36 322,36 C326.418278,36 330,32.4165688 330,27.9992587 L330,8.00074125 C330,3.58205387 326.409288,0 322,0 Z M322,2 C318.686292,2 316,4.6816994 316,7.99306515 L316,17 C316,17 328,17 328,17 L328,7.99306515 C328,4.68318666 325.306966,2 322,2 Z M322,34 C318.686292,34 316,31.3183006 316,28.0069348 L316,19 C316,19 328,19 328,19 L328,28.0069348 C328,31.3168133 325.306966,34 322,34 Z" id="micro_L"></path>
            </g>
        </g>
    </g>
</svg>