<?xml version="1.0" encoding="UTF-8" standalone="no"?>
<svg width="50px" height="50px" viewBox="0 0 50 50" version="1.1" xmlns="http://www.w3.org/2000/svg" xmlns:xlink="http://www.w3.org/1999/xlink" xmlns:sketch="http://www.bohemiancoding.com/sketch/ns">
    <!-- Generator: Sketch 3.1.1 (8761) - http://www.bohemiancoding.com/sketch -->
    <title>minus_L</title>
    <desc>Created with Sketch.</desc>
    <defs></defs>
    <g id="Page-1" stroke="none" stroke-width="1" fill="none" fill-rule="evenodd" sketch:type="MSPage">
        <g id="line-icons" sketch:type="MSLayerGroup" transform="translate(-300.000000, -301.000000)" fill="#FFFFFF">
            <g id="row-4-L" transform="translate(0.000000, 301.000000)" sketch:type="MSShapeGroup">
                <path d="M325,50 C338.807119,50 350,38.8071194 350,25 C350,11.1928806 338.807119,0 325,0 C311.192881,0 300,11.1928806 300,25 C300,38.8071194 311.192881,50 325,50 Z M325,48 C337.70255,48 348,37.7025499 348,25 C348,12.2974501 337.70255,2 325,2 C312.29745,2 302,12.2974501 302,25 C302,37.7025499 312.29745,48 325,48 Z M313,24 L313,26 L337,26 L337,24 L313,24 Z" id="minus_L"></path>
            </g>
        </g>
    </g>
</svg>