<?xml version="1.0" encoding="UTF-8" standalone="no"?>
<svg width="45px" height="44px" viewBox="0 0 45 44" version="1.1" xmlns="http://www.w3.org/2000/svg" xmlns:xlink="http://www.w3.org/1999/xlink" xmlns:sketch="http://www.bohemiancoding.com/sketch/ns">
    <!-- Generator: Sketch 3.1.1 (8761) - http://www.bohemiancoding.com/sketch -->
    <title>pencil_L</title>
    <desc>Created with Sketch.</desc>
    <defs></defs>
    <g id="Page-1" stroke="none" stroke-width="1" fill="none" fill-rule="evenodd" sketch:type="MSPage">
        <g id="line-icons" sketch:type="MSLayerGroup" transform="translate(-505.000000, -4.000000)" fill="#FFFFFF">
            <g id="row-1-L" sketch:type="MSShapeGroup">
                <path d="M540.043941,10 L537.986891,10 L537.986891,12 L507.986891,12 L507.986891,46 L541.986891,46 L541.986891,17 L541.986891,17 L543.986891,17 L543.986891,14.5542948 L529.364431,29.696295 C528.60759,30.480027 528.576902,30.5118051 529.311226,29.7513909 C529.311226,29.7513909 524.815578,30.2873756 524.764854,30.1406268 C524.747946,30.0917105 524.995187,25.5834406 524.995187,25.5834406 C524.283672,26.320236 524.284684,26.3191876 525.048392,25.5283448 L540.043941,10 L505.986891,10 L505.986891,48 L543.986891,48 L543.986891,14.5542948 L548.704583,9.66898166 C549.468291,8.87813883 549.441244,7.61304978 548.65022,6.84916697 L547.208538,5.4569509 C546.414807,4.69045308 545.145385,4.71729944 544.388544,5.50103144 L540.043941,10 L540.043941,10 Z M526.343574,28.4412346 C526.343574,28.4412346 528.750662,28.1222721 528.865402,28.107068 C529.109973,27.8538073 547.023602,9.30370204 547.023602,9.30370204 C547.609892,8.69658085 547.594407,7.73048381 546.979506,7.13668122 C546.368863,6.54698986 545.394631,6.5651849 544.80468,7.17609641 C544.80468,7.17609641 527.265977,25.3379555 526.654067,25.9716066 C526.654067,25.9716065 526.343574,28.4412346 526.343574,28.4412346 Z" id="pencil_L"></path>
            </g>
        </g>
    </g>
</svg>