<?xml version="1.0" encoding="UTF-8" standalone="no"?>
<svg width="54px" height="44px" viewBox="0 0 54 44" version="1.1" xmlns="http://www.w3.org/2000/svg" xmlns:xlink="http://www.w3.org/1999/xlink" xmlns:sketch="http://www.bohemiancoding.com/sketch/ns">
    <!-- Generator: Sketch 3.1.1 (8761) - http://www.bohemiancoding.com/sketch -->
    <title>photo_gallery_L</title>
    <desc>Created with Sketch.</desc>
    <defs></defs>
    <g id="Page-1" stroke="none" stroke-width="1" fill="none" fill-rule="evenodd" sketch:type="MSPage">
        <g id="line-icons" sketch:type="MSLayerGroup" transform="translate(-398.000000, -111.000000)" fill="#FFFFFF">
            <g id="row-2-L" transform="translate(0.000000, 99.000000)" sketch:type="MSShapeGroup">
                <path d="M407,22 L449.999,22 L449.999,54 L407,54 L407,54 L407,22 L407,22 Z M400,46 L400,14 L442.999,14 L442.999,20 L405,20 L405,46 L400,46 L400,46 L400,46 L400,46 Z M444.999,20 L444.999,12 L398,12 L398,48 L405,48 L405,56 L451.999,56 L451.999,20 L444.999,20 L444.999,20 Z" id="photo_gallery_L"></path>
            </g>
        </g>
    </g>
</svg>