<?xml version="1.0" encoding="UTF-8" standalone="no"?>
<svg width="22px" height="45px" viewBox="0 0 22 45" version="1.1" xmlns="http://www.w3.org/2000/svg" xmlns:xlink="http://www.w3.org/1999/xlink" xmlns:sketch="http://www.bohemiancoding.com/sketch/ns">
    <!-- Generator: Sketch 3.1.1 (8761) - http://www.bohemiancoding.com/sketch -->
    <title>pin_L</title>
    <desc>Created with Sketch.</desc>
    <defs></defs>
    <g id="Page-1" stroke="none" stroke-width="1" fill="none" fill-rule="evenodd" sketch:type="MSPage">
        <g id="line-icons" sketch:type="MSLayerGroup" transform="translate(-414.000000, -503.000000)" fill="#FFFFFF">
            <g id="row-6-L" transform="translate(3.000000, 500.000000)" sketch:type="MSShapeGroup">
                <path d="M421,24.955157 L421,48 L423,48 L423,24.955157 C428.6065,24.4499283 433,19.7380429 433,14 C433,7.92486745 428.075133,3 422,3 C415.924867,3 411,7.92486745 411,14 C411,19.7380429 415.3935,24.4499283 421,24.955157 L421,24.955157 Z M422,23 C426.970563,23 431,18.970563 431,14 C431,9.02943701 426.970563,5 422,5 C417.029437,5 413,9.02943701 413,14 C413,18.970563 417.029437,23 422,23 Z M418,10 C418.552285,10 419,9.55228478 419,9 C419,8.44771522 418.552285,8 418,8 C417.447715,8 417,8.44771522 417,9 C417,9.55228478 417.447715,10 418,10 Z" id="pin_L"></path>
            </g>
        </g>
    </g>
</svg>