<?xml version="1.0" encoding="UTF-8" standalone="no"?>
<svg width="48px" height="48px" viewBox="0 0 48 48" version="1.1" xmlns="http://www.w3.org/2000/svg" xmlns:xlink="http://www.w3.org/1999/xlink" xmlns:sketch="http://www.bohemiancoding.com/sketch/ns">
    <!-- Generator: Sketch 3.1.1 (8761) - http://www.bohemiancoding.com/sketch -->
    <title>search_L</title>
    <desc>Created with Sketch.</desc>
    <defs></defs>
    <g id="Page-1" stroke="none" stroke-width="1" fill="none" fill-rule="evenodd" sketch:type="MSPage">
        <g id="line-icons" sketch:type="MSLayerGroup" transform="translate(0.000000, -301.000000)" fill="#FFFFFF">
            <g id="row-4-L" transform="translate(0.000000, 301.000000)" sketch:type="MSShapeGroup">
                <path d="M2,19.001 C2,9.627 9.625,2.001 19,2.001 C28.373,2.001 36,9.627 36,19.001 C36,28.375 28.373,36.001 19,36.001 C9.625,36.001 2,28.375 2,19.001 C2,19.001 2,28.375 2,19.001 L2,19.001 L2,19.001 Z M47.237,44.765 L33.614,31.14 C36.352,27.847 38,23.618 38,19.001 C38,8.507 29.494,0.001 19,0.001 C8.508,0.001 0,8.507 0,19.001 C0,29.494 8.508,38.001 19,38.001 C23.617,38.001 27.846,36.353 31.139,33.615 L44.762,47.239 L47.237,44.765 L47.237,44.765 Z" id="search_L"></path>
            </g>
        </g>
    </g>
</svg>