<?xml version="1.0" encoding="UTF-8" standalone="no"?>
<svg width="38px" height="50px" viewBox="0 0 38 50" version="1.1" xmlns="http://www.w3.org/2000/svg" xmlns:xlink="http://www.w3.org/1999/xlink" xmlns:sketch="http://www.bohemiancoding.com/sketch/ns">
    <!-- Generator: Sketch 3.1.1 (8761) - http://www.bohemiancoding.com/sketch -->
    <title>tarsh_L</title>
    <desc>Created with Sketch.</desc>
    <defs></defs>
    <g id="Page-1" stroke="none" stroke-width="1" fill="none" fill-rule="evenodd" sketch:type="MSPage">
        <g id="line-icons" sketch:type="MSLayerGroup" transform="translate(-206.000000, -108.000000)" fill="#FFFFFF">
            <g id="row-2-L" transform="translate(0.000000, 99.000000)" sketch:type="MSShapeGroup">
                <path d="M238.067,54.897 L238.063,54.948 L238.063,55 C238.063,56.102 237.166,57 236.063,57 L214.063,57 C212.961,57 212.063,56.102 212.063,55 L212.063,54.948 L212.061,54.895 L210.063,17 L240.028,17 L238.067,54.897 L238.067,54.897 L238.067,54.897 L238.067,54.897 Z M218,13 C218,11.897 218.899,11 220,11 L230,11 C231.104,11 232,11.897 232,13 L232,15 L218,15 L218,13 L218,13 L218,13 L218,13 Z M244,15 L234,15 L234,13 C234,10.791 232.209,9 230,9 L220,9 C217.791,9 216,10.791 216,13 L216,15 L206,15 L206,17 L208.061,17 L210.063,55 C210.063,57.209 211.854,59 214.063,59 L236.063,59 C238.272,59 240.063,57.209 240.063,55 L242.03,17 L244,17 L244,15 L244,15 Z M234.014,21.063 L232.018,20.938 L230,52.938 L231.997,53.063 L234.014,21.063 M220.045,52.936 L217.998,20.998 L216.002,21.125 L218.049,53.063 L220.045,52.936 M224,21 L226,21 L226,53 L224,53 L224,53 L224,21 L224,21 Z" id="tarsh_L"></path>
            </g>
        </g>
    </g>
</svg>