<?xml version="1.0" encoding="UTF-8" standalone="no"?>
<svg width="50px" height="50px" viewBox="0 0 50 50" version="1.1" xmlns="http://www.w3.org/2000/svg" xmlns:xlink="http://www.w3.org/1999/xlink" xmlns:sketch="http://www.bohemiancoding.com/sketch/ns">
    <!-- Generator: Sketch 3.1.1 (8761) - http://www.bohemiancoding.com/sketch -->
    <title>timer_L</title>
    <desc>Created with Sketch.</desc>
    <defs></defs>
    <g id="Page-1" stroke="none" stroke-width="1" fill="none" fill-rule="evenodd" sketch:type="MSPage">
        <g id="line-icons" sketch:type="MSLayerGroup" transform="translate(-401.000000, -200.000000)" fill="#FFFFFF">
            <g id="row-3-L" transform="translate(0.000000, 198.000000)" sketch:type="MSShapeGroup">
                <path d="M423.535966,28.646533 C423.574966,28.695533 423.628966,28.736533 423.671966,28.782533 C424.222966,29.466533 425.054966,29.911533 425.999966,29.911533 C427.656966,29.911533 428.999966,28.570533 428.999966,26.911533 C428.999966,26.030533 428.613966,25.247533 428.011966,24.698533 C427.933966,24.611533 427.861966,24.521533 427.745966,24.433533 L415.622966,15.208533 C415.269966,14.937533 414.761966,14.923533 414.392966,15.208533 C413.951966,15.548533 413.869966,16.181533 414.208966,16.622533 L423.535966,28.646533 Z M426,2 C425.672,2 425.352,2.037 425.028,2.049 L425.028,3.086 L425,3.086 L425,13.996 L427,13.996 L427,4.051 C439.219,4.58 449,14.655 449,26.998 C449,39.68 438.684,49.996 426,49.996 C413.317,49.996 403,39.68 403,26.998 C403,20.657 405.58,14.907 409.746,10.742 L408.325,9.321 C403.799,13.844 401,20.094 401,26.998 C401,40.805 412.192,51.996 426,51.996 C439.809,51.996 451,40.805 451,26.998 C451,13.192 439.809,2 426,2 Z" id="timer_L"></path>
            </g>
        </g>
    </g>
</svg>