<?xml version="1.0" encoding="UTF-8" standalone="no"?>
<svg width="50px" height="50px" viewBox="0 0 50 50" version="1.1" xmlns="http://www.w3.org/2000/svg" xmlns:xlink="http://www.w3.org/1999/xlink" xmlns:sketch="http://www.bohemiancoding.com/sketch/ns">
    <!-- Generator: Sketch 3.1.1 (8761) - http://www.bohemiancoding.com/sketch -->
    <title>unlock_L</title>
    <desc>Created with Sketch.</desc>
    <defs></defs>
    <g id="Page-1" stroke="none" stroke-width="1" fill="none" fill-rule="evenodd" sketch:type="MSPage">
        <g id="line-icons" sketch:type="MSLayerGroup" transform="translate(-501.000000, -399.000000)" fill="#FFFFFF">
            <g id="row-5-L" transform="translate(0.000000, 399.000000)" sketch:type="MSShapeGroup">
                <path d="M526,50 C539.807119,50 551,38.8071194 551,25 C551,11.1928806 539.807119,0 526,0 C512.192881,0 501,11.1928806 501,25 C501,38.8071194 512.192881,50 526,50 Z M526,47.7146776 C538.70255,47.7146776 549,37.4172275 549,24.7146776 C549,12.0121278 538.70255,1.71467764 526,1.71467764 C513.29745,1.71467764 503,12.0121278 503,24.7146776 C503,37.4172275 513.29745,47.7146776 526,47.7146776 Z M535.073472,35.2880658 C532.65532,37.4223711 529.478898,38.7174211 526,38.7174211 C518.424077,38.7174211 512.282579,32.5759229 512.282579,25 C512.282579,17.4240771 518.424077,11.2825789 526,11.2825789 C533.575923,11.2825789 539.717421,17.4240771 539.717421,25 L538.002743,25 C538.002743,18.3710675 532.628933,12.9972565 526,12.9972565 C519.371067,12.9972565 513.997257,18.3710675 513.997257,25 C513.997257,31.6289325 519.371067,37.0027435 526,37.0027435 C528.262806,37.0027435 530.379362,36.3765772 532.185848,35.2880658 L535.073472,35.2880658 L535.073472,35.2880658 Z M538.860082,30.1440329 L541.829991,25 L535.890174,25 L538.860082,30.1440329 Z M519.689986,22.5651578 L519.689986,32.0301783 L532.310014,32.0301783 L532.310014,22.5651578 L519.689986,22.5651578 Z M525.207602,16.255144 C523.467153,16.255144 522.056241,17.66943 522.056241,19.4061309 L522.056241,22.5571179 L529.943758,22.5571179 C529.943758,22.5571179 529.943758,22.1860966 529.943758,21.8651548 C529.943758,21.8651547 529.943758,19.4045223 529.943758,19.4045223 C529.943758,17.6651687 528.533628,16.255144 526.792398,16.255144 L525.207602,16.255144 Z M526,17.8326475 C524.693153,17.8326475 523.633745,18.8806852 523.633745,20.1938118 L523.633745,22.5549761 L528.366255,22.5549761 L528.366255,20.1938118 C528.366255,18.8897767 527.315958,17.8326475 526,17.8326475 L526,17.8326475 Z M528.36579,20.0855823 L528.36579,22.5497603 L529.945391,22.5497603 L529.945391,20.0855823 L528.36579,20.0855823 Z" id="unlock_L"></path>
            </g>
        </g>
    </g>
</svg>