<?xml version="1.0" encoding="UTF-8" standalone="no"?>
<svg width="48px" height="48px" viewBox="0 0 48 48" version="1.1" xmlns="http://www.w3.org/2000/svg" xmlns:xlink="http://www.w3.org/1999/xlink" xmlns:sketch="http://www.bohemiancoding.com/sketch/ns">
    <!-- Generator: Sketch 3.1.1 (8761) - http://www.bohemiancoding.com/sketch -->
    <title>user_L</title>
    <desc>Created with Sketch.</desc>
    <defs></defs>
    <g id="Page-1" stroke="none" stroke-width="1" fill="none" fill-rule="evenodd" sketch:type="MSPage">
        <g id="line-icons" sketch:type="MSLayerGroup" transform="translate(0.000000, -201.000000)" fill="#FFFFFF">
            <g id="row-3-L" transform="translate(0.000000, 198.000000)" sketch:type="MSShapeGroup">
                <path d="M8.641,42.731 C10.893,41.811 15.383,40.21 18.332,39.339 C20.047,38.798 20.047,37.353 20.047,36.193 C20.047,35.231 19.981,33.813 19.418,32.614 C19.032,31.793 18.59,30.385 18.493,29.282 C18.471,29.024 18.35,28.786 18.155,28.616 C17.871,28.368 17.295,27.46 16.928,25.628 C16.637,24.178 16.76,23.86 16.879,23.554 C16.93,23.423 16.979,23.294 17.018,23.148 C17.258,22.27 16.991,19.387 16.7,17.787 C16.573,17.092 16.733,15.116 18.034,13.452 C19.2,11.961 20.965,11.13 23.217,10.986 L25.114,10.984 C27.426,11.13 29.192,11.961 30.36,13.452 C31.661,15.116 31.819,17.092 31.692,17.788 C31.403,19.387 31.133,22.27 31.373,23.147 C31.414,23.294 31.461,23.423 31.512,23.554 C31.631,23.86 31.754,24.178 31.465,25.628 C31.098,27.46 30.52,28.368 30.237,28.616 C30.043,28.786 29.922,29.024 29.899,29.282 C29.803,30.385 29.362,31.793 28.975,32.614 C28.532,33.556 28.022,34.811 28.022,36.152 C28.022,37.312 28.022,38.757 29.754,39.303 C32.577,40.137 37.088,41.686 39.471,42.623 C35.493,46.563 30.026,49 24,49 C18.03,49 12.61,46.606 8.641,42.731 C8.641,42.731 12.61,46.606 8.641,42.731 L8.641,42.731 L8.641,42.731 Z M24,5 C36.131,5 46,14.869 46,27 C46,32.337 44.088,37.235 40.914,41.049 C38.721,40.133 33.543,38.336 30.338,37.39 C30.065,37.304 30.022,37.29 30.022,36.152 C30.022,35.213 30.409,34.266 30.786,33.466 C31.194,32.596 31.678,31.133 31.852,29.82 C32.338,29.256 33,28.142 33.426,26.02 C33.799,24.15 33.625,23.47 33.377,22.831 C33.352,22.764 33.325,22.697 33.305,22.631 C33.211,22.192 33.34,19.914 33.661,18.146 C33.881,16.933 33.604,14.354 31.934,12.221 C30.879,10.872 28.862,9.217 25.176,8.986 L23.155,8.988 C19.532,9.217 17.512,10.872 16.457,12.221 C14.788,14.354 14.51,16.933 14.731,18.145 C15.053,19.914 15.18,22.192 15.088,22.622 C15.069,22.697 15.041,22.764 15.014,22.831 C14.768,23.47 14.592,24.15 14.967,26.02 C15.391,28.142 16.053,29.256 16.541,29.82 C16.713,31.133 17.198,32.596 17.608,33.466 C17.907,34.102 18.047,34.969 18.047,36.193 C18.047,37.331 18.004,37.345 17.748,37.426 C14.434,38.404 9.159,40.31 7.192,41.172 C3.955,37.341 2,32.395 2,27 C2,14.869 11.87,5 24,5 C24,5 11.87,5 24,5 L24,5 L24,5 Z M24,3 C10.745,3 0,13.744 0,27 C0,40.256 10.745,51 24,51 C37.256,51 48,40.256 48,27 C48,13.744 37.256,3 24,3 L24,3 Z" id="user_L"></path>
            </g>
        </g>
    </g>
</svg>