<?xml version="1.0" encoding="UTF-8" standalone="no"?>
<svg width="50px" height="50px" viewBox="0 0 50 50" version="1.1" xmlns="http://www.w3.org/2000/svg" xmlns:xlink="http://www.w3.org/1999/xlink" xmlns:sketch="http://www.bohemiancoding.com/sketch/ns">
    <!-- Generator: Sketch 3.1.1 (8761) - http://www.bohemiancoding.com/sketch -->
    <title>wifi_L</title>
    <desc>Created with Sketch.</desc>
    <defs></defs>
    <g id="Page-1" stroke="none" stroke-width="1" fill="none" fill-rule="evenodd" sketch:type="MSPage">
        <g id="line-icons" sketch:type="MSLayerGroup" transform="translate(-100.000000, -399.000000)" fill="#FFFFFF">
            <g id="row-5-L" transform="translate(0.000000, 399.000000)" sketch:type="MSShapeGroup">
                <path d="M141.250566,21.2654021 C132.668512,12.6833479 118.685826,12.7517762 110.019362,21.4182409 L125.558545,36.9574237 M138.635229,23.880739 C131.483518,16.7290272 119.83128,16.7860508 112.609226,24.0081047 L125.558545,36.9574237 M136.019892,26.496076 C130.298523,20.7747065 120.976733,20.8203254 115.199089,26.5979685 L125.558545,36.9574237 M133.404556,29.1114129 C129.113528,24.8203858 122.122186,24.8546 117.788953,29.1878323 C117.788953,29.1878323 125.558545,36.9574234 125.558545,36.9574237 M130.789219,31.7267499 C127.928534,28.8660651 123.267639,28.8888746 120.378817,31.7776961 C117.489995,34.6665177 120.399652,31.7568607 120.399652,31.7568607 C120.399652,31.7568607 125.617196,36.9744038 125.617196,36.9744041 M125,50 C138.807119,50 150,38.8071194 150,25 C150,11.1928806 138.807119,0 125,0 C111.192881,0 100,11.1928806 100,25 C100,38.8071194 111.192881,50 125,50 Z M125,48 C137.70255,48 148,37.7025499 148,25 C148,12.2974501 137.70255,2 125,2 C112.29745,2 102,12.2974501 102,25 C102,37.7025499 112.29745,48 125,48 Z" id="wifi_L"></path>
            </g>
        </g>
    </g>
</svg>