<?xml version="1.0" encoding="UTF-8" standalone="no"?>
<svg width="47px" height="49px" viewBox="0 0 47 49" version="1.1" xmlns="http://www.w3.org/2000/svg" xmlns:xlink="http://www.w3.org/1999/xlink" xmlns:sketch="http://www.bohemiancoding.com/sketch/ns">
    <!-- Generator: Sketch 3.1.1 (8761) - http://www.bohemiancoding.com/sketch -->
    <title>add_user_F</title>
    <desc>Created with Sketch.</desc>
    <defs></defs>
    <g id="Page-1" stroke="none" stroke-width="1" fill="none" fill-rule="evenodd" sketch:type="MSPage">
        <g id="full-icons" sketch:type="MSLayerGroup" transform="translate(-4.000000, -505.000000)" fill="#900C21">
            <g id="row-6-full-icons" transform="translate(4.000000, 505.000000)" sketch:type="MSShapeGroup">
                <path d="M23,24 C28.5228478,24 33,18.6274173 33,12 C33,5.37258267 28.5228478,0 23,0 C17.4771522,0 13,5.37258267 13,12 C13,18.6274173 17.4771522,24 23,24 Z M23,22 C27.4182782,22 31,17.5228478 31,12 C31,6.47715223 27.4182782,2 23,2 C18.5817218,2 15,6.47715223 15,12 C15,17.5228478 18.5817218,22 23,22 Z M33.0466679,27.4528129 C30.0112066,26.5220976 26.6023163,26 23,26 C10.2974501,26 0,32.4918707 0,40.5 L1.77419577,40.5258208 C1.77419577,40.5258208 1.77419579,38.352891 3.55204776,35.6531894 C5.32989988,32.9534879 9.47822094,30.1879406 14,29.0685524 C18.5217791,27.9491644 19.1383381,27.7516253 23,27.7516251 C26.8616619,27.7516248 31.6026014,28.805167 31.6026014,28.805167 L33.046669,29.0685525 L33.0466679,27.4528129 Z M37,49 C42.5228478,49 47,44.5228478 47,39 C47,33.4771522 42.5228478,29 37,29 C31.4771522,29 27,33.4771522 27,39 C27,44.5228478 31.4771522,49 37,49 Z M38.0848477,30.9869242 L36.001159,30.9869242 L36.0011585,37.9259968 L29.0302942,37.9259968 L29.0302942,40.0000001 L36.0011585,40 L36.0011585,47.1697207 L38.0848477,47.1697207 L38.084848,40 L45.0974982,40.0000001 L45.0974982,37.9259968 L38.084848,37.9259968 L38.0848477,30.9869242 Z" id="add_user_F"></path>
            </g>
        </g>
    </g>
</svg>