<?xml version="1.0" encoding="UTF-8" standalone="no"?>
<svg width="24px" height="52px" viewBox="0 0 24 52" version="1.1" xmlns="http://www.w3.org/2000/svg" xmlns:xlink="http://www.w3.org/1999/xlink" xmlns:sketch="http://www.bohemiancoding.com/sketch/ns">
    <!-- Generator: Sketch 3.1.1 (8761) - http://www.bohemiancoding.com/sketch -->
    <title>babychair_F</title>
    <desc>Created with Sketch.</desc>
    <defs></defs>
    <g id="Page-1" stroke="none" stroke-width="1" fill="none" fill-rule="evenodd" sketch:type="MSPage">
        <g id="full-icons" sketch:type="MSLayerGroup" transform="translate(-512.000000, -202.000000)" fill="#900C21">
            <g id="row-3-full-icons" transform="translate(4.000000, 202.000000)" sketch:type="MSShapeGroup">
                <path d="M514.016381,22 L512.408064,45 L512.408064,45 L515,45 L515,22 L516,22 L516,45 L524,45 L524,22 L525,22 L525,45 L527.591936,45 L527.591936,45 L525.983619,22 L514.016381,22 Z M512.047061,21.4914058 L509.99071,50.8985982 C509.952327,51.4475074 510.363994,51.9234488 510.918775,51.9622428 C511.469714,52.0007682 511.946908,51.594841 511.985838,51.0381111 L512.338137,46 L515,46 L515,50.4966507 C515,50.7746428 515.231934,51 515.5,51 C515.776142,51 516,50.7832452 516,50.4966507 L516,46 L516,46 L524,46 L524,46 L524,50.4966507 C524,50.7746428 524.231934,51 524.5,51 C524.776142,51 525,50.7832452 525,50.4966507 L525,46 L527.661863,46 L528.014162,51.0381111 C528.052545,51.5870204 528.526445,52.0010368 529.081225,51.9622428 C529.632165,51.9237173 530.04822,51.4553281 530.00929,50.8985982 L527.952908,21.4909654 C529.174414,20.8053421 530,19.4970299 530,18 L530,14 L510,14 L510,18 C510,19.499715 510.826081,20.8066613 512.047061,21.4914058 L512.047061,21.4914058 Z M528.009837,2 L528.009836,3.05432868 C528.009836,3.05432868 524.539591,0.0626804829 520,0.0626804829 C515.460409,0.0626808256 511.985535,3.05432868 511.985535,3.05432868 L511.985535,2 L510,2 L510,11.038276 L530,11.038276 L530,2 L528.009837,2 Z M508,12 L508,14 L532,14 L532,12 L508,12 Z M516,42 L516,43 L524,43 L524,42 L516,42 Z M512,14 L512,18.0020869 C512,19.1055038 512.889126,20 514.008339,20 L519.494315,20 L519.494315,14 L512,14 Z M528,14 L528,18.0020869 C528,19.1055038 527.108406,20 526.005816,20 L520.484881,20 L520.484881,14 L528,14 Z" id="babychair_F"></path>
            </g>
        </g>
    </g>
</svg>