<?xml version="1.0" encoding="UTF-8" standalone="no"?>
<svg width="46px" height="46px" viewBox="0 0 46 46" version="1.1" xmlns="http://www.w3.org/2000/svg" xmlns:xlink="http://www.w3.org/1999/xlink" xmlns:sketch="http://www.bohemiancoding.com/sketch/ns">
    <!-- Generator: Sketch 3.1.1 (8761) - http://www.bohemiancoding.com/sketch -->
    <title>baseball_F</title>
    <desc>Created with Sketch.</desc>
    <defs></defs>
    <g id="Page-1" stroke="none" stroke-width="1" fill="none" fill-rule="evenodd" sketch:type="MSPage">
        <g id="full-icons" sketch:type="MSLayerGroup" transform="translate(-305.000000, -407.000000)" fill="#900C21">
            <g id="row-5-full-icons" transform="translate(2.000000, 396.000000)" sketch:type="MSShapeGroup">
                <path d="M343.288324,26.5667545 C342.401564,27.1641574 341.328256,27.9645058 340.211982,28.9737506 L341.80603,31.1115266 C341.975925,31.3393725 341.967706,31.6912516 341.793924,31.9058545 C341.625224,32.1141813 341.343155,32.1135678 341.175257,31.890466 L339.490066,29.6511961 C338.808679,30.3150224 338.12284,31.0555266 337.464187,31.8740202 L339.279345,33.256283 C339.505461,33.4284731 339.594551,33.7689865 339.486654,34.0231769 C339.381912,34.2699334 339.110601,34.3470924 338.887712,34.1789122 L336.864454,32.6522707 L336.864454,32.6522707 C336.138725,33.6366768 335.460644,34.7222284 334.876581,35.9108473 C334.820416,36.0251485 334.765541,36.1403329 334.711928,36.2563445 L337.447675,37.6677451 C337.700257,37.7980545 337.847123,38.1179244 337.785005,38.3869892 C337.724703,38.6481851 337.470912,38.7712846 337.222205,38.6443637 L334.323588,37.1651341 C333.83583,38.4013499 333.475095,39.7102163 333.212136,41.0302866 L336.509687,42.1201888 C336.779544,42.2093815 336.974641,42.5023382 336.955378,42.7778079 C336.936679,43.0452213 336.705269,43.2065068 336.43977,43.120055 L333.034469,42.0112237 L333.034469,42.0112237 C332.807185,43.3997639 332.679806,44.7838915 332.618428,46.0923826 L335.477237,46.5089121 C335.758483,46.5498896 336.001487,46.8045175 336.030352,47.0791471 C336.058372,47.345745 335.858486,47.544764 335.582007,47.5057291 L332.583671,47.0824061 C332.54968,48.5267468 332.5904,49.8486941 332.655372,50.9422441 L335.255144,50.6822796 C335.537948,50.6540006 335.835334,50.8422768 335.929781,51.1017657 C336.021465,51.3536658 335.875663,51.59513 335.597953,51.6241408 L332.724022,51.9243652 C332.828842,53.2254142 332.949136,54.0185548 332.949136,54.0185548 C332.984989,54.2996221 332.809585,54.617438 332.555377,54.7375616 L332.460283,54.7824977 C332.19583,54.9074631 331.962832,54.7842177 331.916982,54.5180357 C331.916982,54.5180357 331.752206,53.6685468 331.600813,52.2696227 L329.00221,54.0247949 C328.766949,54.1836973 328.506686,54.0974158 328.41224,53.8379269 C328.320555,53.5860269 328.428451,53.240416 328.659401,53.0829337 L331.494783,51.1495152 L331.494783,51.1495152 C331.403873,50.0320297 331.339091,48.6960743 331.35582,47.2349238 L331.35582,47.2349238 L328.601415,48.2394189 C328.3347,48.3366863 328.103041,48.1900044 328.074177,47.9153748 C328.046156,47.6487769 328.234458,47.3395345 328.496646,47.2426019 L331.382203,46.1757925 C331.431033,44.9108336 331.54582,43.5740377 331.758783,42.2196698 L329.437825,42.6304313 C329.158271,42.6799064 328.955603,42.4952258 328.974866,42.2197561 C328.993565,41.9523427 329.232705,41.6804966 329.507742,41.6305651 L331.93983,41.1890321 C332.213749,39.7819502 332.601524,38.370756 333.138854,37.0155763 L333.138854,37.0155763 L330.38306,37.0654226 C330.099208,37.0705569 329.927926,36.8564457 329.990044,36.5873808 C330.050346,36.3261849 330.329068,36.0950955 330.60853,36.088804 L333.565066,36.0222433 C333.725364,35.6762981 333.896478,35.3351925 334.079044,34.9999996 C334.677333,33.9015338 335.318163,32.9026629 335.978796,31.9966553 L332.426649,31.4363536 C332.146218,31.3921196 332.014718,31.1515183 332.122615,30.8973279 C332.227357,30.6505715 332.541973,30.4713924 332.818281,30.5137245 L336.398085,31.062171 L336.58149,31.2018358 C337.274164,30.3231311 337.98065,29.5413629 338.675879,28.8491096 L338.675879,28.8491096 L335.720436,27.4732392 C335.463062,27.3534216 335.402974,27.0858943 335.576756,26.8712914 C335.745456,26.6629647 336.097272,26.5774466 336.351209,26.6942998 L339.44217,28.1166573 C340.571903,27.0802681 341.64552,26.2809526 342.549802,25.6851922 L340.035379,23.9269438 C339.802721,23.764254 339.790002,23.4903569 339.998409,23.3091912 C340.200721,23.1333238 340.562043,23.1101973 340.791831,23.2693708 L343.459196,25.1170525 C344.487067,24.5100973 345.137261,24.2469586 345.137261,24.2469586 C345.388624,24.1288126 345.678577,24.2420005 345.776701,24.4956226 L345.794171,24.5407767 C345.892777,24.7956451 345.776255,25.1021793 345.534989,25.2282238 C345.534989,25.2282238 344.987384,25.492052 344.119904,26.0291472 L345.396737,28.5667098 C345.524486,28.820596 345.455289,29.1657021 345.246881,29.3468678 C345.044569,29.5227352 344.766892,29.4731503 344.640286,29.2242828 L343.288324,26.5667545 Z M316.765888,18.0358958 C316.694881,19.1621939 316.584238,20.4794733 316.41183,21.8529574 L313.490479,21.1226196 C313.219595,21.0548987 313,21.2319336 313,21.5 C313,21.7761424 313.215057,22.0538136 313.490479,22.1227319 L316.280904,22.8209769 C316.071142,24.2639321 315.789507,25.7335066 315.411372,27.0796925 L315,27 L312.19009,24.7216355 C311.973206,24.545779 311.699368,24.6134224 311.586078,24.8563731 C311.469375,25.106643 311.546934,25.4491858 311.767425,25.628045 L314.576995,27.9071375 L315.126143,28.0133979 L315.126143,28.0133979 C314.96799,28.4892148 314.795681,28.943049 314.60795,29.3671827 C314.22853,30.2243889 313.730436,31.1320174 313.163395,32.0498417 L313,32 L310.443637,29.440401 C310.246323,29.2428374 309.966914,29.2814863 309.82885,29.5112641 C309.686626,29.7479643 309.727955,30.0967377 309.928541,30.2976646 L312.48449,32.8579521 L312.621275,32.8996445 C311.748614,34.2275317 310.764296,35.5508514 309.817707,36.7487608 L307.87552,34.0720107 C307.711541,33.8460127 307.429526,33.8404766 307.257216,34.0458273 C307.079715,34.2573647 307.065975,34.6083094 307.23266,34.8381412 L309.188176,37.5344826 L309.188176,37.5344826 C308.260382,38.6770082 307.404697,39.6651481 306.773267,40.3758275 L306.773267,40.3758275 L305.764882,37.59985 C305.669549,37.337408 305.399984,37.2543524 305.177747,37.4042533 C304.948815,37.5586701 304.838873,37.8922325 304.935751,38.1591056 L306.036944,41.1926081 C305.822634,41.4265402 305.702011,41.5544011 305.702011,41.5544011 C305.513746,41.7576968 305.505054,42.1024099 305.668689,42.3069526 L305.732231,42.3863801 C305.902093,42.5987071 306.188528,42.6037446 306.370959,42.3972589 C306.370959,42.3972589 306.487431,42.2674715 306.695116,42.0315332 L308.86075,43.978156 C309.068421,44.1648251 309.429053,44.1864547 309.65129,44.0365538 C309.880223,43.882137 309.900978,43.6087314 309.689881,43.4189003 L307.333223,41.2996539 C308.006406,40.5208132 308.969862,39.3860046 310.017294,38.0882827 L312.609559,39.349895 C312.860638,39.472091 313.213262,39.393479 313.385572,39.1881282 C313.563072,38.9765909 313.507663,38.7080557 313.252419,38.5837646 L310.638802,37.3110645 C311.672084,36.0064284 312.74594,34.5855272 313.675813,33.2210714 L313.675813,33.2210714 L315.945035,33.912739 C316.212139,33.9941531 316.548124,33.8613464 316.686188,33.6315686 C316.828412,33.3948684 316.731676,33.1383073 316.460131,33.0554754 L314.236564,32.3772005 C314.791886,31.518035 315.27147,30.6972406 315.625949,29.9610157 C315.869719,29.4547232 316.088479,28.8726009 316.284778,28.2375944 L318.128838,28.5944207 C318.402988,28.647469 318.723251,28.4802698 318.83654,28.2373192 C318.953243,27.9870492 318.830219,27.7420051 318.551504,27.6880112 L316.549376,27.3001511 C316.899745,25.9429398 317.165475,24.4184602 317.366843,22.9091209 L317.366843,22.9091209 L320.509521,22.1227319 C320.780405,22.0549489 321,21.7680664 321,21.5 C321,21.2238576 320.784943,21.0537643 320.509521,21.1226196 L317.495372,21.8761569 C317.657385,20.4776316 317.766988,19.1290773 317.840855,17.9804732 L318.292639,17.9571803 L321.392055,16.0912843 C321.631285,15.9472644 321.757408,15.608714 321.679033,15.3523608 C321.598297,15.0882845 321.342906,14.9885002 321.099651,15.1348722 L318,17 L317.898109,17.0052753 C317.975708,15.5446223 317.98968,14.5909572 317.98968,14.5909572 C317.996086,14.3182633 317.778104,14.0972013 317.501491,14.0972013 L317.398235,14.0972013 C317.12221,14.0972013 316.896994,14.3113373 316.893081,14.5962347 C316.893081,14.5962347 316.893625,15.5685444 316.820492,17.0610672 L314.387307,17.1870418 C314.10846,17.2014786 313.95022,17.4349813 314.028595,17.6913344 C314.109331,17.9554107 314.396175,18.1580723 314.679711,18.1434539 L316.765888,18.0358958 L316.765888,18.0358958 Z M326,57 C338.70255,57 349,46.7025499 349,34 C349,21.2974501 338.70255,11 326,11 C313.29745,11 303,21.2974501 303,34 C303,46.7025499 313.29745,57 326,57 Z" id="baseball_F"></path>
            </g>
        </g>
    </g>
</svg>