<?xml version="1.0" encoding="UTF-8" standalone="no"?>
<svg width="47px" height="47px" viewBox="0 0 47 47" version="1.1" xmlns="http://www.w3.org/2000/svg" xmlns:xlink="http://www.w3.org/1999/xlink" xmlns:sketch="http://www.bohemiancoding.com/sketch/ns">
    <!-- Generator: Sketch 3.1.1 (8761) - http://www.bohemiancoding.com/sketch -->
    <title>basketball_F</title>
    <desc>Created with Sketch.</desc>
    <defs></defs>
    <g id="Page-1" stroke="none" stroke-width="1" fill="none" fill-rule="evenodd" sketch:type="MSPage">
        <g id="full-icons" sketch:type="MSLayerGroup" transform="translate(-2.000000, -405.000000)" fill="#900C21">
            <g id="row-5-full-icons" transform="translate(2.000000, 396.000000)" sketch:type="MSShapeGroup">
                <path d="M35.1952382,28.6403612 C36.111315,28.6403614 38.3689212,32.4487817 39.8764214,36.0191756 C41.3839214,39.5895697 42.2566846,44.1914104 42.2566846,44.1914104 C42.2566846,44.1914104 39.2305267,49.2389129 34.4999996,51.936099 C29.7694723,54.6332846 25.6741876,54.9819338 25.6741876,54.9819338 C25.6741876,54.9819338 29.1095859,51.6841695 30.5129162,41.7973116 C31.7835285,32.8454919 34.2791614,28.640361 35.1952382,28.6403612 Z M37.2175805,26.2789145 C37.2175805,25.9560496 39.5019773,25.322656 41.4144955,25.3226554 C43.3270137,25.3226554 45.0229177,26.0285424 45.3457827,26.9164206 C45.6686477,27.8042989 46.3551665,30.3164531 45.9832888,34.0651091 C45.6114112,37.8137651 43.843526,41.8111477 43.843526,41.8111477 C43.843526,41.8111477 42.7957589,37.3057653 41.4144955,34.065109 C40.0332319,30.824453 37.2175805,26.6017794 37.2175805,26.2789145 Z M36.0501607,18.5421747 C34.2542249,19.873992 32.785703,21.0647103 32.785703,21.0647103 L35.6545757,24.493851 C35.6545757,24.493851 38.3345389,23.1620342 40.6993384,23.1620339 C43.0641378,23.1620337 44.6140747,23.8884795 44.6140747,23.8884795 C44.6140747,23.8884795 43.3484018,21.0931538 42.2113779,19.3725988 C41.0743537,17.6520438 39.4630028,16.0938313 39.4630028,16.0938313 C39.4630028,16.0938313 37.8460965,17.2103574 36.0501607,18.5421747 Z M28.026868,16.9288255 L31.0371228,19.6913517 L37.9572932,14.4381481 C37.9572932,14.4381481 36.4821654,13.4113281 33.923799,11.7756514 C32.4705483,10.8465242 29.8862607,9.91625867 29.8862607,9.91625867 C29.8862607,9.91625867 30.5999146,11.5194803 30.4175156,13.21004 C30.2351167,14.9005998 28.026868,16.9288255 28.026868,16.9288255 Z M21.0471492,9.06625058 C24.1612765,8.85374853 27.1499455,9.42119863 27.6549894,9.54438011 C28.1060261,9.65438907 28.7369278,11.2903369 28.4518721,12.5725341 C28.1563585,13.901773 27.0174831,15.3350605 26.3799775,15.3350605 C26.0460272,15.3350605 23.7151171,13.604573 21.047149,12.3600319 C18.1975771,11.0307771 15.011119,10.1818862 15.011119,10.1818862 C15.011119,10.1818862 17.9330219,9.27875261 21.0471492,9.06625058 Z M4.59866557,18.1250105 C6.97598826,15.0907939 10.2560668,12.0412789 12.7798477,12.0412789 C16.799352,12.041279 23.4717972,15.6018644 23.6063653,17.0148262 C23.7340547,18.3555611 15.801433,20.0426019 9.67859921,21.2873534 C3.5557654,22.5321049 1.16718708,24.5169806 1.16718708,24.5169806 C1.16718708,24.5169806 2.1551069,21.2437652 4.59866557,18.1250105 Z M25.9018467,18.2038376 L29.1956284,21.3382424 C29.1956284,21.3382424 21.705824,27.1128963 14.9116085,34.1030996 C8.11739276,41.0933027 4.49947664,45.8033318 4.49947664,45.8033318 C4.49947664,45.8033318 2.27708571,42.5114494 0.826608845,38.0196508 C-0.623868115,33.5278521 0.295353804,27.9789307 0.295353804,27.9789307 C0.295353804,27.9789307 2.1557196,24.1040727 12.3017182,22.6663801 C22.4477169,21.2286882 25.9018467,18.2038376 25.9018467,18.2038376 Z M30.856706,22.6227468 C30.856706,22.6227468 23.8847457,28.0774689 18.0214506,34.0483485 C12.1581553,40.0192277 6.07650324,47.3287566 6.07650324,47.3287566 C6.07650324,47.3287566 8.55927064,50.5982202 13.0306113,52.9090909 C17.501952,55.2199612 22.5005036,55.2199612 22.5005036,55.2199612 C22.5005036,55.2199612 26.709657,52.1692359 28.05445,42.0491738 C29.3992428,31.9291116 33.6877391,25.7047039 33.6877391,25.7047039 L30.856706,22.6227468 Z" id="basketball_F"></path>
            </g>
        </g>
    </g>
</svg>