<?xml version="1.0" encoding="UTF-8" standalone="no"?>
<svg width="48px" height="48px" viewBox="0 0 48 48" version="1.1" xmlns="http://www.w3.org/2000/svg" xmlns:xlink="http://www.w3.org/1999/xlink" xmlns:sketch="http://www.bohemiancoding.com/sketch/ns">
    <!-- Generator: Sketch 3.1.1 (8761) - http://www.bohemiancoding.com/sketch -->
    <title>billiards_ball_L</title>
    <desc>Created with Sketch.</desc>
    <defs></defs>
    <g id="Page-1" stroke="none" stroke-width="1" fill="none" fill-rule="evenodd" sketch:type="MSPage">
        <g id="full-icons" sketch:type="MSLayerGroup" transform="translate(-500.000000, -406.000000)" fill="#900C21">
            <g id="row-5-full-icons" transform="translate(2.000000, 396.000000)" sketch:type="MSShapeGroup">
                <path d="M522,58 C535.254835,58 546,47.2548347 546,34 C546,20.7451653 535.254835,10 522,10 C508.745165,10 498,20.7451653 498,34 C498,47.2548347 508.745165,58 522,58 Z M528.5,43 C535.40356,43 541,37.4035597 541,30.5 C541,23.5964403 535.40356,18 528.5,18 C521.59644,18 516,23.5964403 516,30.5 C516,37.4035597 521.59644,43 528.5,43 Z M525.037171,29.5392873 C524.295204,29.0691406 523.811751,28.3468906 523.586799,27.3725157 C523.305609,26.154547 523.505472,25.005941 524.186393,23.9266631 C524.867315,22.8473852 526.018469,22.1205899 527.63989,21.7462554 C529.208025,21.384223 530.532733,21.5133622 531.614055,22.1336768 C532.695377,22.7539915 533.363442,23.616028 533.61827,24.7198121 C533.853767,25.7398608 533.785632,26.6255355 533.413863,27.3768626 C533.207195,27.8014235 532.838916,28.2552716 532.309017,28.7384204 C533.058567,28.8941128 533.674019,29.1288669 534.15539,29.4426896 C535.054303,30.0369633 535.644346,30.9430709 535.925536,32.1610396 C536.257692,33.5997651 536.055943,34.9312143 535.320284,36.155427 C534.584625,37.3796397 533.333786,38.1955968 531.567732,38.6033226 C529.97676,38.9706273 528.531572,38.8492582 527.232125,38.2392116 C525.932678,37.629165 525.093163,36.5020298 524.713557,34.8577721 C524.490362,33.8910094 524.533464,33.0010918 524.842863,32.1879924 C525.152263,31.3748931 525.728248,30.6746487 526.570834,30.0872382 C525.943674,29.9754524 525.432457,29.7928039 525.037171,29.5392873 Z M531.134967,27.4038666 C531.528121,26.7798999 531.643855,26.1177606 531.482171,25.4174286 C531.341575,24.8084442 530.968816,24.3051855 530.36388,23.9076372 C529.758944,23.5100889 528.957882,23.4264282 527.96067,23.6566527 C526.971071,23.8851198 526.314398,24.3053249 525.990633,24.9172808 C525.666868,25.5292366 525.584071,26.1777585 525.74224,26.8628659 C525.919742,27.6317086 526.344034,28.1671686 527.015131,28.4692621 C527.686228,28.7713555 528.409993,28.8327719 529.186448,28.6535131 C530.092312,28.4443779 530.741812,28.0278332 531.134967,27.4038666 Z M533.372456,35.4024185 C533.881844,34.7435992 534.018787,33.9041778 533.78329,32.8841291 C533.539006,31.8260188 533.030081,31.0976228 532.2565,30.6989192 C531.482918,30.3002156 530.589923,30.2177347 529.577486,30.4514741 C528.595499,30.6781837 527.858901,31.1428994 527.36767,31.845635 C526.876439,32.5483706 526.745059,33.3945255 526.973526,34.3841251 C527.170359,35.2367031 527.623943,35.9077189 528.334291,36.3971925 C529.044639,36.8866661 529.993558,36.994321 531.181078,36.7201606 C532.132616,36.5004807 532.863068,36.0612377 533.372456,35.4024185 Z" id="billiards_ball_L"></path>
            </g>
        </g>
    </g>
</svg>