<?xml version="1.0" encoding="UTF-8" standalone="no"?>
<svg width="32px" height="50px" viewBox="0 0 32 50" version="1.1" xmlns="http://www.w3.org/2000/svg" xmlns:xlink="http://www.w3.org/1999/xlink" xmlns:sketch="http://www.bohemiancoding.com/sketch/ns">
    <!-- Generator: Sketch 3.1.1 (8761) - http://www.bohemiancoding.com/sketch -->
    <title>bookshelf_F</title>
    <desc>Created with Sketch.</desc>
    <defs></defs>
    <g id="Page-1" stroke="none" stroke-width="1" fill="none" fill-rule="evenodd" sketch:type="MSPage">
        <g id="full-icons" sketch:type="MSLayerGroup" transform="translate(-108.000000, -203.000000)" fill="#900C21">
            <g id="row-3-full-icons" transform="translate(4.000000, 202.000000)" sketch:type="MSShapeGroup">
                <path d="M105,1 C104.447715,1 104,1.44752574 104,1.99876896 L104,50.001231 C104,50.5528359 104.443865,51 105,51 C105.552285,51 106,50.5524743 106,50.001231 L106,1.99876896 C106,1.44716409 105.556135,1 105,1 Z M135,1 C134.447715,1 134,1.44752574 134,1.99876896 L134,50.001231 C134,50.5528359 134.443865,51 135,51 C135.552285,51 136,50.5524743 136,50.001231 L136,1.99876896 C136,1.44716409 135.556135,1 135,1 Z M106,5 L106,47 L134,47 L134,5 L106,5 Z M106,18 L106,19 L134,19 L134,18 L106,18 Z M108.5,8 C107.671573,8 107,8.67646277 107,9.50639765 L107,17 L110,17 L110,9.50639765 C110,8.6744372 109.334203,8 108.5,8 Z M112.5,8 C111.671573,8 111,8.67646277 111,9.50639765 L111,17 L114,17 L114,9.50639765 C114,8.6744372 113.334203,8 112.5,8 Z M127.5,22 C126.671573,22 126,22.6764628 126,23.5063976 L126,31 L129,31 L129,23.5063976 C129,22.6744372 128.334203,22 127.5,22 Z M131.5,22 C130.671573,22 130,22.6764628 130,23.5063976 L130,31 L133,31 L133,23.5063976 C133,22.6744372 132.334203,22 131.5,22 Z M123.5,22 C122.671573,22 122,22.6764628 122,23.5063976 L122,31 L125,31 L125,23.5063976 C125,22.6744372 124.334203,22 123.5,22 Z M112.5,37 C111.671573,37 111,37.6764628 111,38.5063976 L111,46 L114,46 L114,38.5063976 C114,37.6744372 113.334203,37 112.5,37 Z M116.5,37 C115.671573,37 115,37.6764628 115,38.5063976 L115,46 L118,46 L118,38.5063976 C118,37.6744372 117.334203,37 116.5,37 Z M118.547734,38.1038069 C117.922512,38.647304 117.85947,39.5984284 118.403956,40.2247882 L123.320201,45.8802817 L125.58433,43.9121046 L120.668085,38.2566111 C120.122269,37.6287226 119.177315,37.5565206 118.547734,38.1038069 Z M108.5,37 C107.671573,37 107,37.6764628 107,38.5063976 L107,46 L110,46 L110,38.5063976 C110,37.6744372 109.334203,37 108.5,37 Z M132,15.5 C132,14.6715729 131.323537,14 130.493602,14 L123,14 L123,17 L130.493602,17 C131.325563,17 132,16.3342028 132,15.5 Z M106,32 L106,33 L134,33 L134,32 L106,32 Z" id="bookshelf_F"></path>
            </g>
        </g>
    </g>
</svg>