<?xml version="1.0" encoding="UTF-8" standalone="no"?>
<svg width="48px" height="48px" viewBox="0 0 48 48" version="1.1" xmlns="http://www.w3.org/2000/svg" xmlns:xlink="http://www.w3.org/1999/xlink" xmlns:sketch="http://www.bohemiancoding.com/sketch/ns">
    <!-- Generator: Sketch 3.1.1 (8761) - http://www.bohemiancoding.com/sketch -->
    <title>bowling _ball_F</title>
    <desc>Created with Sketch.</desc>
    <defs></defs>
    <g id="Page-1" stroke="none" stroke-width="1" fill="none" fill-rule="evenodd" sketch:type="MSPage">
        <g id="full-icons" sketch:type="MSLayerGroup" transform="translate(-400.000000, -406.000000)" fill="#900C21">
            <g id="row-5-full-icons" transform="translate(2.000000, 396.000000)" sketch:type="MSShapeGroup">
                <path d="M422,58 C435.254835,58 446,47.2548347 446,34 C446,20.7451653 435.254835,10 422,10 C408.745165,10 398,20.7451653 398,34 C398,47.2548347 408.745165,58 422,58 Z M423,24 C424.656854,24 426,22.6568543 426,21 C426,19.3431457 424.656854,18 423,18 C421.343146,18 420,19.3431457 420,21 C420,22.6568543 421.343146,24 423,24 Z M416,37 C417.656854,37 419,35.6568543 419,34 C419,32.3431457 417.656854,31 416,31 C414.343146,31 413,32.3431457 413,34 C413,35.6568543 414.343146,37 416,37 Z M414,24 C415.656854,24 417,22.6568543 417,21 C417,19.3431457 415.656854,18 414,18 C412.343146,18 411,19.3431457 411,21 C411,22.6568543 412.343146,24 414,24 Z" id="bowling-_ball_F"></path>
            </g>
        </g>
    </g>
</svg>