<?xml version="1.0" encoding="UTF-8" standalone="no"?>
<svg width="52px" height="50px" viewBox="0 0 52 50" version="1.1" xmlns="http://www.w3.org/2000/svg" xmlns:xlink="http://www.w3.org/1999/xlink" xmlns:sketch="http://www.bohemiancoding.com/sketch/ns">
    <!-- Generator: Sketch 3.1.1 (8761) - http://www.bohemiancoding.com/sketch -->
    <title>building_F</title>
    <desc>Created with Sketch.</desc>
    <defs></defs>
    <g id="Page-1" stroke="none" stroke-width="1" fill="none" fill-rule="evenodd" sketch:type="MSPage">
        <g id="full-icons" sketch:type="MSLayerGroup" transform="translate(-298.000000, -302.000000)" fill="#900C21">
            <g id="row-4-full-icons" transform="translate(0.000000, 302.000000)" sketch:type="MSShapeGroup">
                <path d="M334.054569,18.0014636 L334.054569,15.0480089 L335.011551,15.0480089 L335.011551,8.11497688 L338.0401,8.11497688 L338.0401,15.0480089 L343.998308,15.0480089 L343.998308,20.0115967 L347.024536,20.0115967 L347.024536,48.02948 L349.029968,48.02948 L349.029968,50 L347.024536,50 L333,50 L318,50 L298.971695,50 L298.971695,48.02948 L302.115249,48.02948 L302.115249,22.1023865 L313.98526,22.1023865 L313.98526,48.02948 L315.105532,48.02948 L315.105532,8.11497688 L333,0 L333,15.0480089 L333,48.02948 L334.054569,48.02948 L334.054569,19.9985364 C334.581477,19.9702006 335,19.533976 335,19 C335,18.466024 334.581477,18.0297994 334.054569,18.0014636 Z M304,26 L304,28 L305,28 L305,26 L304,26 Z M308,26 L308,28 L309,28 L309,26 L308,26 Z M312,26 L312,28 L313,28 L313,26 L312,26 Z M304,30 L304,32 L305,32 L305,30 L304,30 Z M308,30 L308,32 L309,32 L309,30 L308,30 Z M312,30 L312,32 L313,32 L313,30 L312,30 Z M319,15 L319,16 L329,16 L329,15 L319,15 Z M319,12 L319,13 L329,13 L329,12 L319,12 Z M319,18 L319,19 L329,19 L329,18 L319,18 Z M319,21 L319,22 L329,22 L329,21 L319,21 Z M319,24 L319,25 L329,25 L329,24 L319,24 Z M319,32 L319,33 L329,33 L329,32 L319,32 Z M319,35 L319,36 L329,36 L329,35 L319,35 Z M319,38 L319,39 L329,39 L329,38 L319,38 Z M319,41 L319,42 L329,42 L329,41 L319,41 Z M319,44 L319,45 L329,45 L329,44 L319,44 Z M337,20 C337.552285,20 338,19.5522848 338,19 C338,18.4477152 337.552285,18 337,18 C336.447715,18 336,18.4477152 336,19 C336,19.5522848 336.447715,20 337,20 Z M340,20 C340.552285,20 341,19.5522848 341,19 C341,18.4477152 340.552285,18 340,18 C339.447715,18 339,18.4477152 339,19 C339,19.5522848 339.447715,20 340,20 Z" id="building_F"></path>
            </g>
        </g>
    </g>
</svg>