<?xml version="1.0" encoding="UTF-8" standalone="no"?>
<svg width="45px" height="50px" viewBox="0 0 45 50" version="1.1" xmlns="http://www.w3.org/2000/svg" xmlns:xlink="http://www.w3.org/1999/xlink" xmlns:sketch="http://www.bohemiancoding.com/sketch/ns">
    <!-- Generator: Sketch 3.1.1 (8761) - http://www.bohemiancoding.com/sketch -->
    <title>chair_F</title>
    <desc>Created with Sketch.</desc>
    <defs></defs>
    <g id="Page-1" stroke="none" stroke-width="1" fill="none" fill-rule="evenodd" sketch:type="MSPage">
        <g id="full-icons" sketch:type="MSLayerGroup" transform="translate(-400.000000, -203.000000)" fill="#900C21">
            <g id="row-3-full-icons" transform="translate(4.000000, 202.000000)" sketch:type="MSShapeGroup">
                <path d="M406.036896,47.000074 C409.333626,47.0133085 412,48.7990658 412,51 L400,51 C400,49.0142918 402.17039,47.3665316 405.015945,47.053537 L396.875932,16.6745963 L397.841858,16.4157773 L406.036896,47.000074 L406.036896,47.000074 Z M426.46595,25.0937333 C421.309837,25.0937328 418.520245,21.7366995 415.700337,21.7366995 C412.880428,21.7366995 415.539769,26.7163848 416.170322,29.1569828 C416.798522,31.5884756 416.935492,31.6973337 416.935492,31.6973337 C416.935492,31.6973337 419.851832,34.1705919 420.622966,35.9999996 C421.394099,37.8294072 421.394099,39.0000001 421.394099,39.0000001 L432.071339,39.0000001 C432.071339,39.0000001 432.071339,37.8783525 433.183898,35.9999994 C434.296456,34.1216463 436.351109,32.1093362 436.351109,32.1093362 C436.351109,32.1093362 436.379664,31.4745744 437.051072,29.1569828 C437.72248,26.8393911 439.736699,21.7366997 437.319636,21.7366995 C434.902573,21.7366992 431.622064,25.0937338 426.46595,25.0937333 Z M434.497098,35.9718597 C433.31259,37.8258708 433.045292,40.0182669 433.045292,40.0182669 L420.444057,40.0182669 C420.444057,40.0182669 420.444057,37.3109909 418.999864,35.2994369 C417.555672,33.2878829 416.06256,32.0763638 414.360476,32.0763638 C412.658392,32.0763639 413.695671,37.5402191 414.822022,39.6320143 C416.627263,42.9846044 418.712339,45.0478067 426.78133,45.0477367 C435.213533,45.0476635 436.897537,42.9330258 438.548042,39.6320143 C440.198547,36.3310028 441.382354,32.0763638 439.286627,32.0763638 C437.1909,32.0763638 435.681605,34.1178486 434.497098,35.9718597 Z M431.736381,45 C431.184097,45 430.87385,45.4158887 431.048881,45.9454209 L432.423881,50.1052726 C432.59647,50.6274141 433.182812,51.0274773 433.739594,50.9985223 L433.838237,50.9933925 C434.392296,50.9645792 434.690058,50.5139434 434.507895,49.9998172 L433.069936,45.9414042 C432.885719,45.421481 432.292517,45 431.736381,45 Z M421.811899,45 C421.259614,45 420.661942,45.4315052 420.486099,45.9375 L419.052582,50.0625 C418.872648,50.580267 419.168982,51 419.720487,51 L419.818195,51 C420.367002,51 420.955734,50.5684948 421.128805,50.0492822 L422.494993,45.9507178 C422.670015,45.4256509 422.368034,45 421.811899,45 Z M397.5,16 C398.328427,16 399,15.3284272 399,14.5 C399,13.6715728 398.328427,13 397.5,13 C396.671573,13 396,13.6715728 396,14.5 C396,15.3284272 396.671573,16 397.5,16 Z M399.089746,13.0669873 L399.589746,13.9330127 L416.910254,3.9330127 L416.410254,3.0669873 L399.089746,13.0669873 Z M427,11 C427,7.13400656 423.865993,4 420,4 C416.134007,4 413,7.13400656 413,11 L427,11 Z M419.5,1 C419.223858,1 419,1.2157526 419,1.49538898 L419,3.50461102 C419,3.7782068 419.231934,4 419.5,4 C419.776142,4 420,3.7842474 420,3.50461102 L420,1.49538898 C420,1.2217932 419.768066,1 419.5,1 Z" id="chair_F"></path>
            </g>
        </g>
    </g>
</svg>