<?xml version="1.0" encoding="UTF-8" standalone="no"?>
<svg width="51px" height="39px" viewBox="0 0 51 39" version="1.1" xmlns="http://www.w3.org/2000/svg" xmlns:xlink="http://www.w3.org/1999/xlink" xmlns:sketch="http://www.bohemiancoding.com/sketch/ns">
    <!-- Generator: Sketch 3.1.1 (8761) - http://www.bohemiancoding.com/sketch -->
    <title>crown_F</title>
    <desc>Created with Sketch.</desc>
    <defs></defs>
    <g id="Page-1" stroke="none" stroke-width="1" fill="none" fill-rule="evenodd" sketch:type="MSPage">
        <g id="full-icons" sketch:type="MSLayerGroup" transform="translate(-205.000000, -109.000000)" fill="#900C21">
            <g id="row-2-full-icons" transform="translate(6.000000, 104.000000)" sketch:type="MSShapeGroup">
                <path d="M224.02678,8.99982437 L229.531698,30 L239.297693,14 L236.620476,30 L247.157873,20.8922415 L244,30 L241.197099,44 L206.997681,44 L204,30 L201.201185,20.8922415 L209.830428,30 L208.807809,14 L218.430152,30 L223.973036,8.99982195 C222.880895,8.98539081 222,8.09556745 222,7 C222,5.89543045 222.89543,5 224,5 C225.10457,5 226,5.89543045 226,7 C226,8.095629 225.119006,8.98549079 224.02678,8.99982437 Z M208.104736,38 L208.510986,40 L239.542236,40 L239.979736,38 L208.104736,38 Z M200.5,21 C201.328427,21 202,20.3284272 202,19.5 C202,18.6715728 201.328427,18 200.5,18 C199.671573,18 199,18.6715728 199,19.5 C199,20.3284272 199.671573,21 200.5,21 Z M208.5,14 C209.328427,14 210,13.3284272 210,12.5 C210,11.6715728 209.328427,11 208.5,11 C207.671573,11 207,11.6715728 207,12.5 C207,13.3284272 207.671573,14 208.5,14 Z M248.5,21 C249.328427,21 250,20.3284272 250,19.5 C250,18.6715728 249.328427,18 248.5,18 C247.671573,18 247,18.6715728 247,19.5 C247,20.3284272 247.671573,21 248.5,21 Z M239.5,14 C240.328427,14 241,13.3284272 241,12.5 C241,11.6715728 240.328427,11 239.5,11 C238.671573,11 238,11.6715728 238,12.5 C238,13.3284272 238.671573,14 239.5,14 Z" id="crown_F"></path>
            </g>
        </g>
    </g>
</svg>