<?xml version="1.0" encoding="UTF-8" standalone="no"?>
<svg width="47px" height="49px" viewBox="0 0 47 49" version="1.1" xmlns="http://www.w3.org/2000/svg" xmlns:xlink="http://www.w3.org/1999/xlink" xmlns:sketch="http://www.bohemiancoding.com/sketch/ns">
    <!-- Generator: Sketch 3.1.1 (8761) - http://www.bohemiancoding.com/sketch -->
    <title>delete_use_F</title>
    <desc>Created with Sketch.</desc>
    <defs></defs>
    <g id="Page-1" stroke="none" stroke-width="1" fill="none" fill-rule="evenodd" sketch:type="MSPage">
        <g id="full-icons" sketch:type="MSLayerGroup" transform="translate(-304.000000, -505.000000)" fill="#900C21">
            <g id="row-6-full-icons" transform="translate(4.000000, 505.000000)" sketch:type="MSShapeGroup">
                <path d="M323,24 C328.522848,24 333,18.6274173 333,12 C333,5.37258267 328.522848,0 323,0 C317.477152,0 313,5.37258267 313,12 C313,18.6274173 317.477152,24 323,24 Z M323,22 C327.418278,22 331,17.5228478 331,12 C331,6.47715223 327.418278,2 323,2 C318.581722,2 315,6.47715223 315,12 C315,17.5228478 318.581722,22 323,22 Z M333.046668,27.4528129 C330.011207,26.5220976 326.602316,26 323,26 C310.29745,26 300,32.4918707 300,40.5 L301.774196,40.5258208 C301.774196,40.5258208 301.774196,38.352891 303.552048,35.6531894 C305.3299,32.9534879 309.478221,30.1879406 314,29.0685524 C318.521779,27.9491644 319.138338,27.7516253 323,27.7516251 C326.861662,27.7516248 331.602601,28.805167 331.602601,28.805167 L333.046669,29.0685525 L333.046668,27.4528129 Z M337,49 C342.522848,49 347,44.5228478 347,39 C347,33.4771522 342.522848,29 337,29 C331.477152,29 327,33.4771522 327,39 C327,44.5228478 331.477152,49 337,49 Z M343.5073,34.0787616 L342.03391,32.6053712 L337.127244,37.5120362 L332.198099,32.5828908 L330.731557,34.0494325 L335.660703,38.9785779 L330.590945,44.048336 L332.064335,45.5217268 L337.134094,40.4519688 L342.092786,45.4106614 L343.559328,43.9441197 L338.600635,38.9854271 L343.5073,34.0787616 Z" id="delete_use_F"></path>
            </g>
        </g>
    </g>
</svg>