<?xml version="1.0" encoding="UTF-8" standalone="no"?>
<svg width="46px" height="46px" viewBox="0 0 46 46" version="1.1" xmlns="http://www.w3.org/2000/svg" xmlns:xlink="http://www.w3.org/1999/xlink" xmlns:sketch="http://www.bohemiancoding.com/sketch/ns">
    <!-- Generator: Sketch 3.1.1 (8761) - http://www.bohemiancoding.com/sketch -->
    <title>football_F</title>
    <desc>Created with Sketch.</desc>
    <defs></defs>
    <g id="Page-1" stroke="none" stroke-width="1" fill="none" fill-rule="evenodd" sketch:type="MSPage">
        <g id="full-icons" sketch:type="MSLayerGroup" transform="translate(-201.000000, -406.000000)" fill="#900C21">
            <g id="row-5-full-icons" transform="translate(2.000000, 396.000000)" sketch:type="MSShapeGroup">
                <path d="M222,62 C226.492601,62 239,49.0162585 239,33 C239,16.9837415 226.053591,3.99999898 222,4 C217.946409,4.00000104 205,16.9837415 205,33 C205,49.0162585 217.507399,62.0000012 222,62 Z M223,21 L223,22 L225.226263,22 C225.226263,22 225.678603,24.4894908 225.891562,27.9989448 C225.894041,28.0397903 223.765608,27.9800386 223.765608,27.9800386 L223.765608,28.9662499 C223.930561,28.9741402 225.943435,28.9857701 225.944266,29.0046178 C225.979138,29.7963473 226,30.6288067 226,31.4874411 C226,32.6288811 225.963133,33.816831 225.905493,34.9765979 C225.903858,35.0094972 223.765608,34.9923916 223.765608,34.9923916 L223.765608,36.0103474 C223.962206,36.015761 225.850158,35.9823871 225.848412,36.0112791 C225.700966,38.4511054 225.438359,40.7622234 225.303284,41.9955692 L223,41.9955692 L223,43.0130615 L229,43.0130615 L229,41.9955692 C228.821572,41.992873 227.161857,42.0111381 227.163873,41.9955701 C227.31852,40.8015595 227.580409,38.5716515 227.749165,36.0103477 L229.828125,36.0103474 L229.828125,34.9923916 C229.646323,34.9867527 227.808526,35.0203457 227.810022,34.9923917 C227.871154,33.8499417 227.909879,32.6625026 227.909879,31.4874411 C227.909879,30.6020229 227.887892,29.7586367 227.850899,28.9662498 C227.849943,28.9457829 229.828125,28.9662499 229.828125,28.9662499 L229.828125,27.9800386 C229.667639,27.973438 227.797573,28.0063791 227.795862,27.9800386 C227.559377,24.3391477 227.037354,22 227.037354,22 L229,22 L229,21 L223,21 Z M222,49.5099886 C214.626571,49.4873155 211.031616,48.7439568 211.099563,48.8726063 C212.236049,51.0244045 213.514019,52.9358979 214.805023,54.5413653 C214.941747,54.7113924 218.896809,54.7825745 222,54.7825737 C225.103191,54.7825737 229.222023,54.5091791 229.373428,54.317383 C230.605554,52.7565572 231.820373,50.9191108 232.90584,48.8623727 C233.016398,48.6528883 229.373428,49.5326616 222,49.5099886 Z M222,15.4827995 C228.962506,15.4828005 232.173772,16.2528878 232.044785,16.0359009 C230.842571,14.0134792 229.53446,12.2319684 228.256852,10.7529327 C228.068709,10.5351265 225.130112,10.2397043 222,10.1888938 C218.869888,10.1380833 215.753899,10.7401113 215.67036,10.8374858 C214.35112,12.3752184 213.002168,14.2336572 211.773287,16.3451984 C211.679579,16.5062138 215.037494,15.482799 222,15.4827995 Z" id="football_F" transform="translate(222.000000, 33.000000) rotate(-45.000000) translate(-222.000000, -33.000000) "></path>
            </g>
        </g>
    </g>
</svg>