<?xml version="1.0" encoding="UTF-8" standalone="no"?>
<svg width="46px" height="47px" viewBox="0 0 46 47" version="1.1" xmlns="http://www.w3.org/2000/svg" xmlns:xlink="http://www.w3.org/1999/xlink" xmlns:sketch="http://www.bohemiancoding.com/sketch/ns">
    <!-- Generator: Sketch 3.1.1 (8761) - http://www.bohemiancoding.com/sketch -->
    <title>gift_F</title>
    <desc>Created with Sketch.</desc>
    <defs></defs>
    <g id="Page-1" stroke="none" stroke-width="1" fill="none" fill-rule="evenodd" sketch:type="MSPage">
        <g id="full-icons" sketch:type="MSLayerGroup" transform="translate(-1.000000, -3.000000)" fill="#900C21">
            <g id="row-1-full-icons" transform="translate(1.000000, 0.000000)" sketch:type="MSShapeGroup">
                <path d="M1.38777878e-17,13.5772426 L1.38777878e-17,26 L2.87855482,26.0000005 L2.87855482,50.0000005 L43.0713692,50.0000005 L43.0713692,26.0000005 L46,26.0000005 L46,13.5772426 L1.38777878e-17,13.5772426 Z M23,13 L26,3 L20,3 L23,13 Z M26.496988,6.39375502 L30.8684497,10.5983668 L24.4235639,12.6940718 L26.496988,6.39375502 Z M18.8886429,5.02558766 L21.5896856,12.6872311 L14.5391685,8.25852769 L18.8886429,5.02558766 Z M20,16 L20,48 L26,48 L26,16 L20,16 Z M27,31 L27,37 L41,37 L41,31 L27,31 Z M5,31 L5,37 L19,37 L19,31 L5,31 Z" id="gift_F"></path>
            </g>
        </g>
    </g>
</svg>