<?xml version="1.0" encoding="UTF-8" standalone="no"?>
<svg width="49px" height="40px" viewBox="0 0 49 40" version="1.1" xmlns="http://www.w3.org/2000/svg" xmlns:xlink="http://www.w3.org/1999/xlink" xmlns:sketch="http://www.bohemiancoding.com/sketch/ns">
    <!-- Generator: Sketch 3.1.1 (8761) - http://www.bohemiancoding.com/sketch -->
    <title>glasses_F</title>
    <desc>Created with Sketch.</desc>
    <defs></defs>
    <g id="Page-1" stroke="none" stroke-width="1" fill="none" fill-rule="evenodd" sketch:type="MSPage">
        <g id="full-icons" sketch:type="MSLayerGroup" transform="translate(-6.000000, -109.000000)" fill="#900C21">
            <g id="row-2-full-icons" transform="translate(6.000000, 104.000000)" sketch:type="MSShapeGroup">
                <path d="M36,45 C40.6220294,45 44.4302883,41.5158357 44.9416295,37.0306541 C44.9524213,36.9359955 48.0057373,37.0306549 48.0057373,37.0306549 L48.0057373,35.8263187 C48.0057371,27.5544225 48.0057373,10.4406586 48.0057373,10.4406586 L44.4203949,5 L42.1271801,5 L46.0213623,11.0106303 L46.0213623,35.0059624 C46.0213623,35.0059624 44.9476943,35.0238554 44.9457284,35.0059629 C44.4509969,30.5031417 40.6345999,27 36,27 C31.029437,27 27,31.029437 27,36 C27,40.970563 31.029437,45 36,45 Z M3.05570321,37.0069808 C3.55631924,41.5035699 7.36984189,45 12,45 C16.970563,45 21,40.970563 21,36 C21,31.029437 16.970563,27 12,27 C7.36748281,27 3.55243347,30.4999939 3.0549406,34.999893 C3.05105393,35.0350486 1.99864435,34.9998931 1.99864435,34.9998931 L1.99864435,11.0245745 L5.7147218,5.00000018 L3.64872181,5.00000018 L0.0170813799,10.4705812 L0.0170813799,37.0069809 C0.0170813799,37.0069809 3.04853399,36.9425861 3.05570321,37.0069808 Z M24,34.434021 C22.875061,34.4340211 21.9656166,34.7435062 21.9656166,34.7435062 C21.4323213,34.8851638 21,35.4438648 21,36 C21,36.5522847 21.4357781,36.8733431 21.9541191,36.7363082 C21.9541191,36.7363082 22.921814,36.402771 24,36.402771 C25.078186,36.402771 26.0458809,36.7363082 26.0458809,36.7363082 C26.5728263,36.8819412 27,36.5561352 27,36 C27,35.4477153 26.5729137,34.8799704 26.0343834,34.7435062 C26.0343834,34.7435062 25.124939,34.4340209 24,34.434021 Z" id="glasses_F"></path>
            </g>
        </g>
    </g>
</svg>