<?xml version="1.0" encoding="UTF-8" standalone="no"?>
<svg width="48px" height="48px" viewBox="0 0 48 48" version="1.1" xmlns="http://www.w3.org/2000/svg" xmlns:xlink="http://www.w3.org/1999/xlink" xmlns:sketch="http://www.bohemiancoding.com/sketch/ns">
    <!-- Generator: Sketch 3.1.1 (8761) - http://www.bohemiancoding.com/sketch -->
    <title>home_F</title>
    <desc>Created with Sketch.</desc>
    <defs></defs>
    <g id="Page-1" stroke="none" stroke-width="1" fill="none" fill-rule="evenodd" sketch:type="MSPage">
        <g id="full-icons" sketch:type="MSLayerGroup" transform="translate(-400.000000, -303.000000)" fill="#900C21">
            <g id="row-4-full-icons" transform="translate(0.000000, 302.000000)" sketch:type="MSShapeGroup">
                <path d="M424.000001,6.15770814 L405.988313,20.827321 L405.988313,48.9653425 L419.056325,48.9653425 L419.056326,37.041564 C419.056326,37.041564 418.918175,30.9542292 424,30.9542284 C429.081825,30.9542284 429.081825,37.041564 429.081825,37.041564 L429.081824,48.9653425 L442.067955,48.9653425 L442.067956,20.827321 L424.000001,6.15770814 Z M448,21.1109257 L424,1 L400.072006,21.1109257 L400.072006,23.5893021 L424,3.88996339 L448,23.5893021 L448,21.1109257 Z M435,1.28999388 L434.004971,1.28999388 L434.004971,3.2653811 L435,3.26538107 L435,7.92651367 L439,11.3427362 L439,3.2653811 L440.065344,3.2653811 L440.065344,1.28999388 L439,1.28999388 L435,1.28999388 Z" id="home_F"></path>
            </g>
        </g>
    </g>
</svg>