<?xml version="1.0" encoding="UTF-8" standalone="no"?>
<svg width="30px" height="51px" viewBox="0 0 30 51" version="1.1" xmlns="http://www.w3.org/2000/svg" xmlns:xlink="http://www.w3.org/1999/xlink" xmlns:sketch="http://www.bohemiancoding.com/sketch/ns">
    <!-- Generator: Sketch 3.1.1 (8761) - http://www.bohemiancoding.com/sketch -->
    <title>key_F</title>
    <desc>Created with Sketch.</desc>
    <defs></defs>
    <g id="Page-1" stroke="none" stroke-width="1" fill="none" fill-rule="evenodd" sketch:type="MSPage">
        <g id="full-icons" sketch:type="MSLayerGroup" transform="translate(-209.000000, -2.000000)" fill="#900C21">
            <g id="row-1-full-icons" transform="translate(1.000000, 0.000000)" sketch:type="MSShapeGroup">
                <path d="M220,22.8989829 L220,50.004493 C220,51.6588658 221.346517,53 223,53 C224.656854,53 226,51.6600918 226,50.0048815 L226,48 L230.078915,48 L230.078915,45.9628949 L229.012646,45.9628944 L229.012646,40.075079 L230.078915,40.075079 L230.078915,38 L226,38 L226,22.8989829 L226,22.8989829 C227.270517,24.1955329 229.041312,25 231,25 C234.865993,25 238,21.8659934 238,18 C238,14.1340066 234.865993,11 231,11 C230.545706,11 230.101519,11.0432765 229.671338,11.1259319 C229.884804,10.4554783 230,9.74119196 230,9 C230,5.13400656 226.865993,2 223,2 C219.134007,2 216,5.13400656 216,9 C216,9.74119196 216.115196,10.4554783 216.328662,11.1259319 C215.898481,11.0432765 215.454294,11 215,11 C211.134007,11 208,14.1340066 208,18 C208,21.8659934 211.134007,25 215,25 C216.958688,25 218.729483,24.1955329 220,22.8989829 Z M223,20 C224.656854,20 226,18.6568543 226,17 C226,15.3431457 224.656854,14 223,14 C221.343146,14 220,15.3431457 220,17 C220,18.6568543 221.343146,20 223,20 Z" id="key_F"></path>
            </g>
        </g>
    </g>
</svg>