<?xml version="1.0" encoding="UTF-8" standalone="no"?>
<svg width="40px" height="47px" viewBox="0 0 40 47" version="1.1" xmlns="http://www.w3.org/2000/svg" xmlns:xlink="http://www.w3.org/1999/xlink" xmlns:sketch="http://www.bohemiancoding.com/sketch/ns">
    <!-- Generator: Sketch 3.1.1 (8761) - http://www.bohemiancoding.com/sketch -->
    <title>lamp_F</title>
    <desc>Created with Sketch.</desc>
    <defs></defs>
    <g id="Page-1" stroke="none" stroke-width="1" fill="none" fill-rule="evenodd" sketch:type="MSPage">
        <g id="full-icons" sketch:type="MSLayerGroup" transform="translate(-4.000000, -206.000000)" fill="#900C21">
            <g id="row-3-full-icons" transform="translate(4.000000, 202.000000)" sketch:type="MSShapeGroup">
                <path d="M9.91108322,4 L0,29 C0,29 8.22155417,30.1117735 18.5529184,30.2101088 C18.8906551,30.2133234 13.0183203,39.3816248 13.0183201,42.9584465 C13.0183199,46.5352682 18.11343,50.9822388 18.11343,50.9822388 L22.099844,50.9822388 C22.099844,50.9822388 27.015995,46.5408707 27.015995,43.0770721 C27.0159949,39.6132736 21.1532135,30.2130288 21.5061603,30.2095348 C24.630973,30.1786009 28.0047371,29.9632123 30.5712891,29.8062515 C30.5797034,29.8057369 30.5712891,34.1530762 30.5712891,34.1530762 C30.5712891,34.1530762 29.993164,34.3924561 29.9931641,34.9812012 C29.9931641,35.5699463 30.4601727,35.9845695 31,36 C31.5398273,36.0154305 32.0556641,35.6168213 32.0556641,34.9812012 C32.055664,34.3455811 31.5398273,34.1530762 31.5398273,34.1530762 C31.5398273,34.1530762 31.510444,29.8082833 31.5398266,29.8062522 C36.6500772,29.4529979 40,29 40,29 L30.0860596,4 L9.91108322,4 Z M11.2747622,6 L2.80532926,27.3357503 C2.80532926,27.3357503 10.6658044,28.2325553 20.0158044,28.2325544 C29.3658044,28.2325528 37.2110485,27.3357503 37.2110485,27.3357503 L28.7309437,6 L11.2747622,6 Z" id="lamp_F"></path>
            </g>
        </g>
    </g>
</svg>