<?xml version="1.0" encoding="UTF-8" standalone="no"?>
<svg width="48px" height="42px" viewBox="0 0 48 42" version="1.1" xmlns="http://www.w3.org/2000/svg" xmlns:xlink="http://www.w3.org/1999/xlink" xmlns:sketch="http://www.bohemiancoding.com/sketch/ns">
    <!-- Generator: Sketch 3.1.1 (8761) - http://www.bohemiancoding.com/sketch -->
    <title>map_F</title>
    <desc>Created with Sketch.</desc>
    <defs></defs>
    <g id="Page-1" stroke="none" stroke-width="1" fill="none" fill-rule="evenodd" sketch:type="MSPage">
        <g id="full-icons" sketch:type="MSLayerGroup" transform="translate(-200.000000, -307.000000)" fill="#900C21">
            <g id="row-4-full-icons" transform="translate(0.000000, 302.000000)" sketch:type="MSShapeGroup">
                <path d="M214.69677,21.2284577 L214.69677,41.3771329 L200,46.1933094 L200,9.91898512 L214.69677,5.28253969 L214.69677,20.0522612 L211.909674,21.0666813 L212.287696,22.1052889 L214.69677,21.2284577 L214.69677,21.2284577 Z M242.58601,15.9722104 L242.907347,21.5789474 L243.090909,21.5789474 L243.674735,15.9440006 C244.290171,15.7057949 244.727273,15.1019828 244.727273,14.3947368 C244.727273,13.4791068 243.994648,12.7368421 243.090909,12.7368421 C242.18717,12.7368421 241.454545,13.4791068 241.454545,14.3947368 C241.454545,15.1318581 241.929355,15.7566224 242.58601,15.9722104 L242.58601,15.9722104 Z M215.91536,4.99203997 L215.91536,41.4497573 L232.187118,46.8966264 L232.187118,10.5115349 L215.91536,4.99203997 Z M233.405708,10.4389102 L233.405708,46.8966286 L248,41.9273293 L248,5.78166044 L233.405708,10.4389102 Z M243.619476,23.7417837 L242.923911,22.8828329 L240.380524,24.9424269 L241.076089,25.8013777 L243.619476,23.7417837 Z M240.00394,27.5998831 L239.037255,27.0640409 L237.450605,29.9264327 L238.41729,30.4622749 L240.00394,27.5998831 Z M236.880685,32.2099344 L235.997982,31.5447704 L234.028406,34.1584866 L234.911108,34.8236506 L236.880685,32.2099344 Z M229.076089,32.8302013 L228.380524,33.6891521 L230.923911,35.7487461 L231.619476,34.8897953 L229.076089,32.8302013 Z M226.32879,28.1878559 L225.391474,28.7735561 L227.125755,31.5489862 L228.063071,30.963286 L226.32879,28.1878559 Z M222.715362,23.8863768 L221.920302,24.6541571 L224.193729,27.0083601 L224.988789,26.2405798 L222.715362,23.8863768 Z M217.927634,20.8549116 L217.391792,21.8215966 L220.254184,23.4082463 L220.790026,22.4415613 L217.927634,20.8549116 Z M206.468807,23.4574747 L206.953322,24.4508787 L209.89483,23.0162095 L209.410314,22.0228055 L206.468807,23.4574747 Z M202.283938,27.3458429 L203.078998,28.1136232 L205.352425,25.7594202 L204.557366,24.9916399 L202.283938,27.3458429 Z" id="map_F"></path>
            </g>
        </g>
    </g>
</svg>