<?xml version="1.0" encoding="UTF-8" standalone="no"?>
<svg width="46px" height="43px" viewBox="0 0 46 43" version="1.1" xmlns="http://www.w3.org/2000/svg" xmlns:xlink="http://www.w3.org/1999/xlink" xmlns:sketch="http://www.bohemiancoding.com/sketch/ns">
    <!-- Generator: Sketch 3.1.1 (8761) - http://www.bohemiancoding.com/sketch -->
    <title>mistletoe_F</title>
    <desc>Created with Sketch.</desc>
    <defs></defs>
    <g id="Page-1" stroke="none" stroke-width="1" fill="none" fill-rule="evenodd" sketch:type="MSPage">
        <g id="full-icons" sketch:type="MSLayerGroup" transform="translate(-501.000000, -3.000000)" fill="#900C21">
            <g id="row-1-full-icons" transform="translate(1.000000, 0.000000)" sketch:type="MSShapeGroup">
                <path d="M526.796476,7.52366198 C525.883336,6.52927703 525.309679,3.45586119 525.309679,3.45586119 C525.309679,3.45586119 523.725537,7.01117937 523.075628,7.37521144 C522.425718,7.73924352 520.609205,6.87335359 520.609205,6.87335359 C520.609205,6.87335359 521.281605,9.93401311 520.47438,10.8867865 C519.667156,11.8395599 518.33554,11.0830417 518.33554,11.0830417 C518.33554,11.0830417 519.6027,15.7925322 519.277639,16.5108833 C518.952579,17.2292344 517.729193,16.8520504 517.729193,16.8520504 L520.18787,24.4526233 C520.18787,24.4526233 521.279328,24.4658654 521.997535,24.9623522 C522.397484,25.238832 522.737555,25.4905651 522.95346,25.8737809 C523.150674,26.2238204 524.699664,7.30327852 524.991955,7.33399939 C525.284247,7.3647203 523.389365,26.5033381 523.599649,26.2594583 C523.803547,26.0229864 524.259598,25.7491017 524.719462,25.5795709 C525.608883,25.2516821 526.473576,25.4328027 526.473576,25.4328027 L530.056174,17.3337979 C530.056174,17.3337979 528.577515,17.9497036 528.497934,16.7282059 C528.418353,15.5067083 530.599067,12.1685222 530.599067,12.1685222 C530.599067,12.1685222 528.636949,12.9182692 528.297589,11.7090389 C527.95823,10.4998086 529.027934,7.75819768 529.027934,7.75819768 C529.027934,7.75819768 527.709616,8.51804706 526.796476,7.52366198 Z M502.582653,39.8216307 C502.431255,41.1631612 500.488072,43.6124485 500.488072,43.6124485 C500.488072,43.6124485 504.210595,42.4755164 504.911712,42.7271829 C505.61283,42.9788495 506.151074,44.9178641 506.151074,44.9178641 C506.151074,44.9178641 508.019849,42.4024245 509.268503,42.3865686 C510.517157,42.3707127 510.819824,43.8720169 510.819824,43.8720169 C510.819824,43.8720169 513.54279,39.8259756 514.298196,39.6000211 C515.053601,39.3740667 515.57155,40.5448227 515.57155,40.5448227 L518.726155,35.3057804 C518.726155,35.3057804 518.289501,34.4894708 518.5,33.359375 C518.710499,32.2292792 519.296875,31.5781247 519.296875,31.5781247 L518.931107,31.470872 C518.931107,31.470872 504.807442,41.288724 504.635113,40.9316356 C504.42351,40.4931672 518.730953,31.3409597 518.505188,31.2197045 C518.118172,31.0118436 517.782949,30.8809591 517.198242,30.1773688 C516.526658,29.3692389 516.459975,28.2988368 516.459975,28.2988368 L507.847902,30.925477 C507.847902,30.925477 509.28282,31.6373646 508.413154,32.4987999 C507.543488,33.3602353 503.59345,33.9044767 503.59345,33.9044767 C503.59345,33.9044767 505.446556,34.8934277 504.756578,35.942872 C504.0666,36.9923163 501.295691,37.9836586 501.295691,37.9836586 C501.295691,37.9836586 502.734052,38.4801002 502.582653,39.8216307 Z M541.44437,43.8537067 C542.74493,43.4915346 545.743799,44.3757034 545.743799,44.3757034 C545.743799,44.3757034 543.295172,41.3501426 543.26587,40.6058017 C543.236568,39.8614608 544.832761,38.6360417 544.832761,38.6360417 C544.832761,38.6360417 541.80043,37.8456436 541.317975,36.6938517 C540.83552,35.5420598 542.114124,34.699033 542.114124,34.699033 C542.114124,34.699033 537.342658,33.6900167 536.850177,33.074261 C536.357696,32.4585054 537.249175,31.5396985 537.249175,31.5396985 L529.358684,30.3787671 C529.358684,30.3787671 528.999714,31.5532361 527.878933,32.0984796 C527.782101,32.1455867 542.75579,41.8342968 542.588056,42.0925846 C542.420322,42.3508724 527.370783,32.5269651 527.159053,32.5783988 C527.054717,32.6037442 526.656576,32.670795 526.190509,32.6646832 C525.710776,32.6583922 525.239375,32.5783995 525.239375,32.5783995 C525.239375,32.5783995 525.558327,32.7614446 525.604447,33.5671405 C525.650566,34.3728363 525.474331,35.1726428 525.474331,35.1726428 L531.223603,42.3044105 C531.223603,42.3044105 531.346124,40.7073004 532.470615,41.1909413 C533.595107,41.6745822 535.579429,45.1331173 535.579429,45.1331173 C535.579429,45.1331173 535.802182,43.0444793 537.033681,43.2910869 C538.265179,43.5376945 540.222336,45.7354735 540.222336,45.7354735 C540.222336,45.7354735 540.143809,44.2158787 541.44437,43.8537067 Z M520.036092,31 C521.692946,31 523.036092,29.6568543 523.036092,28 C523.036092,26.3431457 521.692946,25 520.036092,25 C518.379238,25 517.036092,26.3431457 517.036092,28 C517.036092,29.6568543 518.379238,31 520.036092,31 Z M522.036092,37 C523.692946,37 525.036092,35.6568543 525.036092,34 C525.036092,32.3431457 523.692946,31 522.036092,31 C520.379238,31 519.036092,32.3431457 519.036092,34 C519.036092,35.6568543 520.379238,37 522.036092,37 Z M526.036092,32 C527.692946,32 529.036092,30.6568543 529.036092,29 C529.036092,27.3431457 527.692946,26 526.036092,26 C524.379238,26 523.036092,27.3431457 523.036092,29 C523.036092,30.6568543 524.379238,32 526.036092,32 Z" id="mistletoe_F"></path>
            </g>
        </g>
    </g>
</svg>