<?xml version="1.0" encoding="UTF-8" standalone="no"?>
<svg width="50px" height="45px" viewBox="0 0 50 45" version="1.1" xmlns="http://www.w3.org/2000/svg" xmlns:xlink="http://www.w3.org/1999/xlink" xmlns:sketch="http://www.bohemiancoding.com/sketch/ns">
    <!-- Generator: Sketch 3.1.1 (8761) - http://www.bohemiancoding.com/sketch -->
    <title>pet_footprint_F</title>
    <desc>Created with Sketch.</desc>
    <defs></defs>
    <g id="Page-1" stroke="none" stroke-width="1" fill="none" fill-rule="evenodd" sketch:type="MSPage">
        <g id="full-icons" sketch:type="MSLayerGroup" transform="translate(-99.000000, -6.000000)" fill="#900C21">
            <g id="row-1-full-icons" transform="translate(1.000000, 0.000000)" sketch:type="MSShapeGroup">
                <path d="M113.24454,33.3500594 C116.667245,28.8717718 117.136143,24.3591174 123.000001,24.3591164 C130.018687,24.3591153 130.421269,29.8610363 132.970938,33.3500594 C135.520607,36.8390826 144.779936,39.5229462 140.351565,46.903571 C135.923193,54.2841956 128.408371,45.8300247 123.000001,45.8300247 C117.591631,45.8300252 109.338148,54.8209703 105.461335,46.903571 C101.584524,38.9861716 109.122223,38.7437208 113.24454,33.3500594 Z M128.886615,21.9221445 C131.621165,22.3064605 134.336435,19.0711453 134.95134,14.6958655 C135.566246,10.3205857 133.847935,6.46217138 131.113385,6.07785545 C128.378835,5.69353952 125.663565,8.92885466 125.04866,13.3041345 C124.433754,17.6794143 126.152065,21.5378286 128.886615,21.9221445 Z M106.205099,32.6900936 C108.85955,31.928942 110.024151,27.8689348 108.806308,23.6218132 C107.588466,19.3746916 104.449352,16.5487549 101.794901,17.3099064 C99.1404501,18.071058 97.975849,22.1310652 99.1936915,26.3781868 C100.411534,30.6253084 103.550648,33.4512451 106.205099,32.6900936 Z M117.246469,21.8844364 C119.973895,21.4524545 121.624606,17.5646392 120.933435,13.2007574 C120.242264,8.83687547 117.470943,5.64944109 114.743517,6.08142295 C112.016091,6.51340482 110.36538,10.4012201 111.056551,14.765102 C111.747722,19.1289839 114.519042,22.3164183 117.246469,21.8844364 Z M139.929448,32.7274066 C142.596778,33.4421157 145.686095,30.5618243 146.829629,26.2940952 C147.973164,22.0263662 146.737883,17.9873025 144.070552,17.2725934 C141.403222,16.5578843 138.313905,19.4381757 137.170371,23.7059048 C136.026836,27.9736338 137.262117,32.0126975 139.929448,32.7274066 Z" id="pet_footprint_F"></path>
            </g>
        </g>
    </g>
</svg>