<?xml version="1.0" encoding="UTF-8" standalone="no"?>
<svg width="48px" height="48px" viewBox="0 0 48 48" version="1.1" xmlns="http://www.w3.org/2000/svg" xmlns:xlink="http://www.w3.org/1999/xlink" xmlns:sketch="http://www.bohemiancoding.com/sketch/ns">
    <!-- Generator: Sketch 3.1.1 (8761) - http://www.bohemiancoding.com/sketch -->
    <title>radar_F</title>
    <desc>Created with Sketch.</desc>
    <defs></defs>
    <g id="Page-1" stroke="none" stroke-width="1" fill="none" fill-rule="evenodd" sketch:type="MSPage">
        <g id="full-icons" sketch:type="MSLayerGroup" transform="translate(0.000000, -304.000000)" fill="#900C21">
            <g id="row-4-full-icons" transform="translate(0.000000, 302.000000)" sketch:type="MSShapeGroup">
                <path d="M38.9911226,26.5209642 C38.7166026,34.563999 32.1099061,41 24,41 C15.8901909,41 9.28355537,34.5641529 9.00888725,26.5212527 C9.213965,26.5198041 15.012465,26.4791634 15.0145055,26.5153098 C15.2715848,31.0695389 18.9148204,34.7184411 23.4666544,34.9844585 C23.5458551,34.9890871 23.4846239,40.9820113 23.4846239,40.9820113 L24.5717077,40.9820113 C24.5717077,40.9820113 24.5153994,34.9857322 24.581626,34.9815079 C29.108927,34.6927363 32.7261442,31.0566237 32.9851549,26.5212925 C32.9870416,26.488255 38.371591,26.517491 38.9911226,26.5209642 L38.9911226,26.5209642 Z M38.9923298,25.5157002 C38.742696,17.6455192 32.4304542,11.3051632 24.5716649,11.0106925 C24.5711453,11.5646035 24.566171,17.0175178 24.5717077,17.0178649 C29.1158824,17.3027216 32.7455141,20.9597402 32.9871813,25.5154998 C32.988276,25.5361363 38.3786912,25.5178489 38.9923298,25.5157002 L38.9923298,25.5157002 Z M23.4847643,11.008683 C15.611026,11.2744559 9.27599073,17.6085886 9.00877782,25.4819617 C9.2119254,25.466975 15.0129933,25.5113779 15.0146113,25.4828186 C15.2729224,20.9234702 18.9250362,17.2719243 23.4846243,17.0145092 C23.5036003,17.0134379 23.4865084,11.5511355 23.4847643,11.008683 L23.4847643,11.008683 Z M9.00258167,25.718872 C9.00086306,25.8123747 9,25.9060866 9,26 C9,26.1011025 9.00100025,26.2019714 9.00299139,26.3025973 C9.00276637,26.1317639 9.00251739,25.8946519 9.00258167,25.718872 L9.00258167,25.718872 Z M24,50 C37.2548347,50 48,39.2548347 48,26 C48,12.7451653 37.2548347,2 24,2 C10.7451653,2 0,12.7451653 0,26 C0,39.2548347 10.7451653,50 24,50 Z M1.99060059,26.5037546 C1.99060059,26.5037546 8.00765551,26.500185 8.00834097,26.5215876 C8.27813142,34.9453312 15.059322,41.7247959 23.4837615,41.9918295 C23.5009234,41.9923734 23.4653972,48.0037241 23.490922,48.0037241 L24.5579815,48.0037241 C24.5579815,48.0037241 24.5424414,41.9909902 24.5625759,41.9902945 C32.9714707,41.6997166 39.7319153,34.9203068 39.9922204,26.5037544 C39.9925532,26.4929915 46.0461426,26.5037546 46.0461426,26.5037546 L46.0461426,25.5046625 C46.0461426,25.5046625 39.9926321,25.5097137 39.9924785,25.504662 C39.7363749,17.08268 32.9718107,10.2979099 24.5579809,10.0095474 C24.5539328,10.0094087 24.5579815,3.96658038 24.5579815,3.96658038 L23.490922,3.96658039 C23.4857815,4.04537123 23.4989307,10.0076948 23.4909219,10.0079452 C15.0591448,10.271489 8.27173514,17.0587528 8.00795925,25.4904712 C8.00721179,25.5143639 1.99060059,25.4904718 1.99060059,25.4904718 L1.99060059,26.5037546 Z M23.479952,26.511102 C23.479952,26.511102 16.01354,26.4710806 16.0160633,26.5111024 C16.2687726,30.5192052 19.4729364,33.7261995 23.4798295,33.9833598 C23.5421386,33.9873588 23.4799523,25.4900034 23.4799523,25.4900034 L24.5912828,25.4900034 C24.5912828,25.4900034 24.5525157,33.9813317 24.5950456,33.9782046 C28.5719436,33.6857965 31.7408178,30.4861217 31.9848764,26.4959716 C31.985958,26.4782895 24.5912825,26.495972 24.5912825,26.495972 L24.5912825,25.4900034 C24.5912825,25.4900034 31.9871318,25.5404578 31.9845341,25.4984637 C31.7377934,21.5096458 28.5680957,18.3120505 24.5912832,18.0215196 C24.5218132,18.0164444 24.5912825,25.4900034 24.5912825,25.4900034 L23.479952,25.4900034 C23.479952,25.4900034 23.510645,18.0146629 23.4799519,18.0166323 C19.4726331,18.2737586 16.2681857,21.481344 16.0159937,25.4900036 C16.014304,25.5168613 23.479952,25.4900034 23.479952,25.4900034 L23.479952,26.511102 Z M16.5,18 C17.3284272,18 18,17.3284272 18,16.5 C18,15.6715728 17.3284272,15 16.5,15 C15.6715728,15 15,15.6715728 15,16.5 C15,17.3284272 15.6715728,18 16.5,18 Z M16.5,45 C17.3284272,45 18,44.3284272 18,43.5 C18,42.6715728 17.3284272,42 16.5,42 C15.6715728,42 15,42.6715728 15,43.5 C15,44.3284272 15.6715728,45 16.5,45 Z M28.5,24 C29.3284272,24 30,23.3284272 30,22.5 C30,21.6715728 29.3284272,21 28.5,21 C27.6715728,21 27,21.6715728 27,22.5 C27,23.3284272 27.6715728,24 28.5,24 Z" id="radar_F"></path>
            </g>
        </g>
    </g>
</svg>