<?xml version="1.0" encoding="UTF-8" standalone="no"?>
<svg width="47px" height="49px" viewBox="0 0 47 49" version="1.1" xmlns="http://www.w3.org/2000/svg" xmlns:xlink="http://www.w3.org/1999/xlink" xmlns:sketch="http://www.bohemiancoding.com/sketch/ns">
    <!-- Generator: Sketch 3.1.1 (8761) - http://www.bohemiancoding.com/sketch -->
    <title>search_user_F</title>
    <desc>Created with Sketch.</desc>
    <defs></defs>
    <g id="Page-1" stroke="none" stroke-width="1" fill="none" fill-rule="evenodd" sketch:type="MSPage">
        <g id="full-icons" sketch:type="MSLayerGroup" transform="translate(-404.000000, -505.000000)" fill="#900C21">
            <g id="row-6-full-icons" transform="translate(4.000000, 505.000000)" sketch:type="MSShapeGroup">
                <path d="M423,24 C428.522848,24 433,18.6274173 433,12 C433,5.37258267 428.522848,0 423,0 C417.477152,0 413,5.37258267 413,12 C413,18.6274173 417.477152,24 423,24 Z M423,22 C427.418278,22 431,17.5228478 431,12 C431,6.47715223 427.418278,2 423,2 C418.581722,2 415,6.47715223 415,12 C415,17.5228478 418.581722,22 423,22 Z M433.046668,27.4528129 C430.011207,26.5220976 426.602316,26 423,26 C410.29745,26 400,32.4918707 400,40.5 L401.774196,40.5258208 C401.774196,40.5258208 401.774196,38.352891 403.552048,35.6531894 C405.3299,32.9534879 409.478221,30.1879406 414,29.0685524 C418.521779,27.9491644 419.138338,27.7516253 423,27.7516251 C426.861662,27.7516248 431.602601,28.805167 431.602601,28.805167 L433.046669,29.0685525 L433.046668,27.4528129 Z M434,45 C435.770042,45 437.386641,44.3430307 438.619258,43.2596311 C438.642529,43.2391769 445.32918,48.7490768 445.32918,48.7490768 L446.732706,47.0870056 C446.732706,47.0870056 440.080649,41.4711521 440.119611,41.4012 C440.680471,40.3942282 441,39.2344291 441,38 C441,34.1340066 437.865993,31 434,31 C430.134007,31 427,34.1340066 427,38 C427,41.8659934 430.134007,45 434,45 Z" id="search_user_F"></path>
            </g>
        </g>
    </g>
</svg>