<?xml version="1.0" encoding="UTF-8" standalone="no"?>
<svg width="48px" height="48px" viewBox="0 0 48 48" version="1.1" xmlns="http://www.w3.org/2000/svg" xmlns:xlink="http://www.w3.org/1999/xlink" xmlns:sketch="http://www.bohemiancoding.com/sketch/ns">
    <!-- Generator: Sketch 3.1.1 (8761) - http://www.bohemiancoding.com/sketch -->
    <title>soccer_F</title>
    <desc>Created with Sketch.</desc>
    <defs></defs>
    <g id="Page-1" stroke="none" stroke-width="1" fill="none" fill-rule="evenodd" sketch:type="MSPage">
        <g id="full-icons" sketch:type="MSLayerGroup" transform="translate(-100.000000, -405.000000)" fill="#900C21">
            <g id="row-5-full-icons" transform="translate(2.000000, 396.000000)" sketch:type="MSShapeGroup">
                <path d="M122,57 C135.254835,57 146,46.2548347 146,33 C146,19.7451653 135.254835,9 122,9 C108.745165,9 98,19.7451653 98,33 C98,46.2548347 108.745165,57 122,57 Z M100.020775,33.9647875 C100.218842,38.5548721 101.823372,42.7803438 104.41424,46.2210776 C104.53275,46.3784612 104.594027,45.4891853 104.594027,45.4891853 L112.07244,48.0341949 L116.605497,54.3337784 C118.331594,54.7688808 120.138807,55 122,55 C123.81156,55 125.571979,54.7810433 127.256238,54.3681507 C127.453506,54.3197907 132.099194,47.6703606 132.099194,47.6703606 L139.544086,44.8508034 C139.544086,44.8508034 139.649978,46.13667 139.75974,45.9868235 C142.175281,42.6891252 143.694518,38.6936506 143.958702,34.3591467 C143.986101,33.909611 143.515892,35.1680737 143.515892,35.1680737 L138.550499,28.2215405 L138.349876,20.0211182 C138.349876,20.0211182 140.209403,20.648801 140.096732,20.4861702 C137.487737,16.7203267 133.733522,13.8081659 129.33783,12.2534317 C129.122487,12.177266 130.049145,14.22816 130.049145,14.22816 L122,16.359768 L114.400633,13.8018384 C114.400633,13.8018384 116.098338,11.7958601 115.672223,11.9236118 C114.815619,12.1804263 113.980974,12.4880361 113.171785,12.8429435 C109.404624,14.4952072 106.189192,17.1725732 103.878427,20.522102 C103.789417,20.6511253 105.824046,20.3722068 105.824046,20.3722068 L105.598346,28.9237157 L101.134508,35.2934628 C101.134508,35.2934628 100.006972,33.644915 100.020775,33.9647875 Z M122,25 L129.608452,30.527864 L126.702282,39.472136 L117.297718,39.472136 L114.391548,30.527864 L122,25 Z" id="soccer_F"></path>
            </g>
        </g>
    </g>
</svg>