<?xml version="1.0" encoding="UTF-8" standalone="no"?>
<svg width="40px" height="52px" viewBox="0 0 40 52" version="1.1" xmlns="http://www.w3.org/2000/svg" xmlns:xlink="http://www.w3.org/1999/xlink" xmlns:sketch="http://www.bohemiancoding.com/sketch/ns">
    <!-- Generator: Sketch 3.1.1 (8761) - http://www.bohemiancoding.com/sketch -->
    <title>Xmas_tree_F</title>
    <desc>Created with Sketch.</desc>
    <defs></defs>
    <g id="Page-1" stroke="none" stroke-width="1" fill="none" fill-rule="evenodd" sketch:type="MSPage">
        <g id="full-icons" sketch:type="MSLayerGroup" transform="translate(-404.000000, -2.000000)" fill="#900C21">
            <g id="row-1-full-icons" transform="translate(1.000000, 0.000000)" sketch:type="MSShapeGroup">
                <path d="M423,7 L435,17 L429.05574,17 L439.028446,27.0031128 L431.97077,27.0031128 L443,38.9874878 L426.018967,38.9874878 L426.018967,53.0205307 L420.037781,53.0205307 L420.037781,38.9874878 L403,38.9874878 L414.345015,27.0031128 L407.019592,27.0031128 L417.260043,17 L411,17 L423,7 Z M423,6.5 L421.236644,7.42705109 L421.573415,5.46352555 L420.14683,4.07294908 L422.118322,3.7864743 L423,2 L423.881678,3.78647474 L425.85317,4.07295051 L424.426585,5.46352592 L424.763356,7.42705113 L423,6.5 Z" id="Xmas_tree_F"></path>
            </g>
        </g>
    </g>
</svg>