<?xml version="1.0" encoding="UTF-8" standalone="no"?>
<svg width="24px" height="54px" viewBox="0 0 24 54" version="1.1" xmlns="http://www.w3.org/2000/svg" xmlns:xlink="http://www.w3.org/1999/xlink" xmlns:sketch="http://www.bohemiancoding.com/sketch/ns">
    <!-- Generator: Sketch 3.1.1 (8761) - http://www.bohemiancoding.com/sketch -->
    <title> popsicle_L</title>
    <desc>Created with Sketch.</desc>
    <defs>
        <radialGradient cx="50%" cy="50%" fx="50%" fy="50%" r="50%" id="radialGradient-1">
            <stop stop-color="#FF1B70" offset="0%"></stop>
            <stop stop-color="#FF1C70" offset="100%"></stop>
        </radialGradient>
    </defs>
    <g id="Page-2" stroke="none" stroke-width="1" fill="none" fill-rule="evenodd" sketch:type="MSPage">
        <g id="Artboard-1" sketch:type="MSArtboardGroup" transform="translate(-888.000000, -420.000000)" fill="#FF4D74">
            <g id="line-icons" sketch:type="MSLayerGroup" transform="translate(472.000000, 219.000000)">
                <g id="row-3-line-icons" transform="translate(3.000000, 201.000000)" sketch:type="MSShapeGroup">
                    <path d="M422,43.1798686 C418.005911,43.0701635 414.572134,42.6919895 414,42 C412.565045,40.2644384 413.668279,10.9922833 413.668279,10.9922833 C413.840301,4.91488107 418.924868,0 425,0 C431.076468,0 436.116245,4.91593375 436.259639,10.9800454 C436.259639,10.9800454 437.129103,40.5029143 436,42 C435.54152,42.6079024 432.064563,43.0082821 428,43.1532401 C428,45.5821933 428,51.002848 428,51.002848 C428,52.6583772 426.656854,54 425,54 C423.346517,54 422,52.6581293 422,51.002848 C422,51.002848 422,45.621563 422,43.1798685 L422,43.1798686 Z M424.949074,2 C419.996855,2 415.891252,6.00881906 415.791606,10.9659275 C415.791606,10.9659275 415.070838,38.8672828 415.982289,40.1266136 C416.893739,41.3859444 432.990778,41.4939766 434.021558,40.1266136 C435.052337,38.7592507 434.237205,10.9433264 434.237205,10.9433264 C434.118106,6.00406359 430.018059,2 425.054772,2 L424.949074,2 Z M424,43 C424,43 424,51.0024554 424,51.0024554 C424,51.553384 424.443865,52 425,52 C425.552285,52 426,51.5536886 426,51.0024554 L426,43 C426,43 424,43 424,43 Z M429,7 C427.343146,7 426,8.33425951 426,9.99610022 L426,36.0038998 C426,37.6586002 427.346517,39 429,39 C430.656854,39 432,37.6657405 432,36.0038998 L432,9.99610022 C432,8.34139976 430.653483,7 429,7 Z M421,7 C419.343146,7 418,8.33425951 418,9.99610022 L418,36.0038998 C418,37.6586002 419.346517,39 421,39 C422.656854,39 424,37.6657405 424,36.0038998 L424,9.99610022 C424,8.34139976 422.653483,7 421,7 Z M421,8 C419.895431,8 419,8.89784041 419,9.99161703 L419,36.008383 C419,37.1083227 419.88773,38 421,38 C422.104569,38 423,37.1021596 423,36.008383 L423,9.99161703 C423,8.89167732 422.11227,8 421,8 Z M429,8 C427.895431,8 427,8.89784041 427,9.99161703 L427,36.008383 C427,37.1083227 427.88773,38 429,38 C430.104569,38 431,37.1021596 431,36.008383 L431,9.99161703 C431,8.89167732 430.11227,8 429,8 Z" id="-popsicle_L"></path>
                </g>
            </g>
        </g>
    </g>
</svg>