<?xml version="1.0" encoding="UTF-8" standalone="no"?>
<svg width="45px" height="52px" viewBox="0 0 45 52" version="1.1" xmlns="http://www.w3.org/2000/svg" xmlns:xlink="http://www.w3.org/1999/xlink" xmlns:sketch="http://www.bohemiancoding.com/sketch/ns">
    <!-- Generator: Sketch 3.1.1 (8761) - http://www.bohemiancoding.com/sketch -->
    <title>british_tea_pot</title>
    <desc>Created with Sketch.</desc>
    <defs>
        <radialGradient cx="50%" cy="50%" fx="50%" fy="50%" r="50%" id="radialGradient-1">
            <stop stop-color="#FF1B70" offset="0%"></stop>
            <stop stop-color="#FF1C70" offset="100%"></stop>
        </radialGradient>
    </defs>
    <g id="Page-2" stroke="none" stroke-width="1" fill="none" fill-rule="evenodd" sketch:type="MSPage">
        <g id="Artboard-1" sketch:type="MSArtboardGroup" transform="translate(-876.000000, -522.000000)" fill="#FF4D74">
            <g id="line-icons" sketch:type="MSLayerGroup" transform="translate(472.000000, 219.000000)">
                <g id="row-4-line-icons" transform="translate(8.000000, 302.000000)" sketch:type="MSShapeGroup">
                    <path d="M420.789341,4.22805799 C422.992218,4.92825752 429,6.99999998 429,7 C429,7.97102253 427.616006,8.83429526 425.469681,9.38259674 C424.804503,10.9870335 425.646686,11.4356451 425.646686,11.4356451 C428.741798,11.4356451 431.150057,13.98643 430.985156,17.1786929 C431.306395,15.9229689 432.070383,14.9441911 433.06831,14.420487 C434.94975,13.4331224 437.421552,13.8525562 439.057493,15.0825187 C440.693433,16.3124811 441.308954,18.8909353 440.693433,21.0415816 C439.057493,26.757599 433.06831,32.051451 432.076074,37.7682325 C431.819308,39.2475961 433.800805,39.845749 434.029543,37.7682325 C434.25828,35.6907159 435.251148,37.7290326 435.251148,38.5913984 C435.251148,39.4537641 434.151627,41.0184249 432.528638,41.1357921 C431.077374,41.2407409 429.966419,40.2662466 429.494869,39.004423 L429.494869,39.004423 C429.496337,40.119222 429.512028,41.0036612 429.512028,41.0036612 C429.530767,44.312525 426.864521,47 423.545538,47 L416.065308,47 C412.746584,47 410.096111,44.316591 410.145889,41.0064383 C410.145889,41.0064383 410.261187,39.5064483 410.055758,35.7596722 C409.96009,34.0148126 409.805538,31.8041476 409.632543,29.5249411 C409.599128,29.0847093 405.986714,30.4986912 403.87876,28.0000001 C401.516747,25.200156 401.949523,22.325664 400.306093,19.578582 C398.666407,16.8377587 396.018731,15.4260742 396.000306,15.1977406 C395.966409,14.7776652 398.752789,12.7628534 400.917386,14.1421844 C403.319572,15.672913 404.66999,20.0433675 406.451398,22.0566187 C407.549426,23.2975507 409.105749,22.9630172 409.084243,22.7072388 C408.824358,19.6162481 408.62834,17.4131885 408.62834,17.4131885 C408.340344,14.1123264 410.753955,11.4356451 414.02059,11.4356451 C414.02059,11.4356451 412.049001,11.4356456 414.02059,11.4356451 C415.067219,11.4356451 414.4656,9.92551836 414.162498,9.28343593 L414.162498,9.28343593 C412.227187,8.73317988 411,7.9143608 411,7 C411,6.70124709 417.019049,4.88477976 419.212491,4.23274741 C419.079368,3.89305525 419,3.46506492 419,3 C419,1.89543045 419.447715,1 420,1 C420.552285,1 421,1.89543045 421,3 C421,3.46292741 420.92136,3.88912026 420.789341,4.22805799 Z M422.161843,49.0580727 C426.088257,49.2732062 429,50.0610393 429,51 C429,52.1045696 424.970563,53 420,53 C415.029437,53 411,52.1045696 411,51 C411,50.0609437 413.912336,49.2730459 417.839355,49.058007 C417.859276,48.9262608 417.870513,48.7926472 417.870513,48.6588522 C417.870513,47.4812508 417,47 417,47 L423,47 C423,47 422.131571,47.4605911 422.131571,48.6588522 C422.131571,48.7931312 422.142476,48.9267148 422.161843,49.0580727 L422.161843,49.0580727 Z M429.545554,35.9474369 C429.548565,35.8833774 429.55174,35.8207332 429.555088,35.7596722 C429.896489,29.5329479 430.547396,22.046623 430.831026,18.9082761 C430.873037,19.5821894 431.028484,20.2991519 431.317975,21.0415818 C431.691665,21.9999485 435.224628,21.5605263 434.029542,20.6296108 C433.06623,19.8792356 432.880387,19.1973944 433.06831,18.3657537 C433.217827,17.7040715 433.84712,15.9280818 436.299077,16.0268178 C438.751033,16.1255542 439.057493,18.898596 439.057493,19.0984807 C439.057493,25.2532468 431.374398,29.5348762 429.545554,35.9474369 L429.545554,35.9474369 Z M424.370314,13.1966786 C423.774687,13.1966786 423.222544,11.7351896 423.77379,10 C423.77379,10 416.21782,10 416.21782,10 C416.934439,11.4098417 416.330369,13.1966786 415.521875,13.1966786 C413.588035,13.1966789 414.204215,13.1966788 414.204215,13.1966788 C411.993736,13.1966787 410.326469,14.9809538 410.480658,17.1958011 C410.480658,17.1958011 410.811085,21.8942508 410.931298,23.799675 C410.950669,24.1067145 407.911186,25.3468647 406.08535,23.799675 C404.832045,22.9135895 403.586922,20.5852513 402.699914,18.7707491 C401.812906,16.9562469 400.67012,15.8771471 400.069328,15.3644776 C399.468536,14.8518082 398.585408,15.3644776 398.585408,15.3644776 C398.585408,15.3644776 400.777563,16.612319 402.025405,19.6476107 C403.273247,22.6829023 403.205796,25.0774088 405.195598,27.1009369 C407.067008,29.0040665 411.313546,27.3116538 411.337295,27.6880836 C411.687895,33.2452631 412.025975,41.0060912 412.025975,41.0060912 C412.126642,43.2118661 413.993219,45 416.200603,45 L423.261158,45 C425.466074,45 427.364678,43.2219682 427.503333,41.00429 L428.992105,17.1923887 C429.130077,14.985619 427.443217,13.1966786 425.247272,13.1966786 L424.370314,13.1966786 Z M418.660428,47 C418.660428,47 419.290171,47.4812508 419.290171,48.6588522 C419.290171,49.8364536 418.660428,51 418.660428,51 L421.356194,51 C421.356194,51 420.710524,49.8571133 420.710524,48.6588522 C420.710524,47.4605911 421.356194,47 421.356194,47 L418.660428,47 Z M419.991083,8.15254711 C424.648477,8.15254735 424.648477,7.34839283 424.648477,7.34839283 C424.648477,7.34839283 419.991083,6.00936379 419.991083,6.04164191 C419.991083,6.07392004 415.099143,7.34839283 415.099143,7.34839283 C415.099143,7.34839283 415.333688,8.15254696 419.991083,8.15254711 Z" id="british_tea_pot"></path>
                </g>
            </g>
        </g>
    </g>
</svg>