<?xml version="1.0" encoding="UTF-8" standalone="no"?>
<svg width="57px" height="50px" viewBox="0 0 57 50" version="1.1" xmlns="http://www.w3.org/2000/svg" xmlns:xlink="http://www.w3.org/1999/xlink" xmlns:sketch="http://www.bohemiancoding.com/sketch/ns">
    <!-- Generator: Sketch 3.1.1 (8761) - http://www.bohemiancoding.com/sketch -->
    <title>cake_L</title>
    <desc>Created with Sketch.</desc>
    <defs>
        <radialGradient cx="50%" cy="50%" fx="50%" fy="50%" r="50%" id="radialGradient-1">
            <stop stop-color="#FF1B70" offset="0%"></stop>
            <stop stop-color="#FF1C70" offset="100%"></stop>
        </radialGradient>
    </defs>
    <g id="Page-2" stroke="none" stroke-width="1" fill="none" fill-rule="evenodd" sketch:type="MSPage">
        <g id="Artboard-1" sketch:type="MSArtboardGroup" transform="translate(-472.000000, -223.000000)" fill="#FF4D74">
            <g id="line-icons" sketch:type="MSLayerGroup" transform="translate(472.000000, 219.000000)">
                <g id="row-1-line-icons" sketch:type="MSShapeGroup">
                    <path d="M31.378843,10.1418441 C32.0039594,10.1943307 32.6213443,10.2607772 33.2300288,10.3401638 L33.2300288,10.3401638 C33.7810679,11.8901847 35.2609283,13 37,13 C38.1242502,13 39.1401713,12.5361883 39.8668552,11.7894732 C40.6125562,12.0223821 41.3332677,12.2733058 42.0262378,12.539348 C42.0089064,12.6904975 42,12.8442087 42,13 C42,15.2091391 43.7908609,17 46,17 C46.9783634,17 47.8746879,16.6487502 48.5697479,16.0654763 L48.5697504,16.0654782 C48.9354429,16.3456484 49.2750647,16.6286313 49.5870638,16.9127933 L49.5870638,16.9127933 C49.214677,17.5204103 49,18.2351349 49,19 C49,19.7395949 49.200726,20.4323077 49.5506727,21.0266333 L27.9999994,21.0266333 C27.9999994,21.0266333 35.835407,31.1031972 35.8354066,31.1031973 C33.6605307,31.6964391 32.17667,31.9080431 30.6643802,31.9835203 L30.6643802,31.9835203 C31.4840397,31.2510299 32,30.1857695 32,29 C32,26.7908609 30.2091391,25 28,25 C25.7908609,25 24,26.7908609 24,29 C24,30.1484651 24.4840066,31.1838843 25.2591685,31.9134062 C23.8661506,31.8000756 22.5091111,31.6042402 21.1985508,31.3421466 C22.2838074,30.6267927 23,29.3970343 23,28 C23,25.7908609 21.2091391,24 19,24 C16.7908609,24 15,25.7908609 15,28 C15,28.5929056 15.1289992,29.1556819 15.3604621,29.6617933 L15.3604621,29.6617933 C14.2600331,29.2443473 13.2187372,28.7889443 12.2460967,28.3103171 L12.2460967,28.3103171 C13.3046765,27.5906579 14,26.3765298 14,25 C14,22.7908609 12.2091391,21 10,21 C8.05373164,21 6.43212012,22.3900204 6.07375884,24.2314678 C5.58121783,23.7734985 5.16871906,23.3294521 4.84371328,22.9108564 C6.64768242,22.5235325 8,20.9196917 8,19 C8,18.171442 7.74808063,17.4017229 7.31665847,16.7632594 L7.31665847,16.7632594 C7.48567364,16.631747 7.6604294,16.4998224 7.8407662,16.3677336 L7.8407662,16.3677336 C8.46360542,16.7678971 9.20469743,17 10,17 C12.2091391,17 14,15.2091391 14,13 C14,12.9735995 13.9997442,12.9472588 13.9992351,12.9209801 C14.7551764,12.5978901 15.5439255,12.2913215 16.3619168,12.006815 C17.0660813,12.6251191 17.9892616,13 19,13 C20.712667,13 22.1739342,11.92363 22.7442315,10.4104601 L22.7442315,10.4104601 C23.3668708,10.3137347 23.9985971,10.2326094 24.6383689,10.1687028 C25.3507428,11.2706564 26.5901977,12 28,12 C29.4212251,12 30.6693312,11.2587896 31.378843,10.1418441 Z M31.9992002,8.08079846 C32.360014,8.12028468 32.7194204,8.16480764 33.0771656,8.21416678 L33.0771656,8.21416678 C33.4422882,6.38132087 35.0598316,5 37,5 C39.2091391,5 41,6.79086089 41,9 C41,9.37947617 40.9471573,9.74661027 40.848429,10.0944453 C41.4697334,10.312256 42.0772885,10.5427204 42.669195,10.7843385 C43.3861611,9.70867108 44.610321,9 46,9 C48.2091391,9 50,10.7908609 50,13 C50,13.5940169 49.8705168,14.1577913 49.6382354,14.6646385 L49.6382354,14.6646385 C50.0598555,14.9869539 50.4555433,15.313827 50.8232117,15.6436097 L50.8232117,15.6436097 C51.4496603,15.2364924 52.1972123,15 53,15 C55.2091391,15 57,16.7908609 57,19 C57,20.8638395 55.7252273,22.4299397 54.0000001,22.8739825 C54.0000004,29.3307901 54,41.4200663 54,41.9774221 L38.0153694,41.9774221 C38.0153694,41.9774221 38.0153698,52.5302402 38.0153694,52.5302404 C35.4932022,53.5850423 31.5495019,54 28,54 C13.6405958,54 1.99999994,46.996034 2,41.9774221 C1.99999995,40.946216 1.99999982,27.9692712 1.99999995,22.4648712 C0.80439721,21.7732524 0,20.4805648 0,19 C0,16.7908609 1.79086089,15 4,15 C4.6240016,15 5.21463056,15.1428852 5.74095358,15.3977222 L5.74095358,15.3977222 C5.96868615,15.212476 6.2051928,15.0281444 6.45001258,14.8450434 C6.16251107,14.2929992 6,13.6654779 6,13 C6,10.7908609 7.79086089,9 10,9 C11.4607168,9 12.73856,9.7829748 13.4367333,10.9521283 C14.0129261,10.7107959 14.6022458,10.4796752 15.2025654,10.2602249 C15.0711445,9.86401209 15,9.4403144 15,9 C15,6.79086089 16.7908609,5 19,5 C20.9561928,5 22.5844093,6.40423253 22.9316246,8.25967262 L22.9316246,8.25967262 C23.2876797,8.2050848 23.6444294,8.15570523 24.0015314,8.11176864 C24.0005127,8.0746366 24,8.03737817 24,8 C24,5.79086089 25.7908609,4 28,4 C30.2091391,4 32,5.79086089 32,8 C32,8.02699612 31.9997326,8.05392977 31.9992002,8.08079846 Z M9.35556543,28.9483597 C13.3062587,31.1927509 21.1198547,33.6844465 27.9999997,33.6844474 C35.4932019,33.6844484 36.1964013,32.7702867 36.1964013,32.7702867 C36.1964013,32.7702867 36.1964013,50.4909564 36.1964013,50.9831973 C36.1964013,51.4754383 32.5397565,52.249097 27.9999997,52.2478744 C15.3087201,52.2444573 3.90252465,45.3550903 3.90252471,41.3739114 C3.90252465,40.2372332 3.9025247,24.5578929 3.90252471,24.5578929 C3.90252472,24.5578929 4.53539645,25.4885866 6.56385673,27.0488595 C7.15725235,28.041904 8.16891431,28.7561631 9.35556543,28.9483597 L9.35556543,28.9483597 Z M31.906875,23 C31.906875,23 38,31.0826035 38,31.0826034 C38,31.0826034 38,40 38,40 L52,40 L52,23 L31.906875,23 Z M34.9499031,27 L36.4510476,29 L52,29 L52,27 L34.9499031,27 Z M38,31 L38,33 L52,33 L52,31 L38,31 Z M38,35 L38,37 L52,37 L52,35 L38,35 Z" id="cake_L"></path>
                </g>
            </g>
        </g>
    </g>
</svg>