<?xml version="1.0" encoding="UTF-8" standalone="no"?>
<svg width="38px" height="52px" viewBox="0 0 38 52" version="1.1" xmlns="http://www.w3.org/2000/svg" xmlns:xlink="http://www.w3.org/1999/xlink" xmlns:sketch="http://www.bohemiancoding.com/sketch/ns">
    <!-- Generator: Sketch 3.1.1 (8761) - http://www.bohemiancoding.com/sketch -->
    <title>classic_coffee_grinder_L</title>
    <desc>Created with Sketch.</desc>
    <defs>
        <radialGradient cx="50%" cy="50%" fx="50%" fy="50%" r="50%" id="radialGradient-1">
            <stop stop-color="#FF1B70" offset="0%"></stop>
            <stop stop-color="#FF1C70" offset="100%"></stop>
        </radialGradient>
    </defs>
    <g id="Page-2" stroke="none" stroke-width="1" fill="none" fill-rule="evenodd" sketch:type="MSPage">
        <g id="Artboard-1" sketch:type="MSArtboardGroup" transform="translate(-781.000000, -622.000000)" fill="#FF4D74">
            <g id="line-icons" sketch:type="MSLayerGroup" transform="translate(472.000000, 219.000000)">
                <g id="row-5-line-icons" transform="translate(11.000000, 402.000000)" sketch:type="MSShapeGroup">
                    <path d="M316,8 L316,10.6363636 C307.345385,10.6363636 299,10.6363636 299,10.6363636 C299,19.6737509 307.058874,27 317,27 C326.941126,27 335,19.6737509 335,10.6363636 C335,10.6363636 326.654615,10.6363636 318,10.6363636 L318,10.6363636 L318,8 L335.499164,8 C335.775768,8 336,7.76806641 336,7.5 C336,7.22385763 335.782258,7 335.499164,7 L318,7 L318,4.73243564 C318.597801,4.38662623 319,3.7402824 319,3 C319,1.89543045 318.10457,1 317,1 C315.89543,1 315,1.89543045 315,3 C315,3.7402824 315.402199,4.38662623 316,4.73243564 L316,7 L314.500836,7 C314.224232,7 314,7.23193359 314,7.5 C314,7.77614237 314.217742,8 314.500836,8 L316,8 L316,8 Z M301,29 L301,51 L333,51 L333,29 L301,29 Z M303,29 L303,51 L331,51 L331,29 L303,29 Z M306,38 L306,48 L328,48 L328,38 L306,38 Z M307,39 L307,47 L327,47 L327,39 L307,39 Z M298.996875,51 C298.446316,51 298,51.4438648 298,52 C298,52.5522847 298.45323,53 298.996875,53 L335.003125,53 C335.553684,53 336,52.5561352 336,52 C336,51.4477153 335.54677,51 335.003125,51 L298.996875,51 Z M298.996875,27 C298.446316,27 298,27.4438648 298,28 C298,28.5522847 298.45323,29 298.996875,29 L335.003125,29 C335.553684,29 336,28.5561352 336,28 C336,27.4477153 335.54677,27 335.003125,27 L298.996875,27 Z M317,45 C318.10457,45 319,44.1045696 319,43 C319,41.8954304 318.10457,41 317,41 C315.89543,41 315,41.8954304 315,43 C315,44.1045696 315.89543,45 317,45 Z M317,25 C331.406809,24.9999999 333.092033,12.5999862 333.092032,12.5999862 C333.092032,12.5999862 300.901943,12.5999862 300.901943,12.5999862 C300.901943,12.5999862 302.593191,25.0000001 317,25 Z M334,7 C335.10457,7 336,5.65685433 336,4 C336,2.34314567 335.10457,1 334,1 C332.89543,1 332,2.34314567 332,4 C332,5.65685433 332.89543,7 334,7 Z" id="classic_coffee_grinder_L"></path>
                </g>
            </g>
        </g>
    </g>
</svg>