<?xml version="1.0" encoding="UTF-8" standalone="no"?>
<svg width="44px" height="41px" viewBox="0 0 44 41" version="1.1" xmlns="http://www.w3.org/2000/svg" xmlns:xlink="http://www.w3.org/1999/xlink" xmlns:sketch="http://www.bohemiancoding.com/sketch/ns">
    <!-- Generator: Sketch 3.1.1 (8761) - http://www.bohemiancoding.com/sketch -->
    <title>coffee_bean_L</title>
    <desc>Created with Sketch.</desc>
    <defs>
        <radialGradient cx="50%" cy="50%" fx="50%" fy="50%" r="50%" id="radialGradient-1">
            <stop stop-color="#FF1B70" offset="0%"></stop>
            <stop stop-color="#FF1C70" offset="100%"></stop>
        </radialGradient>
    </defs>
    <g id="Page-2" stroke="none" stroke-width="1" fill="none" fill-rule="evenodd" sketch:type="MSPage">
        <g id="Artboard-1" sketch:type="MSArtboardGroup" transform="translate(-577.000000, -629.000000)" fill="#FF4D74">
            <g id="line-icons" sketch:type="MSLayerGroup" transform="translate(472.000000, 219.000000)">
                <g id="row-5-line-icons" transform="translate(11.000000, 402.000000)" sketch:type="MSShapeGroup">
                    <path d="M121.443515,37.5396873 C121.499755,37.5551557 121.556282,37.5699755 121.613093,37.5841402 C126.971889,38.920238 132.83242,33.9215328 134.702957,26.419219 C136.451915,19.4045331 134.09345,12.6847832 129.399151,10.7487529 L129.399151,10.7487529 C129.690525,10.9443653 129.717138,11.2875253 129.430803,11.6120087 C129.430803,11.6120087 127.813269,13.1081127 127.294246,15.9299022 C126.626404,19.5607782 127.69948,23.8789966 126.863147,27.2333448 C126.026814,30.587693 122.925459,34.906295 122.925459,34.906295 C122.611171,35.3707776 121.922815,35.6307489 121.389217,35.4977078 L121.259223,35.4652968 C121.365775,36.1655408 121.427146,36.858815 121.443515,37.5396873 L121.443515,37.5396873 Z M114.885259,23.7351268 C114.980192,23.0234188 115.116807,22.303666 115.297043,21.580781 C117.16758,14.0784672 123.028111,9.07976203 128.386907,10.4158598 C128.609627,10.4713903 128.827976,10.5369894 129.041797,10.6122629 C128.516822,10.5165615 127.86257,10.7550752 127.551528,11.1910738 C127.551528,11.1910738 126.156284,12.8132957 125.491305,15.4803787 C124.739838,18.4943509 126.251983,22.4389022 125.162325,26.8092823 C124.249441,30.4706599 121.791263,33.355098 121.017713,34.194616 C120.473953,31.8078893 119.413601,29.3789502 117.829825,27.1170828 C116.942175,25.8493872 115.948975,24.7182447 114.885259,23.7351268 L114.885259,23.7351268 Z M121.353449,39.5776537 C127.720459,40.9964271 134.530614,35.3775804 136.643549,26.9030627 C138.781305,18.3289898 135.301305,10.0785857 128.87075,8.47526838 C122.440196,6.87195102 115.494208,12.5228643 113.356451,21.0969373 C113.258868,21.4883244 113.17299,21.879037 113.098564,22.2684738 C108.389459,18.8540413 102.785401,18.1189078 98.822777,20.8935673 C93.3939146,24.6948977 93.1017349,33.644434 98.1701755,40.8829172 C103.238616,48.1214005 111.748361,50.9077631 117.177223,47.1064327 C119.593074,45.4148356 120.991727,42.7037589 121.353449,39.5776537 L121.353449,39.5776537 Z M116.03007,45.4681286 C120.554122,42.3003533 120.626406,34.5979085 116.19152,28.2642356 C111.756635,21.9305628 104.493982,19.364096 99.9699299,22.5318714 C95.4458778,25.6996467 95.3735941,33.4020915 99.8084796,39.7357644 C104.243365,46.0694372 111.506018,48.635904 116.03007,45.4681286 Z M101.07587,22.867871 C100.623465,23.1846485 100.352845,23.8847087 100.484345,24.4060816 C100.484345,24.4060816 100.846366,26.6240417 102.483613,28.9622723 C104.333805,31.6046206 108.379217,33.1603077 111.062069,36.9918182 C113.744922,40.8233287 114.140328,45.6018731 114.140328,45.6018731 C114.211027,46.1483284 114.634171,46.3351602 115.084006,46.0201829 L115.350041,45.8339028 C115.800521,45.5184736 116.052306,44.8358525 115.903251,44.3007433 C115.903251,44.3007433 114.557092,38.9271576 112.497953,35.9864018 C110.438814,33.045646 106.389106,30.8986715 104.005708,27.8964898 C102.153415,25.5632996 102.040867,23.2823361 102.040867,23.2823361 C101.960319,22.7366558 101.531429,22.5488849 101.07587,22.867871 L101.07587,22.867871 Z" id="coffee_bean_L"></path>
                </g>
            </g>
        </g>
    </g>
</svg>