<?xml version="1.0" encoding="UTF-8" standalone="no"?>
<svg width="42px" height="48px" viewBox="0 0 42 48" version="1.1" xmlns="http://www.w3.org/2000/svg" xmlns:xlink="http://www.w3.org/1999/xlink" xmlns:sketch="http://www.bohemiancoding.com/sketch/ns">
    <!-- Generator: Sketch 3.1.1 (8761) - http://www.bohemiancoding.com/sketch -->
    <title>cupcake_2_L</title>
    <desc>Created with Sketch.</desc>
    <defs>
        <radialGradient cx="50%" cy="50%" fx="50%" fy="50%" r="50%" id="radialGradient-1">
            <stop stop-color="#FF1B70" offset="0%"></stop>
            <stop stop-color="#FF1C70" offset="100%"></stop>
        </radialGradient>
    </defs>
    <g id="Page-2" stroke="none" stroke-width="1" fill="none" fill-rule="evenodd" sketch:type="MSPage">
        <g id="Artboard-1" sketch:type="MSArtboardGroup" transform="translate(-979.000000, -223.000000)" fill="#FF4D74">
            <g id="line-icons" sketch:type="MSLayerGroup" transform="translate(472.000000, 219.000000)">
                <g id="row-1-line-icons" sketch:type="MSShapeGroup">
                    <path d="M511.249013,28 L508,28 L516.97333,52 L538.847355,52 L548,28 L546.009207,28 L546.009207,28 C546.009207,28.0000001 546.009207,28.0000002 546.009207,28.0000002 L531.970515,28.0000003 C531.970515,28.0000003 531.970516,28.0000002 531.970518,28 L524.412628,28 C518.315387,28.715461 512.503919,28.1413636 511.249013,28 L511.249013,28 Z M524.412628,28 L531.970518,28 L531.970518,28 C531.973056,27.9997613 533.496988,27.8554418 538,25.1368092 C542.50677,22.4159083 543.288306,20.1291935 543.288306,20.1291935 C543.288306,20.1291935 546.240773,20.1870851 546.819687,22.0396135 C547.398529,23.8919093 546.009555,27.9989692 546.009207,28 L548,28 C548,28 549.531149,21.9714632 547.999998,20.2315187 C546.468848,18.4915743 543.895785,18.7003689 543.895785,18.7003689 C543.895785,18.7003689 545.024036,16.6086559 544.179915,14.6637001 C543.335795,12.7187443 538.745554,12.6453667 538.745554,12.6453667 C538.745554,12.6453667 539.232739,10.8358254 538,9.3742733 C536.767262,7.91272122 533.416229,8.70497164 532.48176,7.21674395 C530.602621,4.22404182 525.591585,4.50243264 525.591585,4.50243264 C525.591585,4.50243264 529.389387,7.86245067 528.066104,8.81749153 C526.742822,9.77253246 523.419831,7.85561977 521.276526,8.81749153 C519.13322,9.77936334 519.536583,12.6453662 519.536583,12.6453662 C519.536583,12.6453662 515.151927,12.3669748 513.82957,14.6637001 C512.507213,16.9604254 514.386351,19.048357 514.386351,19.048357 C514.386351,19.048357 511.477176,18.6593494 509.028656,20.7883005 C506.529186,22.9615517 508.195867,28 508.195867,28 L511.249013,28 C511.086118,27.9816501 511,27.9705916 511,27.9705916 C511,27.9705916 509.895505,26.5433437 509.895505,24.6602979 C509.895505,22.7772521 510.416248,22.6512646 511,22 C511.583752,21.3487354 514.05119,20.7329402 517.103023,21.0890052 C520.154855,21.4450701 526.075037,22.9071183 532.037519,20.6344772 C538.000001,18.3618363 538.33598,15.0502741 538.33598,15.0502741 C538.33598,15.0502741 540.608621,14.7256112 542.037137,15.5697349 C543.465653,16.4138586 542.816331,20.6344772 534.245227,25.2446908 C531.389109,26.7809355 527.855313,27.5960292 524.412622,28.0000007 L524.412628,28 Z M527.998129,49.9999983 L518,49.9999983 L510.817632,29.9610407 L545.191101,29.9610407 L537.50563,49.9999983 L528.001835,49.9999983 C528.553276,49.998991 529,49.5441 529,49.0081969 L529,30.9918031 C529,30.4440454 528.556135,30 528,30 C527.447715,30 527,30.4553056 527,30.9918031 L527,49.0081969 C527,49.5553401 527.442869,49.9990035 527.998129,49.9999983 L527.998129,49.9999983 Z M534.218693,30.0745385 C533.670525,30.0072319 533.170659,30.4045809 533.105277,30.9370795 L530.909631,48.8191818 C530.842876,49.3628566 531.229317,49.8576857 531.781307,49.9254615 C532.329475,49.9927681 532.829341,49.5954191 532.894723,49.0629205 L535.090369,31.1808182 C535.157124,30.6371434 534.770683,30.1423143 534.218693,30.0745385 Z M540.419219,30.2970427 C539.883339,30.163433 539.338775,30.4969019 539.208984,31.0174632 L534.850424,48.498693 C534.71791,49.03018 535.041165,49.568416 535.580781,49.7029573 C536.116661,49.836567 536.661225,49.5030981 536.791016,48.9825368 L541.149576,31.501307 C541.28209,30.96982 540.958835,30.431584 540.419219,30.2970427 Z M515.961729,30.2562994 C515.423599,30.3805364 515.08978,30.9248865 515.210466,31.4476337 L519.263273,49.0022684 C519.386492,49.5359872 519.918869,49.8688038 520.46075,49.7437006 C520.99888,49.6194636 521.332699,49.0751135 521.212013,48.5523663 L517.159206,30.9977316 C517.035988,30.4640128 516.503611,30.1311962 515.961729,30.2562994 Z M522.165955,30.054781 C521.616696,30.1125105 521.219025,30.6121209 521.275105,31.1456794 L523.158331,49.0633775 C523.215587,49.6081346 523.703436,50.0033509 524.256524,49.945219 C524.805783,49.8874895 525.203454,49.3878791 525.147374,48.8543206 L523.264149,30.9366225 C523.206892,30.3918654 522.719044,29.9966491 522.165955,30.054781 Z M532.040299,14.7450255 C529.378064,16.6280708 522.644152,15.4139058 521.025135,15.0616641 C519.273283,14.6805219 519.127295,14.7450256 519.127295,14.7450256 C519.127295,14.7450256 515.915566,14.484733 515.915566,16.2295656 C515.915566,17.9743982 518,19.0150809 518,19.0150809 C518,19.0150809 527.167956,20.8629005 532.040298,18.5217719 C536.912641,16.1806433 537.322518,12.4266992 536.645819,11.1929899 C535.96912,9.95928046 533.872054,9.95209443 533.872054,9.95209443 C533.872054,9.95209443 534.702534,12.8619803 532.040299,14.7450255 Z M529.291864,10.1905442 C527.107211,11.1771617 523.442631,9.80383442 522.244595,10.5334597 C521.046559,11.2630849 521.68208,13.3098116 521.68208,13.3098116 C521.68208,13.3098116 526.472956,14.3638832 529.291864,13.729629 C532.110772,13.0953751 532.120201,11.5544239 532.1202,10.1905442 C532.1202,9.44920173 531.861131,8.63118221 531.098287,7.83527273 C530.457694,7.16691323 529.291864,6.44838959 529.291864,6.44838959 C529.291864,6.44838959 531.476517,9.20392662 529.291864,10.1905442 Z" id="cupcake_2_L"></path>
                </g>
            </g>
        </g>
    </g>
</svg>