<?xml version="1.0" encoding="UTF-8" standalone="no"?>
<svg width="40px" height="53px" viewBox="0 0 40 53" version="1.1" xmlns="http://www.w3.org/2000/svg" xmlns:xlink="http://www.w3.org/1999/xlink" xmlns:sketch="http://www.bohemiancoding.com/sketch/ns">
    <!-- Generator: Sketch 3.1.1 (8761) - http://www.bohemiancoding.com/sketch -->
    <title>dessert stand_2_L</title>
    <desc>Created with Sketch.</desc>
    <defs>
        <radialGradient cx="50%" cy="50%" fx="50%" fy="50%" r="50%" id="radialGradient-1">
            <stop stop-color="#FF1B70" offset="0%"></stop>
            <stop stop-color="#FF1C70" offset="100%"></stop>
        </radialGradient>
    </defs>
    <g id="Page-2" stroke="none" stroke-width="1" fill="none" fill-rule="evenodd" sketch:type="MSPage">
        <g id="Artboard-1" sketch:type="MSArtboardGroup" transform="translate(-780.000000, -420.000000)" fill="#FF4D74">
            <g id="line-icons" sketch:type="MSLayerGroup" transform="translate(472.000000, 219.000000)">
                <g id="row-3-line-icons" transform="translate(3.000000, 201.000000)" sketch:type="MSShapeGroup">
                    <path d="M345,46.0413198 L345,25.0012045 C345,17.1055361 340.42645,10.2784318 333.782899,7.02625401 C332.883166,3.00509553 329.292522,0 325,0 C320.707401,0 317.116706,3.00520278 316.217052,7.02646928 L316.217052,7.02646928 C309.574282,10.2784254 305,17.1046318 305,25.0012045 L305,46.0413198 L305,46.0413198 L305,52.0029699 C305,52.5536144 305.443865,53 306,53 C306.552285,53 307,52.5469637 307,52.0029699 L307,46.991694 C309.09858,47.8472272 312.565648,49 316.011703,49 C321.996174,49 329.243601,49.0000008 333.965116,49 C337.025554,49 340.754812,47.7755178 343,46.9139478 L343,52.0029699 C343,52.5536144 343.443865,53 344,53 C344.552285,53 345,52.5469637 345,52.0029699 L345,46.0413198 L345,46.0413198 Z M318.029489,8.35315895 C310.015637,11.727964 307.006576,20.5213461 307.006576,24.0082473 C307.006576,24.0082473 343.077243,24.0082473 343.077243,24.0082473 C343.077243,20.0496397 340.010784,11.5300635 331.964541,8.29103554 C331.609187,4.75800753 328.626677,2 325,2 C321.352093,2 318.355918,4.79039128 318.029489,8.35315895 L318.029489,8.35315895 Z M335,26.8522628 C331.910627,27.4091797 329.965843,27.3496488 329.965843,27.3496488 L320.119344,27.3496488 C313.938939,27.3496488 307,25 307,25 L307,35 L343,35 L343,25 C343,25 338.411686,26.237243 335,26.8522628 Z M331.328852,38.1267589 C327.722152,38.2901614 320.951322,38.1267589 318.242995,38.1267589 C313.837576,38.126759 307,35.8232921 307,35.8232921 L307,46.0000001 L343,46.0000001 L343,35.8232921 C343,35.8232921 337.835912,37.8319548 331.328852,38.1267589 Z" id="dessert-stand_2_L"></path>
                </g>
            </g>
        </g>
    </g>
</svg>