<?xml version="1.0" encoding="UTF-8" standalone="no"?>
<svg width="52px" height="53px" viewBox="0 0 52 53" version="1.1" xmlns="http://www.w3.org/2000/svg" xmlns:xlink="http://www.w3.org/1999/xlink" xmlns:sketch="http://www.bohemiancoding.com/sketch/ns">
    <!-- Generator: Sketch 3.1.1 (8761) - http://www.bohemiancoding.com/sketch -->
    <title>dessert stand_1_L</title>
    <desc>Created with Sketch.</desc>
    <defs>
        <radialGradient cx="50%" cy="50%" fx="50%" fy="50%" r="50%" id="radialGradient-1">
            <stop stop-color="#FF1B70" offset="0%"></stop>
            <stop stop-color="#FF1C70" offset="100%"></stop>
        </radialGradient>
    </defs>
    <g id="Page-2" stroke="none" stroke-width="1" fill="none" fill-rule="evenodd" sketch:type="MSPage">
        <g id="Artboard-1" sketch:type="MSArtboardGroup" transform="translate(-674.000000, -421.000000)" fill="#FF4D74">
            <g id="line-icons" sketch:type="MSLayerGroup" transform="translate(472.000000, 219.000000)">
                <g id="row-3-line-icons" transform="translate(3.000000, 201.000000)" sketch:type="MSShapeGroup">
                    <path d="M224,22.1228862 L224,32 L204,32 C204,32 206.423077,35.8549602 216.923077,37.1049602 C217.087527,37.1245376 220.410516,37.1263981 224,37.1225666 L224,47 L226,47 L226,37.1199337 C229.679392,37.1142696 233.076923,37.1049602 233.076923,37.1049602 C241.467216,35.7920111 246,32 246,32 L226,32 L226,22.119443 C228.710089,22.1137487 231.153846,22.1049602 231.153846,22.1049602 C237.54645,20.7920111 241,17 241,17 L226,17 L226,6.82929431 L226,6.82929431 C227.165192,6.41745793 228,5.3062189 228,4 C228,2.34314567 226.656854,1 225,1 C223.343146,1 222,2.34314567 222,4 C222,5.3062189 222.834808,6.41745793 224,6.82929431 L224,17 L209,17 C209,17 210.846154,20.8549602 218.846154,22.1049602 C218.967805,22.1239681 221.35799,22.1262749 224,22.1228862 L224,22.1228862 Z M199,47 C199,47 202,51.6259523 215,53.1259522 C215.449972,53.1778721 235,53.1259522 235,53.1259522 C245.387981,51.5504133 251,47 251,47 L199,47 Z M206.039537,49 C206.039537,49 211.065331,51.0419841 216.16191,51.0419841 C216.631923,51.0419841 230.106718,51.0419841 234.495439,51.0419841 C238.884161,51.0419841 243.697594,49 243.697594,49 L206.039537,49 Z M212.136796,34 C212.136796,34 214.189585,35.020992 219.073807,35.020992 L231.153846,35.020992 C235.071402,35.020992 237.973622,34 237.973622,34 L212.136796,34 Z M215,19 C215,19 217.042199,20.019631 218.90642,20.019631 C219.133143,20.019631 227.019232,20.020992 230.333402,20.020992 C230.403761,20.020992 228.643264,20.0187303 230.541273,20.0196311 C232.439281,20.0205319 234.821341,19 234.821341,19 L215,19 Z M225,5 C225.552285,5 226,4.55228478 226,4 C226,3.44771522 225.552285,3 225,3 C224.447715,3 224,3.44771522 224,4 C224,4.55228478 224.447715,5 225,5 Z" id="dessert-stand_1_L"></path>
                </g>
            </g>
        </g>
    </g>
</svg>