<?xml version="1.0" encoding="UTF-8" standalone="no"?>
<svg width="45px" height="52px" viewBox="0 0 45 52" version="1.1" xmlns="http://www.w3.org/2000/svg" xmlns:xlink="http://www.w3.org/1999/xlink" xmlns:sketch="http://www.bohemiancoding.com/sketch/ns">
    <!-- Generator: Sketch 3.1.1 (8761) - http://www.bohemiancoding.com/sketch -->
    <title>french_press_L</title>
    <desc>Created with Sketch.</desc>
    <defs>
        <radialGradient cx="50%" cy="50%" fx="50%" fy="50%" r="50%" id="radialGradient-1">
            <stop stop-color="#FF1B70" offset="0%"></stop>
            <stop stop-color="#FF1C70" offset="100%"></stop>
        </radialGradient>
    </defs>
    <g id="Page-2" stroke="none" stroke-width="1" fill="none" fill-rule="evenodd" sketch:type="MSPage">
        <g id="Artboard-1" sketch:type="MSArtboardGroup" transform="translate(-479.000000, -722.000000)" fill="#FF4D74">
            <g id="line-icons" sketch:type="MSLayerGroup" transform="translate(472.000000, 219.000000)">
                <g id="row-6-line-icons" transform="translate(7.000000, 501.000000)" sketch:type="MSShapeGroup">
                    <path d="M32,16.0479194 C32.3297334,16.0161832 32.6632468,16 33,16 C39.6274173,16 45,22.2680131 45,30 C45,37.7319869 39.6274173,44 33,44 C32.6632468,44 32.3297334,43.9838168 32,43.9520806 C32,47.5498158 32,50.0007325 32,50.0007325 C32,52.2075794 30.2125237,54 28.00756,54 L8.73648216,54 C6.53238168,54 4.74404213,52.2106632 4.7440421,50.0034045 C4.7440421,50.0034045 4.74404184,36.5395606 4.74404216,26.2342005 C4.74404216,23.2108685 0.224485476,16 0.224485475,16 C0.224485475,16 32,16 32,16 C32,16.0156969 32,16.0316707 32,16.0479194 L32,16.0479194 Z M32,42.9358122 C37.0533229,42.2835705 41,36.7409529 41,30 C41,23.2590471 37.0533229,17.7164295 32,17.0641878 C32,21.6835367 32,34.7168043 32,42.9358122 L32,42.9358122 Z M3.1551952,18 C3.15519519,18 6.47246068,23.7907796 6.47246068,25.1805325 C6.47246034,35.2200664 6.47246065,49.9985409 6.47246065,49.9985409 C6.47246067,51.1039162 7.36834032,52 8.46324357,52 L28.0698232,52 C29.1693022,52 30.0606061,51.1080589 30.0606061,50.0000796 L30.0606066,18 C30.0606066,18 3.15519522,18 3.1551952,18 Z M32,16 C32,10.4771522 25.7319869,6 18,6 C10.2680131,6 4,10.4771522 4,16 L32,16 Z M30,15.9850728 C30,11.5750386 24.6274173,8 18,8 C11.3725827,8 6,11.5750386 6,15.9850728 C6,15.9850726 30,15.9850728 30,15.9850728 Z M18,6 C19.1045696,6 20,5.10456955 20,4 C20,2.89543045 19.1045696,2 18,2 C16.8954304,2 16,2.89543045 16,4 C16,5.10456955 16.8954304,6 18,6 Z M18,18 L18,42 L19,42 L19,18 L18,18 Z M8.49485322,42 C7.66926859,42 7,42.6657972 7,43.5 C7,44.3284271 7.67042869,45 8.49485322,45 L27.5051468,45 C28.3307314,45 29,44.3342028 29,43.5 C29,42.6715729 28.3295713,42 27.5051468,42 L8.49485322,42 Z M8.49438477,43 C8.2213436,43 8,43.2319336 8,43.5 C8,43.7761424 8.22460938,44 8.49438477,44 L27.5056152,44 C27.7786564,44 28,43.7680664 28,43.5 C28,43.2238576 27.7753906,43 27.5056152,43 L8.49438477,43 Z" id="french_press_L"></path>
                </g>
            </g>
        </g>
    </g>
</svg>