<?xml version="1.0" encoding="UTF-8" standalone="no"?>
<svg width="30px" height="50px" viewBox="0 0 30 50" version="1.1" xmlns="http://www.w3.org/2000/svg" xmlns:xlink="http://www.w3.org/1999/xlink" xmlns:sketch="http://www.bohemiancoding.com/sketch/ns">
    <!-- Generator: Sketch 3.1.1 (8761) - http://www.bohemiancoding.com/sketch -->
    <title>icecream_corn_1_L</title>
    <desc>Created with Sketch.</desc>
    <defs>
        <radialGradient cx="50%" cy="50%" fx="50%" fy="50%" r="50%" id="radialGradient-1">
            <stop stop-color="#FF1B70" offset="0%"></stop>
            <stop stop-color="#FF1C70" offset="100%"></stop>
        </radialGradient>
    </defs>
    <g id="Page-2" stroke="none" stroke-width="1" fill="none" fill-rule="evenodd" sketch:type="MSPage">
        <g id="Artboard-1" sketch:type="MSArtboardGroup" transform="translate(-985.000000, -423.000000)" fill="#FF4D74">
            <g id="line-icons" sketch:type="MSLayerGroup" transform="translate(472.000000, 219.000000)">
                <g id="row-3-line-icons" transform="translate(3.000000, 201.000000)" sketch:type="MSShapeGroup">
                    <path d="M524.65636,40.4076336 L523.712102,37.9477586 L523.175392,39.345937 C523.078102,39.5993856 522.786777,39.7336529 522.528976,39.6346923 C522.278715,39.5386259 522.142607,39.2460048 522.241811,38.9875691 L523.176529,36.5525445 L522.136306,33.8426695 L521.892913,34.4767299 C521.795967,34.7292822 521.503513,34.8664921 521.245712,34.7675315 C520.995451,34.6714651 520.859695,34.3779278 520.959333,34.1183619 L521.600733,32.4474555 L521.600733,32.4474555 L520.703197,30.1092937 C520.603442,29.8494215 520.733623,29.5638976 520.991424,29.464937 C521.241686,29.3688706 521.53816,29.494018 521.636778,29.7509257 L522.136306,31.0522414 L523.107087,28.5232701 C523.204033,28.2707178 523.496487,28.1335079 523.754288,28.2324685 C523.991127,28.3233825 524.125414,28.5911531 524.054687,28.839616 L525.095966,31.5522414 L525.095966,31.5522414 L525.824608,29.654063 C525.891683,29.4793281 526.050984,29.3612416 526.227944,29.3371759 C526.279721,29.2777116 526.346235,29.229454 526.424896,29.1992587 C526.675158,29.1031923 526.970467,29.2253042 527.067647,29.4784676 L527.95966,31.8022414 L528.004109,31.6864479 C528.101351,31.4331239 528.392407,31.2995569 528.650208,31.3985174 C528.900469,31.4945838 529.036719,31.7868357 528.937689,32.0448159 L528.495233,33.1974555 L528.865934,34.1631645 C528.960229,34.4088126 528.832905,34.7017807 528.575104,34.8007413 C528.346887,34.8883455 528.08121,34.7945158 527.96248,34.5853235 L527.111369,36.8025445 L527.937689,38.9551841 C528.034931,39.2085081 527.908009,39.502522 527.650208,39.6014826 C527.399946,39.697549 527.103138,39.5715323 527.004109,39.3135521 L526.575796,38.1977586 L525.727505,40.4076336 L526.296803,41.8907063 C526.396558,42.1505785 526.266377,42.4361024 526.008576,42.535063 C525.758314,42.6311294 525.46184,42.505982 525.363222,42.2490743 L525.191932,41.8028477 L524.995891,42.3135521 C524.898649,42.5668761 524.607593,42.7004431 524.349792,42.6014826 C524.099531,42.5054162 523.963281,42.2131643 524.062311,41.9551841 L524.65636,40.4076336 Z M525.191932,39.0124195 L524.247674,36.5525445 L525.095966,34.3426695 L526.040224,36.8025445 L525.191932,39.0124195 Z M526.575796,35.4073305 L525.631539,32.9474555 L526.47983,30.7375805 L527.424088,33.1974555 L526.575796,35.4073305 Z M524.560394,32.9474555 L523.52017,30.2375805 L522.671878,32.4474555 L523.712102,35.1573305 L524.560394,32.9474555 L524.560394,32.9474555 Z M516.063045,29.7639168 L525,53 L533.936955,29.7639168 C537.419353,28.8979506 540,25.7503466 540,22 C540,17.7206468 536.639979,14.226069 532.414208,14.0105382 L532.414208,14.0105382 C532.791923,13.08125 533,12.0649245 533,11 C533,6.58172178 529.418278,3 525,3 C520.581722,3 517,6.58172178 517,11 C517,12.0649245 517.208077,13.08125 517.585792,14.0105382 C513.360021,14.226069 510,17.7206468 510,22 C510,25.7503466 512.580647,28.8979506 516.063045,29.7639168 L516.063045,29.7639168 Z M524.245371,27 L525.754629,27 L525.754629,27 C525.472799,26.6484292 525.220041,26.2725499 525,25.8760074 C524.779959,26.2725499 524.527201,26.6484292 524.245371,27 L524.245371,27 Z M524.242512,27.0035645 L525.757488,27.0035645 L525.757488,27.0035645 C527.172675,28.766897 529.319562,29.9178371 531.737538,29.9957759 L524.989288,47.713533 L518.241288,29.9964308 C520.667903,29.9245487 522.823195,28.7720424 524.242512,27.0035645 L524.242512,27.0035645 Z M532,28 C535.313709,28 538,25.3137087 538,22 C538,18.6862913 535.313709,16 532,16 C528.686291,16 526,18.6862913 526,22 C526,25.3137087 528.686291,28 532,28 Z M525,17 C528.313709,17 531,14.3137087 531,11 C531,7.68629134 528.313709,5 525,5 C521.686291,5 519,7.68629134 519,11 C519,14.3137087 521.686291,17 525,17 Z M518,28 C521.313709,28 524,25.3137087 524,22 C524,18.6862913 521.313709,16 518,16 C514.686291,16 512,18.6862913 512,22 C512,25.3137087 514.686291,28 518,28 Z" id="icecream_corn_1_L"></path>
                </g>
            </g>
        </g>
    </g>
</svg>