<?xml version="1.0" encoding="UTF-8" standalone="no"?>
<svg width="39px" height="52px" viewBox="0 0 39 52" version="1.1" xmlns="http://www.w3.org/2000/svg" xmlns:xlink="http://www.w3.org/1999/xlink" xmlns:sketch="http://www.bohemiancoding.com/sketch/ns">
    <!-- Generator: Sketch 3.1.1 (8761) - http://www.bohemiancoding.com/sketch -->
    <title>icecream_corn_2_L</title>
    <desc>Created with Sketch.</desc>
    <defs>
        <radialGradient cx="50%" cy="50%" fx="50%" fy="50%" r="50%" id="radialGradient-1">
            <stop stop-color="#FF1B70" offset="0%"></stop>
            <stop stop-color="#FF1C70" offset="100%"></stop>
        </radialGradient>
    </defs>
    <g id="Page-2" stroke="none" stroke-width="1" fill="none" fill-rule="evenodd" sketch:type="MSPage">
        <g id="Artboard-1" sketch:type="MSArtboardGroup" transform="translate(-480.000000, -522.000000)" fill="#FF4D74">
            <g id="line-icons" sketch:type="MSLayerGroup" transform="translate(472.000000, 219.000000)">
                <g id="row-4-line-icons" transform="translate(8.000000, 302.000000)" sketch:type="MSShapeGroup">
                    <path d="M16.0374125,32.8303057 L13.4466256,30.2395188 L14.9412674,28.6917719 C15.1344051,28.4917719 15.1241351,28.1685253 14.9313043,27.9823107 C14.7326641,27.7904861 14.4098467,27.8025176 14.2219276,27.9971135 L12.7394111,29.5323043 L11.0926212,27.8855144 C10.8935843,27.6864775 10.5682312,27.6891281 10.3786797,27.8786797 C10.1834175,28.0739418 10.1824385,28.3895453 10.3855144,28.5926212 L12.0446469,30.2517537 L12.0446469,30.2517537 L10.0587326,32.3082281 C9.95046545,32.420342 9.9061168,32.5711848 9.92201445,32.7149077 L8.08415923,30.8770525 C7.88979577,30.682689 7.56823123,30.6891281 7.37867966,30.8786797 C7.18341751,31.0739418 7.17704374,31.3841505 7.37705245,31.5841592 L10.208734,34.4158408 C10.4030975,34.6102042 10.724662,34.6037651 10.9142136,34.4142136 C11.1094757,34.2189514 11.1158495,33.9087427 10.9158408,33.708734 L10.3595987,33.152492 C10.5106244,33.1685503 10.6676411,33.1172415 10.7780724,33.0028865 L12.7518614,30.9589682 L15.3426483,33.5497551 L15.0210705,33.8827586 C14.8255439,34.0852324 14.8338773,34.4104844 15.0267081,34.596699 C15.2253483,34.7885236 15.544519,34.7802685 15.7404103,34.577417 L16.0504719,34.2563389 C16.2507776,34.4344158 16.5598515,34.4254299 16.7426407,34.2426407 C16.9350656,34.0502157 16.9388123,33.7409212 16.7445289,33.5376219 L18.9974976,31.2046044 L21.3426483,33.5497551 L21.0210705,33.8827586 C20.8255439,34.0852324 20.8338773,34.4104844 21.0267081,34.596699 C21.2253483,34.7885236 21.544519,34.7802685 21.7404103,34.577417 L22.0504719,34.2563389 C22.2507776,34.4344158 22.5598515,34.4254299 22.7426407,34.2426407 C22.9350656,34.0502157 22.9388123,33.7409212 22.7445289,33.5376219 L25.0673249,31.1322961 L25.0673249,31.1322961 L27.4124756,33.4774468 L27.0210705,33.8827586 C26.8255439,34.0852324 26.8338773,34.4104844 27.0267081,34.596699 C27.2253483,34.7885236 27.544519,34.7802685 27.7404103,34.577417 L28.1196901,34.1846613 L28.1708347,34.2358059 C28.3698716,34.4348428 28.6952247,34.4321923 28.8847763,34.2426407 C29.0800385,34.0473785 29.0810174,33.731775 28.8779415,33.5286991 L28.8144543,33.4652119 L30.9974976,31.2046044 L31.9205739,32.1276806 C32.1123233,32.3194301 32.4317688,32.3108719 32.6213203,32.1213203 C32.8165825,31.9260582 32.8137379,31.6066311 32.6276806,31.4205739 L31.6922618,30.485155 L33.9789295,28.1172414 C34.1744561,27.9147676 34.1661227,27.5895156 33.9732919,27.403301 C33.7746517,27.2114764 33.455481,27.2197315 33.2595897,27.422583 L30.9850473,29.7779405 L29.0794261,27.8723194 C28.8876767,27.6805699 28.5682312,27.6891281 28.3786797,27.8786797 C28.1834175,28.0739418 28.1862621,28.3933689 28.3723194,28.5794261 L30.2902831,30.4973899 L30.2902831,30.4973899 L28.1072398,32.7579974 L25.7620891,30.4128467 L27.9789295,28.1172414 C28.1744561,27.9147676 28.1661227,27.5895156 27.9732919,27.403301 C27.7746517,27.2114764 27.455481,27.2197315 27.2595897,27.422583 L25.0548746,29.7056322 L23.2347568,27.8855144 C23.03572,27.6864775 22.7103669,27.6891281 22.5208153,27.8786797 C22.3255531,28.0739418 22.3245742,28.3895453 22.5276501,28.5926212 L24.3601104,30.4250816 L22.0374125,32.8303057 L19.6922618,30.485155 L21.9789295,28.1172414 C22.1744561,27.9147676 22.1661227,27.5895156 21.9732919,27.403301 C21.7746517,27.2114764 21.455481,27.2197315 21.2595897,27.422583 L18.9850473,29.7779405 L17.0926212,27.8855144 C16.8935843,27.6864775 16.5682312,27.6891281 16.3786797,27.8786797 C16.1834175,28.0739418 16.1824385,28.3895453 16.3855144,28.5926212 L18.2902831,30.4973899 L16.0374125,32.8303057 Z M6.35236227,30.5699955 C6.99119284,32.0362347 7.66305394,33.4943186 7.98843658,33.9347911 C8.70860757,34.9096908 11.7342144,34.9786963 11.7342144,34.9786963 L28.2524801,34.9786963 C28.2524801,34.9786963 31.1537448,34.8552371 31.9368521,33.9347911 C32.7199417,33.0143658 34.8375078,27.0002716 34.8376034,27 L2.85079443,27 C2.85079443,27 5.93148294,34.510107 6.74771893,35.6121676 C7.56395496,36.7142282 10.0000001,36.6526713 10.0000001,36.6526713 L13.1999708,53 L27.0145079,53 L30.0000006,36.6526713 C30.0000006,36.6526713 32.2729346,36.6526718 33.1605021,35.6121676 C34.0480696,34.5716634 36.8376034,27 36.8376034,27 L34.8376034,27 L4.85079443,27 C4.85079443,27 5.38645513,28.3205864 6.02859756,29.8201858 C6.04626006,29.7912468 6.06728618,29.7638403 6.09172837,29.7385297 L8.18893183,27.5668119 C8.38025544,27.3686905 8.69067654,27.3694958 8.88931674,27.5613204 C9.08214758,27.747535 9.09644334,28.0666128 8.90827163,28.2614703 L6.81106817,30.4331881 C6.6872018,30.5614554 6.5134157,30.6063427 6.35236227,30.5699955 L6.35236227,30.5699955 Z M3.90781484,25 L1.00324215,25 C0.44916681,25 0,25.4438648 0,26 C0,26.5522847 0.437988281,27 1.00324215,27 L37.9967579,27 C38.5508332,27 39,26.5561352 39,26 C39,25.4477153 38.5620117,25 37.9967579,25 L35.7258333,25 L35.7258333,25 C35.7261526,24.9989688 36.9975606,20.8919092 36.467713,19.0396135 C35.937799,17.1870851 33.2352349,17.1291935 33.2352349,17.1291935 C33.2352349,17.1291935 32.5198496,19.4159083 28.3945424,22.1368092 C24.2726749,24.8554418 22.8777312,24.9997613 22.8754082,25 L15.9572334,25 C19.1085228,24.5960292 22.3432111,23.7809355 24.9575816,22.2446908 C32.8032091,17.6344772 33.3975716,13.4138586 32.0899678,12.5697349 C30.782364,11.7256112 28.7020848,12.0502741 28.7020848,12.0502741 C28.7020848,12.0502741 28.3945433,15.3618363 22.9367378,17.6344772 C17.4789327,19.9071183 12.0598474,18.4450701 9.26632865,18.0890052 C6.47280993,17.7329402 4.21422094,18.3487354 3.6798786,19 C3.14553617,19.6512646 2.66887012,19.7772521 2.66887031,21.6602979 C2.66887064,23.5433437 3.6798786,24.9705916 3.6798786,24.9705916 C3.6798786,24.9705916 3.75870751,24.9816501 3.90781484,25 L1.11309347,25 C1.11309347,25 -0.412516447,19.9615517 1.87539315,17.7883005 C4.11666554,15.6593494 6.77960191,16.048357 6.77960191,16.048357 C6.77960191,16.048357 5.05951763,13.9604254 6.26994767,11.6637001 C7.48037774,9.36697484 11.4939078,9.64536619 11.4939078,9.64536619 C11.4939078,9.64536619 11.1246863,6.77936334 13.086578,5.81749153 C15.0484697,4.85561977 18.0901956,6.77253246 19.3014724,5.81749153 C20.5127493,4.86245067 17.0364019,1.50243264 17.0364019,1.50243264 C17.0364019,1.50243264 21.6232934,1.22404182 23.3433781,4.21674395 C24.1987515,5.70497164 27.2661456,4.91272122 28.3945427,6.3742733 C29.5229397,7.83582544 29.0769915,9.64536667 29.0769915,9.64536667 C29.0769915,9.64536667 33.2787051,9.71874428 34.051377,11.6637001 C34.824049,13.6086559 33.7912957,15.7003689 33.7912957,15.7003689 C33.7912957,15.7003689 36.1465692,15.4915743 37.5481202,17.2315187 C38.9496713,18.9714632 37.5481216,25 37.5481216,25 L35.7258333,25 C35.7258333,25.0000001 35.7258333,25.0000002 35.7258333,25.0000002 L22.8754053,25.0000003 C22.8754053,25.0000003 22.8754062,25.0000002 22.8754082,25 L15.9572334,25 C10.3760757,25.715461 5.05650283,25.1413636 3.90781484,25 L3.90781484,25 Z M12.0860098,36.9981661 C12.0860098,36.9981661 14.6685208,50.9443054 14.6685208,50.9443054 L25.5374173,50.9443054 L27.9395922,36.9981661 L12.0860098,36.9981661 Z M22.9392828,11.7450255 C20.5023849,13.6280708 14.3384456,12.4139058 12.8564657,12.0616641 C11.2528938,11.6805219 11.1192628,11.7450256 11.1192628,11.7450256 C11.1192628,11.7450256 8.17938062,11.484733 8.17938076,13.2295656 C8.179381,14.9743982 10.0873839,16.0150809 10.0873839,16.0150809 C10.0873839,16.0150809 18.4793453,17.8629005 22.9392824,15.5217719 C27.3992197,13.1806433 27.7744041,9.42669925 27.1549822,8.19298985 C26.5355603,6.95928046 24.6159939,6.95209443 24.6159939,6.95209443 C24.6159939,6.95209443 25.3761809,9.86198031 22.9392828,11.7450255 Z M20.4234813,7.19054419 C18.4237416,8.17716172 15.0693391,6.80383442 13.9727077,7.53345966 C12.8760763,8.26308489 13.4578052,10.3098116 13.4578052,10.3098116 C13.4578052,10.3098116 17.8431717,11.3638832 20.4234811,10.729629 C23.0037906,10.0953751 23.0124217,8.55442387 23.0124213,7.19054419 C23.0124211,6.44920173 22.7752802,5.63118221 22.0770047,4.83527273 C21.4906326,4.16691323 20.4234813,3.44838959 20.4234813,3.44838959 C20.4234813,3.44838959 22.423221,6.20392662 20.4234813,7.19054419 Z" id="icecream_corn_2_L"></path>
                </g>
            </g>
        </g>
    </g>
</svg>