<?xml version="1.0" encoding="UTF-8" standalone="no"?>
<svg width="42px" height="52px" viewBox="0 0 42 52" version="1.1" xmlns="http://www.w3.org/2000/svg" xmlns:xlink="http://www.w3.org/1999/xlink" xmlns:sketch="http://www.bohemiancoding.com/sketch/ns">
    <!-- Generator: Sketch 3.1.1 (8761) - http://www.bohemiancoding.com/sketch -->
    <title>icecream_1_L</title>
    <desc>Created with Sketch.</desc>
    <defs>
        <radialGradient cx="50%" cy="50%" fx="50%" fy="50%" r="50%" id="radialGradient-1">
            <stop stop-color="#FF1B70" offset="0%"></stop>
            <stop stop-color="#FF1C70" offset="100%"></stop>
        </radialGradient>
    </defs>
    <g id="Page-2" stroke="none" stroke-width="1" fill="none" fill-rule="evenodd" sketch:type="MSPage">
        <g id="Artboard-1" sketch:type="MSArtboardGroup" transform="translate(-579.000000, -522.000000)" fill="#FF4D74">
            <g id="line-icons" sketch:type="MSLayerGroup" transform="translate(472.000000, 219.000000)">
                <g id="row-4-line-icons" transform="translate(8.000000, 302.000000)" sketch:type="MSShapeGroup">
                    <path d="M114.635741,15.85996 C114.030416,16.1923359 113.479569,16.6116215 113,17.1010171 C112.520431,16.6116215 111.969584,16.1923358 111.364259,15.8599599 L113,15 L114.635741,15.85996 L114.635741,15.85996 Z M117.284472,15.0361218 C117.519733,15.0122359 117.758438,15 118,15 C118,11.1340066 121.134007,8 125,8 C128.405101,8 131.242343,10.4312956 131.870442,13.6526043 L138.883994,1.504775 C139.15662,1.03257356 139.771707,0.862641693 140.25,1.13878407 C140.731627,1.41685166 140.892177,2.02650142 140.616045,2.504775 L133.329162,15.1260279 C136.559525,15.7469573 139,18.5884767 139,22 C139,24.1973534 137.987541,26.1582341 136.403678,27.441587 L136.40368,27.441587 C139.224531,27.4415871 141,27.4415871 141,27.4415871 C141,35.6524927 132.414877,42.3778187 121.532244,42.9592174 C121.052617,42.9848412 120.952742,50.2436327 120.140571,51 L125.993155,51 C126.550051,51 127,51.4477153 127,52 C127,52.5561352 126.54922,53 125.993155,53 L114.006845,53 C113.449949,53 113,52.5522847 113,52 C113,51.4438648 113.45078,51 114.006845,51 L119.860413,51 L119.860413,51 C119.060375,50.2438088 119.078186,42.9883854 118.657387,42.9687148 C107.685022,42.4558 99,35.7001267 99,27.4415869 C99,27.4415869 100.77547,27.4415869 103.596322,27.441587 C102.012459,26.158234 101,24.1973533 101,22 C101,18.1340066 104.134007,15 108,15 C108.241562,15 108.480267,15.0122359 108.715527,15.0361217 L109.195774,12.2360681 L105.391548,8.52786422 L110.64886,7.76393148 L113,3 L115.351142,7.76393265 L120.608453,8.52786803 L116.804226,12.2360691 L117.284472,15.0361218 L117.284472,15.0361218 Z M113,26.8989829 C113.188142,27.0909797 113.387254,27.2721859 113.596322,27.441587 L113.596322,27.441587 C113.195103,27.441587 112.797333,27.441587 112.403678,27.441587 C112.612746,27.2721859 112.811858,27.0909797 113,26.8989829 L113,26.8989829 Z M125,22 C125,24.1973534 123.987541,26.1582341 122.403678,27.441587 C124.174764,27.441587 125.922739,27.441587 127.596322,27.441587 C126.012459,26.1582341 125,24.1973534 125,22 Z M120,41 C129.983193,41 138.168077,35.7319387 138.940417,29.0371342 C138.940417,29.0677074 101.063163,29.0677074 101.063163,29.0677074 C101.856854,35.7479701 110.032008,41 120,41 Z M113,13 L110.648859,14.2360681 L111.097887,11.6180341 L109.195774,9.76393211 L111.82443,9.38196574 L113,7 L114.175571,9.38196633 L116.804227,9.76393401 L114.902113,11.6180346 L115.351141,14.2360682 L113,13 Z M132,27 C134.761424,27 137,24.7614239 137,22 C137,19.2385761 134.761424,17 132,17 C129.238576,17 127,19.2385761 127,22 C127,24.7614239 129.238576,27 132,27 Z M122.872897,16.9344878 C124.317627,18.2815552 124.708252,19.992835 124.708252,19.992835 C124.708252,19.992835 124.922024,20 125,20 C125.090577,20 125.274426,19.992835 125.269983,19.9928351 C125.26554,19.9928352 125.658814,18.49292 127.002563,17.0866699 C128.346313,15.6804199 130,15.2971802 130,15.2971802 L130,15 C130,12.2385761 127.761424,10 125,10 C122.238576,10 120,12.2385761 120,15 C120,15 120,15.2971802 120,15.2971802 C120,15.2971802 121.592334,15.7404897 122.872897,16.9344878 Z M118,27 C120.761424,27 123,24.7614239 123,22 C123,19.2385761 120.761424,17 118,17 C115.238576,17 113,19.2385761 113,22 C113,24.7614239 115.238576,27 118,27 Z M108,27 C109.532699,27 110.904326,26.3103644 111.821506,25.2244662 C111.803695,25.2244663 110.92574,23.7735367 110.92574,22 C110.92574,20.2264633 111.803695,18.7545626 111.803695,18.7545626 C110.886618,17.6807644 109.522809,17 108,17 C105.238576,17 103,19.2385761 103,22 C103,24.7614239 105.238576,27 108,27 Z" id="icecream_1_L"></path>
                </g>
            </g>
        </g>
    </g>
</svg>