<?xml version="1.0" encoding="UTF-8" standalone="no"?>
<svg width="44px" height="51px" viewBox="0 0 44 51" version="1.1" xmlns="http://www.w3.org/2000/svg" xmlns:xlink="http://www.w3.org/1999/xlink" xmlns:sketch="http://www.bohemiancoding.com/sketch/ns">
    <!-- Generator: Sketch 3.1.1 (8761) - http://www.bohemiancoding.com/sketch -->
    <title>japanese_tea_pot</title>
    <desc>Created with Sketch.</desc>
    <defs>
        <radialGradient cx="50%" cy="50%" fx="50%" fy="50%" r="50%" id="radialGradient-1">
            <stop stop-color="#FF1B70" offset="0%"></stop>
            <stop stop-color="#FF1C70" offset="100%"></stop>
        </radialGradient>
    </defs>
    <g id="Page-2" stroke="none" stroke-width="1" fill="none" fill-rule="evenodd" sketch:type="MSPage">
        <g id="Artboard-1" sketch:type="MSArtboardGroup" transform="translate(-774.000000, -523.000000)" fill="#FF4D74">
            <g id="line-icons" sketch:type="MSLayerGroup" transform="translate(472.000000, 219.000000)">
                <g id="row-4-line-icons" transform="translate(8.000000, 302.000000)" sketch:type="MSShapeGroup">
                    <g id="japanese_tea_pot" transform="translate(294.000000, 2.000000)">
                        <path d="M35.8809643,37.001538 C36.6254634,37.0371995 37.9999998,37.6841245 38,38.0121395 C38,38.2496255 37.2541788,38.6583894 36.5693804,38.8678476 C36.8468476,39.1800125 37.0478119,39.5558557 37.1294268,39.9603068 L38.961573,49.0396932 C39.1809519,50.1268472 38.4583249,51 37.3495716,51 L14.6549324,51 C13.5360396,51 12.8218184,50.1223407 13.0370274,49.0396932 L14.8418306,39.9603068 C14.9233097,39.5504117 15.1262598,39.170938 15.4068087,38.8572146 L15.4068087,38.8572146 C14.7265809,38.6448169 13.9999999,38.245669 14,38.0121395 C14,37.681955 15.3642206,37.0286276 16.1184885,37.0009109 C14.1394217,34.7323651 9.42542825,29.0801328 8.2626511,25.4405627 C8.09394969,24.9125158 4.38495636,23.9999997 2.67438889,20.3848321 C1.04839907,16.9484135 2.57098848,15.7778044 1.93741226,14.1080985 C1.24738558,12.2896245 0.254943848,13.6297222 0.446029663,12.1145774 C0.63711526,10.5994327 0.595833789,10.2777513 1.93741226,10.1435935 C3.27899074,10.0094357 4.49336602,10.4796806 5.4743042,12.1145774 C6.45524216,13.7494742 6.08721523,14.7614122 6.83249664,15.5066937 C8.34764099,17.0218385 11.0887064,17.4267376 11.3722823,17.029253 C13.9269802,13.4483677 17,10.1435935 17,10.1435935 L35,10.1435935 C35,10.1435935 44.0000008,19.8223355 44,24 C43.9999994,27.3690708 38.1467687,34.4043656 35.8809643,37.001538 L35.8809643,37.001538 Z M19,49 L15.8379027,49 C15.2807732,49 14.9156725,48.561109 15.0158508,48.0197096 L16.3183946,40.9802904 C16.4194614,40.4340887 16.9481268,40 17.5011866,40 L34.3720205,40 C34.9254972,40 35.4614018,40.438891 35.5699283,40.9802904 L36.9810181,48.0197096 C37.0905072,48.5659113 36.728267,49 36.174082,49 L19,49 C19.0000444,48.9997705 19.973581,43.9685185 19.973581,43.9685185 C20.1829387,42.8865548 21.2507906,42 22.3564394,42 L29.62304,42 C30.7217328,42 31.7981144,42.8813358 32.0116691,43.9685185 L33,49 C33,49 19,49 19,49 L19,49 Z M22.1575136,43 C21.6050907,43 21.0740359,43.4315052 20.9661649,43.990778 L20,49 L32,49 L31.0355694,43.990778 C30.9302181,43.4435864 30.4033867,43 29.8445637,43 L22.1575136,43 Z M42.0512999,23.9617295 C42.0512992,27.5425848 34.1022713,36.0546108 34.1022713,36.0546108 L17.9435894,36.0546108 C17.9435894,36.0546108 11.6772006,29.2354129 10.3092463,25.1729396 L9.86535425,23.9538093 C9.86535425,23.9538093 7.3478775,23.4306322 5.04501941,20.5733827 C2.80523517,17.7943915 4.40060905,16.1639635 3.69954335,13.9479955 C2.99847781,11.7320276 2.30054009,12.2504971 2.5415396,11.9245773 C2.78253917,11.5986575 3.03426156,11.6642735 3.8047436,12.7465173 C4.77398824,14.1079493 4.13251226,16.2597248 6.87002675,17.7943914 C9.44465132,19.237741 12.2985667,19.0197395 12.5752781,18.6138862 C14.8684674,15.2504612 17.9435891,11.9245773 17.9435891,11.9245773 L34.102271,11.9245773 C34.102271,11.9245773 42.0513006,20.3808742 42.0512999,23.9617295 Z" id="japanese-tea-pot"></path>
                        <path d="M27.7146002,9.03021692 C30.7516935,9.13945886 33,9.53222083 33,10 C33,10.5522848 29.8659934,11 26,11 C22.1340066,11 19,10.5522848 19,10 C19,9.53222083 21.2483065,9.13945886 24.2853998,9.03021692 C24.1042166,8.72931902 24,8.37683006 24,8 C24,6.89543045 24.8954304,6 26,6 C27.1045696,6 28,6.89543045 28,8 C28,8.37683006 27.8957834,8.72931902 27.7146002,9.03021692 Z M18,11 L17,11 C17,11 17,5.5 17,5.5 C17,2.46861471 19.4617174,0 22.4983998,0 L29.5016003,0 C32.5349188,0 35,2.46243388 35,5.5 L35,11 L26,11 L34,11 L34,6.5 C34,4.01471863 31.9897898,2 29.5005291,2 L22.499471,2 C20.0144818,2 18,4.01977567 18,6.5 C18,6.5 18,10.9997967 18,11 L18,11 Z" id="Path"></path>
                    </g>
                </g>
            </g>
        </g>
    </g>
</svg>