<?xml version="1.0" encoding="UTF-8" standalone="no"?>
<svg width="44px" height="44px" viewBox="0 0 44 44" version="1.1" xmlns="http://www.w3.org/2000/svg" xmlns:xlink="http://www.w3.org/1999/xlink" xmlns:sketch="http://www.bohemiancoding.com/sketch/ns">
    <!-- Generator: Sketch 3.1.1 (8761) - http://www.bohemiancoding.com/sketch -->
    <title>lolipop_1_L</title>
    <desc>Created with Sketch.</desc>
    <defs>
        <radialGradient cx="50%" cy="50%" fx="50%" fy="50%" r="50%" id="radialGradient-1">
            <stop stop-color="#FF1B70" offset="0%"></stop>
            <stop stop-color="#FF1C70" offset="100%"></stop>
        </radialGradient>
    </defs>
    <g id="Page-2" stroke="none" stroke-width="1" fill="none" fill-rule="evenodd" sketch:type="MSPage">
        <g id="Artboard-1" sketch:type="MSArtboardGroup" transform="translate(-578.000000, -327.000000)" fill="#FF4D74">
            <g id="line-icons" sketch:type="MSLayerGroup" transform="translate(472.000000, 219.000000)">
                <g id="row-2-line-icons" transform="translate(3.000000, 103.000000)" sketch:type="MSShapeGroup">
                    <path d="M124.379953,32.4260476 L119.115148,23.3071377 C119.060849,23.2130888 118.99366,23.1311588 118.917085,23.0623478 C121.393078,21.242115 123,18.308716 123,15 C123,9.47715223 118.522848,5 113,5 C107.477152,5 103,9.47715223 103,15 C103,20.5228478 107.477152,25 113,25 C114.530577,25 115.980841,24.6561364 117.277752,24.0414481 L117.277752,24.0414481 C117.2993,24.1329148 117.334194,24.222435 117.383097,24.3071377 L123.202212,34.386139 L115.931349,46.4868867 C115.647426,46.9594131 115.797728,47.5710787 116.274429,47.8575095 C116.747829,48.1419572 117.362006,47.9890808 117.645683,47.5169629 L124.345566,36.3664863 L130.884852,47.6928623 C131.16051,48.1703158 131.768373,48.3354359 132.25,48.0573684 C132.728293,47.781226 132.888265,47.1628758 132.616903,46.6928623 L125.523307,34.4063949 L131.984487,23.6531859 C133.458854,24.5095967 135.172157,25 137,25 C142.522848,25 147,20.5228478 147,15 C147,9.47715223 142.522848,5 137,5 C131.477152,5 127,9.47715223 127,15 C127,17.973792 128.298066,20.6444043 130.3585,22.4761373 C130.357098,22.4784296 130.355703,22.4807296 130.354317,22.4830371 L124.379953,32.4260476 L124.379953,32.4260476 Z M113,23 C117.418278,23 121,19.4182782 121,15 C121,10.5817218 117.418278,7 113,7 C108.581722,7 105,10.5817218 105,15 C105,19.4182782 108.581722,23 113,23 Z M137,23 C141.418278,23 145,19.4182782 145,15 C145,10.5817218 141.418278,7 137,7 C132.581722,7 129,10.5817218 129,15 C129,19.4182782 132.581722,23 137,23 Z M111,11 C111.552285,11 112,10.5522848 112,10 C112,9.44771522 111.552285,9 111,9 C110.447715,9 110,9.44771522 110,10 C110,10.5522848 110.447715,11 111,11 Z M108,15 C108.552285,15 109,14.5522848 109,14 C109,13.4477152 108.552285,13 108,13 C107.447715,13 107,13.4477152 107,14 C107,14.5522848 107.447715,15 108,15 Z M109,19 C109.552285,19 110,18.5522848 110,18 C110,17.4477152 109.552285,17 109,17 C108.447715,17 108,17.4477152 108,18 C108,18.5522848 108.447715,19 109,19 Z M117,13 C117.552285,13 118,12.5522848 118,12 C118,11.4477152 117.552285,11 117,11 C116.447715,11 116,11.4477152 116,12 C116,12.5522848 116.447715,13 117,13 Z M113,15 C113.552285,15 114,14.5522848 114,14 C114,13.4477152 113.552285,13 113,13 C112.447715,13 112,13.4477152 112,14 C112,14.5522848 112.447715,15 113,15 Z M137,11 C137.552285,11 138,10.5522848 138,10 C138,9.44771522 137.552285,9 137,9 C136.447715,9 136,9.44771522 136,10 C136,10.5522848 136.447715,11 137,11 Z M137,16 C137.552285,16 138,15.5522848 138,15 C138,14.4477152 137.552285,14 137,14 C136.447715,14 136,14.4477152 136,15 C136,15.5522848 136.447715,16 137,16 Z M133,13 C133.552285,13 134,12.5522848 134,12 C134,11.4477152 133.552285,11 133,11 C132.447715,11 132,11.4477152 132,12 C132,12.5522848 132.447715,13 133,13 Z M142,17 C142.552285,17 143,16.5522848 143,16 C143,15.4477152 142.552285,15 142,15 C141.447715,15 141,15.4477152 141,16 C141,16.5522848 141.447715,17 142,17 Z M141,13 C141.552285,13 142,12.5522848 142,12 C142,11.4477152 141.552285,11 141,11 C140.447715,11 140,11.4477152 140,12 C140,12.5522848 140.447715,13 141,13 Z" id="lolipop_1_L"></path>
                </g>
            </g>
        </g>
    </g>
</svg>