<?xml version="1.0" encoding="UTF-8" standalone="no"?>
<svg width="31px" height="52px" viewBox="0 0 31 52" version="1.1" xmlns="http://www.w3.org/2000/svg" xmlns:xlink="http://www.w3.org/1999/xlink" xmlns:sketch="http://www.bohemiancoding.com/sketch/ns">
    <!-- Generator: Sketch 3.1.1 (8761) - http://www.bohemiancoding.com/sketch -->
    <title>lolipop_2_L</title>
    <desc>Created with Sketch.</desc>
    <defs>
        <radialGradient cx="50%" cy="50%" fx="50%" fy="50%" r="50%" id="radialGradient-1">
            <stop stop-color="#FF1B70" offset="0%"></stop>
            <stop stop-color="#FF1C70" offset="100%"></stop>
        </radialGradient>
    </defs>
    <g id="Page-2" stroke="none" stroke-width="1" fill="none" fill-rule="evenodd" sketch:type="MSPage">
        <g id="Artboard-1" sketch:type="MSArtboardGroup" transform="translate(-685.000000, -322.000000)" fill="#FF4D74">
            <g id="line-icons" sketch:type="MSLayerGroup" transform="translate(472.000000, 219.000000)">
                <g id="row-2-line-icons" transform="translate(3.000000, 103.000000)" sketch:type="MSShapeGroup">
                    <path d="M226,35.2954136 L226,29.1190555 L226,29.1190555 L226.431672,29.0850673 L227.816224,28.8394729 L229.164581,28.4623106 L230.46351,27.9581121 L231.70035,27.3326493 L232.863132,26.5928695 L233.940696,25.7468189 L234.922797,24.8035564 L235.800202,23.7730568 L236.564777,22.6661066 L237.209558,21.4941911 L237.72882,20.2693764 L238.118119,19.0041849 L238.374337,17.7114685 L238.495698,16.4042781 L238.481783,15.0957325 L238.333523,13.7988872 L238.053184,12.5266042 L237.644335,11.2914256 L237.111806,10.1054499 L236.461633,8.98021381 L235.700986,7.92658119 L234.838098,6.95463807 L233.882172,6.07359688 L232.843285,5.29170967 L231.732282,4.61619148 L230.560663,4.05315445 L229.340466,3.60755337 L228.084141,3.28314301 L226.804428,3.08244777 L225.514223,3.00674369 L224.226453,3.05605306 L222.953943,3.22915152 L221.709293,3.52358759 L220.504749,3.93571431 L219.352086,4.46073261 L218.262494,5.09274592 L217.246468,5.82482535 L216.313706,6.6490849 L215.473023,7.55676564 L214.732259,8.53832822 L214.098216,9.58355249 L213.576591,10.6816434 L213.171925,11.8213422 L212.887568,12.9910411 L212.72565,14.1789011 L212.687068,15.3729719 L212.771484,16.5613109 L212.977335,17.7321029 L213.301858,18.8737767 L213.74112,19.9751195 L214.290069,21.0253862 L214.94259,22.014404 L215.691568,22.9326704 L216.52897,23.771444 L217.445929,24.5228274 L218.432834,25.1798408 L219.479437,25.7364862 L220.574951,26.1878016 L221.708166,26.5299042 L222.867562,26.7600231 L224.041426,26.87652 L225.217967,26.8788993 L226.38544,26.7678062 L227.532256,26.5450133 L228.647101,26.2133968 L229.719048,25.776901 L230.737658,25.240493 L231.693088,24.6101067 L232.576183,23.8925786 L233.378559,23.0955738 L234.092691,22.227505 L234.711975,21.2974442 L235.230791,20.3150283 L235.644555,19.2903598 L235.949759,18.2339033 L236.143994,17.156379 L236.225974,16.0686542 L236.19554,14.9816345 L236.053654,13.9061543 L235.802384,12.8528696 L235.444876,11.8321525 L234.985319,10.8539897 L234.428892,9.92788501 L233.78171,9.06276747 L233.05076,8.26690568 L232.24382,7.54782926 L231.369382,6.91225806 L230.43656,6.3660399 L229.454997,5.91409743 L228.434766,5.56038439 L227.386268,5.30785193 L226.32012,5.15842504 L225.247059,5.11298934 L224.177823,5.1713884 L223.123052,5.33243135 L222.093178,5.59391085 L221.098324,5.95263106 L220.148203,6.40444526 L219.252029,6.94430282 L218.418419,7.56630483 L217.65532,8.26376789 L216.969927,9.02929536 L216.368619,9.85485527 L215.856898,10.7318641 L215.439341,11.6512758 L215.119561,12.6036744 L214.900172,13.5793702 L214.782775,14.5684981 L214.76794,15.5611167 L214.855216,16.5473083 L215.043134,17.5172772 L215.32923,18.461447 L215.710076,19.3705547 L216.18132,20.235741 L216.737732,21.0486367 L217.373266,21.8014428 L218.081121,22.4870054 L218.853815,23.0988828 L219.683263,23.6314059 L220.560864,24.07973 L221.477583,24.4398784 L222.424051,24.7087768 L223.390657,24.8842789 L224.367645,24.9651821 L225.345211,24.9512343 L226.313606,24.8431303 L227.263228,24.6424999 L228.184717,24.3518859 L229.06905,23.9747133 L229.907629,23.5152504 L230.692359,22.9785605 L231.415731,22.3704478 L232.070893,21.6973941 L232.651711,20.9664913 L233.15283,20.185366 L233.569721,19.3621012 L233.89872,18.5051527 L234.137062,17.6232624 L234.282902,16.7253698 L234.335327,15.8205216 L234.294363,14.9177807 L234.160966,14.026136 L233.937007,13.154413 L233.62525,12.3111868 L233.229318,11.5046982 L232.753652,10.7427734 L232.203463,10.0327482 L231.584673,9.38139824 L230.903854,8.79487407 L230.168158,8.278644 L229.385243,7.83744335 L228.563191,7.47523158 L227.710429,7.19515734 L226.835639,6.99953184 L225.947673,6.88981071 L225.055462,6.86658448 L224.167928,6.92957781 L223.293891,7.07765728 L222.441989,7.3088477 L221.620586,7.62035677 L220.837693,8.00860772 L220.10089,8.46927953 L219.417255,8.99735441 L218.793291,9.58717191 L218.234872,10.2324891 L217.74718,10.9265463 L217.334664,11.6621374 L217.000996,12.4316844 L216.749042,13.2273152 L216.580835,14.0409438 L216.49756,14.8643519 L216.499551,15.6892721 L216.586288,16.5074704 L216.75641,17.3108278 L217.007731,18.0914211 L217.337269,18.8416004 L217.741281,19.5540641 L218.215301,20.2219291 L218.754193,20.8387977 L219.352204,21.398818 L220.003023,21.8967391 L220.699853,22.3279604 L221.435475,22.688573 L222.202328,22.9753951 L222.992581,23.1859993 L223.798219,23.3187324 L224.611118,23.3727273 L225.42313,23.3479071 L226.226164,23.2449812 L227.012266,23.0654336 L227.773696,22.8115037 L228.503007,22.4861594 L229.193115,22.0930632 L229.837369,21.6365318 L230.429614,21.1214889 L230.96425,20.553413 L231.436282,19.9382791 L231.841372,19.2824967 L232.175873,18.5928425 L232.436864,17.8763918 L232.622172,17.1404452 L232.730393,16.3924552 L232.760901,15.6399504 L232.713846,14.8904605 L232.590153,14.151441 L232.391503,13.4301993 L232.120318,12.7338226 L231.779725,12.0691087 L231.373528,11.4425 L230.906162,10.8600209 L230.382645,10.3272207 L229.808526,9.84912083 L229.189826,9.4301677 L228.532976,9.07419207 L227.844748,8.78437425 L227.132189,8.56321626 L226.402547,8.41252084 L225.663196,8.3333776 L224.921565,8.32615631 L224.185064,8.39050744 L223.461004,8.52536988 L222.756534,8.72898565 L222.078562,8.99892156 L221.433692,9.33209738 L220.828162,9.72482039 L220.267779,10.1728258 L219.757864,10.6713225 L219.303207,11.2150441 L218.908017,11.7983041 L218.575886,12.4150551 L218.309757,13.0589513 L218.111895,13.7234132 L217.983874,14.4016951 L217.926561,15.0869527 L217.940113,15.7723127 L218.023979,16.4509405 L218.176911,17.1161092 L218.39698,17.7612652 L218.681597,18.3800931 L219.027547,18.9665768 L219.43102,19.515058 L219.887656,20.0202907 L220.392592,20.4774906 L220.940508,20.8823805 L221.52569,21.2312299 L222.142084,21.5208889 L222.783362,21.7488162 L223.442983,21.9131009 L224.114264,22.012478 L224.790441,22.046337 L225.464746,22.0147243 L226.130464,21.9183389 L226.781009,21.7585213 L227.409982,21.537237 L228.011239,21.2570525 L228.578948,20.9211069 L229.107644,20.5330766 L229.592283,20.0971358 L230.028293,19.6179123 L230.411611,19.1004378 L230.738723,18.5500965 L231.006698,17.9725682 L231.213209,17.373771 L231.356558,16.7597999 L231.435686,16.1368658 L231.450181,15.5112326 L231.400275,14.8891541 L231.286846,14.2768123 L231.111395,13.6802557 L230.876037,13.1053401 L230.583468,12.5576711 L230.236941,12.0425497 L229.840228,11.5649216 L229.397578,11.1293292 L228.913674,10.7398697 L228.393584,10.4001557 L227.842704,10.1132832 L227.266709,9.88180271 L226.671488,9.70769773 L226.06309,9.59236798 L225.447657,9.53661891 L224.831367,9.54065722 L224.220371,9.60409222 L223.62073,9.72594329 L223.038356,9.90465308 L222.478954,10.1381065 L221.947968,10.4236548 L221.450526,10.7581456 L220.991392,11.1379568 L220.574917,11.5590357 L220.205006,12.0169419 L219.885074,12.5068938 L219.618018,13.0238183 L219.40619,13.562403 L219.251379,14.1171508 L219.154795,14.6824357 L219.11706,15.2525593 L219.138204,15.8218087 L219.217672,16.3845131 L219.354329,16.9351001 L219.546479,17.4681507 L219.791879,17.9784529 L220.08777,18.4610517 L220.430907,18.9112975 L220.817592,19.3248905 L221.243712,19.6979217 L221.704789,20.0269093 L222.19602,20.308831 L222.71233,20.5411518 L223.248425,20.7218459 L223.798842,20.8494141 L224.35801,20.9228959 L224.920303,20.9418755 L225.480094,20.9064832 L226.031817,20.8173904 L226.570019,20.6758004 L227.089411,20.4834325 L227.584927,20.2425024 L228.051763,19.9556972 L228.485435,19.6261453 L228.881812,19.2573832 L229.23716,18.8533177 L229.548177,18.4181846 L229.812021,17.9565047 L230.026339,17.473037 L230.189283,16.9727297 L230.29953,16.4606702 L230.35629,15.942033 L230.359309,15.422028 L230.308874,14.9058481 L230.205799,14.3986178 L230.051422,13.9053422 L229.847581,13.4308579 L229.596601,12.9797858 L229.301259,12.5564864 L228.96476,12.1650175 L228.590702,11.809096 L228.183032,11.4920624 L227.746014,11.2168498 L227.284177,10.9859574 L226.802272,10.8014275 L226.30522,10.6648285 L225.798067,10.5772413 L225.285929,10.5392521 L224.773942,10.5509489 L224.26721,10.611924 L223.770754,10.7212805 L223.289464,10.8776445 L222.828051,11.0791814 L222.390999,11.3236169 L221.982522,11.6082623 L221.606527,11.9300439 L221.266571,12.2855353 L220.965834,12.6709946 L220.707084,13.0824026 L220.492655,13.5155051 L220.324425,13.9658566 L220.203801,14.4288655 L220.131707,14.899841 L220.108577,15.3740403 L220.134355,15.8467162 L220.208496,16.3131648 L220.329979,16.7687716 L220.497315,17.2090572 L220.708566,17.6297213 L220.961369,18.0266847 L221.252959,18.396128 L221.580201,18.7345289 L221.939624,19.038695 L222.327456,19.3057943 L222.739663,19.5333807 L223.171991,19.7194166 L223.620012,19.8622905 L224.079168,19.9608309 L224.544814,20.0143149 L225.012269,20.0224734 L225.476862,19.9854907 L225.933978,19.9040001 L226.379102,19.779075 L226.807866,19.6122156 L227.216091,19.4053314 L227.599827,19.1607199 L227.955391,18.8810411 L228.279403,18.5692892 L228.568817,18.2287608 L228.820951,17.8630198 L229.033508,17.4758608 L229.204602,17.0712697 L229.332768,16.6533827 L229.416982,16.2264447 L229.456661,15.7947655 L229.45167,15.3626773 L229.402321,14.9344908 L229.309365,14.5144525 L229.173986,14.1067028 L228.997782,13.7152355 L228.782749,13.3438583 L228.531258,12.9961565 L228.246031,12.6754583 L227.93011,12.3848031 L227.586825,12.1269128 L227.219758,11.904167 L226.83271,11.7185806 L226.429656,11.5717862 L226.01471,11.4650203 L225.592077,11.3991127 L225.166018,11.3744811 L224.740801,11.3911294 L224.320661,11.4486494 L223.909757,11.5462281 L223.512131,11.6826579 L223.131672,11.8563506 L222.772071,12.065356 L222.436793,12.3073831 L222.129037,12.5798252 L221.851711,12.8797875 L221.607403,13.2041177 L221.398353,13.5494392 L221.226441,13.9121858 L221.093162,14.2886384 L220.999619,14.6749631 L220.946512,15.0672499 L220.934133,15.4615526 L220.962368,15.8539276 L221.030696,16.2404739 L221.138202,16.6173715 L221.283583,16.9809189 L221.465168,17.3275694 L221.680935,17.6539655 L221.928532,17.9569716 L222.205302,18.2337034 L222.508317,18.4815557 L222.8344,18.6982264 L223.180165,18.8817378 L223.542049,19.0304544 L223.916349,19.1430975 L224.299261,19.2187552 L224.686915,19.2568899 L225.075419,19.2573413 L225.460894,19.2203257 L225.839515,19.1464319 L226.207545,19.0366128 L226.561378,18.8921739 L226.897569,18.7147583 L227.212869,18.5063282 L227.504257,18.2691438 L227.768967,18.0057385 L228.004516,17.7188924 L228.208726,17.411603 L228.379746,17.087054 L228.516065,16.7485828 L228.616525,16.3996457 L228.680337,16.0437834 L228.707078,15.6845847 L228.696699,15.3256508 L228.649522,14.970559 L228.566232,14.6228274 L228.447871,14.28588 L228.295825,13.9630134 L228.111808,13.6573644 L227.897842,13.3718795 L227.656235,13.1092873 L227.38956,12.8720718 L227.100621,12.6624496 L226.79243,12.482349 L226.468173,12.3333929 L226.131178,12.2168839 L225.784879,12.1337935 L225.432784,12.0847545 L225.078436,12.0700561 L224.725384,12.0896438 L224.377139,12.1431211 L224.037145,12.2297563 L223.708745,12.3484912 L223.395145,12.4979538 L223.099384,12.6764737 L222.824308,12.8821006 L222.572538,13.1126252 L222.346447,13.3656032 L222.14814,13.6383805 L221.979431,13.9281212 L221.841829,14.2318369 L221.736523,14.5464174 L221.664375,14.8686622 L221.625909,15.1953135 L221.621311,15.5230883 L221.650429,15.8487118 L221.712774,16.1689499 L221.807531,16.480641 L221.933565,16.7807274 L222.089435,17.0662849 L222.273413,17.3345515 L222.483499,17.5829535 L222.717446,17.8091306 L222.972781,18.0109578 L223.246833,18.1865656 L223.536759,18.3343564 L223.839576,18.4530198 L224.152189,18.5415433 L224.471423,18.5992209 L224.794057,18.6256582 L225.116853,18.6207748 L225.436592,18.5848028 L225.750104,18.5182833 L226.054299,18.4220584 L226.346198,18.2972618 L226.622965,18.1453052 L226.881926,17.967863 L227.120605,17.7668538 L227.336741,17.54442 L227.528311,17.302905 L227.693548,17.0448289 L227.830959,16.7728618 L227.939338,16.4897971 L228.017773,16.1985222 L228.065659,15.9019895 L228.082696,15.6031865 L228.068897,15.3051059 L228.024578,15.0107156 L227.950361,14.7229294 L227.847161,14.4445779 L227.716177,14.1783815 L227.558877,13.926923 L227.376986,13.6926233 L227.172459,13.4777182 L226.94747,13.2842366 L226.704381,13.1139824 L226.445722,12.9685169 L226.174165,12.8491452 L225.892491,12.7569047 L225.603569,12.6925562 L225.310323,12.6565777 L225.0157,12.6491617 L224.722649,12.6702147 L224.43408,12.7193601 L224.152845,12.795943 L223.881705,12.8990392 L223.623305,13.0274651 L223.380146,13.179792 L223.154564,13.3543607 L222.948705,13.5493005 L222.764506,13.762548 L222.603676,13.9918698 L222.467683,14.234885 L222.357736,14.4890904 L222.27478,14.7518856 L222.219483,15.0206 L222.192234,15.2925196 L222.193141,15.5649142 L222.22203,15.8350652 L222.278449,16.1002919 L222.361673,16.3579786 L222.470717,16.6056001 L222.60434,16.8407465 L222.761068,17.0611462 L222.939201,17.264688 L223.136838,17.4494413 L223.351895,17.6136739 L223.582124,17.7558686 L223.825142,17.8747368 L224.078449,17.9692299 L224.339461,18.0385485 L224.605529,18.0821492 L224.873971,18.0997477 L225.142097,18.0913212 L225.407234,18.0571061 L225.666757,17.9975947 L225.91811,17.9135287 L226.158836,17.8058903 L226.386596,17.6758907 L226.599196,17.5249573 L226.794604,17.3547178 L226.970973,17.1669827 L227.126655,16.9637265 L227.260221,16.7470668 L227.370467,16.5192425 L227.456431,16.2825906 L227.517398,16.0395225 L227.552908,15.7924995 L227.562754,15.5440078 L227.546989,15.2965336 L227.505921,15.0525386 L227.440107,14.8144353 L227.350348,14.5845632 L227.237681,14.3651662 L227.103361,14.1583704 L226.948857,13.9661639 L226.775826,13.7903778 L226.586103,13.6326685 L226.381676,13.4945026 L226.164671,13.3771433 L225.937325,13.2816387 L225.701966,13.208813 L225.460986,13.1592594 L225.216823,13.1333358 L224.971928,13.1311619 L224.728749,13.1526205 L224.4897,13.1973588 L224.25714,13.2647945 L224.03335,13.3541221 L223.82051,13.4643226 L223.620678,13.594175 L223.43577,13.7422691 L223.267543,13.9070216 L223.117576,14.0866919 L222.987258,14.2794013 L222.877773,14.4831518 L222.790089,14.695847 L222.724955,14.9153139 L222.682887,15.1393243 L222.664169,15.3656182 L222.668851,15.5919256 L222.69675,15.8159901 L222.747451,16.0355907 L222.820315,16.2485638 L222.914485,16.4528248 L223.028898,16.6463881 L223.162294,16.8273864 L223.313232,16.9940885 L223.480104,17.1449161 L223.661153,17.2784583 L223.85449,17.3934849 L224.058116,17.4889574 L224.26994,17.5640387 L224.487802,17.6180994 L224.709494,17.6507238 L224.932784,17.6617122 L225.155435,17.6510818 L225.375231,17.6190654 L225.589998,17.5661076 L225.797623,17.492859 L225.996078,17.4001691 L226.183438,17.2890759 L226.3579,17.1607949 L226.5178,17.0167062 L226.661629,16.8583388 L226.788047,16.6873558 L226.895895,16.5055357 L226.984208,16.3147552 L227.052218,16.1169689 L227.099367,15.91419 L227.125308,15.7084697 L227.129904,15.5018765 L227.113237,15.2964754 L227.075596,15.0943075 L227.017481,14.8973696 L226.939589,14.7075948 L226.842815,14.5268332 L226.728233,14.3568345 L226.59709,14.1992306 L226.450792,14.0555203 L226.290885,13.9270551 L226.119045,13.8150266 L225.937053,13.7204556 L225.746785,13.6441825 L225.550185,13.5868608 L225.349252,13.5489508 L225.146014,13.5307169 L224.942512,13.5322254 L224.740775,13.5533458 L224.542806,13.5937523 L224.350555,13.6529292 L224.165907,13.7301763 L223.990658,13.8246175 L223.8265,13.9352103 L223.675005,14.0607575 L223.537609,14.1999194 L223.4156,14.3512288 L223.310105,14.5131057 L223.222077,14.6838742 L223.152293,14.8617793 L223.101341,15.0450054 L223.069619,15.2316944 L223.057331,15.4199645 L223.064486,15.6079292 L223.090897,15.7937161 L223.136189,15.9754855 L223.1998,16.1514485 L223.280987,16.3198846 L223.378839,16.4791585 L223.492282,16.6277357 L223.620093,16.7641976 L223.760915,16.8872544 L223.913266,16.9957577 L224.075559,17.088711 L224.246119,17.1652784 L224.423197,17.2247928 L224.604988,17.2667604 L224.789652,17.2908658 L224.975331,17.2969733 L225.160168,17.2851274 L225.342324,17.2555515 L225.52,17.2086445 L225.691449,17.1449755 L225.854999,17.0652777 L226.009065,16.9704397 L226.152167,16.8614958 L226.282943,16.739615 L226.400159,16.6060884 L226.502728,16.4623156 L226.589711,16.3097903 L226.660335,16.1500845 L226.713989,15.9848328 L226.750238,15.8157153 L226.768823,15.644441 L226.769663,15.4727304 L226.752852,15.302298 L226.718663,15.1348358 L226.667537,14.9719961 L226.600084,14.8153755 L226.517071,14.6664993 L226.419419,14.5268063 L226.308186,14.3976358 L226.184561,14.2802139 L226.049849,14.1756427 L225.905459,14.0848895 L225.752887,14.0087782 L225.593702,13.9479819 L225.42953,13.903017 L225.262038,13.8742391 L225.092914,13.8618403 L224.923856,13.8658481 L224.756547,13.8861266 L224.592646,13.922378 L224.433768,13.9741474 L224.281467,14.0408276 L224.137223,14.1216663 L224.002427,14.2157745 L223.878367,14.3221362 L223.766219,14.4396189 L223.66703,14.566986 L223.581713,14.7029097 L223.511038,14.8459846 L223.455623,14.994742 L223.415933,15.1476655 L223.392269,15.3032058 L223.384775,15.4597968 L223.39343,15.6158709 L223.418053,15.7698748 L223.458306,15.9202853 L223.513695,16.0656236 L223.583579,16.2044702 L223.667177,16.3354788 L223.763574,16.4573891 L223.871734,16.5690388 L223.990511,16.6693748 L224.118657,16.7574629 L224.25484,16.8324966 L224.397654,16.8938043 L224.545638,16.9408552 L224.697284,16.9732635 L224.85106,16.9907921 L225.00542,16.9933533 L225.158822,16.9810093 L225.30974,16.9539706 L225.456686,16.9125928 L225.598217,16.8573727 L225.732953,16.7889419 L225.859592,16.7080602 L225.976917,16.615607 L226.083814,16.512572 L226.179278,16.4000446 L226.262424,16.2792024 L226.332495,16.151299 L226.388869,16.0176512 L226.431064,15.8796252 L226.458743,15.7386229 L226.471714,15.5960677 L226.469935,15.4533902 L226.45351,15.3120136 L226.422688,15.17334 L226.377862,15.0387363 L226.319559,14.9095207 L226.248441,14.7869501 L226.165292,14.6722077 L226.07101,14.5663916 L225.966603,14.4705047 L225.853169,14.3854448 L225.731893,14.3119966 L225.604031,14.2508245 L225.470895,14.2024663 L225.333844,14.1673293 L225.194267,14.1456861 L225.053572,14.1376736 L224.913167,14.1432918 L224.77445,14.1624048 L224.638796,14.1947428 L224.507538,14.2399059 L224.38196,14.2973688 L224.26328,14.3664862 L224.152642,14.4465007 L224.051101,14.5365507 L223.959617,14.6356794 L223.879042,14.7428453 L223.810117,14.8569326 L223.75346,14.9767632 L223.709564,15.1011087 L223.678792,15.2287028 L223.661375,15.3582541 L223.657407,15.4884595 L223.666849,15.6180168 L223.689528,15.7456381 L223.725142,15.8700622 L223.773258,15.9900671 L223.833324,16.1044822 L223.90467,16.2121996 L223.98652,16.3121842 L224.077996,16.4034847 L224.178129,16.4852414 L224.28587,16.5566951 L224.4001,16.6171938 L224.519642,16.6661984 L224.643273,16.7032877 L224.769736,16.7281617 L224.897754,16.7406439 L225.026042,16.7406826 L225.153317,16.7283503 L225.278318,16.7038424 L225.399812,16.6674746 L225.516606,16.6196792 L225.627566,16.5609997 L225.731617,16.4920848 L225.827764,16.4136819 L225.915093,16.3266281 L225.992787,16.2318423 L226.060126,16.1303149 L226.1165,16.0230977 L226.161411,15.911293 L226.194478,15.7960427 L226.215441,15.678516 L226.224163,15.5598981 L226.220627,15.4413782 L226.204941,15.3241375 L226.177333,15.2093374 L226.138147,15.0981083 L226.087842,14.9915384 L226.026986,14.8906629 L225.956246,14.7964544 L225.876386,14.709813 L225.788256,14.6315583 L225.692783,14.5624214 L225.590961,14.5030384 L225.483844,14.453944 L225.37253,14.4155675 L225.258154,14.3882288 L225.141875,14.3721358 L225.024862,14.3673829 L224.908287,14.3739512 L224.79331,14.3917088 L224.681068,14.420413 L224.572663,14.4597136 L224.469155,14.5091564 L224.371547,14.5681891 L224.280777,14.6361669 L224.19771,14.7123595 L224.12313,14.7959591 L224.05773,14.8860887 L224.002108,14.9818113 L223.956763,15.0821397 L223.922085,15.1860466 L223.898359,15.2924749 L223.885756,15.4003487 L223.884337,15.5085839 L223.89405,15.6160991 L223.914734,15.7218265 L223.946118,15.8247225 L223.987826,15.9237776 L224.039382,16.0180267 L224.100215,16.1065582 L224.169662,16.1885228 L224.246982,16.2631418 L224.331356,16.3297142 L224.421904,16.3876234 L224.517684,16.4363428 L224.617713,16.4754404 L224.720967,16.5045827 L224.826398,16.5235376 L224.932942,16.5321758 L225.03953,16.5304715 L225.1451,16.5185024 L225.248604,16.4964481 L225.349022,16.4645874 L225.445372,16.4232957 L225.536717,16.3730398 L225.622174,16.3143733 L225.700927,16.2479307 L225.77223,16.1744199 L225.835414,16.0946153 L225.889899,16.0093495 L225.935191,15.9195048 L225.970892,15.8260038 L225.996704,15.7298002 L226.012427,15.6318691 L226.017962,15.5331972 L226.013315,15.4347725 L225.998592,15.3375751 L225.973997,15.2425669 L225.939836,15.1506823 L225.896503,15.0628193 L225.844486,14.9798304 L225.784352,14.9025145 L225.716751,14.8316092 L225.642399,14.767784 L225.562078,14.7116337 L225.476623,14.6636733 L225.386916,14.624333 L225.293877,14.5939545 L225.198453,14.5727882 L225.10161,14.5609911 L225.004321,14.558626 L224.90756,14.5656612 L224.812287,14.5819713 L224.719444,14.6073395 L224.629943,14.6414597 L224.464409,14.734309 L224.322056,14.8564463 L224.208258,15.0026842 L224.127197,15.1669403 L224.081706,15.3424883 L224.073173,15.5222327 L224.101504,15.6989944 L224.165145,15.8657966 L224.261159,16.016139 L224.385359,16.1442504 L224.532489,16.2453086 L224.696444,16.3156212 L224.870524,16.3527583 L225.047706,16.3556345 L225.220924,16.3245362 L225.383355,16.2610941 L225.52868,16.1682027 L225.651336,16.049891 L225.74672,15.9111492 L225.81137,15.7577198 L225.843079,15.5958604 L225.840974,15.4320901 L225.805535,15.2729278 L225.738556,15.1246331 L225.643064,14.9929614 L225.523178,14.8829416 L225.383941,14.7986849 L225.231101,14.7432324 L225.07088,14.718447 L224.90972,14.7249536 L224.754025,14.7621284 L224.609907,14.8281382 L224.482947,14.9200277 L224.377981,15.0338492 L224.298916,15.1648316 L224.248585,15.3075784 L224.228649,15.4562897 L224.239544,15.6049968 L224.280477,15.747801 L224.349473,15.8791065 L224.443468,15.9938391 L224.55844,16.0876415 L224.689585,16.1570372 L224.831509,16.1995588 L224.978459,16.2138337 L225.124546,16.1996257 L225.263985,16.1578313 L225.391322,16.0904309 L225.501649,16.0003972 L225.590787,15.8915663 L225.655448,15.7684749 L225.693353,15.6361724 L225.703312,15.5000145 L225.685256,15.3654474 L225.640228,15.2377904 L225.57033,15.1220266 L225.478626,15.0226091 L225.369007,14.9432904 L225.246032,14.8869821 L225.114735,14.8556488 L224.980421,14.8502415 L224.848454,14.8706717 L224.72404,14.9158271 L224.612027,14.9836274 L224.516713,15.0711185 L224.441684,15.1745998 L224.389679,15.2897794 L224.362492,15.4119518 L224.36091,15.536189 L224.384699,15.6575386 L224.432616,15.7712208 L224.502481,15.8728157 L224.591264,15.9584345 L224.695223,16.0248677 L224.810057,16.0697042 L224.931083,16.0914179 L225.053429,16.0894178 L225.172225,16.0640603 L225.282801,16.0166242 L225.380867,15.9492494 L225.462679,15.8648414 L225.525181,15.7669475 L225.566119,15.6596087 L225.584123,15.547193 L225.578746,15.4342192 L225.550474,15.3251751 L225.500697,15.2243404 L225.43164,15.1356189 L225.346268,15.0623884 L225.248158,15.0073728 L225.141351,14.9725415 L225.030185,14.9590402 L224.919121,14.9671553 L224.812564,14.9963122 L224.714687,15.0451084 L224.629271,15.1113786 L224.55956,15.1922901 L224.508135,15.2844619 L224.476822,15.3841064 L224.466628,15.4871835 L224.47771,15.5895643 L224.509381,15.6871957 L224.560144,15.7762604 L224.627761,15.8533257 L224.709354,15.9154747 L224.801523,15.9604164 L224.900487,15.9865694 L225.002242,15.9931156 L225.102719,15.9800247 L225.197947,15.9480453 L225.28421,15.8986669 L225.358191,15.8340514 L225.417098,15.7569402 L225.458772,15.670538 L225.481761,15.5783807 L225.48537,15.4841914 L225.469684,15.3917301 L225.43555,15.3046441 L225.353373,15.1914108 L225.241317,15.1075039 L225.109834,15.0598467 L224.970916,15.0520288 L224.837004,15.0840468 L224.719877,15.1523669 L224.629622,15.2502999 L224.573767,15.3686496 L224.556662,15.4965707 L224.579144,15.6225597 L224.638529,15.7354852 L224.72891,15.825568 L224.841735,15.8852245 L224.966613,15.9096996 L225.092267,15.8974393 L225.207548,15.8501722 L225.302421,15.7726992 L225.368835,15.6724138 L225.401402,15.5586021 L225.397828,15.4415865 L225.35906,15.3317929 L225.289151,15.238825 L225.194838,15.1706274 L225.084908,15.132811 L224.969375,15.1281958 L224.858575,15.1566105 L224.762245,15.2149598 L224.688669,15.2975493 L224.643969,15.3966363 L224.631602,15.5031514 L224.652098,15.6075254 L224.703067,15.700546 L224.77946,15.7741682 L224.874061,15.8222068 L224.978169,15.8408517 L225.082393,15.8289645 L225.177492,15.7881322 L225.255201,15.7224794 L225.308934,15.6382581 L225.334351,15.5432566 L225.329694,15.4460823 L225.2959,15.3553848 L225.236475,15.2790884 L225.157131,15.2237029 L225.06525,15.1937709 L224.937738,15.1969129 L224.822912,15.2473149 L224.73841,15.3360073 L224.696724,15.4482493 L224.70337,15.5659648 L224.756185,15.6706431 L224.84585,15.7462397 L224.957504,15.7816244 L225.073201,15.7722057 L225.174777,15.7204956 L225.246698,15.6355526 L225.27842,15.5314143 L225.265925,15.4247901 L225.212191,15.3323891 L225.126568,15.2683111 L225.023169,15.2419048 L224.918554,15.2564188 L224.829089,15.3086354 L224.768395,15.3895239 L224.745281,15.4857857 L224.762483,15.5820303 L224.816378,15.6632277 L224.897697,15.7170471 L224.993103,15.7357197 L225.087369,15.7171461 L225.181451,15.6477977 L225.228992,15.5447682 L225.21986,15.4339123 L225.157902,15.3422257 L225.059608,15.2912934 L224.949768,15.2922338 L224.855238,15.3433176 L224.798404,15.4307569 L224.791895,15.5323842 L224.835828,15.6232481 L224.918132,15.6817188 L225.017821,15.6946153 L225.11032,15.6601433 L225.1735,15.587999 L225.191087,15.4781142 L225.142421,15.3795558 L225.046515,15.3257888 L224.937955,15.3337315 L224.85447,15.3985169 L224.823872,15.4959194 L224.85484,15.5913484 L224.934601,15.6520896 L225.034064,15.6584788 L225.118379,15.6102047 L225.159105,15.5257451 L225.135984,15.4220168 L225.051086,15.3584322 L224.946051,15.3626953 L224.87013,15.430105 L224.857159,15.5270296 L224.910582,15.6075822 L225.003088,15.6352757 L225.099945,15.5899615 L225.133082,15.493379 L225.085776,15.4051596 L224.989775,15.377236 L224.904248,15.4233979 L224.88171,15.524391 L224.947597,15.6021867 L225.048747,15.60059 L225.108724,15.5248698 L225.078019,15.426986 L240.768258,12.1781473 L240.302113,10.683913 L239.686123,9.24645733 L238.927308,7.87978025 L238.034072,6.59709404 L237.016109,5.41069605 L235.8843,4.33185148 L234.650597,3.37068707 L233.3279,2.53609684 L231.929917,1.83566062 L230.47103,1.27557617 L228.966143,0.860605471 L227.430528,0.594035683 L225.87968,0.477654997 L224.329149,0.511743596 L222.794395,0.695079697 L221.290628,1.02496053 L219.83266,1.497238 L218.434761,2.10636845 L217.110517,2.84547619 L215.872699,3.70642983 L214.733144,4.6799307 L213.702639,5.75561244 L212.790818,6.92215058 L212.006079,8.16738114 L211.355501,9.47842675 L210.844785,10.8418293 L210.478203,12.2436875 L210.258566,13.6697981 L210.187203,15.1057992 L210.263955,16.5373146 L210.48719,17.9500971 L210.853824,19.3301695 L211.359359,20.6639629 L211.997942,21.9384495 L212.762425,23.1412689 L213.644448,24.2608478 L214.634528,25.286511 L215.722158,26.208582 L216.895922,27.0184739 L218.143613,27.7087689 L219.452356,28.273285 L220.808744,28.7071306 L222.198973,29.0067458 L223.608983,29.1699297 L224,29.1770906 L224,35.3051587 L224,35.3051587 C221.613021,33.4068449 215.449076,28.8231799 213.006046,30.0375763 C209.945811,31.5587763 210.180173,40.6067106 213.006046,42.0375763 C215.269054,43.1834384 221.57694,38.6817008 224,36.8429046 L224,50.9993054 C224,51.5519738 224.443865,52 225,52 C225.552285,52 226,51.5525308 226,50.9993054 L226,36.8307276 C228.361536,38.7760182 234.429186,43.4498585 236.889135,42.2801398 C239.975452,40.8125799 239.899034,31.7619334 237.098564,30.2819674 C234.851124,29.0942617 228.4432,33.5064703 226,35.2954136 L226,35.2954136 Z M214.289601,32.0250508 C216.256895,31.0109175 221.977511,36.0619587 221.977511,36.0619587 C221.977511,36.0619587 216.106233,40.9789613 214.289601,40.0250508 C212.472969,39.0711404 212.322307,33.0391842 214.289601,32.0250508 Z M235.640461,40.2705668 C233.655768,41.2502117 228.024176,36.1001012 228.024176,36.1001012 C228.024176,36.1001012 233.980373,31.2863154 235.780081,32.2717852 C237.579788,33.257255 237.625155,39.2909219 235.640461,40.2705668 Z" id="lolipop_2_L"></path>
                </g>
            </g>
        </g>
    </g>
</svg>