<?xml version="1.0" encoding="UTF-8" standalone="no"?>
<svg width="50px" height="42px" viewBox="0 0 50 42" version="1.1" xmlns="http://www.w3.org/2000/svg" xmlns:xlink="http://www.w3.org/1999/xlink" xmlns:sketch="http://www.bohemiancoding.com/sketch/ns">
    <!-- Generator: Sketch 3.1.1 (8761) - http://www.bohemiancoding.com/sketch -->
    <title>macaron_L</title>
    <desc>Created with Sketch.</desc>
    <defs>
        <radialGradient cx="50%" cy="50%" fx="50%" fy="50%" r="50%" id="radialGradient-1">
            <stop stop-color="#FF1B70" offset="0%"></stop>
            <stop stop-color="#FF1C70" offset="100%"></stop>
        </radialGradient>
    </defs>
    <g id="Page-2" stroke="none" stroke-width="1" fill="none" fill-rule="evenodd" sketch:type="MSPage">
        <g id="Artboard-1" sketch:type="MSArtboardGroup" transform="translate(-475.000000, -327.000000)" fill="#FF4D74">
            <g id="line-icons" sketch:type="MSLayerGroup" transform="translate(472.000000, 219.000000)">
                <g id="row-2-line-icons" transform="translate(3.000000, 103.000000)" sketch:type="MSShapeGroup">
                    <path d="M4.83724142,20.6392024 C4.9640006,20.6973774 5.09429857,20.7490853 5.22771334,20.793906 L5.22771334,20.793906 C5.62319573,21.6533407 6.4919192,22.25 7.5,22.25 C8.425353,22.25 9.23328279,21.7472517 9.66554454,21 L10.3344555,21 C10.7667172,21.7472517 11.574647,22.25 12.5,22.25 C13.425353,22.25 14.2332828,21.7472517 14.6655445,21 L14.6655445,21 L15.3344534,21 L15.3344559,21.0000007 C15.7667177,21.747252 16.5746473,22.25 17.5,22.25 C18.425353,22.25 19.2332828,21.7472517 19.6655445,21 L20.3344534,21 C20.7667177,21.747252 21.5746473,22.25 22.5,22.25 C23.425353,22.25 24.2332828,21.7472517 24.6655445,21 L24.6655445,21 L25.3344534,21 L25.3344559,21.0000007 C25.7667177,21.747252 26.5746473,22.25 27.5,22.25 C28.425353,22.25 29.2332828,21.7472517 29.6655445,21 L30.3344534,21 C30.7667177,21.747252 31.5746473,22.25 32.5,22.25 C33.425353,22.25 34.2332828,21.7472517 34.6655445,21 L34.6655445,21 L35.3344534,21 L35.3344559,21.0000007 C35.7667177,21.747252 36.5746473,22.25 37.5,22.25 C38.4253527,22.25 39.2332823,21.747252 39.6655466,21 L40.3344555,21 C40.7667172,21.7472517 41.574647,22.25 42.5,22.25 C43.507517,22.25 44.3758324,21.654008 44.7716226,20.7953478 L44.7716226,20.7953478 C44.9055077,20.7506239 45.0362369,20.6989876 45.1633885,20.6408553 L45.1633885,20.6408553 C45.5222973,21.5816844 46.4331019,22.25 47.5,22.25 C48.8807119,22.25 50,21.1307119 50,19.75 C50,18.3692881 48.8807119,17.25 47.5,17.25 C47.4972674,17.25 47.4945357,17.2500044 47.4918052,17.2500131 C47.4972407,17.1641459 47.5,17.0775264 47.5,16.990237 L47.5,15.009763 C47.5,12.795232 45.8726074,10.2549517 43.8265002,9.4348421 C43.8265002,9.4348421 37.5,5.87617409 25,5.87617493 C12.5,5.87617629 6.17349982,9.43484266 6.17349982,9.43484266 C4.14468189,10.2992552 2.5,12.7877996 2.5,15.009763 L2.5,16.990237 C2.5,17.0775084 2.50278276,17.1641286 2.50826369,17.2500134 C2.50551017,17.2500045 2.50275561,17.25 2.5,17.25 C1.11928806,17.25 0,18.3692881 0,19.75 C0,21.1307119 1.11928806,22.25 2.5,22.25 C3.56752283,22.25 4.47876924,21.5809015 4.83724142,20.6392024 Z M5.85950175,17.8634816 C5.30145371,17.5001699 4.93820516,16.8656702 4.95069893,16.1498932 L4.96921061,15.0893459 C4.9883318,13.9938794 5.78356989,12.6656229 6.7450633,12.1433006 C6.7450633,12.1433006 12.5913269,8.15880023 25.0894231,8.37695538 C37.5875193,8.59511094 43.2677385,12.768788 43.2677385,12.768788 C44.231769,13.3065593 44.9824023,14.6827086 44.9631191,15.7874422 L44.9446072,16.8479894 C44.9358549,17.3494059 44.7404833,17.8076131 44.4254009,18.15527 L44.4254009,18.15527 C43.9668355,17.6022392 43.2745527,17.25 42.5,17.25 C41.4686219,17.25 40.5831167,17.8745562 40.2010563,18.7660971 L39.7959001,18.759025 C39.4121957,17.8712552 38.5286489,17.25 37.5,17.25 C36.5023487,17.25 35.6411861,17.8343772 35.2401398,18.6795039 L35.2401398,18.6795039 L34.7558291,18.6710503 L34.7558291,18.6710503 C34.3530638,17.8304827 33.4943214,17.25 32.5,17.25 C31.5367661,17.25 30.700766,17.7947525 30.2832757,18.5929816 L29.7114753,18.5830007 C29.2922538,17.790215 28.4592139,17.25 27.5,17.25 C26.5719525,17.25 25.7620131,17.7556804 25.330689,18.5065338 L25.330689,18.5065338 L24.6625699,18.4948718 L24.6625699,18.4948718 C24.229583,17.750449 23.4232346,17.25 22.5,17.25 C21.6079995,17.25 20.8251102,17.7171603 20.3826475,18.4201655 L19.6087906,18.4066577 C19.1648352,17.7111825 18.3862751,17.25 17.5,17.25 C16.6450151,17.25 15.8902736,17.679193 15.4394726,18.333882 L15.4394726,18.333882 L14.5497472,18.3183518 L14.5497472,18.3183518 C14.0977516,17.672414 13.3482059,17.25 12.5,17.25 C11.6831285,17.25 10.9577624,17.6417808 10.5015538,18.2476903 L9.48496179,18.2299456 C9.02801743,17.6341426 8.3088694,17.25 7.5,17.25 C6.87225374,17.25 6.29854649,17.4813684 5.85950175,17.8634816 L5.85950175,17.8634816 Z M2.50819484,34.7499869 C2.50275931,34.8358541 2.5,34.9224736 2.5,35.009763 L2.5,36.990237 C2.5,39.204768 4.1273926,41.7450483 6.17349982,42.5651579 C6.17349982,42.5651579 12.5,46.1238259 25,46.1238251 C37.5,46.1238237 43.8265002,42.5651573 43.8265002,42.5651573 C45.8553181,41.7007448 47.5,39.2122004 47.5,36.990237 L47.5,35.009763 C47.5,34.9224916 47.4972172,34.8358714 47.4917363,34.7499866 L47.4917363,34.7499866 C47.4944898,34.7499955 47.4972444,34.75 47.5,34.75 C48.8807119,34.75 50,33.6307119 50,32.25 C50,30.8692881 48.8807119,29.75 47.5,29.75 C46.4324772,29.75 45.5212308,30.4190985 45.1627586,31.3607976 C45.0359994,31.3026226 44.9057014,31.2509147 44.7722867,31.206094 C44.3768043,30.3466593 43.5080808,29.75 42.5,29.75 C41.574647,29.75 40.7667172,30.2527483 40.3344555,31 L40.3344555,31 L39.6655466,31 L39.6655441,30.9999993 C39.2332823,30.252748 38.4253527,29.75 37.5,29.75 C36.5746473,29.75 35.7667177,30.252748 35.3344534,31 L34.6655445,31 C34.2332828,30.2527483 33.425353,29.75 32.5,29.75 C31.5746473,29.75 30.7667177,30.252748 30.3344559,30.9999993 L30.3344534,31 L29.6655445,31 L29.6655445,31 C29.2332828,30.2527483 28.425353,29.75 27.5,29.75 C26.5746473,29.75 25.7667177,30.252748 25.3344534,31 L24.6655445,31 C24.2332828,30.2527483 23.425353,29.75 22.5,29.75 C21.5746473,29.75 20.7667177,30.252748 20.3344559,30.9999993 L20.3344534,31 L19.6655445,31 L19.6655445,31 C19.2332828,30.2527483 18.425353,29.75 17.5,29.75 C16.5746473,29.75 15.7667177,30.252748 15.3344534,31 L14.6655445,31 C14.2332828,30.2527483 13.425353,29.75 12.5,29.75 C11.574647,29.75 10.7667172,30.2527483 10.3344555,31 L10.3344555,31 L9.66554454,31 L9.66554454,31 C9.23328279,30.2527483 8.425353,29.75 7.5,29.75 C6.49248305,29.75 5.62416757,30.345992 5.2283774,31.2046522 C5.09449235,31.2493761 4.96376315,31.3010124 4.83661154,31.3591447 C4.94217977,31.635877 5,31.9361862 5,32.25 C5,33.6279793 3.88513804,34.7455685 2.50819484,34.7499869 L2.50819484,34.7499869 Z M5.69871701,33.9836072 C5.27102529,34.3520255 5,34.8974197 5,35.5006019 L5,36.5613107 C4.99999999,37.6662126 5.77453613,39.0290519 6.74780515,39.5499167 C6.74780515,39.5499167 12.5,43.6238245 25,43.623825 C37.5,43.6238251 43.2758341,39.5379002 43.2758341,39.5379002 C44.2280652,38.9988771 45.0000009,37.656944 45.0000007,36.5613107 L45.0000005,35.5006019 C45.0000003,34.8928054 44.7302202,34.3483134 44.3034065,33.9813986 L44.3034065,33.9813986 C43.8484711,34.4551343 43.2086704,34.75 42.5,34.75 C41.574647,34.75 40.7667172,34.2472517 40.3344555,33.5 L39.6655445,33.5 C39.2332828,34.2472517 38.425353,34.75 37.5,34.75 C36.5746473,34.75 35.7667177,34.247252 35.3344559,33.5000007 L35.3344534,33.5 L34.6655466,33.5 L34.6655441,33.5000007 C34.2332823,34.247252 33.4253527,34.75 32.5,34.75 C31.5746473,34.75 30.7667177,34.247252 30.3344534,33.5 L29.6655466,33.5 C29.2332823,34.247252 28.4253527,34.75 27.5,34.75 C26.5746473,34.75 25.7667177,34.247252 25.3344559,33.5000007 L25.3344534,33.5 L24.6655445,33.5 L24.6655445,33.5 C24.2332828,34.2472517 23.425353,34.75 22.5,34.75 C21.5746473,34.75 20.7667177,34.247252 20.3344534,33.5 L19.6655445,33.5 C19.2332828,34.2472517 18.425353,34.75 17.5,34.75 C16.574647,34.75 15.7667172,34.2472517 15.3344555,33.5 L15.3344555,33.5 L14.6655445,33.5 L14.6655445,33.5 C14.2332828,34.2472517 13.425353,34.75 12.5,34.75 C11.574647,34.75 10.7667172,34.2472517 10.3344555,33.5 L9.66554454,33.5 C9.23328279,34.2472517 8.425353,34.75 7.5,34.75 C6.79243156,34.75 6.15351873,34.4560506 5.69871701,33.9836072 L5.69871701,33.9836072 Z M3.7505243,24.75 C3.0598788,24.75 2.5,25.304831 2.5,26 C2.5,26.6903559 3.06896627,27.25 3.7505243,27.25 L46.2494757,27.25 C46.9401212,27.25 47.5,26.695169 47.5,26 C47.5,25.3096441 46.9310337,24.75 46.2494757,24.75 L3.7505243,24.75 Z" id="macaron_L"></path>
                </g>
            </g>
        </g>
    </g>
</svg>