<?xml version="1.0" encoding="UTF-8" standalone="no"?>
<svg width="34px" height="50px" viewBox="0 0 34 50" version="1.1" xmlns="http://www.w3.org/2000/svg" xmlns:xlink="http://www.w3.org/1999/xlink" xmlns:sketch="http://www.bohemiancoding.com/sketch/ns">
    <!-- Generator: Sketch 3.1.1 (8761) - http://www.bohemiancoding.com/sketch -->
    <title>pour_over_L</title>
    <desc>Created with Sketch.</desc>
    <defs>
        <radialGradient cx="50%" cy="50%" fx="50%" fy="50%" r="50%" id="radialGradient-1">
            <stop stop-color="#FF1B70" offset="0%"></stop>
            <stop stop-color="#FF1C70" offset="100%"></stop>
        </radialGradient>
    </defs>
    <g id="Page-2" stroke="none" stroke-width="1" fill="none" fill-rule="evenodd" sketch:type="MSPage">
        <g id="Artboard-1" sketch:type="MSArtboardGroup" transform="translate(-584.000000, -723.000000)" fill="#FF4D74">
            <g id="line-icons" sketch:type="MSLayerGroup" transform="translate(472.000000, 219.000000)">
                <g id="row-6-line-icons" transform="translate(7.000000, 501.000000)" sketch:type="MSShapeGroup">
                    <path d="M126.901226,28 C126.933071,28.0004508 126.949559,28.0006885 126.949559,28.0006885 C126.991221,28.2706974 127.540239,29.757974 128.310299,31.7623533 C128.703284,32.7852496 135.930433,29.5040289 138.092633,34.6006971 C140.254834,39.6973654 132.400898,42.1648448 133.186816,44.1307036 C133.543153,45.0220292 133.764048,45.5752678 133.764048,45.5752678 C135.404143,49.680414 133.145899,53 128.724281,53 L111.576049,53 C107.150242,53 104.852379,49.6574303 106.434273,45.5341616 C106.434273,45.5341616 112.83839,28.9265258 112.993923,28.0006885 C112.993961,28.0004585 112.994018,28.000229 112.994093,28 L110.002462,28 C109.439458,28 109,27.5522847 109,27 C109,26.4438648 109.448817,26 110.002462,26 L129.997538,26 C130.560542,26 131,26.4477153 131,27 C131,27.5561352 130.551183,28 129.997538,28 L126.901226,28 L126.901226,28 Z M114.880609,28 C114.372546,29.5303103 108.02,45.7166335 108.02,45.7166335 C106.815014,48.7932859 108.526178,51.2874054 111.83911,51.2874053 L128.546558,51.2874049 C131.86078,51.2874048 133.527935,48.8078682 132.265906,45.7386362 C132.265906,45.7386362 131.76185,44.5127806 131.046114,42.7721226 C129.931052,40.060311 128.307704,36.112356 127.298722,33.6585299 C126.523151,31.7723532 125.747579,29.8861766 124.972008,28 L114.880609,28 L114.880609,28 Z M132.345531,41.7770975 C132.345531,40.9217844 137.89755,38.3160911 136.296659,35.1090784 C134.832444,32.1758648 129.221935,33.942034 129.211506,33.942034 C129.201077,33.942034 132.345531,41.7770978 132.345531,41.7770975 Z M106.809445,7 L115.89019,26 L124.128923,26 L125.682206,22.7621208 C126.852153,20.3233201 135.821706,19.9886808 137.333148,14.7430835 C138.84459,9.4974861 131.707004,10.2031913 131.98406,9.62565616 C132.403922,8.75043743 133.243646,7 133.243646,7 L106.809445,7 Z M110,9 C110,9 112.005003,13.3743993 113.736184,17.0628558 C114.243152,18.1430016 125.473448,18.5998838 126.245159,16.9642314 C127.782645,13.7055061 130.000001,9 130.000001,9 L110,9 Z M126.716698,20.0208191 C127.602436,18.1772127 134.708116,17.9055461 135.634278,14.4473319 C136.56044,10.9891176 130.945931,11.5904937 131.155684,11.1539073 C131.473551,10.4922875 126.324713,20.8367084 126.716698,20.0208191 Z M106.882734,3.02059507 L109,7 L131,7 L133.165079,3.02059507 L106.882734,3.02059507 Z M108.428937,3.97137767 L110,7 L130,7 L131.709741,3.97137767 L108.428937,3.97137767 Z M121,47 C121.552285,47 122,46.5522848 122,46 C122,45.4477152 121.257117,40.9063524 121,40.9063525 C120.742883,40.9063526 120,45.4477152 120,46 C120,46.5522848 120.447715,47 121,47 Z M121,37 C121.552285,37 122,36.5522848 122,36 C122,35.4477152 121.257117,30.9063524 121,30.9063525 C120.742883,30.9063526 120,35.4477152 120,36 C120,36.5522848 120.447715,37 121,37 Z" id="pour_over_L"></path>
                </g>
            </g>
        </g>
    </g>
</svg>