<?xml version="1.0" encoding="UTF-8" standalone="no"?>
<svg width="52px" height="50px" viewBox="0 0 52 50" version="1.1" xmlns="http://www.w3.org/2000/svg" xmlns:xlink="http://www.w3.org/1999/xlink" xmlns:sketch="http://www.bohemiancoding.com/sketch/ns">
    <!-- Generator: Sketch 3.1.1 (8761) - http://www.bohemiancoding.com/sketch -->
    <title>pudding_L</title>
    <desc>Created with Sketch.</desc>
    <defs>
        <radialGradient cx="50%" cy="50%" fx="50%" fy="50%" r="50%" id="radialGradient-1">
            <stop stop-color="#FF1B70" offset="0%"></stop>
            <stop stop-color="#FF1C70" offset="100%"></stop>
        </radialGradient>
    </defs>
    <g id="Page-2" stroke="none" stroke-width="1" fill="none" fill-rule="evenodd" sketch:type="MSPage">
        <g id="Artboard-1" sketch:type="MSArtboardGroup" transform="translate(-974.000000, -323.000000)" fill="#FF4D74">
            <g id="line-icons" sketch:type="MSLayerGroup" transform="translate(472.000000, 219.000000)">
                <g id="row-2-line-icons" transform="translate(3.000000, 103.000000)" sketch:type="MSShapeGroup">
                    <path d="M522.763893,6 L521.99519,6 C511.504436,6 503,14.5042825 503,25 L503,43 L503,43 L499.992336,43 C499.444284,43 499,43.4438648 499,44 C499,44.5522847 499.449543,45 499.992336,45 L550.007664,45 C550.555716,45 551,44.5561352 551,44 C551,43.4477153 550.550457,43 550.007664,43 L547,43 L547,25 C547,14.5065898 538.490285,6 528.00481,6 L527.236107,6 C527.711146,5.46924352 528,4.76835446 528,4 C528,2.34314567 526.656854,1 525,1 C523.343146,1 522,2.34314567 522,4 C522,4.76835446 522.288854,5.46924352 522.763893,6 L522.763893,6 Z M524,45 L524,49 L526,49 L526,45 L524,45 Z M520.002473,49 C519.448823,49 519,49.4438648 519,50 C519,50.5522847 519.455761,51 520.002473,51 L529.997527,51 C530.551177,51 531,50.5561352 531,50 C531,49.4477153 530.544239,49 529.997527,49 L520.002473,49 Z M513.596791,10.5487478 C512.162623,11.3691706 511,13.3847255 511,15.0315166 L511,43 L517,43 L517,11.6006915 C517,9.94451872 515.828896,9.27186109 514.403209,10.0874324 L513.596791,10.5487478 Z M505.917681,20.2652312 C505.41086,21.2525587 505,22.9530144 505,24.0614373 L505,43 C505.560744,42.9999997 509,43 509,43 C509,43 509,16.2587097 509,16.2587097 C509,15.155201 508.586996,15.0651956 508.082319,16.048345 L505.917681,20.2652312 Z M525,8 C521.686292,8 519,10.6882755 519,13.9968185 C519,13.9968185 519,43 519,43 C519,43 531,43 531,43 L531,13.9968185 C531,10.6848671 528.306966,8 525,8 Z M535.54454,10.601525 C534.139229,9.71702718 533,10.3433124 533,12.0023584 L533,43 L539,43 L539,15.7848316 C539,14.1233096 537.871446,12.0660717 536.45546,11.1748548 L535.54454,10.601525 Z M541.968288,16.7522334 C541.433517,15.7845016 541,15.8998975 541,16.9912443 L541,43 C541,43 545,43.0000017 545,43.0000013 L545,24.2291793 C545,23.1297448 544.564315,21.4500538 544.031712,20.4862437 L541.968288,16.7522334 Z" id="pudding_L"></path>
                </g>
            </g>
        </g>
    </g>
</svg>