<?xml version="1.0" encoding="UTF-8" standalone="no"?>
<svg width="28px" height="53px" viewBox="0 0 28 53" version="1.1" xmlns="http://www.w3.org/2000/svg" xmlns:xlink="http://www.w3.org/1999/xlink" xmlns:sketch="http://www.bohemiancoding.com/sketch/ns">
    <!-- Generator: Sketch 3.1.1 (8761) - http://www.bohemiancoding.com/sketch -->
    <title>siphon_pot_L</title>
    <desc>Created with Sketch.</desc>
    <defs>
        <radialGradient cx="50%" cy="50%" fx="50%" fy="50%" r="50%" id="radialGradient-1">
            <stop stop-color="#FF1B70" offset="0%"></stop>
            <stop stop-color="#FF1C70" offset="100%"></stop>
        </radialGradient>
    </defs>
    <g id="Page-2" stroke="none" stroke-width="1" fill="none" fill-rule="evenodd" sketch:type="MSPage">
        <g id="Artboard-1" sketch:type="MSArtboardGroup" transform="translate(-790.000000, -722.000000)" fill="#FF4D74">
            <g id="line-icons" sketch:type="MSLayerGroup" transform="translate(472.000000, 219.000000)">
                <g id="row-6-line-icons" transform="translate(7.000000, 501.000000)" sketch:type="MSShapeGroup">
                    <path d="M322,26 L331.996657,26 C334.759927,26 337,28.2440262 337,31.0058389 L337,31.0843716 L337,31.0843716 C336.417404,31.2882352 336,31.8401106 336,32.5037099 L336,47.4962901 C336,48.1518663 336.414891,48.7094572 337,48.9152397 L337,48.9941611 C337,51.7588096 334.752632,54 331.996657,54 L316,54 L316,55 L332.002938,55 C335.315024,55 338,52.3112985 338,49.001155 L338,48.9156284 C338.582596,48.7117648 339,48.1598894 339,47.4962901 L339,32.5037099 C339,31.8481337 338.585109,31.2905428 338,31.0847603 L338,30.998845 C338,27.6857744 335.313374,25 332.002938,25 L322,25 L322,24.9953976 C322,24.4456547 321.556135,24 321,24 C320.447715,24 320,24.4556644 320,24.9953976 L320,25 L316,25 C316,25 316,26 316,26 L320,26 L320,27.0444377 C314.946677,27.4959897 311,31.3331865 311,36 C311,40.970563 315.477152,45 321,45 C326.522848,45 331,40.970563 331,36 C331,31.3331865 327.053323,27.4959897 322,27.0444377 L322,26 Z M322,29.054157 C325.946312,29.4847428 329,32.4303344 329,36 C329,39.8659934 325.418278,43 321,43 C316.581722,43 313,39.8659934 313,36 C313,32.4303344 316.053688,29.4847428 320,29.054157 L320,33.0046024 C320,33.5543453 320.443865,34 321,34 C321.552285,34 322,33.5443356 322,33.0046024 L322,29.054157 L322,29.054157 Z M314,46 C314,46 315.380661,52.0429798 315.380661,52.0429798 C315.627603,53.1238122 316.715754,54 317.835879,54 L324.234563,54 C325.343601,54 326.434066,53.1286308 326.672549,52.0429798 C326.672549,52.0429798 328,46 328,46 C328,46 314,46 314,46 Z M316.106976,47.854622 L316.901122,51.0385476 C317.033565,51.5695431 317.582165,52 318.143595,52 L323.929859,52 C324.483615,52 325.03527,51.556372 325.160053,51.0176033 C325.160053,51.0176033 325.892624,47.854622 325.892624,47.854622 C325.892624,47.854622 316.106976,47.854622 316.106976,47.854622 Z M313,1.99999999 C313,1.99999999 313,18.0029381 313,18.0029381 C313,21.3150239 315.67804,24 319.003331,24 L322.996669,24 C326.312217,24 329,21.3133742 329,18.0029381 L329,1.99999999 C329,2.00000001 313,1.99999999 313,1.99999999 Z M322.047112,6 C322.047112,5.99999999 321.891623,9.00420737 321.891623,9.00420737 L320.017048,9.00420737 C320.017048,8.00280486 320.017048,7.00140243 320.017048,6 C320.017048,6 315,6 315,6 C315,6 315,18.0037973 315,18.0037973 C315,20.2108391 316.796521,22 318.995826,22 L323.004174,22 C325.211008,22 327,20.2111696 327,18.0037973 L327,6 C327,6 322.047112,6.00000001 322.047112,6 Z" id="siphon_pot_L"></path>
                </g>
            </g>
        </g>
    </g>
</svg>