<?xml version="1.0" encoding="UTF-8" standalone="no"?>
<svg width="34px" height="47px" viewBox="0 0 34 47" version="1.1" xmlns="http://www.w3.org/2000/svg" xmlns:xlink="http://www.w3.org/1999/xlink" xmlns:sketch="http://www.bohemiancoding.com/sketch/ns">
    <!-- Generator: Sketch 3.1.1 (8761) - http://www.bohemiancoding.com/sketch -->
    <title>spoon_fork_L</title>
    <desc>Created with Sketch.</desc>
    <defs>
        <radialGradient cx="50%" cy="50%" fx="50%" fy="50%" r="50%" id="radialGradient-1">
            <stop stop-color="#FF1B70" offset="0%"></stop>
            <stop stop-color="#FF1C70" offset="100%"></stop>
        </radialGradient>
    </defs>
    <g id="Page-2" stroke="none" stroke-width="1" fill="none" fill-rule="evenodd" sketch:type="MSPage">
        <g id="Artboard-1" sketch:type="MSArtboardGroup" transform="translate(-483.000000, -624.000000)" fill="#FF4D74">
            <g id="line-icons" sketch:type="MSLayerGroup" transform="translate(472.000000, 219.000000)">
                <g id="row-5-line-icons" transform="translate(11.000000, 402.000000)" sketch:type="MSShapeGroup">
                    <path d="M30.7516799,49.9630966 C31.3933913,49.9630966 31.8544978,49.9630966 31.8544978,49.9630966 C31.8544978,49.9630966 33.7239934,35.2713184 33.08202,34.1653633 C32.4400465,33.0594081 28.3915711,30.0914426 27.906338,30.0282174 C27.7384183,30.0063377 27.572975,23.2326419 27.9063382,16.4926538 C28.1178669,12.2159342 29.077539,7.95036667 28.6116276,5.43967915 C28.3538428,4.05053714 27.4560656,2.99999972 26.8854666,3 C26.2881449,3.0000003 25.4997022,3.93279738 25.2444959,5.43967915 C24.8005876,8.0607626 25.7015083,12.1481924 25.9098568,16.4926538 C26.228869,23.1446649 26.0666399,30.0031779 25.9098566,30.0228178 C25.3656521,30.0909892 21.6246441,33.2328034 21.0105849,34.1653633 C20.3965257,35.097923 22.1236584,49.9630966 22.1236584,49.9630966 C22.1236584,49.9630966 21.0498875,49.9630986 23.3027722,49.9630982 L23.3027722,49.9630982 L23.0259592,36 L25.2327715,36 L26.3247939,49.9630971 C26.504601,49.963097 26.691406,49.9630969 26.8854666,49.9630968 C26.9644857,49.9630968 27.3457984,49.9630967 27.8648918,49.9630967 L28.8316054,36 L30.9701996,36 L30.7516799,49.9630966 Z M7,50 C10.275733,50 14.0238199,43.7429415 14.0238199,38.2200937 C14.0238199,33.1923457 11.4067874,30.5063008 8.02087146,30.0651206 C7.85295175,30.0432409 7.68750846,23.2695451 8.02087166,16.529557 C8.23240031,12.2528374 9.19207246,7.98726987 8.72616102,5.47658235 C8.46837621,4.08744034 7.57059909,3.03690292 7.00000002,3.0369032 C6.40267836,3.0369035 5.61423569,3.96970058 5.35902931,5.47658235 C4.915121,8.09766581 5.81604178,12.1850956 6.02439024,16.529557 C6.34340245,23.1815681 6.18117334,30.0400811 6.02439008,30.059721 C2.6378096,30.4839507 0.114533441,33.1713901 0.114533441,38.2200937 C0.114533441,43.7429415 3.72426701,50.0000007 7,50 Z M7,48 C9.33980928,48 12.0170142,42.9943532 12.0170142,38.576075 C12.0170142,34.5538766 10.5186525,32.4050406 8.10014113,32.0520965 C8.03858776,32.0431137 7.51019295,31.9403076 7.00000008,31.9403076 C6.48980721,31.9403076 6.0389182,32.0444477 5.98440131,32.0520965 C3.56541525,32.3914802 2.0818096,34.537112 2.0818096,38.576075 C2.0818096,42.9943532 4.66019072,48.0000006 7,48 Z" id="spoon_fork_L"></path>
                </g>
            </g>
        </g>
    </g>
</svg>