<?xml version="1.0" encoding="UTF-8" standalone="no"?>
<svg width="53px" height="52px" viewBox="0 0 53 52" version="1.1" xmlns="http://www.w3.org/2000/svg" xmlns:xlink="http://www.w3.org/1999/xlink" xmlns:sketch="http://www.bohemiancoding.com/sketch/ns">
    <!-- Generator: Sketch 3.1.1 (8761) - http://www.bohemiancoding.com/sketch -->
    <title>waffle_L</title>
    <desc>Created with Sketch.</desc>
    <defs>
        <radialGradient cx="50%" cy="50%" fx="50%" fy="50%" r="50%" id="radialGradient-1">
            <stop stop-color="#FF1B70" offset="0%"></stop>
            <stop stop-color="#FF1C70" offset="100%"></stop>
        </radialGradient>
    </defs>
    <g id="Page-2" stroke="none" stroke-width="1" fill="none" fill-rule="evenodd" sketch:type="MSPage">
        <g id="Artboard-1" sketch:type="MSArtboardGroup" transform="translate(-774.000000, -322.000000)" fill="#FF4D74">
            <g id="line-icons" sketch:type="MSLayerGroup" transform="translate(472.000000, 219.000000)">
                <g id="row-2-line-icons" transform="translate(3.000000, 103.000000)" sketch:type="MSShapeGroup">
                    <path d="M314.954951,24.5407377 L318.540738,20.9549513 L318.540738,20.9549513 L315,17.4142136 L311.414214,21 L314.954951,24.5407377 Z M313.540738,25.9549513 L309.909903,29.5857864 L309.909903,29.5857864 L306.369165,26.0450487 L310,22.4142136 L313.540738,25.9549513 Z M330.914214,40.5 L334.5,36.9142136 L335.607208,38.0214219 C335.997398,38.4116112 336.627568,38.4140622 337.020815,38.0208153 C337.41134,37.630291 337.406242,36.9920285 337.021422,36.6072083 L335.914214,35.5 L337.48479,33.9294234 C337.875586,33.5386278 337.878528,32.9079656 337.485281,32.5147186 C337.094757,32.1241943 336.461766,32.1240204 336.070577,32.5152098 L334.5,34.0857864 L331.414214,31 L335,27.4142136 L337.070577,29.4847902 C337.461372,29.8755858 338.092034,29.8785283 338.485281,29.4852814 C338.875806,29.0947571 338.87598,28.4617661 338.48479,28.0705766 L336.414214,26 L337.021422,25.3927917 C337.411611,25.0026024 337.414062,24.3724317 337.020815,23.9791847 C336.630291,23.5886604 335.992028,23.593758 335.607208,23.9785781 L335,24.5857864 L331.414214,21 L333.437238,18.9769753 C333.826542,18.5876712 333.828276,17.9582181 333.435029,17.5649712 C333.044505,17.1744469 332.40744,17.1783466 332.023025,17.5627617 L330,19.5857864 L326.369165,15.9549513 L326.931324,15.3927917 C327.321514,15.0026024 327.323965,14.3724317 326.930718,13.9791847 C326.540194,13.5886604 325.901931,13.593758 325.517111,13.9785781 L324.954951,14.5407377 L322.929423,12.5152098 C322.538628,12.1244142 321.907966,12.1214717 321.514719,12.5147186 C321.124194,12.9052429 321.12402,13.5382339 321.51521,13.9294234 L323.540738,15.9549513 L323.540738,15.9549513 L319.954951,19.5407377 L319.954951,19.5407377 L316.414214,16 L318.48479,13.9294234 C318.875586,13.5386278 318.878528,12.9079656 318.485281,12.5147186 C318.094757,12.1241943 317.461766,12.1240204 317.070577,12.5152098 L315,14.5857864 L314.392792,13.9785781 C314.002602,13.5883888 313.372432,13.5859378 312.979185,13.9791847 C312.58866,14.369709 312.593758,15.0079715 312.978578,15.3927917 L313.585786,16 L310,19.5857864 L307.976975,17.5627617 C307.587671,17.1734577 306.958218,17.1717242 306.564971,17.5649712 C306.174447,17.9554954 306.178347,18.5925602 306.562762,18.9769753 L308.585786,21 L304.954951,24.6308351 L304.302694,23.9785781 C303.912505,23.5883888 303.282334,23.5859378 302.889087,23.9791847 C302.498563,24.369709 302.503661,25.0079715 302.888481,25.3927917 L303.540738,26.0450487 L301.51521,28.0705766 C301.124414,28.4613722 301.121472,29.0920344 301.514719,29.4852814 C301.905243,29.8758057 302.538234,29.8759796 302.929423,29.4847902 L304.954951,27.4592623 L308.495689,31 L304.954951,34.5407377 L302.929423,32.5152098 C302.538628,32.1244142 301.907966,32.1214717 301.514719,32.5147186 C301.124194,32.9052429 301.12402,33.5382339 301.51521,33.9294234 L303.540738,35.9549513 L302.888481,36.6072083 C302.498291,36.9973976 302.49584,37.6275683 302.889087,38.0208153 C303.279612,38.4113396 303.917874,38.406242 304.302694,38.0214219 L304.954951,37.3691649 L304.954951,37.3691649 L308.585786,41 L306.562762,43.0230247 C306.173458,43.4123288 306.171724,44.0417819 306.564971,44.4350288 C306.955495,44.8255531 307.59256,44.8216534 307.976975,44.4372383 L310,42.4142136 L313.585786,46 L312.978578,46.6072083 C312.588389,46.9973976 312.585938,47.6275683 312.979185,48.0208153 C313.369709,48.4113396 314.007972,48.406242 314.392792,48.0214219 L315,47.4142136 L317.070577,49.4847902 C317.461372,49.8755858 318.092034,49.8785283 318.485281,49.4852814 C318.875806,49.0947571 318.87598,48.4617661 318.48479,48.0705766 L316.414214,46 L319.954951,42.4592623 L323.040738,45.5450487 L320.51521,48.0705766 C320.124414,48.4613722 320.121472,49.0920344 320.514719,49.4852814 C320.905243,49.8758057 321.538234,49.8759796 321.929423,49.4847902 L324.454951,46.9592623 L325.517111,48.0214219 C325.9073,48.4116112 326.537471,48.4140622 326.930718,48.0208153 C327.321242,47.630291 327.316145,46.9920285 326.931324,46.6072083 L325.869165,45.5450487 L329.5,41.9142136 L332.023025,44.4372383 C332.412329,44.8265423 333.041782,44.8282758 333.435029,44.4350288 C333.825553,44.0445046 333.821653,43.4074398 333.437238,43.0230247 L330.914214,40.5 Z M326.414214,36 L330,32.4142136 L330,32.4142136 L333.085786,35.5 L329.5,39.0857864 L326.414214,36 Z M325,37.4142136 L321.369165,41.0450487 L324.454951,44.1308351 L328.085786,40.5 L325,37.4142136 Z M316.369165,25.9549513 L319.954951,22.3691649 L319.954951,22.3691649 L323.585786,26 L320,29.5857864 L316.369165,25.9549513 Z M314.954951,27.3691649 L311.324116,31 L311.324116,31 L314.954951,34.6308351 L318.585786,31 L314.954951,27.3691649 Z M321.414214,31 L325,27.4142136 L325,27.4142136 L328.585786,31 L325,34.5857864 L321.414214,31 Z M320,32.4142136 L316.369165,36.0450487 L316.369165,36.0450487 L319.954951,39.6308351 L323.585786,36 L320,32.4142136 Z M321.369165,20.9549513 L324.954951,17.3691649 L324.954951,17.3691649 L328.585786,21 L325,24.5857864 L321.369165,20.9549513 L321.369165,20.9549513 Z M326.414214,26 L330,22.4142136 L330,22.4142136 L333.585786,26 L330,29.5857864 L326.414214,26 L326.414214,26 Z M309.909903,32.4142136 L306.369165,35.9549513 L310,39.5857864 L313.540738,36.0450487 L309.909903,32.4142136 L309.909903,32.4142136 Z M314.954951,37.4592623 L311.414214,41 L315,44.5857864 L318.540738,41.0450487 L314.954951,37.4592623 L314.954951,37.4592623 Z M338.714068,40.5378848 C346.495263,37.4631427 352,29.8744218 352,21 C352,9.40201968 342.59798,0 331,0 C322.836208,0 315.760454,4.65843727 312.285932,11.4621152 C304.504737,14.5368573 299,22.1255782 299,31 C299,42.5979803 308.40202,52 320,52 C328.163791,52 335.239545,47.341564 338.714066,40.5378876 L338.714068,40.5378848 Z M339.872792,37.8053095 C345.896,34.6186081 350,28.2885746 350,21 C350,10.5065892 341.493411,2 331,2 C324.358018,2 318.51205,5.408141 315.115486,10.5710332 C316.682845,10.1976666 318.318339,10 320,10 C331.59798,10 341,19.4020197 341,31 C341,33.3818593 340.603459,35.6711013 339.872792,37.8053095 L339.872792,37.8053095 Z M320,50 C330.493411,50 339,41.4934108 339,31 C339,20.5065892 330.493411,12 320,12 C309.506589,12 301,20.5065892 301,31 C301,41.4934108 309.506589,50 320,50 Z" id="waffle_L"></path>
                </g>
            </g>
        </g>
    </g>
</svg>