<?xml version="1.0" encoding="UTF-8" standalone="no"?>
<svg width="50px" height="53px" viewBox="0 0 50 53" version="1.1" xmlns="http://www.w3.org/2000/svg" xmlns:xlink="http://www.w3.org/1999/xlink" xmlns:sketch="http://www.bohemiancoding.com/sketch/ns">
    <!-- Generator: Sketch 3.1.1 (8761) - http://www.bohemiancoding.com/sketch -->
    <title>wedding_cake_L</title>
    <desc>Created with Sketch.</desc>
    <defs>
        <radialGradient cx="50%" cy="50%" fx="50%" fy="50%" r="50%" id="radialGradient-1">
            <stop stop-color="#FF1B70" offset="0%"></stop>
            <stop stop-color="#FF1C70" offset="100%"></stop>
        </radialGradient>
    </defs>
    <g id="Page-2" stroke="none" stroke-width="1" fill="none" fill-rule="evenodd" sketch:type="MSPage">
        <g id="Artboard-1" sketch:type="MSArtboardGroup" transform="translate(-675.000000, -221.000000)" fill="#FF4D74">
            <g id="line-icons" sketch:type="MSLayerGroup" transform="translate(472.000000, 219.000000)">
                <g id="row-1-line-icons" sketch:type="MSShapeGroup">
                    <path d="M222.006845,53 C221.45078,53 221,53.4438648 221,54 C221,54.5522847 221.449949,55 222.006845,55 L233.993155,55 C234.54922,55 235,54.5561352 235,54 C235,53.4477153 234.550051,53 233.993155,53 L222.006845,53 Z M203.998769,43 C203.447164,43 203,43.4438648 203,44 C203,44.5522847 203.447526,45 203.998769,45 L252.001231,45 C252.552836,45 253,44.5561352 253,44 C253,43.4477153 252.552474,43 252.001231,43 L203.998769,43 Z M227,45 L227,53 L229,53 L229,45 L227,45 Z M210.003681,28 C208.344794,28 207,29.3414923 207,30.9929765 L207,38.7143088 C207,40.1428726 207,43 207,43 L249,43 C249,43 249,30.9994225 249,30.9994225 C249,29.3428872 247.650154,28 245.996319,28 L210.003681,28 Z M216.000019,15 C214.343154,15 213,16.3422643 213,17.9987856 C213,17.9987856 213,28 213,28 L243,28 L243,17.9987856 C243,16.3426021 241.652681,15 239.999981,15 L216.000019,15 Z M221.99254,6 C220.339806,6 219,7.34739093 219,8.99686968 L219,15 L237,15 L237,8.99686968 C237,7.34174426 235.647074,6 234.00746,6 L221.99254,6 Z M228,6 C229.10457,6 230,5.10456955 230,4 C230,2.89543045 229.10457,2 228,2 C226.89543,2 226,2.89543045 226,4 C226,5.10456955 226.89543,6 228,6 Z M223.005859,8 C221.898054,8 221,8.88655484 221,10.0059191 C221,10.0059191 221,15 221,15 L235,15 L235,10.0059191 C235,8.89808055 234.10294,8 232.994141,8 L223.005859,8 Z M211.002859,30 C209.896711,30 209,30.8935426 209,32.0027601 L209,43 L247,43 L247,32.0027601 C247,30.8966663 246.098149,30 244.997141,30 L211.002859,30 Z M216.997005,17 C215.894089,17 215,17.9001762 215,18.992017 L215,28 L241,28 L241,18.992017 C241,17.8918564 240.105021,17 239.002995,17 L216.997005,17 Z M232,12 C232.552285,12 233,11.5522848 233,11 C233,10.4477152 232.552285,10 232,10 C231.447715,10 231,10.4477152 231,11 C231,11.5522848 231.447715,12 232,12 Z M228,12 C228.552285,12 229,11.5522848 229,11 C229,10.4477152 228.552285,10 228,10 C227.447715,10 227,10.4477152 227,11 C227,11.5522848 227.447715,12 228,12 Z M224,12 C224.552285,12 225,11.5522848 225,11 C225,10.4477152 224.552285,10 224,10 C223.447715,10 223,10.4477152 223,11 C223,11.5522848 223.447715,12 224,12 Z M238,21 C238.552285,21 239,20.5522848 239,20 C239,19.4477152 238.552285,19 238,19 C237.447715,19 237,19.4477152 237,20 C237,20.5522848 237.447715,21 238,21 Z M234,21 C234.552285,21 235,20.5522848 235,20 C235,19.4477152 234.552285,19 234,19 C233.447715,19 233,19.4477152 233,20 C233,20.5522848 233.447715,21 234,21 Z M230,21 C230.552285,21 231,20.5522848 231,20 C231,19.4477152 230.552285,19 230,19 C229.447715,19 229,19.4477152 229,20 C229,20.5522848 229.447715,21 230,21 Z M226,21 C226.552285,21 227,20.5522848 227,20 C227,19.4477152 226.552285,19 226,19 C225.447715,19 225,19.4477152 225,20 C225,20.5522848 225.447715,21 226,21 Z M222,21 C222.552285,21 223,20.5522848 223,20 C223,19.4477152 222.552285,19 222,19 C221.447715,19 221,19.4477152 221,20 C221,20.5522848 221.447715,21 222,21 Z M218,21 C218.552285,21 219,20.5522848 219,20 C219,19.4477152 218.552285,19 218,19 C217.447715,19 217,19.4477152 217,20 C217,20.5522848 217.447715,21 218,21 Z M244,34 C244.552285,34 245,33.5522848 245,33 C245,32.4477152 244.552285,32 244,32 C243.447715,32 243,32.4477152 243,33 C243,33.5522848 243.447715,34 244,34 Z M240,34 C240.552285,34 241,33.5522848 241,33 C241,32.4477152 240.552285,32 240,32 C239.447715,32 239,32.4477152 239,33 C239,33.5522848 239.447715,34 240,34 Z M236,34 C236.552285,34 237,33.5522848 237,33 C237,32.4477152 236.552285,32 236,32 C235.447715,32 235,32.4477152 235,33 C235,33.5522848 235.447715,34 236,34 Z M232,34 C232.552285,34 233,33.5522848 233,33 C233,32.4477152 232.552285,32 232,32 C231.447715,32 231,32.4477152 231,33 C231,33.5522848 231.447715,34 232,34 Z M228,34 C228.552285,34 229,33.5522848 229,33 C229,32.4477152 228.552285,32 228,32 C227.447715,32 227,32.4477152 227,33 C227,33.5522848 227.447715,34 228,34 Z M224,34 C224.552285,34 225,33.5522848 225,33 C225,32.4477152 224.552285,32 224,32 C223.447715,32 223,32.4477152 223,33 C223,33.5522848 223.447715,34 224,34 Z M220,34 C220.552285,34 221,33.5522848 221,33 C221,32.4477152 220.552285,32 220,32 C219.447715,32 219,32.4477152 219,33 C219,33.5522848 219.447715,34 220,34 Z M216,34 C216.552285,34 217,33.5522848 217,33 C217,32.4477152 216.552285,32 216,32 C215.447715,32 215,32.4477152 215,33 C215,33.5522848 215.447715,34 216,34 Z M212,34 C212.552285,34 213,33.5522848 213,33 C213,32.4477152 212.552285,32 212,32 C211.447715,32 211,32.4477152 211,33 C211,33.5522848 211.447715,34 212,34 Z" id="wedding_cake_L"></path>
                </g>
            </g>
        </g>
    </g>
</svg>